%TF.GenerationSoftware,KiCad,Pcbnew,7.0.10*%
%TF.CreationDate,2024-07-30T22:38:02+09:00*%
%TF.ProjectId,Latch-Circuit,4c617463-682d-4436-9972-637569742e6b,rev?*%
%TF.SameCoordinates,Original*%
%TF.FileFunction,Copper,L2,Bot*%
%TF.FilePolarity,Positive*%
%FSLAX46Y46*%
G04 Gerber Fmt 4.6, Leading zero omitted, Abs format (unit mm)*
G04 Created by KiCad (PCBNEW 7.0.10) date 2024-07-30 22:38:02*
%MOMM*%
%LPD*%
G01*
G04 APERTURE LIST*
G04 Aperture macros list*
%AMRoundRect*
0 Rectangle with rounded corners*
0 $1 Rounding radius*
0 $2 $3 $4 $5 $6 $7 $8 $9 X,Y pos of 4 corners*
0 Add a 4 corners polygon primitive as box body*
4,1,4,$2,$3,$4,$5,$6,$7,$8,$9,$2,$3,0*
0 Add four circle primitives for the rounded corners*
1,1,$1+$1,$2,$3*
1,1,$1+$1,$4,$5*
1,1,$1+$1,$6,$7*
1,1,$1+$1,$8,$9*
0 Add four rect primitives between the rounded corners*
20,1,$1+$1,$2,$3,$4,$5,0*
20,1,$1+$1,$4,$5,$6,$7,0*
20,1,$1+$1,$6,$7,$8,$9,0*
20,1,$1+$1,$8,$9,$2,$3,0*%
G04 Aperture macros list end*
%TA.AperFunction,ComponentPad*%
%ADD10C,1.950000*%
%TD*%
%TA.AperFunction,ComponentPad*%
%ADD11C,0.800000*%
%TD*%
%TA.AperFunction,ComponentPad*%
%ADD12C,6.400000*%
%TD*%
%TA.AperFunction,ComponentPad*%
%ADD13RoundRect,0.050000X-1.187500X1.187500X-1.187500X-1.187500X1.187500X-1.187500X1.187500X1.187500X0*%
%TD*%
%TA.AperFunction,ComponentPad*%
%ADD14C,2.475000*%
%TD*%
%TA.AperFunction,ViaPad*%
%ADD15C,0.600000*%
%TD*%
%TA.AperFunction,Conductor*%
%ADD16C,0.300000*%
%TD*%
G04 APERTURE END LIST*
D10*
%TO.P,K3,1,1*%
%TO.N,GND*%
X57680000Y-47310000D03*
%TO.P,K3,2,2*%
%TO.N,Net-(K2-Pad3)*%
X67840000Y-47310000D03*
%TO.P,K3,3,3*%
%TO.N,/SHDN_OUT*%
X75460000Y-47310000D03*
%TO.P,K3,5,5*%
%TO.N,/IMD_RELAY_DRIVE*%
X57680000Y-39690000D03*
%TD*%
D11*
%TO.P,H4,1,1*%
%TO.N,unconnected-(H4-Pad1)*%
X82600000Y-45000000D03*
X83302944Y-43302944D03*
X83302944Y-46697056D03*
X85000000Y-42600000D03*
D12*
X85000000Y-45000000D03*
D11*
X85000000Y-47400000D03*
X86697056Y-43302944D03*
X86697056Y-46697056D03*
X87400000Y-45000000D03*
%TD*%
D13*
%TO.P,J7,1,Pin_1*%
%TO.N,/SHDN_IN*%
X85550000Y-18000000D03*
D14*
%TO.P,J7,2,Pin_2*%
%TO.N,/SHDN_OUT*%
X85550000Y-21960000D03*
%TD*%
D10*
%TO.P,K2,1,1*%
%TO.N,GND*%
X57680000Y-36310000D03*
%TO.P,K2,2,2*%
%TO.N,Net-(K1-Pad3)*%
X67840000Y-36310000D03*
%TO.P,K2,3,3*%
%TO.N,Net-(K2-Pad3)*%
X75460000Y-36310000D03*
%TO.P,K2,5,5*%
%TO.N,/BSPD_RELAY_DRIVE*%
X57680000Y-28690000D03*
%TD*%
D11*
%TO.P,H1,1,1*%
%TO.N,Net-(C12-Pad1)*%
X2600000Y-5000000D03*
X3302944Y-3302944D03*
X3302944Y-6697056D03*
X5000000Y-2600000D03*
D12*
X5000000Y-5000000D03*
D11*
X5000000Y-7400000D03*
X6697056Y-3302944D03*
X6697056Y-6697056D03*
X7400000Y-5000000D03*
%TD*%
%TO.P,H3,1,1*%
%TO.N,unconnected-(H3-Pad1)*%
X2600000Y-45000000D03*
X3302944Y-43302944D03*
X3302944Y-46697056D03*
X5000000Y-42600000D03*
D12*
X5000000Y-45000000D03*
D11*
X5000000Y-47400000D03*
X6697056Y-43302944D03*
X6697056Y-46697056D03*
X7400000Y-45000000D03*
%TD*%
D10*
%TO.P,K1,1,1*%
%TO.N,GND*%
X57680000Y-25310000D03*
%TO.P,K1,2,2*%
%TO.N,/SHDN_IN*%
X67840000Y-25310000D03*
%TO.P,K1,3,3*%
%TO.N,Net-(K1-Pad3)*%
X75460000Y-25310000D03*
%TO.P,K1,5,5*%
%TO.N,/AMS_RELAY_DRIVE*%
X57680000Y-17690000D03*
%TD*%
D11*
%TO.P,H2,1,1*%
%TO.N,unconnected-(H2-Pad1)*%
X82600000Y-5000000D03*
X83302944Y-3302944D03*
X83302944Y-6697056D03*
X85000000Y-2600000D03*
D12*
X85000000Y-5000000D03*
D11*
X85000000Y-7400000D03*
X86697056Y-3302944D03*
X86697056Y-6697056D03*
X87400000Y-5000000D03*
%TD*%
D15*
%TO.N,GND*%
X84750000Y-39250000D03*
X51500000Y-35250000D03*
X13500000Y-39000000D03*
X73000000Y-24000000D03*
X11250000Y-39000000D03*
X1000000Y-42500000D03*
X13500000Y-43000000D03*
X20000000Y-19000000D03*
X38250000Y-38000000D03*
X35250000Y-39500000D03*
X89000000Y-17500000D03*
X80000000Y-49000000D03*
X29750000Y-42500000D03*
X42250000Y-43250000D03*
X35500000Y-28000000D03*
X30000000Y-1000000D03*
X65000000Y-12250000D03*
X37000000Y-42500000D03*
X5750000Y-31750000D03*
X24500000Y-37250000D03*
X15750000Y-16750000D03*
X44500000Y-23750000D03*
X5000000Y-49000000D03*
X59250000Y-21000000D03*
X43750000Y-25500000D03*
X45500000Y-17500000D03*
X59250000Y-32750000D03*
X22500000Y-13750000D03*
X75000000Y-11750000D03*
X43750000Y-31000000D03*
X70750000Y-12250000D03*
X1000000Y-10000000D03*
X29250000Y-30250000D03*
X35000000Y-1000000D03*
X5000000Y-10000000D03*
X54500000Y-43000000D03*
X21500000Y-25000000D03*
X77250000Y-9750000D03*
X21500000Y-31750000D03*
X51500000Y-22000000D03*
X25750000Y-13500000D03*
X42500000Y-49000000D03*
X8000000Y-20750000D03*
X66000000Y-45000000D03*
X70000000Y-1000000D03*
X85000000Y-1000000D03*
X59250000Y-35000000D03*
X13500000Y-45250000D03*
X67000000Y-18750000D03*
X25000000Y-33500000D03*
X21750000Y-19000000D03*
X50250000Y-43000000D03*
X1000000Y-32500000D03*
X29750000Y-12000000D03*
X55000000Y-49000000D03*
X47250000Y-46500000D03*
X40750000Y-37500000D03*
X1000000Y-15000000D03*
X38250000Y-15750000D03*
X54500000Y-26250000D03*
X11000000Y-34500000D03*
X36500000Y-32000000D03*
X35500000Y-16000000D03*
X45500000Y-40000000D03*
X1000000Y-17500000D03*
X28000000Y-38500000D03*
X1000000Y-12500000D03*
X81250000Y-42750000D03*
X89000000Y-15000000D03*
X70500000Y-19750000D03*
X69750000Y-39000000D03*
X89000000Y-22500000D03*
X3750000Y-21000000D03*
X47250000Y-34000000D03*
X89000000Y-40000000D03*
X17750000Y-31000000D03*
X61250000Y-28000000D03*
X17500000Y-49000000D03*
X61250000Y-21250000D03*
X53750000Y-30500000D03*
X7250000Y-36500000D03*
X36750000Y-11750000D03*
X27000000Y-47500000D03*
X49750000Y-28250000D03*
X35750000Y-26000000D03*
X73500000Y-43750000D03*
X28000000Y-19250000D03*
X22500000Y-25750000D03*
X44750000Y-29000000D03*
X87750000Y-2250000D03*
X34500000Y-14000000D03*
X36750000Y-16250000D03*
X63000000Y-12250000D03*
X13500000Y-31000000D03*
X70000000Y-49000000D03*
X57750000Y-31750000D03*
X17750000Y-19000000D03*
X36750000Y-40750000D03*
X9000000Y-38250000D03*
X65000000Y-49000000D03*
X20000000Y-49000000D03*
X78750000Y-20500000D03*
X47500000Y-49000000D03*
X81250000Y-20500000D03*
X35250000Y-32250000D03*
X15750000Y-45250000D03*
X40500000Y-13250000D03*
X87000000Y-20250000D03*
X63250000Y-27250000D03*
X23000000Y-33250000D03*
X82500000Y-49000000D03*
X36000000Y-14000000D03*
X66000000Y-35000000D03*
X42250000Y-27000000D03*
X22750000Y-17250000D03*
X77750000Y-39250000D03*
X51000000Y-37000000D03*
X27250000Y-11750000D03*
X1000000Y-37500000D03*
X52500000Y-40500000D03*
X34250000Y-12000000D03*
X73500000Y-16750000D03*
X83000000Y-31250000D03*
X73500000Y-35250000D03*
X51750000Y-30500000D03*
X52500000Y-28000000D03*
X48000000Y-18500000D03*
X10000000Y-10000000D03*
X44000000Y-12000000D03*
X49100000Y-25550000D03*
X89000000Y-37500000D03*
X56000000Y-22000000D03*
X49000000Y-23750000D03*
X12500000Y-1000000D03*
X7500000Y-10000000D03*
X45500000Y-28250000D03*
X43750000Y-43500000D03*
X22750000Y-10000000D03*
X10000000Y-49000000D03*
X40000000Y-1000000D03*
X75500000Y-41500000D03*
X86250000Y-37750000D03*
X55750000Y-26000000D03*
X55750000Y-41750000D03*
X68000000Y-40750000D03*
X89000000Y-32500000D03*
X71750000Y-37000000D03*
X73000000Y-12250000D03*
X38500000Y-18250000D03*
X5750000Y-34250000D03*
X2500000Y-10000000D03*
X1000000Y-30000000D03*
X60000000Y-1000000D03*
X10500000Y-32500000D03*
X57250000Y-12250000D03*
X59250000Y-23250000D03*
X43500000Y-34750000D03*
X61250000Y-31750000D03*
X32000000Y-12000000D03*
X66500000Y-26500000D03*
X85500000Y-15500000D03*
X15750000Y-35000000D03*
X14750000Y-21250000D03*
X53000000Y-23500000D03*
X7500000Y-16000000D03*
X62500000Y-49000000D03*
X57250000Y-10000000D03*
X72500000Y-27500000D03*
X59250000Y-12250000D03*
X23500000Y-46500000D03*
X42250000Y-36000000D03*
X49750000Y-40750000D03*
X65000000Y-7750000D03*
X12500000Y-6000000D03*
X71000000Y-46750000D03*
X55750000Y-39000000D03*
X75000000Y-7750000D03*
X11750000Y-8500000D03*
X12500000Y-3500000D03*
X87750000Y-36250000D03*
X33000000Y-38000000D03*
X16500000Y-26250000D03*
X17750000Y-29000000D03*
X6000000Y-16000000D03*
X80750000Y-32250000D03*
X79500000Y-30250000D03*
X33000000Y-26000000D03*
X4250000Y-27000000D03*
X53750000Y-34000000D03*
X79000000Y-26250000D03*
X43500000Y-37500000D03*
X45750000Y-29500000D03*
X42000000Y-7500000D03*
X37500000Y-1000000D03*
X79250000Y-37250000D03*
X83000000Y-15500000D03*
X20250000Y-31000000D03*
X54500000Y-40500000D03*
X78500000Y-46750000D03*
X23000000Y-11750000D03*
X61250000Y-29750000D03*
X45750000Y-42000000D03*
X31500000Y-19250000D03*
X49100000Y-38050000D03*
X1000000Y-27500000D03*
X59250000Y-16750000D03*
X74750000Y-22250000D03*
X33500000Y-15000000D03*
X54750000Y-37250000D03*
X79500000Y-44500000D03*
X39750000Y-39250000D03*
X72000000Y-35250000D03*
X69000000Y-27250000D03*
X9500000Y-24000000D03*
X61250000Y-19000000D03*
X15750000Y-40750000D03*
X4250000Y-29000000D03*
X25250000Y-15500000D03*
X12000000Y-30750000D03*
X60000000Y-49000000D03*
X31500000Y-30250000D03*
X31250000Y-38750000D03*
X1000000Y-40000000D03*
X26500000Y-44750000D03*
X45950000Y-25700000D03*
X55000000Y-7750000D03*
X73500000Y-33750000D03*
X77500000Y-28750000D03*
X20250000Y-13750000D03*
X39000000Y-7750000D03*
X27750000Y-40250000D03*
X46500000Y-12000000D03*
X56000000Y-16750000D03*
X23000000Y-35750000D03*
X77750000Y-35500000D03*
X29750000Y-18000000D03*
X80500000Y-15500000D03*
X78000000Y-15500000D03*
X5000000Y-18500000D03*
X10500000Y-25250000D03*
X55750000Y-46500000D03*
X42500000Y-23750000D03*
X89000000Y-20000000D03*
X66250000Y-42500000D03*
X75000000Y-32250000D03*
X51250000Y-38750000D03*
X77500000Y-49000000D03*
X45000000Y-1000000D03*
X67000000Y-20750000D03*
X40750000Y-25500000D03*
X69250000Y-31250000D03*
X62750000Y-10000000D03*
X48750000Y-36250000D03*
X27500000Y-10000000D03*
X52250000Y-43000000D03*
X22500000Y-1000000D03*
X51500000Y-46500000D03*
X2500000Y-29250000D03*
X83000000Y-34000000D03*
X25000000Y-12000000D03*
X48000000Y-43000000D03*
X44250000Y-46500000D03*
X38500000Y-40500000D03*
X24500000Y-45000000D03*
X44500000Y-41500000D03*
X65000000Y-1000000D03*
X31250000Y-18000000D03*
X39750000Y-14750000D03*
X56000000Y-33500000D03*
X15750000Y-39000000D03*
X72500000Y-49000000D03*
X61250000Y-16750000D03*
X89000000Y-12500000D03*
X25000000Y-35250000D03*
X2500000Y-22250000D03*
X81500000Y-29500000D03*
X38500000Y-28000000D03*
X55000000Y-1000000D03*
X29750000Y-14000000D03*
X4500000Y-25000000D03*
X83000000Y-27750000D03*
X1000000Y-45000000D03*
X29250000Y-47500000D03*
X42000000Y-12000000D03*
X50000000Y-1000000D03*
X59500000Y-38750000D03*
X66000000Y-47250000D03*
X67500000Y-33000000D03*
X24750000Y-7750000D03*
X83750000Y-20500000D03*
X61250000Y-12250000D03*
X76250000Y-21000000D03*
X51000000Y-41500000D03*
X78000000Y-22750000D03*
X57750000Y-45250000D03*
X33500000Y-39500000D03*
X46500000Y-24000000D03*
X36750000Y-9750000D03*
X47250000Y-22000000D03*
X71500000Y-44250000D03*
X49000000Y-48250000D03*
X67500000Y-1000000D03*
X83000000Y-22750000D03*
X67500000Y-22750000D03*
X17750000Y-17000000D03*
X24250000Y-25000000D03*
X37000000Y-30000000D03*
X1000000Y-25000000D03*
X9000000Y-16000000D03*
X87750000Y-47750000D03*
X70250000Y-37000000D03*
X63250000Y-24750000D03*
X2750000Y-24500000D03*
X89000000Y-10000000D03*
X18000000Y-43000000D03*
X13500000Y-29250000D03*
X1000000Y-20000000D03*
X53250000Y-18500000D03*
X77000000Y-11750000D03*
X18000000Y-14000000D03*
X43250000Y-13750000D03*
X77500000Y-37250000D03*
X38500000Y-30750000D03*
X72000000Y-18250000D03*
X77500000Y-1000000D03*
X45750000Y-38250000D03*
X55000000Y-12250000D03*
X89000000Y-5000000D03*
X21500000Y-43000000D03*
X25000000Y-19000000D03*
X65750000Y-24750000D03*
X28000000Y-13250000D03*
X51500000Y-34000000D03*
X32000000Y-14000000D03*
X25000000Y-1000000D03*
X1000000Y-35000000D03*
X52250000Y-15750000D03*
X65000000Y-20750000D03*
X65000000Y-23000000D03*
X10000000Y-19000000D03*
X73500000Y-46250000D03*
X25000000Y-17000000D03*
X44250000Y-22000000D03*
X41500000Y-39250000D03*
X31500000Y-42750000D03*
X61250000Y-36750000D03*
X89000000Y-35000000D03*
X2250000Y-47750000D03*
X38250000Y-42500000D03*
X22750000Y-41250000D03*
X48500000Y-11750000D03*
X51500000Y-23750000D03*
X27500000Y-1000000D03*
X28000000Y-18000000D03*
X59500000Y-43500000D03*
X38250000Y-26000000D03*
X50500000Y-12250000D03*
X32500000Y-1000000D03*
X51250000Y-26250000D03*
X80000000Y-1000000D03*
X67000000Y-12250000D03*
X11250000Y-22250000D03*
X17500000Y-1000000D03*
X1000000Y-22500000D03*
X24825000Y-42950000D03*
X31000000Y-32000000D03*
X71000000Y-29500000D03*
X55500000Y-28250000D03*
X75000000Y-1000000D03*
X65000000Y-18750000D03*
X44500000Y-36250000D03*
X67000000Y-16750000D03*
X57750000Y-20250000D03*
X53250000Y-46500000D03*
X77000000Y-24250000D03*
X47500000Y-1000000D03*
X53500000Y-38500000D03*
X73750000Y-42000000D03*
X69000000Y-21250000D03*
X42000000Y-14750000D03*
X62500000Y-1000000D03*
X89000000Y-45000000D03*
X49750000Y-30500000D03*
X73000000Y-14500000D03*
X30500000Y-25000000D03*
X28000000Y-46250000D03*
X53750000Y-22000000D03*
X79750000Y-24500000D03*
X3500000Y-31750000D03*
X52750000Y-10000000D03*
X13500000Y-41250000D03*
X76000000Y-39750000D03*
X42500000Y-31250000D03*
X15000000Y-27750000D03*
X83000000Y-25250000D03*
X13750000Y-19000000D03*
X29500000Y-26250000D03*
X66000000Y-37000000D03*
X48000000Y-30500000D03*
X68250000Y-38250000D03*
X67250000Y-10000000D03*
X71250000Y-16750000D03*
X65000000Y-16750000D03*
X22500000Y-20000000D03*
X89000000Y-7500000D03*
X52500000Y-49000000D03*
X35750000Y-38000000D03*
X53000000Y-12250000D03*
X71250000Y-25750000D03*
X46000000Y-34000000D03*
X15000000Y-49000000D03*
X22500000Y-49000000D03*
X29750000Y-19250000D03*
X46500000Y-36250000D03*
X42500000Y-1000000D03*
X20000000Y-1000000D03*
X61250000Y-26000000D03*
X13250000Y-22750000D03*
X87500000Y-16500000D03*
X56000000Y-23500000D03*
X76500000Y-30750000D03*
X39000000Y-12000000D03*
X72750000Y-9500000D03*
X26000000Y-38500000D03*
X72500000Y-1000000D03*
X49750000Y-16250000D03*
X63000000Y-16750000D03*
X57500000Y-1000000D03*
X18500000Y-25000000D03*
X47750000Y-35250000D03*
X50500000Y-18500000D03*
X83000000Y-41000000D03*
X51250000Y-29250000D03*
X20000000Y-25750000D03*
X26750000Y-14500000D03*
X82500000Y-1000000D03*
X25000000Y-49000000D03*
X89000000Y-25000000D03*
X13250000Y-35000000D03*
X27500000Y-36000000D03*
X89000000Y-30000000D03*
X80000000Y-28250000D03*
X75500000Y-34500000D03*
X59500000Y-41000000D03*
X37500000Y-14000000D03*
X43500000Y-10000000D03*
X61250000Y-23750000D03*
X37000000Y-18000000D03*
X15000000Y-1000000D03*
X22750000Y-29250000D03*
X80000000Y-34500000D03*
X12500000Y-49000000D03*
X28250000Y-25000000D03*
X52500000Y-1000000D03*
X75500000Y-15500000D03*
X5000000Y-22250000D03*
X76500000Y-13500000D03*
X29750000Y-38000000D03*
X81250000Y-26000000D03*
X7500000Y-49000000D03*
X39000000Y-14000000D03*
X85000000Y-49000000D03*
X25750000Y-46250000D03*
X14250000Y-33250000D03*
X59400000Y-27900000D03*
X9500000Y-20500000D03*
X59250000Y-18750000D03*
X45000000Y-49000000D03*
X69000000Y-12250000D03*
X44250000Y-34000000D03*
X89000000Y-27500000D03*
X59250000Y-30250000D03*
X89000000Y-42500000D03*
X7750000Y-22750000D03*
X61250000Y-34250000D03*
X69000000Y-16750000D03*
%TO.N,+12V*%
X44750000Y-27250000D03*
X8500000Y-30500000D03*
X8500000Y-31250000D03*
X51500000Y-13500000D03*
X71500000Y-13500000D03*
X7000000Y-32000000D03*
X8500000Y-32000000D03*
X31750000Y-35500000D03*
X33250000Y-34750000D03*
X31750000Y-47500000D03*
X43750000Y-39000000D03*
X32500000Y-47500000D03*
X33250000Y-47500000D03*
X31750000Y-23000000D03*
X31000000Y-46750000D03*
X7000000Y-30500000D03*
X9250000Y-31250000D03*
X9250000Y-30500000D03*
X31000000Y-35500000D03*
X33250000Y-46750000D03*
X7750000Y-31250000D03*
X9250000Y-32000000D03*
X7750000Y-30500000D03*
X31750000Y-23750000D03*
X7750000Y-32000000D03*
X33250000Y-23750000D03*
X33250000Y-23000000D03*
X7000000Y-31250000D03*
X32500000Y-35500000D03*
X31000000Y-34750000D03*
X44750000Y-15250000D03*
X33250000Y-35500000D03*
X32500000Y-23000000D03*
X32500000Y-23750000D03*
X31000000Y-47500000D03*
X61500000Y-13500000D03*
%TO.N,/TO_BSPD_RST_SW*%
X40500000Y-33750000D03*
X25000000Y-32250000D03*
%TO.N,/TO_IMD_RST_SW*%
X35250000Y-44750000D03*
X31000000Y-43750000D03*
%TO.N,/TO_AMS_RST_SW*%
X35250000Y-20250000D03*
X25000000Y-20250000D03*
%TO.N,Net-(C12-Pad1)*%
X11250000Y-2000000D03*
X1000000Y-5000000D03*
X2250000Y-2250000D03*
X10000000Y-6500000D03*
X10000000Y-8750000D03*
X7500000Y-8750000D03*
X5000000Y-1000000D03*
X11250000Y-5000000D03*
X5000000Y-8750000D03*
X1000000Y-7500000D03*
X2500000Y-8750000D03*
X7500000Y-1000000D03*
X10000000Y-1000000D03*
X10000000Y-3500000D03*
%TO.N,/AMS_RELAY_DRIVE*%
X27750000Y-21000000D03*
X20500000Y-20000000D03*
%TO.N,/BSPD_RELAY_DRIVE*%
X43250000Y-33750000D03*
X20500000Y-32000000D03*
%TO.N,/IMD_STATUS*%
X26000000Y-16500000D03*
X39500000Y-13000000D03*
%TO.N,/AMS_LED_K*%
X73000000Y-15750000D03*
X55250000Y-15750000D03*
%TO.N,/BSPD_LED_K*%
X55250000Y-27250000D03*
X62250000Y-27000000D03*
%TD*%
D16*
%TO.N,/TO_BSPD_RST_SW*%
X36250000Y-36500000D02*
X37750000Y-36500000D01*
X25000000Y-32250000D02*
X29250000Y-36500000D01*
X37750000Y-36500000D02*
X40500000Y-33750000D01*
X29250000Y-36500000D02*
X36250000Y-36500000D01*
%TO.N,/TO_IMD_RST_SW*%
X31000000Y-43750000D02*
X34250000Y-43750000D01*
X34250000Y-43750000D02*
X35250000Y-44750000D01*
%TO.N,/TO_AMS_RST_SW*%
X25000000Y-20250000D02*
X35250000Y-20250000D01*
%TO.N,/AMS_RELAY_DRIVE*%
X21500000Y-21000000D02*
X20500000Y-20000000D01*
X27750000Y-21000000D02*
X21500000Y-21000000D01*
%TO.N,/BSPD_RELAY_DRIVE*%
X40000000Y-37000000D02*
X37000000Y-37000000D01*
X43250000Y-33750000D02*
X40000000Y-37000000D01*
X37000000Y-37000000D02*
X25500000Y-37000000D01*
X25500000Y-37000000D02*
X20500000Y-32000000D01*
%TO.N,/IMD_STATUS*%
X29500000Y-13000000D02*
X39500000Y-13000000D01*
X26000000Y-16500000D02*
X29500000Y-13000000D01*
%TO.N,/AMS_LED_K*%
X73000000Y-15750000D02*
X55250000Y-15750000D01*
%TO.N,/BSPD_LED_K*%
X62250000Y-27000000D02*
X55500000Y-27000000D01*
X55500000Y-27000000D02*
X55250000Y-27250000D01*
%TD*%
%TA.AperFunction,NonConductor*%
G36*
X91442539Y11479815D02*
G01*
X91488294Y11427011D01*
X91499500Y11375500D01*
X91499500Y3124000D01*
X91479815Y3056961D01*
X91427011Y3011206D01*
X91375500Y3000000D01*
X90624500Y3000000D01*
X90557461Y3019685D01*
X90511706Y3072489D01*
X90500500Y3124000D01*
X90500500Y11375500D01*
X90520185Y11442539D01*
X90572989Y11488294D01*
X90624500Y11499500D01*
X91375500Y11499500D01*
X91442539Y11479815D01*
G37*
%TD.AperFunction*%
%TA.AperFunction,NonConductor*%
G36*
X89442539Y11479815D02*
G01*
X89488294Y11427011D01*
X89499500Y11375500D01*
X89499500Y3124000D01*
X89479815Y3056961D01*
X89427011Y3011206D01*
X89375500Y3000000D01*
X624500Y3000000D01*
X557461Y3019685D01*
X511706Y3072489D01*
X500500Y3124000D01*
X500500Y11375500D01*
X520185Y11442539D01*
X572989Y11488294D01*
X624500Y11499500D01*
X89375500Y11499500D01*
X89442539Y11479815D01*
G37*
%TD.AperFunction*%
%TA.AperFunction,NonConductor*%
G36*
X-557461Y11479815D02*
G01*
X-511706Y11427011D01*
X-500500Y11375500D01*
X-500500Y3124000D01*
X-520185Y3056961D01*
X-572989Y3011206D01*
X-624500Y3000000D01*
X-1375500Y3000000D01*
X-1442539Y3019685D01*
X-1488294Y3072489D01*
X-1499500Y3124000D01*
X-1499500Y11375500D01*
X-1479815Y11442539D01*
X-1427011Y11488294D01*
X-1375500Y11499500D01*
X-624500Y11499500D01*
X-557461Y11479815D01*
G37*
%TD.AperFunction*%
%TA.AperFunction,NonConductor*%
G36*
X97002703Y11499382D02*
G01*
X97386749Y11482614D01*
X97397526Y11481671D01*
X97494912Y11468849D01*
X97558809Y11440582D01*
X97566407Y11433591D01*
X101433591Y7566407D01*
X101467076Y7505084D01*
X101468849Y7494912D01*
X101481671Y7397526D01*
X101482614Y7386749D01*
X101499382Y7002702D01*
X101499500Y6997293D01*
X101499500Y2624500D01*
X101479815Y2557461D01*
X101427011Y2511706D01*
X101375500Y2500500D01*
X92624500Y2500500D01*
X92557461Y2520185D01*
X92511706Y2572989D01*
X92500500Y2624500D01*
X92500500Y7045010D01*
X96169844Y7045010D01*
X96179577Y6865498D01*
X96179578Y6865493D01*
X96227670Y6692281D01*
X96227674Y6692273D01*
X96311881Y6533442D01*
X96428264Y6396426D01*
X96571383Y6287630D01*
X96571384Y6287629D01*
X96734542Y6212145D01*
X96910112Y6173500D01*
X96910113Y6173500D01*
X97044817Y6173500D01*
X97178721Y6188063D01*
X97349085Y6245465D01*
X97503126Y6338149D01*
X97633642Y6461780D01*
X97682230Y6533442D01*
X97734528Y6610575D01*
X97734529Y6610576D01*
X97801070Y6777583D01*
X97801071Y6777587D01*
X97830155Y6954990D01*
X97820422Y7134501D01*
X97820421Y7134506D01*
X97772329Y7307718D01*
X97772325Y7307726D01*
X97729012Y7389423D01*
X97688119Y7466556D01*
X97571735Y7603574D01*
X97428618Y7712369D01*
X97265459Y7787854D01*
X97089887Y7826500D01*
X96955184Y7826500D01*
X96821279Y7811937D01*
X96650915Y7754535D01*
X96496874Y7661851D01*
X96435352Y7603574D01*
X96366356Y7538218D01*
X96265471Y7389424D01*
X96265470Y7389423D01*
X96198929Y7222416D01*
X96198928Y7222412D01*
X96169845Y7045013D01*
X96169844Y7045010D01*
X92500500Y7045010D01*
X92500500Y11375500D01*
X92520185Y11442539D01*
X92572989Y11488294D01*
X92624500Y11499500D01*
X96934108Y11499500D01*
X96997294Y11499500D01*
X97002703Y11499382D01*
G37*
%TD.AperFunction*%
%TA.AperFunction,NonConductor*%
G36*
X-2557461Y11479815D02*
G01*
X-2511706Y11427011D01*
X-2500500Y11375500D01*
X-2500500Y2624500D01*
X-2520185Y2557461D01*
X-2572989Y2511706D01*
X-2624500Y2500500D01*
X-11375500Y2500500D01*
X-11442539Y2520185D01*
X-11488294Y2572989D01*
X-11499500Y2624500D01*
X-11499500Y6997293D01*
X-11499382Y7002702D01*
X-11497535Y7045010D01*
X-7830155Y7045010D01*
X-7820422Y6865498D01*
X-7820421Y6865493D01*
X-7772329Y6692281D01*
X-7772325Y6692273D01*
X-7688118Y6533442D01*
X-7627248Y6461781D01*
X-7571735Y6396426D01*
X-7428618Y6287631D01*
X-7428616Y6287630D01*
X-7428615Y6287629D01*
X-7265457Y6212145D01*
X-7089887Y6173500D01*
X-6955182Y6173500D01*
X-6821278Y6188063D01*
X-6734706Y6217232D01*
X-6650915Y6245465D01*
X-6580838Y6287629D01*
X-6496876Y6338147D01*
X-6366356Y6461781D01*
X-6265471Y6610575D01*
X-6265470Y6610576D01*
X-6198929Y6777583D01*
X-6198928Y6777587D01*
X-6169845Y6954990D01*
X-6179577Y7134501D01*
X-6179578Y7134506D01*
X-6227670Y7307718D01*
X-6227674Y7307726D01*
X-6311881Y7466557D01*
X-6428264Y7603573D01*
X-6428265Y7603574D01*
X-6571382Y7712369D01*
X-6734541Y7787854D01*
X-6910113Y7826500D01*
X-7044816Y7826500D01*
X-7178721Y7811937D01*
X-7349085Y7754535D01*
X-7503126Y7661851D01*
X-7633642Y7538220D01*
X-7734529Y7389423D01*
X-7801070Y7222416D01*
X-7830155Y7045010D01*
X-11497535Y7045010D01*
X-11482614Y7386749D01*
X-11481671Y7397526D01*
X-11468849Y7494912D01*
X-11440582Y7558809D01*
X-11433591Y7566407D01*
X-7566407Y11433591D01*
X-7505084Y11467076D01*
X-7494912Y11468849D01*
X-7397526Y11481671D01*
X-7386749Y11482614D01*
X-7002703Y11499382D01*
X-6997294Y11499500D01*
X-6934108Y11499500D01*
X-2624500Y11499500D01*
X-2557461Y11479815D01*
G37*
%TD.AperFunction*%
%TA.AperFunction,NonConductor*%
G36*
X101442539Y1479815D02*
G01*
X101488294Y1427011D01*
X101499500Y1375500D01*
X101499500Y624500D01*
X101479815Y557461D01*
X101427011Y511706D01*
X101375500Y500500D01*
X93124000Y500500D01*
X93056961Y520185D01*
X93011206Y572989D01*
X93000000Y624500D01*
X93000000Y1375500D01*
X93019685Y1442539D01*
X93072489Y1488294D01*
X93124000Y1499500D01*
X101375500Y1499500D01*
X101442539Y1479815D01*
G37*
%TD.AperFunction*%
%TA.AperFunction,NonConductor*%
G36*
X-3056961Y1479815D02*
G01*
X-3011206Y1427011D01*
X-3000000Y1375500D01*
X-3000000Y624500D01*
X-3019685Y557461D01*
X-3072489Y511706D01*
X-3124000Y500500D01*
X-11375500Y500500D01*
X-11442539Y520185D01*
X-11488294Y572989D01*
X-11499500Y624500D01*
X-11499500Y1375500D01*
X-11479815Y1442539D01*
X-11427011Y1488294D01*
X-11375500Y1499500D01*
X-3124000Y1499500D01*
X-3056961Y1479815D01*
G37*
%TD.AperFunction*%
%TA.AperFunction,NonConductor*%
G36*
X101442539Y-520185D02*
G01*
X101488294Y-572989D01*
X101499500Y-624500D01*
X101499500Y-49375500D01*
X101479815Y-49442539D01*
X101427011Y-49488294D01*
X101375500Y-49499500D01*
X93124000Y-49499500D01*
X93056961Y-49479815D01*
X93011206Y-49427011D01*
X93000000Y-49375500D01*
X93000000Y-624500D01*
X93019685Y-557461D01*
X93072489Y-511706D01*
X93124000Y-500500D01*
X101375500Y-500500D01*
X101442539Y-520185D01*
G37*
%TD.AperFunction*%
%TA.AperFunction,NonConductor*%
G36*
X-3056961Y-520185D02*
G01*
X-3011206Y-572989D01*
X-3000000Y-624500D01*
X-3000000Y-49375500D01*
X-3019685Y-49442539D01*
X-3072489Y-49488294D01*
X-3124000Y-49499500D01*
X-11375500Y-49499500D01*
X-11442539Y-49479815D01*
X-11488294Y-49427011D01*
X-11499500Y-49375500D01*
X-11499500Y-624500D01*
X-11479815Y-557461D01*
X-11427011Y-511706D01*
X-11375500Y-500500D01*
X-3124000Y-500500D01*
X-3056961Y-520185D01*
G37*
%TD.AperFunction*%
%TA.AperFunction,NonConductor*%
G36*
X101442539Y-50520185D02*
G01*
X101488294Y-50572989D01*
X101499500Y-50624500D01*
X101499500Y-51375500D01*
X101479815Y-51442539D01*
X101427011Y-51488294D01*
X101375500Y-51499500D01*
X93124000Y-51499500D01*
X93056961Y-51479815D01*
X93011206Y-51427011D01*
X93000000Y-51375500D01*
X93000000Y-50624500D01*
X93019685Y-50557461D01*
X93072489Y-50511706D01*
X93124000Y-50500500D01*
X101375500Y-50500500D01*
X101442539Y-50520185D01*
G37*
%TD.AperFunction*%
%TA.AperFunction,NonConductor*%
G36*
X-3056961Y-50520185D02*
G01*
X-3011206Y-50572989D01*
X-3000000Y-50624500D01*
X-3000000Y-51375500D01*
X-3019685Y-51442539D01*
X-3072489Y-51488294D01*
X-3124000Y-51499500D01*
X-11375500Y-51499500D01*
X-11442539Y-51479815D01*
X-11488294Y-51427011D01*
X-11499500Y-51375500D01*
X-11499500Y-50624500D01*
X-11479815Y-50557461D01*
X-11427011Y-50511706D01*
X-11375500Y-50500500D01*
X-3124000Y-50500500D01*
X-3056961Y-50520185D01*
G37*
%TD.AperFunction*%
%TA.AperFunction,NonConductor*%
G36*
X101442539Y-52520185D02*
G01*
X101488294Y-52572989D01*
X101499500Y-52624500D01*
X101499500Y-56997293D01*
X101499382Y-57002702D01*
X101482614Y-57386749D01*
X101481671Y-57397526D01*
X101468849Y-57494912D01*
X101440582Y-57558809D01*
X101433591Y-57566407D01*
X97566407Y-61433591D01*
X97505084Y-61467076D01*
X97494912Y-61468849D01*
X97397526Y-61481671D01*
X97386749Y-61482614D01*
X97002703Y-61499382D01*
X96997294Y-61499500D01*
X92624500Y-61499500D01*
X92557461Y-61479815D01*
X92511706Y-61427011D01*
X92500500Y-61375500D01*
X92500500Y-56954989D01*
X96169844Y-56954989D01*
X96179577Y-57134501D01*
X96179578Y-57134506D01*
X96227670Y-57307718D01*
X96227674Y-57307726D01*
X96311881Y-57466557D01*
X96390241Y-57558809D01*
X96428265Y-57603574D01*
X96571382Y-57712369D01*
X96734541Y-57787854D01*
X96910113Y-57826500D01*
X96910116Y-57826500D01*
X97044810Y-57826500D01*
X97044816Y-57826500D01*
X97178721Y-57811937D01*
X97349085Y-57754535D01*
X97503126Y-57661851D01*
X97633642Y-57538220D01*
X97734529Y-57389423D01*
X97801070Y-57222416D01*
X97815483Y-57134506D01*
X97830155Y-57045010D01*
X97820422Y-56865498D01*
X97820421Y-56865493D01*
X97772329Y-56692281D01*
X97772325Y-56692273D01*
X97688118Y-56533442D01*
X97571735Y-56396426D01*
X97495070Y-56338147D01*
X97428618Y-56287631D01*
X97428616Y-56287630D01*
X97428615Y-56287629D01*
X97265457Y-56212145D01*
X97089887Y-56173500D01*
X96955184Y-56173500D01*
X96955182Y-56173500D01*
X96821278Y-56188063D01*
X96749806Y-56212145D01*
X96650915Y-56245465D01*
X96650913Y-56245465D01*
X96650913Y-56245466D01*
X96496876Y-56338147D01*
X96366356Y-56461781D01*
X96265471Y-56610575D01*
X96265470Y-56610576D01*
X96198929Y-56777583D01*
X96198928Y-56777587D01*
X96169845Y-56954986D01*
X96169844Y-56954989D01*
X92500500Y-56954989D01*
X92500500Y-52624500D01*
X92520185Y-52557461D01*
X92572989Y-52511706D01*
X92624500Y-52500500D01*
X101375500Y-52500500D01*
X101442539Y-52520185D01*
G37*
%TD.AperFunction*%
%TA.AperFunction,NonConductor*%
G36*
X91442539Y-53019685D02*
G01*
X91488294Y-53072489D01*
X91499500Y-53124000D01*
X91499500Y-61375500D01*
X91479815Y-61442539D01*
X91427011Y-61488294D01*
X91375500Y-61499500D01*
X90624500Y-61499500D01*
X90557461Y-61479815D01*
X90511706Y-61427011D01*
X90500500Y-61375500D01*
X90500500Y-53124000D01*
X90520185Y-53056961D01*
X90572989Y-53011206D01*
X90624500Y-53000000D01*
X91375500Y-53000000D01*
X91442539Y-53019685D01*
G37*
%TD.AperFunction*%
%TA.AperFunction,NonConductor*%
G36*
X89442539Y-53019685D02*
G01*
X89488294Y-53072489D01*
X89499500Y-53124000D01*
X89499500Y-61375500D01*
X89479815Y-61442539D01*
X89427011Y-61488294D01*
X89375500Y-61499500D01*
X624500Y-61499500D01*
X557461Y-61479815D01*
X511706Y-61427011D01*
X500500Y-61375500D01*
X500500Y-53124000D01*
X520185Y-53056961D01*
X572989Y-53011206D01*
X624500Y-53000000D01*
X89375500Y-53000000D01*
X89442539Y-53019685D01*
G37*
%TD.AperFunction*%
%TA.AperFunction,NonConductor*%
G36*
X-557461Y-53019685D02*
G01*
X-511706Y-53072489D01*
X-500500Y-53124000D01*
X-500500Y-61375500D01*
X-520185Y-61442539D01*
X-572989Y-61488294D01*
X-624500Y-61499500D01*
X-1375500Y-61499500D01*
X-1442539Y-61479815D01*
X-1488294Y-61427011D01*
X-1499500Y-61375500D01*
X-1499500Y-53124000D01*
X-1479815Y-53056961D01*
X-1427011Y-53011206D01*
X-1375500Y-53000000D01*
X-624500Y-53000000D01*
X-557461Y-53019685D01*
G37*
%TD.AperFunction*%
%TA.AperFunction,NonConductor*%
G36*
X-2557461Y-52520185D02*
G01*
X-2511706Y-52572989D01*
X-2500500Y-52624500D01*
X-2500500Y-61375500D01*
X-2520185Y-61442539D01*
X-2572989Y-61488294D01*
X-2624500Y-61499500D01*
X-6997294Y-61499500D01*
X-7002703Y-61499382D01*
X-7386749Y-61482614D01*
X-7397526Y-61481671D01*
X-7494912Y-61468849D01*
X-7558809Y-61440582D01*
X-7566407Y-61433591D01*
X-11433591Y-57566407D01*
X-11467076Y-57505084D01*
X-11468849Y-57494912D01*
X-11481671Y-57397526D01*
X-11482614Y-57386749D01*
X-11499382Y-57002702D01*
X-11499500Y-56997293D01*
X-11499500Y-56954989D01*
X-7830155Y-56954989D01*
X-7820422Y-57134501D01*
X-7820421Y-57134506D01*
X-7772329Y-57307718D01*
X-7772327Y-57307720D01*
X-7772327Y-57307723D01*
X-7688119Y-57466556D01*
X-7571735Y-57603574D01*
X-7428618Y-57712369D01*
X-7265459Y-57787854D01*
X-7089887Y-57826500D01*
X-7089884Y-57826500D01*
X-6955190Y-57826500D01*
X-6955184Y-57826500D01*
X-6821279Y-57811937D01*
X-6650915Y-57754535D01*
X-6496874Y-57661851D01*
X-6366358Y-57538220D01*
X-6366357Y-57538219D01*
X-6366356Y-57538218D01*
X-6265471Y-57389424D01*
X-6265470Y-57389423D01*
X-6198929Y-57222416D01*
X-6198928Y-57222412D01*
X-6169845Y-57045010D01*
X-6169844Y-57045010D01*
X-6179577Y-56865498D01*
X-6179578Y-56865493D01*
X-6227670Y-56692281D01*
X-6227674Y-56692273D01*
X-6311881Y-56533442D01*
X-6428264Y-56396426D01*
X-6571383Y-56287630D01*
X-6571384Y-56287629D01*
X-6734542Y-56212145D01*
X-6910112Y-56173500D01*
X-6910113Y-56173500D01*
X-7044816Y-56173500D01*
X-7044817Y-56173500D01*
X-7178721Y-56188063D01*
X-7349085Y-56245465D01*
X-7503126Y-56338149D01*
X-7564648Y-56396426D01*
X-7633643Y-56461781D01*
X-7734528Y-56610575D01*
X-7734529Y-56610576D01*
X-7801070Y-56777583D01*
X-7801071Y-56777587D01*
X-7830154Y-56954986D01*
X-7830155Y-56954989D01*
X-11499500Y-56954989D01*
X-11499500Y-52624500D01*
X-11479815Y-52557461D01*
X-11427011Y-52511706D01*
X-11375500Y-52500500D01*
X-2624500Y-52500500D01*
X-2557461Y-52520185D01*
G37*
%TD.AperFunction*%
%TA.AperFunction,Conductor*%
%TO.N,GND*%
G36*
X85002702Y-500617D02*
G01*
X85386771Y-517386D01*
X85397506Y-518326D01*
X85775971Y-568152D01*
X85786597Y-570025D01*
X86159284Y-652648D01*
X86169710Y-655442D01*
X86533765Y-770227D01*
X86543911Y-773920D01*
X86896578Y-920000D01*
X86906369Y-924566D01*
X87244942Y-1100816D01*
X87254310Y-1106224D01*
X87576244Y-1311318D01*
X87585105Y-1317523D01*
X87887930Y-1549889D01*
X87896217Y-1556843D01*
X88177635Y-1814715D01*
X88185284Y-1822364D01*
X88443156Y-2103782D01*
X88450110Y-2112069D01*
X88682476Y-2414894D01*
X88688681Y-2423755D01*
X88893775Y-2745689D01*
X88899183Y-2755057D01*
X89075430Y-3093623D01*
X89080002Y-3103427D01*
X89226075Y-3456078D01*
X89229775Y-3466244D01*
X89344554Y-3830278D01*
X89347354Y-3840727D01*
X89429971Y-4213389D01*
X89431849Y-4224042D01*
X89481671Y-4602473D01*
X89482614Y-4613249D01*
X89499382Y-4997297D01*
X89499500Y-5002706D01*
X89499500Y-44997293D01*
X89499382Y-45002702D01*
X89482614Y-45386750D01*
X89481671Y-45397526D01*
X89431849Y-45775957D01*
X89429971Y-45786610D01*
X89347354Y-46159272D01*
X89344554Y-46169721D01*
X89229775Y-46533755D01*
X89226075Y-46543921D01*
X89080002Y-46896572D01*
X89075430Y-46906376D01*
X88899183Y-47244942D01*
X88893775Y-47254310D01*
X88688681Y-47576244D01*
X88682476Y-47585105D01*
X88450110Y-47887930D01*
X88443156Y-47896217D01*
X88185284Y-48177635D01*
X88177635Y-48185284D01*
X87896217Y-48443156D01*
X87887930Y-48450110D01*
X87585105Y-48682476D01*
X87576244Y-48688681D01*
X87254310Y-48893775D01*
X87244942Y-48899183D01*
X86906376Y-49075430D01*
X86896572Y-49080002D01*
X86543921Y-49226075D01*
X86533755Y-49229775D01*
X86169721Y-49344554D01*
X86159272Y-49347354D01*
X85786610Y-49429971D01*
X85775957Y-49431849D01*
X85397526Y-49481671D01*
X85386750Y-49482614D01*
X85002703Y-49499382D01*
X84997294Y-49499500D01*
X5002706Y-49499500D01*
X4997297Y-49499382D01*
X4613249Y-49482614D01*
X4602473Y-49481671D01*
X4224042Y-49431849D01*
X4213389Y-49429971D01*
X3840727Y-49347354D01*
X3830278Y-49344554D01*
X3466244Y-49229775D01*
X3456078Y-49226075D01*
X3103427Y-49080002D01*
X3093623Y-49075430D01*
X2755057Y-48899183D01*
X2745689Y-48893775D01*
X2423755Y-48688681D01*
X2414894Y-48682476D01*
X2112069Y-48450110D01*
X2103782Y-48443156D01*
X1822364Y-48185284D01*
X1814715Y-48177635D01*
X1556843Y-47896217D01*
X1549889Y-47887930D01*
X1317523Y-47585105D01*
X1311318Y-47576244D01*
X1106224Y-47254310D01*
X1100816Y-47244942D01*
X1048298Y-47144056D01*
X924566Y-46906369D01*
X919997Y-46896572D01*
X915367Y-46885393D01*
X773920Y-46543911D01*
X770224Y-46533755D01*
X655442Y-46169710D01*
X652648Y-46159284D01*
X570025Y-45786597D01*
X568152Y-45775971D01*
X518326Y-45397506D01*
X517386Y-45386771D01*
X500618Y-45002702D01*
X500559Y-45000000D01*
X1494696Y-45000000D01*
X1513898Y-45366405D01*
X1535137Y-45500500D01*
X1571295Y-45728794D01*
X1573477Y-45736939D01*
X1666260Y-46083206D01*
X1797746Y-46425739D01*
X1964320Y-46752656D01*
X2164147Y-47060364D01*
X2202352Y-47107543D01*
X2395051Y-47345506D01*
X2654494Y-47604949D01*
X2654498Y-47604952D01*
X2939635Y-47835852D01*
X3214621Y-48014429D01*
X3247348Y-48035682D01*
X3574264Y-48202255D01*
X3916801Y-48333742D01*
X4271206Y-48428705D01*
X4633596Y-48486102D01*
X4979734Y-48504241D01*
X4999999Y-48505304D01*
X5000000Y-48505304D01*
X5000001Y-48505304D01*
X5019203Y-48504297D01*
X5366404Y-48486102D01*
X5728794Y-48428705D01*
X6083199Y-48333742D01*
X6425736Y-48202255D01*
X6752652Y-48035682D01*
X7060366Y-47835851D01*
X7345506Y-47604949D01*
X7604949Y-47345506D01*
X7835851Y-47060366D01*
X8035682Y-46752652D01*
X8143558Y-46540934D01*
X16299500Y-46540934D01*
X16314929Y-46663057D01*
X16314929Y-46663060D01*
X16375431Y-46815869D01*
X16375436Y-46815878D01*
X16472034Y-46948835D01*
X16472037Y-46948837D01*
X16598674Y-47053600D01*
X16747387Y-47123579D01*
X16908830Y-47154376D01*
X17072860Y-47144056D01*
X17229171Y-47093268D01*
X17367940Y-47005202D01*
X17480448Y-46885393D01*
X17559627Y-46741368D01*
X17600500Y-46582177D01*
X17600500Y-45859075D01*
X17585071Y-45736942D01*
X17581843Y-45728790D01*
X17524568Y-45584130D01*
X17524568Y-45584129D01*
X17524565Y-45584125D01*
X17524563Y-45584121D01*
X17427965Y-45451164D01*
X17427962Y-45451162D01*
X17301326Y-45346400D01*
X17152612Y-45276420D01*
X17069517Y-45260569D01*
X16991170Y-45245624D01*
X16991166Y-45245624D01*
X16827139Y-45255944D01*
X16670828Y-45306732D01*
X16670824Y-45306734D01*
X16532059Y-45394798D01*
X16419554Y-45514603D01*
X16419548Y-45514611D01*
X16340374Y-45658628D01*
X16340371Y-45658638D01*
X16299500Y-45817819D01*
X16299500Y-46540934D01*
X8143558Y-46540934D01*
X8202255Y-46425736D01*
X8333742Y-46083199D01*
X8428705Y-45728794D01*
X8486102Y-45366404D01*
X8505304Y-45000000D01*
X8486102Y-44633596D01*
X8428705Y-44271206D01*
X8333742Y-43916801D01*
X8202255Y-43574264D01*
X8035682Y-43247348D01*
X8024621Y-43230315D01*
X7835852Y-42939635D01*
X7604952Y-42654498D01*
X7604949Y-42654494D01*
X7345506Y-42395051D01*
X7060366Y-42164149D01*
X7060364Y-42164147D01*
X6752656Y-41964320D01*
X6425739Y-41797746D01*
X6083206Y-41666260D01*
X6083199Y-41666258D01*
X5728794Y-41571295D01*
X5728790Y-41571294D01*
X5728789Y-41571294D01*
X5366405Y-41513898D01*
X5000001Y-41494696D01*
X4999999Y-41494696D01*
X4633594Y-41513898D01*
X4271211Y-41571294D01*
X4271209Y-41571294D01*
X3916793Y-41666260D01*
X3574260Y-41797746D01*
X3247343Y-41964320D01*
X2939635Y-42164147D01*
X2654498Y-42395047D01*
X2654490Y-42395054D01*
X2395054Y-42654490D01*
X2395047Y-42654498D01*
X2164147Y-42939635D01*
X1964320Y-43247343D01*
X1797746Y-43574260D01*
X1666260Y-43916793D01*
X1571294Y-44271209D01*
X1571294Y-44271211D01*
X1513898Y-44633594D01*
X1494696Y-44999999D01*
X1494696Y-45000000D01*
X500559Y-45000000D01*
X500500Y-44997293D01*
X500500Y-39758833D01*
X16295624Y-39758833D01*
X16305944Y-39922860D01*
X16356732Y-40079171D01*
X16356734Y-40079175D01*
X16444798Y-40217940D01*
X16564603Y-40330445D01*
X16564611Y-40330451D01*
X16644860Y-40374568D01*
X16708632Y-40409627D01*
X16867823Y-40450500D01*
X16867827Y-40450500D01*
X16990923Y-40450500D01*
X16990925Y-40450500D01*
X16990930Y-40450499D01*
X16990934Y-40450499D01*
X17004174Y-40448826D01*
X17113058Y-40435071D01*
X17265871Y-40374568D01*
X17265878Y-40374563D01*
X17398835Y-40277965D01*
X17398835Y-40277963D01*
X17398837Y-40277963D01*
X17503600Y-40151326D01*
X17573579Y-40002613D01*
X17604376Y-39841170D01*
X17594056Y-39677140D01*
X17543268Y-39520829D01*
X17455202Y-39382060D01*
X17391281Y-39322034D01*
X17335396Y-39269554D01*
X17335388Y-39269548D01*
X17191371Y-39190374D01*
X17191361Y-39190371D01*
X17032180Y-39149500D01*
X17032177Y-39149500D01*
X16909075Y-39149500D01*
X16909065Y-39149500D01*
X16786942Y-39164929D01*
X16786939Y-39164929D01*
X16634130Y-39225431D01*
X16634121Y-39225436D01*
X16501164Y-39322034D01*
X16501162Y-39322037D01*
X16396400Y-39448673D01*
X16326420Y-39597387D01*
X16311207Y-39677139D01*
X16295624Y-39758830D01*
X16295624Y-39758832D01*
X16295624Y-39758833D01*
X500500Y-39758833D01*
X500500Y-34698638D01*
X6194500Y-34698638D01*
X6196250Y-34731281D01*
X6196254Y-34731334D01*
X6199081Y-34757625D01*
X6199920Y-34764660D01*
X6199920Y-34764662D01*
X6234700Y-34871401D01*
X6234704Y-34871411D01*
X6268189Y-34932733D01*
X6320289Y-35002329D01*
X6320307Y-35002350D01*
X8045577Y-36727619D01*
X9747660Y-38429702D01*
X9768884Y-38448766D01*
X9771993Y-38451559D01*
X9792674Y-38468224D01*
X9798172Y-38472551D01*
X9798175Y-38472553D01*
X9898251Y-38523439D01*
X9965290Y-38543124D01*
X10051362Y-38555500D01*
X20822096Y-38555500D01*
X20889135Y-38575185D01*
X20909777Y-38591819D01*
X30497660Y-48179702D01*
X30518884Y-48198766D01*
X30521993Y-48201559D01*
X30542674Y-48218224D01*
X30548172Y-48222551D01*
X30548175Y-48222553D01*
X30648251Y-48273439D01*
X30715290Y-48293124D01*
X30801362Y-48305500D01*
X30801365Y-48305500D01*
X36697573Y-48305500D01*
X36697582Y-48305500D01*
X36725410Y-48303907D01*
X36732435Y-48303506D01*
X36732436Y-48303505D01*
X36760545Y-48300278D01*
X36769744Y-48299079D01*
X36875976Y-48262752D01*
X36936808Y-48228381D01*
X37005654Y-48175269D01*
X37846196Y-47310005D01*
X56199945Y-47310005D01*
X56220130Y-47553605D01*
X56280138Y-47790573D01*
X56378330Y-48014429D01*
X56474626Y-48161819D01*
X57077452Y-47558993D01*
X57087188Y-47588956D01*
X57175186Y-47727619D01*
X57294903Y-47840040D01*
X57429510Y-47914041D01*
X56827758Y-48515794D01*
X56827758Y-48515796D01*
X56870478Y-48549046D01*
X56870484Y-48549050D01*
X57085468Y-48665394D01*
X57085476Y-48665397D01*
X57316664Y-48744765D01*
X57557779Y-48785000D01*
X57802221Y-48785000D01*
X58043335Y-48744765D01*
X58274523Y-48665397D01*
X58274531Y-48665394D01*
X58489514Y-48549051D01*
X58489514Y-48549050D01*
X58532240Y-48515795D01*
X58532240Y-48515794D01*
X57927534Y-47911086D01*
X57995629Y-47884126D01*
X58128492Y-47787595D01*
X58233175Y-47661055D01*
X58281631Y-47558078D01*
X58885372Y-48161819D01*
X58981667Y-48014431D01*
X58981672Y-48014423D01*
X59079861Y-47790573D01*
X59139869Y-47553605D01*
X59160055Y-47310005D01*
X59160055Y-47310000D01*
X66559628Y-47310000D01*
X66579079Y-47532329D01*
X66579081Y-47532339D01*
X66636841Y-47747905D01*
X66636843Y-47747909D01*
X66636844Y-47747913D01*
X66731165Y-47950186D01*
X66859178Y-48133007D01*
X67016993Y-48290822D01*
X67199814Y-48418835D01*
X67402087Y-48513156D01*
X67402093Y-48513157D01*
X67402094Y-48513158D01*
X67453980Y-48527060D01*
X67617666Y-48570920D01*
X67795533Y-48586481D01*
X67839999Y-48590372D01*
X67840000Y-48590372D01*
X67840001Y-48590372D01*
X67877055Y-48587130D01*
X68062334Y-48570920D01*
X68277913Y-48513156D01*
X68480186Y-48418835D01*
X68663007Y-48290822D01*
X68820822Y-48133007D01*
X68948835Y-47950186D01*
X69043156Y-47747913D01*
X69100920Y-47532334D01*
X69120372Y-47310000D01*
X74179628Y-47310000D01*
X74199079Y-47532329D01*
X74199081Y-47532339D01*
X74256841Y-47747905D01*
X74256843Y-47747909D01*
X74256844Y-47747913D01*
X74351165Y-47950186D01*
X74479178Y-48133007D01*
X74636993Y-48290822D01*
X74819814Y-48418835D01*
X75022087Y-48513156D01*
X75022093Y-48513157D01*
X75022094Y-48513158D01*
X75073980Y-48527060D01*
X75237666Y-48570920D01*
X75415533Y-48586481D01*
X75459999Y-48590372D01*
X75460000Y-48590372D01*
X75460001Y-48590372D01*
X75497055Y-48587130D01*
X75682334Y-48570920D01*
X75897913Y-48513156D01*
X76100186Y-48418835D01*
X76283007Y-48290822D01*
X76440822Y-48133007D01*
X76568835Y-47950186D01*
X76663156Y-47747913D01*
X76720920Y-47532334D01*
X76740372Y-47310000D01*
X76740371Y-47309994D01*
X76726756Y-47154375D01*
X76720920Y-47087666D01*
X76663156Y-46872087D01*
X76568835Y-46669814D01*
X76440822Y-46486993D01*
X76283007Y-46329178D01*
X76100186Y-46201165D01*
X75897913Y-46106844D01*
X75897909Y-46106843D01*
X75897905Y-46106841D01*
X75682339Y-46049081D01*
X75682329Y-46049079D01*
X75460001Y-46029628D01*
X75459999Y-46029628D01*
X75237670Y-46049079D01*
X75237660Y-46049081D01*
X75022094Y-46106841D01*
X75022087Y-46106843D01*
X75022087Y-46106844D01*
X74819814Y-46201165D01*
X74636993Y-46329178D01*
X74636991Y-46329179D01*
X74636988Y-46329182D01*
X74479182Y-46486988D01*
X74479179Y-46486991D01*
X74479178Y-46486993D01*
X74412532Y-46582173D01*
X74351165Y-46669814D01*
X74256845Y-46872085D01*
X74256841Y-46872094D01*
X74199081Y-47087660D01*
X74199079Y-47087670D01*
X74179628Y-47309999D01*
X74179628Y-47310000D01*
X69120372Y-47310000D01*
X69120371Y-47309994D01*
X69106756Y-47154375D01*
X69100920Y-47087666D01*
X69043156Y-46872087D01*
X68948835Y-46669814D01*
X68820822Y-46486993D01*
X68663007Y-46329178D01*
X68480186Y-46201165D01*
X68277913Y-46106844D01*
X68277909Y-46106843D01*
X68277905Y-46106841D01*
X68062339Y-46049081D01*
X68062329Y-46049079D01*
X67840001Y-46029628D01*
X67839999Y-46029628D01*
X67617670Y-46049079D01*
X67617660Y-46049081D01*
X67402094Y-46106841D01*
X67402087Y-46106843D01*
X67402087Y-46106844D01*
X67199814Y-46201165D01*
X67016993Y-46329178D01*
X67016991Y-46329179D01*
X67016988Y-46329182D01*
X66859182Y-46486988D01*
X66859179Y-46486991D01*
X66859178Y-46486993D01*
X66792532Y-46582173D01*
X66731165Y-46669814D01*
X66636845Y-46872085D01*
X66636841Y-46872094D01*
X66579081Y-47087660D01*
X66579079Y-47087670D01*
X66559628Y-47309999D01*
X66559628Y-47310000D01*
X59160055Y-47310000D01*
X59160055Y-47309994D01*
X59139869Y-47066394D01*
X59079861Y-46829426D01*
X58981669Y-46605570D01*
X58885372Y-46458179D01*
X58282546Y-47061004D01*
X58272812Y-47031044D01*
X58184814Y-46892381D01*
X58065097Y-46779960D01*
X57930488Y-46705957D01*
X58532240Y-46104204D01*
X58532240Y-46104203D01*
X58489514Y-46070949D01*
X58274531Y-45954605D01*
X58274523Y-45954602D01*
X58043335Y-45875234D01*
X57802221Y-45835000D01*
X57557779Y-45835000D01*
X57316664Y-45875234D01*
X57085476Y-45954602D01*
X57085468Y-45954605D01*
X56870481Y-46070951D01*
X56827758Y-46104202D01*
X56827757Y-46104204D01*
X57432466Y-46708912D01*
X57364371Y-46735874D01*
X57231508Y-46832405D01*
X57126825Y-46958945D01*
X57078368Y-47061921D01*
X56474626Y-46458179D01*
X56378328Y-46605575D01*
X56280138Y-46829426D01*
X56220130Y-47066394D01*
X56199945Y-47309994D01*
X56199945Y-47310005D01*
X37846196Y-47310005D01*
X40090201Y-45000000D01*
X81494696Y-45000000D01*
X81513898Y-45366405D01*
X81535137Y-45500500D01*
X81571295Y-45728794D01*
X81573477Y-45736939D01*
X81666260Y-46083206D01*
X81797746Y-46425739D01*
X81964320Y-46752656D01*
X82164147Y-47060364D01*
X82202352Y-47107543D01*
X82395051Y-47345506D01*
X82654494Y-47604949D01*
X82654498Y-47604952D01*
X82939635Y-47835852D01*
X83214621Y-48014429D01*
X83247348Y-48035682D01*
X83574264Y-48202255D01*
X83916801Y-48333742D01*
X84271206Y-48428705D01*
X84633596Y-48486102D01*
X84979734Y-48504241D01*
X84999999Y-48505304D01*
X85000000Y-48505304D01*
X85000001Y-48505304D01*
X85019203Y-48504297D01*
X85366404Y-48486102D01*
X85728794Y-48428705D01*
X86083199Y-48333742D01*
X86425736Y-48202255D01*
X86752652Y-48035682D01*
X87060366Y-47835851D01*
X87345506Y-47604949D01*
X87604949Y-47345506D01*
X87835851Y-47060366D01*
X88035682Y-46752652D01*
X88202255Y-46425736D01*
X88333742Y-46083199D01*
X88428705Y-45728794D01*
X88486102Y-45366404D01*
X88505304Y-45000000D01*
X88486102Y-44633596D01*
X88428705Y-44271206D01*
X88333742Y-43916801D01*
X88202255Y-43574264D01*
X88035682Y-43247348D01*
X88024621Y-43230315D01*
X87835852Y-42939635D01*
X87604952Y-42654498D01*
X87604949Y-42654494D01*
X87345506Y-42395051D01*
X87060366Y-42164149D01*
X87060364Y-42164147D01*
X86752656Y-41964320D01*
X86425739Y-41797746D01*
X86083206Y-41666260D01*
X86083199Y-41666258D01*
X85728794Y-41571295D01*
X85728790Y-41571294D01*
X85728789Y-41571294D01*
X85366405Y-41513898D01*
X85000001Y-41494696D01*
X84999999Y-41494696D01*
X84633594Y-41513898D01*
X84271211Y-41571294D01*
X84271209Y-41571294D01*
X83916793Y-41666260D01*
X83574260Y-41797746D01*
X83247343Y-41964320D01*
X82939635Y-42164147D01*
X82654498Y-42395047D01*
X82654490Y-42395054D01*
X82395054Y-42654490D01*
X82395047Y-42654498D01*
X82164147Y-42939635D01*
X81964320Y-43247343D01*
X81797746Y-43574260D01*
X81666260Y-43916793D01*
X81571294Y-44271209D01*
X81571294Y-44271211D01*
X81513898Y-44633594D01*
X81494696Y-44999999D01*
X81494696Y-45000000D01*
X40090201Y-45000000D01*
X45248486Y-39690000D01*
X56399628Y-39690000D01*
X56419079Y-39912329D01*
X56419081Y-39912339D01*
X56476841Y-40127905D01*
X56476843Y-40127909D01*
X56476844Y-40127913D01*
X56571165Y-40330186D01*
X56699178Y-40513007D01*
X56856993Y-40670822D01*
X57039814Y-40798835D01*
X57242087Y-40893156D01*
X57457666Y-40950920D01*
X57635533Y-40966481D01*
X57679999Y-40970372D01*
X57680000Y-40970372D01*
X57680001Y-40970372D01*
X57717055Y-40967130D01*
X57902334Y-40950920D01*
X58117913Y-40893156D01*
X58320186Y-40798835D01*
X58503007Y-40670822D01*
X58660822Y-40513007D01*
X58788835Y-40330186D01*
X58883156Y-40127913D01*
X58940920Y-39912334D01*
X58960372Y-39690000D01*
X58940920Y-39467666D01*
X58883156Y-39252087D01*
X58788835Y-39049814D01*
X58660822Y-38866993D01*
X58503007Y-38709178D01*
X58320186Y-38581165D01*
X58117913Y-38486844D01*
X58117909Y-38486843D01*
X58117905Y-38486841D01*
X57902339Y-38429081D01*
X57902329Y-38429079D01*
X57680001Y-38409628D01*
X57679999Y-38409628D01*
X57457670Y-38429079D01*
X57457660Y-38429081D01*
X57242094Y-38486841D01*
X57242087Y-38486843D01*
X57242087Y-38486844D01*
X57039814Y-38581165D01*
X56856993Y-38709178D01*
X56856991Y-38709179D01*
X56856988Y-38709182D01*
X56699182Y-38866988D01*
X56571165Y-39049814D01*
X56476845Y-39252085D01*
X56476841Y-39252094D01*
X56419081Y-39467660D01*
X56419079Y-39467670D01*
X56399628Y-39689999D01*
X56399628Y-39690000D01*
X45248486Y-39690000D01*
X45434072Y-39498956D01*
X45454206Y-39476045D01*
X45469578Y-39456683D01*
X45472553Y-39452874D01*
X45523439Y-39352798D01*
X45543124Y-39285759D01*
X45555500Y-39199687D01*
X45555500Y-38801362D01*
X45553749Y-38768703D01*
X45550915Y-38742345D01*
X45550080Y-38735340D01*
X45515297Y-38628593D01*
X45515295Y-38628588D01*
X45481810Y-38567266D01*
X45429710Y-38497670D01*
X45429705Y-38497665D01*
X45429702Y-38497660D01*
X45429698Y-38497656D01*
X45429692Y-38497649D01*
X45002353Y-38070311D01*
X45002349Y-38070307D01*
X45002340Y-38070298D01*
X44978008Y-38048442D01*
X44957366Y-38031808D01*
X44957363Y-38031806D01*
X44957325Y-38031775D01*
X44951827Y-38027448D01*
X44951825Y-38027447D01*
X44851747Y-37976560D01*
X44784716Y-37956877D01*
X44784710Y-37956876D01*
X44698638Y-37944500D01*
X43551362Y-37944500D01*
X43551361Y-37944500D01*
X43518718Y-37946250D01*
X43518709Y-37946250D01*
X43518703Y-37946251D01*
X43518698Y-37946251D01*
X43518665Y-37946254D01*
X43492374Y-37949081D01*
X43485339Y-37949920D01*
X43485337Y-37949920D01*
X43378598Y-37984700D01*
X43378588Y-37984704D01*
X43317266Y-38018189D01*
X43247670Y-38070289D01*
X43247649Y-38070307D01*
X37354277Y-43963681D01*
X37292954Y-43997166D01*
X37266596Y-44000000D01*
X35188465Y-44000000D01*
X35121426Y-43980315D01*
X35100784Y-43963681D01*
X34591368Y-43454265D01*
X34582102Y-43443897D01*
X34559877Y-43416028D01*
X34534350Y-43398624D01*
X34512633Y-43383818D01*
X34508869Y-43381147D01*
X34462886Y-43347209D01*
X34455297Y-43343198D01*
X34447675Y-43339528D01*
X34393049Y-43322679D01*
X34388644Y-43321230D01*
X34334695Y-43302352D01*
X34326326Y-43300768D01*
X34317904Y-43299500D01*
X34317902Y-43299500D01*
X34260738Y-43299500D01*
X34256101Y-43299413D01*
X34254085Y-43299337D01*
X34198989Y-43297275D01*
X34189756Y-43298316D01*
X34189662Y-43297486D01*
X34174364Y-43299500D01*
X31441419Y-43299500D01*
X31374380Y-43279815D01*
X31365933Y-43273876D01*
X31302842Y-43225464D01*
X31156762Y-43164956D01*
X31156760Y-43164955D01*
X31000001Y-43144318D01*
X30999999Y-43144318D01*
X30843239Y-43164955D01*
X30843237Y-43164956D01*
X30697162Y-43225462D01*
X30690125Y-43229526D01*
X30689236Y-43227987D01*
X30633411Y-43249570D01*
X30623092Y-43250000D01*
X29983404Y-43250000D01*
X29916365Y-43230315D01*
X29895723Y-43213681D01*
X22252353Y-35570311D01*
X22252340Y-35570298D01*
X22228008Y-35548442D01*
X22207366Y-35531808D01*
X22207363Y-35531806D01*
X22207325Y-35531775D01*
X22201827Y-35527448D01*
X22201825Y-35527447D01*
X22101747Y-35476560D01*
X22034716Y-35456877D01*
X22034710Y-35456876D01*
X21948638Y-35444500D01*
X21948635Y-35444500D01*
X11427904Y-35444500D01*
X11360865Y-35424815D01*
X11340223Y-35408181D01*
X10472976Y-34540934D01*
X16299500Y-34540934D01*
X16314929Y-34663057D01*
X16314929Y-34663060D01*
X16375431Y-34815869D01*
X16375436Y-34815878D01*
X16472034Y-34948835D01*
X16472037Y-34948837D01*
X16598674Y-35053600D01*
X16747387Y-35123579D01*
X16908830Y-35154376D01*
X17072860Y-35144056D01*
X17229171Y-35093268D01*
X17367940Y-35005202D01*
X17480448Y-34885393D01*
X17559627Y-34741368D01*
X17600500Y-34582177D01*
X17600500Y-33859075D01*
X17585071Y-33736942D01*
X17524568Y-33584129D01*
X17524565Y-33584125D01*
X17524563Y-33584121D01*
X17427965Y-33451164D01*
X17427962Y-33451162D01*
X17301326Y-33346400D01*
X17152612Y-33276420D01*
X17069517Y-33260569D01*
X16991170Y-33245624D01*
X16991166Y-33245624D01*
X16827139Y-33255944D01*
X16670828Y-33306732D01*
X16670824Y-33306734D01*
X16532059Y-33394798D01*
X16419554Y-33514603D01*
X16419548Y-33514611D01*
X16340374Y-33658628D01*
X16340371Y-33658638D01*
X16299500Y-33817819D01*
X16299500Y-34540934D01*
X10472976Y-34540934D01*
X10091819Y-34159777D01*
X10058334Y-34098454D01*
X10055500Y-34072096D01*
X10055500Y-32177903D01*
X10075185Y-32110864D01*
X10091819Y-32090222D01*
X14423208Y-27758833D01*
X16295624Y-27758833D01*
X16305944Y-27922860D01*
X16356732Y-28079171D01*
X16356734Y-28079175D01*
X16444798Y-28217940D01*
X16564603Y-28330445D01*
X16564611Y-28330451D01*
X16644860Y-28374568D01*
X16708632Y-28409627D01*
X16867823Y-28450500D01*
X16867827Y-28450500D01*
X16990923Y-28450500D01*
X16990925Y-28450500D01*
X16990930Y-28450499D01*
X16990934Y-28450499D01*
X17004174Y-28448826D01*
X17113058Y-28435071D01*
X17265871Y-28374568D01*
X17265878Y-28374563D01*
X17398835Y-28277965D01*
X17398835Y-28277963D01*
X17398837Y-28277963D01*
X17503600Y-28151326D01*
X17573579Y-28002613D01*
X17604376Y-27841170D01*
X17594056Y-27677140D01*
X17543268Y-27520829D01*
X17455202Y-27382060D01*
X17391281Y-27322034D01*
X17335396Y-27269554D01*
X17335388Y-27269548D01*
X17191371Y-27190374D01*
X17191361Y-27190371D01*
X17032180Y-27149500D01*
X17032177Y-27149500D01*
X16909075Y-27149500D01*
X16909065Y-27149500D01*
X16786942Y-27164929D01*
X16786939Y-27164929D01*
X16634130Y-27225431D01*
X16634121Y-27225436D01*
X16501164Y-27322034D01*
X16501162Y-27322037D01*
X16396400Y-27448673D01*
X16326420Y-27597387D01*
X16310989Y-27678282D01*
X16295624Y-27758830D01*
X16295624Y-27758832D01*
X16295624Y-27758833D01*
X14423208Y-27758833D01*
X17590222Y-24591819D01*
X17651545Y-24558334D01*
X17677903Y-24555500D01*
X24322096Y-24555500D01*
X24389135Y-24575185D01*
X24409777Y-24591819D01*
X24658181Y-24840223D01*
X24691666Y-24901546D01*
X24694500Y-24927904D01*
X24694500Y-30448638D01*
X24696250Y-30481281D01*
X24696254Y-30481334D01*
X24699081Y-30507625D01*
X24699920Y-30514660D01*
X24699920Y-30514662D01*
X24734700Y-30621402D01*
X24734703Y-30621407D01*
X24734827Y-30621635D01*
X24734865Y-30621785D01*
X24736972Y-30626665D01*
X24736196Y-30626999D01*
X24750000Y-30681069D01*
X24750000Y-31623767D01*
X24730315Y-31690806D01*
X24701487Y-31722143D01*
X24571718Y-31821718D01*
X24475463Y-31947160D01*
X24414956Y-32093237D01*
X24414955Y-32093239D01*
X24394318Y-32249998D01*
X24394318Y-32250001D01*
X24414955Y-32406760D01*
X24414956Y-32406762D01*
X24475464Y-32552841D01*
X24571718Y-32678282D01*
X24697159Y-32774536D01*
X24843238Y-32835044D01*
X24922082Y-32845423D01*
X24985977Y-32873689D01*
X24993577Y-32880681D01*
X27963681Y-35850784D01*
X27997166Y-35912107D01*
X28000000Y-35938465D01*
X28000000Y-36425500D01*
X27980315Y-36492539D01*
X27927511Y-36538294D01*
X27876000Y-36549500D01*
X25737966Y-36549500D01*
X25670927Y-36529815D01*
X25650285Y-36513181D01*
X21130681Y-31993578D01*
X21097196Y-31932255D01*
X21095425Y-31922097D01*
X21085044Y-31843238D01*
X21024536Y-31697159D01*
X20928282Y-31571718D01*
X20802841Y-31475464D01*
X20656762Y-31414956D01*
X20656760Y-31414955D01*
X20500001Y-31394318D01*
X20499999Y-31394318D01*
X20343239Y-31414955D01*
X20343237Y-31414956D01*
X20197160Y-31475463D01*
X20071718Y-31571718D01*
X19975463Y-31697160D01*
X19914956Y-31843237D01*
X19914955Y-31843239D01*
X19894318Y-31999998D01*
X19894318Y-32000001D01*
X19914955Y-32156760D01*
X19914956Y-32156762D01*
X19953576Y-32250000D01*
X19975464Y-32302841D01*
X20071718Y-32428282D01*
X20197159Y-32524536D01*
X20343238Y-32585044D01*
X20422082Y-32595423D01*
X20485977Y-32623689D01*
X20493577Y-32630681D01*
X25158630Y-37295733D01*
X25167895Y-37306100D01*
X25190121Y-37333970D01*
X25190123Y-37333972D01*
X25237363Y-37366180D01*
X25241145Y-37368863D01*
X25287118Y-37402793D01*
X25294654Y-37406776D01*
X25302319Y-37410467D01*
X25302327Y-37410472D01*
X25327188Y-37418140D01*
X25356980Y-37427330D01*
X25361371Y-37428774D01*
X25415301Y-37447646D01*
X25415305Y-37447646D01*
X25423698Y-37449234D01*
X25432095Y-37450500D01*
X25432098Y-37450500D01*
X25489245Y-37450500D01*
X25493883Y-37450587D01*
X25551009Y-37452725D01*
X25551009Y-37452724D01*
X25551010Y-37452725D01*
X25551010Y-37452724D01*
X25560242Y-37451685D01*
X25560335Y-37452513D01*
X25575639Y-37450500D01*
X36932098Y-37450500D01*
X39967738Y-37450500D01*
X39981620Y-37451279D01*
X39992565Y-37452513D01*
X40017033Y-37455270D01*
X40017033Y-37455269D01*
X40017035Y-37455270D01*
X40073236Y-37444635D01*
X40077726Y-37443872D01*
X40134287Y-37435348D01*
X40134291Y-37435345D01*
X40142447Y-37432830D01*
X40150469Y-37430024D01*
X40150470Y-37430023D01*
X40150472Y-37430023D01*
X40201088Y-37403270D01*
X40205093Y-37401248D01*
X40256642Y-37376425D01*
X40256643Y-37376423D01*
X40256645Y-37376423D01*
X40263695Y-37371616D01*
X40270534Y-37366567D01*
X40270538Y-37366566D01*
X40310974Y-37326128D01*
X40314260Y-37322962D01*
X40356194Y-37284055D01*
X40356196Y-37284050D01*
X40361987Y-37276790D01*
X40362643Y-37277313D01*
X40372032Y-37265070D01*
X41327097Y-36310005D01*
X56199945Y-36310005D01*
X56220130Y-36553605D01*
X56280138Y-36790573D01*
X56378330Y-37014429D01*
X56474626Y-37161819D01*
X57077452Y-36558993D01*
X57087188Y-36588956D01*
X57175186Y-36727619D01*
X57294903Y-36840040D01*
X57429510Y-36914041D01*
X56827758Y-37515794D01*
X56827758Y-37515796D01*
X56870478Y-37549046D01*
X56870484Y-37549050D01*
X57085468Y-37665394D01*
X57085476Y-37665397D01*
X57316664Y-37744765D01*
X57557779Y-37785000D01*
X57802221Y-37785000D01*
X58043335Y-37744765D01*
X58274523Y-37665397D01*
X58274531Y-37665394D01*
X58489514Y-37549051D01*
X58489514Y-37549050D01*
X58532240Y-37515795D01*
X58532240Y-37515794D01*
X57927534Y-36911086D01*
X57995629Y-36884126D01*
X58128492Y-36787595D01*
X58233175Y-36661055D01*
X58281631Y-36558078D01*
X58885372Y-37161819D01*
X58981667Y-37014431D01*
X58981672Y-37014423D01*
X59079861Y-36790573D01*
X59139869Y-36553605D01*
X59160055Y-36310005D01*
X59160055Y-36310000D01*
X66559628Y-36310000D01*
X66579079Y-36532329D01*
X66579081Y-36532339D01*
X66636841Y-36747905D01*
X66636843Y-36747909D01*
X66636844Y-36747913D01*
X66731165Y-36950186D01*
X66859178Y-37133007D01*
X67016993Y-37290822D01*
X67199814Y-37418835D01*
X67402087Y-37513156D01*
X67402093Y-37513157D01*
X67402094Y-37513158D01*
X67453980Y-37527060D01*
X67617666Y-37570920D01*
X67795533Y-37586481D01*
X67839999Y-37590372D01*
X67840000Y-37590372D01*
X67840001Y-37590372D01*
X67877055Y-37587130D01*
X68062334Y-37570920D01*
X68277913Y-37513156D01*
X68480186Y-37418835D01*
X68663007Y-37290822D01*
X68820822Y-37133007D01*
X68948835Y-36950186D01*
X69043156Y-36747913D01*
X69100920Y-36532334D01*
X69120372Y-36310000D01*
X74179628Y-36310000D01*
X74199079Y-36532329D01*
X74199081Y-36532339D01*
X74256841Y-36747905D01*
X74256843Y-36747909D01*
X74256844Y-36747913D01*
X74351165Y-36950186D01*
X74479178Y-37133007D01*
X74636993Y-37290822D01*
X74819814Y-37418835D01*
X75022087Y-37513156D01*
X75022093Y-37513157D01*
X75022094Y-37513158D01*
X75073980Y-37527060D01*
X75237666Y-37570920D01*
X75415533Y-37586481D01*
X75459999Y-37590372D01*
X75460000Y-37590372D01*
X75460001Y-37590372D01*
X75497055Y-37587130D01*
X75682334Y-37570920D01*
X75897913Y-37513156D01*
X76100186Y-37418835D01*
X76283007Y-37290822D01*
X76440822Y-37133007D01*
X76568835Y-36950186D01*
X76663156Y-36747913D01*
X76720920Y-36532334D01*
X76740372Y-36310000D01*
X76740371Y-36309994D01*
X76720920Y-36087670D01*
X76720920Y-36087666D01*
X76663156Y-35872087D01*
X76568835Y-35669814D01*
X76440822Y-35486993D01*
X76283007Y-35329178D01*
X76100186Y-35201165D01*
X75897913Y-35106844D01*
X75897909Y-35106843D01*
X75897905Y-35106841D01*
X75682339Y-35049081D01*
X75682329Y-35049079D01*
X75460001Y-35029628D01*
X75459999Y-35029628D01*
X75237670Y-35049079D01*
X75237660Y-35049081D01*
X75022094Y-35106841D01*
X75022087Y-35106843D01*
X75022087Y-35106844D01*
X74819814Y-35201165D01*
X74636993Y-35329178D01*
X74636991Y-35329179D01*
X74636988Y-35329182D01*
X74479182Y-35486988D01*
X74479179Y-35486991D01*
X74479178Y-35486993D01*
X74436151Y-35548442D01*
X74351165Y-35669814D01*
X74256845Y-35872085D01*
X74256841Y-35872094D01*
X74199081Y-36087660D01*
X74199079Y-36087670D01*
X74179628Y-36309999D01*
X74179628Y-36310000D01*
X69120372Y-36310000D01*
X69120371Y-36309994D01*
X69100920Y-36087670D01*
X69100920Y-36087666D01*
X69043156Y-35872087D01*
X68948835Y-35669814D01*
X68820822Y-35486993D01*
X68663007Y-35329178D01*
X68480186Y-35201165D01*
X68277913Y-35106844D01*
X68277909Y-35106843D01*
X68277905Y-35106841D01*
X68062339Y-35049081D01*
X68062329Y-35049079D01*
X67840001Y-35029628D01*
X67839999Y-35029628D01*
X67617670Y-35049079D01*
X67617660Y-35049081D01*
X67402094Y-35106841D01*
X67402087Y-35106843D01*
X67402087Y-35106844D01*
X67199814Y-35201165D01*
X67016993Y-35329178D01*
X67016991Y-35329179D01*
X67016988Y-35329182D01*
X66859182Y-35486988D01*
X66859179Y-35486991D01*
X66859178Y-35486993D01*
X66816151Y-35548442D01*
X66731165Y-35669814D01*
X66636845Y-35872085D01*
X66636841Y-35872094D01*
X66579081Y-36087660D01*
X66579079Y-36087670D01*
X66559628Y-36309999D01*
X66559628Y-36310000D01*
X59160055Y-36310000D01*
X59160055Y-36309994D01*
X59139869Y-36066394D01*
X59079861Y-35829426D01*
X58981669Y-35605570D01*
X58885372Y-35458179D01*
X58282546Y-36061004D01*
X58272812Y-36031044D01*
X58184814Y-35892381D01*
X58065097Y-35779960D01*
X57930488Y-35705957D01*
X58532240Y-35104204D01*
X58532240Y-35104203D01*
X58489514Y-35070949D01*
X58274531Y-34954605D01*
X58274523Y-34954602D01*
X58043335Y-34875234D01*
X57802221Y-34835000D01*
X57557779Y-34835000D01*
X57316664Y-34875234D01*
X57085476Y-34954602D01*
X57085468Y-34954605D01*
X56870481Y-35070951D01*
X56827758Y-35104202D01*
X56827757Y-35104204D01*
X57432466Y-35708912D01*
X57364371Y-35735874D01*
X57231508Y-35832405D01*
X57126825Y-35958945D01*
X57078368Y-36061921D01*
X56474626Y-35458179D01*
X56378328Y-35605575D01*
X56280138Y-35829426D01*
X56220130Y-36066394D01*
X56199945Y-36309994D01*
X56199945Y-36310005D01*
X41327097Y-36310005D01*
X43256422Y-34380679D01*
X43317743Y-34347196D01*
X43327896Y-34345426D01*
X43406762Y-34335044D01*
X43552841Y-34274536D01*
X43678282Y-34178282D01*
X43774536Y-34052841D01*
X43835044Y-33906762D01*
X43855682Y-33750000D01*
X43854836Y-33743577D01*
X43835044Y-33593239D01*
X43835044Y-33593238D01*
X43774536Y-33447159D01*
X43678282Y-33321718D01*
X43552841Y-33225464D01*
X43552836Y-33225462D01*
X43406762Y-33164956D01*
X43406760Y-33164955D01*
X43250001Y-33144318D01*
X43249999Y-33144318D01*
X43093239Y-33164955D01*
X43093237Y-33164956D01*
X42947162Y-33225462D01*
X42940125Y-33229526D01*
X42939236Y-33227987D01*
X42883411Y-33249570D01*
X42873092Y-33250000D01*
X40876909Y-33250000D01*
X40809870Y-33230315D01*
X40801405Y-33224362D01*
X40798496Y-33222129D01*
X40757303Y-33165694D01*
X40750000Y-33123767D01*
X40750000Y-32483404D01*
X40769685Y-32416365D01*
X40786319Y-32395723D01*
X43288888Y-29893154D01*
X45929702Y-27252340D01*
X45931803Y-27250001D01*
X54644318Y-27250001D01*
X54664955Y-27406760D01*
X54664956Y-27406762D01*
X54682316Y-27448674D01*
X54725464Y-27552841D01*
X54821718Y-27678282D01*
X54947159Y-27774536D01*
X55093238Y-27835044D01*
X55139770Y-27841170D01*
X55249999Y-27855682D01*
X55250000Y-27855682D01*
X55250001Y-27855682D01*
X55302254Y-27848802D01*
X55406762Y-27835044D01*
X55552841Y-27774536D01*
X55678282Y-27678282D01*
X55774536Y-27552841D01*
X55785220Y-27527048D01*
X55829061Y-27472644D01*
X55895355Y-27450579D01*
X55899781Y-27450500D01*
X56626000Y-27450500D01*
X56693039Y-27470185D01*
X56738794Y-27522989D01*
X56750000Y-27574500D01*
X56750000Y-27764809D01*
X56730315Y-27831848D01*
X56713681Y-27852490D01*
X56699182Y-27866988D01*
X56699179Y-27866991D01*
X56699178Y-27866993D01*
X56637377Y-27955254D01*
X56571165Y-28049814D01*
X56476845Y-28252085D01*
X56476841Y-28252094D01*
X56419081Y-28467660D01*
X56419079Y-28467670D01*
X56399628Y-28689999D01*
X56399628Y-28690000D01*
X56419079Y-28912329D01*
X56419081Y-28912339D01*
X56476841Y-29127905D01*
X56476843Y-29127909D01*
X56476844Y-29127913D01*
X56571165Y-29330186D01*
X56699178Y-29513007D01*
X56856993Y-29670822D01*
X57039814Y-29798835D01*
X57242087Y-29893156D01*
X57457666Y-29950920D01*
X57635533Y-29966481D01*
X57679999Y-29970372D01*
X57680000Y-29970372D01*
X57680001Y-29970372D01*
X57717055Y-29967130D01*
X57902334Y-29950920D01*
X58117913Y-29893156D01*
X58320186Y-29798835D01*
X58503007Y-29670822D01*
X58660822Y-29513007D01*
X58788835Y-29330186D01*
X58883156Y-29127913D01*
X58940920Y-28912334D01*
X58960372Y-28690000D01*
X58940920Y-28467666D01*
X58883156Y-28252087D01*
X58788835Y-28049814D01*
X58788833Y-28049811D01*
X58772424Y-28026376D01*
X58750097Y-27960170D01*
X58750000Y-27955254D01*
X58750000Y-27574500D01*
X58769685Y-27507461D01*
X58822489Y-27461706D01*
X58874000Y-27450500D01*
X61808581Y-27450500D01*
X61875620Y-27470185D01*
X61884067Y-27476124D01*
X61947157Y-27524535D01*
X61947158Y-27524535D01*
X61947159Y-27524536D01*
X62093238Y-27585044D01*
X62171619Y-27595363D01*
X62249999Y-27605682D01*
X62250000Y-27605682D01*
X62250001Y-27605682D01*
X62313007Y-27597387D01*
X62406762Y-27585044D01*
X62552841Y-27524536D01*
X62678282Y-27428282D01*
X62774536Y-27302841D01*
X62835044Y-27156762D01*
X62855682Y-27000000D01*
X62848725Y-26947159D01*
X62835044Y-26843239D01*
X62835044Y-26843238D01*
X62774536Y-26697159D01*
X62678282Y-26571718D01*
X62552841Y-26475464D01*
X62406762Y-26414956D01*
X62406760Y-26414955D01*
X62250001Y-26394318D01*
X62249999Y-26394318D01*
X62093239Y-26414955D01*
X62093237Y-26414956D01*
X61947157Y-26475464D01*
X61884067Y-26523876D01*
X61818898Y-26549070D01*
X61808581Y-26549500D01*
X58617308Y-26549500D01*
X58550269Y-26529815D01*
X58529627Y-26513181D01*
X57927534Y-25911086D01*
X57995629Y-25884126D01*
X58128492Y-25787595D01*
X58233175Y-25661055D01*
X58281631Y-25558078D01*
X58885372Y-26161819D01*
X58981667Y-26014431D01*
X58981672Y-26014423D01*
X59079861Y-25790573D01*
X59139869Y-25553605D01*
X59160055Y-25310005D01*
X59160055Y-25310000D01*
X66559628Y-25310000D01*
X66579079Y-25532329D01*
X66579081Y-25532339D01*
X66636841Y-25747905D01*
X66636843Y-25747909D01*
X66636844Y-25747913D01*
X66731165Y-25950186D01*
X66859178Y-26133007D01*
X67016993Y-26290822D01*
X67199814Y-26418835D01*
X67402087Y-26513156D01*
X67402093Y-26513157D01*
X67402094Y-26513158D01*
X67442095Y-26523876D01*
X67617666Y-26570920D01*
X67795533Y-26586481D01*
X67839999Y-26590372D01*
X67840000Y-26590372D01*
X67840001Y-26590372D01*
X67877055Y-26587130D01*
X68062334Y-26570920D01*
X68277913Y-26513156D01*
X68480186Y-26418835D01*
X68663007Y-26290822D01*
X68820822Y-26133007D01*
X68948835Y-25950186D01*
X69043156Y-25747913D01*
X69100920Y-25532334D01*
X69120372Y-25310000D01*
X74179628Y-25310000D01*
X74199079Y-25532329D01*
X74199081Y-25532339D01*
X74256841Y-25747905D01*
X74256843Y-25747909D01*
X74256844Y-25747913D01*
X74351165Y-25950186D01*
X74479178Y-26133007D01*
X74636993Y-26290822D01*
X74819814Y-26418835D01*
X75022087Y-26513156D01*
X75022093Y-26513157D01*
X75022094Y-26513158D01*
X75062095Y-26523876D01*
X75237666Y-26570920D01*
X75415533Y-26586481D01*
X75459999Y-26590372D01*
X75460000Y-26590372D01*
X75460001Y-26590372D01*
X75497055Y-26587130D01*
X75682334Y-26570920D01*
X75897913Y-26513156D01*
X76100186Y-26418835D01*
X76283007Y-26290822D01*
X76440822Y-26133007D01*
X76568835Y-25950186D01*
X76663156Y-25747913D01*
X76720920Y-25532334D01*
X76740372Y-25310000D01*
X76740371Y-25309994D01*
X76720920Y-25087670D01*
X76720920Y-25087666D01*
X76677060Y-24923980D01*
X76663158Y-24872094D01*
X76663157Y-24872093D01*
X76663156Y-24872087D01*
X76568835Y-24669814D01*
X76440822Y-24486993D01*
X76283007Y-24329178D01*
X76100186Y-24201165D01*
X75897913Y-24106844D01*
X75897909Y-24106843D01*
X75897905Y-24106841D01*
X75682339Y-24049081D01*
X75682329Y-24049079D01*
X75460001Y-24029628D01*
X75459999Y-24029628D01*
X75237670Y-24049079D01*
X75237660Y-24049081D01*
X75022094Y-24106841D01*
X75022087Y-24106843D01*
X75022087Y-24106844D01*
X74819814Y-24201165D01*
X74636993Y-24329178D01*
X74636991Y-24329179D01*
X74636988Y-24329182D01*
X74479182Y-24486988D01*
X74479179Y-24486991D01*
X74479178Y-24486993D01*
X74417425Y-24575185D01*
X74351165Y-24669814D01*
X74256845Y-24872085D01*
X74256841Y-24872094D01*
X74199081Y-25087660D01*
X74199079Y-25087670D01*
X74179628Y-25309999D01*
X74179628Y-25310000D01*
X69120372Y-25310000D01*
X69120371Y-25309994D01*
X69100920Y-25087670D01*
X69100920Y-25087666D01*
X69057060Y-24923980D01*
X69043158Y-24872094D01*
X69043157Y-24872093D01*
X69043156Y-24872087D01*
X68948835Y-24669814D01*
X68820822Y-24486993D01*
X68663007Y-24329178D01*
X68480186Y-24201165D01*
X68277913Y-24106844D01*
X68277909Y-24106843D01*
X68277905Y-24106841D01*
X68062339Y-24049081D01*
X68062329Y-24049079D01*
X67840001Y-24029628D01*
X67839999Y-24029628D01*
X67617670Y-24049079D01*
X67617660Y-24049081D01*
X67402094Y-24106841D01*
X67402087Y-24106843D01*
X67402087Y-24106844D01*
X67199814Y-24201165D01*
X67016993Y-24329178D01*
X67016991Y-24329179D01*
X67016988Y-24329182D01*
X66859182Y-24486988D01*
X66859179Y-24486991D01*
X66859178Y-24486993D01*
X66797425Y-24575185D01*
X66731165Y-24669814D01*
X66636845Y-24872085D01*
X66636841Y-24872094D01*
X66579081Y-25087660D01*
X66579079Y-25087670D01*
X66559628Y-25309999D01*
X66559628Y-25310000D01*
X59160055Y-25310000D01*
X59160055Y-25309994D01*
X59139869Y-25066394D01*
X59079861Y-24829426D01*
X58981669Y-24605570D01*
X58885372Y-24458179D01*
X58282546Y-25061004D01*
X58272812Y-25031044D01*
X58184814Y-24892381D01*
X58065097Y-24779960D01*
X57930488Y-24705957D01*
X58532240Y-24104204D01*
X58532240Y-24104203D01*
X58489514Y-24070949D01*
X58274531Y-23954605D01*
X58274523Y-23954602D01*
X58043335Y-23875234D01*
X57802221Y-23835000D01*
X57557779Y-23835000D01*
X57316664Y-23875234D01*
X57085476Y-23954602D01*
X57085468Y-23954605D01*
X56870481Y-24070951D01*
X56827758Y-24104202D01*
X56827757Y-24104204D01*
X57432466Y-24708912D01*
X57364371Y-24735874D01*
X57231508Y-24832405D01*
X57126825Y-24958945D01*
X57078368Y-25061921D01*
X56474626Y-24458179D01*
X56378328Y-24605575D01*
X56280138Y-24829426D01*
X56220130Y-25066394D01*
X56199945Y-25309994D01*
X56199945Y-25310005D01*
X56220130Y-25553605D01*
X56280138Y-25790573D01*
X56378330Y-26014429D01*
X56474626Y-26161819D01*
X57077452Y-25558993D01*
X57087188Y-25588956D01*
X57175186Y-25727619D01*
X57294903Y-25840040D01*
X57429511Y-25914041D01*
X56830372Y-26513181D01*
X56769049Y-26546666D01*
X56742691Y-26549500D01*
X55532262Y-26549500D01*
X55518379Y-26548720D01*
X55513370Y-26548155D01*
X55482963Y-26544729D01*
X55426810Y-26555354D01*
X55422241Y-26556131D01*
X55365715Y-26564651D01*
X55357532Y-26567175D01*
X55349529Y-26569976D01*
X55298985Y-26596689D01*
X55294848Y-26598777D01*
X55243358Y-26623573D01*
X55236333Y-26628362D01*
X55232789Y-26630979D01*
X55229097Y-26632467D01*
X55222695Y-26637011D01*
X55221314Y-26637742D01*
X55220382Y-26635982D01*
X55175344Y-26654146D01*
X55093238Y-26664955D01*
X54947160Y-26725463D01*
X54821718Y-26821718D01*
X54725463Y-26947160D01*
X54664956Y-27093237D01*
X54664955Y-27093239D01*
X54644318Y-27249998D01*
X54644318Y-27250001D01*
X45931803Y-27250001D01*
X45951558Y-27228008D01*
X45968192Y-27207366D01*
X45972553Y-27201825D01*
X46023439Y-27101749D01*
X46043124Y-27034710D01*
X46055500Y-26948638D01*
X46055500Y-26551362D01*
X46053749Y-26518703D01*
X46050915Y-26492345D01*
X46050080Y-26485340D01*
X46028410Y-26418835D01*
X46015299Y-26378598D01*
X46015295Y-26378588D01*
X45981810Y-26317266D01*
X45929710Y-26247670D01*
X45929705Y-26247665D01*
X45929702Y-26247660D01*
X45929698Y-26247656D01*
X45929692Y-26247649D01*
X45502353Y-25820311D01*
X45502349Y-25820307D01*
X45502340Y-25820298D01*
X45478008Y-25798442D01*
X45464547Y-25787595D01*
X45457325Y-25781775D01*
X45451827Y-25777448D01*
X45451825Y-25777447D01*
X45351747Y-25726560D01*
X45284716Y-25706877D01*
X45284710Y-25706876D01*
X45198638Y-25694500D01*
X44301362Y-25694500D01*
X44301361Y-25694500D01*
X44268718Y-25696250D01*
X44268709Y-25696250D01*
X44268703Y-25696251D01*
X44268698Y-25696251D01*
X44268665Y-25696254D01*
X44242374Y-25699081D01*
X44235339Y-25699920D01*
X44235337Y-25699920D01*
X44128598Y-25734700D01*
X44128588Y-25734704D01*
X44067266Y-25768189D01*
X43997670Y-25820289D01*
X43997649Y-25820307D01*
X36659777Y-33158181D01*
X36598454Y-33191666D01*
X36572096Y-33194500D01*
X31677904Y-33194500D01*
X31610865Y-33174815D01*
X31590223Y-33158181D01*
X27841819Y-29409777D01*
X27808334Y-29348454D01*
X27805500Y-29322096D01*
X27805500Y-24927904D01*
X27825185Y-24860865D01*
X27841819Y-24840223D01*
X28090223Y-24591819D01*
X28151546Y-24558334D01*
X28177904Y-24555500D01*
X37698639Y-24555500D01*
X37700559Y-24555397D01*
X37731297Y-24553749D01*
X37757655Y-24550915D01*
X37764660Y-24550080D01*
X37871407Y-24515297D01*
X37932730Y-24481812D01*
X38002340Y-24429702D01*
X40472041Y-21960000D01*
X84007244Y-21960000D01*
X84026238Y-22201343D01*
X84082752Y-22436739D01*
X84082752Y-22436741D01*
X84175391Y-22660393D01*
X84175393Y-22660396D01*
X84301880Y-22866803D01*
X84301881Y-22866805D01*
X84301882Y-22866807D01*
X84301884Y-22866809D01*
X84459107Y-23050893D01*
X84643191Y-23208116D01*
X84643193Y-23208117D01*
X84643194Y-23208118D01*
X84643196Y-23208119D01*
X84849603Y-23334606D01*
X84849606Y-23334608D01*
X85073259Y-23427247D01*
X85073260Y-23427247D01*
X85073262Y-23427248D01*
X85308660Y-23483762D01*
X85550000Y-23502756D01*
X85791340Y-23483762D01*
X86026738Y-23427248D01*
X86026740Y-23427247D01*
X86026741Y-23427247D01*
X86250393Y-23334608D01*
X86250394Y-23334607D01*
X86250397Y-23334606D01*
X86456809Y-23208116D01*
X86640893Y-23050893D01*
X86798116Y-22866809D01*
X86924606Y-22660397D01*
X87017248Y-22436738D01*
X87073762Y-22201340D01*
X87092756Y-21960000D01*
X87073762Y-21718660D01*
X87017248Y-21483262D01*
X87017247Y-21483259D01*
X87017247Y-21483258D01*
X86924608Y-21259606D01*
X86924606Y-21259603D01*
X86798119Y-21053196D01*
X86798118Y-21053194D01*
X86798117Y-21053193D01*
X86798116Y-21053191D01*
X86640893Y-20869107D01*
X86456809Y-20711884D01*
X86456807Y-20711882D01*
X86456805Y-20711881D01*
X86456803Y-20711880D01*
X86250396Y-20585393D01*
X86250393Y-20585391D01*
X86026740Y-20492752D01*
X85791343Y-20436238D01*
X85550000Y-20417244D01*
X85308656Y-20436238D01*
X85073260Y-20492752D01*
X85073258Y-20492752D01*
X84849606Y-20585391D01*
X84849603Y-20585393D01*
X84643196Y-20711880D01*
X84643194Y-20711881D01*
X84459107Y-20869107D01*
X84301881Y-21053194D01*
X84301880Y-21053196D01*
X84175393Y-21259603D01*
X84175391Y-21259606D01*
X84082752Y-21483258D01*
X84082752Y-21483260D01*
X84026238Y-21718656D01*
X84007244Y-21960000D01*
X40472041Y-21960000D01*
X43211281Y-19220760D01*
X84012000Y-19220760D01*
X84021926Y-19288891D01*
X84073303Y-19393985D01*
X84156014Y-19476696D01*
X84156015Y-19476696D01*
X84156017Y-19476698D01*
X84261107Y-19528073D01*
X84295173Y-19533036D01*
X84329239Y-19538000D01*
X84329240Y-19538000D01*
X86770761Y-19538000D01*
X86793471Y-19534691D01*
X86838893Y-19528073D01*
X86943983Y-19476698D01*
X87026698Y-19393983D01*
X87078073Y-19288893D01*
X87088000Y-19220760D01*
X87088000Y-16779240D01*
X87078073Y-16711107D01*
X87026698Y-16606017D01*
X87026696Y-16606015D01*
X87026696Y-16606014D01*
X86943985Y-16523303D01*
X86838891Y-16471926D01*
X86770761Y-16462000D01*
X86770760Y-16462000D01*
X84329240Y-16462000D01*
X84329239Y-16462000D01*
X84261108Y-16471926D01*
X84156014Y-16523303D01*
X84073303Y-16606014D01*
X84021926Y-16711108D01*
X84012000Y-16779239D01*
X84012000Y-19220760D01*
X43211281Y-19220760D01*
X47090222Y-15341818D01*
X47151545Y-15308334D01*
X47177903Y-15305500D01*
X54598562Y-15305500D01*
X54665601Y-15325185D01*
X54711356Y-15377989D01*
X54721300Y-15447147D01*
X54713123Y-15476953D01*
X54664956Y-15593237D01*
X54664955Y-15593239D01*
X54644318Y-15749998D01*
X54644318Y-15750001D01*
X54664955Y-15906760D01*
X54664956Y-15906762D01*
X54725464Y-16052841D01*
X54821718Y-16178282D01*
X54947159Y-16274536D01*
X55093238Y-16335044D01*
X55155478Y-16343238D01*
X55249999Y-16355682D01*
X55250000Y-16355682D01*
X55250001Y-16355682D01*
X55344514Y-16343239D01*
X55406762Y-16335044D01*
X55552841Y-16274536D01*
X55615933Y-16226123D01*
X55681102Y-16200930D01*
X55691419Y-16200500D01*
X56876000Y-16200500D01*
X56943039Y-16220185D01*
X56988794Y-16272989D01*
X57000000Y-16324500D01*
X57000000Y-16544492D01*
X56980315Y-16611531D01*
X56947125Y-16646066D01*
X56856990Y-16709180D01*
X56699182Y-16866988D01*
X56699179Y-16866991D01*
X56699178Y-16866993D01*
X56656264Y-16928281D01*
X56571165Y-17049814D01*
X56476845Y-17252085D01*
X56476841Y-17252094D01*
X56419081Y-17467660D01*
X56419079Y-17467670D01*
X56399628Y-17689999D01*
X56399628Y-17690000D01*
X56419079Y-17912329D01*
X56419081Y-17912339D01*
X56476841Y-18127905D01*
X56476843Y-18127909D01*
X56476844Y-18127913D01*
X56571165Y-18330186D01*
X56699178Y-18513007D01*
X56856993Y-18670822D01*
X57039814Y-18798835D01*
X57242087Y-18893156D01*
X57457666Y-18950920D01*
X57635533Y-18966481D01*
X57679999Y-18970372D01*
X57680000Y-18970372D01*
X57680001Y-18970372D01*
X57717055Y-18967130D01*
X57902334Y-18950920D01*
X58117913Y-18893156D01*
X58320186Y-18798835D01*
X58503007Y-18670822D01*
X58660822Y-18513007D01*
X58788835Y-18330186D01*
X58883156Y-18127913D01*
X58940920Y-17912334D01*
X58960372Y-17690000D01*
X58957714Y-17659625D01*
X58954647Y-17624563D01*
X58940920Y-17467666D01*
X58883156Y-17252087D01*
X58788835Y-17049814D01*
X58660822Y-16866993D01*
X58536319Y-16742490D01*
X58502834Y-16681167D01*
X58500000Y-16654809D01*
X58500000Y-16324500D01*
X58519685Y-16257461D01*
X58572489Y-16211706D01*
X58624000Y-16200500D01*
X72558581Y-16200500D01*
X72625620Y-16220185D01*
X72634067Y-16226124D01*
X72697157Y-16274535D01*
X72697158Y-16274535D01*
X72697159Y-16274536D01*
X72843238Y-16335044D01*
X72905478Y-16343238D01*
X72999999Y-16355682D01*
X73000000Y-16355682D01*
X73000001Y-16355682D01*
X73094514Y-16343239D01*
X73156762Y-16335044D01*
X73302841Y-16274536D01*
X73428282Y-16178282D01*
X73524536Y-16052841D01*
X73585044Y-15906762D01*
X73605682Y-15750000D01*
X73585044Y-15593238D01*
X73524536Y-15447159D01*
X73428282Y-15321718D01*
X73302841Y-15225464D01*
X73302773Y-15225436D01*
X73156762Y-15164956D01*
X73156760Y-15164955D01*
X73000002Y-15144318D01*
X73000000Y-15144318D01*
X72985367Y-15146244D01*
X72967235Y-15148631D01*
X72898200Y-15137863D01*
X72863372Y-15113372D01*
X72529214Y-14779214D01*
X72495729Y-14717891D01*
X72500713Y-14648199D01*
X72506356Y-14635343D01*
X72523439Y-14601749D01*
X72543124Y-14534710D01*
X72555500Y-14448638D01*
X72555500Y-13551362D01*
X72553749Y-13518703D01*
X72550915Y-13492345D01*
X72550080Y-13485340D01*
X72515297Y-13378593D01*
X72515295Y-13378588D01*
X72481810Y-13317266D01*
X72429710Y-13247670D01*
X72429705Y-13247665D01*
X72429702Y-13247660D01*
X72429698Y-13247656D01*
X72429692Y-13247649D01*
X72002353Y-12820311D01*
X72002349Y-12820307D01*
X72002340Y-12820298D01*
X71978008Y-12798442D01*
X71957366Y-12781808D01*
X71957363Y-12781806D01*
X71957325Y-12781775D01*
X71951827Y-12777448D01*
X71951825Y-12777447D01*
X71851747Y-12726560D01*
X71784716Y-12706877D01*
X71784710Y-12706876D01*
X71698638Y-12694500D01*
X45051362Y-12694500D01*
X45051361Y-12694500D01*
X45018718Y-12696250D01*
X45018709Y-12696250D01*
X45018703Y-12696251D01*
X45018698Y-12696251D01*
X45018665Y-12696254D01*
X44992374Y-12699081D01*
X44985339Y-12699920D01*
X44985337Y-12699920D01*
X44878598Y-12734700D01*
X44878588Y-12734704D01*
X44817266Y-12768189D01*
X44747670Y-12820289D01*
X44747649Y-12820307D01*
X37854277Y-19713681D01*
X37792954Y-19747166D01*
X37766596Y-19750000D01*
X35626908Y-19750000D01*
X35559869Y-19730315D01*
X35553561Y-19725880D01*
X35552842Y-19725465D01*
X35552841Y-19725464D01*
X35552839Y-19725463D01*
X35552837Y-19725462D01*
X35406762Y-19664956D01*
X35406760Y-19664955D01*
X35250001Y-19644318D01*
X35249999Y-19644318D01*
X35093239Y-19664955D01*
X35093237Y-19664956D01*
X34947157Y-19725464D01*
X34884067Y-19773876D01*
X34818898Y-19799070D01*
X34808581Y-19799500D01*
X25441419Y-19799500D01*
X25374380Y-19779815D01*
X25365933Y-19773876D01*
X25302842Y-19725464D01*
X25156762Y-19664956D01*
X25156760Y-19664955D01*
X25000001Y-19644318D01*
X24999999Y-19644318D01*
X24843239Y-19664955D01*
X24843237Y-19664956D01*
X24697160Y-19725463D01*
X24571718Y-19821718D01*
X24475463Y-19947160D01*
X24414956Y-20093237D01*
X24414955Y-20093239D01*
X24394318Y-20249998D01*
X24394318Y-20250001D01*
X24415292Y-20409315D01*
X24404526Y-20478350D01*
X24358146Y-20530606D01*
X24292353Y-20549500D01*
X21737965Y-20549500D01*
X21670926Y-20529815D01*
X21650284Y-20513181D01*
X21130681Y-19993578D01*
X21097196Y-19932255D01*
X21095425Y-19922097D01*
X21085044Y-19843238D01*
X21024536Y-19697159D01*
X20928282Y-19571718D01*
X20802841Y-19475464D01*
X20656762Y-19414956D01*
X20656760Y-19414955D01*
X20500001Y-19394318D01*
X20499999Y-19394318D01*
X20343239Y-19414955D01*
X20343237Y-19414956D01*
X20197160Y-19475463D01*
X20071718Y-19571718D01*
X19975463Y-19697160D01*
X19914956Y-19843237D01*
X19914955Y-19843239D01*
X19894318Y-19999998D01*
X19894318Y-20000000D01*
X19914955Y-20156760D01*
X19914956Y-20156762D01*
X19975462Y-20302837D01*
X19979526Y-20309875D01*
X19977987Y-20310763D01*
X19999570Y-20366589D01*
X20000000Y-20376908D01*
X20000000Y-21320500D01*
X19980315Y-21387539D01*
X19927511Y-21433294D01*
X19876000Y-21444500D01*
X17724500Y-21444500D01*
X17724491Y-21444500D01*
X17724490Y-21444501D01*
X17659564Y-21451481D01*
X17659552Y-21451483D01*
X17608046Y-21462688D01*
X17569844Y-21473644D01*
X17563456Y-21476378D01*
X17494077Y-21484646D01*
X17434396Y-21455626D01*
X17433975Y-21456136D01*
X17431881Y-21454403D01*
X17431242Y-21454093D01*
X17429851Y-21452724D01*
X17301326Y-21346400D01*
X17152612Y-21276420D01*
X17064450Y-21259603D01*
X16991170Y-21245624D01*
X16991166Y-21245624D01*
X16827139Y-21255944D01*
X16670828Y-21306732D01*
X16670824Y-21306734D01*
X16532059Y-21394798D01*
X16478018Y-21452345D01*
X16417777Y-21487739D01*
X16347963Y-21484945D01*
X16331433Y-21477996D01*
X16328611Y-21476561D01*
X16316112Y-21472890D01*
X16261578Y-21456877D01*
X16261572Y-21456876D01*
X16175500Y-21444500D01*
X15301362Y-21444500D01*
X15301361Y-21444500D01*
X15268718Y-21446250D01*
X15268709Y-21446250D01*
X15268703Y-21446251D01*
X15268698Y-21446251D01*
X15268665Y-21446254D01*
X15242374Y-21449081D01*
X15235339Y-21449920D01*
X15235337Y-21449920D01*
X15128598Y-21484700D01*
X15128588Y-21484704D01*
X15067266Y-21518189D01*
X14997670Y-21570289D01*
X14997649Y-21570307D01*
X6320311Y-30247646D01*
X6320295Y-30247663D01*
X6298440Y-30271993D01*
X6281775Y-30292674D01*
X6277448Y-30298172D01*
X6277447Y-30298174D01*
X6226560Y-30398252D01*
X6206877Y-30465283D01*
X6206876Y-30465290D01*
X6200785Y-30507655D01*
X6194500Y-30551364D01*
X6194500Y-34698638D01*
X500500Y-34698638D01*
X500500Y-17008833D01*
X3645624Y-17008833D01*
X3655944Y-17172860D01*
X3706732Y-17329171D01*
X3706734Y-17329175D01*
X3794798Y-17467940D01*
X3914603Y-17580445D01*
X3914611Y-17580451D01*
X3994860Y-17624568D01*
X4058632Y-17659627D01*
X4217823Y-17700500D01*
X4217827Y-17700500D01*
X4340923Y-17700500D01*
X4340925Y-17700500D01*
X4340930Y-17700499D01*
X4340934Y-17700499D01*
X4354174Y-17698826D01*
X4463058Y-17685071D01*
X4615871Y-17624568D01*
X4615878Y-17624563D01*
X4748835Y-17527965D01*
X4748835Y-17527963D01*
X4748837Y-17527963D01*
X4853600Y-17401326D01*
X4923579Y-17252613D01*
X4954376Y-17091170D01*
X4949196Y-17008833D01*
X9745624Y-17008833D01*
X9755944Y-17172860D01*
X9806732Y-17329171D01*
X9806734Y-17329175D01*
X9894798Y-17467940D01*
X10014603Y-17580445D01*
X10014611Y-17580451D01*
X10094860Y-17624568D01*
X10158632Y-17659627D01*
X10317823Y-17700500D01*
X10317827Y-17700500D01*
X11040923Y-17700500D01*
X11040925Y-17700500D01*
X11040930Y-17700499D01*
X11040934Y-17700499D01*
X11054174Y-17698826D01*
X11163058Y-17685071D01*
X11315871Y-17624568D01*
X11315878Y-17624563D01*
X11448835Y-17527965D01*
X11448835Y-17527963D01*
X11448837Y-17527963D01*
X11553600Y-17401326D01*
X11623579Y-17252613D01*
X11654376Y-17091170D01*
X11644056Y-16927140D01*
X11593268Y-16770829D01*
X11505202Y-16632060D01*
X11483341Y-16611531D01*
X11385396Y-16519554D01*
X11385388Y-16519548D01*
X11349832Y-16500001D01*
X25394318Y-16500001D01*
X25414955Y-16656760D01*
X25414956Y-16656762D01*
X25432316Y-16698674D01*
X25475464Y-16802841D01*
X25571718Y-16928282D01*
X25697159Y-17024536D01*
X25843238Y-17085044D01*
X25889770Y-17091170D01*
X25999999Y-17105682D01*
X26000000Y-17105682D01*
X26000001Y-17105682D01*
X26052254Y-17098802D01*
X26156762Y-17085044D01*
X26302841Y-17024536D01*
X26428282Y-16928282D01*
X26524536Y-16802841D01*
X26585044Y-16656762D01*
X26595424Y-16577915D01*
X26623688Y-16514021D01*
X26630669Y-16506433D01*
X29650285Y-13486819D01*
X29711608Y-13453334D01*
X29737966Y-13450500D01*
X39058581Y-13450500D01*
X39125620Y-13470185D01*
X39134067Y-13476124D01*
X39197157Y-13524535D01*
X39197158Y-13524535D01*
X39197159Y-13524536D01*
X39343238Y-13585044D01*
X39421619Y-13595363D01*
X39499999Y-13605682D01*
X39500000Y-13605682D01*
X39500001Y-13605682D01*
X39552254Y-13598802D01*
X39656762Y-13585044D01*
X39802841Y-13524536D01*
X39928282Y-13428282D01*
X40024536Y-13302841D01*
X40085044Y-13156762D01*
X40105682Y-13000000D01*
X40085044Y-12843238D01*
X40024536Y-12697159D01*
X39928282Y-12571718D01*
X39802841Y-12475464D01*
X39656762Y-12414956D01*
X39656760Y-12414955D01*
X39500001Y-12394318D01*
X39499999Y-12394318D01*
X39343239Y-12414955D01*
X39343237Y-12414956D01*
X39197157Y-12475464D01*
X39134067Y-12523876D01*
X39068898Y-12549070D01*
X39058581Y-12549500D01*
X29532262Y-12549500D01*
X29518379Y-12548720D01*
X29513370Y-12548155D01*
X29482963Y-12544729D01*
X29426810Y-12555354D01*
X29422241Y-12556131D01*
X29365715Y-12564651D01*
X29357532Y-12567175D01*
X29349529Y-12569976D01*
X29298985Y-12596689D01*
X29294848Y-12598777D01*
X29243358Y-12623573D01*
X29236338Y-12628359D01*
X29229460Y-12633435D01*
X29189058Y-12673837D01*
X29185722Y-12677051D01*
X29143804Y-12715946D01*
X29138013Y-12723208D01*
X29137362Y-12722688D01*
X29127967Y-12734928D01*
X25993578Y-15869317D01*
X25932255Y-15902802D01*
X25922084Y-15904575D01*
X25843238Y-15914956D01*
X25697160Y-15975463D01*
X25571718Y-16071718D01*
X25475463Y-16197160D01*
X25414956Y-16343237D01*
X25414955Y-16343239D01*
X25394318Y-16499998D01*
X25394318Y-16500001D01*
X11349832Y-16500001D01*
X11241371Y-16440374D01*
X11241361Y-16440371D01*
X11082180Y-16399500D01*
X11082177Y-16399500D01*
X10359075Y-16399500D01*
X10359065Y-16399500D01*
X10236942Y-16414929D01*
X10236939Y-16414929D01*
X10084130Y-16475431D01*
X10084121Y-16475436D01*
X9951164Y-16572034D01*
X9951162Y-16572037D01*
X9846400Y-16698673D01*
X9776420Y-16847387D01*
X9760989Y-16928282D01*
X9745624Y-17008830D01*
X9745624Y-17008832D01*
X9745624Y-17008833D01*
X4949196Y-17008833D01*
X4944056Y-16927140D01*
X4893268Y-16770829D01*
X4805202Y-16632060D01*
X4783341Y-16611531D01*
X4685396Y-16519554D01*
X4685388Y-16519548D01*
X4541371Y-16440374D01*
X4541361Y-16440371D01*
X4382180Y-16399500D01*
X4382177Y-16399500D01*
X4259075Y-16399500D01*
X4259065Y-16399500D01*
X4136942Y-16414929D01*
X4136939Y-16414929D01*
X3984130Y-16475431D01*
X3984121Y-16475436D01*
X3851164Y-16572034D01*
X3851162Y-16572037D01*
X3746400Y-16698673D01*
X3676420Y-16847387D01*
X3660989Y-16928282D01*
X3645624Y-17008830D01*
X3645624Y-17008832D01*
X3645624Y-17008833D01*
X500500Y-17008833D01*
X500500Y-15758833D01*
X16295624Y-15758833D01*
X16305944Y-15922860D01*
X16356732Y-16079171D01*
X16356734Y-16079175D01*
X16444798Y-16217940D01*
X16564603Y-16330445D01*
X16564611Y-16330451D01*
X16644860Y-16374568D01*
X16708632Y-16409627D01*
X16867823Y-16450500D01*
X16867827Y-16450500D01*
X16990923Y-16450500D01*
X16990925Y-16450500D01*
X16990930Y-16450499D01*
X16990934Y-16450499D01*
X17004174Y-16448826D01*
X17113058Y-16435071D01*
X17265871Y-16374568D01*
X17265878Y-16374563D01*
X17398835Y-16277965D01*
X17398835Y-16277963D01*
X17398837Y-16277963D01*
X17503600Y-16151326D01*
X17573579Y-16002613D01*
X17604376Y-15841170D01*
X17594056Y-15677140D01*
X17543268Y-15520829D01*
X17455202Y-15382060D01*
X17412350Y-15341819D01*
X17335396Y-15269554D01*
X17335388Y-15269548D01*
X17191371Y-15190374D01*
X17191361Y-15190371D01*
X17032180Y-15149500D01*
X17032177Y-15149500D01*
X16909075Y-15149500D01*
X16909065Y-15149500D01*
X16786942Y-15164929D01*
X16786939Y-15164929D01*
X16634130Y-15225431D01*
X16634121Y-15225436D01*
X16501164Y-15322034D01*
X16501162Y-15322037D01*
X16396400Y-15448673D01*
X16326420Y-15597387D01*
X16311207Y-15677139D01*
X16295624Y-15758830D01*
X16295624Y-15758832D01*
X16295624Y-15758833D01*
X500500Y-15758833D01*
X500500Y-9679500D01*
X520185Y-9612461D01*
X572989Y-9566706D01*
X624500Y-9555500D01*
X9948639Y-9555500D01*
X9950559Y-9555397D01*
X9981297Y-9553749D01*
X10007655Y-9550915D01*
X10014660Y-9550080D01*
X10121407Y-9515297D01*
X10182730Y-9481812D01*
X10252340Y-9429702D01*
X11173209Y-8508833D01*
X21145624Y-8508833D01*
X21155944Y-8672860D01*
X21206732Y-8829171D01*
X21206734Y-8829175D01*
X21294798Y-8967940D01*
X21414603Y-9080445D01*
X21414611Y-9080451D01*
X21494860Y-9124568D01*
X21558632Y-9159627D01*
X21717823Y-9200500D01*
X21717827Y-9200500D01*
X21840923Y-9200500D01*
X21840925Y-9200500D01*
X21840930Y-9200499D01*
X21840934Y-9200499D01*
X21854174Y-9198826D01*
X21963058Y-9185071D01*
X22115871Y-9124568D01*
X22115878Y-9124563D01*
X22248835Y-9027965D01*
X22248835Y-9027963D01*
X22248837Y-9027963D01*
X22353600Y-8901326D01*
X22423579Y-8752613D01*
X22454376Y-8591170D01*
X22449196Y-8508833D01*
X27245624Y-8508833D01*
X27255944Y-8672860D01*
X27306732Y-8829171D01*
X27306734Y-8829175D01*
X27394798Y-8967940D01*
X27514603Y-9080445D01*
X27514611Y-9080451D01*
X27594860Y-9124568D01*
X27658632Y-9159627D01*
X27817823Y-9200500D01*
X27817827Y-9200500D01*
X28540923Y-9200500D01*
X28540925Y-9200500D01*
X28540930Y-9200499D01*
X28540934Y-9200499D01*
X28554174Y-9198826D01*
X28663058Y-9185071D01*
X28815871Y-9124568D01*
X28815878Y-9124563D01*
X28948835Y-9027965D01*
X28948835Y-9027963D01*
X28948837Y-9027963D01*
X29053600Y-8901326D01*
X29123579Y-8752613D01*
X29154376Y-8591170D01*
X29149196Y-8508833D01*
X35145624Y-8508833D01*
X35155944Y-8672860D01*
X35206732Y-8829171D01*
X35206734Y-8829175D01*
X35294798Y-8967940D01*
X35414603Y-9080445D01*
X35414611Y-9080451D01*
X35494860Y-9124568D01*
X35558632Y-9159627D01*
X35717823Y-9200500D01*
X35717827Y-9200500D01*
X35840923Y-9200500D01*
X35840925Y-9200500D01*
X35840930Y-9200499D01*
X35840934Y-9200499D01*
X35854174Y-9198826D01*
X35963058Y-9185071D01*
X36115871Y-9124568D01*
X36115878Y-9124563D01*
X36248835Y-9027965D01*
X36248835Y-9027963D01*
X36248837Y-9027963D01*
X36353600Y-8901326D01*
X36423579Y-8752613D01*
X36454376Y-8591170D01*
X36449196Y-8508833D01*
X43245624Y-8508833D01*
X43255944Y-8672860D01*
X43306732Y-8829171D01*
X43306734Y-8829175D01*
X43394798Y-8967940D01*
X43514603Y-9080445D01*
X43514611Y-9080451D01*
X43594860Y-9124568D01*
X43658632Y-9159627D01*
X43817823Y-9200500D01*
X43817827Y-9200500D01*
X44540923Y-9200500D01*
X44540925Y-9200500D01*
X44540930Y-9200499D01*
X44540934Y-9200499D01*
X44554174Y-9198826D01*
X44663058Y-9185071D01*
X44815871Y-9124568D01*
X44815878Y-9124563D01*
X44948835Y-9027965D01*
X44948835Y-9027963D01*
X44948837Y-9027963D01*
X45053600Y-8901326D01*
X45123579Y-8752613D01*
X45154376Y-8591170D01*
X45149196Y-8508833D01*
X51145624Y-8508833D01*
X51155944Y-8672860D01*
X51206732Y-8829171D01*
X51206734Y-8829175D01*
X51294798Y-8967940D01*
X51414603Y-9080445D01*
X51414611Y-9080451D01*
X51494860Y-9124568D01*
X51558632Y-9159627D01*
X51717823Y-9200500D01*
X51717827Y-9200500D01*
X51840923Y-9200500D01*
X51840925Y-9200500D01*
X51840930Y-9200499D01*
X51840934Y-9200499D01*
X51854174Y-9198826D01*
X51963058Y-9185071D01*
X52115871Y-9124568D01*
X52115878Y-9124563D01*
X52248835Y-9027965D01*
X52248835Y-9027963D01*
X52248837Y-9027963D01*
X52353600Y-8901326D01*
X52423579Y-8752613D01*
X52454376Y-8591170D01*
X52449196Y-8508833D01*
X57245624Y-8508833D01*
X57255944Y-8672860D01*
X57306732Y-8829171D01*
X57306734Y-8829175D01*
X57394798Y-8967940D01*
X57514603Y-9080445D01*
X57514611Y-9080451D01*
X57594860Y-9124568D01*
X57658632Y-9159627D01*
X57817823Y-9200500D01*
X57817827Y-9200500D01*
X58540923Y-9200500D01*
X58540925Y-9200500D01*
X58540930Y-9200499D01*
X58540934Y-9200499D01*
X58554174Y-9198826D01*
X58663058Y-9185071D01*
X58815871Y-9124568D01*
X58815878Y-9124563D01*
X58948835Y-9027965D01*
X58948835Y-9027963D01*
X58948837Y-9027963D01*
X59053600Y-8901326D01*
X59123579Y-8752613D01*
X59154376Y-8591170D01*
X59149196Y-8508833D01*
X61145624Y-8508833D01*
X61155944Y-8672860D01*
X61206732Y-8829171D01*
X61206734Y-8829175D01*
X61294798Y-8967940D01*
X61414603Y-9080445D01*
X61414611Y-9080451D01*
X61494860Y-9124568D01*
X61558632Y-9159627D01*
X61717823Y-9200500D01*
X61717827Y-9200500D01*
X61840923Y-9200500D01*
X61840925Y-9200500D01*
X61840930Y-9200499D01*
X61840934Y-9200499D01*
X61854174Y-9198826D01*
X61963058Y-9185071D01*
X62115871Y-9124568D01*
X62115878Y-9124563D01*
X62248835Y-9027965D01*
X62248835Y-9027963D01*
X62248837Y-9027963D01*
X62353600Y-8901326D01*
X62423579Y-8752613D01*
X62454376Y-8591170D01*
X62449196Y-8508833D01*
X67245624Y-8508833D01*
X67255944Y-8672860D01*
X67306732Y-8829171D01*
X67306734Y-8829175D01*
X67394798Y-8967940D01*
X67514603Y-9080445D01*
X67514611Y-9080451D01*
X67594860Y-9124568D01*
X67658632Y-9159627D01*
X67817823Y-9200500D01*
X67817827Y-9200500D01*
X68540923Y-9200500D01*
X68540925Y-9200500D01*
X68540930Y-9200499D01*
X68540934Y-9200499D01*
X68554174Y-9198826D01*
X68663058Y-9185071D01*
X68815871Y-9124568D01*
X68815878Y-9124563D01*
X68948835Y-9027965D01*
X68948835Y-9027963D01*
X68948837Y-9027963D01*
X69053600Y-8901326D01*
X69123579Y-8752613D01*
X69154376Y-8591170D01*
X69149196Y-8508833D01*
X71145624Y-8508833D01*
X71155944Y-8672860D01*
X71206732Y-8829171D01*
X71206734Y-8829175D01*
X71294798Y-8967940D01*
X71414603Y-9080445D01*
X71414611Y-9080451D01*
X71494860Y-9124568D01*
X71558632Y-9159627D01*
X71717823Y-9200500D01*
X71717827Y-9200500D01*
X71840923Y-9200500D01*
X71840925Y-9200500D01*
X71840930Y-9200499D01*
X71840934Y-9200499D01*
X71854174Y-9198826D01*
X71963058Y-9185071D01*
X72115871Y-9124568D01*
X72115878Y-9124563D01*
X72248835Y-9027965D01*
X72248835Y-9027963D01*
X72248837Y-9027963D01*
X72353600Y-8901326D01*
X72423579Y-8752613D01*
X72454376Y-8591170D01*
X72449196Y-8508833D01*
X77245624Y-8508833D01*
X77255944Y-8672860D01*
X77306732Y-8829171D01*
X77306734Y-8829175D01*
X77394798Y-8967940D01*
X77514603Y-9080445D01*
X77514611Y-9080451D01*
X77594860Y-9124568D01*
X77658632Y-9159627D01*
X77817823Y-9200500D01*
X77817827Y-9200500D01*
X78540923Y-9200500D01*
X78540925Y-9200500D01*
X78540930Y-9200499D01*
X78540934Y-9200499D01*
X78554174Y-9198826D01*
X78663058Y-9185071D01*
X78815871Y-9124568D01*
X78815878Y-9124563D01*
X78948835Y-9027965D01*
X78948835Y-9027963D01*
X78948837Y-9027963D01*
X79053600Y-8901326D01*
X79123579Y-8752613D01*
X79154376Y-8591170D01*
X79144056Y-8427140D01*
X79093268Y-8270829D01*
X79005202Y-8132060D01*
X78902567Y-8035679D01*
X78885396Y-8019554D01*
X78885388Y-8019548D01*
X78741371Y-7940374D01*
X78741361Y-7940371D01*
X78582180Y-7899500D01*
X78582177Y-7899500D01*
X77859075Y-7899500D01*
X77859065Y-7899500D01*
X77736942Y-7914929D01*
X77736939Y-7914929D01*
X77584130Y-7975431D01*
X77584121Y-7975436D01*
X77451164Y-8072034D01*
X77451162Y-8072037D01*
X77346400Y-8198673D01*
X77276420Y-8347387D01*
X77261207Y-8427139D01*
X77245624Y-8508830D01*
X77245624Y-8508832D01*
X77245624Y-8508833D01*
X72449196Y-8508833D01*
X72444056Y-8427140D01*
X72393268Y-8270829D01*
X72305202Y-8132060D01*
X72202567Y-8035679D01*
X72185396Y-8019554D01*
X72185388Y-8019548D01*
X72041371Y-7940374D01*
X72041361Y-7940371D01*
X71882180Y-7899500D01*
X71882177Y-7899500D01*
X71759075Y-7899500D01*
X71759065Y-7899500D01*
X71636942Y-7914929D01*
X71636939Y-7914929D01*
X71484130Y-7975431D01*
X71484121Y-7975436D01*
X71351164Y-8072034D01*
X71351162Y-8072037D01*
X71246400Y-8198673D01*
X71176420Y-8347387D01*
X71161207Y-8427139D01*
X71145624Y-8508830D01*
X71145624Y-8508832D01*
X71145624Y-8508833D01*
X69149196Y-8508833D01*
X69144056Y-8427140D01*
X69093268Y-8270829D01*
X69005202Y-8132060D01*
X68902567Y-8035679D01*
X68885396Y-8019554D01*
X68885388Y-8019548D01*
X68741371Y-7940374D01*
X68741361Y-7940371D01*
X68582180Y-7899500D01*
X68582177Y-7899500D01*
X67859075Y-7899500D01*
X67859065Y-7899500D01*
X67736942Y-7914929D01*
X67736939Y-7914929D01*
X67584130Y-7975431D01*
X67584121Y-7975436D01*
X67451164Y-8072034D01*
X67451162Y-8072037D01*
X67346400Y-8198673D01*
X67276420Y-8347387D01*
X67261207Y-8427139D01*
X67245624Y-8508830D01*
X67245624Y-8508832D01*
X67245624Y-8508833D01*
X62449196Y-8508833D01*
X62444056Y-8427140D01*
X62393268Y-8270829D01*
X62305202Y-8132060D01*
X62202567Y-8035679D01*
X62185396Y-8019554D01*
X62185388Y-8019548D01*
X62041371Y-7940374D01*
X62041361Y-7940371D01*
X61882180Y-7899500D01*
X61882177Y-7899500D01*
X61759075Y-7899500D01*
X61759065Y-7899500D01*
X61636942Y-7914929D01*
X61636939Y-7914929D01*
X61484130Y-7975431D01*
X61484121Y-7975436D01*
X61351164Y-8072034D01*
X61351162Y-8072037D01*
X61246400Y-8198673D01*
X61176420Y-8347387D01*
X61161207Y-8427139D01*
X61145624Y-8508830D01*
X61145624Y-8508832D01*
X61145624Y-8508833D01*
X59149196Y-8508833D01*
X59144056Y-8427140D01*
X59093268Y-8270829D01*
X59005202Y-8132060D01*
X58902567Y-8035679D01*
X58885396Y-8019554D01*
X58885388Y-8019548D01*
X58741371Y-7940374D01*
X58741361Y-7940371D01*
X58582180Y-7899500D01*
X58582177Y-7899500D01*
X57859075Y-7899500D01*
X57859065Y-7899500D01*
X57736942Y-7914929D01*
X57736939Y-7914929D01*
X57584130Y-7975431D01*
X57584121Y-7975436D01*
X57451164Y-8072034D01*
X57451162Y-8072037D01*
X57346400Y-8198673D01*
X57276420Y-8347387D01*
X57261207Y-8427139D01*
X57245624Y-8508830D01*
X57245624Y-8508832D01*
X57245624Y-8508833D01*
X52449196Y-8508833D01*
X52444056Y-8427140D01*
X52393268Y-8270829D01*
X52305202Y-8132060D01*
X52202567Y-8035679D01*
X52185396Y-8019554D01*
X52185388Y-8019548D01*
X52041371Y-7940374D01*
X52041361Y-7940371D01*
X51882180Y-7899500D01*
X51882177Y-7899500D01*
X51759075Y-7899500D01*
X51759065Y-7899500D01*
X51636942Y-7914929D01*
X51636939Y-7914929D01*
X51484130Y-7975431D01*
X51484121Y-7975436D01*
X51351164Y-8072034D01*
X51351162Y-8072037D01*
X51246400Y-8198673D01*
X51176420Y-8347387D01*
X51161207Y-8427139D01*
X51145624Y-8508830D01*
X51145624Y-8508832D01*
X51145624Y-8508833D01*
X45149196Y-8508833D01*
X45144056Y-8427140D01*
X45093268Y-8270829D01*
X45005202Y-8132060D01*
X44902567Y-8035679D01*
X44885396Y-8019554D01*
X44885388Y-8019548D01*
X44741371Y-7940374D01*
X44741361Y-7940371D01*
X44582180Y-7899500D01*
X44582177Y-7899500D01*
X43859075Y-7899500D01*
X43859065Y-7899500D01*
X43736942Y-7914929D01*
X43736939Y-7914929D01*
X43584130Y-7975431D01*
X43584121Y-7975436D01*
X43451164Y-8072034D01*
X43451162Y-8072037D01*
X43346400Y-8198673D01*
X43276420Y-8347387D01*
X43261207Y-8427139D01*
X43245624Y-8508830D01*
X43245624Y-8508832D01*
X43245624Y-8508833D01*
X36449196Y-8508833D01*
X36444056Y-8427140D01*
X36393268Y-8270829D01*
X36305202Y-8132060D01*
X36202567Y-8035679D01*
X36185396Y-8019554D01*
X36185388Y-8019548D01*
X36041371Y-7940374D01*
X36041361Y-7940371D01*
X35882180Y-7899500D01*
X35882177Y-7899500D01*
X35759075Y-7899500D01*
X35759065Y-7899500D01*
X35636942Y-7914929D01*
X35636939Y-7914929D01*
X35484130Y-7975431D01*
X35484121Y-7975436D01*
X35351164Y-8072034D01*
X35351162Y-8072037D01*
X35246400Y-8198673D01*
X35176420Y-8347387D01*
X35161207Y-8427139D01*
X35145624Y-8508830D01*
X35145624Y-8508832D01*
X35145624Y-8508833D01*
X29149196Y-8508833D01*
X29144056Y-8427140D01*
X29093268Y-8270829D01*
X29005202Y-8132060D01*
X28902567Y-8035679D01*
X28885396Y-8019554D01*
X28885388Y-8019548D01*
X28741371Y-7940374D01*
X28741361Y-7940371D01*
X28582180Y-7899500D01*
X28582177Y-7899500D01*
X27859075Y-7899500D01*
X27859065Y-7899500D01*
X27736942Y-7914929D01*
X27736939Y-7914929D01*
X27584130Y-7975431D01*
X27584121Y-7975436D01*
X27451164Y-8072034D01*
X27451162Y-8072037D01*
X27346400Y-8198673D01*
X27276420Y-8347387D01*
X27261207Y-8427139D01*
X27245624Y-8508830D01*
X27245624Y-8508832D01*
X27245624Y-8508833D01*
X22449196Y-8508833D01*
X22444056Y-8427140D01*
X22393268Y-8270829D01*
X22305202Y-8132060D01*
X22202567Y-8035679D01*
X22185396Y-8019554D01*
X22185388Y-8019548D01*
X22041371Y-7940374D01*
X22041361Y-7940371D01*
X21882180Y-7899500D01*
X21882177Y-7899500D01*
X21759075Y-7899500D01*
X21759065Y-7899500D01*
X21636942Y-7914929D01*
X21636939Y-7914929D01*
X21484130Y-7975431D01*
X21484121Y-7975436D01*
X21351164Y-8072034D01*
X21351162Y-8072037D01*
X21246400Y-8198673D01*
X21176420Y-8347387D01*
X21161207Y-8427139D01*
X21145624Y-8508830D01*
X21145624Y-8508832D01*
X21145624Y-8508833D01*
X11173209Y-8508833D01*
X11929702Y-7752340D01*
X11951558Y-7728008D01*
X11968192Y-7707366D01*
X11972553Y-7701825D01*
X12023439Y-7601749D01*
X12043124Y-7534710D01*
X12055500Y-7448638D01*
X12055500Y-5000000D01*
X81494696Y-5000000D01*
X81513898Y-5366405D01*
X81571294Y-5728788D01*
X81571294Y-5728790D01*
X81666260Y-6083206D01*
X81797746Y-6425739D01*
X81964320Y-6752656D01*
X82164147Y-7060364D01*
X82164149Y-7060366D01*
X82395051Y-7345506D01*
X82654494Y-7604949D01*
X82654498Y-7604952D01*
X82939635Y-7835852D01*
X83222513Y-8019554D01*
X83247348Y-8035682D01*
X83574264Y-8202255D01*
X83916801Y-8333742D01*
X84271206Y-8428705D01*
X84633596Y-8486102D01*
X84979734Y-8504241D01*
X84999999Y-8505304D01*
X85000000Y-8505304D01*
X85000001Y-8505304D01*
X85019203Y-8504297D01*
X85366404Y-8486102D01*
X85728794Y-8428705D01*
X86083199Y-8333742D01*
X86425736Y-8202255D01*
X86752652Y-8035682D01*
X87060366Y-7835851D01*
X87345506Y-7604949D01*
X87604949Y-7345506D01*
X87835851Y-7060366D01*
X88035682Y-6752652D01*
X88202255Y-6425736D01*
X88333742Y-6083199D01*
X88428705Y-5728794D01*
X88486102Y-5366404D01*
X88505304Y-5000000D01*
X88486102Y-4633596D01*
X88428705Y-4271206D01*
X88333742Y-3916801D01*
X88202255Y-3574264D01*
X88035682Y-3247348D01*
X87942219Y-3103427D01*
X87835852Y-2939635D01*
X87604952Y-2654498D01*
X87604949Y-2654494D01*
X87345506Y-2395051D01*
X87060366Y-2164149D01*
X87060364Y-2164147D01*
X86752656Y-1964320D01*
X86425739Y-1797746D01*
X86083206Y-1666260D01*
X86083199Y-1666258D01*
X85728794Y-1571295D01*
X85728790Y-1571294D01*
X85728789Y-1571294D01*
X85366405Y-1513898D01*
X85000001Y-1494696D01*
X84999999Y-1494696D01*
X84633594Y-1513898D01*
X84271211Y-1571294D01*
X84271209Y-1571294D01*
X83916793Y-1666260D01*
X83574260Y-1797746D01*
X83247343Y-1964320D01*
X82939635Y-2164147D01*
X82654498Y-2395047D01*
X82654490Y-2395054D01*
X82395054Y-2654490D01*
X82395047Y-2654498D01*
X82164147Y-2939635D01*
X81964320Y-3247343D01*
X81797746Y-3574260D01*
X81666260Y-3916793D01*
X81571294Y-4271209D01*
X81571294Y-4271211D01*
X81513898Y-4633594D01*
X81494696Y-4999999D01*
X81494696Y-5000000D01*
X12055500Y-5000000D01*
X12055500Y-624500D01*
X12075185Y-557461D01*
X12127989Y-511706D01*
X12179500Y-500500D01*
X84881908Y-500500D01*
X84934108Y-500500D01*
X84997294Y-500500D01*
X85002702Y-500617D01*
G37*
%TD.AperFunction*%
%TD*%
%TA.AperFunction,Conductor*%
%TO.N,Net-(C12-Pad1)*%
G36*
X11693039Y-520185D02*
G01*
X11738794Y-572989D01*
X11750000Y-624500D01*
X11750000Y-7448638D01*
X11730315Y-7515677D01*
X11713681Y-7536319D01*
X10036319Y-9213681D01*
X9974996Y-9247166D01*
X9948638Y-9250000D01*
X624500Y-9250000D01*
X557461Y-9230315D01*
X511706Y-9177511D01*
X500500Y-9126000D01*
X500500Y-5002706D01*
X500618Y-4997297D01*
X503377Y-4934108D01*
X517386Y-4613226D01*
X518326Y-4602495D01*
X568152Y-4224025D01*
X570025Y-4213405D01*
X652649Y-3840709D01*
X655440Y-3830295D01*
X770230Y-3466227D01*
X773917Y-3456095D01*
X920003Y-3103412D01*
X924561Y-3093638D01*
X1100822Y-2755045D01*
X1106217Y-2745700D01*
X1311325Y-2423744D01*
X1317515Y-2414905D01*
X1549896Y-2112060D01*
X1556834Y-2103791D01*
X1814726Y-1822352D01*
X1822352Y-1814726D01*
X2103791Y-1556834D01*
X2112060Y-1549896D01*
X2414905Y-1317515D01*
X2423744Y-1311325D01*
X2745700Y-1106217D01*
X2755045Y-1100822D01*
X3093638Y-924561D01*
X3103412Y-920003D01*
X3456095Y-773917D01*
X3466227Y-770230D01*
X3830295Y-655440D01*
X3840709Y-652649D01*
X4213405Y-570025D01*
X4224025Y-568152D01*
X4602495Y-518326D01*
X4613226Y-517386D01*
X4997297Y-500617D01*
X5002706Y-500500D01*
X5065892Y-500500D01*
X5118092Y-500500D01*
X11626000Y-500500D01*
X11693039Y-520185D01*
G37*
%TD.AperFunction*%
%TD*%
%TA.AperFunction,Conductor*%
%TO.N,+12V*%
G36*
X28000000Y-24250000D02*
G01*
X27999999Y-24250000D01*
X27500000Y-24749999D01*
X27500000Y-24750000D01*
X27500000Y-29500000D01*
X31500000Y-33500000D01*
X36750000Y-33500000D01*
X44213681Y-26036319D01*
X44275004Y-26002834D01*
X44301362Y-26000000D01*
X45198638Y-26000000D01*
X45265677Y-26019685D01*
X45286319Y-26036319D01*
X45713681Y-26463681D01*
X45747166Y-26525004D01*
X45750000Y-26551362D01*
X45750000Y-26948638D01*
X45730315Y-27015677D01*
X45713681Y-27036319D01*
X36786319Y-35963681D01*
X36724996Y-35997166D01*
X36698638Y-36000000D01*
X30551362Y-36000000D01*
X30484323Y-35980315D01*
X30463681Y-35963681D01*
X25036319Y-30536319D01*
X25002834Y-30474996D01*
X25000000Y-30448638D01*
X25000000Y-24750000D01*
X24500000Y-24250000D01*
X25000000Y-23750000D01*
X27500000Y-23750000D01*
X28000000Y-24250000D01*
G37*
%TD.AperFunction*%
%TD*%
%TA.AperFunction,Conductor*%
%TO.N,+12V*%
G36*
X9750000Y-31750000D02*
G01*
X9750000Y-32000000D01*
X9750000Y-34250000D01*
X11250000Y-35750000D01*
X21948638Y-35750000D01*
X22015677Y-35769685D01*
X22036319Y-35786319D01*
X32000000Y-45750000D01*
X36000000Y-45750000D01*
X43463681Y-38286319D01*
X43525004Y-38252834D01*
X43551362Y-38250000D01*
X44698638Y-38250000D01*
X44765677Y-38269685D01*
X44786319Y-38286319D01*
X45213681Y-38713681D01*
X45247166Y-38775004D01*
X45250000Y-38801362D01*
X45250000Y-39199687D01*
X45230315Y-39266726D01*
X45214943Y-39286088D01*
X36786525Y-47962401D01*
X36725693Y-47996772D01*
X36697582Y-48000000D01*
X30801362Y-48000000D01*
X30734323Y-47980315D01*
X30713681Y-47963681D01*
X21000000Y-38250000D01*
X10051362Y-38250000D01*
X9984323Y-38230315D01*
X9963681Y-38213681D01*
X6536319Y-34786319D01*
X6502834Y-34724996D01*
X6500000Y-34698638D01*
X6500000Y-31750000D01*
X7000000Y-31250000D01*
X9250000Y-31250000D01*
X9750000Y-31750000D01*
G37*
%TD.AperFunction*%
%TD*%
%TA.AperFunction,Conductor*%
%TO.N,+12V*%
G36*
X71765677Y-13019685D02*
G01*
X71786319Y-13036319D01*
X72213681Y-13463681D01*
X72247166Y-13525004D01*
X72250000Y-13551362D01*
X72250000Y-14448638D01*
X72230315Y-14515677D01*
X72213681Y-14536319D01*
X71786319Y-14963681D01*
X71724996Y-14997166D01*
X71698638Y-15000000D01*
X46999999Y-15000000D01*
X37786319Y-24213681D01*
X37724996Y-24247166D01*
X37698638Y-24250000D01*
X28000000Y-24250000D01*
X27500000Y-23750000D01*
X25000000Y-23750000D01*
X24500000Y-24250000D01*
X17500000Y-24250000D01*
X17499999Y-24250000D01*
X9750000Y-31999999D01*
X9750000Y-31750000D01*
X9250000Y-31250000D01*
X7000000Y-31250000D01*
X6500000Y-31750000D01*
X6500000Y-30551362D01*
X6519685Y-30484323D01*
X6536319Y-30463681D01*
X15213681Y-21786319D01*
X15275004Y-21752834D01*
X15301362Y-21750000D01*
X16175500Y-21750000D01*
X16242539Y-21769685D01*
X16288294Y-21822489D01*
X16299500Y-21874000D01*
X16299500Y-22540934D01*
X16314929Y-22663057D01*
X16314929Y-22663060D01*
X16375431Y-22815869D01*
X16375436Y-22815878D01*
X16472034Y-22948835D01*
X16472037Y-22948837D01*
X16598674Y-23053600D01*
X16747387Y-23123579D01*
X16908830Y-23154376D01*
X17072860Y-23144056D01*
X17229171Y-23093268D01*
X17367940Y-23005202D01*
X17480448Y-22885393D01*
X17559627Y-22741368D01*
X17600500Y-22582177D01*
X17600500Y-21874000D01*
X17620185Y-21806961D01*
X17672989Y-21761206D01*
X17724500Y-21750000D01*
X36250000Y-21750000D01*
X44963681Y-13036319D01*
X45025004Y-13002834D01*
X45051362Y-13000000D01*
X71698638Y-13000000D01*
X71765677Y-13019685D01*
G37*
%TD.AperFunction*%
%TD*%
M02*
