%TF.GenerationSoftware,KiCad,Pcbnew,9.0.6*%
%TF.CreationDate,2026-03-30T20:54:44+09:00*%
%TF.ProjectId,Latch-Circuit,4c617463-682d-4436-9972-637569742e6b,rev?*%
%TF.SameCoordinates,Original*%
%TF.FileFunction,Copper,L4,Bot*%
%TF.FilePolarity,Positive*%
%FSLAX46Y46*%
G04 Gerber Fmt 4.6, Leading zero omitted, Abs format (unit mm)*
G04 Created by KiCad (PCBNEW 9.0.6) date 2026-03-30 20:54:44*
%MOMM*%
%LPD*%
G01*
G04 APERTURE LIST*
G04 Aperture macros list*
%AMRoundRect*
0 Rectangle with rounded corners*
0 $1 Rounding radius*
0 $2 $3 $4 $5 $6 $7 $8 $9 X,Y pos of 4 corners*
0 Add a 4 corners polygon primitive as box body*
4,1,4,$2,$3,$4,$5,$6,$7,$8,$9,$2,$3,0*
0 Add four circle primitives for the rounded corners*
1,1,$1+$1,$2,$3*
1,1,$1+$1,$4,$5*
1,1,$1+$1,$6,$7*
1,1,$1+$1,$8,$9*
0 Add four rect primitives between the rounded corners*
20,1,$1+$1,$2,$3,$4,$5,0*
20,1,$1+$1,$4,$5,$6,$7,0*
20,1,$1+$1,$6,$7,$8,$9,0*
20,1,$1+$1,$8,$9,$2,$3,0*%
G04 Aperture macros list end*
%TA.AperFunction,ComponentPad*%
%ADD10C,0.900000*%
%TD*%
%TA.AperFunction,ComponentPad*%
%ADD11C,8.600000*%
%TD*%
%TA.AperFunction,ComponentPad*%
%ADD12RoundRect,0.050000X-1.187500X-1.187500X1.187500X-1.187500X1.187500X1.187500X-1.187500X1.187500X0*%
%TD*%
%TA.AperFunction,ComponentPad*%
%ADD13C,2.475000*%
%TD*%
%TA.AperFunction,ComponentPad*%
%ADD14C,3.615000*%
%TD*%
%TA.AperFunction,SMDPad,CuDef*%
%ADD15RoundRect,0.200000X-0.200000X-0.275000X0.200000X-0.275000X0.200000X0.275000X-0.200000X0.275000X0*%
%TD*%
%TA.AperFunction,SMDPad,CuDef*%
%ADD16RoundRect,0.200000X-0.275000X0.200000X-0.275000X-0.200000X0.275000X-0.200000X0.275000X0.200000X0*%
%TD*%
%TA.AperFunction,SMDPad,CuDef*%
%ADD17RoundRect,0.200000X0.275000X-0.200000X0.275000X0.200000X-0.275000X0.200000X-0.275000X-0.200000X0*%
%TD*%
%TA.AperFunction,SMDPad,CuDef*%
%ADD18RoundRect,0.200000X0.200000X0.275000X-0.200000X0.275000X-0.200000X-0.275000X0.200000X-0.275000X0*%
%TD*%
%TA.AperFunction,SMDPad,CuDef*%
%ADD19RoundRect,0.050000X-0.350000X-0.350000X0.350000X-0.350000X0.350000X0.350000X-0.350000X0.350000X0*%
%TD*%
%TA.AperFunction,ViaPad*%
%ADD20C,0.450000*%
%TD*%
%TA.AperFunction,Conductor*%
%ADD21C,0.300000*%
%TD*%
%TA.AperFunction,Conductor*%
%ADD22C,0.150000*%
%TD*%
G04 APERTURE END LIST*
D10*
%TO.P,H1,MP,MP*%
%TO.N,Chassis*%
X8775000Y-12000000D03*
X9719581Y-9719581D03*
X9719581Y-14280419D03*
X12000000Y-8775000D03*
D11*
X12000000Y-12000000D03*
D10*
X12000000Y-15225000D03*
X14280419Y-9719581D03*
X14280419Y-14280419D03*
X15225000Y-12000000D03*
%TD*%
%TO.P,H2,MP,MP*%
%TO.N,unconnected-(H2-PadMP)_2*%
X8775000Y-42000000D03*
%TO.N,unconnected-(H2-PadMP)_4*%
X9719581Y-39719581D03*
%TO.N,unconnected-(H2-PadMP)_8*%
X9719581Y-44280419D03*
%TO.N,unconnected-(H2-PadMP)_7*%
X12000000Y-38775000D03*
D11*
%TO.N,unconnected-(H2-PadMP)*%
X12000000Y-42000000D03*
D10*
%TO.N,unconnected-(H2-PadMP)_5*%
X12000000Y-45225000D03*
%TO.N,unconnected-(H2-PadMP)_3*%
X14280419Y-39719581D03*
%TO.N,unconnected-(H2-PadMP)_6*%
X14280419Y-44280419D03*
%TO.N,unconnected-(H2-PadMP)_1*%
X15225000Y-42000000D03*
%TD*%
D12*
%TO.P,J3,1,Pin_1*%
%TO.N,/SHDN_IN*%
X41000000Y-13450000D03*
D13*
%TO.P,J3,2,Pin_2*%
%TO.N,/SHDN_OUT*%
X44960000Y-13450000D03*
%TD*%
D14*
%TO.P,J2,MP1,MountPin*%
%TO.N,GND*%
X44650000Y-38500000D03*
%TO.P,J2,MP2,MountPin*%
X31350000Y-38500000D03*
%TD*%
D10*
%TO.P,H3,MP,MP*%
%TO.N,unconnected-(H3-PadMP)_3*%
X48775000Y-42000000D03*
%TO.N,unconnected-(H3-PadMP)_2*%
X49719581Y-39719581D03*
%TO.N,unconnected-(H3-PadMP)_8*%
X49719581Y-44280419D03*
%TO.N,unconnected-(H3-PadMP)_5*%
X52000000Y-38775000D03*
D11*
%TO.N,unconnected-(H3-PadMP)*%
X52000000Y-42000000D03*
D10*
%TO.N,unconnected-(H3-PadMP)_1*%
X52000000Y-45225000D03*
%TO.N,unconnected-(H3-PadMP)_4*%
X54280419Y-39719581D03*
%TO.N,unconnected-(H3-PadMP)_7*%
X54280419Y-44280419D03*
%TO.N,unconnected-(H3-PadMP)_6*%
X55225000Y-42000000D03*
%TD*%
D14*
%TO.P,J1,MP1,MountPin*%
%TO.N,GND*%
X26715000Y-42500000D03*
%TO.P,J1,MP2,MountPin*%
X19285000Y-42500000D03*
%TD*%
%TO.P,J4,MP1,MountPin*%
%TO.N,GND*%
X53150000Y-26000000D03*
%TO.P,J4,MP2,MountPin*%
X42850000Y-26000000D03*
%TD*%
D10*
%TO.P,H4,MP,MP*%
%TO.N,unconnected-(H4-PadMP)_2*%
X48775000Y-12000000D03*
%TO.N,unconnected-(H4-PadMP)_7*%
X49719581Y-9719581D03*
%TO.N,unconnected-(H4-PadMP)_4*%
X49719581Y-14280419D03*
%TO.N,unconnected-(H4-PadMP)_8*%
X52000000Y-8775000D03*
D11*
%TO.N,unconnected-(H4-PadMP)_3*%
X52000000Y-12000000D03*
D10*
%TO.N,unconnected-(H4-PadMP)_6*%
X52000000Y-15225000D03*
%TO.N,unconnected-(H4-PadMP)_5*%
X54280419Y-9719581D03*
%TO.N,unconnected-(H4-PadMP)_1*%
X54280419Y-14280419D03*
%TO.N,unconnected-(H4-PadMP)*%
X55225000Y-12000000D03*
%TD*%
D15*
%TO.P,R14,1*%
%TO.N,Net-(Q3-G)*%
X34675000Y-32000000D03*
%TO.P,R14,2*%
%TO.N,GND*%
X36325000Y-32000000D03*
%TD*%
D16*
%TO.P,R1,1*%
%TO.N,Net-(D1-A)*%
X26000000Y-32675000D03*
%TO.P,R1,2*%
%TO.N,GND*%
X26000000Y-34325000D03*
%TD*%
D17*
%TO.P,R5,1*%
%TO.N,/IMD_LED_A*%
X46500000Y-26825000D03*
%TO.P,R5,2*%
%TO.N,+12V*%
X46500000Y-25175000D03*
%TD*%
D18*
%TO.P,R7,1*%
%TO.N,/RST_SW2*%
X29325000Y-35000000D03*
%TO.P,R7,2*%
%TO.N,RST*%
X27675000Y-35000000D03*
%TD*%
D15*
%TO.P,R17,1*%
%TO.N,Net-(Q4-G)*%
X31175000Y-32000000D03*
%TO.P,R17,2*%
%TO.N,GND*%
X32825000Y-32000000D03*
%TD*%
D18*
%TO.P,R20,1*%
%TO.N,GND*%
X33825000Y-22000000D03*
%TO.P,R20,2*%
%TO.N,Net-(U5-I1)*%
X32175000Y-22000000D03*
%TD*%
%TO.P,R12,1*%
%TO.N,+12V*%
X36325000Y-29000000D03*
%TO.P,R12,2*%
%TO.N,~{IMD_STATUS}*%
X34675000Y-29000000D03*
%TD*%
%TO.P,R31,1*%
%TO.N,+12V*%
X14825000Y-25500000D03*
%TO.P,R31,2*%
%TO.N,Net-(D4-A)*%
X13175000Y-25500000D03*
%TD*%
%TO.P,R33,1*%
%TO.N,+12V*%
X14825000Y-31500000D03*
%TO.P,R33,2*%
%TO.N,Net-(D6-A)*%
X13175000Y-31500000D03*
%TD*%
%TO.P,R2,1*%
%TO.N,+12V*%
X14825000Y-34500000D03*
%TO.P,R2,2*%
%TO.N,Net-(D2-A)*%
X13175000Y-34500000D03*
%TD*%
%TO.P,R6,1*%
%TO.N,+12V*%
X35825000Y-41000000D03*
%TO.P,R6,2*%
%TO.N,/RST_SW1*%
X34175000Y-41000000D03*
%TD*%
%TO.P,R9,1*%
%TO.N,+12V*%
X39825000Y-29000000D03*
%TO.P,R9,2*%
%TO.N,~{BMS_STATUS}*%
X38175000Y-29000000D03*
%TD*%
D15*
%TO.P,R30,1*%
%TO.N,Net-(D9-A)*%
X17175000Y-31500000D03*
%TO.P,R30,2*%
%TO.N,+12V*%
X18825000Y-31500000D03*
%TD*%
D18*
%TO.P,R26,1*%
%TO.N,GND*%
X33825000Y-25000000D03*
%TO.P,R26,2*%
%TO.N,Net-(U5-I5)*%
X32175000Y-25000000D03*
%TD*%
D15*
%TO.P,R16,1*%
%TO.N,Net-(Q4-G)*%
X31175000Y-35000000D03*
%TO.P,R16,2*%
%TO.N,BSPD_STATUS*%
X32825000Y-35000000D03*
%TD*%
%TO.P,R13,1*%
%TO.N,Net-(Q3-G)*%
X34675000Y-35000000D03*
%TO.P,R13,2*%
%TO.N,IMD_STATUS*%
X36325000Y-35000000D03*
%TD*%
D19*
%TO.P,C6,1*%
%TO.N,Net-(Q4-G)*%
X31200000Y-33500000D03*
%TO.P,C6,2*%
%TO.N,GND*%
X32800000Y-33500000D03*
%TD*%
D15*
%TO.P,R15,1*%
%TO.N,~{BSPD_STATUS}*%
X31175000Y-29000000D03*
%TO.P,R15,2*%
%TO.N,+12V*%
X32825000Y-29000000D03*
%TD*%
%TO.P,R8,1*%
%TO.N,RST*%
X27675000Y-32000000D03*
%TO.P,R8,2*%
%TO.N,GND*%
X29325000Y-32000000D03*
%TD*%
D18*
%TO.P,R19,1*%
%TO.N,Net-(U5-I1)*%
X29825000Y-22000000D03*
%TO.P,R19,2*%
%TO.N,BMS_FAULT*%
X28175000Y-22000000D03*
%TD*%
D15*
%TO.P,R29,1*%
%TO.N,Net-(D8-A)*%
X17175000Y-28500000D03*
%TO.P,R29,2*%
%TO.N,+12V*%
X18825000Y-28500000D03*
%TD*%
D18*
%TO.P,R23,1*%
%TO.N,GND*%
X33825000Y-23500000D03*
%TO.P,R23,2*%
%TO.N,Net-(U5-I3)*%
X32175000Y-23500000D03*
%TD*%
D19*
%TO.P,C5,1*%
%TO.N,Net-(Q3-G)*%
X34700000Y-33500000D03*
%TO.P,C5,2*%
%TO.N,GND*%
X36300000Y-33500000D03*
%TD*%
D17*
%TO.P,R3,1*%
%TO.N,/BMS_LED_A*%
X49500000Y-26825000D03*
%TO.P,R3,2*%
%TO.N,+12V*%
X49500000Y-25175000D03*
%TD*%
D18*
%TO.P,R25,1*%
%TO.N,Net-(U5-I5)*%
X29825000Y-25000000D03*
%TO.P,R25,2*%
%TO.N,BSPD_FAULT*%
X28175000Y-25000000D03*
%TD*%
D15*
%TO.P,R10,1*%
%TO.N,Net-(Q2-G)*%
X38175000Y-35000000D03*
%TO.P,R10,2*%
%TO.N,BMS_STATUS*%
X39825000Y-35000000D03*
%TD*%
D19*
%TO.P,C2,1*%
%TO.N,RST*%
X27700000Y-33500000D03*
%TO.P,C2,2*%
%TO.N,GND*%
X29300000Y-33500000D03*
%TD*%
D15*
%TO.P,R28,1*%
%TO.N,Net-(D7-A)*%
X17175000Y-25500000D03*
%TO.P,R28,2*%
%TO.N,+12V*%
X18825000Y-25500000D03*
%TD*%
%TO.P,R11,1*%
%TO.N,Net-(Q2-G)*%
X38175000Y-32000000D03*
%TO.P,R11,2*%
%TO.N,GND*%
X39825000Y-32000000D03*
%TD*%
D19*
%TO.P,C4,1*%
%TO.N,Net-(Q2-G)*%
X38200000Y-33500000D03*
%TO.P,C4,2*%
%TO.N,GND*%
X39800000Y-33500000D03*
%TD*%
D18*
%TO.P,R32,1*%
%TO.N,+12V*%
X14825000Y-28500000D03*
%TO.P,R32,2*%
%TO.N,Net-(D5-A)*%
X13175000Y-28500000D03*
%TD*%
D17*
%TO.P,R4,1*%
%TO.N,/BSPD_LED_A*%
X48000000Y-26825000D03*
%TO.P,R4,2*%
%TO.N,+12V*%
X48000000Y-25175000D03*
%TD*%
D18*
%TO.P,R22,1*%
%TO.N,Net-(U5-I3)*%
X29825000Y-23500000D03*
%TO.P,R22,2*%
%TO.N,IMD_FAULT*%
X28175000Y-23500000D03*
%TD*%
D20*
%TO.N,+12V*%
X21250000Y-28750000D03*
X20500000Y-28000000D03*
X24000000Y-21000000D03*
X22000000Y-28750000D03*
X32750000Y-31000000D03*
X46500000Y-24250000D03*
X35000000Y-20250000D03*
X21000000Y-30250000D03*
X35750000Y-21250000D03*
X27250000Y-20250000D03*
X20500000Y-29500000D03*
X22000000Y-20250000D03*
X21250000Y-28000000D03*
X35750000Y-39750000D03*
X48000000Y-24250000D03*
X22000000Y-28000000D03*
X28000000Y-28750000D03*
X20500000Y-28750000D03*
X20500000Y-26000000D03*
X49500000Y-24250000D03*
%TO.N,GND*%
X7750000Y-22000000D03*
X29750000Y-11000000D03*
X38000000Y-43250000D03*
X36250000Y-15500000D03*
X46750000Y-17250000D03*
X26750000Y-37000000D03*
X17500000Y-16250000D03*
X56250000Y-37000000D03*
X45000000Y-18750000D03*
X32000000Y-35750000D03*
X27000000Y-15500000D03*
X36250000Y-26500000D03*
X49500000Y-30750000D03*
X38500000Y-15500000D03*
X30250000Y-31000000D03*
X27000000Y-7750000D03*
X32000000Y-32750000D03*
X48750000Y-27750000D03*
X17750000Y-38000000D03*
X36250000Y-16500000D03*
X56250000Y-32000000D03*
X17500000Y-14000000D03*
X44250000Y-28500000D03*
X22000000Y-7750000D03*
X51000000Y-32500000D03*
X7750000Y-39500000D03*
X17000000Y-46250000D03*
X32000000Y-46250000D03*
X31500000Y-15500000D03*
X56250000Y-14500000D03*
X49500000Y-46250000D03*
X40000000Y-27750000D03*
X10000000Y-19500000D03*
X11750000Y-25500000D03*
X49500000Y-7750000D03*
X34750000Y-25000000D03*
X17000000Y-42000000D03*
X43750000Y-30750000D03*
X7750000Y-24500000D03*
X17500000Y-34000000D03*
X19500000Y-7750000D03*
X36750000Y-38500000D03*
X25500000Y-23000000D03*
X47000000Y-7750000D03*
X46250000Y-20000000D03*
X23000000Y-22250000D03*
X42000000Y-46250000D03*
X23000000Y-40250000D03*
X24500000Y-7750000D03*
X43000000Y-14250000D03*
X19750000Y-34000000D03*
X16250000Y-44500000D03*
X7750000Y-29500000D03*
X19750000Y-17750000D03*
X28500000Y-32750000D03*
X28500000Y-35750000D03*
X56250000Y-17000000D03*
X39750000Y-36250000D03*
X25000000Y-25000000D03*
X56250000Y-24500000D03*
X29250000Y-17250000D03*
X44500000Y-46250000D03*
X14000000Y-24750000D03*
X47250000Y-27750000D03*
X36750000Y-40250000D03*
X17500000Y-19500000D03*
X33750000Y-17250000D03*
X42500000Y-17750000D03*
X27000000Y-46250000D03*
X56250000Y-22000000D03*
X32000000Y-7750000D03*
X22750000Y-11000000D03*
X47000000Y-13500000D03*
X32250000Y-43250000D03*
X24000000Y-31000000D03*
X19750000Y-21750000D03*
X44750000Y-17250000D03*
X14000000Y-32250000D03*
X25000000Y-33750000D03*
X35000000Y-40250000D03*
X14250000Y-19500000D03*
X20250000Y-40250000D03*
X20000000Y-10000000D03*
X42000000Y-7750000D03*
X24500000Y-46250000D03*
X50250000Y-26000000D03*
X39500000Y-46250000D03*
X14000000Y-30750000D03*
X11750000Y-34500000D03*
X41000000Y-35250000D03*
X45000000Y-32500000D03*
X32750000Y-41250000D03*
X19750000Y-23750000D03*
X20750000Y-20250000D03*
X27250000Y-31000000D03*
X40250000Y-19000000D03*
X17750000Y-40250000D03*
X28000000Y-11000000D03*
X39000000Y-30750000D03*
X56250000Y-29500000D03*
X24500000Y-15500000D03*
X17750000Y-23750000D03*
X10500000Y-22250000D03*
X34500000Y-46250000D03*
X50250000Y-19500000D03*
X26250000Y-11000000D03*
X17500000Y-7750000D03*
X26500000Y-17250000D03*
X34750000Y-36750000D03*
X43750000Y-34750000D03*
X41250000Y-15500000D03*
X48750000Y-17250000D03*
X21000000Y-11000000D03*
X38500000Y-17250000D03*
X35000000Y-41750000D03*
X50250000Y-28500000D03*
X12000000Y-19500000D03*
X13500000Y-22250000D03*
X56250000Y-39500000D03*
X31500000Y-17250000D03*
X41000000Y-43250000D03*
X29250000Y-15500000D03*
X47000000Y-11000000D03*
X35000000Y-11000000D03*
X56250000Y-34500000D03*
X23000000Y-37750000D03*
X38250000Y-26500000D03*
X23750000Y-35250000D03*
X16000000Y-23750000D03*
X24000000Y-24000000D03*
X24250000Y-18000000D03*
X49250000Y-21250000D03*
X37250000Y-30750000D03*
X50750000Y-18000000D03*
X25750000Y-31500000D03*
X19750000Y-19250000D03*
X35500000Y-30750000D03*
X34750000Y-38500000D03*
X47500000Y-18750000D03*
X22000000Y-35250000D03*
X45750000Y-28500000D03*
X41250000Y-36750000D03*
X51750000Y-28500000D03*
X42500000Y-32000000D03*
X11750000Y-31500000D03*
X19500000Y-46250000D03*
X52250000Y-21750000D03*
X15500000Y-38500000D03*
X29000000Y-24250000D03*
X45750000Y-26000000D03*
X40750000Y-30000000D03*
X22750000Y-18000000D03*
X22750000Y-25000000D03*
X56250000Y-27000000D03*
X29500000Y-46250000D03*
X7750000Y-27000000D03*
X41500000Y-24000000D03*
X19750000Y-15500000D03*
X14500000Y-46250000D03*
X56250000Y-19500000D03*
X22250000Y-15500000D03*
X50000000Y-23250000D03*
X44500000Y-7750000D03*
X14000000Y-26250000D03*
X15500000Y-33250000D03*
X30250000Y-33750000D03*
X36750000Y-11000000D03*
X37000000Y-7750000D03*
X7750000Y-34500000D03*
X44000000Y-43250000D03*
X34750000Y-22000000D03*
X33750000Y-15500000D03*
X33250000Y-11000000D03*
X20000000Y-35250000D03*
X40750000Y-33500000D03*
X46750000Y-21750000D03*
X45750000Y-9250000D03*
X9500000Y-37750000D03*
X14000000Y-29250000D03*
X12000000Y-37000000D03*
X48500000Y-15500000D03*
X26000000Y-35250000D03*
X26750000Y-39000000D03*
X39750000Y-25250000D03*
X47000000Y-46250000D03*
X51750000Y-19500000D03*
X37000000Y-46250000D03*
X39500000Y-7750000D03*
X36750000Y-36750000D03*
X16000000Y-17750000D03*
X14000000Y-27750000D03*
X34500000Y-7750000D03*
X46500000Y-30750000D03*
X52250000Y-30750000D03*
X48000000Y-32500000D03*
X45750000Y-15500000D03*
X14000000Y-33750000D03*
X18000000Y-36000000D03*
X11750000Y-28500000D03*
X53250000Y-16750000D03*
X7750000Y-19500000D03*
X7750000Y-32000000D03*
X14000000Y-35250000D03*
X44750000Y-24000000D03*
X7750000Y-37000000D03*
X29500000Y-7750000D03*
X22000000Y-46250000D03*
X20250000Y-38500000D03*
%TO.N,RST*%
X27000000Y-32000000D03*
%TO.N,Net-(Q2-G)*%
X38250000Y-31000000D03*
%TO.N,Net-(Q3-G)*%
X34750000Y-31000000D03*
%TO.N,Net-(Q4-G)*%
X31250000Y-31000000D03*
%TO.N,Chassis*%
X16750000Y-10250000D03*
X14750000Y-17750000D03*
X16750000Y-12750000D03*
X16750000Y-7750000D03*
X7750000Y-18750000D03*
X9500000Y-18750000D03*
X16750000Y-15750000D03*
X12000000Y-18750000D03*
%TO.N,Net-(D1-A)*%
X25250000Y-32500000D03*
%TO.N,Net-(D2-A)*%
X12500000Y-34500000D03*
%TO.N,BSPD_STATUS*%
X33750000Y-36000000D03*
%TO.N,IMD_STATUS*%
X37250000Y-36000000D03*
%TO.N,BMS_STATUS*%
X40750000Y-36000000D03*
%TO.N,/RST_SW2*%
X30000000Y-35000000D03*
%TO.N,/RST_SW1*%
X33500000Y-41000000D03*
%TO.N,Net-(D4-A)*%
X12500000Y-25500000D03*
%TO.N,Net-(D5-A)*%
X12500000Y-28500000D03*
%TO.N,Net-(D6-A)*%
X12500000Y-31500000D03*
%TO.N,/BSPD_LED_A*%
X48000000Y-29000000D03*
%TO.N,/IMD_LED_A*%
X45000000Y-29000000D03*
%TO.N,/BMS_LED_A*%
X51000000Y-29000000D03*
%TO.N,~{BMS_STATUS}*%
X38250000Y-28250000D03*
X16000000Y-26750000D03*
%TO.N,~{IMD_STATUS}*%
X15500000Y-29250000D03*
X34750000Y-28250000D03*
%TO.N,~{BSPD_STATUS}*%
X16500000Y-33250000D03*
X31250000Y-28250000D03*
%TO.N,BMS_LED_K*%
X37000000Y-22250000D03*
X19750000Y-24500000D03*
%TO.N,BMS_RLY_OFF*%
X37250000Y-18750000D03*
X20000000Y-18500000D03*
%TO.N,Net-(D7-A)*%
X16500000Y-25500000D03*
%TO.N,IMD_RLY_OFF*%
X39750000Y-22250000D03*
X27000000Y-18000000D03*
%TO.N,BSPD_RLY_OFF*%
X34750000Y-17250000D03*
X40500000Y-23000000D03*
%TO.N,Net-(D8-A)*%
X16500000Y-28500000D03*
%TO.N,BMS_FAULT*%
X25750000Y-23750000D03*
%TO.N,IMD_FAULT*%
X27250000Y-23750000D03*
%TO.N,BSPD_FAULT*%
X27250000Y-25000000D03*
%TO.N,IMD_LED_K*%
X37000000Y-23500000D03*
X19750000Y-27000000D03*
%TO.N,Net-(D9-A)*%
X16500000Y-31500000D03*
%TO.N,BSPD_LED_K*%
X37000000Y-24750000D03*
X19750000Y-30000000D03*
%TO.N,Net-(U5-I1)*%
X31000000Y-22000000D03*
%TO.N,Net-(U5-I3)*%
X31000000Y-23500000D03*
%TO.N,Net-(U5-I5)*%
X31000000Y-25000000D03*
%TD*%
D21*
%TO.N,+12V*%
X32825000Y-29000000D02*
X33825000Y-30000000D01*
X46500000Y-25175000D02*
X46500000Y-24250000D01*
X15825000Y-24500000D02*
X17825000Y-24500000D01*
X32825000Y-29000000D02*
X32750000Y-29075000D01*
X37325000Y-30000000D02*
X38825000Y-30000000D01*
X20500000Y-26000000D02*
X20000000Y-25500000D01*
X18825000Y-31500000D02*
X18825000Y-25500000D01*
X17825000Y-24500000D02*
X18825000Y-25500000D01*
X35825000Y-41000000D02*
X35750000Y-40925000D01*
X32750000Y-29075000D02*
X32750000Y-31000000D01*
X48000000Y-25175000D02*
X48000000Y-24250000D01*
X14825000Y-25500000D02*
X14825000Y-34500000D01*
X38825000Y-30000000D02*
X39825000Y-29000000D01*
X14825000Y-25500000D02*
X15825000Y-24500000D01*
X49500000Y-25175000D02*
X49500000Y-24250000D01*
X35750000Y-40925000D02*
X35750000Y-39750000D01*
X33825000Y-30000000D02*
X35325000Y-30000000D01*
X20000000Y-25500000D02*
X18825000Y-25500000D01*
X35325000Y-30000000D02*
X36325000Y-29000000D01*
X36325000Y-29000000D02*
X37325000Y-30000000D01*
D22*
%TO.N,RST*%
X27675000Y-33525000D02*
X27700000Y-33500000D01*
X27700000Y-33500000D02*
X27700000Y-32025000D01*
X27700000Y-32025000D02*
X27675000Y-32000000D01*
X27675000Y-32000000D02*
X27000000Y-32000000D01*
X27675000Y-35000000D02*
X27675000Y-33525000D01*
%TO.N,Net-(Q2-G)*%
X38200000Y-32025000D02*
X38175000Y-32000000D01*
X38175000Y-33525000D02*
X38200000Y-33500000D01*
X38200000Y-33500000D02*
X38200000Y-32025000D01*
X38175000Y-35000000D02*
X38175000Y-33525000D01*
X38250000Y-31925000D02*
X38175000Y-32000000D01*
X38250000Y-31000000D02*
X38250000Y-31925000D01*
%TO.N,Net-(Q3-G)*%
X34675000Y-33525000D02*
X34700000Y-33500000D01*
X34700000Y-33500000D02*
X34700000Y-32025000D01*
X34750000Y-31000000D02*
X34750000Y-31925000D01*
X34750000Y-31925000D02*
X34675000Y-32000000D01*
X34675000Y-35000000D02*
X34675000Y-33525000D01*
X34700000Y-32025000D02*
X34675000Y-32000000D01*
%TO.N,Net-(Q4-G)*%
X31200000Y-32025000D02*
X31175000Y-32000000D01*
X31175000Y-33525000D02*
X31200000Y-33500000D01*
X31250000Y-31000000D02*
X31250000Y-31925000D01*
X31200000Y-33500000D02*
X31200000Y-32025000D01*
X31250000Y-31925000D02*
X31175000Y-32000000D01*
X31175000Y-35000000D02*
X31175000Y-33525000D01*
D21*
%TO.N,Net-(D1-A)*%
X25250000Y-32500000D02*
X25825000Y-32500000D01*
X25825000Y-32500000D02*
X26000000Y-32675000D01*
%TO.N,Net-(D2-A)*%
X13175000Y-34500000D02*
X12500000Y-34500000D01*
D22*
%TO.N,BSPD_STATUS*%
X32825000Y-35000000D02*
X32825000Y-35075000D01*
X32825000Y-35075000D02*
X33750000Y-36000000D01*
%TO.N,IMD_STATUS*%
X36325000Y-35075000D02*
X37250000Y-36000000D01*
X36325000Y-35000000D02*
X36325000Y-35075000D01*
%TO.N,BMS_STATUS*%
X40750000Y-36000000D02*
X39825000Y-35075000D01*
X39825000Y-35075000D02*
X39825000Y-35000000D01*
%TO.N,/RST_SW2*%
X30000000Y-35000000D02*
X29325000Y-35000000D01*
D21*
%TO.N,/RST_SW1*%
X33500000Y-41000000D02*
X34175000Y-41000000D01*
%TO.N,Net-(D4-A)*%
X12500000Y-25500000D02*
X13175000Y-25500000D01*
%TO.N,Net-(D5-A)*%
X12500000Y-28500000D02*
X13175000Y-28500000D01*
%TO.N,Net-(D6-A)*%
X12500000Y-31500000D02*
X13175000Y-31500000D01*
%TO.N,/BSPD_LED_A*%
X48000000Y-29000000D02*
X48000000Y-26825000D01*
%TO.N,/IMD_LED_A*%
X45000000Y-28325000D02*
X46500000Y-26825000D01*
X45000000Y-29000000D02*
X45000000Y-28325000D01*
%TO.N,/BMS_LED_A*%
X51000000Y-29000000D02*
X51000000Y-28325000D01*
X51000000Y-28325000D02*
X49500000Y-26825000D01*
D22*
%TO.N,~{BMS_STATUS}*%
X16500000Y-32250000D02*
X20000000Y-32250000D01*
X25000000Y-27250000D02*
X37250000Y-27250000D01*
X16000000Y-31750000D02*
X16500000Y-32250000D01*
X20000000Y-32250000D02*
X25000000Y-27250000D01*
X16000000Y-26750000D02*
X16000000Y-31750000D01*
X38250000Y-28250000D02*
X38250000Y-28925000D01*
X38250000Y-28925000D02*
X38175000Y-29000000D01*
X37250000Y-27250000D02*
X38250000Y-28250000D01*
%TO.N,~{IMD_STATUS}*%
X34750000Y-28925000D02*
X34675000Y-29000000D01*
X34250000Y-27750000D02*
X34750000Y-28250000D01*
X15500000Y-29250000D02*
X15500000Y-31750000D01*
X16500000Y-32750000D02*
X20000000Y-32750000D01*
X25000000Y-27750000D02*
X34250000Y-27750000D01*
X15500000Y-31750000D02*
X16500000Y-32750000D01*
X34750000Y-28250000D02*
X34750000Y-28925000D01*
X20000000Y-32750000D02*
X25000000Y-27750000D01*
%TO.N,~{BSPD_STATUS}*%
X31250000Y-28925000D02*
X31175000Y-29000000D01*
X31250000Y-28250000D02*
X31250000Y-28925000D01*
X25000000Y-28250000D02*
X31250000Y-28250000D01*
X20000000Y-33250000D02*
X25000000Y-28250000D01*
X16500000Y-33250000D02*
X20000000Y-33250000D01*
%TO.N,BMS_LED_K*%
X35000000Y-25750000D02*
X35500000Y-25250000D01*
X21000000Y-25750000D02*
X35000000Y-25750000D01*
X19750000Y-24500000D02*
X21000000Y-25750000D01*
X35500000Y-25250000D02*
X35500000Y-23750000D01*
X35500000Y-23750000D02*
X37000000Y-22250000D01*
D21*
%TO.N,BMS_RLY_OFF*%
X37250000Y-18750000D02*
X20250000Y-18750000D01*
X20250000Y-18750000D02*
X20000000Y-18500000D01*
%TO.N,Net-(D7-A)*%
X17175000Y-25500000D02*
X16500000Y-25500000D01*
%TO.N,IMD_RLY_OFF*%
X39750000Y-20250000D02*
X39750000Y-22250000D01*
X37500000Y-18000000D02*
X39750000Y-20250000D01*
X27000000Y-18000000D02*
X37500000Y-18000000D01*
%TO.N,BSPD_RLY_OFF*%
X34750000Y-17250000D02*
X37500000Y-17250000D01*
X37500000Y-17250000D02*
X40500000Y-20250000D01*
X40500000Y-20250000D02*
X40500000Y-23000000D01*
%TO.N,Net-(D8-A)*%
X16500000Y-28500000D02*
X17175000Y-28500000D01*
D22*
%TO.N,BMS_FAULT*%
X27500000Y-22000000D02*
X28175000Y-22000000D01*
X25750000Y-23750000D02*
X27500000Y-22000000D01*
%TO.N,IMD_FAULT*%
X27250000Y-23750000D02*
X27500000Y-23500000D01*
X27500000Y-23500000D02*
X28175000Y-23500000D01*
%TO.N,BSPD_FAULT*%
X27250000Y-25000000D02*
X28175000Y-25000000D01*
%TO.N,IMD_LED_K*%
X21000000Y-26250000D02*
X35000000Y-26250000D01*
X19750000Y-27000000D02*
X20250000Y-27000000D01*
X20250000Y-27000000D02*
X21000000Y-26250000D01*
X35000000Y-26250000D02*
X36000000Y-25250000D01*
X36000000Y-24500000D02*
X37000000Y-23500000D01*
X36000000Y-25250000D02*
X36000000Y-24500000D01*
D21*
%TO.N,Net-(D9-A)*%
X16500000Y-31500000D02*
X17175000Y-31500000D01*
D22*
%TO.N,BSPD_LED_K*%
X21000000Y-26750000D02*
X35000000Y-26750000D01*
X35000000Y-26750000D02*
X37000000Y-24750000D01*
X19750000Y-30000000D02*
X19750000Y-28000000D01*
X19750000Y-28000000D02*
X21000000Y-26750000D01*
%TO.N,Net-(U5-I1)*%
X31000000Y-22000000D02*
X32175000Y-22000000D01*
X31000000Y-22000000D02*
X29825000Y-22000000D01*
%TO.N,Net-(U5-I3)*%
X31000000Y-23500000D02*
X32175000Y-23500000D01*
X29825000Y-23500000D02*
X31000000Y-23500000D01*
%TO.N,Net-(U5-I5)*%
X31000000Y-25000000D02*
X32175000Y-25000000D01*
X29825000Y-25000000D02*
X31000000Y-25000000D01*
%TD*%
%TA.AperFunction,Conductor*%
%TO.N,GND*%
G36*
X34687001Y-7397217D02*
G01*
X34692684Y-7400498D01*
X34692686Y-7400500D01*
X34786444Y-7454631D01*
X34804889Y-7465281D01*
X34806814Y-7466392D01*
X34934108Y-7500500D01*
X34934110Y-7500500D01*
X35065889Y-7500500D01*
X35065892Y-7500500D01*
X35157837Y-7475862D01*
X35209324Y-7473165D01*
X35381908Y-7500500D01*
X35434108Y-7500500D01*
X50354264Y-7500500D01*
X50421303Y-7520185D01*
X50467058Y-7572989D01*
X50477002Y-7642147D01*
X50447977Y-7705703D01*
X50396674Y-7741022D01*
X50256944Y-7791878D01*
X49896819Y-7959807D01*
X49896804Y-7959815D01*
X49552697Y-8158486D01*
X49552671Y-8158502D01*
X49227190Y-8386406D01*
X48922795Y-8641825D01*
X48641825Y-8922795D01*
X48386406Y-9227190D01*
X48158502Y-9552671D01*
X48158486Y-9552697D01*
X47959815Y-9896804D01*
X47959807Y-9896819D01*
X47791878Y-10256944D01*
X47655974Y-10630341D01*
X47553135Y-11014145D01*
X47553132Y-11014158D01*
X47484132Y-11405472D01*
X47449500Y-11801317D01*
X47449500Y-12198682D01*
X47484132Y-12594527D01*
X47553132Y-12985841D01*
X47553135Y-12985854D01*
X47655974Y-13369658D01*
X47791878Y-13743055D01*
X47959807Y-14103180D01*
X47959812Y-14103189D01*
X48158491Y-14447311D01*
X48158495Y-14447317D01*
X48158502Y-14447328D01*
X48386406Y-14772809D01*
X48571023Y-14992826D01*
X48641823Y-15077202D01*
X48922798Y-15358177D01*
X49049361Y-15464376D01*
X49227190Y-15613593D01*
X49552671Y-15841497D01*
X49552678Y-15841501D01*
X49552689Y-15841509D01*
X49738242Y-15948638D01*
X49896804Y-16040184D01*
X49896819Y-16040192D01*
X50256944Y-16208121D01*
X50536054Y-16309708D01*
X50630335Y-16344023D01*
X50630336Y-16344023D01*
X50630341Y-16344025D01*
X50750919Y-16376333D01*
X51014153Y-16446867D01*
X51405475Y-16515868D01*
X51801319Y-16550499D01*
X51801320Y-16550500D01*
X51801321Y-16550500D01*
X52198680Y-16550500D01*
X52198680Y-16550499D01*
X52594525Y-16515868D01*
X52985847Y-16446867D01*
X53369665Y-16344023D01*
X53718701Y-16216985D01*
X53743055Y-16208121D01*
X53743056Y-16208120D01*
X53743060Y-16208119D01*
X54103189Y-16040188D01*
X54447311Y-15841509D01*
X54772808Y-15613594D01*
X55077202Y-15358177D01*
X55358177Y-15077202D01*
X55613594Y-14772808D01*
X55841509Y-14447311D01*
X56040188Y-14103189D01*
X56208119Y-13743060D01*
X56258978Y-13603326D01*
X56300404Y-13547062D01*
X56365673Y-13522126D01*
X56434061Y-13536436D01*
X56483857Y-13585447D01*
X56499500Y-13645736D01*
X56499500Y-23618097D01*
X56526833Y-23790673D01*
X56524135Y-23842163D01*
X56499500Y-23934106D01*
X56499500Y-23934108D01*
X56499500Y-24065892D01*
X56533583Y-24193094D01*
X56533609Y-24193188D01*
X56533609Y-24193189D01*
X56602782Y-24313000D01*
X56619255Y-24380900D01*
X56602782Y-24437000D01*
X56533609Y-24556810D01*
X56533609Y-24556811D01*
X56533609Y-24556812D01*
X56533608Y-24556814D01*
X56499500Y-24684108D01*
X56499500Y-24815892D01*
X56532057Y-24937399D01*
X56533609Y-24943188D01*
X56533609Y-24943189D01*
X56602782Y-25063000D01*
X56619255Y-25130900D01*
X56602782Y-25187000D01*
X56533609Y-25306810D01*
X56533609Y-25306811D01*
X56533609Y-25306812D01*
X56533608Y-25306814D01*
X56499500Y-25434108D01*
X56499500Y-25565892D01*
X56531022Y-25683536D01*
X56533609Y-25693188D01*
X56533609Y-25693189D01*
X56602782Y-25813000D01*
X56619255Y-25880900D01*
X56602782Y-25937000D01*
X56533609Y-26056810D01*
X56533609Y-26056811D01*
X56533609Y-26056812D01*
X56533608Y-26056814D01*
X56499500Y-26184108D01*
X56499500Y-26315892D01*
X56528251Y-26423195D01*
X56533609Y-26443188D01*
X56533609Y-26443189D01*
X56602782Y-26563000D01*
X56619255Y-26630900D01*
X56602782Y-26687000D01*
X56533609Y-26806810D01*
X56533609Y-26806811D01*
X56533609Y-26806812D01*
X56533608Y-26806814D01*
X56499500Y-26934108D01*
X56499500Y-27065892D01*
X56531022Y-27183536D01*
X56533609Y-27193188D01*
X56533609Y-27193189D01*
X56602782Y-27313000D01*
X56619255Y-27380900D01*
X56602782Y-27437000D01*
X56533609Y-27556810D01*
X56533609Y-27556811D01*
X56533609Y-27556812D01*
X56533608Y-27556814D01*
X56499500Y-27684108D01*
X56499500Y-27815892D01*
X56532057Y-27937399D01*
X56533609Y-27943188D01*
X56533609Y-27943189D01*
X56602782Y-28063000D01*
X56619255Y-28130900D01*
X56602782Y-28187000D01*
X56533609Y-28306810D01*
X56533609Y-28306811D01*
X56533609Y-28306812D01*
X56533608Y-28306814D01*
X56499500Y-28434108D01*
X56499500Y-28565892D01*
X56532057Y-28687399D01*
X56533609Y-28693188D01*
X56533609Y-28693189D01*
X56602782Y-28813000D01*
X56619255Y-28880900D01*
X56602782Y-28937000D01*
X56533609Y-29056810D01*
X56533609Y-29056811D01*
X56533609Y-29056812D01*
X56533608Y-29056814D01*
X56499500Y-29184108D01*
X56499500Y-29315892D01*
X56533583Y-29443094D01*
X56533609Y-29443188D01*
X56533609Y-29443189D01*
X56602782Y-29563000D01*
X56619255Y-29630900D01*
X56602782Y-29687000D01*
X56533609Y-29806810D01*
X56533609Y-29806811D01*
X56533609Y-29806812D01*
X56533608Y-29806814D01*
X56516810Y-29869505D01*
X56499500Y-29934108D01*
X56499500Y-30065893D01*
X56524135Y-30157836D01*
X56526833Y-30209326D01*
X56499500Y-30381902D01*
X56499500Y-40354263D01*
X56479815Y-40421302D01*
X56427011Y-40467057D01*
X56357853Y-40477001D01*
X56294297Y-40447976D01*
X56258978Y-40396673D01*
X56208121Y-40256944D01*
X56040192Y-39896819D01*
X56040184Y-39896804D01*
X55895115Y-39645538D01*
X55841509Y-39552689D01*
X55841501Y-39552678D01*
X55841497Y-39552671D01*
X55613593Y-39227190D01*
X55358174Y-38922795D01*
X55077204Y-38641825D01*
X54772809Y-38386406D01*
X54447328Y-38158502D01*
X54447317Y-38158495D01*
X54447311Y-38158491D01*
X54342092Y-38097743D01*
X54103195Y-37959815D01*
X54103180Y-37959807D01*
X53743055Y-37791878D01*
X53369658Y-37655974D01*
X52985854Y-37553135D01*
X52985857Y-37553135D01*
X52985847Y-37553133D01*
X52930599Y-37543391D01*
X52594527Y-37484132D01*
X52198682Y-37449500D01*
X52198679Y-37449500D01*
X51801321Y-37449500D01*
X51801317Y-37449500D01*
X51405472Y-37484132D01*
X51014158Y-37553132D01*
X51014155Y-37553132D01*
X51014153Y-37553133D01*
X51014148Y-37553134D01*
X51014145Y-37553135D01*
X50630341Y-37655974D01*
X50256944Y-37791878D01*
X49896819Y-37959807D01*
X49896804Y-37959815D01*
X49552697Y-38158486D01*
X49552671Y-38158502D01*
X49227190Y-38386406D01*
X48922795Y-38641825D01*
X48641825Y-38922795D01*
X48386406Y-39227190D01*
X48158502Y-39552671D01*
X48158486Y-39552697D01*
X47959815Y-39896804D01*
X47959807Y-39896819D01*
X47791878Y-40256944D01*
X47655974Y-40630341D01*
X47553135Y-41014145D01*
X47553132Y-41014158D01*
X47484132Y-41405472D01*
X47449500Y-41801317D01*
X47449500Y-42198682D01*
X47484132Y-42594527D01*
X47553132Y-42985841D01*
X47553135Y-42985854D01*
X47655974Y-43369658D01*
X47791878Y-43743055D01*
X47959807Y-44103180D01*
X47959812Y-44103189D01*
X48158491Y-44447311D01*
X48158495Y-44447317D01*
X48158502Y-44447328D01*
X48386406Y-44772809D01*
X48426027Y-44820027D01*
X48641823Y-45077202D01*
X48922798Y-45358177D01*
X49049361Y-45464376D01*
X49227190Y-45613593D01*
X49552671Y-45841497D01*
X49552678Y-45841501D01*
X49552689Y-45841509D01*
X49641469Y-45892766D01*
X49896804Y-46040184D01*
X49896819Y-46040192D01*
X50256944Y-46208121D01*
X50396674Y-46258978D01*
X50452938Y-46300404D01*
X50477874Y-46365673D01*
X50463564Y-46434061D01*
X50414553Y-46483857D01*
X50354264Y-46499500D01*
X35381903Y-46499500D01*
X35209326Y-46526833D01*
X35157836Y-46524135D01*
X35065893Y-46499500D01*
X35065892Y-46499500D01*
X34934108Y-46499500D01*
X34806814Y-46533608D01*
X34806813Y-46533608D01*
X34806811Y-46533609D01*
X34806810Y-46533609D01*
X34687000Y-46602782D01*
X34619100Y-46619255D01*
X34563000Y-46602782D01*
X34443189Y-46533609D01*
X34443186Y-46533608D01*
X34315892Y-46499500D01*
X34184108Y-46499500D01*
X34056814Y-46533608D01*
X34056813Y-46533608D01*
X34056811Y-46533609D01*
X34056810Y-46533609D01*
X33937000Y-46602782D01*
X33869100Y-46619255D01*
X33813000Y-46602782D01*
X33693189Y-46533609D01*
X33693186Y-46533608D01*
X33565892Y-46499500D01*
X33434108Y-46499500D01*
X33306814Y-46533608D01*
X33306813Y-46533608D01*
X33306811Y-46533609D01*
X33306810Y-46533609D01*
X33187000Y-46602782D01*
X33119100Y-46619255D01*
X33063000Y-46602782D01*
X32943189Y-46533609D01*
X32943186Y-46533608D01*
X32815892Y-46499500D01*
X32684108Y-46499500D01*
X32556814Y-46533608D01*
X32556813Y-46533608D01*
X32556811Y-46533609D01*
X32556810Y-46533609D01*
X32437000Y-46602782D01*
X32369100Y-46619255D01*
X32313000Y-46602782D01*
X32193189Y-46533609D01*
X32193186Y-46533608D01*
X32065892Y-46499500D01*
X31934108Y-46499500D01*
X31806814Y-46533608D01*
X31806813Y-46533608D01*
X31806811Y-46533609D01*
X31806810Y-46533609D01*
X31687000Y-46602782D01*
X31619100Y-46619255D01*
X31563000Y-46602782D01*
X31443189Y-46533609D01*
X31443186Y-46533608D01*
X31315892Y-46499500D01*
X31184108Y-46499500D01*
X31056814Y-46533608D01*
X31056813Y-46533608D01*
X31056811Y-46533609D01*
X31056810Y-46533609D01*
X30937000Y-46602782D01*
X30869100Y-46619255D01*
X30813000Y-46602782D01*
X30693189Y-46533609D01*
X30693186Y-46533608D01*
X30565892Y-46499500D01*
X30434108Y-46499500D01*
X30306814Y-46533608D01*
X30306813Y-46533608D01*
X30306811Y-46533609D01*
X30306810Y-46533609D01*
X30187000Y-46602782D01*
X30119100Y-46619255D01*
X30063000Y-46602782D01*
X29943189Y-46533609D01*
X29943186Y-46533608D01*
X29815892Y-46499500D01*
X29684108Y-46499500D01*
X29556814Y-46533608D01*
X29556813Y-46533608D01*
X29556811Y-46533609D01*
X29556810Y-46533609D01*
X29437000Y-46602782D01*
X29369100Y-46619255D01*
X29313000Y-46602782D01*
X29193189Y-46533609D01*
X29193186Y-46533608D01*
X29065892Y-46499500D01*
X28934108Y-46499500D01*
X28934106Y-46499500D01*
X28842163Y-46524135D01*
X28790673Y-46526833D01*
X28618097Y-46499500D01*
X28618092Y-46499500D01*
X28565892Y-46499500D01*
X13645736Y-46499500D01*
X13578697Y-46479815D01*
X13532942Y-46427011D01*
X13522998Y-46357853D01*
X13552023Y-46294297D01*
X13603326Y-46258978D01*
X13743055Y-46208121D01*
X13743056Y-46208120D01*
X13743060Y-46208119D01*
X14103189Y-46040188D01*
X14447311Y-45841509D01*
X14772808Y-45613594D01*
X15077202Y-45358177D01*
X15358177Y-45077202D01*
X15613594Y-44772808D01*
X15841509Y-44447311D01*
X16040188Y-44103189D01*
X16208119Y-43743060D01*
X16344023Y-43369665D01*
X16446867Y-42985847D01*
X16515868Y-42594525D01*
X16546010Y-42250000D01*
X17242659Y-42250000D01*
X18104576Y-42250000D01*
X18080000Y-42405164D01*
X18080000Y-42594836D01*
X18104576Y-42750000D01*
X17242659Y-42750000D01*
X17262703Y-42902256D01*
X17332511Y-43162781D01*
X17435719Y-43411950D01*
X17435726Y-43411965D01*
X17570579Y-43645538D01*
X17734768Y-43859513D01*
X17734774Y-43859520D01*
X17925479Y-44050225D01*
X17925486Y-44050231D01*
X18139461Y-44214420D01*
X18373034Y-44349273D01*
X18373049Y-44349280D01*
X18622218Y-44452488D01*
X18882743Y-44522296D01*
X19035000Y-44542340D01*
X19035000Y-43680424D01*
X19190164Y-43705000D01*
X19379836Y-43705000D01*
X19535000Y-43680424D01*
X19535000Y-44542339D01*
X19687256Y-44522296D01*
X19947781Y-44452488D01*
X20196950Y-44349280D01*
X20196965Y-44349273D01*
X20430538Y-44214420D01*
X20644513Y-44050231D01*
X20644520Y-44050225D01*
X20835225Y-43859520D01*
X20835231Y-43859513D01*
X20999420Y-43645538D01*
X21134273Y-43411965D01*
X21134280Y-43411950D01*
X21237488Y-43162781D01*
X21307296Y-42902256D01*
X21327341Y-42750000D01*
X20465424Y-42750000D01*
X20490000Y-42594836D01*
X20490000Y-42405164D01*
X20465424Y-42250000D01*
X21327340Y-42250000D01*
X24672659Y-42250000D01*
X25534576Y-42250000D01*
X25510000Y-42405164D01*
X25510000Y-42594836D01*
X25534576Y-42750000D01*
X24672659Y-42750000D01*
X24692703Y-42902256D01*
X24762511Y-43162781D01*
X24865719Y-43411950D01*
X24865726Y-43411965D01*
X25000579Y-43645538D01*
X25164768Y-43859513D01*
X25164774Y-43859520D01*
X25355479Y-44050225D01*
X25355486Y-44050231D01*
X25569461Y-44214420D01*
X25803034Y-44349273D01*
X25803049Y-44349280D01*
X26052218Y-44452488D01*
X26312743Y-44522296D01*
X26465000Y-44542340D01*
X26465000Y-43680424D01*
X26620164Y-43705000D01*
X26809836Y-43705000D01*
X26965000Y-43680424D01*
X26965000Y-44542339D01*
X27117256Y-44522296D01*
X27377781Y-44452488D01*
X27626950Y-44349280D01*
X27626965Y-44349273D01*
X27860538Y-44214420D01*
X28074513Y-44050231D01*
X28074520Y-44050225D01*
X28265225Y-43859520D01*
X28265231Y-43859513D01*
X28429420Y-43645538D01*
X28564273Y-43411965D01*
X28564280Y-43411950D01*
X28667488Y-43162781D01*
X28737296Y-42902256D01*
X28757341Y-42750000D01*
X27895424Y-42750000D01*
X27920000Y-42594836D01*
X27920000Y-42405164D01*
X27895424Y-42250000D01*
X28757340Y-42250000D01*
X28737296Y-42097743D01*
X28667488Y-41837218D01*
X28564280Y-41588049D01*
X28564273Y-41588034D01*
X28429420Y-41354461D01*
X28265231Y-41140486D01*
X28265225Y-41140479D01*
X28074520Y-40949774D01*
X28074513Y-40949768D01*
X28058393Y-40937399D01*
X33024500Y-40937399D01*
X33024500Y-41062601D01*
X33056905Y-41183536D01*
X33119505Y-41291964D01*
X33208036Y-41380495D01*
X33316464Y-41443095D01*
X33437399Y-41475500D01*
X33437401Y-41475500D01*
X33500471Y-41475500D01*
X33567510Y-41495185D01*
X33600241Y-41525867D01*
X33652848Y-41597148D01*
X33652849Y-41597148D01*
X33652850Y-41597150D01*
X33762118Y-41677793D01*
X33804680Y-41692686D01*
X33890299Y-41722646D01*
X33920730Y-41725500D01*
X33920734Y-41725500D01*
X34429270Y-41725500D01*
X34459699Y-41722646D01*
X34459701Y-41722646D01*
X34523790Y-41700219D01*
X34587882Y-41677793D01*
X34697150Y-41597150D01*
X34777793Y-41487882D01*
X34800219Y-41423790D01*
X34822646Y-41359701D01*
X34822646Y-41359699D01*
X34825500Y-41329269D01*
X34825500Y-40670730D01*
X35174500Y-40670730D01*
X35174500Y-41329269D01*
X35177353Y-41359699D01*
X35177353Y-41359701D01*
X35206535Y-41443095D01*
X35222207Y-41487882D01*
X35302850Y-41597150D01*
X35412118Y-41677793D01*
X35454680Y-41692686D01*
X35540299Y-41722646D01*
X35570730Y-41725500D01*
X35570734Y-41725500D01*
X36079270Y-41725500D01*
X36109699Y-41722646D01*
X36109701Y-41722646D01*
X36173790Y-41700219D01*
X36237882Y-41677793D01*
X36347150Y-41597150D01*
X36427793Y-41487882D01*
X36450219Y-41423790D01*
X36472646Y-41359701D01*
X36472646Y-41359699D01*
X36475500Y-41329269D01*
X36475500Y-40670730D01*
X36472646Y-40640300D01*
X36472646Y-40640298D01*
X36432577Y-40525791D01*
X36427793Y-40512118D01*
X36347150Y-40402850D01*
X36237882Y-40322207D01*
X36233542Y-40320688D01*
X36214553Y-40307068D01*
X36193297Y-40297361D01*
X36186693Y-40287084D01*
X36176768Y-40279966D01*
X36168157Y-40258242D01*
X36155523Y-40238583D01*
X36152767Y-40219415D01*
X36151022Y-40215013D01*
X36150500Y-40203648D01*
X36150500Y-40040538D01*
X36167113Y-39978538D01*
X36193095Y-39933536D01*
X36225500Y-39812601D01*
X36225500Y-39687399D01*
X36193095Y-39566464D01*
X36130495Y-39458036D01*
X36041964Y-39369505D01*
X35933536Y-39306905D01*
X35933537Y-39306905D01*
X35893224Y-39296103D01*
X35812601Y-39274500D01*
X35687399Y-39274500D01*
X35606775Y-39296103D01*
X35566463Y-39306905D01*
X35458037Y-39369504D01*
X35458034Y-39369506D01*
X35369506Y-39458034D01*
X35369504Y-39458037D01*
X35306905Y-39566463D01*
X35290702Y-39626931D01*
X35274500Y-39687399D01*
X35274500Y-39812601D01*
X35287070Y-39859513D01*
X35306905Y-39933537D01*
X35306906Y-39933538D01*
X35332887Y-39978538D01*
X35349500Y-40040538D01*
X35349500Y-40305823D01*
X35329815Y-40372862D01*
X35308617Y-40395477D01*
X35309420Y-40396280D01*
X35302851Y-40402848D01*
X35222207Y-40512117D01*
X35222206Y-40512119D01*
X35177353Y-40640298D01*
X35177353Y-40640300D01*
X35174500Y-40670730D01*
X34825500Y-40670730D01*
X34822646Y-40640300D01*
X34822646Y-40640298D01*
X34782577Y-40525791D01*
X34777793Y-40512118D01*
X34697150Y-40402850D01*
X34587882Y-40322207D01*
X34587880Y-40322206D01*
X34459700Y-40277353D01*
X34429270Y-40274500D01*
X34429266Y-40274500D01*
X33920734Y-40274500D01*
X33920730Y-40274500D01*
X33890300Y-40277353D01*
X33890298Y-40277353D01*
X33762119Y-40322206D01*
X33762117Y-40322207D01*
X33652850Y-40402850D01*
X33600240Y-40474134D01*
X33544592Y-40516385D01*
X33500470Y-40524500D01*
X33437399Y-40524500D01*
X33356775Y-40546103D01*
X33316463Y-40556905D01*
X33208037Y-40619504D01*
X33208034Y-40619506D01*
X33119506Y-40708034D01*
X33119504Y-40708037D01*
X33056905Y-40816463D01*
X33056905Y-40816464D01*
X33024500Y-40937399D01*
X28058393Y-40937399D01*
X27860538Y-40785579D01*
X27626965Y-40650726D01*
X27626950Y-40650719D01*
X27377781Y-40547511D01*
X27117256Y-40477703D01*
X26965000Y-40457657D01*
X26965000Y-41319575D01*
X26809836Y-41295000D01*
X26620164Y-41295000D01*
X26465000Y-41319575D01*
X26465000Y-40457657D01*
X26464999Y-40457657D01*
X26312743Y-40477703D01*
X26052218Y-40547511D01*
X25803049Y-40650719D01*
X25803034Y-40650726D01*
X25569461Y-40785579D01*
X25355486Y-40949768D01*
X25355479Y-40949774D01*
X25164774Y-41140479D01*
X25164768Y-41140486D01*
X25000579Y-41354461D01*
X24865726Y-41588034D01*
X24865719Y-41588049D01*
X24762511Y-41837218D01*
X24692703Y-42097743D01*
X24672659Y-42250000D01*
X21327340Y-42250000D01*
X21307296Y-42097743D01*
X21237488Y-41837218D01*
X21134280Y-41588049D01*
X21134273Y-41588034D01*
X20999420Y-41354461D01*
X20835231Y-41140486D01*
X20835225Y-41140479D01*
X20644520Y-40949774D01*
X20644513Y-40949768D01*
X20430538Y-40785579D01*
X20196965Y-40650726D01*
X20196950Y-40650719D01*
X19947781Y-40547511D01*
X19687256Y-40477703D01*
X19535000Y-40457657D01*
X19535000Y-41319575D01*
X19379836Y-41295000D01*
X19190164Y-41295000D01*
X19035000Y-41319575D01*
X19035000Y-40457657D01*
X19034999Y-40457657D01*
X18882743Y-40477703D01*
X18622218Y-40547511D01*
X18373049Y-40650719D01*
X18373034Y-40650726D01*
X18139461Y-40785579D01*
X17925486Y-40949768D01*
X17925479Y-40949774D01*
X17734774Y-41140479D01*
X17734768Y-41140486D01*
X17570579Y-41354461D01*
X17435726Y-41588034D01*
X17435719Y-41588049D01*
X17332511Y-41837218D01*
X17262703Y-42097743D01*
X17242659Y-42250000D01*
X16546010Y-42250000D01*
X16550500Y-42198679D01*
X16550500Y-41801321D01*
X16515868Y-41405475D01*
X16446867Y-41014153D01*
X16364843Y-40708036D01*
X16344025Y-40630341D01*
X16340081Y-40619506D01*
X16261225Y-40402848D01*
X16208121Y-40256944D01*
X16040192Y-39896819D01*
X16040184Y-39896804D01*
X15895115Y-39645538D01*
X15841509Y-39552689D01*
X15841501Y-39552678D01*
X15841497Y-39552671D01*
X15613593Y-39227190D01*
X15358174Y-38922795D01*
X15077204Y-38641825D01*
X14772809Y-38386406D01*
X14578001Y-38250000D01*
X29307659Y-38250000D01*
X30169576Y-38250000D01*
X30145000Y-38405164D01*
X30145000Y-38594836D01*
X30169576Y-38750000D01*
X29307659Y-38750000D01*
X29327703Y-38902256D01*
X29397511Y-39162781D01*
X29500719Y-39411950D01*
X29500726Y-39411965D01*
X29635579Y-39645538D01*
X29799768Y-39859513D01*
X29799774Y-39859520D01*
X29990479Y-40050225D01*
X29990486Y-40050231D01*
X30204461Y-40214420D01*
X30438034Y-40349273D01*
X30438049Y-40349280D01*
X30687218Y-40452488D01*
X30947743Y-40522296D01*
X31100000Y-40542340D01*
X31100000Y-39680424D01*
X31255164Y-39705000D01*
X31444836Y-39705000D01*
X31600000Y-39680424D01*
X31600000Y-40542339D01*
X31752256Y-40522296D01*
X32012781Y-40452488D01*
X32261950Y-40349280D01*
X32261965Y-40349273D01*
X32495538Y-40214420D01*
X32709513Y-40050231D01*
X32709520Y-40050225D01*
X32900225Y-39859520D01*
X32900231Y-39859513D01*
X33064420Y-39645538D01*
X33199273Y-39411965D01*
X33199280Y-39411950D01*
X33302488Y-39162781D01*
X33372296Y-38902256D01*
X33392341Y-38750000D01*
X32530424Y-38750000D01*
X32555000Y-38594836D01*
X32555000Y-38405164D01*
X32530424Y-38250000D01*
X33392340Y-38250000D01*
X42607659Y-38250000D01*
X43469576Y-38250000D01*
X43445000Y-38405164D01*
X43445000Y-38594836D01*
X43469576Y-38750000D01*
X42607659Y-38750000D01*
X42627703Y-38902256D01*
X42697511Y-39162781D01*
X42800719Y-39411950D01*
X42800726Y-39411965D01*
X42935579Y-39645538D01*
X43099768Y-39859513D01*
X43099774Y-39859520D01*
X43290479Y-40050225D01*
X43290486Y-40050231D01*
X43504461Y-40214420D01*
X43738034Y-40349273D01*
X43738049Y-40349280D01*
X43987218Y-40452488D01*
X44247743Y-40522296D01*
X44400000Y-40542340D01*
X44400000Y-39680424D01*
X44555164Y-39705000D01*
X44744836Y-39705000D01*
X44900000Y-39680424D01*
X44900000Y-40542339D01*
X45052256Y-40522296D01*
X45312781Y-40452488D01*
X45561950Y-40349280D01*
X45561965Y-40349273D01*
X45795538Y-40214420D01*
X46009513Y-40050231D01*
X46009520Y-40050225D01*
X46200225Y-39859520D01*
X46200231Y-39859513D01*
X46364420Y-39645538D01*
X46499273Y-39411965D01*
X46499280Y-39411950D01*
X46602488Y-39162781D01*
X46672296Y-38902256D01*
X46692341Y-38750000D01*
X45830424Y-38750000D01*
X45855000Y-38594836D01*
X45855000Y-38405164D01*
X45830424Y-38250000D01*
X46692340Y-38250000D01*
X46672296Y-38097743D01*
X46602488Y-37837218D01*
X46499280Y-37588049D01*
X46499273Y-37588034D01*
X46364420Y-37354461D01*
X46200231Y-37140486D01*
X46200225Y-37140479D01*
X46009520Y-36949774D01*
X46009513Y-36949768D01*
X45795538Y-36785579D01*
X45561965Y-36650726D01*
X45561950Y-36650719D01*
X45312781Y-36547511D01*
X45052256Y-36477703D01*
X44900000Y-36457657D01*
X44900000Y-37319575D01*
X44744836Y-37295000D01*
X44555164Y-37295000D01*
X44400000Y-37319575D01*
X44400000Y-36457657D01*
X44399999Y-36457657D01*
X44247743Y-36477703D01*
X43987218Y-36547511D01*
X43738049Y-36650719D01*
X43738034Y-36650726D01*
X43504461Y-36785579D01*
X43290486Y-36949768D01*
X43290479Y-36949774D01*
X43099774Y-37140479D01*
X43099768Y-37140486D01*
X42935579Y-37354461D01*
X42800726Y-37588034D01*
X42800719Y-37588049D01*
X42697511Y-37837218D01*
X42627703Y-38097743D01*
X42607659Y-38250000D01*
X33392340Y-38250000D01*
X33372296Y-38097743D01*
X33302488Y-37837218D01*
X33199280Y-37588049D01*
X33199273Y-37588034D01*
X33064420Y-37354461D01*
X32900231Y-37140486D01*
X32900225Y-37140479D01*
X32709520Y-36949774D01*
X32709513Y-36949768D01*
X32495538Y-36785579D01*
X32261965Y-36650726D01*
X32261950Y-36650719D01*
X32012781Y-36547511D01*
X31752256Y-36477703D01*
X31600000Y-36457657D01*
X31600000Y-37319575D01*
X31444836Y-37295000D01*
X31255164Y-37295000D01*
X31100000Y-37319575D01*
X31100000Y-36457657D01*
X31099999Y-36457657D01*
X30947743Y-36477703D01*
X30687218Y-36547511D01*
X30438049Y-36650719D01*
X30438034Y-36650726D01*
X30204461Y-36785579D01*
X29990486Y-36949768D01*
X29990479Y-36949774D01*
X29799774Y-37140479D01*
X29799768Y-37140486D01*
X29635579Y-37354461D01*
X29500726Y-37588034D01*
X29500719Y-37588049D01*
X29397511Y-37837218D01*
X29327703Y-38097743D01*
X29307659Y-38250000D01*
X14578001Y-38250000D01*
X14447328Y-38158502D01*
X14447317Y-38158495D01*
X14447311Y-38158491D01*
X14342092Y-38097743D01*
X14103195Y-37959815D01*
X14103180Y-37959807D01*
X13743055Y-37791878D01*
X13369658Y-37655974D01*
X12985854Y-37553135D01*
X12985857Y-37553135D01*
X12985847Y-37553133D01*
X12930599Y-37543391D01*
X12594527Y-37484132D01*
X12198682Y-37449500D01*
X12198679Y-37449500D01*
X11801321Y-37449500D01*
X11801317Y-37449500D01*
X11405472Y-37484132D01*
X11014158Y-37553132D01*
X11014155Y-37553132D01*
X11014153Y-37553133D01*
X11014148Y-37553134D01*
X11014145Y-37553135D01*
X10630341Y-37655974D01*
X10256944Y-37791878D01*
X9896819Y-37959807D01*
X9896804Y-37959815D01*
X9552697Y-38158486D01*
X9552671Y-38158502D01*
X9227190Y-38386406D01*
X8922795Y-38641825D01*
X8641825Y-38922795D01*
X8386406Y-39227190D01*
X8158502Y-39552671D01*
X8158486Y-39552697D01*
X7959815Y-39896804D01*
X7959807Y-39896819D01*
X7791878Y-40256944D01*
X7741022Y-40396673D01*
X7699596Y-40452937D01*
X7634327Y-40477873D01*
X7565939Y-40463563D01*
X7516143Y-40414552D01*
X7500500Y-40354263D01*
X7500500Y-34437399D01*
X12024500Y-34437399D01*
X12024500Y-34562601D01*
X12056905Y-34683536D01*
X12119505Y-34791964D01*
X12208036Y-34880495D01*
X12316464Y-34943095D01*
X12437399Y-34975500D01*
X12437401Y-34975500D01*
X12500471Y-34975500D01*
X12567510Y-34995185D01*
X12600241Y-35025867D01*
X12652848Y-35097148D01*
X12652849Y-35097148D01*
X12652850Y-35097150D01*
X12762118Y-35177793D01*
X12778531Y-35183536D01*
X12890299Y-35222646D01*
X12920730Y-35225500D01*
X12920734Y-35225500D01*
X13429270Y-35225500D01*
X13459699Y-35222646D01*
X13459701Y-35222646D01*
X13523790Y-35200219D01*
X13587882Y-35177793D01*
X13697150Y-35097150D01*
X13777793Y-34987882D01*
X13800219Y-34923790D01*
X13822646Y-34859701D01*
X13822646Y-34859699D01*
X13825500Y-34829269D01*
X13825500Y-34170730D01*
X13822646Y-34140300D01*
X13822646Y-34140298D01*
X13787689Y-34040399D01*
X13777793Y-34012118D01*
X13697150Y-33902850D01*
X13587882Y-33822207D01*
X13587880Y-33822206D01*
X13459700Y-33777353D01*
X13429270Y-33774500D01*
X13429266Y-33774500D01*
X12920734Y-33774500D01*
X12920730Y-33774500D01*
X12890300Y-33777353D01*
X12890298Y-33777353D01*
X12762119Y-33822206D01*
X12762117Y-33822207D01*
X12652850Y-33902850D01*
X12600240Y-33974134D01*
X12544592Y-34016385D01*
X12500470Y-34024500D01*
X12437399Y-34024500D01*
X12356775Y-34046103D01*
X12316463Y-34056905D01*
X12208037Y-34119504D01*
X12208034Y-34119506D01*
X12119506Y-34208034D01*
X12119504Y-34208037D01*
X12056905Y-34316463D01*
X12056905Y-34316464D01*
X12024500Y-34437399D01*
X7500500Y-34437399D01*
X7500500Y-31437399D01*
X12024500Y-31437399D01*
X12024500Y-31562601D01*
X12056905Y-31683536D01*
X12119505Y-31791964D01*
X12208036Y-31880495D01*
X12316464Y-31943095D01*
X12437399Y-31975500D01*
X12437401Y-31975500D01*
X12500471Y-31975500D01*
X12567510Y-31995185D01*
X12600241Y-32025867D01*
X12652848Y-32097148D01*
X12652849Y-32097148D01*
X12652850Y-32097150D01*
X12762118Y-32177793D01*
X12804845Y-32192744D01*
X12890299Y-32222646D01*
X12920730Y-32225500D01*
X12920734Y-32225500D01*
X13429270Y-32225500D01*
X13459699Y-32222646D01*
X13459701Y-32222646D01*
X13523790Y-32200219D01*
X13587882Y-32177793D01*
X13697150Y-32097150D01*
X13777793Y-31987882D01*
X13812680Y-31888181D01*
X13822646Y-31859701D01*
X13822646Y-31859699D01*
X13825500Y-31829269D01*
X13825500Y-31170730D01*
X13822646Y-31140300D01*
X13822646Y-31140298D01*
X13782577Y-31025791D01*
X13777793Y-31012118D01*
X13697150Y-30902850D01*
X13587882Y-30822207D01*
X13587880Y-30822206D01*
X13459700Y-30777353D01*
X13429270Y-30774500D01*
X13429266Y-30774500D01*
X12920734Y-30774500D01*
X12920730Y-30774500D01*
X12890300Y-30777353D01*
X12890298Y-30777353D01*
X12762119Y-30822206D01*
X12762117Y-30822207D01*
X12652850Y-30902850D01*
X12600240Y-30974134D01*
X12544592Y-31016385D01*
X12500470Y-31024500D01*
X12437399Y-31024500D01*
X12356775Y-31046103D01*
X12316463Y-31056905D01*
X12208037Y-31119504D01*
X12208034Y-31119506D01*
X12119506Y-31208034D01*
X12119504Y-31208037D01*
X12056905Y-31316463D01*
X12053959Y-31327459D01*
X12024500Y-31437399D01*
X7500500Y-31437399D01*
X7500500Y-30381909D01*
X7499122Y-30373206D01*
X7473165Y-30209324D01*
X7475863Y-30157836D01*
X7500500Y-30065892D01*
X7500500Y-29934108D01*
X7466392Y-29806814D01*
X7400500Y-29692686D01*
X7400498Y-29692684D01*
X7397217Y-29687001D01*
X7380744Y-29619101D01*
X7397217Y-29562999D01*
X7400498Y-29557315D01*
X7400500Y-29557314D01*
X7466392Y-29443186D01*
X7500500Y-29315892D01*
X7500500Y-29184108D01*
X7466392Y-29056814D01*
X7400500Y-28942686D01*
X7400498Y-28942684D01*
X7397217Y-28937001D01*
X7380744Y-28869101D01*
X7397217Y-28812999D01*
X7400498Y-28807315D01*
X7400500Y-28807314D01*
X7466392Y-28693186D01*
X7500500Y-28565892D01*
X7500500Y-28437399D01*
X12024500Y-28437399D01*
X12024500Y-28562601D01*
X12056905Y-28683536D01*
X12119505Y-28791964D01*
X12208036Y-28880495D01*
X12316464Y-28943095D01*
X12437399Y-28975500D01*
X12437401Y-28975500D01*
X12500471Y-28975500D01*
X12567510Y-28995185D01*
X12600241Y-29025867D01*
X12652848Y-29097148D01*
X12652849Y-29097148D01*
X12652850Y-29097150D01*
X12762118Y-29177793D01*
X12804845Y-29192744D01*
X12890299Y-29222646D01*
X12920730Y-29225500D01*
X12920734Y-29225500D01*
X13429270Y-29225500D01*
X13459699Y-29222646D01*
X13459701Y-29222646D01*
X13544151Y-29193095D01*
X13587882Y-29177793D01*
X13697150Y-29097150D01*
X13777793Y-28987882D01*
X13800219Y-28923790D01*
X13822646Y-28859701D01*
X13822646Y-28859699D01*
X13825500Y-28829269D01*
X13825500Y-28170730D01*
X13822646Y-28140300D01*
X13822646Y-28140298D01*
X13782577Y-28025791D01*
X13777793Y-28012118D01*
X13697150Y-27902850D01*
X13587882Y-27822207D01*
X13587880Y-27822206D01*
X13459700Y-27777353D01*
X13429270Y-27774500D01*
X13429266Y-27774500D01*
X12920734Y-27774500D01*
X12920730Y-27774500D01*
X12890300Y-27777353D01*
X12890298Y-27777353D01*
X12762119Y-27822206D01*
X12762117Y-27822207D01*
X12652850Y-27902850D01*
X12600240Y-27974134D01*
X12544592Y-28016385D01*
X12500470Y-28024500D01*
X12437399Y-28024500D01*
X12356775Y-28046103D01*
X12316463Y-28056905D01*
X12208037Y-28119504D01*
X12208034Y-28119506D01*
X12119506Y-28208034D01*
X12119504Y-28208037D01*
X12056905Y-28316463D01*
X12048104Y-28349310D01*
X12024500Y-28437399D01*
X7500500Y-28437399D01*
X7500500Y-28434108D01*
X7466392Y-28306814D01*
X7400500Y-28192686D01*
X7400498Y-28192684D01*
X7397217Y-28187001D01*
X7380744Y-28119101D01*
X7397217Y-28062999D01*
X7400498Y-28057315D01*
X7400500Y-28057314D01*
X7466392Y-27943186D01*
X7500500Y-27815892D01*
X7500500Y-27684108D01*
X7466392Y-27556814D01*
X7400500Y-27442686D01*
X7400498Y-27442684D01*
X7397217Y-27437001D01*
X7380744Y-27369101D01*
X7397217Y-27312999D01*
X7400498Y-27307315D01*
X7400500Y-27307314D01*
X7466392Y-27193186D01*
X7500500Y-27065892D01*
X7500500Y-26934108D01*
X7466392Y-26806814D01*
X7400500Y-26692686D01*
X7400498Y-26692684D01*
X7397217Y-26687001D01*
X7380744Y-26619101D01*
X7397217Y-26562999D01*
X7400498Y-26557315D01*
X7400500Y-26557314D01*
X7466392Y-26443186D01*
X7500500Y-26315892D01*
X7500500Y-26184108D01*
X7466392Y-26056814D01*
X7400500Y-25942686D01*
X7400498Y-25942684D01*
X7397217Y-25937001D01*
X7380744Y-25869101D01*
X7397217Y-25812999D01*
X7400498Y-25807315D01*
X7400500Y-25807314D01*
X7466392Y-25693186D01*
X7500500Y-25565892D01*
X7500500Y-25437399D01*
X12024500Y-25437399D01*
X12024500Y-25562601D01*
X12056905Y-25683536D01*
X12119505Y-25791964D01*
X12208036Y-25880495D01*
X12316464Y-25943095D01*
X12437399Y-25975500D01*
X12437401Y-25975500D01*
X12500471Y-25975500D01*
X12567510Y-25995185D01*
X12600241Y-26025867D01*
X12652848Y-26097148D01*
X12652849Y-26097148D01*
X12652850Y-26097150D01*
X12762118Y-26177793D01*
X12804845Y-26192744D01*
X12890299Y-26222646D01*
X12920730Y-26225500D01*
X12920734Y-26225500D01*
X13429270Y-26225500D01*
X13459699Y-26222646D01*
X13459701Y-26222646D01*
X13523790Y-26200219D01*
X13587882Y-26177793D01*
X13697150Y-26097150D01*
X13777793Y-25987882D01*
X13808369Y-25900500D01*
X13822646Y-25859701D01*
X13822646Y-25859699D01*
X13825500Y-25829269D01*
X13825500Y-25170730D01*
X14174500Y-25170730D01*
X14174500Y-25829269D01*
X14177353Y-25859699D01*
X14177353Y-25859701D01*
X14222206Y-25987880D01*
X14222207Y-25987882D01*
X14302849Y-26097149D01*
X14302851Y-26097151D01*
X14374133Y-26149759D01*
X14416384Y-26205406D01*
X14424500Y-26249529D01*
X14424500Y-27750470D01*
X14404815Y-27817509D01*
X14374134Y-27850240D01*
X14302850Y-27902850D01*
X14222207Y-28012117D01*
X14222206Y-28012119D01*
X14177353Y-28140298D01*
X14177353Y-28140300D01*
X14174500Y-28170730D01*
X14174500Y-28829269D01*
X14177353Y-28859699D01*
X14177353Y-28859701D01*
X14222206Y-28987880D01*
X14222207Y-28987882D01*
X14302849Y-29097149D01*
X14302851Y-29097151D01*
X14374133Y-29149759D01*
X14416384Y-29205406D01*
X14424500Y-29249529D01*
X14424500Y-30750470D01*
X14404815Y-30817509D01*
X14374134Y-30850240D01*
X14302850Y-30902850D01*
X14222207Y-31012117D01*
X14222206Y-31012119D01*
X14177353Y-31140298D01*
X14177353Y-31140300D01*
X14174500Y-31170730D01*
X14174500Y-31829269D01*
X14177353Y-31859699D01*
X14177353Y-31859701D01*
X14217422Y-31974208D01*
X14222207Y-31987882D01*
X14302849Y-32097149D01*
X14302851Y-32097151D01*
X14374133Y-32149759D01*
X14416384Y-32205406D01*
X14424500Y-32249529D01*
X14424500Y-33750470D01*
X14404815Y-33817509D01*
X14374134Y-33850240D01*
X14302850Y-33902850D01*
X14222207Y-34012117D01*
X14222206Y-34012119D01*
X14177353Y-34140298D01*
X14177353Y-34140300D01*
X14174500Y-34170730D01*
X14174500Y-34829269D01*
X14177353Y-34859699D01*
X14177353Y-34859701D01*
X14217699Y-34974999D01*
X14222207Y-34987882D01*
X14302850Y-35097150D01*
X14412118Y-35177793D01*
X14428531Y-35183536D01*
X14540299Y-35222646D01*
X14570730Y-35225500D01*
X14570734Y-35225500D01*
X15079270Y-35225500D01*
X15109699Y-35222646D01*
X15109701Y-35222646D01*
X15173790Y-35200219D01*
X15237882Y-35177793D01*
X15347150Y-35097150D01*
X15427793Y-34987882D01*
X15450219Y-34923790D01*
X15472646Y-34859701D01*
X15472646Y-34859699D01*
X15475500Y-34829269D01*
X15475500Y-34579196D01*
X25275001Y-34579196D01*
X25277851Y-34609606D01*
X25322653Y-34737645D01*
X25403207Y-34846792D01*
X25512354Y-34927346D01*
X25640397Y-34972149D01*
X25670778Y-34974998D01*
X25670806Y-34974999D01*
X26250000Y-34974999D01*
X26329196Y-34974999D01*
X26359606Y-34972148D01*
X26487645Y-34927346D01*
X26596792Y-34846792D01*
X26677346Y-34737645D01*
X26722149Y-34609604D01*
X26722149Y-34609600D01*
X26725000Y-34579206D01*
X26725000Y-34575000D01*
X26250000Y-34575000D01*
X26250000Y-34974999D01*
X25670806Y-34974999D01*
X25749999Y-34974998D01*
X25750000Y-34974998D01*
X25750000Y-34575000D01*
X25275001Y-34575000D01*
X25275001Y-34579196D01*
X15475500Y-34579196D01*
X15475500Y-34170730D01*
X15472646Y-34140301D01*
X15461642Y-34108852D01*
X15461641Y-34108850D01*
X15448324Y-34070793D01*
X25275000Y-34070793D01*
X25275000Y-34075000D01*
X25750000Y-34075000D01*
X26250000Y-34075000D01*
X26724999Y-34075000D01*
X26724999Y-34070803D01*
X26722148Y-34040393D01*
X26677346Y-33912354D01*
X26596792Y-33803207D01*
X26487645Y-33722653D01*
X26359602Y-33677850D01*
X26329207Y-33675000D01*
X26250000Y-33675000D01*
X26250000Y-34075000D01*
X25750000Y-34075000D01*
X25750000Y-33675000D01*
X25749999Y-33674999D01*
X25670804Y-33675000D01*
X25640393Y-33677851D01*
X25512354Y-33722653D01*
X25403207Y-33803207D01*
X25322653Y-33912354D01*
X25277850Y-34040395D01*
X25277850Y-34040399D01*
X25275000Y-34070793D01*
X15448324Y-34070793D01*
X15427793Y-34012118D01*
X15347150Y-33902850D01*
X15275866Y-33850240D01*
X15233615Y-33794592D01*
X15225500Y-33750470D01*
X15225500Y-32249529D01*
X15226908Y-32244731D01*
X15225879Y-32239837D01*
X15236655Y-32211536D01*
X15245185Y-32182490D01*
X15249449Y-32177940D01*
X15250744Y-32174541D01*
X15275867Y-32149758D01*
X15284121Y-32143666D01*
X15349751Y-32119698D01*
X15417921Y-32135017D01*
X15445432Y-32155759D01*
X16099150Y-32809477D01*
X16132635Y-32870800D01*
X16127651Y-32940492D01*
X16118857Y-32959157D01*
X16056905Y-33066463D01*
X16051166Y-33087882D01*
X16024500Y-33187399D01*
X16024500Y-33312601D01*
X16056905Y-33433536D01*
X16119505Y-33541964D01*
X16208036Y-33630495D01*
X16316464Y-33693095D01*
X16437399Y-33725500D01*
X16437401Y-33725500D01*
X16562599Y-33725500D01*
X16562601Y-33725500D01*
X16683536Y-33693095D01*
X16791964Y-33630495D01*
X16810640Y-33611819D01*
X16871963Y-33578334D01*
X16898321Y-33575500D01*
X20042851Y-33575500D01*
X20042853Y-33575500D01*
X20125639Y-33553318D01*
X20199862Y-33510465D01*
X21272928Y-32437399D01*
X24774500Y-32437399D01*
X24774500Y-32562601D01*
X24806905Y-32683536D01*
X24869505Y-32791964D01*
X24958036Y-32880495D01*
X25066464Y-32943095D01*
X25187399Y-32975500D01*
X25194901Y-32975500D01*
X25261940Y-32995185D01*
X25307695Y-33047989D01*
X25311934Y-33058525D01*
X25322207Y-33087882D01*
X25402850Y-33197150D01*
X25512118Y-33277793D01*
X25554845Y-33292744D01*
X25640299Y-33322646D01*
X25670730Y-33325500D01*
X25670734Y-33325500D01*
X26329270Y-33325500D01*
X26359699Y-33322646D01*
X26359701Y-33322646D01*
X26423790Y-33300219D01*
X26487882Y-33277793D01*
X26597150Y-33197150D01*
X26677793Y-33087882D01*
X26710229Y-32995185D01*
X26722646Y-32959701D01*
X26722646Y-32959699D01*
X26725500Y-32929269D01*
X26725500Y-32580321D01*
X26730241Y-32564173D01*
X26729965Y-32547347D01*
X26739881Y-32531344D01*
X26745185Y-32513282D01*
X26757903Y-32502261D01*
X26766768Y-32487956D01*
X26783761Y-32479854D01*
X26797989Y-32467527D01*
X26815077Y-32464926D01*
X26829838Y-32457890D01*
X26853375Y-32459098D01*
X26865127Y-32457310D01*
X26873469Y-32458369D01*
X26937399Y-32475500D01*
X27008313Y-32475500D01*
X27016098Y-32476489D01*
X27041213Y-32487463D01*
X27067510Y-32495185D01*
X27075041Y-32502245D01*
X27080122Y-32504465D01*
X27084631Y-32511234D01*
X27100241Y-32525867D01*
X27152850Y-32597150D01*
X27244922Y-32665102D01*
X27287171Y-32720747D01*
X27292630Y-32790403D01*
X27259563Y-32851952D01*
X27221375Y-32878304D01*
X27177233Y-32897795D01*
X27097794Y-32977234D01*
X27052415Y-33080006D01*
X27052415Y-33080008D01*
X27049500Y-33105131D01*
X27049500Y-33894856D01*
X27049502Y-33894882D01*
X27052413Y-33919987D01*
X27052415Y-33919991D01*
X27097793Y-34022764D01*
X27177235Y-34102206D01*
X27221373Y-34121695D01*
X27274750Y-34166781D01*
X27295277Y-34233567D01*
X27276439Y-34300849D01*
X27244921Y-34334899D01*
X27152850Y-34402850D01*
X27072207Y-34512117D01*
X27072206Y-34512119D01*
X27027353Y-34640298D01*
X27027353Y-34640300D01*
X27024500Y-34670730D01*
X27024500Y-35329269D01*
X27027353Y-35359699D01*
X27027353Y-35359701D01*
X27067422Y-35474208D01*
X27072207Y-35487882D01*
X27152850Y-35597150D01*
X27262118Y-35677793D01*
X27304845Y-35692744D01*
X27390299Y-35722646D01*
X27420730Y-35725500D01*
X27420734Y-35725500D01*
X27929270Y-35725500D01*
X27959699Y-35722646D01*
X27959701Y-35722646D01*
X28023790Y-35700219D01*
X28087882Y-35677793D01*
X28197150Y-35597150D01*
X28277793Y-35487882D01*
X28300249Y-35423707D01*
X28322646Y-35359701D01*
X28322646Y-35359699D01*
X28325500Y-35329269D01*
X28325500Y-34670730D01*
X28322646Y-34640300D01*
X28322646Y-34640298D01*
X28282577Y-34525791D01*
X28277793Y-34512118D01*
X28197150Y-34402850D01*
X28123794Y-34348711D01*
X28081545Y-34293065D01*
X28076086Y-34223408D01*
X28109154Y-34161859D01*
X28147339Y-34135509D01*
X28222765Y-34102206D01*
X28302206Y-34022765D01*
X28347585Y-33919991D01*
X28350500Y-33894865D01*
X28350500Y-33750000D01*
X28650001Y-33750000D01*
X28650001Y-33894785D01*
X28650002Y-33894808D01*
X28652908Y-33919869D01*
X28652909Y-33919873D01*
X28698211Y-34022474D01*
X28698214Y-34022479D01*
X28777520Y-34101785D01*
X28777524Y-34101788D01*
X28853118Y-34135165D01*
X28906495Y-34180250D01*
X28927023Y-34247036D01*
X28908186Y-34314318D01*
X28876668Y-34348370D01*
X28802849Y-34402851D01*
X28722207Y-34512117D01*
X28722206Y-34512119D01*
X28677353Y-34640298D01*
X28677353Y-34640300D01*
X28674500Y-34670730D01*
X28674500Y-35329269D01*
X28677353Y-35359699D01*
X28677353Y-35359701D01*
X28717422Y-35474208D01*
X28722207Y-35487882D01*
X28802850Y-35597150D01*
X28912118Y-35677793D01*
X28954845Y-35692744D01*
X29040299Y-35722646D01*
X29070730Y-35725500D01*
X29070734Y-35725500D01*
X29579270Y-35725500D01*
X29609699Y-35722646D01*
X29609701Y-35722646D01*
X29673790Y-35700219D01*
X29737882Y-35677793D01*
X29847150Y-35597150D01*
X29899760Y-35525866D01*
X29955408Y-35483615D01*
X29999530Y-35475500D01*
X30062599Y-35475500D01*
X30062601Y-35475500D01*
X30183536Y-35443095D01*
X30291964Y-35380495D01*
X30332185Y-35340273D01*
X30393506Y-35306789D01*
X30463197Y-35311773D01*
X30519131Y-35353643D01*
X30536906Y-35386999D01*
X30567422Y-35474208D01*
X30572207Y-35487882D01*
X30652850Y-35597150D01*
X30762118Y-35677793D01*
X30804845Y-35692744D01*
X30890299Y-35722646D01*
X30920730Y-35725500D01*
X30920734Y-35725500D01*
X31429270Y-35725500D01*
X31459699Y-35722646D01*
X31459701Y-35722646D01*
X31523790Y-35700219D01*
X31587882Y-35677793D01*
X31697150Y-35597150D01*
X31777793Y-35487882D01*
X31800249Y-35423707D01*
X31822646Y-35359701D01*
X31822646Y-35359699D01*
X31825500Y-35329269D01*
X31825500Y-34670730D01*
X31822646Y-34640300D01*
X31822646Y-34640298D01*
X31782577Y-34525791D01*
X31777793Y-34512118D01*
X31697150Y-34402850D01*
X31623794Y-34348711D01*
X31581545Y-34293065D01*
X31576086Y-34223408D01*
X31609154Y-34161859D01*
X31647339Y-34135509D01*
X31722765Y-34102206D01*
X31802206Y-34022765D01*
X31847585Y-33919991D01*
X31850500Y-33894865D01*
X31850499Y-33105205D01*
X32150000Y-33105205D01*
X32150000Y-33250000D01*
X32550000Y-33250000D01*
X32550000Y-32849339D01*
X33050000Y-32849339D01*
X33050000Y-33250000D01*
X33449999Y-33250000D01*
X33449999Y-33105214D01*
X33449997Y-33105191D01*
X33447091Y-33080130D01*
X33447090Y-33080126D01*
X33401788Y-32977525D01*
X33401785Y-32977520D01*
X33322479Y-32898214D01*
X33322476Y-32898212D01*
X33277637Y-32878414D01*
X33224261Y-32833328D01*
X33203733Y-32766542D01*
X33222571Y-32699260D01*
X33254090Y-32665208D01*
X33346792Y-32596791D01*
X33427346Y-32487645D01*
X33472149Y-32359604D01*
X33472149Y-32359600D01*
X33475000Y-32329206D01*
X33475000Y-32250000D01*
X33075000Y-32250000D01*
X33075000Y-32776361D01*
X33071500Y-32776361D01*
X33068320Y-32820833D01*
X33050000Y-32849339D01*
X32550000Y-32849339D01*
X32550000Y-32798637D01*
X32553143Y-32798637D01*
X32554319Y-32787178D01*
X32556680Y-32754165D01*
X32557904Y-32752260D01*
X32558075Y-32750596D01*
X32562692Y-32744809D01*
X32575000Y-32725659D01*
X32575000Y-32250000D01*
X32175001Y-32250000D01*
X32175001Y-32329196D01*
X32177851Y-32359606D01*
X32222653Y-32487645D01*
X32303208Y-32596793D01*
X32377193Y-32651396D01*
X32419444Y-32707043D01*
X32424903Y-32776699D01*
X32391836Y-32838249D01*
X32353646Y-32864600D01*
X32277527Y-32898209D01*
X32277520Y-32898214D01*
X32198214Y-32977520D01*
X32198211Y-32977525D01*
X32152910Y-33080122D01*
X32152910Y-33080124D01*
X32150000Y-33105205D01*
X31850499Y-33105205D01*
X31850499Y-33105136D01*
X31850497Y-33105117D01*
X31847586Y-33080012D01*
X31847585Y-33080010D01*
X31847585Y-33080009D01*
X31802206Y-32977235D01*
X31722765Y-32897794D01*
X31714021Y-32893933D01*
X31647342Y-32864491D01*
X31593966Y-32819405D01*
X31573439Y-32752618D01*
X31592278Y-32685336D01*
X31623791Y-32651290D01*
X31697150Y-32597150D01*
X31777793Y-32487882D01*
X31811938Y-32390301D01*
X31822646Y-32359701D01*
X31822646Y-32359699D01*
X31825500Y-32329269D01*
X31825500Y-31670730D01*
X31822646Y-31640300D01*
X31822646Y-31640298D01*
X31782577Y-31525791D01*
X31777793Y-31512118D01*
X31697150Y-31402850D01*
X31694676Y-31401024D01*
X31692633Y-31398333D01*
X31690576Y-31396276D01*
X31690857Y-31395994D01*
X31652427Y-31345375D01*
X31646970Y-31275719D01*
X31660921Y-31239262D01*
X31693095Y-31183536D01*
X31725500Y-31062601D01*
X31725500Y-30937399D01*
X31693095Y-30816464D01*
X31630495Y-30708036D01*
X31541964Y-30619505D01*
X31433536Y-30556905D01*
X31433537Y-30556905D01*
X31377769Y-30541962D01*
X31312601Y-30524500D01*
X31187399Y-30524500D01*
X31122231Y-30541962D01*
X31066463Y-30556905D01*
X30958037Y-30619504D01*
X30958034Y-30619506D01*
X30869506Y-30708034D01*
X30869504Y-30708037D01*
X30806905Y-30816463D01*
X30793823Y-30865285D01*
X30774500Y-30937399D01*
X30774500Y-31062601D01*
X30789748Y-31119505D01*
X30808651Y-31190053D01*
X30806988Y-31259903D01*
X30767826Y-31317766D01*
X30762510Y-31321917D01*
X30652850Y-31402850D01*
X30572207Y-31512117D01*
X30572206Y-31512119D01*
X30527353Y-31640298D01*
X30527353Y-31640300D01*
X30524500Y-31670730D01*
X30524500Y-32329269D01*
X30527353Y-32359699D01*
X30527353Y-32359701D01*
X30572206Y-32487880D01*
X30572207Y-32487882D01*
X30652848Y-32597148D01*
X30652850Y-32597150D01*
X30744922Y-32665102D01*
X30787171Y-32720747D01*
X30792630Y-32790403D01*
X30759563Y-32851952D01*
X30721375Y-32878304D01*
X30677233Y-32897795D01*
X30597794Y-32977234D01*
X30552415Y-33080006D01*
X30552415Y-33080008D01*
X30549500Y-33105131D01*
X30549500Y-33894856D01*
X30549502Y-33894882D01*
X30552413Y-33919987D01*
X30552415Y-33919991D01*
X30597793Y-34022764D01*
X30677235Y-34102206D01*
X30721373Y-34121695D01*
X30774750Y-34166781D01*
X30795277Y-34233567D01*
X30776439Y-34300849D01*
X30744921Y-34334899D01*
X30652850Y-34402850D01*
X30572207Y-34512117D01*
X30536906Y-34613000D01*
X30496184Y-34669776D01*
X30431231Y-34695522D01*
X30362669Y-34682065D01*
X30332184Y-34659725D01*
X30291965Y-34619506D01*
X30291964Y-34619505D01*
X30183536Y-34556905D01*
X30183537Y-34556905D01*
X30143224Y-34546103D01*
X30062601Y-34524500D01*
X29999530Y-34524500D01*
X29932491Y-34504815D01*
X29913309Y-34489618D01*
X29905889Y-34482439D01*
X29847150Y-34402850D01*
X29747967Y-34329650D01*
X29742029Y-34323905D01*
X29728694Y-34300416D01*
X29712366Y-34278909D01*
X29711706Y-34270488D01*
X29707536Y-34263143D01*
X29709017Y-34236177D01*
X29706907Y-34209253D01*
X29710904Y-34201812D01*
X29711368Y-34193378D01*
X29727194Y-34171492D01*
X29739975Y-34147704D01*
X29748800Y-34141614D01*
X29752310Y-34136761D01*
X29760467Y-34133563D01*
X29778167Y-34121351D01*
X29822476Y-34101787D01*
X29822479Y-34101785D01*
X29901785Y-34022479D01*
X29901788Y-34022474D01*
X29947089Y-33919877D01*
X29947089Y-33919875D01*
X29949999Y-33894794D01*
X29950000Y-33894791D01*
X29950000Y-33750000D01*
X28650001Y-33750000D01*
X28350500Y-33750000D01*
X28350499Y-33433536D01*
X28350499Y-33105205D01*
X28650000Y-33105205D01*
X28650000Y-33250000D01*
X29050000Y-33250000D01*
X29050000Y-32849339D01*
X29550000Y-32849339D01*
X29550000Y-33250000D01*
X29949999Y-33250000D01*
X29949999Y-33105214D01*
X29949997Y-33105191D01*
X29947091Y-33080130D01*
X29947090Y-33080126D01*
X29901788Y-32977525D01*
X29901785Y-32977520D01*
X29822479Y-32898214D01*
X29822476Y-32898212D01*
X29777637Y-32878414D01*
X29724261Y-32833328D01*
X29703733Y-32766542D01*
X29722571Y-32699260D01*
X29754090Y-32665208D01*
X29846792Y-32596791D01*
X29927346Y-32487645D01*
X29972149Y-32359604D01*
X29972149Y-32359600D01*
X29975000Y-32329206D01*
X29975000Y-32250000D01*
X29575000Y-32250000D01*
X29575000Y-32776361D01*
X29571500Y-32776361D01*
X29568320Y-32820833D01*
X29550000Y-32849339D01*
X29050000Y-32849339D01*
X29050000Y-32798637D01*
X29053143Y-32798637D01*
X29054319Y-32787178D01*
X29056680Y-32754165D01*
X29057904Y-32752260D01*
X29058075Y-32750596D01*
X29062692Y-32744809D01*
X29075000Y-32725659D01*
X29075000Y-32250000D01*
X28675001Y-32250000D01*
X28675001Y-32329196D01*
X28677851Y-32359606D01*
X28722653Y-32487645D01*
X28803208Y-32596793D01*
X28877193Y-32651396D01*
X28919444Y-32707043D01*
X28924903Y-32776699D01*
X28891836Y-32838249D01*
X28853646Y-32864600D01*
X28777527Y-32898209D01*
X28777520Y-32898214D01*
X28698214Y-32977520D01*
X28698211Y-32977525D01*
X28652910Y-33080122D01*
X28652910Y-33080124D01*
X28650000Y-33105205D01*
X28350499Y-33105205D01*
X28350499Y-33105143D01*
X28350499Y-33105136D01*
X28350497Y-33105117D01*
X28347586Y-33080012D01*
X28347585Y-33080010D01*
X28347585Y-33080009D01*
X28302206Y-32977235D01*
X28222765Y-32897794D01*
X28214021Y-32893933D01*
X28147342Y-32864491D01*
X28093966Y-32819405D01*
X28073439Y-32752618D01*
X28092278Y-32685336D01*
X28123791Y-32651290D01*
X28197150Y-32597150D01*
X28277793Y-32487882D01*
X28311938Y-32390301D01*
X28322646Y-32359701D01*
X28322646Y-32359699D01*
X28325500Y-32329269D01*
X28325500Y-31670793D01*
X28675000Y-31670793D01*
X28675000Y-31750000D01*
X29075000Y-31750000D01*
X29575000Y-31750000D01*
X29974999Y-31750000D01*
X29974999Y-31670803D01*
X29972148Y-31640393D01*
X29927346Y-31512354D01*
X29846792Y-31403207D01*
X29737645Y-31322653D01*
X29609602Y-31277850D01*
X29579207Y-31275000D01*
X29575000Y-31275000D01*
X29575000Y-31750000D01*
X29075000Y-31750000D01*
X29075000Y-31275000D01*
X29070796Y-31275001D01*
X29070774Y-31275002D01*
X29040399Y-31277850D01*
X29040394Y-31277851D01*
X28912354Y-31322653D01*
X28803207Y-31403207D01*
X28722653Y-31512354D01*
X28677850Y-31640395D01*
X28677850Y-31640399D01*
X28675000Y-31670793D01*
X28325500Y-31670793D01*
X28325500Y-31670730D01*
X28322646Y-31640300D01*
X28322646Y-31640298D01*
X28282577Y-31525791D01*
X28277793Y-31512118D01*
X28197150Y-31402850D01*
X28087882Y-31322207D01*
X28087880Y-31322206D01*
X27959700Y-31277353D01*
X27929270Y-31274500D01*
X27929266Y-31274500D01*
X27420734Y-31274500D01*
X27420730Y-31274500D01*
X27390300Y-31277353D01*
X27390298Y-31277353D01*
X27262119Y-31322206D01*
X27262117Y-31322207D01*
X27152850Y-31402850D01*
X27100240Y-31474134D01*
X27044592Y-31516385D01*
X27000470Y-31524500D01*
X26937399Y-31524500D01*
X26856775Y-31546103D01*
X26816463Y-31556905D01*
X26708037Y-31619504D01*
X26708034Y-31619506D01*
X26619506Y-31708034D01*
X26619504Y-31708037D01*
X26556905Y-31816463D01*
X26556903Y-31816468D01*
X26522923Y-31943280D01*
X26486558Y-32002940D01*
X26423711Y-32033468D01*
X26367141Y-32028648D01*
X26367073Y-32028964D01*
X26364659Y-32028436D01*
X26362196Y-32028227D01*
X26359699Y-32027353D01*
X26329270Y-32024500D01*
X26329266Y-32024500D01*
X25670734Y-32024500D01*
X25670730Y-32024500D01*
X25640301Y-32027353D01*
X25533382Y-32064766D01*
X25463603Y-32068327D01*
X25441282Y-32059435D01*
X25441042Y-32060015D01*
X25433541Y-32056907D01*
X25433536Y-32056905D01*
X25312601Y-32024500D01*
X25187399Y-32024500D01*
X25106775Y-32046103D01*
X25066463Y-32056905D01*
X24958037Y-32119504D01*
X24958034Y-32119506D01*
X24869506Y-32208034D01*
X24869504Y-32208037D01*
X24806905Y-32316463D01*
X24795345Y-32359604D01*
X24774500Y-32437399D01*
X21272928Y-32437399D01*
X22684536Y-31025791D01*
X25098507Y-28611819D01*
X25159830Y-28578334D01*
X25186188Y-28575500D01*
X27400500Y-28575500D01*
X27467539Y-28595185D01*
X27513294Y-28647989D01*
X27524500Y-28699500D01*
X27524500Y-28812601D01*
X27556905Y-28933536D01*
X27619505Y-29041964D01*
X27708036Y-29130495D01*
X27816464Y-29193095D01*
X27937399Y-29225500D01*
X27937401Y-29225500D01*
X28062599Y-29225500D01*
X28062601Y-29225500D01*
X28183536Y-29193095D01*
X28291964Y-29130495D01*
X28380495Y-29041964D01*
X28443095Y-28933536D01*
X28475500Y-28812601D01*
X28475500Y-28699500D01*
X28495185Y-28632461D01*
X28547989Y-28586706D01*
X28599500Y-28575500D01*
X30400500Y-28575500D01*
X30467539Y-28595185D01*
X30513294Y-28647989D01*
X30524500Y-28699500D01*
X30524500Y-29329269D01*
X30527353Y-29359699D01*
X30527353Y-29359701D01*
X30561487Y-29457247D01*
X30572207Y-29487882D01*
X30652850Y-29597150D01*
X30762118Y-29677793D01*
X30788433Y-29687001D01*
X30890299Y-29722646D01*
X30920730Y-29725500D01*
X30920734Y-29725500D01*
X31429270Y-29725500D01*
X31459699Y-29722646D01*
X31459701Y-29722646D01*
X31523790Y-29700219D01*
X31587882Y-29677793D01*
X31697150Y-29597150D01*
X31777793Y-29487882D01*
X31809961Y-29395951D01*
X31822646Y-29359701D01*
X31822646Y-29359699D01*
X31825500Y-29329269D01*
X31825500Y-28670730D01*
X31822646Y-28640300D01*
X31822646Y-28640298D01*
X31779115Y-28515897D01*
X31777793Y-28512118D01*
X31735666Y-28455037D01*
X31711696Y-28389411D01*
X31711806Y-28371848D01*
X31712690Y-28360403D01*
X31725500Y-28312601D01*
X31725500Y-28194715D01*
X31725869Y-28189942D01*
X31736638Y-28161568D01*
X31745185Y-28132461D01*
X31748911Y-28129232D01*
X31750662Y-28124619D01*
X31775064Y-28106569D01*
X31797989Y-28086706D01*
X31803559Y-28085494D01*
X31806836Y-28083071D01*
X31818102Y-28082330D01*
X31849500Y-28075500D01*
X32387356Y-28075500D01*
X32454395Y-28095185D01*
X32500150Y-28147989D01*
X32510094Y-28217147D01*
X32481069Y-28280703D01*
X32428311Y-28316541D01*
X32412119Y-28322206D01*
X32412117Y-28322207D01*
X32302850Y-28402850D01*
X32222207Y-28512117D01*
X32222206Y-28512119D01*
X32177353Y-28640298D01*
X32177353Y-28640300D01*
X32174500Y-28670730D01*
X32174500Y-29329269D01*
X32177353Y-29359699D01*
X32177353Y-29359701D01*
X32211487Y-29457247D01*
X32222207Y-29487882D01*
X32302849Y-29597149D01*
X32302851Y-29597151D01*
X32309421Y-29603721D01*
X32307590Y-29605551D01*
X32341377Y-29650033D01*
X32349500Y-29694176D01*
X32349500Y-30709460D01*
X32332888Y-30771458D01*
X32306907Y-30816459D01*
X32306905Y-30816462D01*
X32293823Y-30865285D01*
X32274500Y-30937399D01*
X32274500Y-31062601D01*
X32306905Y-31183536D01*
X32339073Y-31239254D01*
X32339327Y-31239693D01*
X32355799Y-31307593D01*
X32332946Y-31373620D01*
X32305574Y-31401461D01*
X32303208Y-31403206D01*
X32222653Y-31512354D01*
X32177850Y-31640395D01*
X32177850Y-31640399D01*
X32175000Y-31670793D01*
X32175000Y-31750000D01*
X33474999Y-31750000D01*
X33474999Y-31670803D01*
X33472148Y-31640393D01*
X33427346Y-31512354D01*
X33346792Y-31403207D01*
X33237350Y-31322435D01*
X33195099Y-31266787D01*
X33189641Y-31197131D01*
X33191209Y-31190570D01*
X33193092Y-31183539D01*
X33193095Y-31183536D01*
X33225500Y-31062601D01*
X33225500Y-30937399D01*
X33193095Y-30816464D01*
X33181228Y-30795909D01*
X33167112Y-30771458D01*
X33150500Y-30709460D01*
X33150500Y-30191254D01*
X33156738Y-30170008D01*
X33158318Y-30147920D01*
X33166390Y-30137136D01*
X33170185Y-30124215D01*
X33186918Y-30109715D01*
X33200190Y-30091987D01*
X33212810Y-30087279D01*
X33222989Y-30078460D01*
X33244906Y-30075308D01*
X33265654Y-30067570D01*
X33278814Y-30070432D01*
X33292147Y-30068516D01*
X33312290Y-30077715D01*
X33333927Y-30082422D01*
X33351652Y-30095690D01*
X33355703Y-30097541D01*
X33362181Y-30103573D01*
X33500179Y-30241571D01*
X33500189Y-30241582D01*
X33504519Y-30245912D01*
X33504520Y-30245913D01*
X33579087Y-30320480D01*
X33666105Y-30370720D01*
X33670413Y-30373207D01*
X33772273Y-30400501D01*
X33772276Y-30400501D01*
X33885323Y-30400501D01*
X33885339Y-30400500D01*
X34378157Y-30400500D01*
X34445196Y-30420185D01*
X34490951Y-30472989D01*
X34500895Y-30542147D01*
X34471870Y-30605703D01*
X34463559Y-30613534D01*
X34463783Y-30613758D01*
X34369506Y-30708034D01*
X34369504Y-30708037D01*
X34306905Y-30816463D01*
X34293823Y-30865285D01*
X34274500Y-30937399D01*
X34274500Y-31062601D01*
X34289748Y-31119505D01*
X34308651Y-31190053D01*
X34306988Y-31259903D01*
X34267826Y-31317766D01*
X34262510Y-31321917D01*
X34152850Y-31402850D01*
X34072207Y-31512117D01*
X34072206Y-31512119D01*
X34027353Y-31640298D01*
X34027353Y-31640300D01*
X34024500Y-31670730D01*
X34024500Y-32329269D01*
X34027353Y-32359699D01*
X34027353Y-32359701D01*
X34072206Y-32487880D01*
X34072207Y-32487882D01*
X34152848Y-32597148D01*
X34152850Y-32597150D01*
X34244922Y-32665102D01*
X34287171Y-32720747D01*
X34292630Y-32790403D01*
X34259563Y-32851952D01*
X34221375Y-32878304D01*
X34177233Y-32897795D01*
X34097794Y-32977234D01*
X34052415Y-33080006D01*
X34052415Y-33080008D01*
X34049500Y-33105131D01*
X34049500Y-33894856D01*
X34049502Y-33894882D01*
X34052413Y-33919987D01*
X34052415Y-33919991D01*
X34097793Y-34022764D01*
X34177235Y-34102206D01*
X34221373Y-34121695D01*
X34274750Y-34166781D01*
X34295277Y-34233567D01*
X34276439Y-34300849D01*
X34244921Y-34334899D01*
X34152850Y-34402850D01*
X34072207Y-34512117D01*
X34072206Y-34512119D01*
X34027353Y-34640298D01*
X34027353Y-34640300D01*
X34024500Y-34670730D01*
X34024500Y-35329269D01*
X34027353Y-35359699D01*
X34027354Y-35359701D01*
X34035714Y-35383593D01*
X34035999Y-35389186D01*
X34038854Y-35394009D01*
X34037761Y-35423707D01*
X34039276Y-35453372D01*
X34036491Y-35458232D01*
X34036286Y-35463832D01*
X34019313Y-35488221D01*
X34004548Y-35513999D01*
X33999577Y-35516583D01*
X33996377Y-35521182D01*
X33968914Y-35532523D01*
X33942554Y-35546227D01*
X33935612Y-35546276D01*
X33931797Y-35547852D01*
X33913610Y-35546432D01*
X33896527Y-35546554D01*
X33891502Y-35545642D01*
X33812601Y-35524500D01*
X33775027Y-35524500D01*
X33764042Y-35522506D01*
X33742391Y-35511639D01*
X33719149Y-35504815D01*
X33703223Y-35491982D01*
X33701596Y-35491165D01*
X33701036Y-35490218D01*
X33698507Y-35488181D01*
X33511819Y-35301492D01*
X33478334Y-35240169D01*
X33475500Y-35213811D01*
X33475500Y-34670730D01*
X33472646Y-34640300D01*
X33472646Y-34640298D01*
X33432577Y-34525791D01*
X33427793Y-34512118D01*
X33347150Y-34402850D01*
X33254616Y-34334557D01*
X33212366Y-34278909D01*
X33206907Y-34209253D01*
X33239975Y-34147704D01*
X33278167Y-34121351D01*
X33322476Y-34101787D01*
X33322479Y-34101785D01*
X33401785Y-34022479D01*
X33401788Y-34022474D01*
X33447089Y-33919877D01*
X33447089Y-33919875D01*
X33449999Y-33894794D01*
X33450000Y-33894791D01*
X33450000Y-33750000D01*
X32150001Y-33750000D01*
X32150001Y-33894785D01*
X32150002Y-33894808D01*
X32152908Y-33919869D01*
X32152909Y-33919873D01*
X32198211Y-34022474D01*
X32198214Y-34022479D01*
X32277520Y-34101785D01*
X32277524Y-34101788D01*
X32353118Y-34135165D01*
X32406495Y-34180250D01*
X32427023Y-34247036D01*
X32408186Y-34314318D01*
X32376668Y-34348370D01*
X32302849Y-34402851D01*
X32222207Y-34512117D01*
X32222206Y-34512119D01*
X32177353Y-34640298D01*
X32177353Y-34640300D01*
X32174500Y-34670730D01*
X32174500Y-35329269D01*
X32177353Y-35359699D01*
X32177353Y-35359701D01*
X32217422Y-35474208D01*
X32222207Y-35487882D01*
X32302850Y-35597150D01*
X32412118Y-35677793D01*
X32454845Y-35692744D01*
X32540299Y-35722646D01*
X32570730Y-35725500D01*
X32570734Y-35725500D01*
X32963811Y-35725500D01*
X33030850Y-35745185D01*
X33051492Y-35761819D01*
X33238181Y-35948507D01*
X33271666Y-36009830D01*
X33274500Y-36036188D01*
X33274500Y-36062601D01*
X33306905Y-36183536D01*
X33369505Y-36291964D01*
X33458036Y-36380495D01*
X33566464Y-36443095D01*
X33687399Y-36475500D01*
X33687401Y-36475500D01*
X33812599Y-36475500D01*
X33812601Y-36475500D01*
X33933536Y-36443095D01*
X34041964Y-36380495D01*
X34130495Y-36291964D01*
X34193095Y-36183536D01*
X34225500Y-36062601D01*
X34225500Y-35937399D01*
X34205677Y-35863419D01*
X34207339Y-35793571D01*
X34246500Y-35735708D01*
X34310728Y-35708203D01*
X34366405Y-35714284D01*
X34390301Y-35722646D01*
X34396387Y-35723216D01*
X34420730Y-35725500D01*
X34420734Y-35725500D01*
X34929270Y-35725500D01*
X34959699Y-35722646D01*
X34959701Y-35722646D01*
X35023790Y-35700219D01*
X35087882Y-35677793D01*
X35197150Y-35597150D01*
X35277793Y-35487882D01*
X35300249Y-35423707D01*
X35322646Y-35359701D01*
X35322646Y-35359699D01*
X35325500Y-35329269D01*
X35325500Y-34670730D01*
X35322646Y-34640300D01*
X35322646Y-34640298D01*
X35282577Y-34525791D01*
X35277793Y-34512118D01*
X35197150Y-34402850D01*
X35123794Y-34348711D01*
X35081545Y-34293065D01*
X35076086Y-34223408D01*
X35109154Y-34161859D01*
X35147339Y-34135509D01*
X35222765Y-34102206D01*
X35302206Y-34022765D01*
X35347585Y-33919991D01*
X35350500Y-33894865D01*
X35350499Y-33105205D01*
X35650000Y-33105205D01*
X35650000Y-33250000D01*
X36050000Y-33250000D01*
X36050000Y-32849339D01*
X36550000Y-32849339D01*
X36550000Y-33250000D01*
X36949999Y-33250000D01*
X36949999Y-33105214D01*
X36949997Y-33105191D01*
X36947091Y-33080130D01*
X36947090Y-33080126D01*
X36901788Y-32977525D01*
X36901785Y-32977520D01*
X36822479Y-32898214D01*
X36822476Y-32898212D01*
X36777637Y-32878414D01*
X36724261Y-32833328D01*
X36703733Y-32766542D01*
X36722571Y-32699260D01*
X36754090Y-32665208D01*
X36846792Y-32596791D01*
X36927346Y-32487645D01*
X36972149Y-32359604D01*
X36972149Y-32359600D01*
X36975000Y-32329206D01*
X36975000Y-32250000D01*
X36575000Y-32250000D01*
X36575000Y-32776361D01*
X36571500Y-32776361D01*
X36568320Y-32820833D01*
X36550000Y-32849339D01*
X36050000Y-32849339D01*
X36050000Y-32798637D01*
X36053143Y-32798637D01*
X36054319Y-32787178D01*
X36056680Y-32754165D01*
X36057904Y-32752260D01*
X36058075Y-32750596D01*
X36062692Y-32744809D01*
X36075000Y-32725659D01*
X36075000Y-32250000D01*
X35675001Y-32250000D01*
X35675001Y-32329196D01*
X35677851Y-32359606D01*
X35722653Y-32487645D01*
X35803208Y-32596793D01*
X35877193Y-32651396D01*
X35919444Y-32707043D01*
X35924903Y-32776699D01*
X35891836Y-32838249D01*
X35853646Y-32864600D01*
X35777527Y-32898209D01*
X35777520Y-32898214D01*
X35698214Y-32977520D01*
X35698211Y-32977525D01*
X35652910Y-33080122D01*
X35652910Y-33080124D01*
X35650000Y-33105205D01*
X35350499Y-33105205D01*
X35350499Y-33105136D01*
X35350497Y-33105117D01*
X35347586Y-33080012D01*
X35347585Y-33080010D01*
X35347585Y-33080009D01*
X35302206Y-32977235D01*
X35222765Y-32897794D01*
X35214021Y-32893933D01*
X35147342Y-32864491D01*
X35093966Y-32819405D01*
X35073439Y-32752618D01*
X35092278Y-32685336D01*
X35123791Y-32651290D01*
X35197150Y-32597150D01*
X35277793Y-32487882D01*
X35311938Y-32390301D01*
X35322646Y-32359701D01*
X35322646Y-32359699D01*
X35325500Y-32329269D01*
X35325500Y-31670793D01*
X35675000Y-31670793D01*
X35675000Y-31750000D01*
X36075000Y-31750000D01*
X36575000Y-31750000D01*
X36974999Y-31750000D01*
X36974999Y-31670803D01*
X36972148Y-31640393D01*
X36927346Y-31512354D01*
X36846792Y-31403207D01*
X36737645Y-31322653D01*
X36609602Y-31277850D01*
X36579207Y-31275000D01*
X36575000Y-31275000D01*
X36575000Y-31750000D01*
X36075000Y-31750000D01*
X36075000Y-31275000D01*
X36070796Y-31275001D01*
X36070774Y-31275002D01*
X36040399Y-31277850D01*
X36040394Y-31277851D01*
X35912354Y-31322653D01*
X35803207Y-31403207D01*
X35722653Y-31512354D01*
X35677850Y-31640395D01*
X35677850Y-31640399D01*
X35675000Y-31670793D01*
X35325500Y-31670793D01*
X35325500Y-31670730D01*
X35322646Y-31640300D01*
X35322646Y-31640298D01*
X35282577Y-31525791D01*
X35277793Y-31512118D01*
X35197150Y-31402850D01*
X35194676Y-31401024D01*
X35192633Y-31398333D01*
X35190576Y-31396276D01*
X35190857Y-31395994D01*
X35152427Y-31345375D01*
X35146970Y-31275719D01*
X35160921Y-31239262D01*
X35193095Y-31183536D01*
X35225500Y-31062601D01*
X35225500Y-30937399D01*
X35193095Y-30816464D01*
X35130495Y-30708036D01*
X35041964Y-30619505D01*
X35036217Y-30613758D01*
X35038228Y-30611746D01*
X35005152Y-30566443D01*
X35001000Y-30496697D01*
X35035215Y-30435778D01*
X35096934Y-30403028D01*
X35121843Y-30400500D01*
X35377725Y-30400500D01*
X35377727Y-30400500D01*
X35479588Y-30373207D01*
X35570913Y-30320480D01*
X36129573Y-29761818D01*
X36156500Y-29747115D01*
X36182319Y-29730523D01*
X36188519Y-29729631D01*
X36190896Y-29728334D01*
X36217254Y-29725500D01*
X36432745Y-29725500D01*
X36499784Y-29745185D01*
X36520426Y-29761819D01*
X37000179Y-30241571D01*
X37000189Y-30241582D01*
X37004519Y-30245912D01*
X37004520Y-30245913D01*
X37079087Y-30320480D01*
X37166105Y-30370720D01*
X37170413Y-30373207D01*
X37272273Y-30400501D01*
X37272276Y-30400501D01*
X37385323Y-30400501D01*
X37385339Y-30400500D01*
X37878157Y-30400500D01*
X37945196Y-30420185D01*
X37990951Y-30472989D01*
X38000895Y-30542147D01*
X37971870Y-30605703D01*
X37963559Y-30613534D01*
X37963783Y-30613758D01*
X37869506Y-30708034D01*
X37869504Y-30708037D01*
X37806905Y-30816463D01*
X37793823Y-30865285D01*
X37774500Y-30937399D01*
X37774500Y-31062601D01*
X37789748Y-31119505D01*
X37808651Y-31190053D01*
X37806988Y-31259903D01*
X37767826Y-31317766D01*
X37762510Y-31321917D01*
X37652850Y-31402850D01*
X37572207Y-31512117D01*
X37572206Y-31512119D01*
X37527353Y-31640298D01*
X37527353Y-31640300D01*
X37524500Y-31670730D01*
X37524500Y-32329269D01*
X37527353Y-32359699D01*
X37527353Y-32359701D01*
X37572206Y-32487880D01*
X37572207Y-32487882D01*
X37652848Y-32597148D01*
X37652850Y-32597150D01*
X37744922Y-32665102D01*
X37787171Y-32720747D01*
X37792630Y-32790403D01*
X37759563Y-32851952D01*
X37721375Y-32878304D01*
X37677233Y-32897795D01*
X37597794Y-32977234D01*
X37552415Y-33080006D01*
X37552415Y-33080008D01*
X37549500Y-33105131D01*
X37549500Y-33894856D01*
X37549502Y-33894882D01*
X37552413Y-33919987D01*
X37552415Y-33919991D01*
X37597793Y-34022764D01*
X37677235Y-34102206D01*
X37721373Y-34121695D01*
X37774750Y-34166781D01*
X37795277Y-34233567D01*
X37776439Y-34300849D01*
X37744921Y-34334899D01*
X37652850Y-34402850D01*
X37572207Y-34512117D01*
X37572206Y-34512119D01*
X37527353Y-34640298D01*
X37527353Y-34640300D01*
X37524500Y-34670730D01*
X37524500Y-35329269D01*
X37527353Y-35359699D01*
X37527354Y-35359701D01*
X37535714Y-35383593D01*
X37535999Y-35389186D01*
X37538854Y-35394009D01*
X37537761Y-35423707D01*
X37539276Y-35453372D01*
X37536491Y-35458232D01*
X37536286Y-35463832D01*
X37519313Y-35488221D01*
X37504548Y-35513999D01*
X37499577Y-35516583D01*
X37496377Y-35521182D01*
X37468914Y-35532523D01*
X37442554Y-35546227D01*
X37435612Y-35546276D01*
X37431797Y-35547852D01*
X37413610Y-35546432D01*
X37396527Y-35546554D01*
X37391502Y-35545642D01*
X37312601Y-35524500D01*
X37275027Y-35524500D01*
X37264042Y-35522506D01*
X37242391Y-35511639D01*
X37219149Y-35504815D01*
X37203223Y-35491982D01*
X37201596Y-35491165D01*
X37201036Y-35490218D01*
X37198507Y-35488181D01*
X37011819Y-35301492D01*
X36978334Y-35240169D01*
X36975500Y-35213811D01*
X36975500Y-34670730D01*
X36972646Y-34640300D01*
X36972646Y-34640298D01*
X36932577Y-34525791D01*
X36927793Y-34512118D01*
X36847150Y-34402850D01*
X36754616Y-34334557D01*
X36712366Y-34278909D01*
X36706907Y-34209253D01*
X36739975Y-34147704D01*
X36778167Y-34121351D01*
X36822476Y-34101787D01*
X36822479Y-34101785D01*
X36901785Y-34022479D01*
X36901788Y-34022474D01*
X36947089Y-33919877D01*
X36947089Y-33919875D01*
X36949999Y-33894794D01*
X36950000Y-33894791D01*
X36950000Y-33750000D01*
X35650001Y-33750000D01*
X35650001Y-33894785D01*
X35650002Y-33894808D01*
X35652908Y-33919869D01*
X35652909Y-33919873D01*
X35698211Y-34022474D01*
X35698214Y-34022479D01*
X35777520Y-34101785D01*
X35777524Y-34101788D01*
X35853118Y-34135165D01*
X35906495Y-34180250D01*
X35927023Y-34247036D01*
X35908186Y-34314318D01*
X35876668Y-34348370D01*
X35802849Y-34402851D01*
X35722207Y-34512117D01*
X35722206Y-34512119D01*
X35677353Y-34640298D01*
X35677353Y-34640300D01*
X35674500Y-34670730D01*
X35674500Y-35329269D01*
X35677353Y-35359699D01*
X35677353Y-35359701D01*
X35717422Y-35474208D01*
X35722207Y-35487882D01*
X35802850Y-35597150D01*
X35912118Y-35677793D01*
X35954845Y-35692744D01*
X36040299Y-35722646D01*
X36070730Y-35725500D01*
X36070734Y-35725500D01*
X36463811Y-35725500D01*
X36530850Y-35745185D01*
X36551492Y-35761819D01*
X36738181Y-35948507D01*
X36771666Y-36009830D01*
X36774500Y-36036188D01*
X36774500Y-36062601D01*
X36806905Y-36183536D01*
X36869505Y-36291964D01*
X36958036Y-36380495D01*
X37066464Y-36443095D01*
X37187399Y-36475500D01*
X37187401Y-36475500D01*
X37312599Y-36475500D01*
X37312601Y-36475500D01*
X37433536Y-36443095D01*
X37541964Y-36380495D01*
X37630495Y-36291964D01*
X37693095Y-36183536D01*
X37725500Y-36062601D01*
X37725500Y-35937399D01*
X37705677Y-35863419D01*
X37707339Y-35793571D01*
X37746500Y-35735708D01*
X37810728Y-35708203D01*
X37866405Y-35714284D01*
X37890301Y-35722646D01*
X37896387Y-35723216D01*
X37920730Y-35725500D01*
X37920734Y-35725500D01*
X38429270Y-35725500D01*
X38459699Y-35722646D01*
X38459701Y-35722646D01*
X38523790Y-35700219D01*
X38587882Y-35677793D01*
X38697150Y-35597150D01*
X38777793Y-35487882D01*
X38800249Y-35423707D01*
X38822646Y-35359701D01*
X38822646Y-35359699D01*
X38825500Y-35329269D01*
X38825500Y-34670730D01*
X38822646Y-34640300D01*
X38822646Y-34640298D01*
X38782577Y-34525791D01*
X38777793Y-34512118D01*
X38697150Y-34402850D01*
X38623794Y-34348711D01*
X38581545Y-34293065D01*
X38576086Y-34223408D01*
X38609154Y-34161859D01*
X38647339Y-34135509D01*
X38722765Y-34102206D01*
X38802206Y-34022765D01*
X38847585Y-33919991D01*
X38850500Y-33894865D01*
X38850500Y-33894785D01*
X39150001Y-33894785D01*
X39150002Y-33894808D01*
X39152908Y-33919869D01*
X39152909Y-33919873D01*
X39198211Y-34022474D01*
X39198214Y-34022479D01*
X39277520Y-34101785D01*
X39277524Y-34101788D01*
X39353118Y-34135165D01*
X39406495Y-34180250D01*
X39427023Y-34247036D01*
X39408186Y-34314318D01*
X39376668Y-34348370D01*
X39302849Y-34402851D01*
X39222207Y-34512117D01*
X39222206Y-34512119D01*
X39177353Y-34640298D01*
X39177353Y-34640300D01*
X39174500Y-34670730D01*
X39174500Y-35329269D01*
X39177353Y-35359699D01*
X39177353Y-35359701D01*
X39217422Y-35474208D01*
X39222207Y-35487882D01*
X39302850Y-35597150D01*
X39412118Y-35677793D01*
X39454845Y-35692744D01*
X39540299Y-35722646D01*
X39570730Y-35725500D01*
X39570734Y-35725500D01*
X39963811Y-35725500D01*
X40030850Y-35745185D01*
X40051492Y-35761819D01*
X40238181Y-35948507D01*
X40271666Y-36009830D01*
X40274500Y-36036188D01*
X40274500Y-36062601D01*
X40306905Y-36183536D01*
X40369505Y-36291964D01*
X40458036Y-36380495D01*
X40566464Y-36443095D01*
X40687399Y-36475500D01*
X40687401Y-36475500D01*
X40812599Y-36475500D01*
X40812601Y-36475500D01*
X40933536Y-36443095D01*
X41041964Y-36380495D01*
X41130495Y-36291964D01*
X41193095Y-36183536D01*
X41225500Y-36062601D01*
X41225500Y-35937399D01*
X41193095Y-35816464D01*
X41130495Y-35708036D01*
X41041964Y-35619505D01*
X40933536Y-35556905D01*
X40933537Y-35556905D01*
X40893224Y-35546103D01*
X40812601Y-35524500D01*
X40812599Y-35524500D01*
X40786188Y-35524500D01*
X40719149Y-35504815D01*
X40698507Y-35488181D01*
X40511819Y-35301492D01*
X40478334Y-35240169D01*
X40475500Y-35213811D01*
X40475500Y-34670730D01*
X40472646Y-34640300D01*
X40472646Y-34640298D01*
X40432577Y-34525791D01*
X40427793Y-34512118D01*
X40347150Y-34402850D01*
X40254616Y-34334557D01*
X40212366Y-34278909D01*
X40206907Y-34209253D01*
X40239975Y-34147704D01*
X40278167Y-34121351D01*
X40322476Y-34101787D01*
X40322479Y-34101785D01*
X40401785Y-34022479D01*
X40401788Y-34022474D01*
X40447089Y-33919877D01*
X40447089Y-33919875D01*
X40449999Y-33894794D01*
X40450000Y-33894791D01*
X40450000Y-33750000D01*
X39150001Y-33750000D01*
X39150001Y-33894785D01*
X38850500Y-33894785D01*
X38850499Y-33433536D01*
X38850499Y-33105205D01*
X39150000Y-33105205D01*
X39150000Y-33250000D01*
X39550000Y-33250000D01*
X39550000Y-32849339D01*
X40050000Y-32849339D01*
X40050000Y-33250000D01*
X40449999Y-33250000D01*
X40449999Y-33105214D01*
X40449997Y-33105191D01*
X40447091Y-33080130D01*
X40447090Y-33080126D01*
X40401788Y-32977525D01*
X40401785Y-32977520D01*
X40322479Y-32898214D01*
X40322476Y-32898212D01*
X40277637Y-32878414D01*
X40224261Y-32833328D01*
X40203733Y-32766542D01*
X40222571Y-32699260D01*
X40254090Y-32665208D01*
X40346792Y-32596791D01*
X40427346Y-32487645D01*
X40472149Y-32359604D01*
X40472149Y-32359600D01*
X40475000Y-32329206D01*
X40475000Y-32250000D01*
X40075000Y-32250000D01*
X40075000Y-32776361D01*
X40071500Y-32776361D01*
X40068320Y-32820833D01*
X40050000Y-32849339D01*
X39550000Y-32849339D01*
X39550000Y-32798637D01*
X39553143Y-32798637D01*
X39554319Y-32787178D01*
X39556680Y-32754165D01*
X39557904Y-32752260D01*
X39558075Y-32750596D01*
X39562692Y-32744809D01*
X39575000Y-32725659D01*
X39575000Y-32250000D01*
X39175001Y-32250000D01*
X39175001Y-32329196D01*
X39177851Y-32359606D01*
X39222653Y-32487645D01*
X39303208Y-32596793D01*
X39377193Y-32651396D01*
X39419444Y-32707043D01*
X39424903Y-32776699D01*
X39391836Y-32838249D01*
X39353646Y-32864600D01*
X39277527Y-32898209D01*
X39277520Y-32898214D01*
X39198214Y-32977520D01*
X39198211Y-32977525D01*
X39152910Y-33080122D01*
X39152910Y-33080124D01*
X39150000Y-33105205D01*
X38850499Y-33105205D01*
X38850499Y-33105143D01*
X38850499Y-33105136D01*
X38850497Y-33105117D01*
X38847586Y-33080012D01*
X38847585Y-33080010D01*
X38847585Y-33080009D01*
X38802206Y-32977235D01*
X38722765Y-32897794D01*
X38714021Y-32893933D01*
X38647342Y-32864491D01*
X38593966Y-32819405D01*
X38573439Y-32752618D01*
X38592278Y-32685336D01*
X38623791Y-32651290D01*
X38697150Y-32597150D01*
X38777793Y-32487882D01*
X38811938Y-32390301D01*
X38822646Y-32359701D01*
X38822646Y-32359699D01*
X38825500Y-32329269D01*
X38825500Y-31670793D01*
X39175000Y-31670793D01*
X39175000Y-31750000D01*
X39575000Y-31750000D01*
X40075000Y-31750000D01*
X40474999Y-31750000D01*
X40474999Y-31670803D01*
X40472148Y-31640393D01*
X40427346Y-31512354D01*
X40346792Y-31403207D01*
X40237645Y-31322653D01*
X40109602Y-31277850D01*
X40079207Y-31275000D01*
X40075000Y-31275000D01*
X40075000Y-31750000D01*
X39575000Y-31750000D01*
X39575000Y-31275000D01*
X39570796Y-31275001D01*
X39570774Y-31275002D01*
X39540399Y-31277850D01*
X39540394Y-31277851D01*
X39412354Y-31322653D01*
X39303207Y-31403207D01*
X39222653Y-31512354D01*
X39177850Y-31640395D01*
X39177850Y-31640399D01*
X39175000Y-31670793D01*
X38825500Y-31670793D01*
X38825500Y-31670730D01*
X38822646Y-31640300D01*
X38822646Y-31640298D01*
X38782577Y-31525791D01*
X38777793Y-31512118D01*
X38697150Y-31402850D01*
X38694676Y-31401024D01*
X38692633Y-31398333D01*
X38690576Y-31396276D01*
X38690857Y-31395994D01*
X38652427Y-31345375D01*
X38646970Y-31275719D01*
X38660921Y-31239262D01*
X38693095Y-31183536D01*
X38725500Y-31062601D01*
X38725500Y-30937399D01*
X38693095Y-30816464D01*
X38630495Y-30708036D01*
X38541964Y-30619505D01*
X38536217Y-30613758D01*
X38538228Y-30611746D01*
X38505152Y-30566443D01*
X38501000Y-30496697D01*
X38535215Y-30435778D01*
X38596934Y-30403028D01*
X38621843Y-30400500D01*
X38877725Y-30400500D01*
X38877727Y-30400500D01*
X38979588Y-30373207D01*
X39070913Y-30320480D01*
X39629573Y-29761818D01*
X39690896Y-29728334D01*
X39717254Y-29725500D01*
X40079270Y-29725500D01*
X40109699Y-29722646D01*
X40109701Y-29722646D01*
X40173790Y-29700219D01*
X40237882Y-29677793D01*
X40347150Y-29597150D01*
X40427793Y-29487882D01*
X40459961Y-29395951D01*
X40472646Y-29359701D01*
X40472646Y-29359699D01*
X40475500Y-29329269D01*
X40475500Y-28937399D01*
X44524500Y-28937399D01*
X44524500Y-29062601D01*
X44556905Y-29183536D01*
X44619505Y-29291964D01*
X44708036Y-29380495D01*
X44816464Y-29443095D01*
X44937399Y-29475500D01*
X44937401Y-29475500D01*
X45062599Y-29475500D01*
X45062601Y-29475500D01*
X45183536Y-29443095D01*
X45291964Y-29380495D01*
X45380495Y-29291964D01*
X45443095Y-29183536D01*
X45475500Y-29062601D01*
X45475500Y-28937399D01*
X45443095Y-28816464D01*
X45428951Y-28791965D01*
X45417112Y-28771458D01*
X45412962Y-28755970D01*
X45405523Y-28744395D01*
X45400500Y-28709460D01*
X45400500Y-28542255D01*
X45420185Y-28475216D01*
X45436819Y-28454574D01*
X46379574Y-27511819D01*
X46440897Y-27478334D01*
X46467255Y-27475500D01*
X46829270Y-27475500D01*
X46859699Y-27472646D01*
X46859701Y-27472646D01*
X46944151Y-27443095D01*
X46987882Y-27427793D01*
X47097150Y-27347150D01*
X47150230Y-27275229D01*
X47205877Y-27232978D01*
X47275533Y-27227519D01*
X47337083Y-27260586D01*
X47349770Y-27275229D01*
X47402848Y-27347148D01*
X47402849Y-27347148D01*
X47402850Y-27347150D01*
X47448580Y-27380900D01*
X47512118Y-27427793D01*
X47512121Y-27427794D01*
X47516452Y-27429310D01*
X47573229Y-27470030D01*
X47598978Y-27534982D01*
X47599500Y-27546352D01*
X47599500Y-28709460D01*
X47582888Y-28771458D01*
X47556907Y-28816459D01*
X47556905Y-28816462D01*
X47545320Y-28859699D01*
X47524500Y-28937399D01*
X47524500Y-29062601D01*
X47556905Y-29183536D01*
X47619505Y-29291964D01*
X47708036Y-29380495D01*
X47816464Y-29443095D01*
X47937399Y-29475500D01*
X47937401Y-29475500D01*
X48062599Y-29475500D01*
X48062601Y-29475500D01*
X48183536Y-29443095D01*
X48291964Y-29380495D01*
X48380495Y-29291964D01*
X48443095Y-29183536D01*
X48475500Y-29062601D01*
X48475500Y-28937399D01*
X48443095Y-28816464D01*
X48428951Y-28791965D01*
X48417112Y-28771458D01*
X48400500Y-28709460D01*
X48400500Y-27546352D01*
X48420185Y-27479313D01*
X48472989Y-27433558D01*
X48483548Y-27429310D01*
X48485915Y-27428481D01*
X48487882Y-27427793D01*
X48597150Y-27347150D01*
X48650230Y-27275229D01*
X48705877Y-27232978D01*
X48775533Y-27227519D01*
X48837083Y-27260586D01*
X48849770Y-27275229D01*
X48902848Y-27347148D01*
X48902849Y-27347148D01*
X48902850Y-27347150D01*
X49012118Y-27427793D01*
X49038433Y-27437001D01*
X49140299Y-27472646D01*
X49170730Y-27475500D01*
X49170734Y-27475500D01*
X49532745Y-27475500D01*
X49599784Y-27495185D01*
X49620426Y-27511819D01*
X50563181Y-28454574D01*
X50577884Y-28481501D01*
X50594477Y-28507320D01*
X50595368Y-28513520D01*
X50596666Y-28515897D01*
X50599500Y-28542255D01*
X50599500Y-28709460D01*
X50582888Y-28771458D01*
X50556907Y-28816459D01*
X50556905Y-28816462D01*
X50545320Y-28859699D01*
X50524500Y-28937399D01*
X50524500Y-29062601D01*
X50556905Y-29183536D01*
X50619505Y-29291964D01*
X50708036Y-29380495D01*
X50816464Y-29443095D01*
X50937399Y-29475500D01*
X50937401Y-29475500D01*
X51062599Y-29475500D01*
X51062601Y-29475500D01*
X51183536Y-29443095D01*
X51291964Y-29380495D01*
X51380495Y-29291964D01*
X51443095Y-29183536D01*
X51475500Y-29062601D01*
X51475500Y-28937399D01*
X51443095Y-28816464D01*
X51428951Y-28791965D01*
X51417112Y-28771458D01*
X51400500Y-28709460D01*
X51400500Y-28272275D01*
X51400500Y-28272273D01*
X51373207Y-28170413D01*
X51320480Y-28079087D01*
X51245913Y-28004520D01*
X50261819Y-27020426D01*
X50228334Y-26959103D01*
X50225500Y-26932745D01*
X50225500Y-26570730D01*
X50222646Y-26540300D01*
X50222646Y-26540298D01*
X50177793Y-26412119D01*
X50177792Y-26412117D01*
X50097150Y-26302850D01*
X49987882Y-26222207D01*
X49987880Y-26222206D01*
X49859700Y-26177353D01*
X49829270Y-26174500D01*
X49829266Y-26174500D01*
X49170734Y-26174500D01*
X49170730Y-26174500D01*
X49140300Y-26177353D01*
X49140298Y-26177353D01*
X49012119Y-26222206D01*
X49012117Y-26222207D01*
X48902850Y-26302850D01*
X48849770Y-26374771D01*
X48794122Y-26417022D01*
X48724466Y-26422480D01*
X48662917Y-26389412D01*
X48650230Y-26374771D01*
X48606775Y-26315892D01*
X48597150Y-26302850D01*
X48487882Y-26222207D01*
X48487880Y-26222206D01*
X48359700Y-26177353D01*
X48329270Y-26174500D01*
X48329266Y-26174500D01*
X47670734Y-26174500D01*
X47670730Y-26174500D01*
X47640300Y-26177353D01*
X47640298Y-26177353D01*
X47512119Y-26222206D01*
X47512117Y-26222207D01*
X47402850Y-26302850D01*
X47349770Y-26374771D01*
X47294122Y-26417022D01*
X47224466Y-26422480D01*
X47162917Y-26389412D01*
X47150230Y-26374771D01*
X47106775Y-26315892D01*
X47097150Y-26302850D01*
X46987882Y-26222207D01*
X46987880Y-26222206D01*
X46859700Y-26177353D01*
X46829270Y-26174500D01*
X46829266Y-26174500D01*
X46170734Y-26174500D01*
X46170730Y-26174500D01*
X46140300Y-26177353D01*
X46140298Y-26177353D01*
X46012119Y-26222206D01*
X46012117Y-26222207D01*
X45902850Y-26302850D01*
X45822207Y-26412117D01*
X45822206Y-26412119D01*
X45777353Y-26540298D01*
X45777353Y-26540300D01*
X45774500Y-26570730D01*
X45774500Y-26932745D01*
X45754815Y-26999784D01*
X45738181Y-27020426D01*
X44679522Y-28079084D01*
X44679518Y-28079090D01*
X44626792Y-28170413D01*
X44626791Y-28170415D01*
X44620825Y-28192684D01*
X44620825Y-28192686D01*
X44599500Y-28272273D01*
X44599500Y-28709460D01*
X44598750Y-28712256D01*
X44599384Y-28714817D01*
X44592857Y-28749502D01*
X44588944Y-28760969D01*
X44556905Y-28816464D01*
X44524500Y-28937399D01*
X40475500Y-28937399D01*
X40475500Y-28670730D01*
X40472646Y-28640300D01*
X40472646Y-28640298D01*
X40429115Y-28515897D01*
X40427793Y-28512118D01*
X40347150Y-28402850D01*
X40237882Y-28322207D01*
X40237880Y-28322206D01*
X40109700Y-28277353D01*
X40079270Y-28274500D01*
X40079266Y-28274500D01*
X39570734Y-28274500D01*
X39570730Y-28274500D01*
X39540300Y-28277353D01*
X39540298Y-28277353D01*
X39412119Y-28322206D01*
X39412117Y-28322207D01*
X39302850Y-28402850D01*
X39222207Y-28512117D01*
X39222206Y-28512119D01*
X39177353Y-28640298D01*
X39177353Y-28640300D01*
X39174500Y-28670730D01*
X39174500Y-29032744D01*
X39165855Y-29062184D01*
X39159332Y-29092171D01*
X39155577Y-29097186D01*
X39154815Y-29099783D01*
X39138181Y-29120425D01*
X39037181Y-29221425D01*
X38975858Y-29254910D01*
X38906166Y-29249926D01*
X38850233Y-29208054D01*
X38825816Y-29142590D01*
X38825500Y-29133744D01*
X38825500Y-28670730D01*
X38822646Y-28640300D01*
X38822646Y-28640298D01*
X38779115Y-28515897D01*
X38777793Y-28512118D01*
X38735666Y-28455037D01*
X38711696Y-28389411D01*
X38715663Y-28349310D01*
X38720391Y-28331666D01*
X38725500Y-28312601D01*
X38725500Y-28187399D01*
X38693095Y-28066464D01*
X38630495Y-27958036D01*
X38541964Y-27869505D01*
X38433536Y-27806905D01*
X38433537Y-27806905D01*
X38387584Y-27794592D01*
X38312601Y-27774500D01*
X38312599Y-27774500D01*
X38286188Y-27774500D01*
X38219149Y-27754815D01*
X38198507Y-27738181D01*
X37841226Y-27380900D01*
X37449862Y-26989535D01*
X37397153Y-26959103D01*
X37375640Y-26946682D01*
X37323624Y-26932745D01*
X37292853Y-26924500D01*
X37292852Y-26924500D01*
X35585189Y-26924500D01*
X35518150Y-26904815D01*
X35472395Y-26852011D01*
X35462451Y-26782853D01*
X35491476Y-26719297D01*
X35497508Y-26712819D01*
X36460327Y-25750000D01*
X40807659Y-25750000D01*
X41669576Y-25750000D01*
X41645000Y-25905164D01*
X41645000Y-26094836D01*
X41669576Y-26250000D01*
X40807659Y-26250000D01*
X40827703Y-26402256D01*
X40897511Y-26662781D01*
X41000719Y-26911950D01*
X41000726Y-26911965D01*
X41135579Y-27145538D01*
X41299768Y-27359513D01*
X41299774Y-27359520D01*
X41490479Y-27550225D01*
X41490486Y-27550231D01*
X41704461Y-27714420D01*
X41938034Y-27849273D01*
X41938049Y-27849280D01*
X42187218Y-27952488D01*
X42447743Y-28022296D01*
X42600000Y-28042340D01*
X42600000Y-27180424D01*
X42755164Y-27205000D01*
X42944836Y-27205000D01*
X43100000Y-27180424D01*
X43100000Y-28042339D01*
X43252256Y-28022296D01*
X43512781Y-27952488D01*
X43761950Y-27849280D01*
X43761965Y-27849273D01*
X43995538Y-27714420D01*
X44209513Y-27550231D01*
X44209520Y-27550225D01*
X44400225Y-27359520D01*
X44400231Y-27359513D01*
X44564420Y-27145538D01*
X44699273Y-26911965D01*
X44699280Y-26911950D01*
X44802488Y-26662781D01*
X44872296Y-26402256D01*
X44892341Y-26250000D01*
X44030424Y-26250000D01*
X44055000Y-26094836D01*
X44055000Y-25905164D01*
X44030424Y-25750000D01*
X44892340Y-25750000D01*
X44872296Y-25597743D01*
X44802488Y-25337218D01*
X44699280Y-25088049D01*
X44699275Y-25088039D01*
X44636804Y-24979834D01*
X44636803Y-24979832D01*
X44602680Y-24920730D01*
X45774500Y-24920730D01*
X45774500Y-25429269D01*
X45777353Y-25459699D01*
X45777353Y-25459701D01*
X45820491Y-25582978D01*
X45822207Y-25587882D01*
X45902850Y-25697150D01*
X46012118Y-25777793D01*
X46052611Y-25791962D01*
X46140299Y-25822646D01*
X46170730Y-25825500D01*
X46170734Y-25825500D01*
X46829270Y-25825500D01*
X46859699Y-25822646D01*
X46859701Y-25822646D01*
X46923790Y-25800219D01*
X46987882Y-25777793D01*
X47097150Y-25697150D01*
X47150230Y-25625229D01*
X47205877Y-25582978D01*
X47275533Y-25577519D01*
X47337083Y-25610586D01*
X47349770Y-25625229D01*
X47402848Y-25697148D01*
X47402849Y-25697148D01*
X47402850Y-25697150D01*
X47512118Y-25777793D01*
X47552611Y-25791962D01*
X47640299Y-25822646D01*
X47670730Y-25825500D01*
X47670734Y-25825500D01*
X48329270Y-25825500D01*
X48359699Y-25822646D01*
X48359701Y-25822646D01*
X48423790Y-25800219D01*
X48487882Y-25777793D01*
X48597150Y-25697150D01*
X48650230Y-25625229D01*
X48705877Y-25582978D01*
X48775533Y-25577519D01*
X48837083Y-25610586D01*
X48849770Y-25625229D01*
X48902848Y-25697148D01*
X48902849Y-25697148D01*
X48902850Y-25697150D01*
X49012118Y-25777793D01*
X49052611Y-25791962D01*
X49140299Y-25822646D01*
X49170730Y-25825500D01*
X49170734Y-25825500D01*
X49829270Y-25825500D01*
X49859699Y-25822646D01*
X49859701Y-25822646D01*
X49923790Y-25800219D01*
X49987882Y-25777793D01*
X50025540Y-25750000D01*
X51107659Y-25750000D01*
X51969576Y-25750000D01*
X51945000Y-25905164D01*
X51945000Y-26094836D01*
X51969576Y-26250000D01*
X51107659Y-26250000D01*
X51127703Y-26402256D01*
X51197511Y-26662781D01*
X51300719Y-26911950D01*
X51300726Y-26911965D01*
X51435579Y-27145538D01*
X51599768Y-27359513D01*
X51599774Y-27359520D01*
X51790479Y-27550225D01*
X51790486Y-27550231D01*
X52004461Y-27714420D01*
X52238034Y-27849273D01*
X52238049Y-27849280D01*
X52487218Y-27952488D01*
X52747743Y-28022296D01*
X52900000Y-28042340D01*
X52900000Y-27180424D01*
X53055164Y-27205000D01*
X53244836Y-27205000D01*
X53400000Y-27180424D01*
X53400000Y-28042339D01*
X53552256Y-28022296D01*
X53812781Y-27952488D01*
X54061950Y-27849280D01*
X54061965Y-27849273D01*
X54295538Y-27714420D01*
X54509513Y-27550231D01*
X54509520Y-27550225D01*
X54700225Y-27359520D01*
X54700231Y-27359513D01*
X54864420Y-27145538D01*
X54999273Y-26911965D01*
X54999280Y-26911950D01*
X55102488Y-26662781D01*
X55172296Y-26402256D01*
X55192341Y-26250000D01*
X54330424Y-26250000D01*
X54355000Y-26094836D01*
X54355000Y-25905164D01*
X54330424Y-25750000D01*
X55192340Y-25750000D01*
X55172296Y-25597743D01*
X55102488Y-25337218D01*
X54999280Y-25088049D01*
X54999273Y-25088034D01*
X54864420Y-24854461D01*
X54700231Y-24640486D01*
X54700225Y-24640479D01*
X54509520Y-24449774D01*
X54509513Y-24449768D01*
X54295538Y-24285579D01*
X54061965Y-24150726D01*
X54061950Y-24150719D01*
X53812781Y-24047511D01*
X53552256Y-23977703D01*
X53400000Y-23957657D01*
X53400000Y-24819575D01*
X53244836Y-24795000D01*
X53055164Y-24795000D01*
X52900000Y-24819575D01*
X52900000Y-23957657D01*
X52899999Y-23957657D01*
X52747743Y-23977703D01*
X52487218Y-24047511D01*
X52238049Y-24150719D01*
X52238034Y-24150726D01*
X52004461Y-24285579D01*
X51790486Y-24449768D01*
X51790479Y-24449774D01*
X51599774Y-24640479D01*
X51599768Y-24640486D01*
X51435579Y-24854461D01*
X51300726Y-25088034D01*
X51300719Y-25088049D01*
X51197511Y-25337218D01*
X51127703Y-25597743D01*
X51107659Y-25750000D01*
X50025540Y-25750000D01*
X50097150Y-25697150D01*
X50177793Y-25587882D01*
X50200219Y-25523790D01*
X50222646Y-25459701D01*
X50222646Y-25459699D01*
X50225500Y-25429269D01*
X50225500Y-24920730D01*
X50222646Y-24890300D01*
X50222646Y-24890298D01*
X50188178Y-24791796D01*
X50177793Y-24762118D01*
X50097150Y-24652850D01*
X49987882Y-24572207D01*
X49987881Y-24572206D01*
X49987489Y-24571917D01*
X49945239Y-24516270D01*
X49939780Y-24446613D01*
X49941348Y-24440053D01*
X49943093Y-24433538D01*
X49943095Y-24433536D01*
X49975500Y-24312601D01*
X49975500Y-24187399D01*
X49943095Y-24066464D01*
X49880495Y-23958036D01*
X49791964Y-23869505D01*
X49683536Y-23806905D01*
X49683537Y-23806905D01*
X49622958Y-23790673D01*
X49562601Y-23774500D01*
X49437399Y-23774500D01*
X49377042Y-23790673D01*
X49316463Y-23806905D01*
X49208037Y-23869504D01*
X49208034Y-23869506D01*
X49119506Y-23958034D01*
X49119504Y-23958037D01*
X49056905Y-24066463D01*
X49048682Y-24097151D01*
X49024500Y-24187399D01*
X49024500Y-24312601D01*
X49039748Y-24369505D01*
X49058651Y-24440053D01*
X49056988Y-24509903D01*
X49017826Y-24567766D01*
X49012510Y-24571917D01*
X48902850Y-24652850D01*
X48849770Y-24724771D01*
X48794122Y-24767022D01*
X48724466Y-24772480D01*
X48662917Y-24739412D01*
X48650230Y-24724771D01*
X48636693Y-24706429D01*
X48597150Y-24652850D01*
X48487882Y-24572207D01*
X48487881Y-24572206D01*
X48487489Y-24571917D01*
X48445239Y-24516270D01*
X48439780Y-24446613D01*
X48441348Y-24440053D01*
X48443093Y-24433538D01*
X48443095Y-24433536D01*
X48475500Y-24312601D01*
X48475500Y-24187399D01*
X48443095Y-24066464D01*
X48380495Y-23958036D01*
X48291964Y-23869505D01*
X48183536Y-23806905D01*
X48183537Y-23806905D01*
X48122958Y-23790673D01*
X48062601Y-23774500D01*
X47937399Y-23774500D01*
X47877042Y-23790673D01*
X47816463Y-23806905D01*
X47708037Y-23869504D01*
X47708034Y-23869506D01*
X47619506Y-23958034D01*
X47619504Y-23958037D01*
X47556905Y-24066463D01*
X47548682Y-24097151D01*
X47524500Y-24187399D01*
X47524500Y-24312601D01*
X47539748Y-24369505D01*
X47558651Y-24440053D01*
X47556988Y-24509903D01*
X47517826Y-24567766D01*
X47512510Y-24571917D01*
X47402850Y-24652850D01*
X47349770Y-24724771D01*
X47294122Y-24767022D01*
X47224466Y-24772480D01*
X47162917Y-24739412D01*
X47150230Y-24724771D01*
X47136693Y-24706429D01*
X47097150Y-24652850D01*
X46987882Y-24572207D01*
X46987881Y-24572206D01*
X46987489Y-24571917D01*
X46945239Y-24516270D01*
X46939780Y-24446613D01*
X46941348Y-24440053D01*
X46943093Y-24433538D01*
X46943095Y-24433536D01*
X46975500Y-24312601D01*
X46975500Y-24187399D01*
X46943095Y-24066464D01*
X46880495Y-23958036D01*
X46791964Y-23869505D01*
X46683536Y-23806905D01*
X46683537Y-23806905D01*
X46622958Y-23790673D01*
X46562601Y-23774500D01*
X46437399Y-23774500D01*
X46377042Y-23790673D01*
X46316463Y-23806905D01*
X46208037Y-23869504D01*
X46208034Y-23869506D01*
X46119506Y-23958034D01*
X46119504Y-23958037D01*
X46056905Y-24066463D01*
X46048682Y-24097151D01*
X46024500Y-24187399D01*
X46024500Y-24312601D01*
X46039748Y-24369505D01*
X46058651Y-24440053D01*
X46056988Y-24509903D01*
X46017826Y-24567766D01*
X46012510Y-24571917D01*
X45902850Y-24652850D01*
X45822207Y-24762117D01*
X45822206Y-24762119D01*
X45777353Y-24890298D01*
X45777353Y-24890300D01*
X45774500Y-24920730D01*
X44602680Y-24920730D01*
X44564420Y-24854461D01*
X44400231Y-24640486D01*
X44400225Y-24640479D01*
X44209520Y-24449774D01*
X44209513Y-24449768D01*
X43995538Y-24285579D01*
X43761965Y-24150726D01*
X43761950Y-24150719D01*
X43512781Y-24047511D01*
X43252256Y-23977703D01*
X43100000Y-23957657D01*
X43100000Y-24819575D01*
X42944836Y-24795000D01*
X42755164Y-24795000D01*
X42600000Y-24819575D01*
X42600000Y-23957657D01*
X42447743Y-23977703D01*
X42187218Y-24047511D01*
X41938049Y-24150719D01*
X41938034Y-24150726D01*
X41704461Y-24285579D01*
X41490486Y-24449768D01*
X41490479Y-24449774D01*
X41299774Y-24640479D01*
X41299768Y-24640486D01*
X41135579Y-24854461D01*
X41000726Y-25088034D01*
X41000719Y-25088049D01*
X40897511Y-25337218D01*
X40827703Y-25597743D01*
X40807659Y-25750000D01*
X36460327Y-25750000D01*
X36948508Y-25261819D01*
X37009831Y-25228334D01*
X37036189Y-25225500D01*
X37062599Y-25225500D01*
X37062601Y-25225500D01*
X37183536Y-25193095D01*
X37291964Y-25130495D01*
X37380495Y-25041964D01*
X37443095Y-24933536D01*
X37475500Y-24812601D01*
X37475500Y-24687399D01*
X37443095Y-24566464D01*
X37380495Y-24458036D01*
X37291964Y-24369505D01*
X37183536Y-24306905D01*
X37183537Y-24306905D01*
X37135834Y-24294123D01*
X37062601Y-24274500D01*
X36985188Y-24274500D01*
X36963942Y-24268261D01*
X36941854Y-24266682D01*
X36931070Y-24258609D01*
X36918149Y-24254815D01*
X36903649Y-24238081D01*
X36885921Y-24224810D01*
X36881213Y-24212189D01*
X36872394Y-24202011D01*
X36869242Y-24180093D01*
X36861504Y-24159346D01*
X36864366Y-24146185D01*
X36862450Y-24132853D01*
X36871649Y-24112709D01*
X36876356Y-24091073D01*
X36889624Y-24073347D01*
X36891475Y-24069297D01*
X36897507Y-24062819D01*
X36948507Y-24011819D01*
X37009830Y-23978334D01*
X37036188Y-23975500D01*
X37062599Y-23975500D01*
X37062601Y-23975500D01*
X37183536Y-23943095D01*
X37291964Y-23880495D01*
X37380495Y-23791964D01*
X37443095Y-23683536D01*
X37475500Y-23562601D01*
X37475500Y-23437399D01*
X37443095Y-23316464D01*
X37380495Y-23208036D01*
X37291964Y-23119505D01*
X37183536Y-23056905D01*
X37183537Y-23056905D01*
X37143224Y-23046103D01*
X37062601Y-23024500D01*
X36985189Y-23024500D01*
X36963943Y-23018261D01*
X36941855Y-23016682D01*
X36931071Y-23008609D01*
X36918150Y-23004815D01*
X36903650Y-22988081D01*
X36885922Y-22974810D01*
X36881214Y-22962189D01*
X36872395Y-22952011D01*
X36869243Y-22930093D01*
X36861505Y-22909346D01*
X36864367Y-22896185D01*
X36862451Y-22882853D01*
X36871650Y-22862709D01*
X36876357Y-22841073D01*
X36889625Y-22823347D01*
X36891476Y-22819297D01*
X36897508Y-22812819D01*
X36948508Y-22761819D01*
X37009831Y-22728334D01*
X37036189Y-22725500D01*
X37062599Y-22725500D01*
X37062601Y-22725500D01*
X37183536Y-22693095D01*
X37291964Y-22630495D01*
X37380495Y-22541964D01*
X37443095Y-22433536D01*
X37475500Y-22312601D01*
X37475500Y-22187399D01*
X37443095Y-22066464D01*
X37380495Y-21958036D01*
X37291964Y-21869505D01*
X37183536Y-21806905D01*
X37183537Y-21806905D01*
X37143224Y-21796103D01*
X37062601Y-21774500D01*
X36937399Y-21774500D01*
X36856775Y-21796103D01*
X36816463Y-21806905D01*
X36708037Y-21869504D01*
X36708034Y-21869506D01*
X36619506Y-21958034D01*
X36619504Y-21958037D01*
X36556905Y-22066463D01*
X36524500Y-22187400D01*
X36524500Y-22213811D01*
X36504815Y-22280850D01*
X36488181Y-22301492D01*
X35239537Y-23550135D01*
X35239533Y-23550141D01*
X35196682Y-23624359D01*
X35195364Y-23629280D01*
X35174500Y-23707147D01*
X35174500Y-23707149D01*
X35174500Y-25063811D01*
X35154815Y-25130850D01*
X35138181Y-25151492D01*
X34901492Y-25388181D01*
X34874564Y-25402884D01*
X34848746Y-25419477D01*
X34842545Y-25420368D01*
X34840169Y-25421666D01*
X34813811Y-25424500D01*
X34599000Y-25424500D01*
X34531961Y-25404815D01*
X34486206Y-25352011D01*
X34475000Y-25300500D01*
X34475000Y-25250000D01*
X33175001Y-25250000D01*
X33175001Y-25300500D01*
X33172450Y-25309185D01*
X33173739Y-25318147D01*
X33162760Y-25342187D01*
X33155316Y-25367539D01*
X33148475Y-25373466D01*
X33144714Y-25381703D01*
X33122479Y-25395992D01*
X33102512Y-25413294D01*
X33091997Y-25415581D01*
X33085936Y-25419477D01*
X33051001Y-25424500D01*
X32949500Y-25424500D01*
X32882461Y-25404815D01*
X32836706Y-25352011D01*
X32825500Y-25300500D01*
X32825500Y-24670793D01*
X33175000Y-24670793D01*
X33175000Y-24750000D01*
X33575000Y-24750000D01*
X34075000Y-24750000D01*
X34474999Y-24750000D01*
X34474999Y-24670803D01*
X34472148Y-24640393D01*
X34427346Y-24512354D01*
X34346791Y-24403206D01*
X34274387Y-24349770D01*
X34232136Y-24294123D01*
X34226677Y-24224467D01*
X34259744Y-24162917D01*
X34274387Y-24150230D01*
X34346791Y-24096793D01*
X34427346Y-23987645D01*
X34472149Y-23859604D01*
X34472149Y-23859600D01*
X34475000Y-23829206D01*
X34475000Y-23750000D01*
X34075000Y-23750000D01*
X34075000Y-24750000D01*
X33575000Y-24750000D01*
X33575000Y-23750000D01*
X33175001Y-23750000D01*
X33175001Y-23829196D01*
X33177851Y-23859606D01*
X33222653Y-23987645D01*
X33303207Y-24096792D01*
X33375613Y-24150230D01*
X33417864Y-24205878D01*
X33423322Y-24275534D01*
X33390254Y-24337083D01*
X33375613Y-24349770D01*
X33303207Y-24403207D01*
X33222653Y-24512354D01*
X33177850Y-24640395D01*
X33177850Y-24640399D01*
X33175000Y-24670793D01*
X32825500Y-24670793D01*
X32825500Y-24670730D01*
X32822646Y-24640300D01*
X32822646Y-24640298D01*
X32788120Y-24541630D01*
X32777793Y-24512118D01*
X32697150Y-24402850D01*
X32697148Y-24402849D01*
X32697148Y-24402848D01*
X32625229Y-24349770D01*
X32582978Y-24294123D01*
X32577519Y-24224467D01*
X32610586Y-24162917D01*
X32625229Y-24150230D01*
X32657475Y-24126431D01*
X32697150Y-24097150D01*
X32777793Y-23987882D01*
X32800219Y-23923790D01*
X32822646Y-23859701D01*
X32822646Y-23859699D01*
X32825500Y-23829269D01*
X32825500Y-23170793D01*
X33175000Y-23170793D01*
X33175000Y-23250000D01*
X33575000Y-23250000D01*
X34075000Y-23250000D01*
X34474999Y-23250000D01*
X34474999Y-23170803D01*
X34472148Y-23140393D01*
X34427346Y-23012354D01*
X34346791Y-22903206D01*
X34274387Y-22849770D01*
X34232136Y-22794123D01*
X34226677Y-22724467D01*
X34259744Y-22662917D01*
X34274387Y-22650230D01*
X34346791Y-22596793D01*
X34427346Y-22487645D01*
X34472149Y-22359604D01*
X34472149Y-22359600D01*
X34475000Y-22329206D01*
X34475000Y-22250000D01*
X34075000Y-22250000D01*
X34075000Y-23250000D01*
X33575000Y-23250000D01*
X33575000Y-22250000D01*
X33175001Y-22250000D01*
X33175001Y-22329196D01*
X33177851Y-22359606D01*
X33222653Y-22487645D01*
X33303207Y-22596792D01*
X33375613Y-22650230D01*
X33417864Y-22705878D01*
X33423322Y-22775534D01*
X33390254Y-22837083D01*
X33375613Y-22849770D01*
X33303207Y-22903207D01*
X33222653Y-23012354D01*
X33177850Y-23140395D01*
X33177850Y-23140399D01*
X33175000Y-23170793D01*
X32825500Y-23170793D01*
X32825500Y-23170730D01*
X32822646Y-23140300D01*
X32822646Y-23140298D01*
X32785313Y-23033608D01*
X32777793Y-23012118D01*
X32697150Y-22902850D01*
X32697148Y-22902849D01*
X32697148Y-22902848D01*
X32625229Y-22849770D01*
X32582978Y-22794123D01*
X32577519Y-22724467D01*
X32610586Y-22662917D01*
X32625229Y-22650230D01*
X32651972Y-22630493D01*
X32697150Y-22597150D01*
X32777793Y-22487882D01*
X32803653Y-22413978D01*
X32822646Y-22359701D01*
X32822646Y-22359699D01*
X32825500Y-22329269D01*
X32825500Y-21670793D01*
X33175000Y-21670793D01*
X33175000Y-21750000D01*
X33575000Y-21750000D01*
X34075000Y-21750000D01*
X34474999Y-21750000D01*
X34474999Y-21670803D01*
X34472148Y-21640393D01*
X34427346Y-21512354D01*
X34346792Y-21403207D01*
X34237645Y-21322653D01*
X34162367Y-21296313D01*
X34109602Y-21277850D01*
X34079207Y-21275000D01*
X34075000Y-21275000D01*
X34075000Y-21750000D01*
X33575000Y-21750000D01*
X33575000Y-21275000D01*
X33570796Y-21275001D01*
X33570774Y-21275002D01*
X33540399Y-21277850D01*
X33540394Y-21277851D01*
X33412354Y-21322653D01*
X33303207Y-21403207D01*
X33222653Y-21512354D01*
X33177850Y-21640395D01*
X33177850Y-21640399D01*
X33175000Y-21670793D01*
X32825500Y-21670793D01*
X32825500Y-21670730D01*
X32822646Y-21640300D01*
X32822646Y-21640298D01*
X32788236Y-21541962D01*
X32777793Y-21512118D01*
X32697150Y-21402850D01*
X32587882Y-21322207D01*
X32587880Y-21322206D01*
X32459700Y-21277353D01*
X32429270Y-21274500D01*
X32429266Y-21274500D01*
X31920734Y-21274500D01*
X31920730Y-21274500D01*
X31890300Y-21277353D01*
X31890298Y-21277353D01*
X31762119Y-21322206D01*
X31762117Y-21322207D01*
X31652850Y-21402850D01*
X31572207Y-21512117D01*
X31544445Y-21591456D01*
X31530825Y-21610444D01*
X31521117Y-21631703D01*
X31510841Y-21638306D01*
X31503723Y-21648231D01*
X31481999Y-21656842D01*
X31462339Y-21669477D01*
X31443172Y-21672232D01*
X31438770Y-21673978D01*
X31427404Y-21674500D01*
X31398321Y-21674500D01*
X31331282Y-21654815D01*
X31310640Y-21638181D01*
X31291965Y-21619506D01*
X31291964Y-21619505D01*
X31183536Y-21556905D01*
X31183537Y-21556905D01*
X31127769Y-21541962D01*
X31062601Y-21524500D01*
X30937399Y-21524500D01*
X30872231Y-21541962D01*
X30816463Y-21556905D01*
X30708037Y-21619504D01*
X30708034Y-21619506D01*
X30689360Y-21638181D01*
X30662432Y-21652884D01*
X30636614Y-21669477D01*
X30630413Y-21670368D01*
X30628037Y-21671666D01*
X30601679Y-21674500D01*
X30572596Y-21674500D01*
X30505557Y-21654815D01*
X30459802Y-21602011D01*
X30455555Y-21591456D01*
X30438237Y-21541965D01*
X30427793Y-21512118D01*
X30347150Y-21402850D01*
X30237882Y-21322207D01*
X30237880Y-21322206D01*
X30109700Y-21277353D01*
X30079270Y-21274500D01*
X30079266Y-21274500D01*
X29570734Y-21274500D01*
X29570730Y-21274500D01*
X29540300Y-21277353D01*
X29540298Y-21277353D01*
X29412119Y-21322206D01*
X29412117Y-21322207D01*
X29302850Y-21402850D01*
X29222207Y-21512117D01*
X29222206Y-21512119D01*
X29177353Y-21640298D01*
X29177353Y-21640300D01*
X29174500Y-21670730D01*
X29174500Y-22329269D01*
X29177353Y-22359699D01*
X29177353Y-22359701D01*
X29206535Y-22443095D01*
X29222207Y-22487882D01*
X29302850Y-22597150D01*
X29348031Y-22630495D01*
X29374771Y-22650230D01*
X29417022Y-22705878D01*
X29422480Y-22775534D01*
X29389412Y-22837083D01*
X29374771Y-22849770D01*
X29302850Y-22902850D01*
X29222207Y-23012117D01*
X29222206Y-23012119D01*
X29177353Y-23140298D01*
X29177353Y-23140300D01*
X29174500Y-23170730D01*
X29174500Y-23829269D01*
X29177353Y-23859699D01*
X29177353Y-23859701D01*
X29222124Y-23987645D01*
X29222207Y-23987882D01*
X29302850Y-24097150D01*
X29348031Y-24130495D01*
X29374771Y-24150230D01*
X29417022Y-24205878D01*
X29422480Y-24275534D01*
X29389412Y-24337083D01*
X29374771Y-24349770D01*
X29302850Y-24402850D01*
X29222207Y-24512117D01*
X29222206Y-24512119D01*
X29177353Y-24640298D01*
X29177353Y-24640300D01*
X29174500Y-24670730D01*
X29174500Y-25300500D01*
X29171949Y-25309185D01*
X29173238Y-25318147D01*
X29162259Y-25342187D01*
X29154815Y-25367539D01*
X29147974Y-25373466D01*
X29144213Y-25381703D01*
X29121978Y-25395992D01*
X29102011Y-25413294D01*
X29091496Y-25415581D01*
X29085435Y-25419477D01*
X29050500Y-25424500D01*
X28949500Y-25424500D01*
X28882461Y-25404815D01*
X28836706Y-25352011D01*
X28825500Y-25300500D01*
X28825500Y-24670730D01*
X28822646Y-24640300D01*
X28822646Y-24640298D01*
X28788120Y-24541630D01*
X28777793Y-24512118D01*
X28697150Y-24402850D01*
X28697148Y-24402849D01*
X28697148Y-24402848D01*
X28625229Y-24349770D01*
X28582978Y-24294123D01*
X28577519Y-24224467D01*
X28610586Y-24162917D01*
X28625229Y-24150230D01*
X28657475Y-24126431D01*
X28697150Y-24097150D01*
X28777793Y-23987882D01*
X28800219Y-23923790D01*
X28822646Y-23859701D01*
X28822646Y-23859699D01*
X28825500Y-23829269D01*
X28825500Y-23170730D01*
X28822646Y-23140300D01*
X28822646Y-23140298D01*
X28785313Y-23033608D01*
X28777793Y-23012118D01*
X28697150Y-22902850D01*
X28697148Y-22902849D01*
X28697148Y-22902848D01*
X28625229Y-22849770D01*
X28582978Y-22794123D01*
X28577519Y-22724467D01*
X28610586Y-22662917D01*
X28625229Y-22650230D01*
X28651972Y-22630493D01*
X28697150Y-22597150D01*
X28777793Y-22487882D01*
X28803653Y-22413978D01*
X28822646Y-22359701D01*
X28822646Y-22359699D01*
X28825500Y-22329269D01*
X28825500Y-21670730D01*
X28822646Y-21640300D01*
X28822646Y-21640298D01*
X28788236Y-21541962D01*
X28777793Y-21512118D01*
X28697150Y-21402850D01*
X28587882Y-21322207D01*
X28587880Y-21322206D01*
X28459700Y-21277353D01*
X28429270Y-21274500D01*
X28429266Y-21274500D01*
X27920734Y-21274500D01*
X27920730Y-21274500D01*
X27890300Y-21277353D01*
X27890298Y-21277353D01*
X27762119Y-21322206D01*
X27762117Y-21322207D01*
X27652850Y-21402850D01*
X27572207Y-21512117D01*
X27543057Y-21595422D01*
X27541413Y-21597713D01*
X27541146Y-21600521D01*
X27521178Y-21625925D01*
X27502335Y-21652198D01*
X27499180Y-21653914D01*
X27497970Y-21655454D01*
X27485835Y-21661173D01*
X27466604Y-21671635D01*
X27458336Y-21674499D01*
X27457147Y-21674499D01*
X27374361Y-21696682D01*
X27354696Y-21708036D01*
X27344458Y-21713947D01*
X27300139Y-21739534D01*
X27300136Y-21739536D01*
X25801492Y-23238181D01*
X25740169Y-23271666D01*
X25713811Y-23274500D01*
X25687399Y-23274500D01*
X25622231Y-23291962D01*
X25566463Y-23306905D01*
X25458037Y-23369504D01*
X25458034Y-23369506D01*
X25369506Y-23458034D01*
X25369504Y-23458037D01*
X25306905Y-23566463D01*
X25306905Y-23566464D01*
X25274500Y-23687399D01*
X25274500Y-23812601D01*
X25306905Y-23933536D01*
X25369505Y-24041964D01*
X25458036Y-24130495D01*
X25566464Y-24193095D01*
X25687399Y-24225500D01*
X25687401Y-24225500D01*
X25812599Y-24225500D01*
X25812601Y-24225500D01*
X25933536Y-24193095D01*
X26041964Y-24130495D01*
X26130495Y-24041964D01*
X26193095Y-23933536D01*
X26225500Y-23812601D01*
X26225500Y-23786187D01*
X26245185Y-23719148D01*
X26261814Y-23698511D01*
X27427958Y-22532366D01*
X27489279Y-22498883D01*
X27558971Y-22503867D01*
X27614904Y-22545739D01*
X27615270Y-22546231D01*
X27652850Y-22597150D01*
X27698031Y-22630495D01*
X27724771Y-22650230D01*
X27767022Y-22705878D01*
X27772480Y-22775534D01*
X27739412Y-22837083D01*
X27724771Y-22849770D01*
X27652850Y-22902850D01*
X27572207Y-23012117D01*
X27543057Y-23095423D01*
X27542064Y-23096806D01*
X27541933Y-23098504D01*
X27521776Y-23125092D01*
X27502335Y-23152198D01*
X27500423Y-23153259D01*
X27499724Y-23154182D01*
X27492444Y-23157691D01*
X27468645Y-23170909D01*
X27458836Y-23174500D01*
X27457147Y-23174500D01*
X27374362Y-23196682D01*
X27342267Y-23215212D01*
X27332975Y-23220576D01*
X27332974Y-23220577D01*
X27300138Y-23239534D01*
X27293693Y-23244481D01*
X27292589Y-23243042D01*
X27240169Y-23271666D01*
X27213811Y-23274500D01*
X27187399Y-23274500D01*
X27122231Y-23291962D01*
X27066463Y-23306905D01*
X26958037Y-23369504D01*
X26958034Y-23369506D01*
X26869506Y-23458034D01*
X26869504Y-23458037D01*
X26806905Y-23566463D01*
X26806905Y-23566464D01*
X26774500Y-23687399D01*
X26774500Y-23812601D01*
X26806905Y-23933536D01*
X26869505Y-24041964D01*
X26958036Y-24130495D01*
X27066464Y-24193095D01*
X27187399Y-24225500D01*
X27187401Y-24225500D01*
X27312599Y-24225500D01*
X27312601Y-24225500D01*
X27433536Y-24193095D01*
X27541964Y-24130495D01*
X27541967Y-24130491D01*
X27544441Y-24128594D01*
X27546909Y-24127639D01*
X27549003Y-24126431D01*
X27549191Y-24126757D01*
X27569376Y-24118953D01*
X27592749Y-24105984D01*
X27601463Y-24106547D01*
X27609610Y-24103398D01*
X27635796Y-24108768D01*
X27662473Y-24110494D01*
X27673748Y-24116551D01*
X27678055Y-24117435D01*
X27693562Y-24127197D01*
X27698031Y-24130495D01*
X27724771Y-24150230D01*
X27767022Y-24205878D01*
X27772480Y-24275534D01*
X27739412Y-24337083D01*
X27724771Y-24349770D01*
X27652850Y-24402850D01*
X27571917Y-24512510D01*
X27516269Y-24554761D01*
X27446613Y-24560219D01*
X27440053Y-24558651D01*
X27376530Y-24541630D01*
X27312601Y-24524500D01*
X27187399Y-24524500D01*
X27123470Y-24541630D01*
X27066463Y-24556905D01*
X26958037Y-24619504D01*
X26958034Y-24619506D01*
X26869506Y-24708034D01*
X26869504Y-24708037D01*
X26806905Y-24816463D01*
X26790702Y-24876931D01*
X26774500Y-24937399D01*
X26774500Y-25062601D01*
X26792788Y-25130850D01*
X26806905Y-25183537D01*
X26806908Y-25183542D01*
X26838638Y-25238501D01*
X26855111Y-25306401D01*
X26832258Y-25372428D01*
X26777337Y-25415618D01*
X26731251Y-25424500D01*
X21186189Y-25424500D01*
X21119150Y-25404815D01*
X21098508Y-25388181D01*
X20261819Y-24551492D01*
X20228334Y-24490169D01*
X20225500Y-24463811D01*
X20225500Y-24437400D01*
X20216338Y-24403207D01*
X20193095Y-24316464D01*
X20130495Y-24208036D01*
X20041964Y-24119505D01*
X19933536Y-24056905D01*
X19933537Y-24056905D01*
X19877769Y-24041962D01*
X19812601Y-24024500D01*
X19687399Y-24024500D01*
X19622231Y-24041962D01*
X19566463Y-24056905D01*
X19458037Y-24119504D01*
X19458034Y-24119506D01*
X19369506Y-24208034D01*
X19369504Y-24208037D01*
X19306905Y-24316463D01*
X19292801Y-24369101D01*
X19274500Y-24437399D01*
X19274500Y-24562601D01*
X19289748Y-24619505D01*
X19294323Y-24636579D01*
X19292660Y-24706429D01*
X19253498Y-24764292D01*
X19189270Y-24791796D01*
X19133593Y-24785714D01*
X19109701Y-24777354D01*
X19109699Y-24777353D01*
X19079270Y-24774500D01*
X19079266Y-24774500D01*
X18717254Y-24774500D01*
X18650215Y-24754815D01*
X18629573Y-24738181D01*
X18355203Y-24463811D01*
X18070913Y-24179520D01*
X18013176Y-24146185D01*
X17979589Y-24126793D01*
X17901926Y-24105984D01*
X17877727Y-24099500D01*
X17877726Y-24099500D01*
X15885339Y-24099500D01*
X15885323Y-24099499D01*
X15877727Y-24099499D01*
X15772273Y-24099499D01*
X15722974Y-24112709D01*
X15670412Y-24126793D01*
X15614029Y-24159346D01*
X15582079Y-24177793D01*
X15579084Y-24179522D01*
X15020426Y-24738181D01*
X14959103Y-24771666D01*
X14932745Y-24774500D01*
X14570730Y-24774500D01*
X14540300Y-24777353D01*
X14540298Y-24777353D01*
X14412119Y-24822206D01*
X14412117Y-24822207D01*
X14302850Y-24902850D01*
X14222207Y-25012117D01*
X14222206Y-25012119D01*
X14177353Y-25140298D01*
X14177353Y-25140300D01*
X14174500Y-25170730D01*
X13825500Y-25170730D01*
X13822646Y-25140300D01*
X13822646Y-25140298D01*
X13782577Y-25025791D01*
X13777793Y-25012118D01*
X13697150Y-24902850D01*
X13587882Y-24822207D01*
X13587880Y-24822206D01*
X13459700Y-24777353D01*
X13429270Y-24774500D01*
X13429266Y-24774500D01*
X12920734Y-24774500D01*
X12920730Y-24774500D01*
X12890300Y-24777353D01*
X12890298Y-24777353D01*
X12762119Y-24822206D01*
X12762117Y-24822207D01*
X12652850Y-24902850D01*
X12600240Y-24974134D01*
X12544592Y-25016385D01*
X12500470Y-25024500D01*
X12437399Y-25024500D01*
X12372231Y-25041962D01*
X12316463Y-25056905D01*
X12208037Y-25119504D01*
X12208034Y-25119506D01*
X12119506Y-25208034D01*
X12119504Y-25208037D01*
X12056905Y-25316463D01*
X12047380Y-25352011D01*
X12024500Y-25437399D01*
X7500500Y-25437399D01*
X7500500Y-25434108D01*
X7466392Y-25306814D01*
X7400500Y-25192686D01*
X7400498Y-25192684D01*
X7397217Y-25187001D01*
X7380744Y-25119101D01*
X7397217Y-25062999D01*
X7400498Y-25057315D01*
X7400500Y-25057314D01*
X7466392Y-24943186D01*
X7500500Y-24815892D01*
X7500500Y-24684108D01*
X7466392Y-24556814D01*
X7457625Y-24541630D01*
X7439308Y-24509903D01*
X7400500Y-24442686D01*
X7400498Y-24442684D01*
X7397217Y-24437001D01*
X7380744Y-24369101D01*
X7397217Y-24312999D01*
X7400498Y-24307315D01*
X7400500Y-24307314D01*
X7466392Y-24193186D01*
X7500500Y-24065892D01*
X7500500Y-23934108D01*
X7475862Y-23842161D01*
X7473165Y-23790672D01*
X7473876Y-23786187D01*
X7500500Y-23618092D01*
X7500500Y-23500000D01*
X7500500Y-23434108D01*
X7500500Y-20937399D01*
X23524500Y-20937399D01*
X23524500Y-21062601D01*
X23556905Y-21183536D01*
X23619505Y-21291964D01*
X23708036Y-21380495D01*
X23816464Y-21443095D01*
X23937399Y-21475500D01*
X23937401Y-21475500D01*
X24062599Y-21475500D01*
X24062601Y-21475500D01*
X24183536Y-21443095D01*
X24291964Y-21380495D01*
X24380495Y-21291964D01*
X24440865Y-21187399D01*
X35274500Y-21187399D01*
X35274500Y-21312601D01*
X35306905Y-21433536D01*
X35369505Y-21541964D01*
X35458036Y-21630495D01*
X35566464Y-21693095D01*
X35687399Y-21725500D01*
X35687401Y-21725500D01*
X35812599Y-21725500D01*
X35812601Y-21725500D01*
X35933536Y-21693095D01*
X36041964Y-21630495D01*
X36130495Y-21541964D01*
X36193095Y-21433536D01*
X36225500Y-21312601D01*
X36225500Y-21187399D01*
X36193095Y-21066464D01*
X36130495Y-20958036D01*
X36041964Y-20869505D01*
X35933536Y-20806905D01*
X35933537Y-20806905D01*
X35893224Y-20796103D01*
X35812601Y-20774500D01*
X35687399Y-20774500D01*
X35606775Y-20796103D01*
X35566463Y-20806905D01*
X35458037Y-20869504D01*
X35458034Y-20869506D01*
X35369506Y-20958034D01*
X35369504Y-20958037D01*
X35306905Y-21066463D01*
X35306905Y-21066464D01*
X35274500Y-21187399D01*
X24440865Y-21187399D01*
X24443095Y-21183536D01*
X24475500Y-21062601D01*
X24475500Y-20937399D01*
X24443095Y-20816464D01*
X24380495Y-20708036D01*
X24291964Y-20619505D01*
X24183536Y-20556905D01*
X24183537Y-20556905D01*
X24127769Y-20541962D01*
X24062601Y-20524500D01*
X23937399Y-20524500D01*
X23872231Y-20541962D01*
X23816463Y-20556905D01*
X23708037Y-20619504D01*
X23708034Y-20619506D01*
X23619506Y-20708034D01*
X23619504Y-20708037D01*
X23556905Y-20816463D01*
X23556905Y-20816464D01*
X23524500Y-20937399D01*
X7500500Y-20937399D01*
X7500500Y-20187399D01*
X21524500Y-20187399D01*
X21524500Y-20312601D01*
X21556905Y-20433536D01*
X21619505Y-20541964D01*
X21708036Y-20630495D01*
X21816464Y-20693095D01*
X21937399Y-20725500D01*
X21937401Y-20725500D01*
X22062599Y-20725500D01*
X22062601Y-20725500D01*
X22183536Y-20693095D01*
X22291964Y-20630495D01*
X22380495Y-20541964D01*
X22443095Y-20433536D01*
X22475500Y-20312601D01*
X22475500Y-20187399D01*
X26774500Y-20187399D01*
X26774500Y-20312601D01*
X26806905Y-20433536D01*
X26869505Y-20541964D01*
X26958036Y-20630495D01*
X27066464Y-20693095D01*
X27187399Y-20725500D01*
X27187401Y-20725500D01*
X27312599Y-20725500D01*
X27312601Y-20725500D01*
X27433536Y-20693095D01*
X27541964Y-20630495D01*
X27630495Y-20541964D01*
X27693095Y-20433536D01*
X27725500Y-20312601D01*
X27725500Y-20187399D01*
X34524500Y-20187399D01*
X34524500Y-20312601D01*
X34556905Y-20433536D01*
X34619505Y-20541964D01*
X34708036Y-20630495D01*
X34816464Y-20693095D01*
X34937399Y-20725500D01*
X34937401Y-20725500D01*
X35062599Y-20725500D01*
X35062601Y-20725500D01*
X35183536Y-20693095D01*
X35291964Y-20630495D01*
X35380495Y-20541964D01*
X35443095Y-20433536D01*
X35475500Y-20312601D01*
X35475500Y-20187399D01*
X35443095Y-20066464D01*
X35380495Y-19958036D01*
X35291964Y-19869505D01*
X35183536Y-19806905D01*
X35183537Y-19806905D01*
X35143224Y-19796103D01*
X35062601Y-19774500D01*
X34937399Y-19774500D01*
X34856775Y-19796103D01*
X34816463Y-19806905D01*
X34708037Y-19869504D01*
X34708034Y-19869506D01*
X34619506Y-19958034D01*
X34619504Y-19958037D01*
X34556905Y-20066463D01*
X34556905Y-20066464D01*
X34524500Y-20187399D01*
X27725500Y-20187399D01*
X27693095Y-20066464D01*
X27630495Y-19958036D01*
X27541964Y-19869505D01*
X27433536Y-19806905D01*
X27433537Y-19806905D01*
X27393224Y-19796103D01*
X27312601Y-19774500D01*
X27187399Y-19774500D01*
X27106775Y-19796103D01*
X27066463Y-19806905D01*
X26958037Y-19869504D01*
X26958034Y-19869506D01*
X26869506Y-19958034D01*
X26869504Y-19958037D01*
X26806905Y-20066463D01*
X26806905Y-20066464D01*
X26774500Y-20187399D01*
X22475500Y-20187399D01*
X22443095Y-20066464D01*
X22380495Y-19958036D01*
X22291964Y-19869505D01*
X22183536Y-19806905D01*
X22183537Y-19806905D01*
X22143224Y-19796103D01*
X22062601Y-19774500D01*
X21937399Y-19774500D01*
X21856775Y-19796103D01*
X21816463Y-19806905D01*
X21708037Y-19869504D01*
X21708034Y-19869506D01*
X21619506Y-19958034D01*
X21619504Y-19958037D01*
X21556905Y-20066463D01*
X21556905Y-20066464D01*
X21524500Y-20187399D01*
X7500500Y-20187399D01*
X7500500Y-19379500D01*
X7520185Y-19312461D01*
X7572989Y-19266706D01*
X7624500Y-19255500D01*
X13948639Y-19255500D01*
X13950075Y-19255422D01*
X13975952Y-19254036D01*
X14002310Y-19251202D01*
X14097444Y-19221413D01*
X14158767Y-19187928D01*
X14216985Y-19144347D01*
X14569440Y-18791892D01*
X14923934Y-18437399D01*
X19524500Y-18437399D01*
X19524500Y-18562601D01*
X19556905Y-18683536D01*
X19619505Y-18791964D01*
X19708036Y-18880495D01*
X19816464Y-18943095D01*
X19866659Y-18956545D01*
X19922245Y-18988638D01*
X19929519Y-18995912D01*
X19929520Y-18995913D01*
X20004087Y-19070480D01*
X20095413Y-19123207D01*
X20197273Y-19150500D01*
X20302727Y-19150500D01*
X36959461Y-19150500D01*
X37021458Y-19167111D01*
X37066464Y-19193095D01*
X37187399Y-19225500D01*
X37187401Y-19225500D01*
X37312599Y-19225500D01*
X37312601Y-19225500D01*
X37433536Y-19193095D01*
X37541964Y-19130495D01*
X37630495Y-19041964D01*
X37676002Y-18963141D01*
X37726566Y-18914928D01*
X37795172Y-18901703D01*
X37860038Y-18927670D01*
X37871069Y-18937461D01*
X39313181Y-20379573D01*
X39346666Y-20440896D01*
X39349500Y-20467254D01*
X39349500Y-21959460D01*
X39332888Y-22021458D01*
X39306907Y-22066459D01*
X39306905Y-22066462D01*
X39285301Y-22147087D01*
X39274500Y-22187399D01*
X39274500Y-22312601D01*
X39306905Y-22433536D01*
X39369505Y-22541964D01*
X39458036Y-22630495D01*
X39566464Y-22693095D01*
X39687399Y-22725500D01*
X39687401Y-22725500D01*
X39812600Y-22725500D01*
X39812601Y-22725500D01*
X39894603Y-22703527D01*
X39964453Y-22705189D01*
X40022316Y-22744350D01*
X40049821Y-22808579D01*
X40046473Y-22855394D01*
X40024500Y-22937398D01*
X40024500Y-22937399D01*
X40024500Y-23062601D01*
X40056905Y-23183536D01*
X40119505Y-23291964D01*
X40208036Y-23380495D01*
X40316464Y-23443095D01*
X40437399Y-23475500D01*
X40437401Y-23475500D01*
X40562599Y-23475500D01*
X40562601Y-23475500D01*
X40683536Y-23443095D01*
X40791964Y-23380495D01*
X40880495Y-23291964D01*
X40943095Y-23183536D01*
X40975500Y-23062601D01*
X40975500Y-22937399D01*
X40943095Y-22816464D01*
X40930197Y-22794123D01*
X40917112Y-22771458D01*
X40900500Y-22709460D01*
X40900500Y-20312729D01*
X40900501Y-20312716D01*
X40900501Y-20197274D01*
X40897855Y-20187399D01*
X40873207Y-20095413D01*
X40838205Y-20034788D01*
X40820480Y-20004087D01*
X40745913Y-19929520D01*
X40745910Y-19929518D01*
X37745913Y-16929520D01*
X37700250Y-16903156D01*
X37654589Y-16876793D01*
X37603657Y-16863146D01*
X37552727Y-16849500D01*
X37552726Y-16849500D01*
X35040539Y-16849500D01*
X34978541Y-16832888D01*
X34933536Y-16806905D01*
X34933537Y-16806905D01*
X34893224Y-16796103D01*
X34812601Y-16774500D01*
X34687399Y-16774500D01*
X34606775Y-16796103D01*
X34566463Y-16806905D01*
X34458037Y-16869504D01*
X34458034Y-16869506D01*
X34369506Y-16958034D01*
X34369504Y-16958037D01*
X34306905Y-17066463D01*
X34306905Y-17066464D01*
X34274500Y-17187399D01*
X34274500Y-17312601D01*
X34306905Y-17433536D01*
X34306906Y-17433537D01*
X34309009Y-17441386D01*
X34306145Y-17442153D01*
X34312103Y-17497502D01*
X34280836Y-17559985D01*
X34220752Y-17595644D01*
X34190071Y-17599500D01*
X27290539Y-17599500D01*
X27228541Y-17582888D01*
X27183536Y-17556905D01*
X27183537Y-17556905D01*
X27127776Y-17541964D01*
X27062601Y-17524500D01*
X26937399Y-17524500D01*
X26872224Y-17541964D01*
X26816463Y-17556905D01*
X26708037Y-17619504D01*
X26708034Y-17619506D01*
X26619506Y-17708034D01*
X26619504Y-17708037D01*
X26556905Y-17816463D01*
X26556905Y-17816464D01*
X26524500Y-17937399D01*
X26524500Y-18062601D01*
X26556905Y-18183536D01*
X26556906Y-18183537D01*
X26559009Y-18191386D01*
X26556145Y-18192153D01*
X26562103Y-18247502D01*
X26530836Y-18309985D01*
X26470752Y-18345644D01*
X26440071Y-18349500D01*
X20533760Y-18349500D01*
X20466721Y-18329815D01*
X20426372Y-18287499D01*
X20403280Y-18247502D01*
X20380495Y-18208036D01*
X20291964Y-18119505D01*
X20183536Y-18056905D01*
X20183537Y-18056905D01*
X20143224Y-18046103D01*
X20062601Y-18024500D01*
X19937399Y-18024500D01*
X19856775Y-18046103D01*
X19816463Y-18056905D01*
X19708037Y-18119504D01*
X19708034Y-18119506D01*
X19619506Y-18208034D01*
X19619504Y-18208037D01*
X19556905Y-18316463D01*
X19550172Y-18341590D01*
X19524500Y-18437399D01*
X14923934Y-18437399D01*
X15019743Y-18341590D01*
X16586832Y-16774500D01*
X17144347Y-16216985D01*
X17162626Y-16196635D01*
X17179260Y-16175993D01*
X17225465Y-16087662D01*
X17245150Y-16020623D01*
X17255500Y-15948638D01*
X17255500Y-12217631D01*
X39512000Y-12217631D01*
X39512000Y-14682356D01*
X39512002Y-14682382D01*
X39514913Y-14707487D01*
X39514915Y-14707491D01*
X39560293Y-14810264D01*
X39560294Y-14810265D01*
X39639735Y-14889706D01*
X39742509Y-14935085D01*
X39767635Y-14938000D01*
X42232364Y-14937999D01*
X42232379Y-14937997D01*
X42232382Y-14937997D01*
X42257487Y-14935086D01*
X42257488Y-14935085D01*
X42257491Y-14935085D01*
X42360265Y-14889706D01*
X42439706Y-14810265D01*
X42485085Y-14707491D01*
X42488000Y-14682365D01*
X42487999Y-13332892D01*
X43472000Y-13332892D01*
X43472000Y-13567108D01*
X43484454Y-13645736D01*
X43508640Y-13798442D01*
X43581014Y-14021191D01*
X43581015Y-14021194D01*
X43687348Y-14229882D01*
X43825017Y-14419367D01*
X43990633Y-14584983D01*
X44180118Y-14722652D01*
X44278555Y-14772808D01*
X44388805Y-14828984D01*
X44388808Y-14828985D01*
X44500182Y-14865172D01*
X44611559Y-14901360D01*
X44842892Y-14938000D01*
X44842893Y-14938000D01*
X45077107Y-14938000D01*
X45077108Y-14938000D01*
X45308441Y-14901360D01*
X45531194Y-14828984D01*
X45739882Y-14722652D01*
X45929367Y-14584983D01*
X46094983Y-14419367D01*
X46232652Y-14229882D01*
X46338984Y-14021194D01*
X46411360Y-13798441D01*
X46448000Y-13567108D01*
X46448000Y-13332892D01*
X46411360Y-13101559D01*
X46338984Y-12878806D01*
X46338984Y-12878805D01*
X46232651Y-12670117D01*
X46094983Y-12480633D01*
X45929367Y-12315017D01*
X45739882Y-12177348D01*
X45531194Y-12071015D01*
X45531191Y-12071014D01*
X45308442Y-11998640D01*
X45095512Y-11964915D01*
X45077108Y-11962000D01*
X44842892Y-11962000D01*
X44824488Y-11964915D01*
X44611557Y-11998640D01*
X44388808Y-12071014D01*
X44388805Y-12071015D01*
X44180117Y-12177348D01*
X44072009Y-12255893D01*
X43990633Y-12315017D01*
X43990631Y-12315019D01*
X43990630Y-12315019D01*
X43825019Y-12480630D01*
X43825019Y-12480631D01*
X43825017Y-12480633D01*
X43810583Y-12500500D01*
X43687348Y-12670117D01*
X43581015Y-12878805D01*
X43581014Y-12878808D01*
X43508640Y-13101557D01*
X43508640Y-13101559D01*
X43472000Y-13332892D01*
X42487999Y-13332892D01*
X42487999Y-12217636D01*
X42485164Y-12193186D01*
X42485086Y-12192512D01*
X42485085Y-12192510D01*
X42485085Y-12192509D01*
X42439706Y-12089735D01*
X42360265Y-12010294D01*
X42333871Y-11998640D01*
X42257492Y-11964915D01*
X42232365Y-11962000D01*
X39767643Y-11962000D01*
X39767617Y-11962002D01*
X39742512Y-11964913D01*
X39742508Y-11964915D01*
X39639735Y-12010293D01*
X39560294Y-12089734D01*
X39514915Y-12192506D01*
X39514915Y-12192508D01*
X39512000Y-12217631D01*
X17255500Y-12217631D01*
X17255500Y-7624500D01*
X17275185Y-7557461D01*
X17327989Y-7511706D01*
X17379500Y-7500500D01*
X28618091Y-7500500D01*
X28618092Y-7500500D01*
X28790674Y-7473165D01*
X28842161Y-7475862D01*
X28934108Y-7500500D01*
X28934111Y-7500500D01*
X29065890Y-7500500D01*
X29065892Y-7500500D01*
X29193186Y-7466392D01*
X29307314Y-7400500D01*
X29307315Y-7400498D01*
X29312999Y-7397217D01*
X29380899Y-7380744D01*
X29437001Y-7397217D01*
X29442684Y-7400498D01*
X29442686Y-7400500D01*
X29536444Y-7454631D01*
X29554889Y-7465281D01*
X29556814Y-7466392D01*
X29684108Y-7500500D01*
X29684110Y-7500500D01*
X29815890Y-7500500D01*
X29815892Y-7500500D01*
X29943186Y-7466392D01*
X30057314Y-7400500D01*
X30057315Y-7400498D01*
X30062999Y-7397217D01*
X30130899Y-7380744D01*
X30187001Y-7397217D01*
X30192684Y-7400498D01*
X30192686Y-7400500D01*
X30286444Y-7454631D01*
X30304889Y-7465281D01*
X30306814Y-7466392D01*
X30434108Y-7500500D01*
X30434110Y-7500500D01*
X30565890Y-7500500D01*
X30565892Y-7500500D01*
X30693186Y-7466392D01*
X30807314Y-7400500D01*
X30807315Y-7400498D01*
X30812999Y-7397217D01*
X30880899Y-7380744D01*
X30937001Y-7397217D01*
X30942684Y-7400498D01*
X30942686Y-7400500D01*
X31036444Y-7454631D01*
X31054889Y-7465281D01*
X31056814Y-7466392D01*
X31184108Y-7500500D01*
X31184110Y-7500500D01*
X31315890Y-7500500D01*
X31315892Y-7500500D01*
X31443186Y-7466392D01*
X31557314Y-7400500D01*
X31557315Y-7400498D01*
X31562999Y-7397217D01*
X31630899Y-7380744D01*
X31687001Y-7397217D01*
X31692684Y-7400498D01*
X31692686Y-7400500D01*
X31786444Y-7454631D01*
X31804889Y-7465281D01*
X31806814Y-7466392D01*
X31934108Y-7500500D01*
X31934110Y-7500500D01*
X32065890Y-7500500D01*
X32065892Y-7500500D01*
X32193186Y-7466392D01*
X32307314Y-7400500D01*
X32307315Y-7400498D01*
X32312999Y-7397217D01*
X32380899Y-7380744D01*
X32437001Y-7397217D01*
X32442684Y-7400498D01*
X32442686Y-7400500D01*
X32536444Y-7454631D01*
X32554889Y-7465281D01*
X32556814Y-7466392D01*
X32684108Y-7500500D01*
X32684110Y-7500500D01*
X32815890Y-7500500D01*
X32815892Y-7500500D01*
X32943186Y-7466392D01*
X33057314Y-7400500D01*
X33057315Y-7400498D01*
X33062999Y-7397217D01*
X33130899Y-7380744D01*
X33187001Y-7397217D01*
X33192684Y-7400498D01*
X33192686Y-7400500D01*
X33286444Y-7454631D01*
X33304889Y-7465281D01*
X33306814Y-7466392D01*
X33434108Y-7500500D01*
X33434110Y-7500500D01*
X33565890Y-7500500D01*
X33565892Y-7500500D01*
X33693186Y-7466392D01*
X33807314Y-7400500D01*
X33807315Y-7400498D01*
X33812999Y-7397217D01*
X33880899Y-7380744D01*
X33937001Y-7397217D01*
X33942684Y-7400498D01*
X33942686Y-7400500D01*
X34036444Y-7454631D01*
X34054889Y-7465281D01*
X34056814Y-7466392D01*
X34184108Y-7500500D01*
X34184110Y-7500500D01*
X34315890Y-7500500D01*
X34315892Y-7500500D01*
X34443186Y-7466392D01*
X34557314Y-7400500D01*
X34557315Y-7400498D01*
X34562999Y-7397217D01*
X34630899Y-7380744D01*
X34687001Y-7397217D01*
G37*
%TD.AperFunction*%
%TD*%
%TA.AperFunction,Conductor*%
%TO.N,Chassis*%
G36*
X16943039Y-7520185D02*
G01*
X16988794Y-7572989D01*
X17000000Y-7624500D01*
X17000000Y-15948638D01*
X16980315Y-16015677D01*
X16963681Y-16036319D01*
X14036319Y-18963681D01*
X13974996Y-18997166D01*
X13948638Y-19000000D01*
X7624500Y-19000000D01*
X7557461Y-18980315D01*
X7511706Y-18927511D01*
X7500500Y-18876000D01*
X7500500Y-12002706D01*
X7500618Y-11997297D01*
X7503377Y-11934108D01*
X7517386Y-11613226D01*
X7518326Y-11602495D01*
X7568152Y-11224025D01*
X7570025Y-11213405D01*
X7652649Y-10840709D01*
X7655440Y-10830295D01*
X7770230Y-10466227D01*
X7773917Y-10456095D01*
X7920003Y-10103412D01*
X7924561Y-10093638D01*
X8100822Y-9755045D01*
X8106217Y-9745700D01*
X8311325Y-9423744D01*
X8317515Y-9414905D01*
X8549896Y-9112060D01*
X8556834Y-9103791D01*
X8814726Y-8822352D01*
X8822352Y-8814726D01*
X9103791Y-8556834D01*
X9112060Y-8549896D01*
X9414905Y-8317515D01*
X9423744Y-8311325D01*
X9745700Y-8106217D01*
X9755045Y-8100822D01*
X10093638Y-7924561D01*
X10103412Y-7920003D01*
X10456095Y-7773917D01*
X10466227Y-7770230D01*
X10830295Y-7655440D01*
X10840709Y-7652649D01*
X11213405Y-7570025D01*
X11224025Y-7568152D01*
X11602495Y-7518326D01*
X11613226Y-7517386D01*
X11997297Y-7500617D01*
X12002706Y-7500500D01*
X12065892Y-7500500D01*
X16876000Y-7500500D01*
X16943039Y-7520185D01*
G37*
%TD.AperFunction*%
%TD*%
M02*
