M48
; DRILL file {KiCad 7.0.10} date Tue Jul 30 22:38:02 2024
; FORMAT={-:-/ absolute / inch / decimal}
; #@! TF.CreationDate,2024-07-30T22:38:02+09:00
; #@! TF.GenerationSoftware,Kicad,Pcbnew,7.0.10
; #@! TF.FileFunction,Plated,1,2,PTH
FMAT,2
INCH
; #@! TA.AperFunction,Plated,PTH,ViaDrill
T1C0.0118
; #@! TA.AperFunction,Plated,PTH,ComponentDrill
T2C0.0197
; #@! TA.AperFunction,Plated,PTH,ComponentDrill
T3C0.0512
; #@! TA.AperFunction,Plated,PTH,ComponentDrill
T4C0.0650
; #@! TA.AperFunction,Plated,PTH,ComponentDrill
T5C0.1260
%
G90
G05
T1
X0.0394Y-0.1969
X0.0394Y-0.2953
X0.0394Y-0.3937
X0.0394Y-0.4921
X0.0394Y-0.5906
X0.0394Y-0.689
X0.0394Y-0.7874
X0.0394Y-0.8858
X0.0394Y-0.9843
X0.0394Y-1.0827
X0.0394Y-1.1811
X0.0394Y-1.2795
X0.0394Y-1.378
X0.0394Y-1.4764
X0.0394Y-1.5748
X0.0394Y-1.6732
X0.0394Y-1.7717
X0.0886Y-0.0886
X0.0886Y-1.8799
X0.0984Y-0.3445
X0.0984Y-0.3937
X0.0984Y-0.876
X0.0984Y-1.1516
X0.1083Y-0.9646
X0.1378Y-1.25
X0.1476Y-0.8268
X0.1673Y-1.063
X0.1673Y-1.1417
X0.1772Y-0.9843
X0.1969Y-0.0394
X0.1969Y-0.3445
X0.1969Y-0.3937
X0.1969Y-0.7283
X0.1969Y-0.876
X0.1969Y-1.9291
X0.2264Y-1.25
X0.2264Y-1.3484
X0.2362Y-0.6299
X0.2756Y-1.2008
X0.2756Y-1.2303
X0.2756Y-1.2598
X0.2854Y-1.437
X0.2953Y-0.0394
X0.2953Y-0.3445
X0.2953Y-0.3937
X0.2953Y-0.6299
X0.2953Y-1.9291
X0.3051Y-0.8957
X0.3051Y-1.2008
X0.3051Y-1.2303
X0.3051Y-1.2598
X0.315Y-0.8169
X0.3346Y-1.2008
X0.3346Y-1.2303
X0.3346Y-1.2598
X0.3543Y-0.6299
X0.3543Y-1.5059
X0.3642Y-1.2008
X0.3642Y-1.2303
X0.3642Y-1.2598
X0.374Y-0.8071
X0.374Y-0.9449
X0.3937Y-0.0394
X0.3937Y-0.1378
X0.3937Y-0.2559
X0.3937Y-0.3445
X0.3937Y-0.3937
X0.3937Y-0.748
X0.3937Y-1.9291
X0.4134Y-0.9941
X0.4134Y-1.2795
X0.4331Y-1.3583
X0.4429Y-0.0787
X0.4429Y-0.1969
X0.4429Y-0.876
X0.4429Y-1.5354
X0.4626Y-0.3346
X0.4724Y-1.2106
X0.4921Y-0.0394
X0.4921Y-0.1378
X0.4921Y-0.2362
X0.4921Y-1.9291
X0.5217Y-0.8957
X0.5217Y-1.378
X0.5315Y-1.1516
X0.5315Y-1.2205
X0.5315Y-1.5354
X0.5315Y-1.624
X0.5315Y-1.6929
X0.5315Y-1.7815
X0.5413Y-0.748
X0.561Y-1.3091
X0.5807Y-0.8366
X0.5906Y-0.0394
X0.5906Y-1.0925
X0.5906Y-1.9291
X0.6201Y-0.6594
X0.6201Y-1.378
X0.6201Y-1.5354
X0.6201Y-1.6043
X0.6201Y-1.7815
X0.6496Y-1.0335
X0.689Y-0.0394
X0.689Y-1.9291
X0.6988Y-0.6693
X0.6988Y-0.748
X0.6988Y-1.1417
X0.6988Y-1.2205
X0.7087Y-0.5512
X0.7087Y-1.6929
X0.7283Y-0.9843
X0.7874Y-0.0394
X0.7874Y-0.748
X0.7874Y-1.0138
X0.7874Y-1.9291
X0.7972Y-0.5413
X0.7972Y-1.2205
X0.8071Y-0.7874
X0.8071Y-1.2598
X0.8465Y-0.9843
X0.8465Y-1.25
X0.8465Y-1.6929
X0.8563Y-0.748
X0.8858Y-0.0394
X0.8858Y-0.5413
X0.8858Y-0.7874
X0.8858Y-1.0138
X0.8858Y-1.9291
X0.8957Y-0.3937
X0.8957Y-0.6791
X0.8957Y-1.1516
X0.8957Y-1.624
X0.9055Y-0.4626
X0.9055Y-1.3091
X0.9055Y-1.4075
X0.9252Y-1.8307
X0.9547Y-0.9843
X0.9646Y-1.4665
X0.9646Y-1.7717
X0.9744Y-0.3051
X0.9774Y-1.6909
X0.9843Y-0.0394
X0.9843Y-0.4724
X0.9843Y-0.6693
X0.9843Y-0.748
X0.9843Y-0.7972
X0.9843Y-1.2697
X0.9843Y-1.3189
X0.9843Y-1.3878
X0.9843Y-1.9291
X0.9941Y-0.6102
X1.0138Y-0.5315
X1.0138Y-1.8209
X1.0236Y-0.6496
X1.0236Y-1.5157
X1.0433Y-1.7618
X1.0531Y-0.5709
X1.063Y-1.8701
X1.0728Y-0.4626
X1.0827Y-0.0394
X1.0827Y-0.3937
X1.0827Y-1.4173
X1.0925Y-0.8268
X1.0925Y-1.5846
X1.1024Y-0.5217
X1.1024Y-0.7087
X1.1024Y-0.7579
X1.1024Y-1.5157
X1.1024Y-1.8209
X1.1122Y-0.9843
X1.1516Y-1.1909
X1.1516Y-1.8701
X1.1614Y-1.0335
X1.1713Y-0.4724
X1.1713Y-0.5512
X1.1713Y-0.7087
X1.1713Y-0.7579
X1.1713Y-1.4961
X1.1713Y-1.6732
X1.1811Y-0.0394
X1.2008Y-0.9843
X1.2205Y-1.2598
X1.2205Y-1.3681
X1.2205Y-1.3976
X1.2205Y-1.7224
X1.2205Y-1.8406
X1.2205Y-1.8701
X1.2303Y-0.7087
X1.2303Y-1.5256
X1.2402Y-0.7579
X1.2402Y-1.1909
X1.2402Y-1.6831
X1.25Y-0.9055
X1.25Y-0.935
X1.25Y-1.3976
X1.25Y-1.8701
X1.2598Y-0.4724
X1.2598Y-0.5512
X1.2795Y-0.0394
X1.2795Y-0.9055
X1.2795Y-0.935
X1.2795Y-1.3976
X1.2795Y-1.8701
X1.2992Y-1.0236
X1.2992Y-1.4961
X1.3091Y-0.9055
X1.3091Y-0.935
X1.3091Y-1.3681
X1.3091Y-1.3976
X1.3091Y-1.8406
X1.3091Y-1.8701
X1.3189Y-0.5906
X1.3189Y-1.5551
X1.3484Y-0.4724
X1.3583Y-0.5512
X1.378Y-0.0394
X1.3878Y-0.7972
X1.3878Y-1.2697
X1.3878Y-1.5551
X1.3878Y-1.7618
X1.3976Y-0.6299
X1.3976Y-1.1024
X1.4075Y-1.0236
X1.4075Y-1.4961
X1.4173Y-0.5512
X1.437Y-1.2598
X1.4469Y-0.3839
X1.4469Y-0.4626
X1.4469Y-0.6398
X1.4469Y-1.6043
X1.4567Y-0.7087
X1.4567Y-1.1811
X1.4567Y-1.6732
X1.4764Y-0.0394
X1.4764Y-0.5512
X1.5059Y-0.6201
X1.5059Y-1.0236
X1.5059Y-1.4961
X1.5059Y-1.6732
X1.5157Y-0.7185
X1.5157Y-1.1024
X1.5157Y-1.2106
X1.5157Y-1.5945
X1.5354Y-0.3051
X1.5354Y-0.4724
X1.5354Y-0.5512
X1.5551Y-0.5118
X1.565Y-0.5807
X1.565Y-1.5453
X1.5748Y-0.0394
X1.5945Y-0.5217
X1.5945Y-1.3287
X1.6043Y-1.0039
X1.6043Y-1.4764
X1.6339Y-1.5453
X1.6535Y-0.2953
X1.6535Y-0.4724
X1.6535Y-0.5807
X1.6634Y-1.063
X1.6634Y-1.4173
X1.6634Y-1.7028
X1.6732Y-0.0394
X1.6732Y-0.935
X1.6732Y-1.2303
X1.6732Y-1.9291
X1.7028Y-0.5413
X1.7028Y-1.3287
X1.7126Y-0.3937
X1.7126Y-1.3681
X1.7126Y-1.4764
X1.7224Y-1.0039
X1.7224Y-1.2205
X1.7224Y-1.5354
X1.7224Y-1.7126
X1.7323Y-0.4724
X1.7421Y-0.8661
X1.7421Y-1.3386
X1.7421Y-1.8307
X1.752Y-0.935
X1.752Y-1.4272
X1.752Y-1.6339
X1.7618Y-0.6004
X1.7618Y-1.0728
X1.7618Y-1.1417
X1.7717Y-0.0394
X1.7717Y-1.9291
X1.7913Y-0.689
X1.7913Y-1.1122
X1.7913Y-1.5748
X1.8012Y-1.1614
X1.8012Y-1.5059
X1.8012Y-1.6535
X1.8091Y-1.0118
X1.811Y-1.3386
X1.8307Y-0.4724
X1.8307Y-0.9449
X1.8307Y-1.4272
X1.8602Y-0.8661
X1.8602Y-1.3386
X1.8602Y-1.8307
X1.8701Y-0.0394
X1.8701Y-1.9291
X1.8799Y-1.3878
X1.8898Y-0.7283
X1.8898Y-1.2008
X1.8898Y-1.6929
X1.9094Y-0.4626
X1.9193Y-1.4272
X1.9291Y-0.935
X1.9291Y-1.8996
X1.9331Y-1.0059
X1.9331Y-1.498
X1.9587Y-0.6398
X1.9587Y-1.1122
X1.9587Y-1.2008
X1.9587Y-1.6043
X1.9685Y-0.0394
X1.9783Y-1.6929
X1.9882Y-0.4823
X1.9882Y-0.7283
X2.0079Y-1.4567
X2.0079Y-1.6339
X2.0177Y-1.0335
X2.0177Y-1.1516
X2.0177Y-1.5256
X2.0276Y-0.5315
X2.0276Y-0.8661
X2.0276Y-0.935
X2.0276Y-1.3386
X2.0276Y-1.3878
X2.0276Y-1.8307
X2.0374Y-1.2008
X2.0571Y-0.6201
X2.0571Y-1.6929
X2.0669Y-0.0394
X2.0669Y-1.1024
X2.0669Y-1.5945
X2.0669Y-1.9291
X2.0768Y-0.3937
X2.0866Y-0.4823
X2.0866Y-0.9252
X2.0965Y-0.7283
X2.0965Y-1.8307
X2.1063Y-1.5157
X2.1161Y-0.8661
X2.1161Y-1.2008
X2.1161Y-1.3386
X2.1457Y-1.0335
X2.1457Y-1.5945
X2.1457Y-1.6929
X2.1555Y-1.4665
X2.1654Y-0.0394
X2.1654Y-0.3051
X2.1654Y-0.4823
X2.1654Y-1.9291
X2.1752Y-0.6201
X2.1752Y-1.0728
X2.185Y-1.1122
X2.1949Y-1.0236
X2.1949Y-1.5354
X2.1949Y-1.6437
X2.1949Y-1.8307
X2.2047Y-0.6594
X2.2047Y-0.8661
X2.2047Y-0.9252
X2.2047Y-1.3189
X2.2539Y-0.3937
X2.2539Y-0.4823
X2.2638Y-0.0394
X2.2736Y-0.7972
X2.2736Y-1.25
X2.2736Y-1.7815
X2.3327Y-0.4823
X2.3327Y-0.6594
X2.3327Y-0.7382
X2.3327Y-0.8268
X2.3327Y-0.9154
X2.3327Y-1.1909
X2.3327Y-1.2894
X2.3327Y-1.378
X2.3386Y-1.0984
X2.3425Y-1.5256
X2.3425Y-1.6142
X2.3425Y-1.7126
X2.3622Y-0.0394
X2.3622Y-1.9291
X2.4114Y-0.4823
X2.4114Y-0.6594
X2.4114Y-0.748
X2.4114Y-0.8366
X2.4114Y-0.935
X2.4114Y-1.0236
X2.4114Y-1.1024
X2.4114Y-1.1713
X2.4114Y-1.25
X2.4114Y-1.3484
X2.4114Y-1.4469
X2.4213Y-0.5315
X2.4508Y-1.063
X2.4606Y-0.0394
X2.4606Y-1.9291
X2.4705Y-0.3937
X2.4803Y-0.4823
X2.4803Y-0.6594
X2.4902Y-0.9744
X2.4902Y-1.0728
X2.5591Y-0.0394
X2.5591Y-0.3051
X2.5591Y-0.4823
X2.5591Y-0.6594
X2.5591Y-0.7382
X2.5591Y-0.8169
X2.5591Y-0.9055
X2.5591Y-1.9291
X2.5886Y-0.9744
X2.5984Y-1.378
X2.5984Y-1.4567
X2.5984Y-1.7717
X2.5984Y-1.8602
X2.6083Y-1.6732
X2.6181Y-1.0433
X2.6378Y-0.4823
X2.6378Y-0.6594
X2.6378Y-0.7382
X2.6378Y-0.8169
X2.6476Y-0.3937
X2.6575Y-0.0394
X2.6575Y-0.8957
X2.6575Y-1.2992
X2.6772Y-1.6043
X2.687Y-1.5059
X2.7165Y-0.4823
X2.7165Y-0.6594
X2.7165Y-0.8366
X2.7165Y-1.0728
X2.7264Y-1.2303
X2.7461Y-1.5354
X2.7559Y-0.0394
X2.7559Y-1.9291
X2.7657Y-1.4567
X2.7756Y-0.7776
X2.7854Y-0.4823
X2.7953Y-1.1614
X2.7953Y-1.8406
X2.8051Y-0.6594
X2.8051Y-1.0138
X2.815Y-0.5315
X2.815Y-1.7421
X2.8248Y-1.4567
X2.8346Y-0.7185
X2.8346Y-1.3878
X2.8543Y-0.0394
X2.8543Y-1.0827
X2.8543Y-1.9291
X2.8642Y-0.374
X2.874Y-0.4823
X2.874Y-0.5709
X2.874Y-0.6201
X2.874Y-0.9449
X2.8937Y-0.6594
X2.8937Y-1.3287
X2.8937Y-1.3878
X2.8937Y-1.7224
X2.8937Y-1.8209
X2.9035Y-1.6535
X2.9429Y-0.876
X2.9528Y-0.0394
X2.9528Y-0.3051
X2.9528Y-0.4626
X2.9528Y-1.2697
X2.9724Y-0.6102
X2.9724Y-1.3583
X2.9724Y-1.6339
X2.9921Y-1.565
X3.002Y-0.8268
X3.0118Y-0.5315
X3.0118Y-1.2106
X3.0315Y-0.4626
X3.0315Y-0.9547
X3.0413Y-0.3839
X3.0512Y-0.0394
X3.0512Y-1.1319
X3.0512Y-1.4665
X3.0512Y-1.9291
X3.061Y-1.3976
X3.061Y-1.5453
X3.0709Y-0.6102
X3.0709Y-0.8957
X3.0906Y-1.8406
X3.1004Y-0.8071
X3.1102Y-1.0335
X3.1201Y-1.4665
X3.1299Y-1.1909
X3.1299Y-1.752
X3.1398Y-0.9646
X3.1496Y-0.0394
X3.1496Y-1.1122
X3.1496Y-1.3583
X3.1496Y-1.9291
X3.1693Y-0.6102
X3.1791Y-1.2697
X3.1988Y-0.8071
X3.1988Y-1.0236
X3.1988Y-1.6831
X3.2087Y-1.1614
X3.248Y-0.0394
X3.248Y-1.9291
X3.2677Y-0.6102
X3.2677Y-0.8957
X3.2677Y-0.9941
X3.2677Y-1.0925
X3.2677Y-1.2303
X3.2677Y-1.3386
X3.2677Y-1.6142
X3.2972Y-0.8071
X3.3366Y-1.5453
X3.3465Y-0.0394
X3.3465Y-1.9291
X3.3661Y-0.6102
X3.3957Y-1.4862
X3.4252Y-0.7972
X3.4449Y-0.6496
X3.4547Y-0.0886
X3.4547Y-1.4272
X3.4547Y-1.8799
X3.5039Y-0.1969
X3.5039Y-0.2953
X3.5039Y-0.3937
X3.5039Y-0.4921
X3.5039Y-0.5906
X3.5039Y-0.689
X3.5039Y-0.7874
X3.5039Y-0.8858
X3.5039Y-0.9843
X3.5039Y-1.0827
X3.5039Y-1.1811
X3.5039Y-1.2795
X3.5039Y-1.378
X3.5039Y-1.4764
X3.5039Y-1.5748
X3.5039Y-1.6732
X3.5039Y-1.7717
T2
X0.1024Y-0.1969
X0.1024Y-1.7717
X0.13Y-0.13
X0.13Y-0.2637
X0.13Y-1.7048
X0.13Y-1.8385
X0.1969Y-0.1024
X0.1969Y-0.2913
X0.1969Y-1.6772
X0.1969Y-1.8661
X0.2637Y-0.13
X0.2637Y-0.2637
X0.2637Y-1.7048
X0.2637Y-1.8385
X0.2913Y-0.1969
X0.2913Y-1.7717
X3.252Y-0.1969
X3.252Y-1.7717
X3.2796Y-0.13
X3.2796Y-0.2637
X3.2796Y-1.7048
X3.2796Y-1.8385
X3.3465Y-0.1024
X3.3465Y-0.2913
X3.3465Y-1.6772
X3.3465Y-1.8661
X3.4133Y-0.13
X3.4133Y-0.2637
X3.4133Y-1.7048
X3.4133Y-1.8385
X3.4409Y-0.1969
X3.4409Y-1.7717
T3
X2.2709Y-0.6965
X2.2709Y-0.9965
X2.2709Y-1.1295
X2.2709Y-1.4295
X2.2709Y-1.5626
X2.2709Y-1.8626
X2.6709Y-0.9965
X2.6709Y-1.4295
X2.6709Y-1.8626
X2.9709Y-0.9965
X2.9709Y-1.4295
X2.9709Y-1.8626
T4
X3.3681Y-0.7087
X3.3681Y-0.8646
T5
X0.1969Y-0.1969
X0.1969Y-1.7717
X3.3465Y-0.1969
X3.3465Y-1.7717
M30
