%TF.GenerationSoftware,KiCad,Pcbnew,7.0.10*%
%TF.CreationDate,2024-07-30T22:44:23+09:00*%
%TF.ProjectId,Latch-Circuit,4c617463-682d-4436-9972-637569742e6b,rev?*%
%TF.SameCoordinates,Original*%
%TF.FileFunction,Other,Comment*%
%FSLAX46Y46*%
G04 Gerber Fmt 4.6, Leading zero omitted, Abs format (unit mm)*
G04 Created by KiCad (PCBNEW 7.0.10) date 2024-07-30 22:44:23*
%MOMM*%
%LPD*%
G01*
G04 APERTURE LIST*
%ADD10C,0.150000*%
G04 APERTURE END LIST*
D10*
X53428572Y-6304819D02*
X53619048Y-6304819D01*
X53619048Y-6304819D02*
X53714286Y-6257200D01*
X53714286Y-6257200D02*
X53761905Y-6209580D01*
X53761905Y-6209580D02*
X53857143Y-6066723D01*
X53857143Y-6066723D02*
X53904762Y-5876247D01*
X53904762Y-5876247D02*
X53904762Y-5495295D01*
X53904762Y-5495295D02*
X53857143Y-5400057D01*
X53857143Y-5400057D02*
X53809524Y-5352438D01*
X53809524Y-5352438D02*
X53714286Y-5304819D01*
X53714286Y-5304819D02*
X53523810Y-5304819D01*
X53523810Y-5304819D02*
X53428572Y-5352438D01*
X53428572Y-5352438D02*
X53380953Y-5400057D01*
X53380953Y-5400057D02*
X53333334Y-5495295D01*
X53333334Y-5495295D02*
X53333334Y-5733390D01*
X53333334Y-5733390D02*
X53380953Y-5828628D01*
X53380953Y-5828628D02*
X53428572Y-5876247D01*
X53428572Y-5876247D02*
X53523810Y-5923866D01*
X53523810Y-5923866D02*
X53714286Y-5923866D01*
X53714286Y-5923866D02*
X53809524Y-5876247D01*
X53809524Y-5876247D02*
X53857143Y-5828628D01*
X53857143Y-5828628D02*
X53904762Y-5733390D01*
X54523810Y-5304819D02*
X54619048Y-5304819D01*
X54619048Y-5304819D02*
X54714286Y-5352438D01*
X54714286Y-5352438D02*
X54761905Y-5400057D01*
X54761905Y-5400057D02*
X54809524Y-5495295D01*
X54809524Y-5495295D02*
X54857143Y-5685771D01*
X54857143Y-5685771D02*
X54857143Y-5923866D01*
X54857143Y-5923866D02*
X54809524Y-6114342D01*
X54809524Y-6114342D02*
X54761905Y-6209580D01*
X54761905Y-6209580D02*
X54714286Y-6257200D01*
X54714286Y-6257200D02*
X54619048Y-6304819D01*
X54619048Y-6304819D02*
X54523810Y-6304819D01*
X54523810Y-6304819D02*
X54428572Y-6257200D01*
X54428572Y-6257200D02*
X54380953Y-6209580D01*
X54380953Y-6209580D02*
X54333334Y-6114342D01*
X54333334Y-6114342D02*
X54285715Y-5923866D01*
X54285715Y-5923866D02*
X54285715Y-5685771D01*
X54285715Y-5685771D02*
X54333334Y-5495295D01*
X54333334Y-5495295D02*
X54380953Y-5400057D01*
X54380953Y-5400057D02*
X54428572Y-5352438D01*
X54428572Y-5352438D02*
X54523810Y-5304819D01*
X55285715Y-6209580D02*
X55333334Y-6257200D01*
X55333334Y-6257200D02*
X55285715Y-6304819D01*
X55285715Y-6304819D02*
X55238096Y-6257200D01*
X55238096Y-6257200D02*
X55285715Y-6209580D01*
X55285715Y-6209580D02*
X55285715Y-6304819D01*
X55952381Y-5304819D02*
X56047619Y-5304819D01*
X56047619Y-5304819D02*
X56142857Y-5352438D01*
X56142857Y-5352438D02*
X56190476Y-5400057D01*
X56190476Y-5400057D02*
X56238095Y-5495295D01*
X56238095Y-5495295D02*
X56285714Y-5685771D01*
X56285714Y-5685771D02*
X56285714Y-5923866D01*
X56285714Y-5923866D02*
X56238095Y-6114342D01*
X56238095Y-6114342D02*
X56190476Y-6209580D01*
X56190476Y-6209580D02*
X56142857Y-6257200D01*
X56142857Y-6257200D02*
X56047619Y-6304819D01*
X56047619Y-6304819D02*
X55952381Y-6304819D01*
X55952381Y-6304819D02*
X55857143Y-6257200D01*
X55857143Y-6257200D02*
X55809524Y-6209580D01*
X55809524Y-6209580D02*
X55761905Y-6114342D01*
X55761905Y-6114342D02*
X55714286Y-5923866D01*
X55714286Y-5923866D02*
X55714286Y-5685771D01*
X55714286Y-5685771D02*
X55761905Y-5495295D01*
X55761905Y-5495295D02*
X55809524Y-5400057D01*
X55809524Y-5400057D02*
X55857143Y-5352438D01*
X55857143Y-5352438D02*
X55952381Y-5304819D01*
X56904762Y-5304819D02*
X57000000Y-5304819D01*
X57000000Y-5304819D02*
X57095238Y-5352438D01*
X57095238Y-5352438D02*
X57142857Y-5400057D01*
X57142857Y-5400057D02*
X57190476Y-5495295D01*
X57190476Y-5495295D02*
X57238095Y-5685771D01*
X57238095Y-5685771D02*
X57238095Y-5923866D01*
X57238095Y-5923866D02*
X57190476Y-6114342D01*
X57190476Y-6114342D02*
X57142857Y-6209580D01*
X57142857Y-6209580D02*
X57095238Y-6257200D01*
X57095238Y-6257200D02*
X57000000Y-6304819D01*
X57000000Y-6304819D02*
X56904762Y-6304819D01*
X56904762Y-6304819D02*
X56809524Y-6257200D01*
X56809524Y-6257200D02*
X56761905Y-6209580D01*
X56761905Y-6209580D02*
X56714286Y-6114342D01*
X56714286Y-6114342D02*
X56666667Y-5923866D01*
X56666667Y-5923866D02*
X56666667Y-5685771D01*
X56666667Y-5685771D02*
X56714286Y-5495295D01*
X56714286Y-5495295D02*
X56761905Y-5400057D01*
X56761905Y-5400057D02*
X56809524Y-5352438D01*
X56809524Y-5352438D02*
X56904762Y-5304819D01*
X58428572Y-6304819D02*
X58428572Y-5638152D01*
X58428572Y-5733390D02*
X58476191Y-5685771D01*
X58476191Y-5685771D02*
X58571429Y-5638152D01*
X58571429Y-5638152D02*
X58714286Y-5638152D01*
X58714286Y-5638152D02*
X58809524Y-5685771D01*
X58809524Y-5685771D02*
X58857143Y-5781009D01*
X58857143Y-5781009D02*
X58857143Y-6304819D01*
X58857143Y-5781009D02*
X58904762Y-5685771D01*
X58904762Y-5685771D02*
X59000000Y-5638152D01*
X59000000Y-5638152D02*
X59142857Y-5638152D01*
X59142857Y-5638152D02*
X59238096Y-5685771D01*
X59238096Y-5685771D02*
X59285715Y-5781009D01*
X59285715Y-5781009D02*
X59285715Y-6304819D01*
X59761905Y-6304819D02*
X59761905Y-5638152D01*
X59761905Y-5733390D02*
X59809524Y-5685771D01*
X59809524Y-5685771D02*
X59904762Y-5638152D01*
X59904762Y-5638152D02*
X60047619Y-5638152D01*
X60047619Y-5638152D02*
X60142857Y-5685771D01*
X60142857Y-5685771D02*
X60190476Y-5781009D01*
X60190476Y-5781009D02*
X60190476Y-6304819D01*
X60190476Y-5781009D02*
X60238095Y-5685771D01*
X60238095Y-5685771D02*
X60333333Y-5638152D01*
X60333333Y-5638152D02*
X60476190Y-5638152D01*
X60476190Y-5638152D02*
X60571429Y-5685771D01*
X60571429Y-5685771D02*
X60619048Y-5781009D01*
X60619048Y-5781009D02*
X60619048Y-6304819D01*
X12000000Y-16500000D02*
X12000000Y-6413580D01*
X102000000Y-16500000D02*
X102000000Y-6413580D01*
X12000000Y-7000000D02*
X102000000Y-7000000D01*
X12000000Y-7000000D02*
X102000000Y-7000000D01*
X12000000Y-7000000D02*
X13126504Y-6413579D01*
X12000000Y-7000000D02*
X13126504Y-7586421D01*
X102000000Y-7000000D02*
X100873496Y-7586421D01*
X102000000Y-7000000D02*
X100873496Y-6413579D01*
X5304819Y-40142856D02*
X5304819Y-40619046D01*
X5304819Y-40619046D02*
X5781009Y-40666665D01*
X5781009Y-40666665D02*
X5733390Y-40619046D01*
X5733390Y-40619046D02*
X5685771Y-40523808D01*
X5685771Y-40523808D02*
X5685771Y-40285713D01*
X5685771Y-40285713D02*
X5733390Y-40190475D01*
X5733390Y-40190475D02*
X5781009Y-40142856D01*
X5781009Y-40142856D02*
X5876247Y-40095237D01*
X5876247Y-40095237D02*
X6114342Y-40095237D01*
X6114342Y-40095237D02*
X6209580Y-40142856D01*
X6209580Y-40142856D02*
X6257200Y-40190475D01*
X6257200Y-40190475D02*
X6304819Y-40285713D01*
X6304819Y-40285713D02*
X6304819Y-40523808D01*
X6304819Y-40523808D02*
X6257200Y-40619046D01*
X6257200Y-40619046D02*
X6209580Y-40666665D01*
X5304819Y-39476189D02*
X5304819Y-39380951D01*
X5304819Y-39380951D02*
X5352438Y-39285713D01*
X5352438Y-39285713D02*
X5400057Y-39238094D01*
X5400057Y-39238094D02*
X5495295Y-39190475D01*
X5495295Y-39190475D02*
X5685771Y-39142856D01*
X5685771Y-39142856D02*
X5923866Y-39142856D01*
X5923866Y-39142856D02*
X6114342Y-39190475D01*
X6114342Y-39190475D02*
X6209580Y-39238094D01*
X6209580Y-39238094D02*
X6257200Y-39285713D01*
X6257200Y-39285713D02*
X6304819Y-39380951D01*
X6304819Y-39380951D02*
X6304819Y-39476189D01*
X6304819Y-39476189D02*
X6257200Y-39571427D01*
X6257200Y-39571427D02*
X6209580Y-39619046D01*
X6209580Y-39619046D02*
X6114342Y-39666665D01*
X6114342Y-39666665D02*
X5923866Y-39714284D01*
X5923866Y-39714284D02*
X5685771Y-39714284D01*
X5685771Y-39714284D02*
X5495295Y-39666665D01*
X5495295Y-39666665D02*
X5400057Y-39619046D01*
X5400057Y-39619046D02*
X5352438Y-39571427D01*
X5352438Y-39571427D02*
X5304819Y-39476189D01*
X6209580Y-38714284D02*
X6257200Y-38666665D01*
X6257200Y-38666665D02*
X6304819Y-38714284D01*
X6304819Y-38714284D02*
X6257200Y-38761903D01*
X6257200Y-38761903D02*
X6209580Y-38714284D01*
X6209580Y-38714284D02*
X6304819Y-38714284D01*
X5304819Y-38047618D02*
X5304819Y-37952380D01*
X5304819Y-37952380D02*
X5352438Y-37857142D01*
X5352438Y-37857142D02*
X5400057Y-37809523D01*
X5400057Y-37809523D02*
X5495295Y-37761904D01*
X5495295Y-37761904D02*
X5685771Y-37714285D01*
X5685771Y-37714285D02*
X5923866Y-37714285D01*
X5923866Y-37714285D02*
X6114342Y-37761904D01*
X6114342Y-37761904D02*
X6209580Y-37809523D01*
X6209580Y-37809523D02*
X6257200Y-37857142D01*
X6257200Y-37857142D02*
X6304819Y-37952380D01*
X6304819Y-37952380D02*
X6304819Y-38047618D01*
X6304819Y-38047618D02*
X6257200Y-38142856D01*
X6257200Y-38142856D02*
X6209580Y-38190475D01*
X6209580Y-38190475D02*
X6114342Y-38238094D01*
X6114342Y-38238094D02*
X5923866Y-38285713D01*
X5923866Y-38285713D02*
X5685771Y-38285713D01*
X5685771Y-38285713D02*
X5495295Y-38238094D01*
X5495295Y-38238094D02*
X5400057Y-38190475D01*
X5400057Y-38190475D02*
X5352438Y-38142856D01*
X5352438Y-38142856D02*
X5304819Y-38047618D01*
X5304819Y-37095237D02*
X5304819Y-36999999D01*
X5304819Y-36999999D02*
X5352438Y-36904761D01*
X5352438Y-36904761D02*
X5400057Y-36857142D01*
X5400057Y-36857142D02*
X5495295Y-36809523D01*
X5495295Y-36809523D02*
X5685771Y-36761904D01*
X5685771Y-36761904D02*
X5923866Y-36761904D01*
X5923866Y-36761904D02*
X6114342Y-36809523D01*
X6114342Y-36809523D02*
X6209580Y-36857142D01*
X6209580Y-36857142D02*
X6257200Y-36904761D01*
X6257200Y-36904761D02*
X6304819Y-36999999D01*
X6304819Y-36999999D02*
X6304819Y-37095237D01*
X6304819Y-37095237D02*
X6257200Y-37190475D01*
X6257200Y-37190475D02*
X6209580Y-37238094D01*
X6209580Y-37238094D02*
X6114342Y-37285713D01*
X6114342Y-37285713D02*
X5923866Y-37333332D01*
X5923866Y-37333332D02*
X5685771Y-37333332D01*
X5685771Y-37333332D02*
X5495295Y-37285713D01*
X5495295Y-37285713D02*
X5400057Y-37238094D01*
X5400057Y-37238094D02*
X5352438Y-37190475D01*
X5352438Y-37190475D02*
X5304819Y-37095237D01*
X6304819Y-35571427D02*
X5638152Y-35571427D01*
X5733390Y-35571427D02*
X5685771Y-35523808D01*
X5685771Y-35523808D02*
X5638152Y-35428570D01*
X5638152Y-35428570D02*
X5638152Y-35285713D01*
X5638152Y-35285713D02*
X5685771Y-35190475D01*
X5685771Y-35190475D02*
X5781009Y-35142856D01*
X5781009Y-35142856D02*
X6304819Y-35142856D01*
X5781009Y-35142856D02*
X5685771Y-35095237D01*
X5685771Y-35095237D02*
X5638152Y-34999999D01*
X5638152Y-34999999D02*
X5638152Y-34857142D01*
X5638152Y-34857142D02*
X5685771Y-34761903D01*
X5685771Y-34761903D02*
X5781009Y-34714284D01*
X5781009Y-34714284D02*
X6304819Y-34714284D01*
X6304819Y-34238094D02*
X5638152Y-34238094D01*
X5733390Y-34238094D02*
X5685771Y-34190475D01*
X5685771Y-34190475D02*
X5638152Y-34095237D01*
X5638152Y-34095237D02*
X5638152Y-33952380D01*
X5638152Y-33952380D02*
X5685771Y-33857142D01*
X5685771Y-33857142D02*
X5781009Y-33809523D01*
X5781009Y-33809523D02*
X6304819Y-33809523D01*
X5781009Y-33809523D02*
X5685771Y-33761904D01*
X5685771Y-33761904D02*
X5638152Y-33666666D01*
X5638152Y-33666666D02*
X5638152Y-33523809D01*
X5638152Y-33523809D02*
X5685771Y-33428570D01*
X5685771Y-33428570D02*
X5781009Y-33380951D01*
X5781009Y-33380951D02*
X6304819Y-33380951D01*
X16500000Y-12000000D02*
X6413580Y-12000000D01*
X16500000Y-62000000D02*
X6413580Y-62000000D01*
X7000000Y-12000000D02*
X7000000Y-62000000D01*
X7000000Y-12000000D02*
X7000000Y-62000000D01*
X7000000Y-12000000D02*
X7586421Y-13126504D01*
X7000000Y-12000000D02*
X6413579Y-13126504D01*
X7000000Y-62000000D02*
X6413579Y-60873496D01*
X7000000Y-62000000D02*
X7586421Y-60873496D01*
X53428571Y5695180D02*
X52857143Y5695180D01*
X53142857Y5695180D02*
X53142857Y6695180D01*
X53142857Y6695180D02*
X53047619Y6552323D01*
X53047619Y6552323D02*
X52952381Y6457085D01*
X52952381Y6457085D02*
X52857143Y6409466D01*
X54380952Y5695180D02*
X53809524Y5695180D01*
X54095238Y5695180D02*
X54095238Y6695180D01*
X54095238Y6695180D02*
X54000000Y6552323D01*
X54000000Y6552323D02*
X53904762Y6457085D01*
X53904762Y6457085D02*
X53809524Y6409466D01*
X55238095Y6361847D02*
X55238095Y5695180D01*
X55000000Y6742800D02*
X54761905Y6028514D01*
X54761905Y6028514D02*
X55380952Y6028514D01*
X55761905Y5790419D02*
X55809524Y5742800D01*
X55809524Y5742800D02*
X55761905Y5695180D01*
X55761905Y5695180D02*
X55714286Y5742800D01*
X55714286Y5742800D02*
X55761905Y5790419D01*
X55761905Y5790419D02*
X55761905Y5695180D01*
X56428571Y6695180D02*
X56523809Y6695180D01*
X56523809Y6695180D02*
X56619047Y6647561D01*
X56619047Y6647561D02*
X56666666Y6599942D01*
X56666666Y6599942D02*
X56714285Y6504704D01*
X56714285Y6504704D02*
X56761904Y6314228D01*
X56761904Y6314228D02*
X56761904Y6076133D01*
X56761904Y6076133D02*
X56714285Y5885657D01*
X56714285Y5885657D02*
X56666666Y5790419D01*
X56666666Y5790419D02*
X56619047Y5742800D01*
X56619047Y5742800D02*
X56523809Y5695180D01*
X56523809Y5695180D02*
X56428571Y5695180D01*
X56428571Y5695180D02*
X56333333Y5742800D01*
X56333333Y5742800D02*
X56285714Y5790419D01*
X56285714Y5790419D02*
X56238095Y5885657D01*
X56238095Y5885657D02*
X56190476Y6076133D01*
X56190476Y6076133D02*
X56190476Y6314228D01*
X56190476Y6314228D02*
X56238095Y6504704D01*
X56238095Y6504704D02*
X56285714Y6599942D01*
X56285714Y6599942D02*
X56333333Y6647561D01*
X56333333Y6647561D02*
X56428571Y6695180D01*
X57380952Y6695180D02*
X57476190Y6695180D01*
X57476190Y6695180D02*
X57571428Y6647561D01*
X57571428Y6647561D02*
X57619047Y6599942D01*
X57619047Y6599942D02*
X57666666Y6504704D01*
X57666666Y6504704D02*
X57714285Y6314228D01*
X57714285Y6314228D02*
X57714285Y6076133D01*
X57714285Y6076133D02*
X57666666Y5885657D01*
X57666666Y5885657D02*
X57619047Y5790419D01*
X57619047Y5790419D02*
X57571428Y5742800D01*
X57571428Y5742800D02*
X57476190Y5695180D01*
X57476190Y5695180D02*
X57380952Y5695180D01*
X57380952Y5695180D02*
X57285714Y5742800D01*
X57285714Y5742800D02*
X57238095Y5790419D01*
X57238095Y5790419D02*
X57190476Y5885657D01*
X57190476Y5885657D02*
X57142857Y6076133D01*
X57142857Y6076133D02*
X57142857Y6314228D01*
X57142857Y6314228D02*
X57190476Y6504704D01*
X57190476Y6504704D02*
X57238095Y6599942D01*
X57238095Y6599942D02*
X57285714Y6647561D01*
X57285714Y6647561D02*
X57380952Y6695180D01*
X58904762Y5695180D02*
X58904762Y6361847D01*
X58904762Y6266609D02*
X58952381Y6314228D01*
X58952381Y6314228D02*
X59047619Y6361847D01*
X59047619Y6361847D02*
X59190476Y6361847D01*
X59190476Y6361847D02*
X59285714Y6314228D01*
X59285714Y6314228D02*
X59333333Y6218990D01*
X59333333Y6218990D02*
X59333333Y5695180D01*
X59333333Y6218990D02*
X59380952Y6314228D01*
X59380952Y6314228D02*
X59476190Y6361847D01*
X59476190Y6361847D02*
X59619047Y6361847D01*
X59619047Y6361847D02*
X59714286Y6314228D01*
X59714286Y6314228D02*
X59761905Y6218990D01*
X59761905Y6218990D02*
X59761905Y5695180D01*
X60238095Y5695180D02*
X60238095Y6361847D01*
X60238095Y6266609D02*
X60285714Y6314228D01*
X60285714Y6314228D02*
X60380952Y6361847D01*
X60380952Y6361847D02*
X60523809Y6361847D01*
X60523809Y6361847D02*
X60619047Y6314228D01*
X60619047Y6314228D02*
X60666666Y6218990D01*
X60666666Y6218990D02*
X60666666Y5695180D01*
X60666666Y6218990D02*
X60714285Y6314228D01*
X60714285Y6314228D02*
X60809523Y6361847D01*
X60809523Y6361847D02*
X60952380Y6361847D01*
X60952380Y6361847D02*
X61047619Y6314228D01*
X61047619Y6314228D02*
X61095238Y6218990D01*
X61095238Y6218990D02*
X61095238Y5695180D01*
X0Y-4500000D02*
X0Y5586420D01*
X114000000Y-4500000D02*
X114000000Y5586420D01*
X0Y5000000D02*
X114000000Y5000000D01*
X0Y5000000D02*
X114000000Y5000000D01*
X0Y5000000D02*
X1126504Y5586421D01*
X0Y5000000D02*
X1126504Y4413579D01*
X114000000Y5000000D02*
X112873496Y4413579D01*
X114000000Y5000000D02*
X112873496Y5586421D01*
X-6695180Y-40714284D02*
X-6695180Y-40047618D01*
X-6695180Y-40047618D02*
X-5695180Y-40476189D01*
X-6361847Y-39238094D02*
X-5695180Y-39238094D01*
X-6742800Y-39476189D02*
X-6028514Y-39714284D01*
X-6028514Y-39714284D02*
X-6028514Y-39095237D01*
X-5790419Y-38714284D02*
X-5742800Y-38666665D01*
X-5742800Y-38666665D02*
X-5695180Y-38714284D01*
X-5695180Y-38714284D02*
X-5742800Y-38761903D01*
X-5742800Y-38761903D02*
X-5790419Y-38714284D01*
X-5790419Y-38714284D02*
X-5695180Y-38714284D01*
X-6695180Y-38047618D02*
X-6695180Y-37952380D01*
X-6695180Y-37952380D02*
X-6647561Y-37857142D01*
X-6647561Y-37857142D02*
X-6599942Y-37809523D01*
X-6599942Y-37809523D02*
X-6504704Y-37761904D01*
X-6504704Y-37761904D02*
X-6314228Y-37714285D01*
X-6314228Y-37714285D02*
X-6076133Y-37714285D01*
X-6076133Y-37714285D02*
X-5885657Y-37761904D01*
X-5885657Y-37761904D02*
X-5790419Y-37809523D01*
X-5790419Y-37809523D02*
X-5742800Y-37857142D01*
X-5742800Y-37857142D02*
X-5695180Y-37952380D01*
X-5695180Y-37952380D02*
X-5695180Y-38047618D01*
X-5695180Y-38047618D02*
X-5742800Y-38142856D01*
X-5742800Y-38142856D02*
X-5790419Y-38190475D01*
X-5790419Y-38190475D02*
X-5885657Y-38238094D01*
X-5885657Y-38238094D02*
X-6076133Y-38285713D01*
X-6076133Y-38285713D02*
X-6314228Y-38285713D01*
X-6314228Y-38285713D02*
X-6504704Y-38238094D01*
X-6504704Y-38238094D02*
X-6599942Y-38190475D01*
X-6599942Y-38190475D02*
X-6647561Y-38142856D01*
X-6647561Y-38142856D02*
X-6695180Y-38047618D01*
X-6695180Y-37095237D02*
X-6695180Y-36999999D01*
X-6695180Y-36999999D02*
X-6647561Y-36904761D01*
X-6647561Y-36904761D02*
X-6599942Y-36857142D01*
X-6599942Y-36857142D02*
X-6504704Y-36809523D01*
X-6504704Y-36809523D02*
X-6314228Y-36761904D01*
X-6314228Y-36761904D02*
X-6076133Y-36761904D01*
X-6076133Y-36761904D02*
X-5885657Y-36809523D01*
X-5885657Y-36809523D02*
X-5790419Y-36857142D01*
X-5790419Y-36857142D02*
X-5742800Y-36904761D01*
X-5742800Y-36904761D02*
X-5695180Y-36999999D01*
X-5695180Y-36999999D02*
X-5695180Y-37095237D01*
X-5695180Y-37095237D02*
X-5742800Y-37190475D01*
X-5742800Y-37190475D02*
X-5790419Y-37238094D01*
X-5790419Y-37238094D02*
X-5885657Y-37285713D01*
X-5885657Y-37285713D02*
X-6076133Y-37333332D01*
X-6076133Y-37333332D02*
X-6314228Y-37333332D01*
X-6314228Y-37333332D02*
X-6504704Y-37285713D01*
X-6504704Y-37285713D02*
X-6599942Y-37238094D01*
X-6599942Y-37238094D02*
X-6647561Y-37190475D01*
X-6647561Y-37190475D02*
X-6695180Y-37095237D01*
X-5695180Y-35571427D02*
X-6361847Y-35571427D01*
X-6266609Y-35571427D02*
X-6314228Y-35523808D01*
X-6314228Y-35523808D02*
X-6361847Y-35428570D01*
X-6361847Y-35428570D02*
X-6361847Y-35285713D01*
X-6361847Y-35285713D02*
X-6314228Y-35190475D01*
X-6314228Y-35190475D02*
X-6218990Y-35142856D01*
X-6218990Y-35142856D02*
X-5695180Y-35142856D01*
X-6218990Y-35142856D02*
X-6314228Y-35095237D01*
X-6314228Y-35095237D02*
X-6361847Y-34999999D01*
X-6361847Y-34999999D02*
X-6361847Y-34857142D01*
X-6361847Y-34857142D02*
X-6314228Y-34761903D01*
X-6314228Y-34761903D02*
X-6218990Y-34714284D01*
X-6218990Y-34714284D02*
X-5695180Y-34714284D01*
X-5695180Y-34238094D02*
X-6361847Y-34238094D01*
X-6266609Y-34238094D02*
X-6314228Y-34190475D01*
X-6314228Y-34190475D02*
X-6361847Y-34095237D01*
X-6361847Y-34095237D02*
X-6361847Y-33952380D01*
X-6361847Y-33952380D02*
X-6314228Y-33857142D01*
X-6314228Y-33857142D02*
X-6218990Y-33809523D01*
X-6218990Y-33809523D02*
X-5695180Y-33809523D01*
X-6218990Y-33809523D02*
X-6314228Y-33761904D01*
X-6314228Y-33761904D02*
X-6361847Y-33666666D01*
X-6361847Y-33666666D02*
X-6361847Y-33523809D01*
X-6361847Y-33523809D02*
X-6314228Y-33428570D01*
X-6314228Y-33428570D02*
X-6218990Y-33380951D01*
X-6218990Y-33380951D02*
X-5695180Y-33380951D01*
X4500000Y-74000000D02*
X-5586420Y-74000000D01*
X4500000Y0D02*
X-5586420Y0D01*
X-5000000Y-74000000D02*
X-5000000Y0D01*
X-5000000Y-74000000D02*
X-5000000Y0D01*
X-5000000Y-74000000D02*
X-5586421Y-72873496D01*
X-5000000Y-74000000D02*
X-4413579Y-72873496D01*
X-5000000Y0D02*
X-4413579Y-1126504D01*
X-5000000Y0D02*
X-5586421Y-1126504D01*
%TO.C,H4*%
X100200000Y-57000000D02*
G75*
G03*
X93800000Y-57000000I-3200000J0D01*
G01*
X93800000Y-57000000D02*
G75*
G03*
X100200000Y-57000000I3200000J0D01*
G01*
%TO.C,H1*%
X20200000Y-17000000D02*
G75*
G03*
X13800000Y-17000000I-3200000J0D01*
G01*
X13800000Y-17000000D02*
G75*
G03*
X20200000Y-17000000I3200000J0D01*
G01*
%TO.C,H3*%
X20200000Y-57000000D02*
G75*
G03*
X13800000Y-57000000I-3200000J0D01*
G01*
X13800000Y-57000000D02*
G75*
G03*
X20200000Y-57000000I3200000J0D01*
G01*
%TO.C,H2*%
X100200000Y-17000000D02*
G75*
G03*
X93800000Y-17000000I-3200000J0D01*
G01*
X93800000Y-17000000D02*
G75*
G03*
X100200000Y-17000000I3200000J0D01*
G01*
%TD*%
M02*
