%TF.GenerationSoftware,KiCad,Pcbnew,7.0.10*%
%TF.CreationDate,2024-07-30T22:38:02+09:00*%
%TF.ProjectId,Latch-Circuit,4c617463-682d-4436-9972-637569742e6b,rev?*%
%TF.SameCoordinates,Original*%
%TF.FileFunction,Paste,Top*%
%TF.FilePolarity,Positive*%
%FSLAX46Y46*%
G04 Gerber Fmt 4.6, Leading zero omitted, Abs format (unit mm)*
G04 Created by KiCad (PCBNEW 7.0.10) date 2024-07-30 22:38:02*
%MOMM*%
%LPD*%
G01*
G04 APERTURE LIST*
G04 Aperture macros list*
%AMRoundRect*
0 Rectangle with rounded corners*
0 $1 Rounding radius*
0 $2 $3 $4 $5 $6 $7 $8 $9 X,Y pos of 4 corners*
0 Add a 4 corners polygon primitive as box body*
4,1,4,$2,$3,$4,$5,$6,$7,$8,$9,$2,$3,0*
0 Add four circle primitives for the rounded corners*
1,1,$1+$1,$2,$3*
1,1,$1+$1,$4,$5*
1,1,$1+$1,$6,$7*
1,1,$1+$1,$8,$9*
0 Add four rect primitives between the rounded corners*
20,1,$1+$1,$2,$3,$4,$5,0*
20,1,$1+$1,$4,$5,$6,$7,0*
20,1,$1+$1,$6,$7,$8,$9,0*
20,1,$1+$1,$8,$9,$2,$3,0*%
G04 Aperture macros list end*
%ADD10RoundRect,0.200000X-0.275000X0.200000X-0.275000X-0.200000X0.275000X-0.200000X0.275000X0.200000X0*%
%ADD11RoundRect,0.200000X0.200000X0.275000X-0.200000X0.275000X-0.200000X-0.275000X0.200000X-0.275000X0*%
%ADD12RoundRect,0.050000X-0.350000X-0.400000X0.350000X-0.400000X0.350000X0.400000X-0.350000X0.400000X0*%
%ADD13RoundRect,0.200000X-0.200000X-0.275000X0.200000X-0.275000X0.200000X0.275000X-0.200000X0.275000X0*%
%ADD14RoundRect,0.218750X-0.218750X-0.256250X0.218750X-0.256250X0.218750X0.256250X-0.218750X0.256250X0*%
%ADD15RoundRect,0.050000X1.400000X-0.450000X1.400000X0.450000X-1.400000X0.450000X-1.400000X-0.450000X0*%
%ADD16RoundRect,0.090000X1.710000X-0.810000X1.710000X0.810000X-1.710000X0.810000X-1.710000X-0.810000X0*%
%ADD17RoundRect,0.050000X0.450000X1.400000X-0.450000X1.400000X-0.450000X-1.400000X0.450000X-1.400000X0*%
%ADD18RoundRect,0.090000X0.810000X1.710000X-0.810000X1.710000X-0.810000X-1.710000X0.810000X-1.710000X0*%
%ADD19RoundRect,0.200000X0.275000X-0.200000X0.275000X0.200000X-0.275000X0.200000X-0.275000X-0.200000X0*%
%ADD20RoundRect,0.100000X0.300000X-0.350000X0.300000X0.350000X-0.300000X0.350000X-0.300000X-0.350000X0*%
%ADD21RoundRect,0.250000X0.650000X-0.325000X0.650000X0.325000X-0.650000X0.325000X-0.650000X-0.325000X0*%
%ADD22RoundRect,0.100000X-0.375000X0.350000X-0.375000X-0.350000X0.375000X-0.350000X0.375000X0.350000X0*%
%ADD23RoundRect,0.050000X-0.400000X0.350000X-0.400000X-0.350000X0.400000X-0.350000X0.400000X0.350000X0*%
%ADD24RoundRect,0.225000X0.250000X-0.225000X0.250000X0.225000X-0.250000X0.225000X-0.250000X-0.225000X0*%
%ADD25RoundRect,0.218750X0.256250X-0.218750X0.256250X0.218750X-0.256250X0.218750X-0.256250X-0.218750X0*%
%ADD26RoundRect,0.100000X-0.350000X-0.300000X0.350000X-0.300000X0.350000X0.300000X-0.350000X0.300000X0*%
%ADD27RoundRect,0.100000X0.350000X0.300000X-0.350000X0.300000X-0.350000X-0.300000X0.350000X-0.300000X0*%
%ADD28RoundRect,0.218750X-0.256250X0.218750X-0.256250X-0.218750X0.256250X-0.218750X0.256250X0.218750X0*%
%ADD29RoundRect,0.100000X1.200000X0.600000X-1.200000X0.600000X-1.200000X-0.600000X1.200000X-0.600000X0*%
%ADD30RoundRect,0.100000X0.550000X0.600000X-0.550000X0.600000X-0.550000X-0.600000X0.550000X-0.600000X0*%
%ADD31RoundRect,0.225000X-0.250000X0.225000X-0.250000X-0.225000X0.250000X-0.225000X0.250000X0.225000X0*%
%ADD32RoundRect,0.250000X0.312500X0.625000X-0.312500X0.625000X-0.312500X-0.625000X0.312500X-0.625000X0*%
%ADD33RoundRect,0.250000X-0.325000X-0.650000X0.325000X-0.650000X0.325000X0.650000X-0.325000X0.650000X0*%
G04 APERTURE END LIST*
D10*
%TO.C,R17*%
X45000000Y-18675000D03*
X45000000Y-20325000D03*
%TD*%
D11*
%TO.C,R15*%
X48325000Y-28500000D03*
X46675000Y-28500000D03*
%TD*%
D10*
%TO.C,R46*%
X36000000Y-41675000D03*
X36000000Y-43325000D03*
%TD*%
D12*
%TO.C,Q1*%
X5550000Y-24000000D03*
X7450000Y-24000000D03*
X6500000Y-22000000D03*
%TD*%
D13*
%TO.C,R11*%
X32675000Y-18750000D03*
X34325000Y-18750000D03*
%TD*%
D14*
%TO.C,D2*%
X3462500Y-30500000D03*
X5037500Y-30500000D03*
%TD*%
D15*
%TO.C,J6*%
X15700000Y-42000000D03*
X15700000Y-44000000D03*
D16*
X20350000Y-39650000D03*
X20350000Y-46350000D03*
%TD*%
D13*
%TO.C,R34*%
X32675000Y-30750000D03*
X34325000Y-30750000D03*
%TD*%
D17*
%TO.C,J10*%
X54000000Y-9800000D03*
X56000000Y-9800000D03*
D18*
X51650000Y-5150000D03*
X58350000Y-5150000D03*
%TD*%
D19*
%TO.C,R20*%
X50250000Y-27075000D03*
X50250000Y-25425000D03*
%TD*%
%TO.C,R8*%
X28750000Y-16825000D03*
X28750000Y-15175000D03*
%TD*%
D10*
%TO.C,R37*%
X23750000Y-30175000D03*
X23750000Y-31825000D03*
%TD*%
D20*
%TO.C,Q3*%
X52550000Y-17250000D03*
X54450000Y-17250000D03*
X53500000Y-15250000D03*
%TD*%
D10*
%TO.C,R40*%
X45000000Y-30675000D03*
X45000000Y-32325000D03*
%TD*%
D19*
%TO.C,R28*%
X28750000Y-28825000D03*
X28750000Y-27175000D03*
%TD*%
D10*
%TO.C,R41*%
X43250000Y-28175000D03*
X43250000Y-29825000D03*
%TD*%
%TO.C,R16*%
X37750000Y-19675000D03*
X37750000Y-21325000D03*
%TD*%
D21*
%TO.C,C2*%
X11500000Y-26725000D03*
X11500000Y-23775000D03*
%TD*%
D22*
%TO.C,D7*%
X54500000Y-44425000D03*
X54500000Y-47575000D03*
%TD*%
D19*
%TO.C,R29*%
X28750000Y-41325000D03*
X28750000Y-39675000D03*
%TD*%
%TO.C,R22*%
X48500000Y-22325000D03*
X48500000Y-20675000D03*
%TD*%
D23*
%TO.C,Q13*%
X34000000Y-32550000D03*
X34000000Y-34450000D03*
X36000000Y-33500000D03*
%TD*%
D11*
%TO.C,R36*%
X53825000Y-13500000D03*
X52175000Y-13500000D03*
%TD*%
D10*
%TO.C,R5*%
X13750000Y-24175000D03*
X13750000Y-25825000D03*
%TD*%
D24*
%TO.C,C11*%
X41500000Y-42275000D03*
X41500000Y-40725000D03*
%TD*%
D20*
%TO.C,Q6*%
X46550000Y-26750000D03*
X48450000Y-26750000D03*
X47500000Y-24750000D03*
%TD*%
D15*
%TO.C,J4*%
X15700000Y-18000000D03*
X15700000Y-20000000D03*
D16*
X20350000Y-15650000D03*
X20350000Y-22350000D03*
%TD*%
D25*
%TO.C,D5*%
X50250000Y-23787500D03*
X50250000Y-22212500D03*
%TD*%
D10*
%TO.C,R9*%
X32250000Y-20675000D03*
X32250000Y-22325000D03*
%TD*%
D17*
%TO.C,J1*%
X6500000Y-18300000D03*
X8500000Y-18300000D03*
D18*
X4150000Y-13650000D03*
X10850000Y-13650000D03*
%TD*%
D10*
%TO.C,R2*%
X3750000Y-22175000D03*
X3750000Y-23825000D03*
%TD*%
D23*
%TO.C,Q19*%
X41250000Y-44050000D03*
X41250000Y-45950000D03*
X43250000Y-45000000D03*
%TD*%
D24*
%TO.C,C8*%
X39500000Y-33275000D03*
X39500000Y-31725000D03*
%TD*%
D17*
%TO.C,J9*%
X64000000Y-9800000D03*
X66000000Y-9800000D03*
D18*
X61650000Y-5150000D03*
X68350000Y-5150000D03*
%TD*%
D24*
%TO.C,C10*%
X39500000Y-45775000D03*
X39500000Y-44225000D03*
%TD*%
D10*
%TO.C,R43*%
X45000000Y-43175000D03*
X45000000Y-44825000D03*
%TD*%
D11*
%TO.C,R25*%
X48325000Y-41000000D03*
X46675000Y-41000000D03*
%TD*%
D24*
%TO.C,C4*%
X39500000Y-21275000D03*
X39500000Y-19725000D03*
%TD*%
D26*
%TO.C,Q11*%
X32250000Y-27050000D03*
X32250000Y-28950000D03*
X34250000Y-28000000D03*
%TD*%
D10*
%TO.C,R38*%
X23750000Y-42175000D03*
X23750000Y-43825000D03*
%TD*%
D20*
%TO.C,Q9*%
X52550000Y-29250000D03*
X54450000Y-29250000D03*
X53500000Y-27250000D03*
%TD*%
D27*
%TO.C,Q17*%
X39750000Y-42450000D03*
X39750000Y-40550000D03*
X37750000Y-41500000D03*
%TD*%
D10*
%TO.C,R13*%
X23750000Y-18175000D03*
X23750000Y-19825000D03*
%TD*%
%TO.C,R42*%
X37750000Y-44175000D03*
X37750000Y-45825000D03*
%TD*%
%TO.C,R24*%
X46750000Y-42675000D03*
X46750000Y-44325000D03*
%TD*%
D28*
%TO.C,D3*%
X23750000Y-14712500D03*
X23750000Y-16287500D03*
%TD*%
D24*
%TO.C,C9*%
X41500000Y-29775000D03*
X41500000Y-28225000D03*
%TD*%
D19*
%TO.C,R47*%
X48500000Y-34325000D03*
X48500000Y-32675000D03*
%TD*%
%TO.C,R27*%
X27000000Y-39325000D03*
X27000000Y-37675000D03*
%TD*%
D29*
%TO.C,D1*%
X7975000Y-26250000D03*
D30*
X5525000Y-26250000D03*
%TD*%
D27*
%TO.C,Q7*%
X39750000Y-17950000D03*
X39750000Y-16050000D03*
X37750000Y-17000000D03*
%TD*%
D10*
%TO.C,R4*%
X44750000Y-12925000D03*
X44750000Y-14575000D03*
%TD*%
D19*
%TO.C,R26*%
X27000000Y-27575000D03*
X27000000Y-25925000D03*
%TD*%
D13*
%TO.C,R35*%
X32675000Y-43250000D03*
X34325000Y-43250000D03*
%TD*%
D22*
%TO.C,D4*%
X54500000Y-20425000D03*
X54500000Y-23575000D03*
%TD*%
D31*
%TO.C,C7*%
X30500000Y-39725000D03*
X30500000Y-41275000D03*
%TD*%
D17*
%TO.C,J2*%
X38000000Y-9800000D03*
X40000000Y-9800000D03*
X42000000Y-9800000D03*
D18*
X35650000Y-5150000D03*
X44350000Y-5150000D03*
%TD*%
D13*
%TO.C,R6*%
X35175000Y-13000000D03*
X36825000Y-13000000D03*
%TD*%
D22*
%TO.C,D6*%
X54500000Y-32425000D03*
X54500000Y-35575000D03*
%TD*%
D25*
%TO.C,D11*%
X50250000Y-48287500D03*
X50250000Y-46712500D03*
%TD*%
D10*
%TO.C,R44*%
X43250000Y-40675000D03*
X43250000Y-42325000D03*
%TD*%
D20*
%TO.C,Q2*%
X46550000Y-14750000D03*
X48450000Y-14750000D03*
X47500000Y-12750000D03*
%TD*%
D26*
%TO.C,Q12*%
X32250000Y-39550000D03*
X32250000Y-41450000D03*
X34250000Y-40500000D03*
%TD*%
D11*
%TO.C,R23*%
X63825000Y-13500000D03*
X62175000Y-13500000D03*
%TD*%
D28*
%TO.C,D9*%
X23750000Y-38712500D03*
X23750000Y-40287500D03*
%TD*%
D10*
%TO.C,R32*%
X32250000Y-32675000D03*
X32250000Y-34325000D03*
%TD*%
D32*
%TO.C,R49*%
X13962500Y-6500000D03*
X11037500Y-6500000D03*
%TD*%
D23*
%TO.C,Q14*%
X34000000Y-45050000D03*
X34000000Y-46950000D03*
X36000000Y-46000000D03*
%TD*%
D11*
%TO.C,R3*%
X48325000Y-16500000D03*
X46675000Y-16500000D03*
%TD*%
D25*
%TO.C,D10*%
X50250000Y-35787500D03*
X50250000Y-34212500D03*
%TD*%
D27*
%TO.C,Q16*%
X39750000Y-29950000D03*
X39750000Y-28050000D03*
X37750000Y-29000000D03*
%TD*%
D10*
%TO.C,R30*%
X44750000Y-37425000D03*
X44750000Y-39075000D03*
%TD*%
D23*
%TO.C,Q5*%
X34000000Y-20550000D03*
X34000000Y-22450000D03*
X36000000Y-21500000D03*
%TD*%
D15*
%TO.C,J5*%
X15700000Y-30000000D03*
X15700000Y-32000000D03*
D16*
X20350000Y-27650000D03*
X20350000Y-34350000D03*
%TD*%
D10*
%TO.C,R21*%
X36000000Y-17175000D03*
X36000000Y-18825000D03*
%TD*%
D20*
%TO.C,Q10*%
X46550000Y-39250000D03*
X48450000Y-39250000D03*
X47500000Y-37250000D03*
%TD*%
D31*
%TO.C,C6*%
X30500000Y-27225000D03*
X30500000Y-28775000D03*
%TD*%
D10*
%TO.C,R33*%
X32250000Y-45175000D03*
X32250000Y-46825000D03*
%TD*%
D17*
%TO.C,J3*%
X24000000Y-9800000D03*
X26000000Y-9800000D03*
D18*
X21650000Y-5150000D03*
X28350000Y-5150000D03*
%TD*%
D23*
%TO.C,Q18*%
X41250000Y-31550000D03*
X41250000Y-33450000D03*
X43250000Y-32500000D03*
%TD*%
D19*
%TO.C,R31*%
X50250000Y-39575000D03*
X50250000Y-37925000D03*
%TD*%
D24*
%TO.C,C5*%
X41500000Y-17775000D03*
X41500000Y-16225000D03*
%TD*%
D10*
%TO.C,R1*%
X46750000Y-18175000D03*
X46750000Y-19825000D03*
%TD*%
D13*
%TO.C,R12*%
X5425000Y-28750000D03*
X7075000Y-28750000D03*
%TD*%
D33*
%TO.C,C1*%
X9025000Y-29000000D03*
X11975000Y-29000000D03*
%TD*%
D19*
%TO.C,R48*%
X48500000Y-46825000D03*
X48500000Y-45175000D03*
%TD*%
D31*
%TO.C,C3*%
X30500000Y-15225000D03*
X30500000Y-16775000D03*
%TD*%
D10*
%TO.C,R18*%
X43250000Y-16175000D03*
X43250000Y-17825000D03*
%TD*%
D28*
%TO.C,D8*%
X23750000Y-26712500D03*
X23750000Y-28287500D03*
%TD*%
D10*
%TO.C,R45*%
X36000000Y-29175000D03*
X36000000Y-30825000D03*
%TD*%
D33*
%TO.C,C12*%
X11025000Y-3500000D03*
X13975000Y-3500000D03*
%TD*%
D23*
%TO.C,Q8*%
X41250000Y-19550000D03*
X41250000Y-21450000D03*
X43250000Y-20500000D03*
%TD*%
D10*
%TO.C,R39*%
X37750000Y-31675000D03*
X37750000Y-33325000D03*
%TD*%
%TO.C,R19*%
X44750000Y-24925000D03*
X44750000Y-26575000D03*
%TD*%
D17*
%TO.C,J8*%
X74000000Y-9800000D03*
X76000000Y-9800000D03*
D18*
X71650000Y-5150000D03*
X78350000Y-5150000D03*
%TD*%
D19*
%TO.C,R7*%
X50250000Y-15075000D03*
X50250000Y-13425000D03*
%TD*%
D11*
%TO.C,R10*%
X73825000Y-13500000D03*
X72175000Y-13500000D03*
%TD*%
D20*
%TO.C,Q15*%
X52550000Y-41750000D03*
X54450000Y-41750000D03*
X53500000Y-39750000D03*
%TD*%
D10*
%TO.C,R14*%
X46750000Y-30175000D03*
X46750000Y-31825000D03*
%TD*%
D26*
%TO.C,Q4*%
X32250000Y-15050000D03*
X32250000Y-16950000D03*
X34250000Y-16000000D03*
%TD*%
M02*
