M48
; DRILL file {KiCad 9.0.6} date 2026-04-04T15:29:38+0900
; FORMAT={-:-/ absolute / inch / decimal}
; #@! TF.CreationDate,2026-04-04T15:29:38+09:00
; #@! TF.GenerationSoftware,Kicad,Pcbnew,9.0.6
; #@! TF.FileFunction,Plated,1,4,PTH
FMAT,2
INCH
; #@! TA.AperFunction,Plated,PTH,ViaDrill
T1C0.0079
; #@! TA.AperFunction,Plated,PTH,ComponentDrill
T2C0.0236
; #@! TA.AperFunction,Plated,PTH,ComponentDrill
T3C0.0650
; #@! TA.AperFunction,Plated,PTH,ComponentDrill
T4C0.0949
; #@! TA.AperFunction,Plated,PTH,ComponentDrill
T5C0.1693
%
G90
G05
T1
X0.3051Y-0.7382
X0.3051Y-0.7677
X0.3051Y-0.8661
X0.3051Y-0.9646
X0.3051Y-1.063
X0.3051Y-1.1614
X0.3051Y-1.2598
X0.3051Y-1.3583
X0.3051Y-1.4567
X0.3051Y-1.5551
X0.374Y-0.7382
X0.374Y-1.4862
X0.3937Y-0.7677
X0.4134Y-0.876
X0.4626Y-1.0039
X0.4626Y-1.122
X0.4626Y-1.2402
X0.4626Y-1.3583
X0.4724Y-0.7382
X0.4724Y-0.7677
X0.4724Y-1.4567
X0.4921Y-1.0039
X0.4921Y-1.122
X0.4921Y-1.2402
X0.4921Y-1.3583
X0.5315Y-0.876
X0.5512Y-0.9744
X0.5512Y-1.0335
X0.5512Y-1.0925
X0.5512Y-1.1516
X0.5512Y-1.2106
X0.5512Y-1.2697
X0.5512Y-1.3287
X0.5512Y-1.3878
X0.561Y-0.7677
X0.5709Y-1.8209
X0.5807Y-0.6988
X0.6102Y-1.1516
X0.6102Y-1.3091
X0.6102Y-1.5157
X0.6299Y-0.6988
X0.6299Y-0.935
X0.6299Y-1.0531
X0.6398Y-1.752
X0.6496Y-1.0039
X0.6496Y-1.122
X0.6496Y-1.2402
X0.6496Y-1.3091
X0.6594Y-0.3051
X0.6594Y-0.4035
X0.6594Y-0.502
X0.6594Y-0.6201
X0.6693Y-1.6535
X0.6693Y-1.8209
X0.689Y-0.3051
X0.689Y-0.5512
X0.689Y-0.6398
X0.689Y-0.7677
X0.689Y-1.3386
X0.6988Y-0.935
X0.6988Y-1.4961
X0.6988Y-1.5846
X0.7087Y-1.4173
X0.7677Y-0.3051
X0.7677Y-1.8209
X0.7776Y-0.6102
X0.7776Y-0.6988
X0.7776Y-0.7579
X0.7776Y-0.8563
X0.7776Y-0.935
X0.7776Y-0.9646
X0.7776Y-1.063
X0.7776Y-1.1811
X0.7776Y-1.3386
X0.7874Y-0.3937
X0.7874Y-0.7283
X0.7874Y-1.3878
X0.7972Y-1.5157
X0.7972Y-1.5846
X0.8071Y-1.0236
X0.8071Y-1.1024
X0.8071Y-1.1319
X0.8071Y-1.1614
X0.8169Y-0.7972
X0.8268Y-0.4331
X0.8268Y-1.1909
X0.8366Y-1.1024
X0.8366Y-1.1319
X0.8661Y-0.3051
X0.8661Y-0.7972
X0.8661Y-1.1024
X0.8661Y-1.1319
X0.8661Y-1.3878
X0.8661Y-1.8209
X0.876Y-0.6102
X0.8957Y-0.4331
X0.8957Y-0.7087
X0.8957Y-0.9843
X0.9055Y-0.876
X0.9055Y-1.4862
X0.9055Y-1.5846
X0.935Y-1.3878
X0.9449Y-0.8268
X0.9449Y-0.9449
X0.9449Y-1.2205
X0.9547Y-0.7087
X0.9646Y-0.3051
X0.9646Y-0.6102
X0.9646Y-1.8209
X0.9843Y-0.9843
X0.9843Y-1.3287
X0.9941Y-1.2795
X1.0039Y-0.9055
X1.0138Y-0.935
X1.0138Y-1.2402
X1.0236Y-1.3878
X1.0335Y-0.4331
X1.0433Y-0.6791
X1.0531Y-1.4567
X1.0531Y-1.5354
X1.063Y-0.3051
X1.063Y-0.6102
X1.063Y-0.7087
X1.063Y-1.2598
X1.063Y-1.8209
X1.0728Y-0.7972
X1.0728Y-0.935
X1.0728Y-0.9843
X1.0728Y-1.2205
X1.1024Y-0.4331
X1.1024Y-1.1319
X1.122Y-1.2894
X1.122Y-1.4075
X1.1417Y-0.9547
X1.1516Y-0.6102
X1.1516Y-0.6791
X1.1614Y-0.3051
X1.1614Y-1.8209
X1.1713Y-0.4331
X1.1811Y-1.378
X1.1909Y-1.2205
X1.1909Y-1.3287
X1.2205Y-0.8661
X1.2205Y-0.9252
X1.2205Y-0.9843
X1.2303Y-1.1122
X1.2303Y-1.2205
X1.2402Y-0.6102
X1.2402Y-0.6791
X1.2598Y-0.3051
X1.2598Y-1.2894
X1.2598Y-1.4075
X1.2598Y-1.8209
X1.2697Y-1.7028
X1.2894Y-1.2205
X1.2894Y-1.624
X1.3091Y-0.4331
X1.3189Y-1.6142
X1.3287Y-0.6102
X1.3287Y-0.6791
X1.3287Y-1.4173
X1.3583Y-0.3051
X1.3583Y-1.8209
X1.3681Y-0.6791
X1.3681Y-0.8661
X1.3681Y-0.9843
X1.3681Y-1.1122
X1.3681Y-1.2205
X1.3681Y-1.4469
X1.3681Y-1.5157
X1.378Y-0.4331
X1.378Y-0.7972
X1.378Y-1.5846
X1.378Y-1.6437
X1.3976Y-1.2106
X1.4075Y-0.8366
X1.4075Y-1.565
X1.4272Y-0.6102
X1.4272Y-0.6496
X1.4272Y-1.0433
X1.4469Y-0.4331
X1.4469Y-1.4469
X1.4469Y-1.5157
X1.4469Y-1.5846
X1.4567Y-0.3051
X1.4567Y-0.876
X1.4567Y-0.9252
X1.4567Y-0.9744
X1.4567Y-1.8209
X1.4665Y-0.7382
X1.4665Y-1.2106
X1.4665Y-1.4173
X1.4961Y-1.7028
X1.5059Y-1.0433
X1.5059Y-1.1122
X1.5059Y-1.2205
X1.5157Y-0.6102
X1.5157Y-0.6791
X1.5354Y-1.2106
X1.5551Y-0.3051
X1.5551Y-1.8209
X1.565Y-0.876
X1.565Y-0.9941
X1.565Y-1.4272
X1.5748Y-1.0925
X1.5846Y-0.748
X1.5945Y-0.9055
X1.6043Y-1.1811
X1.6043Y-1.3189
X1.6043Y-1.4173
X1.6142Y-1.3878
X1.6142Y-1.7028
X1.624Y-0.6102
X1.624Y-1.4469
X1.6339Y-0.9449
X1.6535Y-0.3051
X1.6535Y-1.8209
X1.6732Y-0.6988
X1.6732Y-1.2598
X1.6929Y-0.561
X1.7224Y-1.2106
X1.7224Y-1.3681
X1.7323Y-1.7028
X1.7421Y-1.122
X1.752Y-0.3051
X1.752Y-1.8209
X1.7618Y-0.6791
X1.7618Y-0.9449
X1.7717Y-0.7382
X1.7717Y-1.1417
X1.7717Y-1.2795
X1.8012Y-0.3642
X1.8012Y-0.6102
X1.8012Y-1.0236
X1.8012Y-1.122
X1.8209Y-0.7874
X1.8307Y-0.9547
X1.8307Y-1.2106
X1.8406Y-0.6791
X1.8406Y-0.8563
X1.8504Y-0.3051
X1.8504Y-0.4331
X1.8504Y-0.5315
X1.8504Y-1.8209
X1.8602Y-1.0925
X1.8701Y-0.7382
X1.8898Y-0.9547
X1.8898Y-1.1417
X1.8898Y-1.2795
X1.9094Y-0.6102
X1.9193Y-0.6791
X1.9193Y-1.0925
X1.939Y-0.8366
X1.9488Y-0.3051
X1.9488Y-0.9547
X1.9488Y-1.2106
X1.9488Y-1.8209
X1.9685Y-0.9154
X1.9783Y-0.7677
X1.9783Y-1.0236
X1.9783Y-1.122
X1.998Y-0.7087
X2.0079Y-1.1417
X2.0079Y-1.2795
X2.0374Y-0.7677
X2.0374Y-1.122
X2.0571Y-0.8563
X2.0571Y-1.2106
X2.0965Y-0.6594
X2.2146Y-0.5709
X2.2146Y-0.6693
X2.2146Y-0.7677
X2.2146Y-0.8661
X2.2146Y-0.9646
X2.2146Y-1.063
X2.2146Y-1.1614
X2.2146Y-1.2598
X2.2146Y-1.3583
X2.2146Y-1.4567
X2.2146Y-1.5551
T2
X0.3455Y-0.4724
X0.3455Y-1.6535
X0.3827Y-0.3827
X0.3827Y-0.5622
X0.3827Y-1.5638
X0.3827Y-1.7433
X0.4724Y-0.3455
X0.4724Y-0.5994
X0.4724Y-1.5266
X0.4724Y-1.7805
X0.5622Y-0.3827
X0.5622Y-0.5622
X0.5622Y-1.5638
X0.5622Y-1.7433
X0.5994Y-0.4724
X0.5994Y-1.6535
X1.9203Y-0.4724
X1.9203Y-1.6535
X1.9575Y-0.3827
X1.9575Y-0.5622
X1.9575Y-1.5638
X1.9575Y-1.7433
X2.0472Y-0.3455
X2.0472Y-0.5994
X2.0472Y-1.5266
X2.0472Y-1.7805
X2.137Y-0.3827
X2.137Y-0.5622
X2.137Y-1.5638
X2.137Y-1.7433
X2.1742Y-0.4724
X2.1742Y-1.6535
T3
X1.6142Y-0.5295
X1.7701Y-0.5295
T4
X0.7593Y-1.6732
X1.0518Y-1.6732
X1.2343Y-1.5157
X1.687Y-1.0236
X1.7579Y-1.5157
X2.0925Y-1.0236
T5
X0.4724Y-0.4724
X0.4724Y-1.6535
X2.0472Y-0.4724
X2.0472Y-1.6535
M30
