%TF.GenerationSoftware,KiCad,Pcbnew,7.0.10*%
%TF.CreationDate,2024-07-30T22:44:23+09:00*%
%TF.ProjectId,Latch-Circuit,4c617463-682d-4436-9972-637569742e6b,rev?*%
%TF.SameCoordinates,Original*%
%TF.FileFunction,Paste,Top*%
%TF.FilePolarity,Positive*%
%FSLAX46Y46*%
G04 Gerber Fmt 4.6, Leading zero omitted, Abs format (unit mm)*
G04 Created by KiCad (PCBNEW 7.0.10) date 2024-07-30 22:44:23*
%MOMM*%
%LPD*%
G01*
G04 APERTURE LIST*
G04 Aperture macros list*
%AMRoundRect*
0 Rectangle with rounded corners*
0 $1 Rounding radius*
0 $2 $3 $4 $5 $6 $7 $8 $9 X,Y pos of 4 corners*
0 Add a 4 corners polygon primitive as box body*
4,1,4,$2,$3,$4,$5,$6,$7,$8,$9,$2,$3,0*
0 Add four circle primitives for the rounded corners*
1,1,$1+$1,$2,$3*
1,1,$1+$1,$4,$5*
1,1,$1+$1,$6,$7*
1,1,$1+$1,$8,$9*
0 Add four rect primitives between the rounded corners*
20,1,$1+$1,$2,$3,$4,$5,0*
20,1,$1+$1,$4,$5,$6,$7,0*
20,1,$1+$1,$6,$7,$8,$9,0*
20,1,$1+$1,$8,$9,$2,$3,0*%
G04 Aperture macros list end*
%ADD10RoundRect,0.200000X-0.275000X0.200000X-0.275000X-0.200000X0.275000X-0.200000X0.275000X0.200000X0*%
%ADD11RoundRect,0.200000X0.200000X0.275000X-0.200000X0.275000X-0.200000X-0.275000X0.200000X-0.275000X0*%
%ADD12RoundRect,0.050000X-0.350000X-0.400000X0.350000X-0.400000X0.350000X0.400000X-0.350000X0.400000X0*%
%ADD13RoundRect,0.200000X-0.200000X-0.275000X0.200000X-0.275000X0.200000X0.275000X-0.200000X0.275000X0*%
%ADD14RoundRect,0.218750X-0.218750X-0.256250X0.218750X-0.256250X0.218750X0.256250X-0.218750X0.256250X0*%
%ADD15RoundRect,0.050000X1.400000X-0.450000X1.400000X0.450000X-1.400000X0.450000X-1.400000X-0.450000X0*%
%ADD16RoundRect,0.090000X1.710000X-0.810000X1.710000X0.810000X-1.710000X0.810000X-1.710000X-0.810000X0*%
%ADD17RoundRect,0.050000X0.450000X1.400000X-0.450000X1.400000X-0.450000X-1.400000X0.450000X-1.400000X0*%
%ADD18RoundRect,0.090000X0.810000X1.710000X-0.810000X1.710000X-0.810000X-1.710000X0.810000X-1.710000X0*%
%ADD19RoundRect,0.200000X0.275000X-0.200000X0.275000X0.200000X-0.275000X0.200000X-0.275000X-0.200000X0*%
%ADD20RoundRect,0.100000X0.300000X-0.350000X0.300000X0.350000X-0.300000X0.350000X-0.300000X-0.350000X0*%
%ADD21RoundRect,0.250000X0.650000X-0.325000X0.650000X0.325000X-0.650000X0.325000X-0.650000X-0.325000X0*%
%ADD22RoundRect,0.100000X-0.375000X0.350000X-0.375000X-0.350000X0.375000X-0.350000X0.375000X0.350000X0*%
%ADD23RoundRect,0.050000X-0.400000X0.350000X-0.400000X-0.350000X0.400000X-0.350000X0.400000X0.350000X0*%
%ADD24RoundRect,0.225000X0.250000X-0.225000X0.250000X0.225000X-0.250000X0.225000X-0.250000X-0.225000X0*%
%ADD25RoundRect,0.218750X0.256250X-0.218750X0.256250X0.218750X-0.256250X0.218750X-0.256250X-0.218750X0*%
%ADD26RoundRect,0.100000X-0.350000X-0.300000X0.350000X-0.300000X0.350000X0.300000X-0.350000X0.300000X0*%
%ADD27RoundRect,0.100000X0.350000X0.300000X-0.350000X0.300000X-0.350000X-0.300000X0.350000X-0.300000X0*%
%ADD28RoundRect,0.218750X-0.256250X0.218750X-0.256250X-0.218750X0.256250X-0.218750X0.256250X0.218750X0*%
%ADD29RoundRect,0.100000X1.200000X0.600000X-1.200000X0.600000X-1.200000X-0.600000X1.200000X-0.600000X0*%
%ADD30RoundRect,0.100000X0.550000X0.600000X-0.550000X0.600000X-0.550000X-0.600000X0.550000X-0.600000X0*%
%ADD31RoundRect,0.225000X-0.250000X0.225000X-0.250000X-0.225000X0.250000X-0.225000X0.250000X0.225000X0*%
%ADD32RoundRect,0.250000X0.312500X0.625000X-0.312500X0.625000X-0.312500X-0.625000X0.312500X-0.625000X0*%
%ADD33RoundRect,0.250000X-0.325000X-0.650000X0.325000X-0.650000X0.325000X0.650000X-0.325000X0.650000X0*%
G04 APERTURE END LIST*
D10*
%TO.C,R17*%
X57000000Y-30675000D03*
X57000000Y-32325000D03*
%TD*%
D11*
%TO.C,R15*%
X60325000Y-40500000D03*
X58675000Y-40500000D03*
%TD*%
D10*
%TO.C,R46*%
X48000000Y-53675000D03*
X48000000Y-55325000D03*
%TD*%
D12*
%TO.C,Q1*%
X17550000Y-36000000D03*
X19450000Y-36000000D03*
X18500000Y-34000000D03*
%TD*%
D13*
%TO.C,R11*%
X44675000Y-30750000D03*
X46325000Y-30750000D03*
%TD*%
D14*
%TO.C,D2*%
X15462500Y-42500000D03*
X17037500Y-42500000D03*
%TD*%
D15*
%TO.C,J6*%
X27700000Y-54000000D03*
X27700000Y-56000000D03*
D16*
X32350000Y-51650000D03*
X32350000Y-58350000D03*
%TD*%
D13*
%TO.C,R34*%
X44675000Y-42750000D03*
X46325000Y-42750000D03*
%TD*%
D17*
%TO.C,J10*%
X66000000Y-21800000D03*
X68000000Y-21800000D03*
D18*
X63650000Y-17150000D03*
X70350000Y-17150000D03*
%TD*%
D19*
%TO.C,R20*%
X62250000Y-39075000D03*
X62250000Y-37425000D03*
%TD*%
%TO.C,R8*%
X40750000Y-28825000D03*
X40750000Y-27175000D03*
%TD*%
D10*
%TO.C,R37*%
X35750000Y-42175000D03*
X35750000Y-43825000D03*
%TD*%
D20*
%TO.C,Q3*%
X64550000Y-29250000D03*
X66450000Y-29250000D03*
X65500000Y-27250000D03*
%TD*%
D10*
%TO.C,R40*%
X57000000Y-42675000D03*
X57000000Y-44325000D03*
%TD*%
D19*
%TO.C,R28*%
X40750000Y-40825000D03*
X40750000Y-39175000D03*
%TD*%
D10*
%TO.C,R41*%
X55250000Y-40175000D03*
X55250000Y-41825000D03*
%TD*%
%TO.C,R16*%
X49750000Y-31675000D03*
X49750000Y-33325000D03*
%TD*%
D21*
%TO.C,C2*%
X23500000Y-38725000D03*
X23500000Y-35775000D03*
%TD*%
D22*
%TO.C,D7*%
X66500000Y-56425000D03*
X66500000Y-59575000D03*
%TD*%
D19*
%TO.C,R29*%
X40750000Y-53325000D03*
X40750000Y-51675000D03*
%TD*%
%TO.C,R22*%
X60500000Y-34325000D03*
X60500000Y-32675000D03*
%TD*%
D23*
%TO.C,Q13*%
X46000000Y-44550000D03*
X46000000Y-46450000D03*
X48000000Y-45500000D03*
%TD*%
D11*
%TO.C,R36*%
X65825000Y-25500000D03*
X64175000Y-25500000D03*
%TD*%
D10*
%TO.C,R5*%
X25750000Y-36175000D03*
X25750000Y-37825000D03*
%TD*%
D24*
%TO.C,C11*%
X53500000Y-54275000D03*
X53500000Y-52725000D03*
%TD*%
D20*
%TO.C,Q6*%
X58550000Y-38750000D03*
X60450000Y-38750000D03*
X59500000Y-36750000D03*
%TD*%
D15*
%TO.C,J4*%
X27700000Y-30000000D03*
X27700000Y-32000000D03*
D16*
X32350000Y-27650000D03*
X32350000Y-34350000D03*
%TD*%
D25*
%TO.C,D5*%
X62250000Y-35787500D03*
X62250000Y-34212500D03*
%TD*%
D10*
%TO.C,R9*%
X44250000Y-32675000D03*
X44250000Y-34325000D03*
%TD*%
D17*
%TO.C,J1*%
X18500000Y-30300000D03*
X20500000Y-30300000D03*
D18*
X16150000Y-25650000D03*
X22850000Y-25650000D03*
%TD*%
D10*
%TO.C,R2*%
X15750000Y-34175000D03*
X15750000Y-35825000D03*
%TD*%
D23*
%TO.C,Q19*%
X53250000Y-56050000D03*
X53250000Y-57950000D03*
X55250000Y-57000000D03*
%TD*%
D24*
%TO.C,C8*%
X51500000Y-45275000D03*
X51500000Y-43725000D03*
%TD*%
D17*
%TO.C,J9*%
X76000000Y-21800000D03*
X78000000Y-21800000D03*
D18*
X73650000Y-17150000D03*
X80350000Y-17150000D03*
%TD*%
D24*
%TO.C,C10*%
X51500000Y-57775000D03*
X51500000Y-56225000D03*
%TD*%
D10*
%TO.C,R43*%
X57000000Y-55175000D03*
X57000000Y-56825000D03*
%TD*%
D11*
%TO.C,R25*%
X60325000Y-53000000D03*
X58675000Y-53000000D03*
%TD*%
D24*
%TO.C,C4*%
X51500000Y-33275000D03*
X51500000Y-31725000D03*
%TD*%
D26*
%TO.C,Q11*%
X44250000Y-39050000D03*
X44250000Y-40950000D03*
X46250000Y-40000000D03*
%TD*%
D10*
%TO.C,R38*%
X35750000Y-54175000D03*
X35750000Y-55825000D03*
%TD*%
D20*
%TO.C,Q9*%
X64550000Y-41250000D03*
X66450000Y-41250000D03*
X65500000Y-39250000D03*
%TD*%
D27*
%TO.C,Q17*%
X51750000Y-54450000D03*
X51750000Y-52550000D03*
X49750000Y-53500000D03*
%TD*%
D10*
%TO.C,R13*%
X35750000Y-30175000D03*
X35750000Y-31825000D03*
%TD*%
%TO.C,R42*%
X49750000Y-56175000D03*
X49750000Y-57825000D03*
%TD*%
%TO.C,R24*%
X58750000Y-54675000D03*
X58750000Y-56325000D03*
%TD*%
D28*
%TO.C,D3*%
X35750000Y-26712500D03*
X35750000Y-28287500D03*
%TD*%
D24*
%TO.C,C9*%
X53500000Y-41775000D03*
X53500000Y-40225000D03*
%TD*%
D19*
%TO.C,R47*%
X60500000Y-46325000D03*
X60500000Y-44675000D03*
%TD*%
%TO.C,R27*%
X39000000Y-51325000D03*
X39000000Y-49675000D03*
%TD*%
D29*
%TO.C,D1*%
X19975000Y-38250000D03*
D30*
X17525000Y-38250000D03*
%TD*%
D27*
%TO.C,Q7*%
X51750000Y-29950000D03*
X51750000Y-28050000D03*
X49750000Y-29000000D03*
%TD*%
D10*
%TO.C,R4*%
X56750000Y-24925000D03*
X56750000Y-26575000D03*
%TD*%
D19*
%TO.C,R26*%
X39000000Y-39575000D03*
X39000000Y-37925000D03*
%TD*%
D13*
%TO.C,R35*%
X44675000Y-55250000D03*
X46325000Y-55250000D03*
%TD*%
D22*
%TO.C,D4*%
X66500000Y-32425000D03*
X66500000Y-35575000D03*
%TD*%
D31*
%TO.C,C7*%
X42500000Y-51725000D03*
X42500000Y-53275000D03*
%TD*%
D17*
%TO.C,J2*%
X50000000Y-21800000D03*
X52000000Y-21800000D03*
X54000000Y-21800000D03*
D18*
X47650000Y-17150000D03*
X56350000Y-17150000D03*
%TD*%
D13*
%TO.C,R6*%
X47175000Y-25000000D03*
X48825000Y-25000000D03*
%TD*%
D22*
%TO.C,D6*%
X66500000Y-44425000D03*
X66500000Y-47575000D03*
%TD*%
D25*
%TO.C,D11*%
X62250000Y-60287500D03*
X62250000Y-58712500D03*
%TD*%
D10*
%TO.C,R44*%
X55250000Y-52675000D03*
X55250000Y-54325000D03*
%TD*%
D20*
%TO.C,Q2*%
X58550000Y-26750000D03*
X60450000Y-26750000D03*
X59500000Y-24750000D03*
%TD*%
D26*
%TO.C,Q12*%
X44250000Y-51550000D03*
X44250000Y-53450000D03*
X46250000Y-52500000D03*
%TD*%
D11*
%TO.C,R23*%
X75825000Y-25500000D03*
X74175000Y-25500000D03*
%TD*%
D28*
%TO.C,D9*%
X35750000Y-50712500D03*
X35750000Y-52287500D03*
%TD*%
D10*
%TO.C,R32*%
X44250000Y-44675000D03*
X44250000Y-46325000D03*
%TD*%
D32*
%TO.C,R49*%
X25962500Y-18500000D03*
X23037500Y-18500000D03*
%TD*%
D23*
%TO.C,Q14*%
X46000000Y-57050000D03*
X46000000Y-58950000D03*
X48000000Y-58000000D03*
%TD*%
D11*
%TO.C,R3*%
X60325000Y-28500000D03*
X58675000Y-28500000D03*
%TD*%
D25*
%TO.C,D10*%
X62250000Y-47787500D03*
X62250000Y-46212500D03*
%TD*%
D27*
%TO.C,Q16*%
X51750000Y-41950000D03*
X51750000Y-40050000D03*
X49750000Y-41000000D03*
%TD*%
D10*
%TO.C,R30*%
X56750000Y-49425000D03*
X56750000Y-51075000D03*
%TD*%
D23*
%TO.C,Q5*%
X46000000Y-32550000D03*
X46000000Y-34450000D03*
X48000000Y-33500000D03*
%TD*%
D15*
%TO.C,J5*%
X27700000Y-42000000D03*
X27700000Y-44000000D03*
D16*
X32350000Y-39650000D03*
X32350000Y-46350000D03*
%TD*%
D10*
%TO.C,R21*%
X48000000Y-29175000D03*
X48000000Y-30825000D03*
%TD*%
D20*
%TO.C,Q10*%
X58550000Y-51250000D03*
X60450000Y-51250000D03*
X59500000Y-49250000D03*
%TD*%
D31*
%TO.C,C6*%
X42500000Y-39225000D03*
X42500000Y-40775000D03*
%TD*%
D10*
%TO.C,R33*%
X44250000Y-57175000D03*
X44250000Y-58825000D03*
%TD*%
D17*
%TO.C,J3*%
X36000000Y-21800000D03*
X38000000Y-21800000D03*
D18*
X33650000Y-17150000D03*
X40350000Y-17150000D03*
%TD*%
D23*
%TO.C,Q18*%
X53250000Y-43550000D03*
X53250000Y-45450000D03*
X55250000Y-44500000D03*
%TD*%
D19*
%TO.C,R31*%
X62250000Y-51575000D03*
X62250000Y-49925000D03*
%TD*%
D24*
%TO.C,C5*%
X53500000Y-29775000D03*
X53500000Y-28225000D03*
%TD*%
D10*
%TO.C,R1*%
X58750000Y-30175000D03*
X58750000Y-31825000D03*
%TD*%
D13*
%TO.C,R12*%
X17425000Y-40750000D03*
X19075000Y-40750000D03*
%TD*%
D33*
%TO.C,C1*%
X21025000Y-41000000D03*
X23975000Y-41000000D03*
%TD*%
D19*
%TO.C,R48*%
X60500000Y-58825000D03*
X60500000Y-57175000D03*
%TD*%
D31*
%TO.C,C3*%
X42500000Y-27225000D03*
X42500000Y-28775000D03*
%TD*%
D10*
%TO.C,R18*%
X55250000Y-28175000D03*
X55250000Y-29825000D03*
%TD*%
D28*
%TO.C,D8*%
X35750000Y-38712500D03*
X35750000Y-40287500D03*
%TD*%
D10*
%TO.C,R45*%
X48000000Y-41175000D03*
X48000000Y-42825000D03*
%TD*%
D33*
%TO.C,C12*%
X23025000Y-15500000D03*
X25975000Y-15500000D03*
%TD*%
D23*
%TO.C,Q8*%
X53250000Y-31550000D03*
X53250000Y-33450000D03*
X55250000Y-32500000D03*
%TD*%
D10*
%TO.C,R39*%
X49750000Y-43675000D03*
X49750000Y-45325000D03*
%TD*%
%TO.C,R19*%
X56750000Y-36925000D03*
X56750000Y-38575000D03*
%TD*%
D17*
%TO.C,J8*%
X86000000Y-21800000D03*
X88000000Y-21800000D03*
D18*
X83650000Y-17150000D03*
X90350000Y-17150000D03*
%TD*%
D19*
%TO.C,R7*%
X62250000Y-27075000D03*
X62250000Y-25425000D03*
%TD*%
D11*
%TO.C,R10*%
X85825000Y-25500000D03*
X84175000Y-25500000D03*
%TD*%
D20*
%TO.C,Q15*%
X64550000Y-53750000D03*
X66450000Y-53750000D03*
X65500000Y-51750000D03*
%TD*%
D10*
%TO.C,R14*%
X58750000Y-42175000D03*
X58750000Y-43825000D03*
%TD*%
D26*
%TO.C,Q4*%
X44250000Y-27050000D03*
X44250000Y-28950000D03*
X46250000Y-28000000D03*
%TD*%
M02*
