%TF.GenerationSoftware,KiCad,Pcbnew,7.0.10*%
%TF.CreationDate,2024-07-30T22:44:23+09:00*%
%TF.ProjectId,Latch-Circuit,4c617463-682d-4436-9972-637569742e6b,rev?*%
%TF.SameCoordinates,Original*%
%TF.FileFunction,Legend,Bot*%
%TF.FilePolarity,Positive*%
%FSLAX46Y46*%
G04 Gerber Fmt 4.6, Leading zero omitted, Abs format (unit mm)*
G04 Created by KiCad (PCBNEW 7.0.10) date 2024-07-30 22:44:23*
%MOMM*%
%LPD*%
G01*
G04 APERTURE LIST*
G04 Aperture macros list*
%AMRoundRect*
0 Rectangle with rounded corners*
0 $1 Rounding radius*
0 $2 $3 $4 $5 $6 $7 $8 $9 X,Y pos of 4 corners*
0 Add a 4 corners polygon primitive as box body*
4,1,4,$2,$3,$4,$5,$6,$7,$8,$9,$2,$3,0*
0 Add four circle primitives for the rounded corners*
1,1,$1+$1,$2,$3*
1,1,$1+$1,$4,$5*
1,1,$1+$1,$6,$7*
1,1,$1+$1,$8,$9*
0 Add four rect primitives between the rounded corners*
20,1,$1+$1,$2,$3,$4,$5,0*
20,1,$1+$1,$4,$5,$6,$7,0*
20,1,$1+$1,$6,$7,$8,$9,0*
20,1,$1+$1,$8,$9,$2,$3,0*%
G04 Aperture macros list end*
%ADD10C,2.050000*%
%ADD11O,0.900000X1.500000*%
%ADD12C,0.900000*%
%ADD13O,1.500000X0.900000*%
%ADD14C,6.500000*%
%ADD15RoundRect,0.052020X-1.235480X1.235480X-1.235480X-1.235480X1.235480X-1.235480X1.235480X1.235480X0*%
%ADD16C,2.575000*%
%ADD17C,1.300000*%
G04 APERTURE END LIST*
%LPC*%
D10*
%TO.C,K3*%
X69680000Y-59310000D03*
X79840000Y-59310000D03*
X87460000Y-59310000D03*
X69680000Y-51690000D03*
%TD*%
D11*
%TO.C,J6*%
X28950000Y-58200000D03*
D12*
X28950000Y-51800000D03*
%TD*%
D13*
%TO.C,J10*%
X70200000Y-20550000D03*
D12*
X63800000Y-20550000D03*
%TD*%
%TO.C,H4*%
X94600000Y-57000000D03*
X95302944Y-55302944D03*
X95302944Y-58697056D03*
X97000000Y-54600000D03*
D14*
X97000000Y-57000000D03*
D12*
X97000000Y-59400000D03*
X98697056Y-55302944D03*
X98697056Y-58697056D03*
X99400000Y-57000000D03*
%TD*%
D15*
%TO.C,J7*%
X97550000Y-30000000D03*
D16*
X97550000Y-33960000D03*
%TD*%
D11*
%TO.C,J4*%
X28950000Y-34200000D03*
D12*
X28950000Y-27800000D03*
%TD*%
D17*
%TO.C,REF\u002A\u002A*%
X5000000Y-69000000D03*
%TD*%
D13*
%TO.C,J1*%
X22700000Y-29050000D03*
D12*
X16300000Y-29050000D03*
%TD*%
D17*
%TO.C,REF\u002A\u002A*%
X5000000Y-5000000D03*
%TD*%
D13*
%TO.C,J9*%
X80200000Y-20550000D03*
D12*
X73800000Y-20550000D03*
%TD*%
D17*
%TO.C,REF\u002A\u002A*%
X109000000Y-69000000D03*
%TD*%
D10*
%TO.C,K2*%
X69680000Y-48310000D03*
X79840000Y-48310000D03*
X87460000Y-48310000D03*
X69680000Y-40690000D03*
%TD*%
D13*
%TO.C,J2*%
X56200000Y-20550000D03*
D12*
X47800000Y-20550000D03*
%TD*%
D11*
%TO.C,J5*%
X28950000Y-46200000D03*
D12*
X28950000Y-39800000D03*
%TD*%
D13*
%TO.C,J3*%
X40200000Y-20550000D03*
D12*
X33800000Y-20550000D03*
%TD*%
%TO.C,H1*%
X14600000Y-17000000D03*
X15302944Y-15302944D03*
X15302944Y-18697056D03*
X17000000Y-14600000D03*
D14*
X17000000Y-17000000D03*
D12*
X17000000Y-19400000D03*
X18697056Y-15302944D03*
X18697056Y-18697056D03*
X19400000Y-17000000D03*
%TD*%
%TO.C,H3*%
X14600000Y-57000000D03*
X15302944Y-55302944D03*
X15302944Y-58697056D03*
X17000000Y-54600000D03*
D14*
X17000000Y-57000000D03*
D12*
X17000000Y-59400000D03*
X18697056Y-55302944D03*
X18697056Y-58697056D03*
X19400000Y-57000000D03*
%TD*%
D10*
%TO.C,K1*%
X69680000Y-37310000D03*
X79840000Y-37310000D03*
X87460000Y-37310000D03*
X69680000Y-29690000D03*
%TD*%
D13*
%TO.C,J8*%
X90200000Y-20550000D03*
D12*
X83800000Y-20550000D03*
%TD*%
D17*
%TO.C,REF\u002A\u002A*%
X109000000Y-5000000D03*
%TD*%
D12*
%TO.C,H2*%
X94600000Y-17000000D03*
X95302944Y-15302944D03*
X95302944Y-18697056D03*
X97000000Y-14600000D03*
D14*
X97000000Y-17000000D03*
D12*
X97000000Y-19400000D03*
X98697056Y-15302944D03*
X98697056Y-18697056D03*
X99400000Y-17000000D03*
%TD*%
%LPD*%
M02*
