M48
; DRILL file {KiCad 7.0.10} date Tue Jul 30 22:38:02 2024
; FORMAT={-:-/ absolute / inch / decimal}
; #@! TF.CreationDate,2024-07-30T22:38:02+09:00
; #@! TF.GenerationSoftware,Kicad,Pcbnew,7.0.10
; #@! TF.FileFunction,NonPlated,1,2,NPTH
FMAT,2
INCH
; #@! TA.AperFunction,NonPlated,NPTH,ComponentDrill
T1C0.0315
; #@! TA.AperFunction,NonPlated,NPTH,ComponentDrill
T2C0.0454
%
G90
G05
T1
X0.1693Y-0.6713
X0.6673Y-0.622
X0.6673Y-1.0945
X0.6673Y-1.5669
X0.8583Y-0.3366
X1.4094Y-0.3366
X2.0394Y-0.3366
X2.4331Y-0.3366
X2.8268Y-0.3366
T2
X-0.2756Y0.2756
X-0.2756Y-2.2441
X3.8189Y0.2756
X3.8189Y-2.2441
T1
G00X0.4331Y-0.6713
M15
G01X0.4094Y-0.6713
M16
G05
G00X0.6673Y-0.8858
M15
G01X0.6673Y-0.8622
M16
G05
G00X0.6673Y-1.3583
M15
G01X0.6673Y-1.3346
M16
G05
G00X0.6673Y-1.8307
M15
G01X0.6673Y-1.8071
M16
G05
G00X1.122Y-0.3366
M15
G01X1.0984Y-0.3366
M16
G05
G00X1.752Y-0.3366
M15
G01X1.7283Y-0.3366
M16
G05
G00X2.3031Y-0.3366
M15
G01X2.2795Y-0.3366
M16
G05
G00X2.6969Y-0.3366
M15
G01X2.6732Y-0.3366
M16
G05
G00X3.0906Y-0.3366
M15
G01X3.0669Y-0.3366
M16
G05
M30
