M48
; DRILL file {KiCad 7.0.10} date Tue Jul 30 22:44:23 2024
; FORMAT={-:-/ absolute / inch / decimal}
; #@! TF.CreationDate,2024-07-30T22:44:23+09:00
; #@! TF.GenerationSoftware,Kicad,Pcbnew,7.0.10
; #@! TF.FileFunction,Plated,1,2,PTH
FMAT,2
INCH
; #@! TA.AperFunction,Plated,PTH,ViaDrill
T1C0.0118
; #@! TA.AperFunction,Plated,PTH,ComponentDrill
T2C0.0197
; #@! TA.AperFunction,Plated,PTH,ComponentDrill
T3C0.0512
; #@! TA.AperFunction,Plated,PTH,ComponentDrill
T4C0.0650
; #@! TA.AperFunction,Plated,PTH,ComponentDrill
T5C0.1260
%
G90
G05
T1
X0.5118Y-0.6693
X0.5118Y-0.7677
X0.5118Y-0.8661
X0.5118Y-0.9646
X0.5118Y-1.063
X0.5118Y-1.1614
X0.5118Y-1.2598
X0.5118Y-1.3583
X0.5118Y-1.4567
X0.5118Y-1.5551
X0.5118Y-1.6535
X0.5118Y-1.752
X0.5118Y-1.8504
X0.5118Y-1.9488
X0.5118Y-2.0472
X0.5118Y-2.1457
X0.5118Y-2.2441
X0.561Y-0.561
X0.561Y-2.3524
X0.5709Y-0.8169
X0.5709Y-0.8661
X0.5709Y-1.3484
X0.5709Y-1.624
X0.5807Y-1.437
X0.6102Y-1.7224
X0.6201Y-1.2992
X0.6398Y-1.5354
X0.6398Y-1.6142
X0.6496Y-1.4567
X0.6693Y-0.5118
X0.6693Y-0.8169
X0.6693Y-0.8661
X0.6693Y-1.2008
X0.6693Y-1.3484
X0.6693Y-2.4016
X0.6988Y-1.7224
X0.6988Y-1.8209
X0.7087Y-1.1024
X0.748Y-1.6732
X0.748Y-1.7028
X0.748Y-1.7323
X0.7579Y-1.9094
X0.7677Y-0.5118
X0.7677Y-0.8169
X0.7677Y-0.8661
X0.7677Y-1.1024
X0.7677Y-2.4016
X0.7776Y-1.3681
X0.7776Y-1.6732
X0.7776Y-1.7028
X0.7776Y-1.7323
X0.7874Y-1.2894
X0.8071Y-1.6732
X0.8071Y-1.7028
X0.8071Y-1.7323
X0.8268Y-1.1024
X0.8268Y-1.9783
X0.8366Y-1.6732
X0.8366Y-1.7028
X0.8366Y-1.7323
X0.8465Y-1.2795
X0.8465Y-1.4173
X0.8661Y-0.5118
X0.8661Y-0.6102
X0.8661Y-0.7283
X0.8661Y-0.8169
X0.8661Y-0.8661
X0.8661Y-1.2205
X0.8661Y-2.4016
X0.8858Y-1.4665
X0.8858Y-1.752
X0.9055Y-1.8307
X0.9154Y-0.5512
X0.9154Y-0.6693
X0.9154Y-1.3484
X0.9154Y-2.0079
X0.935Y-0.8071
X0.9449Y-1.6831
X0.9646Y-0.5118
X0.9646Y-0.6102
X0.9646Y-0.7087
X0.9646Y-2.4016
X0.9941Y-1.3681
X0.9941Y-1.8504
X1.0039Y-1.624
X1.0039Y-1.6929
X1.0039Y-2.0079
X1.0039Y-2.0965
X1.0039Y-2.1654
X1.0039Y-2.2539
X1.0138Y-1.2205
X1.0335Y-1.7815
X1.0531Y-1.3091
X1.063Y-0.5118
X1.063Y-1.565
X1.063Y-2.4016
X1.0925Y-1.1319
X1.0925Y-1.8504
X1.0925Y-2.0079
X1.0925Y-2.0768
X1.0925Y-2.2539
X1.122Y-1.5059
X1.1614Y-0.5118
X1.1614Y-2.4016
X1.1713Y-1.1417
X1.1713Y-1.2205
X1.1713Y-1.6142
X1.1713Y-1.6929
X1.1811Y-1.0236
X1.1811Y-2.1654
X1.2008Y-1.4567
X1.2598Y-0.5118
X1.2598Y-1.2205
X1.2598Y-1.4862
X1.2598Y-2.4016
X1.2697Y-1.0138
X1.2697Y-1.6929
X1.2795Y-1.2598
X1.2795Y-1.7323
X1.3189Y-1.4567
X1.3189Y-1.7224
X1.3189Y-2.1654
X1.3287Y-1.2205
X1.3583Y-0.5118
X1.3583Y-1.0138
X1.3583Y-1.2598
X1.3583Y-1.4862
X1.3583Y-2.4016
X1.3681Y-0.8661
X1.3681Y-1.1516
X1.3681Y-1.624
X1.3681Y-2.0965
X1.378Y-0.935
X1.378Y-1.7815
X1.378Y-1.8799
X1.3976Y-2.3031
X1.4272Y-1.4567
X1.437Y-1.939
X1.437Y-2.2441
X1.4469Y-0.7776
X1.4498Y-2.1634
X1.4567Y-0.5118
X1.4567Y-0.9449
X1.4567Y-1.1417
X1.4567Y-1.2205
X1.4567Y-1.2697
X1.4567Y-1.7421
X1.4567Y-1.7913
X1.4567Y-1.8602
X1.4567Y-2.4016
X1.4665Y-1.0827
X1.4862Y-1.0039
X1.4862Y-2.2933
X1.4961Y-1.122
X1.4961Y-1.9882
X1.5157Y-2.2343
X1.5256Y-1.0433
X1.5354Y-2.3425
X1.5453Y-0.935
X1.5551Y-0.5118
X1.5551Y-0.8661
X1.5551Y-1.8898
X1.565Y-1.2992
X1.565Y-2.0571
X1.5748Y-0.9941
X1.5748Y-1.1811
X1.5748Y-1.2303
X1.5748Y-1.9882
X1.5748Y-2.2933
X1.5846Y-1.4567
X1.624Y-1.6634
X1.624Y-2.3425
X1.6339Y-1.5059
X1.6437Y-0.9449
X1.6437Y-1.0236
X1.6437Y-1.1811
X1.6437Y-1.2303
X1.6437Y-1.9685
X1.6437Y-2.1457
X1.6535Y-0.5118
X1.6732Y-1.4567
X1.6929Y-1.7323
X1.6929Y-1.8406
X1.6929Y-1.8701
X1.6929Y-2.1949
X1.6929Y-2.313
X1.6929Y-2.3425
X1.7028Y-1.1811
X1.7028Y-1.998
X1.7126Y-1.2303
X1.7126Y-1.6634
X1.7126Y-2.1555
X1.7224Y-1.378
X1.7224Y-1.4075
X1.7224Y-1.8701
X1.7224Y-2.3425
X1.7323Y-0.9449
X1.7323Y-1.0236
X1.752Y-0.5118
X1.752Y-1.378
X1.752Y-1.4075
X1.752Y-1.8701
X1.752Y-2.3425
X1.7717Y-1.4961
X1.7717Y-1.9685
X1.7815Y-1.378
X1.7815Y-1.4075
X1.7815Y-1.8406
X1.7815Y-1.8701
X1.7815Y-2.313
X1.7815Y-2.3425
X1.7913Y-1.063
X1.7913Y-2.0276
X1.8209Y-0.9449
X1.8307Y-1.0236
X1.8504Y-0.5118
X1.8602Y-1.2697
X1.8602Y-1.7421
X1.8602Y-2.0276
X1.8602Y-2.2343
X1.8701Y-1.1024
X1.8701Y-1.5748
X1.8799Y-1.4961
X1.8799Y-1.9685
X1.8898Y-1.0236
X1.9094Y-1.7323
X1.9193Y-0.8563
X1.9193Y-0.935
X1.9193Y-1.1122
X1.9193Y-2.0768
X1.9291Y-1.1811
X1.9291Y-1.6535
X1.9291Y-2.1457
X1.9488Y-0.5118
X1.9488Y-1.0236
X1.9783Y-1.0925
X1.9783Y-1.4961
X1.9783Y-1.9685
X1.9783Y-2.1457
X1.9882Y-1.1909
X1.9882Y-1.5748
X1.9882Y-1.6831
X1.9882Y-2.0669
X2.0079Y-0.7776
X2.0079Y-0.9449
X2.0079Y-1.0236
X2.0276Y-0.9843
X2.0374Y-1.0531
X2.0374Y-2.0177
X2.0472Y-0.5118
X2.0669Y-0.9941
X2.0669Y-1.8012
X2.0768Y-1.4764
X2.0768Y-1.9488
X2.1063Y-2.0177
X2.126Y-0.7677
X2.126Y-0.9449
X2.126Y-1.0531
X2.1358Y-1.5354
X2.1358Y-1.8898
X2.1358Y-2.1752
X2.1457Y-0.5118
X2.1457Y-1.4075
X2.1457Y-1.7028
X2.1457Y-2.4016
X2.1752Y-1.0138
X2.1752Y-1.8012
X2.185Y-0.8661
X2.185Y-1.8406
X2.185Y-1.9488
X2.1949Y-1.4764
X2.1949Y-1.6929
X2.1949Y-2.0079
X2.1949Y-2.185
X2.2047Y-0.9449
X2.2146Y-1.3386
X2.2146Y-1.811
X2.2146Y-2.3031
X2.2244Y-1.4075
X2.2244Y-1.8996
X2.2244Y-2.1063
X2.2343Y-1.0728
X2.2343Y-1.5453
X2.2343Y-1.6142
X2.2441Y-0.5118
X2.2441Y-2.4016
X2.2638Y-1.1614
X2.2638Y-1.5846
X2.2638Y-2.0472
X2.2736Y-1.6339
X2.2736Y-1.9783
X2.2736Y-2.126
X2.2815Y-1.4843
X2.2835Y-1.811
X2.3031Y-0.9449
X2.3031Y-1.4173
X2.3031Y-1.8996
X2.3327Y-1.3386
X2.3327Y-1.811
X2.3327Y-2.3031
X2.3425Y-0.5118
X2.3425Y-2.4016
X2.3524Y-1.8602
X2.3622Y-1.2008
X2.3622Y-1.6732
X2.3622Y-2.1654
X2.3819Y-0.935
X2.3917Y-1.8996
X2.4016Y-1.4075
X2.4016Y-2.372
X2.4055Y-1.4783
X2.4055Y-1.9705
X2.4311Y-1.1122
X2.4311Y-1.5846
X2.4311Y-1.6732
X2.4311Y-2.0768
X2.4409Y-0.5118
X2.4508Y-2.1654
X2.4606Y-0.9547
X2.4606Y-1.2008
X2.4803Y-1.9291
X2.4803Y-2.1063
X2.4902Y-1.5059
X2.4902Y-1.624
X2.4902Y-1.998
X2.5Y-1.0039
X2.5Y-1.3386
X2.5Y-1.4075
X2.5Y-1.811
X2.5Y-1.8602
X2.5Y-2.3031
X2.5098Y-1.6732
X2.5295Y-1.0925
X2.5295Y-2.1654
X2.5394Y-0.5118
X2.5394Y-1.5748
X2.5394Y-2.0669
X2.5394Y-2.4016
X2.5492Y-0.8661
X2.5591Y-0.9547
X2.5591Y-1.3976
X2.5689Y-1.2008
X2.5689Y-2.3031
X2.5787Y-1.9882
X2.5886Y-1.3386
X2.5886Y-1.6732
X2.5886Y-1.811
X2.6181Y-1.5059
X2.6181Y-2.0669
X2.6181Y-2.1654
X2.628Y-1.939
X2.6378Y-0.5118
X2.6378Y-0.7776
X2.6378Y-0.9547
X2.6378Y-2.4016
X2.6476Y-1.0925
X2.6476Y-1.5453
X2.6575Y-1.5846
X2.6673Y-1.4961
X2.6673Y-2.0079
X2.6673Y-2.1161
X2.6673Y-2.3031
X2.6772Y-1.1319
X2.6772Y-1.3386
X2.6772Y-1.3976
X2.6772Y-1.7913
X2.7264Y-0.8661
X2.7264Y-0.9547
X2.7362Y-0.5118
X2.7461Y-1.2697
X2.7461Y-1.7224
X2.7461Y-2.2539
X2.8051Y-0.9547
X2.8051Y-1.1319
X2.8051Y-1.2106
X2.8051Y-1.2992
X2.8051Y-1.3878
X2.8051Y-1.6634
X2.8051Y-1.7618
X2.8051Y-1.8504
X2.811Y-1.5709
X2.815Y-1.998
X2.815Y-2.0866
X2.815Y-2.185
X2.8346Y-0.5118
X2.8346Y-2.4016
X2.8839Y-0.9547
X2.8839Y-1.1319
X2.8839Y-1.2205
X2.8839Y-1.3091
X2.8839Y-1.4075
X2.8839Y-1.4961
X2.8839Y-1.5748
X2.8839Y-1.6437
X2.8839Y-1.7224
X2.8839Y-1.8209
X2.8839Y-1.9193
X2.8937Y-1.0039
X2.9232Y-1.5354
X2.9331Y-0.5118
X2.9331Y-2.4016
X2.9429Y-0.8661
X2.9528Y-0.9547
X2.9528Y-1.1319
X2.9626Y-1.4469
X2.9626Y-1.5453
X3.0315Y-0.5118
X3.0315Y-0.7776
X3.0315Y-0.9547
X3.0315Y-1.1319
X3.0315Y-1.2106
X3.0315Y-1.2894
X3.0315Y-1.378
X3.0315Y-2.4016
X3.061Y-1.4469
X3.0709Y-1.8504
X3.0709Y-1.9291
X3.0709Y-2.2441
X3.0709Y-2.3327
X3.0807Y-2.1457
X3.0906Y-1.5157
X3.1102Y-0.9547
X3.1102Y-1.1319
X3.1102Y-1.2106
X3.1102Y-1.2894
X3.1201Y-0.8661
X3.1299Y-0.5118
X3.1299Y-1.3681
X3.1299Y-1.7717
X3.1496Y-2.0768
X3.1594Y-1.9783
X3.189Y-0.9547
X3.189Y-1.1319
X3.189Y-1.3091
X3.189Y-1.5453
X3.1988Y-1.7028
X3.2185Y-2.0079
X3.2283Y-0.5118
X3.2283Y-2.4016
X3.2382Y-1.9291
X3.248Y-1.25
X3.2579Y-0.9547
X3.2677Y-1.6339
X3.2677Y-2.313
X3.2776Y-1.1319
X3.2776Y-1.4862
X3.2874Y-1.0039
X3.2874Y-2.2146
X3.2972Y-1.9291
X3.3071Y-1.1909
X3.3071Y-1.8602
X3.3268Y-0.5118
X3.3268Y-1.5551
X3.3268Y-2.4016
X3.3366Y-0.8465
X3.3465Y-0.9547
X3.3465Y-1.0433
X3.3465Y-1.0925
X3.3465Y-1.4173
X3.3661Y-1.1319
X3.3661Y-1.8012
X3.3661Y-1.8602
X3.3661Y-2.1949
X3.3661Y-2.2933
X3.376Y-2.126
X3.4154Y-1.3484
X3.4252Y-0.5118
X3.4252Y-0.7776
X3.4252Y-0.935
X3.4252Y-1.7421
X3.4449Y-1.0827
X3.4449Y-1.8307
X3.4449Y-2.1063
X3.4646Y-2.0374
X3.4744Y-1.2992
X3.4843Y-1.0039
X3.4843Y-1.6831
X3.5039Y-0.935
X3.5039Y-1.4272
X3.5138Y-0.8563
X3.5236Y-0.5118
X3.5236Y-1.6043
X3.5236Y-1.939
X3.5236Y-2.4016
X3.5335Y-1.8701
X3.5335Y-2.0177
X3.5433Y-1.0827
X3.5433Y-1.3681
X3.563Y-2.313
X3.5728Y-1.2795
X3.5827Y-1.5059
X3.5925Y-1.939
X3.6024Y-1.6634
X3.6024Y-2.2244
X3.6122Y-1.437
X3.622Y-0.5118
X3.622Y-1.5846
X3.622Y-1.8307
X3.622Y-2.4016
X3.6417Y-1.0827
X3.6516Y-1.7421
X3.6713Y-1.2795
X3.6713Y-1.4961
X3.6713Y-2.1555
X3.6811Y-1.6339
X3.7205Y-0.5118
X3.7205Y-2.4016
X3.7402Y-1.0827
X3.7402Y-1.3681
X3.7402Y-1.4665
X3.7402Y-1.565
X3.7402Y-1.7028
X3.7402Y-1.811
X3.7402Y-2.0866
X3.7697Y-1.2795
X3.8091Y-2.0177
X3.8189Y-0.5118
X3.8189Y-2.4016
X3.8386Y-1.0827
X3.8681Y-1.9587
X3.8976Y-1.2697
X3.9173Y-1.122
X3.9272Y-0.561
X3.9272Y-1.8996
X3.9272Y-2.3524
X3.9764Y-0.6693
X3.9764Y-0.7677
X3.9764Y-0.8661
X3.9764Y-0.9646
X3.9764Y-1.063
X3.9764Y-1.1614
X3.9764Y-1.2598
X3.9764Y-1.3583
X3.9764Y-1.4567
X3.9764Y-1.5551
X3.9764Y-1.6535
X3.9764Y-1.752
X3.9764Y-1.8504
X3.9764Y-1.9488
X3.9764Y-2.0472
X3.9764Y-2.1457
X3.9764Y-2.2441
T2
X0.5748Y-0.6693
X0.5748Y-2.2441
X0.6025Y-0.6025
X0.6025Y-0.7361
X0.6025Y-2.1773
X0.6025Y-2.3109
X0.6693Y-0.5748
X0.6693Y-0.7638
X0.6693Y-2.1496
X0.6693Y-2.3386
X0.7361Y-0.6025
X0.7361Y-0.7361
X0.7361Y-2.1773
X0.7361Y-2.3109
X0.7638Y-0.6693
X0.7638Y-2.2441
X3.7244Y-0.6693
X3.7244Y-2.2441
X3.7521Y-0.6025
X3.7521Y-0.7361
X3.7521Y-2.1773
X3.7521Y-2.3109
X3.8189Y-0.5748
X3.8189Y-0.7638
X3.8189Y-2.1496
X3.8189Y-2.3386
X3.8857Y-0.6025
X3.8857Y-0.7361
X3.8857Y-2.1773
X3.8857Y-2.3109
X3.9134Y-0.6693
X3.9134Y-2.2441
T3
X2.7433Y-1.1689
X2.7433Y-1.4689
X2.7433Y-1.602
X2.7433Y-1.902
X2.7433Y-2.035
X2.7433Y-2.335
X3.1433Y-1.4689
X3.1433Y-1.902
X3.1433Y-2.335
X3.4433Y-1.4689
X3.4433Y-1.902
X3.4433Y-2.335
T4
X3.8406Y-1.1811
X3.8406Y-1.337
T5
X0.6693Y-0.6693
X0.6693Y-2.2441
X3.8189Y-0.6693
X3.8189Y-2.2441
M30
