M48
; DRILL file {KiCad 7.0.10} date Tue Jul 30 22:44:23 2024
; FORMAT={-:-/ absolute / inch / decimal}
; #@! TF.CreationDate,2024-07-30T22:44:23+09:00
; #@! TF.GenerationSoftware,Kicad,Pcbnew,7.0.10
; #@! TF.FileFunction,NonPlated,1,2,NPTH
FMAT,2
INCH
; #@! TA.AperFunction,NonPlated,NPTH,ComponentDrill
T1C0.0315
; #@! TA.AperFunction,NonPlated,NPTH,ComponentDrill
T2C0.0454
%
G90
G05
T1
X0.6417Y-1.1437
X1.1398Y-1.0945
X1.1398Y-1.5669
X1.1398Y-2.0394
X1.3307Y-0.8091
X1.8819Y-0.8091
X2.5118Y-0.8091
X2.9055Y-0.8091
X3.2992Y-0.8091
T2
X0.1969Y-0.1969
X0.1969Y-2.7165
X4.2913Y-0.1969
X4.2913Y-2.7165
T1
G00X0.9055Y-1.1437
M15
G01X0.8819Y-1.1437
M16
G05
G00X1.1398Y-1.3583
M15
G01X1.1398Y-1.3346
M16
G05
G00X1.1398Y-1.8307
M15
G01X1.1398Y-1.8071
M16
G05
G00X1.1398Y-2.3031
M15
G01X1.1398Y-2.2795
M16
G05
G00X1.5945Y-0.8091
M15
G01X1.5709Y-0.8091
M16
G05
G00X2.2244Y-0.8091
M15
G01X2.2008Y-0.8091
M16
G05
G00X2.7756Y-0.8091
M15
G01X2.752Y-0.8091
M16
G05
G00X3.1693Y-0.8091
M15
G01X3.1457Y-0.8091
M16
G05
G00X3.563Y-0.8091
M15
G01X3.5394Y-0.8091
M16
G05
M30
