%TF.GenerationSoftware,KiCad,Pcbnew,9.0.6*%
%TF.CreationDate,2026-04-04T15:29:38+09:00*%
%TF.ProjectId,Latch-Circuit,4c617463-682d-4436-9972-637569742e6b,rev?*%
%TF.SameCoordinates,Original*%
%TF.FileFunction,Soldermask,Bot*%
%TF.FilePolarity,Negative*%
%FSLAX46Y46*%
G04 Gerber Fmt 4.6, Leading zero omitted, Abs format (unit mm)*
G04 Created by KiCad (PCBNEW 9.0.6) date 2026-04-04 15:29:38*
%MOMM*%
%LPD*%
G01*
G04 APERTURE LIST*
G04 APERTURE END LIST*
G36*
X29114805Y-48722836D02*
G01*
X29182628Y-48761994D01*
X29238006Y-48817372D01*
X29277164Y-48885195D01*
X29297433Y-48960842D01*
X29297433Y-49039158D01*
X29277164Y-49114805D01*
X29238006Y-49182628D01*
X29182628Y-49238006D01*
X29114805Y-49277164D01*
X29039158Y-49297433D01*
X28960842Y-49297433D01*
X28885195Y-49277164D01*
X28817372Y-49238006D01*
X28761994Y-49182628D01*
X28722836Y-49114805D01*
X28702567Y-49039158D01*
X28702567Y-48960842D01*
X28722836Y-48885195D01*
X28761994Y-48817372D01*
X28817372Y-48761994D01*
X28885195Y-48722836D01*
X28960842Y-48702567D01*
X29039158Y-48702567D01*
X29114805Y-48722836D01*
G37*
G36*
X29864805Y-48722836D02*
G01*
X29932628Y-48761994D01*
X29988006Y-48817372D01*
X30027164Y-48885195D01*
X30047433Y-48960842D01*
X30047433Y-49039158D01*
X30027164Y-49114805D01*
X29988006Y-49182628D01*
X29932628Y-49238006D01*
X29864805Y-49277164D01*
X29789158Y-49297433D01*
X29710842Y-49297433D01*
X29635195Y-49277164D01*
X29567372Y-49238006D01*
X29511994Y-49182628D01*
X29472836Y-49114805D01*
X29452567Y-49039158D01*
X29452567Y-48960842D01*
X29472836Y-48885195D01*
X29511994Y-48817372D01*
X29567372Y-48761994D01*
X29635195Y-48722836D01*
X29710842Y-48702567D01*
X29789158Y-48702567D01*
X29864805Y-48722836D01*
G37*
G36*
X30614805Y-48722836D02*
G01*
X30682628Y-48761994D01*
X30738006Y-48817372D01*
X30777164Y-48885195D01*
X30797433Y-48960842D01*
X30797433Y-49039158D01*
X30777164Y-49114805D01*
X30738006Y-49182628D01*
X30682628Y-49238006D01*
X30614805Y-49277164D01*
X30539158Y-49297433D01*
X30460842Y-49297433D01*
X30385195Y-49277164D01*
X30317372Y-49238006D01*
X30261994Y-49182628D01*
X30222836Y-49114805D01*
X30202567Y-49039158D01*
X30202567Y-48960842D01*
X30222836Y-48885195D01*
X30261994Y-48817372D01*
X30317372Y-48761994D01*
X30385195Y-48722836D01*
X30460842Y-48702567D01*
X30539158Y-48702567D01*
X30614805Y-48722836D01*
G37*
G36*
X31364805Y-48722836D02*
G01*
X31432628Y-48761994D01*
X31488006Y-48817372D01*
X31527164Y-48885195D01*
X31547433Y-48960842D01*
X31547433Y-49039158D01*
X31527164Y-49114805D01*
X31488006Y-49182628D01*
X31432628Y-49238006D01*
X31364805Y-49277164D01*
X31289158Y-49297433D01*
X31210842Y-49297433D01*
X31135195Y-49277164D01*
X31067372Y-49238006D01*
X31011994Y-49182628D01*
X30972836Y-49114805D01*
X30952567Y-49039158D01*
X30952567Y-48960842D01*
X30972836Y-48885195D01*
X31011994Y-48817372D01*
X31067372Y-48761994D01*
X31135195Y-48722836D01*
X31210842Y-48702567D01*
X31289158Y-48702567D01*
X31364805Y-48722836D01*
G37*
G36*
X32114805Y-48722836D02*
G01*
X32182628Y-48761994D01*
X32238006Y-48817372D01*
X32277164Y-48885195D01*
X32297433Y-48960842D01*
X32297433Y-49039158D01*
X32277164Y-49114805D01*
X32238006Y-49182628D01*
X32182628Y-49238006D01*
X32114805Y-49277164D01*
X32039158Y-49297433D01*
X31960842Y-49297433D01*
X31885195Y-49277164D01*
X31817372Y-49238006D01*
X31761994Y-49182628D01*
X31722836Y-49114805D01*
X31702567Y-49039158D01*
X31702567Y-48960842D01*
X31722836Y-48885195D01*
X31761994Y-48817372D01*
X31817372Y-48761994D01*
X31885195Y-48722836D01*
X31960842Y-48702567D01*
X32039158Y-48702567D01*
X32114805Y-48722836D01*
G37*
G36*
X32864805Y-48722836D02*
G01*
X32932628Y-48761994D01*
X32988006Y-48817372D01*
X33027164Y-48885195D01*
X33047433Y-48960842D01*
X33047433Y-49039158D01*
X33027164Y-49114805D01*
X32988006Y-49182628D01*
X32932628Y-49238006D01*
X32864805Y-49277164D01*
X32789158Y-49297433D01*
X32710842Y-49297433D01*
X32635195Y-49277164D01*
X32567372Y-49238006D01*
X32511994Y-49182628D01*
X32472836Y-49114805D01*
X32452567Y-49039158D01*
X32452567Y-48960842D01*
X32472836Y-48885195D01*
X32511994Y-48817372D01*
X32567372Y-48761994D01*
X32635195Y-48722836D01*
X32710842Y-48702567D01*
X32789158Y-48702567D01*
X32864805Y-48722836D01*
G37*
G36*
X33614805Y-48722836D02*
G01*
X33682628Y-48761994D01*
X33738006Y-48817372D01*
X33777164Y-48885195D01*
X33797433Y-48960842D01*
X33797433Y-49039158D01*
X33777164Y-49114805D01*
X33738006Y-49182628D01*
X33682628Y-49238006D01*
X33614805Y-49277164D01*
X33539158Y-49297433D01*
X33460842Y-49297433D01*
X33385195Y-49277164D01*
X33317372Y-49238006D01*
X33261994Y-49182628D01*
X33222836Y-49114805D01*
X33202567Y-49039158D01*
X33202567Y-48960842D01*
X33222836Y-48885195D01*
X33261994Y-48817372D01*
X33317372Y-48761994D01*
X33385195Y-48722836D01*
X33460842Y-48702567D01*
X33539158Y-48702567D01*
X33614805Y-48722836D01*
G37*
G36*
X34364805Y-48722836D02*
G01*
X34432628Y-48761994D01*
X34488006Y-48817372D01*
X34527164Y-48885195D01*
X34547433Y-48960842D01*
X34547433Y-49039158D01*
X34527164Y-49114805D01*
X34488006Y-49182628D01*
X34432628Y-49238006D01*
X34364805Y-49277164D01*
X34289158Y-49297433D01*
X34210842Y-49297433D01*
X34135195Y-49277164D01*
X34067372Y-49238006D01*
X34011994Y-49182628D01*
X33972836Y-49114805D01*
X33952567Y-49039158D01*
X33952567Y-48960842D01*
X33972836Y-48885195D01*
X34011994Y-48817372D01*
X34067372Y-48761994D01*
X34135195Y-48722836D01*
X34210842Y-48702567D01*
X34289158Y-48702567D01*
X34364805Y-48722836D01*
G37*
G36*
X35114805Y-48722836D02*
G01*
X35182628Y-48761994D01*
X35238006Y-48817372D01*
X35277164Y-48885195D01*
X35297433Y-48960842D01*
X35297433Y-49039158D01*
X35277164Y-49114805D01*
X35238006Y-49182628D01*
X35182628Y-49238006D01*
X35114805Y-49277164D01*
X35039158Y-49297433D01*
X34960842Y-49297433D01*
X34885195Y-49277164D01*
X34817372Y-49238006D01*
X34761994Y-49182628D01*
X34722836Y-49114805D01*
X34702567Y-49039158D01*
X34702567Y-48960842D01*
X34722836Y-48885195D01*
X34761994Y-48817372D01*
X34817372Y-48761994D01*
X34885195Y-48722836D01*
X34960842Y-48702567D01*
X35039158Y-48702567D01*
X35114805Y-48722836D01*
G37*
G36*
X29114805Y-46722836D02*
G01*
X29182628Y-46761994D01*
X29238006Y-46817372D01*
X29277164Y-46885195D01*
X29297433Y-46960842D01*
X29297433Y-47039158D01*
X29277164Y-47114805D01*
X29238006Y-47182628D01*
X29182628Y-47238006D01*
X29114805Y-47277164D01*
X29039158Y-47297433D01*
X28960842Y-47297433D01*
X28885195Y-47277164D01*
X28817372Y-47238006D01*
X28761994Y-47182628D01*
X28722836Y-47114805D01*
X28702567Y-47039158D01*
X28702567Y-46960842D01*
X28722836Y-46885195D01*
X28761994Y-46817372D01*
X28817372Y-46761994D01*
X28885195Y-46722836D01*
X28960842Y-46702567D01*
X29039158Y-46702567D01*
X29114805Y-46722836D01*
G37*
G36*
X29864805Y-46722836D02*
G01*
X29932628Y-46761994D01*
X29988006Y-46817372D01*
X30027164Y-46885195D01*
X30047433Y-46960842D01*
X30047433Y-47039158D01*
X30027164Y-47114805D01*
X29988006Y-47182628D01*
X29932628Y-47238006D01*
X29864805Y-47277164D01*
X29789158Y-47297433D01*
X29710842Y-47297433D01*
X29635195Y-47277164D01*
X29567372Y-47238006D01*
X29511994Y-47182628D01*
X29472836Y-47114805D01*
X29452567Y-47039158D01*
X29452567Y-46960842D01*
X29472836Y-46885195D01*
X29511994Y-46817372D01*
X29567372Y-46761994D01*
X29635195Y-46722836D01*
X29710842Y-46702567D01*
X29789158Y-46702567D01*
X29864805Y-46722836D01*
G37*
G36*
X30614805Y-46722836D02*
G01*
X30682628Y-46761994D01*
X30738006Y-46817372D01*
X30777164Y-46885195D01*
X30797433Y-46960842D01*
X30797433Y-47039158D01*
X30777164Y-47114805D01*
X30738006Y-47182628D01*
X30682628Y-47238006D01*
X30614805Y-47277164D01*
X30539158Y-47297433D01*
X30460842Y-47297433D01*
X30385195Y-47277164D01*
X30317372Y-47238006D01*
X30261994Y-47182628D01*
X30222836Y-47114805D01*
X30202567Y-47039158D01*
X30202567Y-46960842D01*
X30222836Y-46885195D01*
X30261994Y-46817372D01*
X30317372Y-46761994D01*
X30385195Y-46722836D01*
X30460842Y-46702567D01*
X30539158Y-46702567D01*
X30614805Y-46722836D01*
G37*
G36*
X31364805Y-46722836D02*
G01*
X31432628Y-46761994D01*
X31488006Y-46817372D01*
X31527164Y-46885195D01*
X31547433Y-46960842D01*
X31547433Y-47039158D01*
X31527164Y-47114805D01*
X31488006Y-47182628D01*
X31432628Y-47238006D01*
X31364805Y-47277164D01*
X31289158Y-47297433D01*
X31210842Y-47297433D01*
X31135195Y-47277164D01*
X31067372Y-47238006D01*
X31011994Y-47182628D01*
X30972836Y-47114805D01*
X30952567Y-47039158D01*
X30952567Y-46960842D01*
X30972836Y-46885195D01*
X31011994Y-46817372D01*
X31067372Y-46761994D01*
X31135195Y-46722836D01*
X31210842Y-46702567D01*
X31289158Y-46702567D01*
X31364805Y-46722836D01*
G37*
G36*
X32114805Y-46722836D02*
G01*
X32182628Y-46761994D01*
X32238006Y-46817372D01*
X32277164Y-46885195D01*
X32297433Y-46960842D01*
X32297433Y-47039158D01*
X32277164Y-47114805D01*
X32238006Y-47182628D01*
X32182628Y-47238006D01*
X32114805Y-47277164D01*
X32039158Y-47297433D01*
X31960842Y-47297433D01*
X31885195Y-47277164D01*
X31817372Y-47238006D01*
X31761994Y-47182628D01*
X31722836Y-47114805D01*
X31702567Y-47039158D01*
X31702567Y-46960842D01*
X31722836Y-46885195D01*
X31761994Y-46817372D01*
X31817372Y-46761994D01*
X31885195Y-46722836D01*
X31960842Y-46702567D01*
X32039158Y-46702567D01*
X32114805Y-46722836D01*
G37*
G36*
X32864805Y-46722836D02*
G01*
X32932628Y-46761994D01*
X32988006Y-46817372D01*
X33027164Y-46885195D01*
X33047433Y-46960842D01*
X33047433Y-47039158D01*
X33027164Y-47114805D01*
X32988006Y-47182628D01*
X32932628Y-47238006D01*
X32864805Y-47277164D01*
X32789158Y-47297433D01*
X32710842Y-47297433D01*
X32635195Y-47277164D01*
X32567372Y-47238006D01*
X32511994Y-47182628D01*
X32472836Y-47114805D01*
X32452567Y-47039158D01*
X32452567Y-46960842D01*
X32472836Y-46885195D01*
X32511994Y-46817372D01*
X32567372Y-46761994D01*
X32635195Y-46722836D01*
X32710842Y-46702567D01*
X32789158Y-46702567D01*
X32864805Y-46722836D01*
G37*
G36*
X33614805Y-46722836D02*
G01*
X33682628Y-46761994D01*
X33738006Y-46817372D01*
X33777164Y-46885195D01*
X33797433Y-46960842D01*
X33797433Y-47039158D01*
X33777164Y-47114805D01*
X33738006Y-47182628D01*
X33682628Y-47238006D01*
X33614805Y-47277164D01*
X33539158Y-47297433D01*
X33460842Y-47297433D01*
X33385195Y-47277164D01*
X33317372Y-47238006D01*
X33261994Y-47182628D01*
X33222836Y-47114805D01*
X33202567Y-47039158D01*
X33202567Y-46960842D01*
X33222836Y-46885195D01*
X33261994Y-46817372D01*
X33317372Y-46761994D01*
X33385195Y-46722836D01*
X33460842Y-46702567D01*
X33539158Y-46702567D01*
X33614805Y-46722836D01*
G37*
G36*
X34364805Y-46722836D02*
G01*
X34432628Y-46761994D01*
X34488006Y-46817372D01*
X34527164Y-46885195D01*
X34547433Y-46960842D01*
X34547433Y-47039158D01*
X34527164Y-47114805D01*
X34488006Y-47182628D01*
X34432628Y-47238006D01*
X34364805Y-47277164D01*
X34289158Y-47297433D01*
X34210842Y-47297433D01*
X34135195Y-47277164D01*
X34067372Y-47238006D01*
X34011994Y-47182628D01*
X33972836Y-47114805D01*
X33952567Y-47039158D01*
X33952567Y-46960842D01*
X33972836Y-46885195D01*
X34011994Y-46817372D01*
X34067372Y-46761994D01*
X34135195Y-46722836D01*
X34210842Y-46702567D01*
X34289158Y-46702567D01*
X34364805Y-46722836D01*
G37*
G36*
X35114805Y-46722836D02*
G01*
X35182628Y-46761994D01*
X35238006Y-46817372D01*
X35277164Y-46885195D01*
X35297433Y-46960842D01*
X35297433Y-47039158D01*
X35277164Y-47114805D01*
X35238006Y-47182628D01*
X35182628Y-47238006D01*
X35114805Y-47277164D01*
X35039158Y-47297433D01*
X34960842Y-47297433D01*
X34885195Y-47277164D01*
X34817372Y-47238006D01*
X34761994Y-47182628D01*
X34722836Y-47114805D01*
X34702567Y-47039158D01*
X34702567Y-46960842D01*
X34722836Y-46885195D01*
X34761994Y-46817372D01*
X34817372Y-46761994D01*
X34885195Y-46722836D01*
X34960842Y-46702567D01*
X35039158Y-46702567D01*
X35114805Y-46722836D01*
G37*
G36*
X12567789Y-37687215D02*
G01*
X12941512Y-37753112D01*
X13308070Y-37851331D01*
X13664673Y-37981124D01*
X14008606Y-38141503D01*
X14337253Y-38331247D01*
X14648112Y-38548913D01*
X14938817Y-38792844D01*
X15207156Y-39061183D01*
X15451087Y-39351888D01*
X15668753Y-39662747D01*
X15858497Y-39991394D01*
X16018876Y-40335327D01*
X16148669Y-40691930D01*
X16246888Y-41058488D01*
X16312785Y-41432211D01*
X16345860Y-41810256D01*
X16345860Y-42189744D01*
X16312785Y-42567789D01*
X16246888Y-42941512D01*
X16148669Y-43308070D01*
X16018876Y-43664673D01*
X15858497Y-44008606D01*
X15668753Y-44337253D01*
X15451087Y-44648112D01*
X15207156Y-44938817D01*
X14938817Y-45207156D01*
X14648112Y-45451087D01*
X14337253Y-45668753D01*
X14008606Y-45858497D01*
X13664673Y-46018876D01*
X13308070Y-46148669D01*
X12941512Y-46246888D01*
X12567789Y-46312785D01*
X12189744Y-46345860D01*
X11810256Y-46345860D01*
X11432211Y-46312785D01*
X11058488Y-46246888D01*
X10691930Y-46148669D01*
X10335327Y-46018876D01*
X9991394Y-45858497D01*
X9662747Y-45668753D01*
X9351888Y-45451087D01*
X9061183Y-45207156D01*
X8792844Y-44938817D01*
X8548913Y-44648112D01*
X8331247Y-44337253D01*
X8141503Y-44008606D01*
X7981124Y-43664673D01*
X7851331Y-43308070D01*
X7753112Y-42941512D01*
X7687215Y-42567789D01*
X7654140Y-42189744D01*
X7654140Y-41810256D01*
X7687215Y-41432211D01*
X7753112Y-41058488D01*
X7851331Y-40691930D01*
X7981124Y-40335327D01*
X8141503Y-39991394D01*
X8331247Y-39662747D01*
X8548913Y-39351888D01*
X8792844Y-39061183D01*
X9061183Y-38792844D01*
X9351888Y-38548913D01*
X9662747Y-38331247D01*
X9991394Y-38141503D01*
X10335327Y-37981124D01*
X10691930Y-37851331D01*
X11058488Y-37753112D01*
X11432211Y-37687215D01*
X11810256Y-37654140D01*
X12189744Y-37654140D01*
X12567789Y-37687215D01*
G37*
G36*
X52567789Y-37687215D02*
G01*
X52941512Y-37753112D01*
X53308070Y-37851331D01*
X53664673Y-37981124D01*
X54008606Y-38141503D01*
X54337253Y-38331247D01*
X54648112Y-38548913D01*
X54938817Y-38792844D01*
X55207156Y-39061183D01*
X55451087Y-39351888D01*
X55668753Y-39662747D01*
X55858497Y-39991394D01*
X56018876Y-40335327D01*
X56148669Y-40691930D01*
X56246888Y-41058488D01*
X56312785Y-41432211D01*
X56345860Y-41810256D01*
X56345860Y-42189744D01*
X56312785Y-42567789D01*
X56246888Y-42941512D01*
X56148669Y-43308070D01*
X56018876Y-43664673D01*
X55858497Y-44008606D01*
X55668753Y-44337253D01*
X55451087Y-44648112D01*
X55207156Y-44938817D01*
X54938817Y-45207156D01*
X54648112Y-45451087D01*
X54337253Y-45668753D01*
X54008606Y-45858497D01*
X53664673Y-46018876D01*
X53308070Y-46148669D01*
X52941512Y-46246888D01*
X52567789Y-46312785D01*
X52189744Y-46345860D01*
X51810256Y-46345860D01*
X51432211Y-46312785D01*
X51058488Y-46246888D01*
X50691930Y-46148669D01*
X50335327Y-46018876D01*
X49991394Y-45858497D01*
X49662747Y-45668753D01*
X49351888Y-45451087D01*
X49061183Y-45207156D01*
X48792844Y-44938817D01*
X48548913Y-44648112D01*
X48331247Y-44337253D01*
X48141503Y-44008606D01*
X47981124Y-43664673D01*
X47851331Y-43308070D01*
X47753112Y-42941512D01*
X47687215Y-42567789D01*
X47654140Y-42189744D01*
X47654140Y-41810256D01*
X47687215Y-41432211D01*
X47753112Y-41058488D01*
X47851331Y-40691930D01*
X47981124Y-40335327D01*
X48141503Y-39991394D01*
X48331247Y-39662747D01*
X48548913Y-39351888D01*
X48792844Y-39061183D01*
X49061183Y-38792844D01*
X49351888Y-38548913D01*
X49662747Y-38331247D01*
X49991394Y-38141503D01*
X50335327Y-37981124D01*
X50691930Y-37851331D01*
X51058488Y-37753112D01*
X51432211Y-37687215D01*
X51810256Y-37654140D01*
X52189744Y-37654140D01*
X52567789Y-37687215D01*
G37*
G36*
X19647380Y-40678191D02*
G01*
X19882074Y-40741077D01*
X20106551Y-40834059D01*
X20316972Y-40955545D01*
X20509735Y-41103458D01*
X20681542Y-41275265D01*
X20829455Y-41468028D01*
X20950941Y-41678449D01*
X21043923Y-41902926D01*
X21106809Y-42137620D01*
X21138523Y-42378514D01*
X21138523Y-42621486D01*
X21106809Y-42862380D01*
X21043923Y-43097074D01*
X20950941Y-43321551D01*
X20829455Y-43531972D01*
X20681542Y-43724735D01*
X20509735Y-43896542D01*
X20316972Y-44044455D01*
X20106551Y-44165941D01*
X19882074Y-44258923D01*
X19647380Y-44321809D01*
X19406486Y-44353523D01*
X19163514Y-44353523D01*
X18922620Y-44321809D01*
X18687926Y-44258923D01*
X18463449Y-44165941D01*
X18253028Y-44044455D01*
X18060265Y-43896542D01*
X17888458Y-43724735D01*
X17740545Y-43531972D01*
X17619059Y-43321551D01*
X17526077Y-43097074D01*
X17463191Y-42862380D01*
X17431477Y-42621486D01*
X17431477Y-42378514D01*
X17463191Y-42137620D01*
X17526077Y-41902926D01*
X17619059Y-41678449D01*
X17740545Y-41468028D01*
X17888458Y-41275265D01*
X18060265Y-41103458D01*
X18253028Y-40955545D01*
X18463449Y-40834059D01*
X18687926Y-40741077D01*
X18922620Y-40678191D01*
X19163514Y-40646477D01*
X19406486Y-40646477D01*
X19647380Y-40678191D01*
G37*
G36*
X27077380Y-40678191D02*
G01*
X27312074Y-40741077D01*
X27536551Y-40834059D01*
X27746972Y-40955545D01*
X27939735Y-41103458D01*
X28111542Y-41275265D01*
X28259455Y-41468028D01*
X28380941Y-41678449D01*
X28473923Y-41902926D01*
X28536809Y-42137620D01*
X28568523Y-42378514D01*
X28568523Y-42621486D01*
X28536809Y-42862380D01*
X28473923Y-43097074D01*
X28380941Y-43321551D01*
X28259455Y-43531972D01*
X28111542Y-43724735D01*
X27939735Y-43896542D01*
X27746972Y-44044455D01*
X27536551Y-44165941D01*
X27312074Y-44258923D01*
X27077380Y-44321809D01*
X26836486Y-44353523D01*
X26593514Y-44353523D01*
X26352620Y-44321809D01*
X26117926Y-44258923D01*
X25893449Y-44165941D01*
X25683028Y-44044455D01*
X25490265Y-43896542D01*
X25318458Y-43724735D01*
X25170545Y-43531972D01*
X25049059Y-43321551D01*
X24956077Y-43097074D01*
X24893191Y-42862380D01*
X24861477Y-42621486D01*
X24861477Y-42378514D01*
X24893191Y-42137620D01*
X24956077Y-41902926D01*
X25049059Y-41678449D01*
X25170545Y-41468028D01*
X25318458Y-41275265D01*
X25490265Y-41103458D01*
X25683028Y-40955545D01*
X25893449Y-40834059D01*
X26117926Y-40741077D01*
X26352620Y-40678191D01*
X26593514Y-40646477D01*
X26836486Y-40646477D01*
X27077380Y-40678191D01*
G37*
G36*
X34379047Y-40475805D02*
G01*
X34430408Y-40481764D01*
X34447954Y-40489511D01*
X34470671Y-40494030D01*
X34494991Y-40510280D01*
X34515793Y-40519465D01*
X34530000Y-40533672D01*
X34551777Y-40548223D01*
X34566327Y-40569999D01*
X34580534Y-40584206D01*
X34589718Y-40605006D01*
X34605970Y-40629329D01*
X34610489Y-40652048D01*
X34618235Y-40669591D01*
X34624192Y-40720940D01*
X34625000Y-40725000D01*
X34625000Y-41275000D01*
X34624192Y-41279059D01*
X34618235Y-41330408D01*
X34610489Y-41347950D01*
X34605970Y-41370671D01*
X34589716Y-41394995D01*
X34580534Y-41415793D01*
X34566329Y-41429997D01*
X34551777Y-41451777D01*
X34529997Y-41466329D01*
X34515793Y-41480534D01*
X34494995Y-41489716D01*
X34470671Y-41505970D01*
X34447950Y-41510489D01*
X34430408Y-41518235D01*
X34379061Y-41524192D01*
X34375000Y-41525000D01*
X33975000Y-41525000D01*
X33970941Y-41524192D01*
X33919591Y-41518235D01*
X33902048Y-41510489D01*
X33879329Y-41505970D01*
X33855006Y-41489718D01*
X33834206Y-41480534D01*
X33819999Y-41466327D01*
X33798223Y-41451777D01*
X33783672Y-41430000D01*
X33769465Y-41415793D01*
X33760280Y-41394991D01*
X33744030Y-41370671D01*
X33739511Y-41347954D01*
X33731764Y-41330408D01*
X33725805Y-41279049D01*
X33725000Y-41275000D01*
X33725000Y-40725000D01*
X33725804Y-40720953D01*
X33731764Y-40669591D01*
X33739511Y-40652043D01*
X33744030Y-40629329D01*
X33760278Y-40605010D01*
X33769465Y-40584206D01*
X33783674Y-40569996D01*
X33798223Y-40548223D01*
X33819996Y-40533674D01*
X33834206Y-40519465D01*
X33855010Y-40510278D01*
X33879329Y-40494030D01*
X33902043Y-40489511D01*
X33919591Y-40481764D01*
X33970952Y-40475805D01*
X33975000Y-40475000D01*
X34375000Y-40475000D01*
X34379047Y-40475805D01*
G37*
G36*
X36029047Y-40475805D02*
G01*
X36080408Y-40481764D01*
X36097954Y-40489511D01*
X36120671Y-40494030D01*
X36144991Y-40510280D01*
X36165793Y-40519465D01*
X36180000Y-40533672D01*
X36201777Y-40548223D01*
X36216327Y-40569999D01*
X36230534Y-40584206D01*
X36239718Y-40605006D01*
X36255970Y-40629329D01*
X36260489Y-40652048D01*
X36268235Y-40669591D01*
X36274192Y-40720940D01*
X36275000Y-40725000D01*
X36275000Y-41275000D01*
X36274192Y-41279059D01*
X36268235Y-41330408D01*
X36260489Y-41347950D01*
X36255970Y-41370671D01*
X36239716Y-41394995D01*
X36230534Y-41415793D01*
X36216329Y-41429997D01*
X36201777Y-41451777D01*
X36179997Y-41466329D01*
X36165793Y-41480534D01*
X36144995Y-41489716D01*
X36120671Y-41505970D01*
X36097950Y-41510489D01*
X36080408Y-41518235D01*
X36029061Y-41524192D01*
X36025000Y-41525000D01*
X35625000Y-41525000D01*
X35620941Y-41524192D01*
X35569591Y-41518235D01*
X35552048Y-41510489D01*
X35529329Y-41505970D01*
X35505006Y-41489718D01*
X35484206Y-41480534D01*
X35469999Y-41466327D01*
X35448223Y-41451777D01*
X35433672Y-41430000D01*
X35419465Y-41415793D01*
X35410280Y-41394991D01*
X35394030Y-41370671D01*
X35389511Y-41347954D01*
X35381764Y-41330408D01*
X35375805Y-41279049D01*
X35375000Y-41275000D01*
X35375000Y-40725000D01*
X35375804Y-40720953D01*
X35381764Y-40669591D01*
X35389511Y-40652043D01*
X35394030Y-40629329D01*
X35410278Y-40605010D01*
X35419465Y-40584206D01*
X35433674Y-40569996D01*
X35448223Y-40548223D01*
X35469996Y-40533674D01*
X35484206Y-40519465D01*
X35505010Y-40510278D01*
X35529329Y-40494030D01*
X35552043Y-40489511D01*
X35569591Y-40481764D01*
X35620952Y-40475805D01*
X35625000Y-40475000D01*
X36025000Y-40475000D01*
X36029047Y-40475805D01*
G37*
G36*
X31712380Y-36678191D02*
G01*
X31947074Y-36741077D01*
X32171551Y-36834059D01*
X32381972Y-36955545D01*
X32574735Y-37103458D01*
X32746542Y-37275265D01*
X32894455Y-37468028D01*
X33015941Y-37678449D01*
X33108923Y-37902926D01*
X33171809Y-38137620D01*
X33203523Y-38378514D01*
X33203523Y-38621486D01*
X33171809Y-38862380D01*
X33108923Y-39097074D01*
X33015941Y-39321551D01*
X32894455Y-39531972D01*
X32746542Y-39724735D01*
X32574735Y-39896542D01*
X32381972Y-40044455D01*
X32171551Y-40165941D01*
X31947074Y-40258923D01*
X31712380Y-40321809D01*
X31471486Y-40353523D01*
X31228514Y-40353523D01*
X30987620Y-40321809D01*
X30752926Y-40258923D01*
X30528449Y-40165941D01*
X30318028Y-40044455D01*
X30125265Y-39896542D01*
X29953458Y-39724735D01*
X29805545Y-39531972D01*
X29684059Y-39321551D01*
X29591077Y-39097074D01*
X29528191Y-38862380D01*
X29496477Y-38621486D01*
X29496477Y-38378514D01*
X29528191Y-38137620D01*
X29591077Y-37902926D01*
X29684059Y-37678449D01*
X29805545Y-37468028D01*
X29953458Y-37275265D01*
X30125265Y-37103458D01*
X30318028Y-36955545D01*
X30528449Y-36834059D01*
X30752926Y-36741077D01*
X30987620Y-36678191D01*
X31228514Y-36646477D01*
X31471486Y-36646477D01*
X31712380Y-36678191D01*
G37*
G36*
X45012380Y-36678191D02*
G01*
X45247074Y-36741077D01*
X45471551Y-36834059D01*
X45681972Y-36955545D01*
X45874735Y-37103458D01*
X46046542Y-37275265D01*
X46194455Y-37468028D01*
X46315941Y-37678449D01*
X46408923Y-37902926D01*
X46471809Y-38137620D01*
X46503523Y-38378514D01*
X46503523Y-38621486D01*
X46471809Y-38862380D01*
X46408923Y-39097074D01*
X46315941Y-39321551D01*
X46194455Y-39531972D01*
X46046542Y-39724735D01*
X45874735Y-39896542D01*
X45681972Y-40044455D01*
X45471551Y-40165941D01*
X45247074Y-40258923D01*
X45012380Y-40321809D01*
X44771486Y-40353523D01*
X44528514Y-40353523D01*
X44287620Y-40321809D01*
X44052926Y-40258923D01*
X43828449Y-40165941D01*
X43618028Y-40044455D01*
X43425265Y-39896542D01*
X43253458Y-39724735D01*
X43105545Y-39531972D01*
X42984059Y-39321551D01*
X42891077Y-39097074D01*
X42828191Y-38862380D01*
X42796477Y-38621486D01*
X42796477Y-38378514D01*
X42828191Y-38137620D01*
X42891077Y-37902926D01*
X42984059Y-37678449D01*
X43105545Y-37468028D01*
X43253458Y-37275265D01*
X43425265Y-37103458D01*
X43618028Y-36955545D01*
X43828449Y-36834059D01*
X44052926Y-36741077D01*
X44287620Y-36678191D01*
X44528514Y-36646477D01*
X44771486Y-36646477D01*
X45012380Y-36678191D01*
G37*
G36*
X27879047Y-34475805D02*
G01*
X27930408Y-34481764D01*
X27947954Y-34489511D01*
X27970671Y-34494030D01*
X27994991Y-34510280D01*
X28015793Y-34519465D01*
X28030000Y-34533672D01*
X28051777Y-34548223D01*
X28066327Y-34569999D01*
X28080534Y-34584206D01*
X28089718Y-34605006D01*
X28105970Y-34629329D01*
X28110489Y-34652048D01*
X28118235Y-34669591D01*
X28124192Y-34720940D01*
X28125000Y-34725000D01*
X28125000Y-35275000D01*
X28124192Y-35279059D01*
X28118235Y-35330408D01*
X28110489Y-35347950D01*
X28105970Y-35370671D01*
X28089716Y-35394995D01*
X28080534Y-35415793D01*
X28066329Y-35429997D01*
X28051777Y-35451777D01*
X28029997Y-35466329D01*
X28015793Y-35480534D01*
X27994995Y-35489716D01*
X27970671Y-35505970D01*
X27947950Y-35510489D01*
X27930408Y-35518235D01*
X27879061Y-35524192D01*
X27875000Y-35525000D01*
X27475000Y-35525000D01*
X27470941Y-35524192D01*
X27419591Y-35518235D01*
X27402048Y-35510489D01*
X27379329Y-35505970D01*
X27355006Y-35489718D01*
X27334206Y-35480534D01*
X27319999Y-35466327D01*
X27298223Y-35451777D01*
X27283672Y-35430000D01*
X27269465Y-35415793D01*
X27260280Y-35394991D01*
X27244030Y-35370671D01*
X27239511Y-35347954D01*
X27231764Y-35330408D01*
X27225805Y-35279049D01*
X27225000Y-35275000D01*
X27225000Y-34725000D01*
X27225804Y-34720953D01*
X27231764Y-34669591D01*
X27239511Y-34652043D01*
X27244030Y-34629329D01*
X27260278Y-34605010D01*
X27269465Y-34584206D01*
X27283674Y-34569996D01*
X27298223Y-34548223D01*
X27319996Y-34533674D01*
X27334206Y-34519465D01*
X27355010Y-34510278D01*
X27379329Y-34494030D01*
X27402043Y-34489511D01*
X27419591Y-34481764D01*
X27470952Y-34475805D01*
X27475000Y-34475000D01*
X27875000Y-34475000D01*
X27879047Y-34475805D01*
G37*
G36*
X29529047Y-34475805D02*
G01*
X29580408Y-34481764D01*
X29597954Y-34489511D01*
X29620671Y-34494030D01*
X29644991Y-34510280D01*
X29665793Y-34519465D01*
X29680000Y-34533672D01*
X29701777Y-34548223D01*
X29716327Y-34569999D01*
X29730534Y-34584206D01*
X29739718Y-34605006D01*
X29755970Y-34629329D01*
X29760489Y-34652048D01*
X29768235Y-34669591D01*
X29774192Y-34720940D01*
X29775000Y-34725000D01*
X29775000Y-35275000D01*
X29774192Y-35279059D01*
X29768235Y-35330408D01*
X29760489Y-35347950D01*
X29755970Y-35370671D01*
X29739716Y-35394995D01*
X29730534Y-35415793D01*
X29716329Y-35429997D01*
X29701777Y-35451777D01*
X29679997Y-35466329D01*
X29665793Y-35480534D01*
X29644995Y-35489716D01*
X29620671Y-35505970D01*
X29597950Y-35510489D01*
X29580408Y-35518235D01*
X29529061Y-35524192D01*
X29525000Y-35525000D01*
X29125000Y-35525000D01*
X29120941Y-35524192D01*
X29069591Y-35518235D01*
X29052048Y-35510489D01*
X29029329Y-35505970D01*
X29005006Y-35489718D01*
X28984206Y-35480534D01*
X28969999Y-35466327D01*
X28948223Y-35451777D01*
X28933672Y-35430000D01*
X28919465Y-35415793D01*
X28910280Y-35394991D01*
X28894030Y-35370671D01*
X28889511Y-35347954D01*
X28881764Y-35330408D01*
X28875805Y-35279049D01*
X28875000Y-35275000D01*
X28875000Y-34725000D01*
X28875804Y-34720953D01*
X28881764Y-34669591D01*
X28889511Y-34652043D01*
X28894030Y-34629329D01*
X28910278Y-34605010D01*
X28919465Y-34584206D01*
X28933674Y-34569996D01*
X28948223Y-34548223D01*
X28969996Y-34533674D01*
X28984206Y-34519465D01*
X29005010Y-34510278D01*
X29029329Y-34494030D01*
X29052043Y-34489511D01*
X29069591Y-34481764D01*
X29120952Y-34475805D01*
X29125000Y-34475000D01*
X29525000Y-34475000D01*
X29529047Y-34475805D01*
G37*
G36*
X31379047Y-34475805D02*
G01*
X31430408Y-34481764D01*
X31447954Y-34489511D01*
X31470671Y-34494030D01*
X31494991Y-34510280D01*
X31515793Y-34519465D01*
X31530000Y-34533672D01*
X31551777Y-34548223D01*
X31566327Y-34569999D01*
X31580534Y-34584206D01*
X31589718Y-34605006D01*
X31605970Y-34629329D01*
X31610489Y-34652048D01*
X31618235Y-34669591D01*
X31624192Y-34720940D01*
X31625000Y-34725000D01*
X31625000Y-35275000D01*
X31624192Y-35279059D01*
X31618235Y-35330408D01*
X31610489Y-35347950D01*
X31605970Y-35370671D01*
X31589716Y-35394995D01*
X31580534Y-35415793D01*
X31566329Y-35429997D01*
X31551777Y-35451777D01*
X31529997Y-35466329D01*
X31515793Y-35480534D01*
X31494995Y-35489716D01*
X31470671Y-35505970D01*
X31447950Y-35510489D01*
X31430408Y-35518235D01*
X31379061Y-35524192D01*
X31375000Y-35525000D01*
X30975000Y-35525000D01*
X30970941Y-35524192D01*
X30919591Y-35518235D01*
X30902048Y-35510489D01*
X30879329Y-35505970D01*
X30855006Y-35489718D01*
X30834206Y-35480534D01*
X30819999Y-35466327D01*
X30798223Y-35451777D01*
X30783672Y-35430000D01*
X30769465Y-35415793D01*
X30760280Y-35394991D01*
X30744030Y-35370671D01*
X30739511Y-35347954D01*
X30731764Y-35330408D01*
X30725805Y-35279049D01*
X30725000Y-35275000D01*
X30725000Y-34725000D01*
X30725804Y-34720953D01*
X30731764Y-34669591D01*
X30739511Y-34652043D01*
X30744030Y-34629329D01*
X30760278Y-34605010D01*
X30769465Y-34584206D01*
X30783674Y-34569996D01*
X30798223Y-34548223D01*
X30819996Y-34533674D01*
X30834206Y-34519465D01*
X30855010Y-34510278D01*
X30879329Y-34494030D01*
X30902043Y-34489511D01*
X30919591Y-34481764D01*
X30970952Y-34475805D01*
X30975000Y-34475000D01*
X31375000Y-34475000D01*
X31379047Y-34475805D01*
G37*
G36*
X33029047Y-34475805D02*
G01*
X33080408Y-34481764D01*
X33097954Y-34489511D01*
X33120671Y-34494030D01*
X33144991Y-34510280D01*
X33165793Y-34519465D01*
X33180000Y-34533672D01*
X33201777Y-34548223D01*
X33216327Y-34569999D01*
X33230534Y-34584206D01*
X33239718Y-34605006D01*
X33255970Y-34629329D01*
X33260489Y-34652048D01*
X33268235Y-34669591D01*
X33274192Y-34720940D01*
X33275000Y-34725000D01*
X33275000Y-35275000D01*
X33274192Y-35279059D01*
X33268235Y-35330408D01*
X33260489Y-35347950D01*
X33255970Y-35370671D01*
X33239716Y-35394995D01*
X33230534Y-35415793D01*
X33216329Y-35429997D01*
X33201777Y-35451777D01*
X33179997Y-35466329D01*
X33165793Y-35480534D01*
X33144995Y-35489716D01*
X33120671Y-35505970D01*
X33097950Y-35510489D01*
X33080408Y-35518235D01*
X33029061Y-35524192D01*
X33025000Y-35525000D01*
X32625000Y-35525000D01*
X32620941Y-35524192D01*
X32569591Y-35518235D01*
X32552048Y-35510489D01*
X32529329Y-35505970D01*
X32505006Y-35489718D01*
X32484206Y-35480534D01*
X32469999Y-35466327D01*
X32448223Y-35451777D01*
X32433672Y-35430000D01*
X32419465Y-35415793D01*
X32410280Y-35394991D01*
X32394030Y-35370671D01*
X32389511Y-35347954D01*
X32381764Y-35330408D01*
X32375805Y-35279049D01*
X32375000Y-35275000D01*
X32375000Y-34725000D01*
X32375804Y-34720953D01*
X32381764Y-34669591D01*
X32389511Y-34652043D01*
X32394030Y-34629329D01*
X32410278Y-34605010D01*
X32419465Y-34584206D01*
X32433674Y-34569996D01*
X32448223Y-34548223D01*
X32469996Y-34533674D01*
X32484206Y-34519465D01*
X32505010Y-34510278D01*
X32529329Y-34494030D01*
X32552043Y-34489511D01*
X32569591Y-34481764D01*
X32620952Y-34475805D01*
X32625000Y-34475000D01*
X33025000Y-34475000D01*
X33029047Y-34475805D01*
G37*
G36*
X34879047Y-34475805D02*
G01*
X34930408Y-34481764D01*
X34947954Y-34489511D01*
X34970671Y-34494030D01*
X34994991Y-34510280D01*
X35015793Y-34519465D01*
X35030000Y-34533672D01*
X35051777Y-34548223D01*
X35066327Y-34569999D01*
X35080534Y-34584206D01*
X35089718Y-34605006D01*
X35105970Y-34629329D01*
X35110489Y-34652048D01*
X35118235Y-34669591D01*
X35124192Y-34720940D01*
X35125000Y-34725000D01*
X35125000Y-35275000D01*
X35124192Y-35279059D01*
X35118235Y-35330408D01*
X35110489Y-35347950D01*
X35105970Y-35370671D01*
X35089716Y-35394995D01*
X35080534Y-35415793D01*
X35066329Y-35429997D01*
X35051777Y-35451777D01*
X35029997Y-35466329D01*
X35015793Y-35480534D01*
X34994995Y-35489716D01*
X34970671Y-35505970D01*
X34947950Y-35510489D01*
X34930408Y-35518235D01*
X34879061Y-35524192D01*
X34875000Y-35525000D01*
X34475000Y-35525000D01*
X34470941Y-35524192D01*
X34419591Y-35518235D01*
X34402048Y-35510489D01*
X34379329Y-35505970D01*
X34355006Y-35489718D01*
X34334206Y-35480534D01*
X34319999Y-35466327D01*
X34298223Y-35451777D01*
X34283672Y-35430000D01*
X34269465Y-35415793D01*
X34260280Y-35394991D01*
X34244030Y-35370671D01*
X34239511Y-35347954D01*
X34231764Y-35330408D01*
X34225805Y-35279049D01*
X34225000Y-35275000D01*
X34225000Y-34725000D01*
X34225804Y-34720953D01*
X34231764Y-34669591D01*
X34239511Y-34652043D01*
X34244030Y-34629329D01*
X34260278Y-34605010D01*
X34269465Y-34584206D01*
X34283674Y-34569996D01*
X34298223Y-34548223D01*
X34319996Y-34533674D01*
X34334206Y-34519465D01*
X34355010Y-34510278D01*
X34379329Y-34494030D01*
X34402043Y-34489511D01*
X34419591Y-34481764D01*
X34470952Y-34475805D01*
X34475000Y-34475000D01*
X34875000Y-34475000D01*
X34879047Y-34475805D01*
G37*
G36*
X36529047Y-34475805D02*
G01*
X36580408Y-34481764D01*
X36597954Y-34489511D01*
X36620671Y-34494030D01*
X36644991Y-34510280D01*
X36665793Y-34519465D01*
X36680000Y-34533672D01*
X36701777Y-34548223D01*
X36716327Y-34569999D01*
X36730534Y-34584206D01*
X36739718Y-34605006D01*
X36755970Y-34629329D01*
X36760489Y-34652048D01*
X36768235Y-34669591D01*
X36774192Y-34720940D01*
X36775000Y-34725000D01*
X36775000Y-35275000D01*
X36774192Y-35279059D01*
X36768235Y-35330408D01*
X36760489Y-35347950D01*
X36755970Y-35370671D01*
X36739716Y-35394995D01*
X36730534Y-35415793D01*
X36716329Y-35429997D01*
X36701777Y-35451777D01*
X36679997Y-35466329D01*
X36665793Y-35480534D01*
X36644995Y-35489716D01*
X36620671Y-35505970D01*
X36597950Y-35510489D01*
X36580408Y-35518235D01*
X36529061Y-35524192D01*
X36525000Y-35525000D01*
X36125000Y-35525000D01*
X36120941Y-35524192D01*
X36069591Y-35518235D01*
X36052048Y-35510489D01*
X36029329Y-35505970D01*
X36005006Y-35489718D01*
X35984206Y-35480534D01*
X35969999Y-35466327D01*
X35948223Y-35451777D01*
X35933672Y-35430000D01*
X35919465Y-35415793D01*
X35910280Y-35394991D01*
X35894030Y-35370671D01*
X35889511Y-35347954D01*
X35881764Y-35330408D01*
X35875805Y-35279049D01*
X35875000Y-35275000D01*
X35875000Y-34725000D01*
X35875804Y-34720953D01*
X35881764Y-34669591D01*
X35889511Y-34652043D01*
X35894030Y-34629329D01*
X35910278Y-34605010D01*
X35919465Y-34584206D01*
X35933674Y-34569996D01*
X35948223Y-34548223D01*
X35969996Y-34533674D01*
X35984206Y-34519465D01*
X36005010Y-34510278D01*
X36029329Y-34494030D01*
X36052043Y-34489511D01*
X36069591Y-34481764D01*
X36120952Y-34475805D01*
X36125000Y-34475000D01*
X36525000Y-34475000D01*
X36529047Y-34475805D01*
G37*
G36*
X38379047Y-34475805D02*
G01*
X38430408Y-34481764D01*
X38447954Y-34489511D01*
X38470671Y-34494030D01*
X38494991Y-34510280D01*
X38515793Y-34519465D01*
X38530000Y-34533672D01*
X38551777Y-34548223D01*
X38566327Y-34569999D01*
X38580534Y-34584206D01*
X38589718Y-34605006D01*
X38605970Y-34629329D01*
X38610489Y-34652048D01*
X38618235Y-34669591D01*
X38624192Y-34720940D01*
X38625000Y-34725000D01*
X38625000Y-35275000D01*
X38624192Y-35279059D01*
X38618235Y-35330408D01*
X38610489Y-35347950D01*
X38605970Y-35370671D01*
X38589716Y-35394995D01*
X38580534Y-35415793D01*
X38566329Y-35429997D01*
X38551777Y-35451777D01*
X38529997Y-35466329D01*
X38515793Y-35480534D01*
X38494995Y-35489716D01*
X38470671Y-35505970D01*
X38447950Y-35510489D01*
X38430408Y-35518235D01*
X38379061Y-35524192D01*
X38375000Y-35525000D01*
X37975000Y-35525000D01*
X37970941Y-35524192D01*
X37919591Y-35518235D01*
X37902048Y-35510489D01*
X37879329Y-35505970D01*
X37855006Y-35489718D01*
X37834206Y-35480534D01*
X37819999Y-35466327D01*
X37798223Y-35451777D01*
X37783672Y-35430000D01*
X37769465Y-35415793D01*
X37760280Y-35394991D01*
X37744030Y-35370671D01*
X37739511Y-35347954D01*
X37731764Y-35330408D01*
X37725805Y-35279049D01*
X37725000Y-35275000D01*
X37725000Y-34725000D01*
X37725804Y-34720953D01*
X37731764Y-34669591D01*
X37739511Y-34652043D01*
X37744030Y-34629329D01*
X37760278Y-34605010D01*
X37769465Y-34584206D01*
X37783674Y-34569996D01*
X37798223Y-34548223D01*
X37819996Y-34533674D01*
X37834206Y-34519465D01*
X37855010Y-34510278D01*
X37879329Y-34494030D01*
X37902043Y-34489511D01*
X37919591Y-34481764D01*
X37970952Y-34475805D01*
X37975000Y-34475000D01*
X38375000Y-34475000D01*
X38379047Y-34475805D01*
G37*
G36*
X40029047Y-34475805D02*
G01*
X40080408Y-34481764D01*
X40097954Y-34489511D01*
X40120671Y-34494030D01*
X40144991Y-34510280D01*
X40165793Y-34519465D01*
X40180000Y-34533672D01*
X40201777Y-34548223D01*
X40216327Y-34569999D01*
X40230534Y-34584206D01*
X40239718Y-34605006D01*
X40255970Y-34629329D01*
X40260489Y-34652048D01*
X40268235Y-34669591D01*
X40274192Y-34720940D01*
X40275000Y-34725000D01*
X40275000Y-35275000D01*
X40274192Y-35279059D01*
X40268235Y-35330408D01*
X40260489Y-35347950D01*
X40255970Y-35370671D01*
X40239716Y-35394995D01*
X40230534Y-35415793D01*
X40216329Y-35429997D01*
X40201777Y-35451777D01*
X40179997Y-35466329D01*
X40165793Y-35480534D01*
X40144995Y-35489716D01*
X40120671Y-35505970D01*
X40097950Y-35510489D01*
X40080408Y-35518235D01*
X40029061Y-35524192D01*
X40025000Y-35525000D01*
X39625000Y-35525000D01*
X39620941Y-35524192D01*
X39569591Y-35518235D01*
X39552048Y-35510489D01*
X39529329Y-35505970D01*
X39505006Y-35489718D01*
X39484206Y-35480534D01*
X39469999Y-35466327D01*
X39448223Y-35451777D01*
X39433672Y-35430000D01*
X39419465Y-35415793D01*
X39410280Y-35394991D01*
X39394030Y-35370671D01*
X39389511Y-35347954D01*
X39381764Y-35330408D01*
X39375805Y-35279049D01*
X39375000Y-35275000D01*
X39375000Y-34725000D01*
X39375804Y-34720953D01*
X39381764Y-34669591D01*
X39389511Y-34652043D01*
X39394030Y-34629329D01*
X39410278Y-34605010D01*
X39419465Y-34584206D01*
X39433674Y-34569996D01*
X39448223Y-34548223D01*
X39469996Y-34533674D01*
X39484206Y-34519465D01*
X39505010Y-34510278D01*
X39529329Y-34494030D01*
X39552043Y-34489511D01*
X39569591Y-34481764D01*
X39620952Y-34475805D01*
X39625000Y-34475000D01*
X40025000Y-34475000D01*
X40029047Y-34475805D01*
G37*
G36*
X13379047Y-33975805D02*
G01*
X13430408Y-33981764D01*
X13447954Y-33989511D01*
X13470671Y-33994030D01*
X13494991Y-34010280D01*
X13515793Y-34019465D01*
X13530000Y-34033672D01*
X13551777Y-34048223D01*
X13566327Y-34069999D01*
X13580534Y-34084206D01*
X13589718Y-34105006D01*
X13605970Y-34129329D01*
X13610489Y-34152048D01*
X13618235Y-34169591D01*
X13624192Y-34220940D01*
X13625000Y-34225000D01*
X13625000Y-34775000D01*
X13624192Y-34779059D01*
X13618235Y-34830408D01*
X13610489Y-34847950D01*
X13605970Y-34870671D01*
X13589716Y-34894995D01*
X13580534Y-34915793D01*
X13566329Y-34929997D01*
X13551777Y-34951777D01*
X13529997Y-34966329D01*
X13515793Y-34980534D01*
X13494995Y-34989716D01*
X13470671Y-35005970D01*
X13447950Y-35010489D01*
X13430408Y-35018235D01*
X13379061Y-35024192D01*
X13375000Y-35025000D01*
X12975000Y-35025000D01*
X12970941Y-35024192D01*
X12919591Y-35018235D01*
X12902048Y-35010489D01*
X12879329Y-35005970D01*
X12855006Y-34989718D01*
X12834206Y-34980534D01*
X12819999Y-34966327D01*
X12798223Y-34951777D01*
X12783672Y-34930000D01*
X12769465Y-34915793D01*
X12760280Y-34894991D01*
X12744030Y-34870671D01*
X12739511Y-34847954D01*
X12731764Y-34830408D01*
X12725805Y-34779049D01*
X12725000Y-34775000D01*
X12725000Y-34225000D01*
X12725804Y-34220953D01*
X12731764Y-34169591D01*
X12739511Y-34152043D01*
X12744030Y-34129329D01*
X12760278Y-34105010D01*
X12769465Y-34084206D01*
X12783674Y-34069996D01*
X12798223Y-34048223D01*
X12819996Y-34033674D01*
X12834206Y-34019465D01*
X12855010Y-34010278D01*
X12879329Y-33994030D01*
X12902043Y-33989511D01*
X12919591Y-33981764D01*
X12970952Y-33975805D01*
X12975000Y-33975000D01*
X13375000Y-33975000D01*
X13379047Y-33975805D01*
G37*
G36*
X15029047Y-33975805D02*
G01*
X15080408Y-33981764D01*
X15097954Y-33989511D01*
X15120671Y-33994030D01*
X15144991Y-34010280D01*
X15165793Y-34019465D01*
X15180000Y-34033672D01*
X15201777Y-34048223D01*
X15216327Y-34069999D01*
X15230534Y-34084206D01*
X15239718Y-34105006D01*
X15255970Y-34129329D01*
X15260489Y-34152048D01*
X15268235Y-34169591D01*
X15274192Y-34220940D01*
X15275000Y-34225000D01*
X15275000Y-34775000D01*
X15274192Y-34779059D01*
X15268235Y-34830408D01*
X15260489Y-34847950D01*
X15255970Y-34870671D01*
X15239716Y-34894995D01*
X15230534Y-34915793D01*
X15216329Y-34929997D01*
X15201777Y-34951777D01*
X15179997Y-34966329D01*
X15165793Y-34980534D01*
X15144995Y-34989716D01*
X15120671Y-35005970D01*
X15097950Y-35010489D01*
X15080408Y-35018235D01*
X15029061Y-35024192D01*
X15025000Y-35025000D01*
X14625000Y-35025000D01*
X14620941Y-35024192D01*
X14569591Y-35018235D01*
X14552048Y-35010489D01*
X14529329Y-35005970D01*
X14505006Y-34989718D01*
X14484206Y-34980534D01*
X14469999Y-34966327D01*
X14448223Y-34951777D01*
X14433672Y-34930000D01*
X14419465Y-34915793D01*
X14410280Y-34894991D01*
X14394030Y-34870671D01*
X14389511Y-34847954D01*
X14381764Y-34830408D01*
X14375805Y-34779049D01*
X14375000Y-34775000D01*
X14375000Y-34225000D01*
X14375804Y-34220953D01*
X14381764Y-34169591D01*
X14389511Y-34152043D01*
X14394030Y-34129329D01*
X14410278Y-34105010D01*
X14419465Y-34084206D01*
X14433674Y-34069996D01*
X14448223Y-34048223D01*
X14469996Y-34033674D01*
X14484206Y-34019465D01*
X14505010Y-34010278D01*
X14529329Y-33994030D01*
X14552043Y-33989511D01*
X14569591Y-33981764D01*
X14620952Y-33975805D01*
X14625000Y-33975000D01*
X15025000Y-33975000D01*
X15029047Y-33975805D01*
G37*
G36*
X26279047Y-33875805D02*
G01*
X26330408Y-33881764D01*
X26347954Y-33889511D01*
X26370671Y-33894030D01*
X26394991Y-33910280D01*
X26415793Y-33919465D01*
X26430000Y-33933672D01*
X26451777Y-33948223D01*
X26466327Y-33969999D01*
X26480534Y-33984206D01*
X26489718Y-34005006D01*
X26505970Y-34029329D01*
X26510489Y-34052048D01*
X26518235Y-34069591D01*
X26524192Y-34120940D01*
X26525000Y-34125000D01*
X26525000Y-34525000D01*
X26524192Y-34529059D01*
X26518235Y-34580408D01*
X26510489Y-34597950D01*
X26505970Y-34620671D01*
X26489716Y-34644995D01*
X26480534Y-34665793D01*
X26466329Y-34679997D01*
X26451777Y-34701777D01*
X26429997Y-34716329D01*
X26415793Y-34730534D01*
X26394995Y-34739716D01*
X26370671Y-34755970D01*
X26347950Y-34760489D01*
X26330408Y-34768235D01*
X26279061Y-34774192D01*
X26275000Y-34775000D01*
X25725000Y-34775000D01*
X25720941Y-34774192D01*
X25669591Y-34768235D01*
X25652048Y-34760489D01*
X25629329Y-34755970D01*
X25605006Y-34739718D01*
X25584206Y-34730534D01*
X25569999Y-34716327D01*
X25548223Y-34701777D01*
X25533672Y-34680000D01*
X25519465Y-34665793D01*
X25510280Y-34644991D01*
X25494030Y-34620671D01*
X25489511Y-34597954D01*
X25481764Y-34580408D01*
X25475805Y-34529049D01*
X25475000Y-34525000D01*
X25475000Y-34125000D01*
X25475804Y-34120953D01*
X25481764Y-34069591D01*
X25489511Y-34052043D01*
X25494030Y-34029329D01*
X25510278Y-34005010D01*
X25519465Y-33984206D01*
X25533674Y-33969996D01*
X25548223Y-33948223D01*
X25569996Y-33933674D01*
X25584206Y-33919465D01*
X25605010Y-33910278D01*
X25629329Y-33894030D01*
X25652043Y-33889511D01*
X25669591Y-33881764D01*
X25720952Y-33875805D01*
X25725000Y-33875000D01*
X26275000Y-33875000D01*
X26279047Y-33875805D01*
G37*
G36*
X28088268Y-33057612D02*
G01*
X28120711Y-33079289D01*
X28142388Y-33111732D01*
X28150000Y-33150000D01*
X28150000Y-33850000D01*
X28142388Y-33888268D01*
X28120711Y-33920711D01*
X28088268Y-33942388D01*
X28050000Y-33950000D01*
X27350000Y-33950000D01*
X27311732Y-33942388D01*
X27279289Y-33920711D01*
X27257612Y-33888268D01*
X27250000Y-33850000D01*
X27250000Y-33150000D01*
X27257612Y-33111732D01*
X27279289Y-33079289D01*
X27311732Y-33057612D01*
X27350000Y-33050000D01*
X28050000Y-33050000D01*
X28088268Y-33057612D01*
G37*
G36*
X29688268Y-33057612D02*
G01*
X29720711Y-33079289D01*
X29742388Y-33111732D01*
X29750000Y-33150000D01*
X29750000Y-33850000D01*
X29742388Y-33888268D01*
X29720711Y-33920711D01*
X29688268Y-33942388D01*
X29650000Y-33950000D01*
X28950000Y-33950000D01*
X28911732Y-33942388D01*
X28879289Y-33920711D01*
X28857612Y-33888268D01*
X28850000Y-33850000D01*
X28850000Y-33150000D01*
X28857612Y-33111732D01*
X28879289Y-33079289D01*
X28911732Y-33057612D01*
X28950000Y-33050000D01*
X29650000Y-33050000D01*
X29688268Y-33057612D01*
G37*
G36*
X31588268Y-33057612D02*
G01*
X31620711Y-33079289D01*
X31642388Y-33111732D01*
X31650000Y-33150000D01*
X31650000Y-33850000D01*
X31642388Y-33888268D01*
X31620711Y-33920711D01*
X31588268Y-33942388D01*
X31550000Y-33950000D01*
X30850000Y-33950000D01*
X30811732Y-33942388D01*
X30779289Y-33920711D01*
X30757612Y-33888268D01*
X30750000Y-33850000D01*
X30750000Y-33150000D01*
X30757612Y-33111732D01*
X30779289Y-33079289D01*
X30811732Y-33057612D01*
X30850000Y-33050000D01*
X31550000Y-33050000D01*
X31588268Y-33057612D01*
G37*
G36*
X33188268Y-33057612D02*
G01*
X33220711Y-33079289D01*
X33242388Y-33111732D01*
X33250000Y-33150000D01*
X33250000Y-33850000D01*
X33242388Y-33888268D01*
X33220711Y-33920711D01*
X33188268Y-33942388D01*
X33150000Y-33950000D01*
X32450000Y-33950000D01*
X32411732Y-33942388D01*
X32379289Y-33920711D01*
X32357612Y-33888268D01*
X32350000Y-33850000D01*
X32350000Y-33150000D01*
X32357612Y-33111732D01*
X32379289Y-33079289D01*
X32411732Y-33057612D01*
X32450000Y-33050000D01*
X33150000Y-33050000D01*
X33188268Y-33057612D01*
G37*
G36*
X35088268Y-33057612D02*
G01*
X35120711Y-33079289D01*
X35142388Y-33111732D01*
X35150000Y-33150000D01*
X35150000Y-33850000D01*
X35142388Y-33888268D01*
X35120711Y-33920711D01*
X35088268Y-33942388D01*
X35050000Y-33950000D01*
X34350000Y-33950000D01*
X34311732Y-33942388D01*
X34279289Y-33920711D01*
X34257612Y-33888268D01*
X34250000Y-33850000D01*
X34250000Y-33150000D01*
X34257612Y-33111732D01*
X34279289Y-33079289D01*
X34311732Y-33057612D01*
X34350000Y-33050000D01*
X35050000Y-33050000D01*
X35088268Y-33057612D01*
G37*
G36*
X36688268Y-33057612D02*
G01*
X36720711Y-33079289D01*
X36742388Y-33111732D01*
X36750000Y-33150000D01*
X36750000Y-33850000D01*
X36742388Y-33888268D01*
X36720711Y-33920711D01*
X36688268Y-33942388D01*
X36650000Y-33950000D01*
X35950000Y-33950000D01*
X35911732Y-33942388D01*
X35879289Y-33920711D01*
X35857612Y-33888268D01*
X35850000Y-33850000D01*
X35850000Y-33150000D01*
X35857612Y-33111732D01*
X35879289Y-33079289D01*
X35911732Y-33057612D01*
X35950000Y-33050000D01*
X36650000Y-33050000D01*
X36688268Y-33057612D01*
G37*
G36*
X38588268Y-33057612D02*
G01*
X38620711Y-33079289D01*
X38642388Y-33111732D01*
X38650000Y-33150000D01*
X38650000Y-33850000D01*
X38642388Y-33888268D01*
X38620711Y-33920711D01*
X38588268Y-33942388D01*
X38550000Y-33950000D01*
X37850000Y-33950000D01*
X37811732Y-33942388D01*
X37779289Y-33920711D01*
X37757612Y-33888268D01*
X37750000Y-33850000D01*
X37750000Y-33150000D01*
X37757612Y-33111732D01*
X37779289Y-33079289D01*
X37811732Y-33057612D01*
X37850000Y-33050000D01*
X38550000Y-33050000D01*
X38588268Y-33057612D01*
G37*
G36*
X40188268Y-33057612D02*
G01*
X40220711Y-33079289D01*
X40242388Y-33111732D01*
X40250000Y-33150000D01*
X40250000Y-33850000D01*
X40242388Y-33888268D01*
X40220711Y-33920711D01*
X40188268Y-33942388D01*
X40150000Y-33950000D01*
X39450000Y-33950000D01*
X39411732Y-33942388D01*
X39379289Y-33920711D01*
X39357612Y-33888268D01*
X39350000Y-33850000D01*
X39350000Y-33150000D01*
X39357612Y-33111732D01*
X39379289Y-33079289D01*
X39411732Y-33057612D01*
X39450000Y-33050000D01*
X40150000Y-33050000D01*
X40188268Y-33057612D01*
G37*
G36*
X26279047Y-32225805D02*
G01*
X26330408Y-32231764D01*
X26347954Y-32239511D01*
X26370671Y-32244030D01*
X26394991Y-32260280D01*
X26415793Y-32269465D01*
X26430000Y-32283672D01*
X26451777Y-32298223D01*
X26466327Y-32319999D01*
X26480534Y-32334206D01*
X26489718Y-32355006D01*
X26505970Y-32379329D01*
X26510489Y-32402048D01*
X26518235Y-32419591D01*
X26524192Y-32470940D01*
X26525000Y-32475000D01*
X26525000Y-32875000D01*
X26524192Y-32879059D01*
X26518235Y-32930408D01*
X26510489Y-32947950D01*
X26505970Y-32970671D01*
X26489716Y-32994995D01*
X26480534Y-33015793D01*
X26466329Y-33029997D01*
X26451777Y-33051777D01*
X26429997Y-33066329D01*
X26415793Y-33080534D01*
X26394995Y-33089716D01*
X26370671Y-33105970D01*
X26347950Y-33110489D01*
X26330408Y-33118235D01*
X26279061Y-33124192D01*
X26275000Y-33125000D01*
X25725000Y-33125000D01*
X25720941Y-33124192D01*
X25669591Y-33118235D01*
X25652048Y-33110489D01*
X25629329Y-33105970D01*
X25605006Y-33089718D01*
X25584206Y-33080534D01*
X25569999Y-33066327D01*
X25548223Y-33051777D01*
X25533672Y-33030000D01*
X25519465Y-33015793D01*
X25510280Y-32994991D01*
X25494030Y-32970671D01*
X25489511Y-32947954D01*
X25481764Y-32930408D01*
X25475805Y-32879049D01*
X25475000Y-32875000D01*
X25475000Y-32475000D01*
X25475804Y-32470953D01*
X25481764Y-32419591D01*
X25489511Y-32402043D01*
X25494030Y-32379329D01*
X25510278Y-32355010D01*
X25519465Y-32334206D01*
X25533674Y-32319996D01*
X25548223Y-32298223D01*
X25569996Y-32283674D01*
X25584206Y-32269465D01*
X25605010Y-32260278D01*
X25629329Y-32244030D01*
X25652043Y-32239511D01*
X25669591Y-32231764D01*
X25720952Y-32225805D01*
X25725000Y-32225000D01*
X26275000Y-32225000D01*
X26279047Y-32225805D01*
G37*
G36*
X27879047Y-31475805D02*
G01*
X27930408Y-31481764D01*
X27947954Y-31489511D01*
X27970671Y-31494030D01*
X27994991Y-31510280D01*
X28015793Y-31519465D01*
X28030000Y-31533672D01*
X28051777Y-31548223D01*
X28066327Y-31569999D01*
X28080534Y-31584206D01*
X28089718Y-31605006D01*
X28105970Y-31629329D01*
X28110489Y-31652048D01*
X28118235Y-31669591D01*
X28124192Y-31720940D01*
X28125000Y-31725000D01*
X28125000Y-32275000D01*
X28124192Y-32279059D01*
X28118235Y-32330408D01*
X28110489Y-32347950D01*
X28105970Y-32370671D01*
X28089716Y-32394995D01*
X28080534Y-32415793D01*
X28066329Y-32429997D01*
X28051777Y-32451777D01*
X28029997Y-32466329D01*
X28015793Y-32480534D01*
X27994995Y-32489716D01*
X27970671Y-32505970D01*
X27947950Y-32510489D01*
X27930408Y-32518235D01*
X27879061Y-32524192D01*
X27875000Y-32525000D01*
X27475000Y-32525000D01*
X27470941Y-32524192D01*
X27419591Y-32518235D01*
X27402048Y-32510489D01*
X27379329Y-32505970D01*
X27355006Y-32489718D01*
X27334206Y-32480534D01*
X27319999Y-32466327D01*
X27298223Y-32451777D01*
X27283672Y-32430000D01*
X27269465Y-32415793D01*
X27260280Y-32394991D01*
X27244030Y-32370671D01*
X27239511Y-32347954D01*
X27231764Y-32330408D01*
X27225805Y-32279049D01*
X27225000Y-32275000D01*
X27225000Y-31725000D01*
X27225804Y-31720953D01*
X27231764Y-31669591D01*
X27239511Y-31652043D01*
X27244030Y-31629329D01*
X27260278Y-31605010D01*
X27269465Y-31584206D01*
X27283674Y-31569996D01*
X27298223Y-31548223D01*
X27319996Y-31533674D01*
X27334206Y-31519465D01*
X27355010Y-31510278D01*
X27379329Y-31494030D01*
X27402043Y-31489511D01*
X27419591Y-31481764D01*
X27470952Y-31475805D01*
X27475000Y-31475000D01*
X27875000Y-31475000D01*
X27879047Y-31475805D01*
G37*
G36*
X29529047Y-31475805D02*
G01*
X29580408Y-31481764D01*
X29597954Y-31489511D01*
X29620671Y-31494030D01*
X29644991Y-31510280D01*
X29665793Y-31519465D01*
X29680000Y-31533672D01*
X29701777Y-31548223D01*
X29716327Y-31569999D01*
X29730534Y-31584206D01*
X29739718Y-31605006D01*
X29755970Y-31629329D01*
X29760489Y-31652048D01*
X29768235Y-31669591D01*
X29774192Y-31720940D01*
X29775000Y-31725000D01*
X29775000Y-32275000D01*
X29774192Y-32279059D01*
X29768235Y-32330408D01*
X29760489Y-32347950D01*
X29755970Y-32370671D01*
X29739716Y-32394995D01*
X29730534Y-32415793D01*
X29716329Y-32429997D01*
X29701777Y-32451777D01*
X29679997Y-32466329D01*
X29665793Y-32480534D01*
X29644995Y-32489716D01*
X29620671Y-32505970D01*
X29597950Y-32510489D01*
X29580408Y-32518235D01*
X29529061Y-32524192D01*
X29525000Y-32525000D01*
X29125000Y-32525000D01*
X29120941Y-32524192D01*
X29069591Y-32518235D01*
X29052048Y-32510489D01*
X29029329Y-32505970D01*
X29005006Y-32489718D01*
X28984206Y-32480534D01*
X28969999Y-32466327D01*
X28948223Y-32451777D01*
X28933672Y-32430000D01*
X28919465Y-32415793D01*
X28910280Y-32394991D01*
X28894030Y-32370671D01*
X28889511Y-32347954D01*
X28881764Y-32330408D01*
X28875805Y-32279049D01*
X28875000Y-32275000D01*
X28875000Y-31725000D01*
X28875804Y-31720953D01*
X28881764Y-31669591D01*
X28889511Y-31652043D01*
X28894030Y-31629329D01*
X28910278Y-31605010D01*
X28919465Y-31584206D01*
X28933674Y-31569996D01*
X28948223Y-31548223D01*
X28969996Y-31533674D01*
X28984206Y-31519465D01*
X29005010Y-31510278D01*
X29029329Y-31494030D01*
X29052043Y-31489511D01*
X29069591Y-31481764D01*
X29120952Y-31475805D01*
X29125000Y-31475000D01*
X29525000Y-31475000D01*
X29529047Y-31475805D01*
G37*
G36*
X31379047Y-31475805D02*
G01*
X31430408Y-31481764D01*
X31447954Y-31489511D01*
X31470671Y-31494030D01*
X31494991Y-31510280D01*
X31515793Y-31519465D01*
X31530000Y-31533672D01*
X31551777Y-31548223D01*
X31566327Y-31569999D01*
X31580534Y-31584206D01*
X31589718Y-31605006D01*
X31605970Y-31629329D01*
X31610489Y-31652048D01*
X31618235Y-31669591D01*
X31624192Y-31720940D01*
X31625000Y-31725000D01*
X31625000Y-32275000D01*
X31624192Y-32279059D01*
X31618235Y-32330408D01*
X31610489Y-32347950D01*
X31605970Y-32370671D01*
X31589716Y-32394995D01*
X31580534Y-32415793D01*
X31566329Y-32429997D01*
X31551777Y-32451777D01*
X31529997Y-32466329D01*
X31515793Y-32480534D01*
X31494995Y-32489716D01*
X31470671Y-32505970D01*
X31447950Y-32510489D01*
X31430408Y-32518235D01*
X31379061Y-32524192D01*
X31375000Y-32525000D01*
X30975000Y-32525000D01*
X30970941Y-32524192D01*
X30919591Y-32518235D01*
X30902048Y-32510489D01*
X30879329Y-32505970D01*
X30855006Y-32489718D01*
X30834206Y-32480534D01*
X30819999Y-32466327D01*
X30798223Y-32451777D01*
X30783672Y-32430000D01*
X30769465Y-32415793D01*
X30760280Y-32394991D01*
X30744030Y-32370671D01*
X30739511Y-32347954D01*
X30731764Y-32330408D01*
X30725805Y-32279049D01*
X30725000Y-32275000D01*
X30725000Y-31725000D01*
X30725804Y-31720953D01*
X30731764Y-31669591D01*
X30739511Y-31652043D01*
X30744030Y-31629329D01*
X30760278Y-31605010D01*
X30769465Y-31584206D01*
X30783674Y-31569996D01*
X30798223Y-31548223D01*
X30819996Y-31533674D01*
X30834206Y-31519465D01*
X30855010Y-31510278D01*
X30879329Y-31494030D01*
X30902043Y-31489511D01*
X30919591Y-31481764D01*
X30970952Y-31475805D01*
X30975000Y-31475000D01*
X31375000Y-31475000D01*
X31379047Y-31475805D01*
G37*
G36*
X33029047Y-31475805D02*
G01*
X33080408Y-31481764D01*
X33097954Y-31489511D01*
X33120671Y-31494030D01*
X33144991Y-31510280D01*
X33165793Y-31519465D01*
X33180000Y-31533672D01*
X33201777Y-31548223D01*
X33216327Y-31569999D01*
X33230534Y-31584206D01*
X33239718Y-31605006D01*
X33255970Y-31629329D01*
X33260489Y-31652048D01*
X33268235Y-31669591D01*
X33274192Y-31720940D01*
X33275000Y-31725000D01*
X33275000Y-32275000D01*
X33274192Y-32279059D01*
X33268235Y-32330408D01*
X33260489Y-32347950D01*
X33255970Y-32370671D01*
X33239716Y-32394995D01*
X33230534Y-32415793D01*
X33216329Y-32429997D01*
X33201777Y-32451777D01*
X33179997Y-32466329D01*
X33165793Y-32480534D01*
X33144995Y-32489716D01*
X33120671Y-32505970D01*
X33097950Y-32510489D01*
X33080408Y-32518235D01*
X33029061Y-32524192D01*
X33025000Y-32525000D01*
X32625000Y-32525000D01*
X32620941Y-32524192D01*
X32569591Y-32518235D01*
X32552048Y-32510489D01*
X32529329Y-32505970D01*
X32505006Y-32489718D01*
X32484206Y-32480534D01*
X32469999Y-32466327D01*
X32448223Y-32451777D01*
X32433672Y-32430000D01*
X32419465Y-32415793D01*
X32410280Y-32394991D01*
X32394030Y-32370671D01*
X32389511Y-32347954D01*
X32381764Y-32330408D01*
X32375805Y-32279049D01*
X32375000Y-32275000D01*
X32375000Y-31725000D01*
X32375804Y-31720953D01*
X32381764Y-31669591D01*
X32389511Y-31652043D01*
X32394030Y-31629329D01*
X32410278Y-31605010D01*
X32419465Y-31584206D01*
X32433674Y-31569996D01*
X32448223Y-31548223D01*
X32469996Y-31533674D01*
X32484206Y-31519465D01*
X32505010Y-31510278D01*
X32529329Y-31494030D01*
X32552043Y-31489511D01*
X32569591Y-31481764D01*
X32620952Y-31475805D01*
X32625000Y-31475000D01*
X33025000Y-31475000D01*
X33029047Y-31475805D01*
G37*
G36*
X34879047Y-31475805D02*
G01*
X34930408Y-31481764D01*
X34947954Y-31489511D01*
X34970671Y-31494030D01*
X34994991Y-31510280D01*
X35015793Y-31519465D01*
X35030000Y-31533672D01*
X35051777Y-31548223D01*
X35066327Y-31569999D01*
X35080534Y-31584206D01*
X35089718Y-31605006D01*
X35105970Y-31629329D01*
X35110489Y-31652048D01*
X35118235Y-31669591D01*
X35124192Y-31720940D01*
X35125000Y-31725000D01*
X35125000Y-32275000D01*
X35124192Y-32279059D01*
X35118235Y-32330408D01*
X35110489Y-32347950D01*
X35105970Y-32370671D01*
X35089716Y-32394995D01*
X35080534Y-32415793D01*
X35066329Y-32429997D01*
X35051777Y-32451777D01*
X35029997Y-32466329D01*
X35015793Y-32480534D01*
X34994995Y-32489716D01*
X34970671Y-32505970D01*
X34947950Y-32510489D01*
X34930408Y-32518235D01*
X34879061Y-32524192D01*
X34875000Y-32525000D01*
X34475000Y-32525000D01*
X34470941Y-32524192D01*
X34419591Y-32518235D01*
X34402048Y-32510489D01*
X34379329Y-32505970D01*
X34355006Y-32489718D01*
X34334206Y-32480534D01*
X34319999Y-32466327D01*
X34298223Y-32451777D01*
X34283672Y-32430000D01*
X34269465Y-32415793D01*
X34260280Y-32394991D01*
X34244030Y-32370671D01*
X34239511Y-32347954D01*
X34231764Y-32330408D01*
X34225805Y-32279049D01*
X34225000Y-32275000D01*
X34225000Y-31725000D01*
X34225804Y-31720953D01*
X34231764Y-31669591D01*
X34239511Y-31652043D01*
X34244030Y-31629329D01*
X34260278Y-31605010D01*
X34269465Y-31584206D01*
X34283674Y-31569996D01*
X34298223Y-31548223D01*
X34319996Y-31533674D01*
X34334206Y-31519465D01*
X34355010Y-31510278D01*
X34379329Y-31494030D01*
X34402043Y-31489511D01*
X34419591Y-31481764D01*
X34470952Y-31475805D01*
X34475000Y-31475000D01*
X34875000Y-31475000D01*
X34879047Y-31475805D01*
G37*
G36*
X36529047Y-31475805D02*
G01*
X36580408Y-31481764D01*
X36597954Y-31489511D01*
X36620671Y-31494030D01*
X36644991Y-31510280D01*
X36665793Y-31519465D01*
X36680000Y-31533672D01*
X36701777Y-31548223D01*
X36716327Y-31569999D01*
X36730534Y-31584206D01*
X36739718Y-31605006D01*
X36755970Y-31629329D01*
X36760489Y-31652048D01*
X36768235Y-31669591D01*
X36774192Y-31720940D01*
X36775000Y-31725000D01*
X36775000Y-32275000D01*
X36774192Y-32279059D01*
X36768235Y-32330408D01*
X36760489Y-32347950D01*
X36755970Y-32370671D01*
X36739716Y-32394995D01*
X36730534Y-32415793D01*
X36716329Y-32429997D01*
X36701777Y-32451777D01*
X36679997Y-32466329D01*
X36665793Y-32480534D01*
X36644995Y-32489716D01*
X36620671Y-32505970D01*
X36597950Y-32510489D01*
X36580408Y-32518235D01*
X36529061Y-32524192D01*
X36525000Y-32525000D01*
X36125000Y-32525000D01*
X36120941Y-32524192D01*
X36069591Y-32518235D01*
X36052048Y-32510489D01*
X36029329Y-32505970D01*
X36005006Y-32489718D01*
X35984206Y-32480534D01*
X35969999Y-32466327D01*
X35948223Y-32451777D01*
X35933672Y-32430000D01*
X35919465Y-32415793D01*
X35910280Y-32394991D01*
X35894030Y-32370671D01*
X35889511Y-32347954D01*
X35881764Y-32330408D01*
X35875805Y-32279049D01*
X35875000Y-32275000D01*
X35875000Y-31725000D01*
X35875804Y-31720953D01*
X35881764Y-31669591D01*
X35889511Y-31652043D01*
X35894030Y-31629329D01*
X35910278Y-31605010D01*
X35919465Y-31584206D01*
X35933674Y-31569996D01*
X35948223Y-31548223D01*
X35969996Y-31533674D01*
X35984206Y-31519465D01*
X36005010Y-31510278D01*
X36029329Y-31494030D01*
X36052043Y-31489511D01*
X36069591Y-31481764D01*
X36120952Y-31475805D01*
X36125000Y-31475000D01*
X36525000Y-31475000D01*
X36529047Y-31475805D01*
G37*
G36*
X38379047Y-31475805D02*
G01*
X38430408Y-31481764D01*
X38447954Y-31489511D01*
X38470671Y-31494030D01*
X38494991Y-31510280D01*
X38515793Y-31519465D01*
X38530000Y-31533672D01*
X38551777Y-31548223D01*
X38566327Y-31569999D01*
X38580534Y-31584206D01*
X38589718Y-31605006D01*
X38605970Y-31629329D01*
X38610489Y-31652048D01*
X38618235Y-31669591D01*
X38624192Y-31720940D01*
X38625000Y-31725000D01*
X38625000Y-32275000D01*
X38624192Y-32279059D01*
X38618235Y-32330408D01*
X38610489Y-32347950D01*
X38605970Y-32370671D01*
X38589716Y-32394995D01*
X38580534Y-32415793D01*
X38566329Y-32429997D01*
X38551777Y-32451777D01*
X38529997Y-32466329D01*
X38515793Y-32480534D01*
X38494995Y-32489716D01*
X38470671Y-32505970D01*
X38447950Y-32510489D01*
X38430408Y-32518235D01*
X38379061Y-32524192D01*
X38375000Y-32525000D01*
X37975000Y-32525000D01*
X37970941Y-32524192D01*
X37919591Y-32518235D01*
X37902048Y-32510489D01*
X37879329Y-32505970D01*
X37855006Y-32489718D01*
X37834206Y-32480534D01*
X37819999Y-32466327D01*
X37798223Y-32451777D01*
X37783672Y-32430000D01*
X37769465Y-32415793D01*
X37760280Y-32394991D01*
X37744030Y-32370671D01*
X37739511Y-32347954D01*
X37731764Y-32330408D01*
X37725805Y-32279049D01*
X37725000Y-32275000D01*
X37725000Y-31725000D01*
X37725804Y-31720953D01*
X37731764Y-31669591D01*
X37739511Y-31652043D01*
X37744030Y-31629329D01*
X37760278Y-31605010D01*
X37769465Y-31584206D01*
X37783674Y-31569996D01*
X37798223Y-31548223D01*
X37819996Y-31533674D01*
X37834206Y-31519465D01*
X37855010Y-31510278D01*
X37879329Y-31494030D01*
X37902043Y-31489511D01*
X37919591Y-31481764D01*
X37970952Y-31475805D01*
X37975000Y-31475000D01*
X38375000Y-31475000D01*
X38379047Y-31475805D01*
G37*
G36*
X40029047Y-31475805D02*
G01*
X40080408Y-31481764D01*
X40097954Y-31489511D01*
X40120671Y-31494030D01*
X40144991Y-31510280D01*
X40165793Y-31519465D01*
X40180000Y-31533672D01*
X40201777Y-31548223D01*
X40216327Y-31569999D01*
X40230534Y-31584206D01*
X40239718Y-31605006D01*
X40255970Y-31629329D01*
X40260489Y-31652048D01*
X40268235Y-31669591D01*
X40274192Y-31720940D01*
X40275000Y-31725000D01*
X40275000Y-32275000D01*
X40274192Y-32279059D01*
X40268235Y-32330408D01*
X40260489Y-32347950D01*
X40255970Y-32370671D01*
X40239716Y-32394995D01*
X40230534Y-32415793D01*
X40216329Y-32429997D01*
X40201777Y-32451777D01*
X40179997Y-32466329D01*
X40165793Y-32480534D01*
X40144995Y-32489716D01*
X40120671Y-32505970D01*
X40097950Y-32510489D01*
X40080408Y-32518235D01*
X40029061Y-32524192D01*
X40025000Y-32525000D01*
X39625000Y-32525000D01*
X39620941Y-32524192D01*
X39569591Y-32518235D01*
X39552048Y-32510489D01*
X39529329Y-32505970D01*
X39505006Y-32489718D01*
X39484206Y-32480534D01*
X39469999Y-32466327D01*
X39448223Y-32451777D01*
X39433672Y-32430000D01*
X39419465Y-32415793D01*
X39410280Y-32394991D01*
X39394030Y-32370671D01*
X39389511Y-32347954D01*
X39381764Y-32330408D01*
X39375805Y-32279049D01*
X39375000Y-32275000D01*
X39375000Y-31725000D01*
X39375804Y-31720953D01*
X39381764Y-31669591D01*
X39389511Y-31652043D01*
X39394030Y-31629329D01*
X39410278Y-31605010D01*
X39419465Y-31584206D01*
X39433674Y-31569996D01*
X39448223Y-31548223D01*
X39469996Y-31533674D01*
X39484206Y-31519465D01*
X39505010Y-31510278D01*
X39529329Y-31494030D01*
X39552043Y-31489511D01*
X39569591Y-31481764D01*
X39620952Y-31475805D01*
X39625000Y-31475000D01*
X40025000Y-31475000D01*
X40029047Y-31475805D01*
G37*
G36*
X13379047Y-30975805D02*
G01*
X13430408Y-30981764D01*
X13447954Y-30989511D01*
X13470671Y-30994030D01*
X13494991Y-31010280D01*
X13515793Y-31019465D01*
X13530000Y-31033672D01*
X13551777Y-31048223D01*
X13566327Y-31069999D01*
X13580534Y-31084206D01*
X13589718Y-31105006D01*
X13605970Y-31129329D01*
X13610489Y-31152048D01*
X13618235Y-31169591D01*
X13624192Y-31220940D01*
X13625000Y-31225000D01*
X13625000Y-31775000D01*
X13624192Y-31779059D01*
X13618235Y-31830408D01*
X13610489Y-31847950D01*
X13605970Y-31870671D01*
X13589716Y-31894995D01*
X13580534Y-31915793D01*
X13566329Y-31929997D01*
X13551777Y-31951777D01*
X13529997Y-31966329D01*
X13515793Y-31980534D01*
X13494995Y-31989716D01*
X13470671Y-32005970D01*
X13447950Y-32010489D01*
X13430408Y-32018235D01*
X13379061Y-32024192D01*
X13375000Y-32025000D01*
X12975000Y-32025000D01*
X12970941Y-32024192D01*
X12919591Y-32018235D01*
X12902048Y-32010489D01*
X12879329Y-32005970D01*
X12855006Y-31989718D01*
X12834206Y-31980534D01*
X12819999Y-31966327D01*
X12798223Y-31951777D01*
X12783672Y-31930000D01*
X12769465Y-31915793D01*
X12760280Y-31894991D01*
X12744030Y-31870671D01*
X12739511Y-31847954D01*
X12731764Y-31830408D01*
X12725805Y-31779049D01*
X12725000Y-31775000D01*
X12725000Y-31225000D01*
X12725804Y-31220953D01*
X12731764Y-31169591D01*
X12739511Y-31152043D01*
X12744030Y-31129329D01*
X12760278Y-31105010D01*
X12769465Y-31084206D01*
X12783674Y-31069996D01*
X12798223Y-31048223D01*
X12819996Y-31033674D01*
X12834206Y-31019465D01*
X12855010Y-31010278D01*
X12879329Y-30994030D01*
X12902043Y-30989511D01*
X12919591Y-30981764D01*
X12970952Y-30975805D01*
X12975000Y-30975000D01*
X13375000Y-30975000D01*
X13379047Y-30975805D01*
G37*
G36*
X15029047Y-30975805D02*
G01*
X15080408Y-30981764D01*
X15097954Y-30989511D01*
X15120671Y-30994030D01*
X15144991Y-31010280D01*
X15165793Y-31019465D01*
X15180000Y-31033672D01*
X15201777Y-31048223D01*
X15216327Y-31069999D01*
X15230534Y-31084206D01*
X15239718Y-31105006D01*
X15255970Y-31129329D01*
X15260489Y-31152048D01*
X15268235Y-31169591D01*
X15274192Y-31220940D01*
X15275000Y-31225000D01*
X15275000Y-31775000D01*
X15274192Y-31779059D01*
X15268235Y-31830408D01*
X15260489Y-31847950D01*
X15255970Y-31870671D01*
X15239716Y-31894995D01*
X15230534Y-31915793D01*
X15216329Y-31929997D01*
X15201777Y-31951777D01*
X15179997Y-31966329D01*
X15165793Y-31980534D01*
X15144995Y-31989716D01*
X15120671Y-32005970D01*
X15097950Y-32010489D01*
X15080408Y-32018235D01*
X15029061Y-32024192D01*
X15025000Y-32025000D01*
X14625000Y-32025000D01*
X14620941Y-32024192D01*
X14569591Y-32018235D01*
X14552048Y-32010489D01*
X14529329Y-32005970D01*
X14505006Y-31989718D01*
X14484206Y-31980534D01*
X14469999Y-31966327D01*
X14448223Y-31951777D01*
X14433672Y-31930000D01*
X14419465Y-31915793D01*
X14410280Y-31894991D01*
X14394030Y-31870671D01*
X14389511Y-31847954D01*
X14381764Y-31830408D01*
X14375805Y-31779049D01*
X14375000Y-31775000D01*
X14375000Y-31225000D01*
X14375804Y-31220953D01*
X14381764Y-31169591D01*
X14389511Y-31152043D01*
X14394030Y-31129329D01*
X14410278Y-31105010D01*
X14419465Y-31084206D01*
X14433674Y-31069996D01*
X14448223Y-31048223D01*
X14469996Y-31033674D01*
X14484206Y-31019465D01*
X14505010Y-31010278D01*
X14529329Y-30994030D01*
X14552043Y-30989511D01*
X14569591Y-30981764D01*
X14620952Y-30975805D01*
X14625000Y-30975000D01*
X15025000Y-30975000D01*
X15029047Y-30975805D01*
G37*
G36*
X17379047Y-30975805D02*
G01*
X17430408Y-30981764D01*
X17447954Y-30989511D01*
X17470671Y-30994030D01*
X17494991Y-31010280D01*
X17515793Y-31019465D01*
X17530000Y-31033672D01*
X17551777Y-31048223D01*
X17566327Y-31069999D01*
X17580534Y-31084206D01*
X17589718Y-31105006D01*
X17605970Y-31129329D01*
X17610489Y-31152048D01*
X17618235Y-31169591D01*
X17624192Y-31220940D01*
X17625000Y-31225000D01*
X17625000Y-31775000D01*
X17624192Y-31779059D01*
X17618235Y-31830408D01*
X17610489Y-31847950D01*
X17605970Y-31870671D01*
X17589716Y-31894995D01*
X17580534Y-31915793D01*
X17566329Y-31929997D01*
X17551777Y-31951777D01*
X17529997Y-31966329D01*
X17515793Y-31980534D01*
X17494995Y-31989716D01*
X17470671Y-32005970D01*
X17447950Y-32010489D01*
X17430408Y-32018235D01*
X17379061Y-32024192D01*
X17375000Y-32025000D01*
X16975000Y-32025000D01*
X16970941Y-32024192D01*
X16919591Y-32018235D01*
X16902048Y-32010489D01*
X16879329Y-32005970D01*
X16855006Y-31989718D01*
X16834206Y-31980534D01*
X16819999Y-31966327D01*
X16798223Y-31951777D01*
X16783672Y-31930000D01*
X16769465Y-31915793D01*
X16760280Y-31894991D01*
X16744030Y-31870671D01*
X16739511Y-31847954D01*
X16731764Y-31830408D01*
X16725805Y-31779049D01*
X16725000Y-31775000D01*
X16725000Y-31225000D01*
X16725804Y-31220953D01*
X16731764Y-31169591D01*
X16739511Y-31152043D01*
X16744030Y-31129329D01*
X16760278Y-31105010D01*
X16769465Y-31084206D01*
X16783674Y-31069996D01*
X16798223Y-31048223D01*
X16819996Y-31033674D01*
X16834206Y-31019465D01*
X16855010Y-31010278D01*
X16879329Y-30994030D01*
X16902043Y-30989511D01*
X16919591Y-30981764D01*
X16970952Y-30975805D01*
X16975000Y-30975000D01*
X17375000Y-30975000D01*
X17379047Y-30975805D01*
G37*
G36*
X19029047Y-30975805D02*
G01*
X19080408Y-30981764D01*
X19097954Y-30989511D01*
X19120671Y-30994030D01*
X19144991Y-31010280D01*
X19165793Y-31019465D01*
X19180000Y-31033672D01*
X19201777Y-31048223D01*
X19216327Y-31069999D01*
X19230534Y-31084206D01*
X19239718Y-31105006D01*
X19255970Y-31129329D01*
X19260489Y-31152048D01*
X19268235Y-31169591D01*
X19274192Y-31220940D01*
X19275000Y-31225000D01*
X19275000Y-31775000D01*
X19274192Y-31779059D01*
X19268235Y-31830408D01*
X19260489Y-31847950D01*
X19255970Y-31870671D01*
X19239716Y-31894995D01*
X19230534Y-31915793D01*
X19216329Y-31929997D01*
X19201777Y-31951777D01*
X19179997Y-31966329D01*
X19165793Y-31980534D01*
X19144995Y-31989716D01*
X19120671Y-32005970D01*
X19097950Y-32010489D01*
X19080408Y-32018235D01*
X19029061Y-32024192D01*
X19025000Y-32025000D01*
X18625000Y-32025000D01*
X18620941Y-32024192D01*
X18569591Y-32018235D01*
X18552048Y-32010489D01*
X18529329Y-32005970D01*
X18505006Y-31989718D01*
X18484206Y-31980534D01*
X18469999Y-31966327D01*
X18448223Y-31951777D01*
X18433672Y-31930000D01*
X18419465Y-31915793D01*
X18410280Y-31894991D01*
X18394030Y-31870671D01*
X18389511Y-31847954D01*
X18381764Y-31830408D01*
X18375805Y-31779049D01*
X18375000Y-31775000D01*
X18375000Y-31225000D01*
X18375804Y-31220953D01*
X18381764Y-31169591D01*
X18389511Y-31152043D01*
X18394030Y-31129329D01*
X18410278Y-31105010D01*
X18419465Y-31084206D01*
X18433674Y-31069996D01*
X18448223Y-31048223D01*
X18469996Y-31033674D01*
X18484206Y-31019465D01*
X18505010Y-31010278D01*
X18529329Y-30994030D01*
X18552043Y-30989511D01*
X18569591Y-30981764D01*
X18620952Y-30975805D01*
X18625000Y-30975000D01*
X19025000Y-30975000D01*
X19029047Y-30975805D01*
G37*
G36*
X5114805Y-29722836D02*
G01*
X5182628Y-29761994D01*
X5238006Y-29817372D01*
X5277164Y-29885195D01*
X5297433Y-29960842D01*
X5297433Y-30039158D01*
X5277164Y-30114805D01*
X5238006Y-30182628D01*
X5182628Y-30238006D01*
X5114805Y-30277164D01*
X5039158Y-30297433D01*
X4960842Y-30297433D01*
X4885195Y-30277164D01*
X4817372Y-30238006D01*
X4761994Y-30182628D01*
X4722836Y-30114805D01*
X4702567Y-30039158D01*
X4702567Y-29960842D01*
X4722836Y-29885195D01*
X4761994Y-29817372D01*
X4817372Y-29761994D01*
X4885195Y-29722836D01*
X4960842Y-29702567D01*
X5039158Y-29702567D01*
X5114805Y-29722836D01*
G37*
G36*
X7114805Y-29722836D02*
G01*
X7182628Y-29761994D01*
X7238006Y-29817372D01*
X7277164Y-29885195D01*
X7297433Y-29960842D01*
X7297433Y-30039158D01*
X7277164Y-30114805D01*
X7238006Y-30182628D01*
X7182628Y-30238006D01*
X7114805Y-30277164D01*
X7039158Y-30297433D01*
X6960842Y-30297433D01*
X6885195Y-30277164D01*
X6817372Y-30238006D01*
X6761994Y-30182628D01*
X6722836Y-30114805D01*
X6702567Y-30039158D01*
X6702567Y-29960842D01*
X6722836Y-29885195D01*
X6761994Y-29817372D01*
X6817372Y-29761994D01*
X6885195Y-29722836D01*
X6960842Y-29702567D01*
X7039158Y-29702567D01*
X7114805Y-29722836D01*
G37*
G36*
X57114805Y-29722836D02*
G01*
X57182628Y-29761994D01*
X57238006Y-29817372D01*
X57277164Y-29885195D01*
X57297433Y-29960842D01*
X57297433Y-30039158D01*
X57277164Y-30114805D01*
X57238006Y-30182628D01*
X57182628Y-30238006D01*
X57114805Y-30277164D01*
X57039158Y-30297433D01*
X56960842Y-30297433D01*
X56885195Y-30277164D01*
X56817372Y-30238006D01*
X56761994Y-30182628D01*
X56722836Y-30114805D01*
X56702567Y-30039158D01*
X56702567Y-29960842D01*
X56722836Y-29885195D01*
X56761994Y-29817372D01*
X56817372Y-29761994D01*
X56885195Y-29722836D01*
X56960842Y-29702567D01*
X57039158Y-29702567D01*
X57114805Y-29722836D01*
G37*
G36*
X59114805Y-29722836D02*
G01*
X59182628Y-29761994D01*
X59238006Y-29817372D01*
X59277164Y-29885195D01*
X59297433Y-29960842D01*
X59297433Y-30039158D01*
X59277164Y-30114805D01*
X59238006Y-30182628D01*
X59182628Y-30238006D01*
X59114805Y-30277164D01*
X59039158Y-30297433D01*
X58960842Y-30297433D01*
X58885195Y-30277164D01*
X58817372Y-30238006D01*
X58761994Y-30182628D01*
X58722836Y-30114805D01*
X58702567Y-30039158D01*
X58702567Y-29960842D01*
X58722836Y-29885195D01*
X58761994Y-29817372D01*
X58817372Y-29761994D01*
X58885195Y-29722836D01*
X58960842Y-29702567D01*
X59039158Y-29702567D01*
X59114805Y-29722836D01*
G37*
G36*
X5114805Y-28972836D02*
G01*
X5182628Y-29011994D01*
X5238006Y-29067372D01*
X5277164Y-29135195D01*
X5297433Y-29210842D01*
X5297433Y-29289158D01*
X5277164Y-29364805D01*
X5238006Y-29432628D01*
X5182628Y-29488006D01*
X5114805Y-29527164D01*
X5039158Y-29547433D01*
X4960842Y-29547433D01*
X4885195Y-29527164D01*
X4817372Y-29488006D01*
X4761994Y-29432628D01*
X4722836Y-29364805D01*
X4702567Y-29289158D01*
X4702567Y-29210842D01*
X4722836Y-29135195D01*
X4761994Y-29067372D01*
X4817372Y-29011994D01*
X4885195Y-28972836D01*
X4960842Y-28952567D01*
X5039158Y-28952567D01*
X5114805Y-28972836D01*
G37*
G36*
X7114805Y-28972836D02*
G01*
X7182628Y-29011994D01*
X7238006Y-29067372D01*
X7277164Y-29135195D01*
X7297433Y-29210842D01*
X7297433Y-29289158D01*
X7277164Y-29364805D01*
X7238006Y-29432628D01*
X7182628Y-29488006D01*
X7114805Y-29527164D01*
X7039158Y-29547433D01*
X6960842Y-29547433D01*
X6885195Y-29527164D01*
X6817372Y-29488006D01*
X6761994Y-29432628D01*
X6722836Y-29364805D01*
X6702567Y-29289158D01*
X6702567Y-29210842D01*
X6722836Y-29135195D01*
X6761994Y-29067372D01*
X6817372Y-29011994D01*
X6885195Y-28972836D01*
X6960842Y-28952567D01*
X7039158Y-28952567D01*
X7114805Y-28972836D01*
G37*
G36*
X57114805Y-28972836D02*
G01*
X57182628Y-29011994D01*
X57238006Y-29067372D01*
X57277164Y-29135195D01*
X57297433Y-29210842D01*
X57297433Y-29289158D01*
X57277164Y-29364805D01*
X57238006Y-29432628D01*
X57182628Y-29488006D01*
X57114805Y-29527164D01*
X57039158Y-29547433D01*
X56960842Y-29547433D01*
X56885195Y-29527164D01*
X56817372Y-29488006D01*
X56761994Y-29432628D01*
X56722836Y-29364805D01*
X56702567Y-29289158D01*
X56702567Y-29210842D01*
X56722836Y-29135195D01*
X56761994Y-29067372D01*
X56817372Y-29011994D01*
X56885195Y-28972836D01*
X56960842Y-28952567D01*
X57039158Y-28952567D01*
X57114805Y-28972836D01*
G37*
G36*
X59114805Y-28972836D02*
G01*
X59182628Y-29011994D01*
X59238006Y-29067372D01*
X59277164Y-29135195D01*
X59297433Y-29210842D01*
X59297433Y-29289158D01*
X59277164Y-29364805D01*
X59238006Y-29432628D01*
X59182628Y-29488006D01*
X59114805Y-29527164D01*
X59039158Y-29547433D01*
X58960842Y-29547433D01*
X58885195Y-29527164D01*
X58817372Y-29488006D01*
X58761994Y-29432628D01*
X58722836Y-29364805D01*
X58702567Y-29289158D01*
X58702567Y-29210842D01*
X58722836Y-29135195D01*
X58761994Y-29067372D01*
X58817372Y-29011994D01*
X58885195Y-28972836D01*
X58960842Y-28952567D01*
X59039158Y-28952567D01*
X59114805Y-28972836D01*
G37*
G36*
X31379047Y-28475805D02*
G01*
X31430408Y-28481764D01*
X31447954Y-28489511D01*
X31470671Y-28494030D01*
X31494991Y-28510280D01*
X31515793Y-28519465D01*
X31530000Y-28533672D01*
X31551777Y-28548223D01*
X31566327Y-28569999D01*
X31580534Y-28584206D01*
X31589718Y-28605006D01*
X31605970Y-28629329D01*
X31610489Y-28652048D01*
X31618235Y-28669591D01*
X31624192Y-28720940D01*
X31625000Y-28725000D01*
X31625000Y-29275000D01*
X31624192Y-29279059D01*
X31618235Y-29330408D01*
X31610489Y-29347950D01*
X31605970Y-29370671D01*
X31589716Y-29394995D01*
X31580534Y-29415793D01*
X31566329Y-29429997D01*
X31551777Y-29451777D01*
X31529997Y-29466329D01*
X31515793Y-29480534D01*
X31494995Y-29489716D01*
X31470671Y-29505970D01*
X31447950Y-29510489D01*
X31430408Y-29518235D01*
X31379061Y-29524192D01*
X31375000Y-29525000D01*
X30975000Y-29525000D01*
X30970941Y-29524192D01*
X30919591Y-29518235D01*
X30902048Y-29510489D01*
X30879329Y-29505970D01*
X30855006Y-29489718D01*
X30834206Y-29480534D01*
X30819999Y-29466327D01*
X30798223Y-29451777D01*
X30783672Y-29430000D01*
X30769465Y-29415793D01*
X30760280Y-29394991D01*
X30744030Y-29370671D01*
X30739511Y-29347954D01*
X30731764Y-29330408D01*
X30725805Y-29279049D01*
X30725000Y-29275000D01*
X30725000Y-28725000D01*
X30725804Y-28720953D01*
X30731764Y-28669591D01*
X30739511Y-28652043D01*
X30744030Y-28629329D01*
X30760278Y-28605010D01*
X30769465Y-28584206D01*
X30783674Y-28569996D01*
X30798223Y-28548223D01*
X30819996Y-28533674D01*
X30834206Y-28519465D01*
X30855010Y-28510278D01*
X30879329Y-28494030D01*
X30902043Y-28489511D01*
X30919591Y-28481764D01*
X30970952Y-28475805D01*
X30975000Y-28475000D01*
X31375000Y-28475000D01*
X31379047Y-28475805D01*
G37*
G36*
X33029047Y-28475805D02*
G01*
X33080408Y-28481764D01*
X33097954Y-28489511D01*
X33120671Y-28494030D01*
X33144991Y-28510280D01*
X33165793Y-28519465D01*
X33180000Y-28533672D01*
X33201777Y-28548223D01*
X33216327Y-28569999D01*
X33230534Y-28584206D01*
X33239718Y-28605006D01*
X33255970Y-28629329D01*
X33260489Y-28652048D01*
X33268235Y-28669591D01*
X33274192Y-28720940D01*
X33275000Y-28725000D01*
X33275000Y-29275000D01*
X33274192Y-29279059D01*
X33268235Y-29330408D01*
X33260489Y-29347950D01*
X33255970Y-29370671D01*
X33239716Y-29394995D01*
X33230534Y-29415793D01*
X33216329Y-29429997D01*
X33201777Y-29451777D01*
X33179997Y-29466329D01*
X33165793Y-29480534D01*
X33144995Y-29489716D01*
X33120671Y-29505970D01*
X33097950Y-29510489D01*
X33080408Y-29518235D01*
X33029061Y-29524192D01*
X33025000Y-29525000D01*
X32625000Y-29525000D01*
X32620941Y-29524192D01*
X32569591Y-29518235D01*
X32552048Y-29510489D01*
X32529329Y-29505970D01*
X32505006Y-29489718D01*
X32484206Y-29480534D01*
X32469999Y-29466327D01*
X32448223Y-29451777D01*
X32433672Y-29430000D01*
X32419465Y-29415793D01*
X32410280Y-29394991D01*
X32394030Y-29370671D01*
X32389511Y-29347954D01*
X32381764Y-29330408D01*
X32375805Y-29279049D01*
X32375000Y-29275000D01*
X32375000Y-28725000D01*
X32375804Y-28720953D01*
X32381764Y-28669591D01*
X32389511Y-28652043D01*
X32394030Y-28629329D01*
X32410278Y-28605010D01*
X32419465Y-28584206D01*
X32433674Y-28569996D01*
X32448223Y-28548223D01*
X32469996Y-28533674D01*
X32484206Y-28519465D01*
X32505010Y-28510278D01*
X32529329Y-28494030D01*
X32552043Y-28489511D01*
X32569591Y-28481764D01*
X32620952Y-28475805D01*
X32625000Y-28475000D01*
X33025000Y-28475000D01*
X33029047Y-28475805D01*
G37*
G36*
X34879047Y-28475805D02*
G01*
X34930408Y-28481764D01*
X34947954Y-28489511D01*
X34970671Y-28494030D01*
X34994991Y-28510280D01*
X35015793Y-28519465D01*
X35030000Y-28533672D01*
X35051777Y-28548223D01*
X35066327Y-28569999D01*
X35080534Y-28584206D01*
X35089718Y-28605006D01*
X35105970Y-28629329D01*
X35110489Y-28652048D01*
X35118235Y-28669591D01*
X35124192Y-28720940D01*
X35125000Y-28725000D01*
X35125000Y-29275000D01*
X35124192Y-29279059D01*
X35118235Y-29330408D01*
X35110489Y-29347950D01*
X35105970Y-29370671D01*
X35089716Y-29394995D01*
X35080534Y-29415793D01*
X35066329Y-29429997D01*
X35051777Y-29451777D01*
X35029997Y-29466329D01*
X35015793Y-29480534D01*
X34994995Y-29489716D01*
X34970671Y-29505970D01*
X34947950Y-29510489D01*
X34930408Y-29518235D01*
X34879061Y-29524192D01*
X34875000Y-29525000D01*
X34475000Y-29525000D01*
X34470941Y-29524192D01*
X34419591Y-29518235D01*
X34402048Y-29510489D01*
X34379329Y-29505970D01*
X34355006Y-29489718D01*
X34334206Y-29480534D01*
X34319999Y-29466327D01*
X34298223Y-29451777D01*
X34283672Y-29430000D01*
X34269465Y-29415793D01*
X34260280Y-29394991D01*
X34244030Y-29370671D01*
X34239511Y-29347954D01*
X34231764Y-29330408D01*
X34225805Y-29279049D01*
X34225000Y-29275000D01*
X34225000Y-28725000D01*
X34225804Y-28720953D01*
X34231764Y-28669591D01*
X34239511Y-28652043D01*
X34244030Y-28629329D01*
X34260278Y-28605010D01*
X34269465Y-28584206D01*
X34283674Y-28569996D01*
X34298223Y-28548223D01*
X34319996Y-28533674D01*
X34334206Y-28519465D01*
X34355010Y-28510278D01*
X34379329Y-28494030D01*
X34402043Y-28489511D01*
X34419591Y-28481764D01*
X34470952Y-28475805D01*
X34475000Y-28475000D01*
X34875000Y-28475000D01*
X34879047Y-28475805D01*
G37*
G36*
X36529047Y-28475805D02*
G01*
X36580408Y-28481764D01*
X36597954Y-28489511D01*
X36620671Y-28494030D01*
X36644991Y-28510280D01*
X36665793Y-28519465D01*
X36680000Y-28533672D01*
X36701777Y-28548223D01*
X36716327Y-28569999D01*
X36730534Y-28584206D01*
X36739718Y-28605006D01*
X36755970Y-28629329D01*
X36760489Y-28652048D01*
X36768235Y-28669591D01*
X36774192Y-28720940D01*
X36775000Y-28725000D01*
X36775000Y-29275000D01*
X36774192Y-29279059D01*
X36768235Y-29330408D01*
X36760489Y-29347950D01*
X36755970Y-29370671D01*
X36739716Y-29394995D01*
X36730534Y-29415793D01*
X36716329Y-29429997D01*
X36701777Y-29451777D01*
X36679997Y-29466329D01*
X36665793Y-29480534D01*
X36644995Y-29489716D01*
X36620671Y-29505970D01*
X36597950Y-29510489D01*
X36580408Y-29518235D01*
X36529061Y-29524192D01*
X36525000Y-29525000D01*
X36125000Y-29525000D01*
X36120941Y-29524192D01*
X36069591Y-29518235D01*
X36052048Y-29510489D01*
X36029329Y-29505970D01*
X36005006Y-29489718D01*
X35984206Y-29480534D01*
X35969999Y-29466327D01*
X35948223Y-29451777D01*
X35933672Y-29430000D01*
X35919465Y-29415793D01*
X35910280Y-29394991D01*
X35894030Y-29370671D01*
X35889511Y-29347954D01*
X35881764Y-29330408D01*
X35875805Y-29279049D01*
X35875000Y-29275000D01*
X35875000Y-28725000D01*
X35875804Y-28720953D01*
X35881764Y-28669591D01*
X35889511Y-28652043D01*
X35894030Y-28629329D01*
X35910278Y-28605010D01*
X35919465Y-28584206D01*
X35933674Y-28569996D01*
X35948223Y-28548223D01*
X35969996Y-28533674D01*
X35984206Y-28519465D01*
X36005010Y-28510278D01*
X36029329Y-28494030D01*
X36052043Y-28489511D01*
X36069591Y-28481764D01*
X36120952Y-28475805D01*
X36125000Y-28475000D01*
X36525000Y-28475000D01*
X36529047Y-28475805D01*
G37*
G36*
X38379047Y-28475805D02*
G01*
X38430408Y-28481764D01*
X38447954Y-28489511D01*
X38470671Y-28494030D01*
X38494991Y-28510280D01*
X38515793Y-28519465D01*
X38530000Y-28533672D01*
X38551777Y-28548223D01*
X38566327Y-28569999D01*
X38580534Y-28584206D01*
X38589718Y-28605006D01*
X38605970Y-28629329D01*
X38610489Y-28652048D01*
X38618235Y-28669591D01*
X38624192Y-28720940D01*
X38625000Y-28725000D01*
X38625000Y-29275000D01*
X38624192Y-29279059D01*
X38618235Y-29330408D01*
X38610489Y-29347950D01*
X38605970Y-29370671D01*
X38589716Y-29394995D01*
X38580534Y-29415793D01*
X38566329Y-29429997D01*
X38551777Y-29451777D01*
X38529997Y-29466329D01*
X38515793Y-29480534D01*
X38494995Y-29489716D01*
X38470671Y-29505970D01*
X38447950Y-29510489D01*
X38430408Y-29518235D01*
X38379061Y-29524192D01*
X38375000Y-29525000D01*
X37975000Y-29525000D01*
X37970941Y-29524192D01*
X37919591Y-29518235D01*
X37902048Y-29510489D01*
X37879329Y-29505970D01*
X37855006Y-29489718D01*
X37834206Y-29480534D01*
X37819999Y-29466327D01*
X37798223Y-29451777D01*
X37783672Y-29430000D01*
X37769465Y-29415793D01*
X37760280Y-29394991D01*
X37744030Y-29370671D01*
X37739511Y-29347954D01*
X37731764Y-29330408D01*
X37725805Y-29279049D01*
X37725000Y-29275000D01*
X37725000Y-28725000D01*
X37725804Y-28720953D01*
X37731764Y-28669591D01*
X37739511Y-28652043D01*
X37744030Y-28629329D01*
X37760278Y-28605010D01*
X37769465Y-28584206D01*
X37783674Y-28569996D01*
X37798223Y-28548223D01*
X37819996Y-28533674D01*
X37834206Y-28519465D01*
X37855010Y-28510278D01*
X37879329Y-28494030D01*
X37902043Y-28489511D01*
X37919591Y-28481764D01*
X37970952Y-28475805D01*
X37975000Y-28475000D01*
X38375000Y-28475000D01*
X38379047Y-28475805D01*
G37*
G36*
X40029047Y-28475805D02*
G01*
X40080408Y-28481764D01*
X40097954Y-28489511D01*
X40120671Y-28494030D01*
X40144991Y-28510280D01*
X40165793Y-28519465D01*
X40180000Y-28533672D01*
X40201777Y-28548223D01*
X40216327Y-28569999D01*
X40230534Y-28584206D01*
X40239718Y-28605006D01*
X40255970Y-28629329D01*
X40260489Y-28652048D01*
X40268235Y-28669591D01*
X40274192Y-28720940D01*
X40275000Y-28725000D01*
X40275000Y-29275000D01*
X40274192Y-29279059D01*
X40268235Y-29330408D01*
X40260489Y-29347950D01*
X40255970Y-29370671D01*
X40239716Y-29394995D01*
X40230534Y-29415793D01*
X40216329Y-29429997D01*
X40201777Y-29451777D01*
X40179997Y-29466329D01*
X40165793Y-29480534D01*
X40144995Y-29489716D01*
X40120671Y-29505970D01*
X40097950Y-29510489D01*
X40080408Y-29518235D01*
X40029061Y-29524192D01*
X40025000Y-29525000D01*
X39625000Y-29525000D01*
X39620941Y-29524192D01*
X39569591Y-29518235D01*
X39552048Y-29510489D01*
X39529329Y-29505970D01*
X39505006Y-29489718D01*
X39484206Y-29480534D01*
X39469999Y-29466327D01*
X39448223Y-29451777D01*
X39433672Y-29430000D01*
X39419465Y-29415793D01*
X39410280Y-29394991D01*
X39394030Y-29370671D01*
X39389511Y-29347954D01*
X39381764Y-29330408D01*
X39375805Y-29279049D01*
X39375000Y-29275000D01*
X39375000Y-28725000D01*
X39375804Y-28720953D01*
X39381764Y-28669591D01*
X39389511Y-28652043D01*
X39394030Y-28629329D01*
X39410278Y-28605010D01*
X39419465Y-28584206D01*
X39433674Y-28569996D01*
X39448223Y-28548223D01*
X39469996Y-28533674D01*
X39484206Y-28519465D01*
X39505010Y-28510278D01*
X39529329Y-28494030D01*
X39552043Y-28489511D01*
X39569591Y-28481764D01*
X39620952Y-28475805D01*
X39625000Y-28475000D01*
X40025000Y-28475000D01*
X40029047Y-28475805D01*
G37*
G36*
X13379047Y-27975805D02*
G01*
X13430408Y-27981764D01*
X13447954Y-27989511D01*
X13470671Y-27994030D01*
X13494991Y-28010280D01*
X13515793Y-28019465D01*
X13530000Y-28033672D01*
X13551777Y-28048223D01*
X13566327Y-28069999D01*
X13580534Y-28084206D01*
X13589718Y-28105006D01*
X13605970Y-28129329D01*
X13610489Y-28152048D01*
X13618235Y-28169591D01*
X13624192Y-28220940D01*
X13625000Y-28225000D01*
X13625000Y-28775000D01*
X13624192Y-28779059D01*
X13618235Y-28830408D01*
X13610489Y-28847950D01*
X13605970Y-28870671D01*
X13589716Y-28894995D01*
X13580534Y-28915793D01*
X13566329Y-28929997D01*
X13551777Y-28951777D01*
X13529997Y-28966329D01*
X13515793Y-28980534D01*
X13494995Y-28989716D01*
X13470671Y-29005970D01*
X13447950Y-29010489D01*
X13430408Y-29018235D01*
X13379061Y-29024192D01*
X13375000Y-29025000D01*
X12975000Y-29025000D01*
X12970941Y-29024192D01*
X12919591Y-29018235D01*
X12902048Y-29010489D01*
X12879329Y-29005970D01*
X12855006Y-28989718D01*
X12834206Y-28980534D01*
X12819999Y-28966327D01*
X12798223Y-28951777D01*
X12783672Y-28930000D01*
X12769465Y-28915793D01*
X12760280Y-28894991D01*
X12744030Y-28870671D01*
X12739511Y-28847954D01*
X12731764Y-28830408D01*
X12725805Y-28779049D01*
X12725000Y-28775000D01*
X12725000Y-28225000D01*
X12725804Y-28220953D01*
X12731764Y-28169591D01*
X12739511Y-28152043D01*
X12744030Y-28129329D01*
X12760278Y-28105010D01*
X12769465Y-28084206D01*
X12783674Y-28069996D01*
X12798223Y-28048223D01*
X12819996Y-28033674D01*
X12834206Y-28019465D01*
X12855010Y-28010278D01*
X12879329Y-27994030D01*
X12902043Y-27989511D01*
X12919591Y-27981764D01*
X12970952Y-27975805D01*
X12975000Y-27975000D01*
X13375000Y-27975000D01*
X13379047Y-27975805D01*
G37*
G36*
X15029047Y-27975805D02*
G01*
X15080408Y-27981764D01*
X15097954Y-27989511D01*
X15120671Y-27994030D01*
X15144991Y-28010280D01*
X15165793Y-28019465D01*
X15180000Y-28033672D01*
X15201777Y-28048223D01*
X15216327Y-28069999D01*
X15230534Y-28084206D01*
X15239718Y-28105006D01*
X15255970Y-28129329D01*
X15260489Y-28152048D01*
X15268235Y-28169591D01*
X15274192Y-28220940D01*
X15275000Y-28225000D01*
X15275000Y-28775000D01*
X15274192Y-28779059D01*
X15268235Y-28830408D01*
X15260489Y-28847950D01*
X15255970Y-28870671D01*
X15239716Y-28894995D01*
X15230534Y-28915793D01*
X15216329Y-28929997D01*
X15201777Y-28951777D01*
X15179997Y-28966329D01*
X15165793Y-28980534D01*
X15144995Y-28989716D01*
X15120671Y-29005970D01*
X15097950Y-29010489D01*
X15080408Y-29018235D01*
X15029061Y-29024192D01*
X15025000Y-29025000D01*
X14625000Y-29025000D01*
X14620941Y-29024192D01*
X14569591Y-29018235D01*
X14552048Y-29010489D01*
X14529329Y-29005970D01*
X14505006Y-28989718D01*
X14484206Y-28980534D01*
X14469999Y-28966327D01*
X14448223Y-28951777D01*
X14433672Y-28930000D01*
X14419465Y-28915793D01*
X14410280Y-28894991D01*
X14394030Y-28870671D01*
X14389511Y-28847954D01*
X14381764Y-28830408D01*
X14375805Y-28779049D01*
X14375000Y-28775000D01*
X14375000Y-28225000D01*
X14375804Y-28220953D01*
X14381764Y-28169591D01*
X14389511Y-28152043D01*
X14394030Y-28129329D01*
X14410278Y-28105010D01*
X14419465Y-28084206D01*
X14433674Y-28069996D01*
X14448223Y-28048223D01*
X14469996Y-28033674D01*
X14484206Y-28019465D01*
X14505010Y-28010278D01*
X14529329Y-27994030D01*
X14552043Y-27989511D01*
X14569591Y-27981764D01*
X14620952Y-27975805D01*
X14625000Y-27975000D01*
X15025000Y-27975000D01*
X15029047Y-27975805D01*
G37*
G36*
X17379047Y-27975805D02*
G01*
X17430408Y-27981764D01*
X17447954Y-27989511D01*
X17470671Y-27994030D01*
X17494991Y-28010280D01*
X17515793Y-28019465D01*
X17530000Y-28033672D01*
X17551777Y-28048223D01*
X17566327Y-28069999D01*
X17580534Y-28084206D01*
X17589718Y-28105006D01*
X17605970Y-28129329D01*
X17610489Y-28152048D01*
X17618235Y-28169591D01*
X17624192Y-28220940D01*
X17625000Y-28225000D01*
X17625000Y-28775000D01*
X17624192Y-28779059D01*
X17618235Y-28830408D01*
X17610489Y-28847950D01*
X17605970Y-28870671D01*
X17589716Y-28894995D01*
X17580534Y-28915793D01*
X17566329Y-28929997D01*
X17551777Y-28951777D01*
X17529997Y-28966329D01*
X17515793Y-28980534D01*
X17494995Y-28989716D01*
X17470671Y-29005970D01*
X17447950Y-29010489D01*
X17430408Y-29018235D01*
X17379061Y-29024192D01*
X17375000Y-29025000D01*
X16975000Y-29025000D01*
X16970941Y-29024192D01*
X16919591Y-29018235D01*
X16902048Y-29010489D01*
X16879329Y-29005970D01*
X16855006Y-28989718D01*
X16834206Y-28980534D01*
X16819999Y-28966327D01*
X16798223Y-28951777D01*
X16783672Y-28930000D01*
X16769465Y-28915793D01*
X16760280Y-28894991D01*
X16744030Y-28870671D01*
X16739511Y-28847954D01*
X16731764Y-28830408D01*
X16725805Y-28779049D01*
X16725000Y-28775000D01*
X16725000Y-28225000D01*
X16725804Y-28220953D01*
X16731764Y-28169591D01*
X16739511Y-28152043D01*
X16744030Y-28129329D01*
X16760278Y-28105010D01*
X16769465Y-28084206D01*
X16783674Y-28069996D01*
X16798223Y-28048223D01*
X16819996Y-28033674D01*
X16834206Y-28019465D01*
X16855010Y-28010278D01*
X16879329Y-27994030D01*
X16902043Y-27989511D01*
X16919591Y-27981764D01*
X16970952Y-27975805D01*
X16975000Y-27975000D01*
X17375000Y-27975000D01*
X17379047Y-27975805D01*
G37*
G36*
X19029047Y-27975805D02*
G01*
X19080408Y-27981764D01*
X19097954Y-27989511D01*
X19120671Y-27994030D01*
X19144991Y-28010280D01*
X19165793Y-28019465D01*
X19180000Y-28033672D01*
X19201777Y-28048223D01*
X19216327Y-28069999D01*
X19230534Y-28084206D01*
X19239718Y-28105006D01*
X19255970Y-28129329D01*
X19260489Y-28152048D01*
X19268235Y-28169591D01*
X19274192Y-28220940D01*
X19275000Y-28225000D01*
X19275000Y-28775000D01*
X19274192Y-28779059D01*
X19268235Y-28830408D01*
X19260489Y-28847950D01*
X19255970Y-28870671D01*
X19239716Y-28894995D01*
X19230534Y-28915793D01*
X19216329Y-28929997D01*
X19201777Y-28951777D01*
X19179997Y-28966329D01*
X19165793Y-28980534D01*
X19144995Y-28989716D01*
X19120671Y-29005970D01*
X19097950Y-29010489D01*
X19080408Y-29018235D01*
X19029061Y-29024192D01*
X19025000Y-29025000D01*
X18625000Y-29025000D01*
X18620941Y-29024192D01*
X18569591Y-29018235D01*
X18552048Y-29010489D01*
X18529329Y-29005970D01*
X18505006Y-28989718D01*
X18484206Y-28980534D01*
X18469999Y-28966327D01*
X18448223Y-28951777D01*
X18433672Y-28930000D01*
X18419465Y-28915793D01*
X18410280Y-28894991D01*
X18394030Y-28870671D01*
X18389511Y-28847954D01*
X18381764Y-28830408D01*
X18375805Y-28779049D01*
X18375000Y-28775000D01*
X18375000Y-28225000D01*
X18375804Y-28220953D01*
X18381764Y-28169591D01*
X18389511Y-28152043D01*
X18394030Y-28129329D01*
X18410278Y-28105010D01*
X18419465Y-28084206D01*
X18433674Y-28069996D01*
X18448223Y-28048223D01*
X18469996Y-28033674D01*
X18484206Y-28019465D01*
X18505010Y-28010278D01*
X18529329Y-27994030D01*
X18552043Y-27989511D01*
X18569591Y-27981764D01*
X18620952Y-27975805D01*
X18625000Y-27975000D01*
X19025000Y-27975000D01*
X19029047Y-27975805D01*
G37*
G36*
X5114805Y-28222836D02*
G01*
X5182628Y-28261994D01*
X5238006Y-28317372D01*
X5277164Y-28385195D01*
X5297433Y-28460842D01*
X5297433Y-28539158D01*
X5277164Y-28614805D01*
X5238006Y-28682628D01*
X5182628Y-28738006D01*
X5114805Y-28777164D01*
X5039158Y-28797433D01*
X4960842Y-28797433D01*
X4885195Y-28777164D01*
X4817372Y-28738006D01*
X4761994Y-28682628D01*
X4722836Y-28614805D01*
X4702567Y-28539158D01*
X4702567Y-28460842D01*
X4722836Y-28385195D01*
X4761994Y-28317372D01*
X4817372Y-28261994D01*
X4885195Y-28222836D01*
X4960842Y-28202567D01*
X5039158Y-28202567D01*
X5114805Y-28222836D01*
G37*
G36*
X7114805Y-28222836D02*
G01*
X7182628Y-28261994D01*
X7238006Y-28317372D01*
X7277164Y-28385195D01*
X7297433Y-28460842D01*
X7297433Y-28539158D01*
X7277164Y-28614805D01*
X7238006Y-28682628D01*
X7182628Y-28738006D01*
X7114805Y-28777164D01*
X7039158Y-28797433D01*
X6960842Y-28797433D01*
X6885195Y-28777164D01*
X6817372Y-28738006D01*
X6761994Y-28682628D01*
X6722836Y-28614805D01*
X6702567Y-28539158D01*
X6702567Y-28460842D01*
X6722836Y-28385195D01*
X6761994Y-28317372D01*
X6817372Y-28261994D01*
X6885195Y-28222836D01*
X6960842Y-28202567D01*
X7039158Y-28202567D01*
X7114805Y-28222836D01*
G37*
G36*
X57114805Y-28222836D02*
G01*
X57182628Y-28261994D01*
X57238006Y-28317372D01*
X57277164Y-28385195D01*
X57297433Y-28460842D01*
X57297433Y-28539158D01*
X57277164Y-28614805D01*
X57238006Y-28682628D01*
X57182628Y-28738006D01*
X57114805Y-28777164D01*
X57039158Y-28797433D01*
X56960842Y-28797433D01*
X56885195Y-28777164D01*
X56817372Y-28738006D01*
X56761994Y-28682628D01*
X56722836Y-28614805D01*
X56702567Y-28539158D01*
X56702567Y-28460842D01*
X56722836Y-28385195D01*
X56761994Y-28317372D01*
X56817372Y-28261994D01*
X56885195Y-28222836D01*
X56960842Y-28202567D01*
X57039158Y-28202567D01*
X57114805Y-28222836D01*
G37*
G36*
X59114805Y-28222836D02*
G01*
X59182628Y-28261994D01*
X59238006Y-28317372D01*
X59277164Y-28385195D01*
X59297433Y-28460842D01*
X59297433Y-28539158D01*
X59277164Y-28614805D01*
X59238006Y-28682628D01*
X59182628Y-28738006D01*
X59114805Y-28777164D01*
X59039158Y-28797433D01*
X58960842Y-28797433D01*
X58885195Y-28777164D01*
X58817372Y-28738006D01*
X58761994Y-28682628D01*
X58722836Y-28614805D01*
X58702567Y-28539158D01*
X58702567Y-28460842D01*
X58722836Y-28385195D01*
X58761994Y-28317372D01*
X58817372Y-28261994D01*
X58885195Y-28222836D01*
X58960842Y-28202567D01*
X59039158Y-28202567D01*
X59114805Y-28222836D01*
G37*
G36*
X5114805Y-27472836D02*
G01*
X5182628Y-27511994D01*
X5238006Y-27567372D01*
X5277164Y-27635195D01*
X5297433Y-27710842D01*
X5297433Y-27789158D01*
X5277164Y-27864805D01*
X5238006Y-27932628D01*
X5182628Y-27988006D01*
X5114805Y-28027164D01*
X5039158Y-28047433D01*
X4960842Y-28047433D01*
X4885195Y-28027164D01*
X4817372Y-27988006D01*
X4761994Y-27932628D01*
X4722836Y-27864805D01*
X4702567Y-27789158D01*
X4702567Y-27710842D01*
X4722836Y-27635195D01*
X4761994Y-27567372D01*
X4817372Y-27511994D01*
X4885195Y-27472836D01*
X4960842Y-27452567D01*
X5039158Y-27452567D01*
X5114805Y-27472836D01*
G37*
G36*
X7114805Y-27472836D02*
G01*
X7182628Y-27511994D01*
X7238006Y-27567372D01*
X7277164Y-27635195D01*
X7297433Y-27710842D01*
X7297433Y-27789158D01*
X7277164Y-27864805D01*
X7238006Y-27932628D01*
X7182628Y-27988006D01*
X7114805Y-28027164D01*
X7039158Y-28047433D01*
X6960842Y-28047433D01*
X6885195Y-28027164D01*
X6817372Y-27988006D01*
X6761994Y-27932628D01*
X6722836Y-27864805D01*
X6702567Y-27789158D01*
X6702567Y-27710842D01*
X6722836Y-27635195D01*
X6761994Y-27567372D01*
X6817372Y-27511994D01*
X6885195Y-27472836D01*
X6960842Y-27452567D01*
X7039158Y-27452567D01*
X7114805Y-27472836D01*
G37*
G36*
X57114805Y-27472836D02*
G01*
X57182628Y-27511994D01*
X57238006Y-27567372D01*
X57277164Y-27635195D01*
X57297433Y-27710842D01*
X57297433Y-27789158D01*
X57277164Y-27864805D01*
X57238006Y-27932628D01*
X57182628Y-27988006D01*
X57114805Y-28027164D01*
X57039158Y-28047433D01*
X56960842Y-28047433D01*
X56885195Y-28027164D01*
X56817372Y-27988006D01*
X56761994Y-27932628D01*
X56722836Y-27864805D01*
X56702567Y-27789158D01*
X56702567Y-27710842D01*
X56722836Y-27635195D01*
X56761994Y-27567372D01*
X56817372Y-27511994D01*
X56885195Y-27472836D01*
X56960842Y-27452567D01*
X57039158Y-27452567D01*
X57114805Y-27472836D01*
G37*
G36*
X59114805Y-27472836D02*
G01*
X59182628Y-27511994D01*
X59238006Y-27567372D01*
X59277164Y-27635195D01*
X59297433Y-27710842D01*
X59297433Y-27789158D01*
X59277164Y-27864805D01*
X59238006Y-27932628D01*
X59182628Y-27988006D01*
X59114805Y-28027164D01*
X59039158Y-28047433D01*
X58960842Y-28047433D01*
X58885195Y-28027164D01*
X58817372Y-27988006D01*
X58761994Y-27932628D01*
X58722836Y-27864805D01*
X58702567Y-27789158D01*
X58702567Y-27710842D01*
X58722836Y-27635195D01*
X58761994Y-27567372D01*
X58817372Y-27511994D01*
X58885195Y-27472836D01*
X58960842Y-27452567D01*
X59039158Y-27452567D01*
X59114805Y-27472836D01*
G37*
G36*
X43212380Y-24178191D02*
G01*
X43447074Y-24241077D01*
X43671551Y-24334059D01*
X43881972Y-24455545D01*
X44074735Y-24603458D01*
X44246542Y-24775265D01*
X44394455Y-24968028D01*
X44515941Y-25178449D01*
X44608923Y-25402926D01*
X44671809Y-25637620D01*
X44703523Y-25878514D01*
X44703523Y-26121486D01*
X44671809Y-26362380D01*
X44608923Y-26597074D01*
X44515941Y-26821551D01*
X44394455Y-27031972D01*
X44246542Y-27224735D01*
X44074735Y-27396542D01*
X43881972Y-27544455D01*
X43671551Y-27665941D01*
X43447074Y-27758923D01*
X43212380Y-27821809D01*
X42971486Y-27853523D01*
X42728514Y-27853523D01*
X42487620Y-27821809D01*
X42252926Y-27758923D01*
X42028449Y-27665941D01*
X41818028Y-27544455D01*
X41625265Y-27396542D01*
X41453458Y-27224735D01*
X41305545Y-27031972D01*
X41184059Y-26821551D01*
X41091077Y-26597074D01*
X41028191Y-26362380D01*
X40996477Y-26121486D01*
X40996477Y-25878514D01*
X41028191Y-25637620D01*
X41091077Y-25402926D01*
X41184059Y-25178449D01*
X41305545Y-24968028D01*
X41453458Y-24775265D01*
X41625265Y-24603458D01*
X41818028Y-24455545D01*
X42028449Y-24334059D01*
X42252926Y-24241077D01*
X42487620Y-24178191D01*
X42728514Y-24146477D01*
X42971486Y-24146477D01*
X43212380Y-24178191D01*
G37*
G36*
X53512380Y-24178191D02*
G01*
X53747074Y-24241077D01*
X53971551Y-24334059D01*
X54181972Y-24455545D01*
X54374735Y-24603458D01*
X54546542Y-24775265D01*
X54694455Y-24968028D01*
X54815941Y-25178449D01*
X54908923Y-25402926D01*
X54971809Y-25637620D01*
X55003523Y-25878514D01*
X55003523Y-26121486D01*
X54971809Y-26362380D01*
X54908923Y-26597074D01*
X54815941Y-26821551D01*
X54694455Y-27031972D01*
X54546542Y-27224735D01*
X54374735Y-27396542D01*
X54181972Y-27544455D01*
X53971551Y-27665941D01*
X53747074Y-27758923D01*
X53512380Y-27821809D01*
X53271486Y-27853523D01*
X53028514Y-27853523D01*
X52787620Y-27821809D01*
X52552926Y-27758923D01*
X52328449Y-27665941D01*
X52118028Y-27544455D01*
X51925265Y-27396542D01*
X51753458Y-27224735D01*
X51605545Y-27031972D01*
X51484059Y-26821551D01*
X51391077Y-26597074D01*
X51328191Y-26362380D01*
X51296477Y-26121486D01*
X51296477Y-25878514D01*
X51328191Y-25637620D01*
X51391077Y-25402926D01*
X51484059Y-25178449D01*
X51605545Y-24968028D01*
X51753458Y-24775265D01*
X51925265Y-24603458D01*
X52118028Y-24455545D01*
X52328449Y-24334059D01*
X52552926Y-24241077D01*
X52787620Y-24178191D01*
X53028514Y-24146477D01*
X53271486Y-24146477D01*
X53512380Y-24178191D01*
G37*
G36*
X5114805Y-26722836D02*
G01*
X5182628Y-26761994D01*
X5238006Y-26817372D01*
X5277164Y-26885195D01*
X5297433Y-26960842D01*
X5297433Y-27039158D01*
X5277164Y-27114805D01*
X5238006Y-27182628D01*
X5182628Y-27238006D01*
X5114805Y-27277164D01*
X5039158Y-27297433D01*
X4960842Y-27297433D01*
X4885195Y-27277164D01*
X4817372Y-27238006D01*
X4761994Y-27182628D01*
X4722836Y-27114805D01*
X4702567Y-27039158D01*
X4702567Y-26960842D01*
X4722836Y-26885195D01*
X4761994Y-26817372D01*
X4817372Y-26761994D01*
X4885195Y-26722836D01*
X4960842Y-26702567D01*
X5039158Y-26702567D01*
X5114805Y-26722836D01*
G37*
G36*
X7114805Y-26722836D02*
G01*
X7182628Y-26761994D01*
X7238006Y-26817372D01*
X7277164Y-26885195D01*
X7297433Y-26960842D01*
X7297433Y-27039158D01*
X7277164Y-27114805D01*
X7238006Y-27182628D01*
X7182628Y-27238006D01*
X7114805Y-27277164D01*
X7039158Y-27297433D01*
X6960842Y-27297433D01*
X6885195Y-27277164D01*
X6817372Y-27238006D01*
X6761994Y-27182628D01*
X6722836Y-27114805D01*
X6702567Y-27039158D01*
X6702567Y-26960842D01*
X6722836Y-26885195D01*
X6761994Y-26817372D01*
X6817372Y-26761994D01*
X6885195Y-26722836D01*
X6960842Y-26702567D01*
X7039158Y-26702567D01*
X7114805Y-26722836D01*
G37*
G36*
X57114805Y-26722836D02*
G01*
X57182628Y-26761994D01*
X57238006Y-26817372D01*
X57277164Y-26885195D01*
X57297433Y-26960842D01*
X57297433Y-27039158D01*
X57277164Y-27114805D01*
X57238006Y-27182628D01*
X57182628Y-27238006D01*
X57114805Y-27277164D01*
X57039158Y-27297433D01*
X56960842Y-27297433D01*
X56885195Y-27277164D01*
X56817372Y-27238006D01*
X56761994Y-27182628D01*
X56722836Y-27114805D01*
X56702567Y-27039158D01*
X56702567Y-26960842D01*
X56722836Y-26885195D01*
X56761994Y-26817372D01*
X56817372Y-26761994D01*
X56885195Y-26722836D01*
X56960842Y-26702567D01*
X57039158Y-26702567D01*
X57114805Y-26722836D01*
G37*
G36*
X59114805Y-26722836D02*
G01*
X59182628Y-26761994D01*
X59238006Y-26817372D01*
X59277164Y-26885195D01*
X59297433Y-26960842D01*
X59297433Y-27039158D01*
X59277164Y-27114805D01*
X59238006Y-27182628D01*
X59182628Y-27238006D01*
X59114805Y-27277164D01*
X59039158Y-27297433D01*
X58960842Y-27297433D01*
X58885195Y-27277164D01*
X58817372Y-27238006D01*
X58761994Y-27182628D01*
X58722836Y-27114805D01*
X58702567Y-27039158D01*
X58702567Y-26960842D01*
X58722836Y-26885195D01*
X58761994Y-26817372D01*
X58817372Y-26761994D01*
X58885195Y-26722836D01*
X58960842Y-26702567D01*
X59039158Y-26702567D01*
X59114805Y-26722836D01*
G37*
G36*
X46779047Y-26375805D02*
G01*
X46830408Y-26381764D01*
X46847954Y-26389511D01*
X46870671Y-26394030D01*
X46894991Y-26410280D01*
X46915793Y-26419465D01*
X46930000Y-26433672D01*
X46951777Y-26448223D01*
X46966327Y-26469999D01*
X46980534Y-26484206D01*
X46989718Y-26505006D01*
X47005970Y-26529329D01*
X47010489Y-26552048D01*
X47018235Y-26569591D01*
X47024192Y-26620940D01*
X47025000Y-26625000D01*
X47025000Y-27025000D01*
X47024192Y-27029059D01*
X47018235Y-27080408D01*
X47010489Y-27097950D01*
X47005970Y-27120671D01*
X46989716Y-27144995D01*
X46980534Y-27165793D01*
X46966329Y-27179997D01*
X46951777Y-27201777D01*
X46929997Y-27216329D01*
X46915793Y-27230534D01*
X46894995Y-27239716D01*
X46870671Y-27255970D01*
X46847950Y-27260489D01*
X46830408Y-27268235D01*
X46779061Y-27274192D01*
X46775000Y-27275000D01*
X46225000Y-27275000D01*
X46220941Y-27274192D01*
X46169591Y-27268235D01*
X46152048Y-27260489D01*
X46129329Y-27255970D01*
X46105006Y-27239718D01*
X46084206Y-27230534D01*
X46069999Y-27216327D01*
X46048223Y-27201777D01*
X46033672Y-27180000D01*
X46019465Y-27165793D01*
X46010280Y-27144991D01*
X45994030Y-27120671D01*
X45989511Y-27097954D01*
X45981764Y-27080408D01*
X45975805Y-27029049D01*
X45975000Y-27025000D01*
X45975000Y-26625000D01*
X45975804Y-26620953D01*
X45981764Y-26569591D01*
X45989511Y-26552043D01*
X45994030Y-26529329D01*
X46010278Y-26505010D01*
X46019465Y-26484206D01*
X46033674Y-26469996D01*
X46048223Y-26448223D01*
X46069996Y-26433674D01*
X46084206Y-26419465D01*
X46105010Y-26410278D01*
X46129329Y-26394030D01*
X46152043Y-26389511D01*
X46169591Y-26381764D01*
X46220952Y-26375805D01*
X46225000Y-26375000D01*
X46775000Y-26375000D01*
X46779047Y-26375805D01*
G37*
G36*
X48279047Y-26375805D02*
G01*
X48330408Y-26381764D01*
X48347954Y-26389511D01*
X48370671Y-26394030D01*
X48394991Y-26410280D01*
X48415793Y-26419465D01*
X48430000Y-26433672D01*
X48451777Y-26448223D01*
X48466327Y-26469999D01*
X48480534Y-26484206D01*
X48489718Y-26505006D01*
X48505970Y-26529329D01*
X48510489Y-26552048D01*
X48518235Y-26569591D01*
X48524192Y-26620940D01*
X48525000Y-26625000D01*
X48525000Y-27025000D01*
X48524192Y-27029059D01*
X48518235Y-27080408D01*
X48510489Y-27097950D01*
X48505970Y-27120671D01*
X48489716Y-27144995D01*
X48480534Y-27165793D01*
X48466329Y-27179997D01*
X48451777Y-27201777D01*
X48429997Y-27216329D01*
X48415793Y-27230534D01*
X48394995Y-27239716D01*
X48370671Y-27255970D01*
X48347950Y-27260489D01*
X48330408Y-27268235D01*
X48279061Y-27274192D01*
X48275000Y-27275000D01*
X47725000Y-27275000D01*
X47720941Y-27274192D01*
X47669591Y-27268235D01*
X47652048Y-27260489D01*
X47629329Y-27255970D01*
X47605006Y-27239718D01*
X47584206Y-27230534D01*
X47569999Y-27216327D01*
X47548223Y-27201777D01*
X47533672Y-27180000D01*
X47519465Y-27165793D01*
X47510280Y-27144991D01*
X47494030Y-27120671D01*
X47489511Y-27097954D01*
X47481764Y-27080408D01*
X47475805Y-27029049D01*
X47475000Y-27025000D01*
X47475000Y-26625000D01*
X47475804Y-26620953D01*
X47481764Y-26569591D01*
X47489511Y-26552043D01*
X47494030Y-26529329D01*
X47510278Y-26505010D01*
X47519465Y-26484206D01*
X47533674Y-26469996D01*
X47548223Y-26448223D01*
X47569996Y-26433674D01*
X47584206Y-26419465D01*
X47605010Y-26410278D01*
X47629329Y-26394030D01*
X47652043Y-26389511D01*
X47669591Y-26381764D01*
X47720952Y-26375805D01*
X47725000Y-26375000D01*
X48275000Y-26375000D01*
X48279047Y-26375805D01*
G37*
G36*
X49779047Y-26375805D02*
G01*
X49830408Y-26381764D01*
X49847954Y-26389511D01*
X49870671Y-26394030D01*
X49894991Y-26410280D01*
X49915793Y-26419465D01*
X49930000Y-26433672D01*
X49951777Y-26448223D01*
X49966327Y-26469999D01*
X49980534Y-26484206D01*
X49989718Y-26505006D01*
X50005970Y-26529329D01*
X50010489Y-26552048D01*
X50018235Y-26569591D01*
X50024192Y-26620940D01*
X50025000Y-26625000D01*
X50025000Y-27025000D01*
X50024192Y-27029059D01*
X50018235Y-27080408D01*
X50010489Y-27097950D01*
X50005970Y-27120671D01*
X49989716Y-27144995D01*
X49980534Y-27165793D01*
X49966329Y-27179997D01*
X49951777Y-27201777D01*
X49929997Y-27216329D01*
X49915793Y-27230534D01*
X49894995Y-27239716D01*
X49870671Y-27255970D01*
X49847950Y-27260489D01*
X49830408Y-27268235D01*
X49779061Y-27274192D01*
X49775000Y-27275000D01*
X49225000Y-27275000D01*
X49220941Y-27274192D01*
X49169591Y-27268235D01*
X49152048Y-27260489D01*
X49129329Y-27255970D01*
X49105006Y-27239718D01*
X49084206Y-27230534D01*
X49069999Y-27216327D01*
X49048223Y-27201777D01*
X49033672Y-27180000D01*
X49019465Y-27165793D01*
X49010280Y-27144991D01*
X48994030Y-27120671D01*
X48989511Y-27097954D01*
X48981764Y-27080408D01*
X48975805Y-27029049D01*
X48975000Y-27025000D01*
X48975000Y-26625000D01*
X48975804Y-26620953D01*
X48981764Y-26569591D01*
X48989511Y-26552043D01*
X48994030Y-26529329D01*
X49010278Y-26505010D01*
X49019465Y-26484206D01*
X49033674Y-26469996D01*
X49048223Y-26448223D01*
X49069996Y-26433674D01*
X49084206Y-26419465D01*
X49105010Y-26410278D01*
X49129329Y-26394030D01*
X49152043Y-26389511D01*
X49169591Y-26381764D01*
X49220952Y-26375805D01*
X49225000Y-26375000D01*
X49775000Y-26375000D01*
X49779047Y-26375805D01*
G37*
G36*
X5114805Y-25972836D02*
G01*
X5182628Y-26011994D01*
X5238006Y-26067372D01*
X5277164Y-26135195D01*
X5297433Y-26210842D01*
X5297433Y-26289158D01*
X5277164Y-26364805D01*
X5238006Y-26432628D01*
X5182628Y-26488006D01*
X5114805Y-26527164D01*
X5039158Y-26547433D01*
X4960842Y-26547433D01*
X4885195Y-26527164D01*
X4817372Y-26488006D01*
X4761994Y-26432628D01*
X4722836Y-26364805D01*
X4702567Y-26289158D01*
X4702567Y-26210842D01*
X4722836Y-26135195D01*
X4761994Y-26067372D01*
X4817372Y-26011994D01*
X4885195Y-25972836D01*
X4960842Y-25952567D01*
X5039158Y-25952567D01*
X5114805Y-25972836D01*
G37*
G36*
X7114805Y-25972836D02*
G01*
X7182628Y-26011994D01*
X7238006Y-26067372D01*
X7277164Y-26135195D01*
X7297433Y-26210842D01*
X7297433Y-26289158D01*
X7277164Y-26364805D01*
X7238006Y-26432628D01*
X7182628Y-26488006D01*
X7114805Y-26527164D01*
X7039158Y-26547433D01*
X6960842Y-26547433D01*
X6885195Y-26527164D01*
X6817372Y-26488006D01*
X6761994Y-26432628D01*
X6722836Y-26364805D01*
X6702567Y-26289158D01*
X6702567Y-26210842D01*
X6722836Y-26135195D01*
X6761994Y-26067372D01*
X6817372Y-26011994D01*
X6885195Y-25972836D01*
X6960842Y-25952567D01*
X7039158Y-25952567D01*
X7114805Y-25972836D01*
G37*
G36*
X57114805Y-25972836D02*
G01*
X57182628Y-26011994D01*
X57238006Y-26067372D01*
X57277164Y-26135195D01*
X57297433Y-26210842D01*
X57297433Y-26289158D01*
X57277164Y-26364805D01*
X57238006Y-26432628D01*
X57182628Y-26488006D01*
X57114805Y-26527164D01*
X57039158Y-26547433D01*
X56960842Y-26547433D01*
X56885195Y-26527164D01*
X56817372Y-26488006D01*
X56761994Y-26432628D01*
X56722836Y-26364805D01*
X56702567Y-26289158D01*
X56702567Y-26210842D01*
X56722836Y-26135195D01*
X56761994Y-26067372D01*
X56817372Y-26011994D01*
X56885195Y-25972836D01*
X56960842Y-25952567D01*
X57039158Y-25952567D01*
X57114805Y-25972836D01*
G37*
G36*
X59114805Y-25972836D02*
G01*
X59182628Y-26011994D01*
X59238006Y-26067372D01*
X59277164Y-26135195D01*
X59297433Y-26210842D01*
X59297433Y-26289158D01*
X59277164Y-26364805D01*
X59238006Y-26432628D01*
X59182628Y-26488006D01*
X59114805Y-26527164D01*
X59039158Y-26547433D01*
X58960842Y-26547433D01*
X58885195Y-26527164D01*
X58817372Y-26488006D01*
X58761994Y-26432628D01*
X58722836Y-26364805D01*
X58702567Y-26289158D01*
X58702567Y-26210842D01*
X58722836Y-26135195D01*
X58761994Y-26067372D01*
X58817372Y-26011994D01*
X58885195Y-25972836D01*
X58960842Y-25952567D01*
X59039158Y-25952567D01*
X59114805Y-25972836D01*
G37*
G36*
X13379047Y-24975805D02*
G01*
X13430408Y-24981764D01*
X13447954Y-24989511D01*
X13470671Y-24994030D01*
X13494991Y-25010280D01*
X13515793Y-25019465D01*
X13530000Y-25033672D01*
X13551777Y-25048223D01*
X13566327Y-25069999D01*
X13580534Y-25084206D01*
X13589718Y-25105006D01*
X13605970Y-25129329D01*
X13610489Y-25152048D01*
X13618235Y-25169591D01*
X13624192Y-25220940D01*
X13625000Y-25225000D01*
X13625000Y-25775000D01*
X13624192Y-25779059D01*
X13618235Y-25830408D01*
X13610489Y-25847950D01*
X13605970Y-25870671D01*
X13589716Y-25894995D01*
X13580534Y-25915793D01*
X13566329Y-25929997D01*
X13551777Y-25951777D01*
X13529997Y-25966329D01*
X13515793Y-25980534D01*
X13494995Y-25989716D01*
X13470671Y-26005970D01*
X13447950Y-26010489D01*
X13430408Y-26018235D01*
X13379061Y-26024192D01*
X13375000Y-26025000D01*
X12975000Y-26025000D01*
X12970941Y-26024192D01*
X12919591Y-26018235D01*
X12902048Y-26010489D01*
X12879329Y-26005970D01*
X12855006Y-25989718D01*
X12834206Y-25980534D01*
X12819999Y-25966327D01*
X12798223Y-25951777D01*
X12783672Y-25930000D01*
X12769465Y-25915793D01*
X12760280Y-25894991D01*
X12744030Y-25870671D01*
X12739511Y-25847954D01*
X12731764Y-25830408D01*
X12725805Y-25779049D01*
X12725000Y-25775000D01*
X12725000Y-25225000D01*
X12725804Y-25220953D01*
X12731764Y-25169591D01*
X12739511Y-25152043D01*
X12744030Y-25129329D01*
X12760278Y-25105010D01*
X12769465Y-25084206D01*
X12783674Y-25069996D01*
X12798223Y-25048223D01*
X12819996Y-25033674D01*
X12834206Y-25019465D01*
X12855010Y-25010278D01*
X12879329Y-24994030D01*
X12902043Y-24989511D01*
X12919591Y-24981764D01*
X12970952Y-24975805D01*
X12975000Y-24975000D01*
X13375000Y-24975000D01*
X13379047Y-24975805D01*
G37*
G36*
X15029047Y-24975805D02*
G01*
X15080408Y-24981764D01*
X15097954Y-24989511D01*
X15120671Y-24994030D01*
X15144991Y-25010280D01*
X15165793Y-25019465D01*
X15180000Y-25033672D01*
X15201777Y-25048223D01*
X15216327Y-25069999D01*
X15230534Y-25084206D01*
X15239718Y-25105006D01*
X15255970Y-25129329D01*
X15260489Y-25152048D01*
X15268235Y-25169591D01*
X15274192Y-25220940D01*
X15275000Y-25225000D01*
X15275000Y-25775000D01*
X15274192Y-25779059D01*
X15268235Y-25830408D01*
X15260489Y-25847950D01*
X15255970Y-25870671D01*
X15239716Y-25894995D01*
X15230534Y-25915793D01*
X15216329Y-25929997D01*
X15201777Y-25951777D01*
X15179997Y-25966329D01*
X15165793Y-25980534D01*
X15144995Y-25989716D01*
X15120671Y-26005970D01*
X15097950Y-26010489D01*
X15080408Y-26018235D01*
X15029061Y-26024192D01*
X15025000Y-26025000D01*
X14625000Y-26025000D01*
X14620941Y-26024192D01*
X14569591Y-26018235D01*
X14552048Y-26010489D01*
X14529329Y-26005970D01*
X14505006Y-25989718D01*
X14484206Y-25980534D01*
X14469999Y-25966327D01*
X14448223Y-25951777D01*
X14433672Y-25930000D01*
X14419465Y-25915793D01*
X14410280Y-25894991D01*
X14394030Y-25870671D01*
X14389511Y-25847954D01*
X14381764Y-25830408D01*
X14375805Y-25779049D01*
X14375000Y-25775000D01*
X14375000Y-25225000D01*
X14375804Y-25220953D01*
X14381764Y-25169591D01*
X14389511Y-25152043D01*
X14394030Y-25129329D01*
X14410278Y-25105010D01*
X14419465Y-25084206D01*
X14433674Y-25069996D01*
X14448223Y-25048223D01*
X14469996Y-25033674D01*
X14484206Y-25019465D01*
X14505010Y-25010278D01*
X14529329Y-24994030D01*
X14552043Y-24989511D01*
X14569591Y-24981764D01*
X14620952Y-24975805D01*
X14625000Y-24975000D01*
X15025000Y-24975000D01*
X15029047Y-24975805D01*
G37*
G36*
X17379047Y-24975805D02*
G01*
X17430408Y-24981764D01*
X17447954Y-24989511D01*
X17470671Y-24994030D01*
X17494991Y-25010280D01*
X17515793Y-25019465D01*
X17530000Y-25033672D01*
X17551777Y-25048223D01*
X17566327Y-25069999D01*
X17580534Y-25084206D01*
X17589718Y-25105006D01*
X17605970Y-25129329D01*
X17610489Y-25152048D01*
X17618235Y-25169591D01*
X17624192Y-25220940D01*
X17625000Y-25225000D01*
X17625000Y-25775000D01*
X17624192Y-25779059D01*
X17618235Y-25830408D01*
X17610489Y-25847950D01*
X17605970Y-25870671D01*
X17589716Y-25894995D01*
X17580534Y-25915793D01*
X17566329Y-25929997D01*
X17551777Y-25951777D01*
X17529997Y-25966329D01*
X17515793Y-25980534D01*
X17494995Y-25989716D01*
X17470671Y-26005970D01*
X17447950Y-26010489D01*
X17430408Y-26018235D01*
X17379061Y-26024192D01*
X17375000Y-26025000D01*
X16975000Y-26025000D01*
X16970941Y-26024192D01*
X16919591Y-26018235D01*
X16902048Y-26010489D01*
X16879329Y-26005970D01*
X16855006Y-25989718D01*
X16834206Y-25980534D01*
X16819999Y-25966327D01*
X16798223Y-25951777D01*
X16783672Y-25930000D01*
X16769465Y-25915793D01*
X16760280Y-25894991D01*
X16744030Y-25870671D01*
X16739511Y-25847954D01*
X16731764Y-25830408D01*
X16725805Y-25779049D01*
X16725000Y-25775000D01*
X16725000Y-25225000D01*
X16725804Y-25220953D01*
X16731764Y-25169591D01*
X16739511Y-25152043D01*
X16744030Y-25129329D01*
X16760278Y-25105010D01*
X16769465Y-25084206D01*
X16783674Y-25069996D01*
X16798223Y-25048223D01*
X16819996Y-25033674D01*
X16834206Y-25019465D01*
X16855010Y-25010278D01*
X16879329Y-24994030D01*
X16902043Y-24989511D01*
X16919591Y-24981764D01*
X16970952Y-24975805D01*
X16975000Y-24975000D01*
X17375000Y-24975000D01*
X17379047Y-24975805D01*
G37*
G36*
X19029047Y-24975805D02*
G01*
X19080408Y-24981764D01*
X19097954Y-24989511D01*
X19120671Y-24994030D01*
X19144991Y-25010280D01*
X19165793Y-25019465D01*
X19180000Y-25033672D01*
X19201777Y-25048223D01*
X19216327Y-25069999D01*
X19230534Y-25084206D01*
X19239718Y-25105006D01*
X19255970Y-25129329D01*
X19260489Y-25152048D01*
X19268235Y-25169591D01*
X19274192Y-25220940D01*
X19275000Y-25225000D01*
X19275000Y-25775000D01*
X19274192Y-25779059D01*
X19268235Y-25830408D01*
X19260489Y-25847950D01*
X19255970Y-25870671D01*
X19239716Y-25894995D01*
X19230534Y-25915793D01*
X19216329Y-25929997D01*
X19201777Y-25951777D01*
X19179997Y-25966329D01*
X19165793Y-25980534D01*
X19144995Y-25989716D01*
X19120671Y-26005970D01*
X19097950Y-26010489D01*
X19080408Y-26018235D01*
X19029061Y-26024192D01*
X19025000Y-26025000D01*
X18625000Y-26025000D01*
X18620941Y-26024192D01*
X18569591Y-26018235D01*
X18552048Y-26010489D01*
X18529329Y-26005970D01*
X18505006Y-25989718D01*
X18484206Y-25980534D01*
X18469999Y-25966327D01*
X18448223Y-25951777D01*
X18433672Y-25930000D01*
X18419465Y-25915793D01*
X18410280Y-25894991D01*
X18394030Y-25870671D01*
X18389511Y-25847954D01*
X18381764Y-25830408D01*
X18375805Y-25779049D01*
X18375000Y-25775000D01*
X18375000Y-25225000D01*
X18375804Y-25220953D01*
X18381764Y-25169591D01*
X18389511Y-25152043D01*
X18394030Y-25129329D01*
X18410278Y-25105010D01*
X18419465Y-25084206D01*
X18433674Y-25069996D01*
X18448223Y-25048223D01*
X18469996Y-25033674D01*
X18484206Y-25019465D01*
X18505010Y-25010278D01*
X18529329Y-24994030D01*
X18552043Y-24989511D01*
X18569591Y-24981764D01*
X18620952Y-24975805D01*
X18625000Y-24975000D01*
X19025000Y-24975000D01*
X19029047Y-24975805D01*
G37*
G36*
X5114805Y-25222836D02*
G01*
X5182628Y-25261994D01*
X5238006Y-25317372D01*
X5277164Y-25385195D01*
X5297433Y-25460842D01*
X5297433Y-25539158D01*
X5277164Y-25614805D01*
X5238006Y-25682628D01*
X5182628Y-25738006D01*
X5114805Y-25777164D01*
X5039158Y-25797433D01*
X4960842Y-25797433D01*
X4885195Y-25777164D01*
X4817372Y-25738006D01*
X4761994Y-25682628D01*
X4722836Y-25614805D01*
X4702567Y-25539158D01*
X4702567Y-25460842D01*
X4722836Y-25385195D01*
X4761994Y-25317372D01*
X4817372Y-25261994D01*
X4885195Y-25222836D01*
X4960842Y-25202567D01*
X5039158Y-25202567D01*
X5114805Y-25222836D01*
G37*
G36*
X7114805Y-25222836D02*
G01*
X7182628Y-25261994D01*
X7238006Y-25317372D01*
X7277164Y-25385195D01*
X7297433Y-25460842D01*
X7297433Y-25539158D01*
X7277164Y-25614805D01*
X7238006Y-25682628D01*
X7182628Y-25738006D01*
X7114805Y-25777164D01*
X7039158Y-25797433D01*
X6960842Y-25797433D01*
X6885195Y-25777164D01*
X6817372Y-25738006D01*
X6761994Y-25682628D01*
X6722836Y-25614805D01*
X6702567Y-25539158D01*
X6702567Y-25460842D01*
X6722836Y-25385195D01*
X6761994Y-25317372D01*
X6817372Y-25261994D01*
X6885195Y-25222836D01*
X6960842Y-25202567D01*
X7039158Y-25202567D01*
X7114805Y-25222836D01*
G37*
G36*
X57114805Y-25222836D02*
G01*
X57182628Y-25261994D01*
X57238006Y-25317372D01*
X57277164Y-25385195D01*
X57297433Y-25460842D01*
X57297433Y-25539158D01*
X57277164Y-25614805D01*
X57238006Y-25682628D01*
X57182628Y-25738006D01*
X57114805Y-25777164D01*
X57039158Y-25797433D01*
X56960842Y-25797433D01*
X56885195Y-25777164D01*
X56817372Y-25738006D01*
X56761994Y-25682628D01*
X56722836Y-25614805D01*
X56702567Y-25539158D01*
X56702567Y-25460842D01*
X56722836Y-25385195D01*
X56761994Y-25317372D01*
X56817372Y-25261994D01*
X56885195Y-25222836D01*
X56960842Y-25202567D01*
X57039158Y-25202567D01*
X57114805Y-25222836D01*
G37*
G36*
X59114805Y-25222836D02*
G01*
X59182628Y-25261994D01*
X59238006Y-25317372D01*
X59277164Y-25385195D01*
X59297433Y-25460842D01*
X59297433Y-25539158D01*
X59277164Y-25614805D01*
X59238006Y-25682628D01*
X59182628Y-25738006D01*
X59114805Y-25777164D01*
X59039158Y-25797433D01*
X58960842Y-25797433D01*
X58885195Y-25777164D01*
X58817372Y-25738006D01*
X58761994Y-25682628D01*
X58722836Y-25614805D01*
X58702567Y-25539158D01*
X58702567Y-25460842D01*
X58722836Y-25385195D01*
X58761994Y-25317372D01*
X58817372Y-25261994D01*
X58885195Y-25222836D01*
X58960842Y-25202567D01*
X59039158Y-25202567D01*
X59114805Y-25222836D01*
G37*
G36*
X46779047Y-24725805D02*
G01*
X46830408Y-24731764D01*
X46847954Y-24739511D01*
X46870671Y-24744030D01*
X46894991Y-24760280D01*
X46915793Y-24769465D01*
X46930000Y-24783672D01*
X46951777Y-24798223D01*
X46966327Y-24819999D01*
X46980534Y-24834206D01*
X46989718Y-24855006D01*
X47005970Y-24879329D01*
X47010489Y-24902048D01*
X47018235Y-24919591D01*
X47024192Y-24970940D01*
X47025000Y-24975000D01*
X47025000Y-25375000D01*
X47024192Y-25379059D01*
X47018235Y-25430408D01*
X47010489Y-25447950D01*
X47005970Y-25470671D01*
X46989716Y-25494995D01*
X46980534Y-25515793D01*
X46966329Y-25529997D01*
X46951777Y-25551777D01*
X46929997Y-25566329D01*
X46915793Y-25580534D01*
X46894995Y-25589716D01*
X46870671Y-25605970D01*
X46847950Y-25610489D01*
X46830408Y-25618235D01*
X46779061Y-25624192D01*
X46775000Y-25625000D01*
X46225000Y-25625000D01*
X46220941Y-25624192D01*
X46169591Y-25618235D01*
X46152048Y-25610489D01*
X46129329Y-25605970D01*
X46105006Y-25589718D01*
X46084206Y-25580534D01*
X46069999Y-25566327D01*
X46048223Y-25551777D01*
X46033672Y-25530000D01*
X46019465Y-25515793D01*
X46010280Y-25494991D01*
X45994030Y-25470671D01*
X45989511Y-25447954D01*
X45981764Y-25430408D01*
X45975805Y-25379049D01*
X45975000Y-25375000D01*
X45975000Y-24975000D01*
X45975804Y-24970953D01*
X45981764Y-24919591D01*
X45989511Y-24902043D01*
X45994030Y-24879329D01*
X46010278Y-24855010D01*
X46019465Y-24834206D01*
X46033674Y-24819996D01*
X46048223Y-24798223D01*
X46069996Y-24783674D01*
X46084206Y-24769465D01*
X46105010Y-24760278D01*
X46129329Y-24744030D01*
X46152043Y-24739511D01*
X46169591Y-24731764D01*
X46220952Y-24725805D01*
X46225000Y-24725000D01*
X46775000Y-24725000D01*
X46779047Y-24725805D01*
G37*
G36*
X48279047Y-24725805D02*
G01*
X48330408Y-24731764D01*
X48347954Y-24739511D01*
X48370671Y-24744030D01*
X48394991Y-24760280D01*
X48415793Y-24769465D01*
X48430000Y-24783672D01*
X48451777Y-24798223D01*
X48466327Y-24819999D01*
X48480534Y-24834206D01*
X48489718Y-24855006D01*
X48505970Y-24879329D01*
X48510489Y-24902048D01*
X48518235Y-24919591D01*
X48524192Y-24970940D01*
X48525000Y-24975000D01*
X48525000Y-25375000D01*
X48524192Y-25379059D01*
X48518235Y-25430408D01*
X48510489Y-25447950D01*
X48505970Y-25470671D01*
X48489716Y-25494995D01*
X48480534Y-25515793D01*
X48466329Y-25529997D01*
X48451777Y-25551777D01*
X48429997Y-25566329D01*
X48415793Y-25580534D01*
X48394995Y-25589716D01*
X48370671Y-25605970D01*
X48347950Y-25610489D01*
X48330408Y-25618235D01*
X48279061Y-25624192D01*
X48275000Y-25625000D01*
X47725000Y-25625000D01*
X47720941Y-25624192D01*
X47669591Y-25618235D01*
X47652048Y-25610489D01*
X47629329Y-25605970D01*
X47605006Y-25589718D01*
X47584206Y-25580534D01*
X47569999Y-25566327D01*
X47548223Y-25551777D01*
X47533672Y-25530000D01*
X47519465Y-25515793D01*
X47510280Y-25494991D01*
X47494030Y-25470671D01*
X47489511Y-25447954D01*
X47481764Y-25430408D01*
X47475805Y-25379049D01*
X47475000Y-25375000D01*
X47475000Y-24975000D01*
X47475804Y-24970953D01*
X47481764Y-24919591D01*
X47489511Y-24902043D01*
X47494030Y-24879329D01*
X47510278Y-24855010D01*
X47519465Y-24834206D01*
X47533674Y-24819996D01*
X47548223Y-24798223D01*
X47569996Y-24783674D01*
X47584206Y-24769465D01*
X47605010Y-24760278D01*
X47629329Y-24744030D01*
X47652043Y-24739511D01*
X47669591Y-24731764D01*
X47720952Y-24725805D01*
X47725000Y-24725000D01*
X48275000Y-24725000D01*
X48279047Y-24725805D01*
G37*
G36*
X49779047Y-24725805D02*
G01*
X49830408Y-24731764D01*
X49847954Y-24739511D01*
X49870671Y-24744030D01*
X49894991Y-24760280D01*
X49915793Y-24769465D01*
X49930000Y-24783672D01*
X49951777Y-24798223D01*
X49966327Y-24819999D01*
X49980534Y-24834206D01*
X49989718Y-24855006D01*
X50005970Y-24879329D01*
X50010489Y-24902048D01*
X50018235Y-24919591D01*
X50024192Y-24970940D01*
X50025000Y-24975000D01*
X50025000Y-25375000D01*
X50024192Y-25379059D01*
X50018235Y-25430408D01*
X50010489Y-25447950D01*
X50005970Y-25470671D01*
X49989716Y-25494995D01*
X49980534Y-25515793D01*
X49966329Y-25529997D01*
X49951777Y-25551777D01*
X49929997Y-25566329D01*
X49915793Y-25580534D01*
X49894995Y-25589716D01*
X49870671Y-25605970D01*
X49847950Y-25610489D01*
X49830408Y-25618235D01*
X49779061Y-25624192D01*
X49775000Y-25625000D01*
X49225000Y-25625000D01*
X49220941Y-25624192D01*
X49169591Y-25618235D01*
X49152048Y-25610489D01*
X49129329Y-25605970D01*
X49105006Y-25589718D01*
X49084206Y-25580534D01*
X49069999Y-25566327D01*
X49048223Y-25551777D01*
X49033672Y-25530000D01*
X49019465Y-25515793D01*
X49010280Y-25494991D01*
X48994030Y-25470671D01*
X48989511Y-25447954D01*
X48981764Y-25430408D01*
X48975805Y-25379049D01*
X48975000Y-25375000D01*
X48975000Y-24975000D01*
X48975804Y-24970953D01*
X48981764Y-24919591D01*
X48989511Y-24902043D01*
X48994030Y-24879329D01*
X49010278Y-24855010D01*
X49019465Y-24834206D01*
X49033674Y-24819996D01*
X49048223Y-24798223D01*
X49069996Y-24783674D01*
X49084206Y-24769465D01*
X49105010Y-24760278D01*
X49129329Y-24744030D01*
X49152043Y-24739511D01*
X49169591Y-24731764D01*
X49220952Y-24725805D01*
X49225000Y-24725000D01*
X49775000Y-24725000D01*
X49779047Y-24725805D01*
G37*
G36*
X28379047Y-24475805D02*
G01*
X28430408Y-24481764D01*
X28447954Y-24489511D01*
X28470671Y-24494030D01*
X28494991Y-24510280D01*
X28515793Y-24519465D01*
X28530000Y-24533672D01*
X28551777Y-24548223D01*
X28566327Y-24569999D01*
X28580534Y-24584206D01*
X28589718Y-24605006D01*
X28605970Y-24629329D01*
X28610489Y-24652048D01*
X28618235Y-24669591D01*
X28624192Y-24720940D01*
X28625000Y-24725000D01*
X28625000Y-25275000D01*
X28624192Y-25279059D01*
X28618235Y-25330408D01*
X28610489Y-25347950D01*
X28605970Y-25370671D01*
X28589716Y-25394995D01*
X28580534Y-25415793D01*
X28566329Y-25429997D01*
X28551777Y-25451777D01*
X28529997Y-25466329D01*
X28515793Y-25480534D01*
X28494995Y-25489716D01*
X28470671Y-25505970D01*
X28447950Y-25510489D01*
X28430408Y-25518235D01*
X28379061Y-25524192D01*
X28375000Y-25525000D01*
X27975000Y-25525000D01*
X27970941Y-25524192D01*
X27919591Y-25518235D01*
X27902048Y-25510489D01*
X27879329Y-25505970D01*
X27855006Y-25489718D01*
X27834206Y-25480534D01*
X27819999Y-25466327D01*
X27798223Y-25451777D01*
X27783672Y-25430000D01*
X27769465Y-25415793D01*
X27760280Y-25394991D01*
X27744030Y-25370671D01*
X27739511Y-25347954D01*
X27731764Y-25330408D01*
X27725805Y-25279049D01*
X27725000Y-25275000D01*
X27725000Y-24725000D01*
X27725804Y-24720953D01*
X27731764Y-24669591D01*
X27739511Y-24652043D01*
X27744030Y-24629329D01*
X27760278Y-24605010D01*
X27769465Y-24584206D01*
X27783674Y-24569996D01*
X27798223Y-24548223D01*
X27819996Y-24533674D01*
X27834206Y-24519465D01*
X27855010Y-24510278D01*
X27879329Y-24494030D01*
X27902043Y-24489511D01*
X27919591Y-24481764D01*
X27970952Y-24475805D01*
X27975000Y-24475000D01*
X28375000Y-24475000D01*
X28379047Y-24475805D01*
G37*
G36*
X30029047Y-24475805D02*
G01*
X30080408Y-24481764D01*
X30097954Y-24489511D01*
X30120671Y-24494030D01*
X30144991Y-24510280D01*
X30165793Y-24519465D01*
X30180000Y-24533672D01*
X30201777Y-24548223D01*
X30216327Y-24569999D01*
X30230534Y-24584206D01*
X30239718Y-24605006D01*
X30255970Y-24629329D01*
X30260489Y-24652048D01*
X30268235Y-24669591D01*
X30274192Y-24720940D01*
X30275000Y-24725000D01*
X30275000Y-25275000D01*
X30274192Y-25279059D01*
X30268235Y-25330408D01*
X30260489Y-25347950D01*
X30255970Y-25370671D01*
X30239716Y-25394995D01*
X30230534Y-25415793D01*
X30216329Y-25429997D01*
X30201777Y-25451777D01*
X30179997Y-25466329D01*
X30165793Y-25480534D01*
X30144995Y-25489716D01*
X30120671Y-25505970D01*
X30097950Y-25510489D01*
X30080408Y-25518235D01*
X30029061Y-25524192D01*
X30025000Y-25525000D01*
X29625000Y-25525000D01*
X29620941Y-25524192D01*
X29569591Y-25518235D01*
X29552048Y-25510489D01*
X29529329Y-25505970D01*
X29505006Y-25489718D01*
X29484206Y-25480534D01*
X29469999Y-25466327D01*
X29448223Y-25451777D01*
X29433672Y-25430000D01*
X29419465Y-25415793D01*
X29410280Y-25394991D01*
X29394030Y-25370671D01*
X29389511Y-25347954D01*
X29381764Y-25330408D01*
X29375805Y-25279049D01*
X29375000Y-25275000D01*
X29375000Y-24725000D01*
X29375804Y-24720953D01*
X29381764Y-24669591D01*
X29389511Y-24652043D01*
X29394030Y-24629329D01*
X29410278Y-24605010D01*
X29419465Y-24584206D01*
X29433674Y-24569996D01*
X29448223Y-24548223D01*
X29469996Y-24533674D01*
X29484206Y-24519465D01*
X29505010Y-24510278D01*
X29529329Y-24494030D01*
X29552043Y-24489511D01*
X29569591Y-24481764D01*
X29620952Y-24475805D01*
X29625000Y-24475000D01*
X30025000Y-24475000D01*
X30029047Y-24475805D01*
G37*
G36*
X32379047Y-24475805D02*
G01*
X32430408Y-24481764D01*
X32447954Y-24489511D01*
X32470671Y-24494030D01*
X32494991Y-24510280D01*
X32515793Y-24519465D01*
X32530000Y-24533672D01*
X32551777Y-24548223D01*
X32566327Y-24569999D01*
X32580534Y-24584206D01*
X32589718Y-24605006D01*
X32605970Y-24629329D01*
X32610489Y-24652048D01*
X32618235Y-24669591D01*
X32624192Y-24720940D01*
X32625000Y-24725000D01*
X32625000Y-25275000D01*
X32624192Y-25279059D01*
X32618235Y-25330408D01*
X32610489Y-25347950D01*
X32605970Y-25370671D01*
X32589716Y-25394995D01*
X32580534Y-25415793D01*
X32566329Y-25429997D01*
X32551777Y-25451777D01*
X32529997Y-25466329D01*
X32515793Y-25480534D01*
X32494995Y-25489716D01*
X32470671Y-25505970D01*
X32447950Y-25510489D01*
X32430408Y-25518235D01*
X32379061Y-25524192D01*
X32375000Y-25525000D01*
X31975000Y-25525000D01*
X31970941Y-25524192D01*
X31919591Y-25518235D01*
X31902048Y-25510489D01*
X31879329Y-25505970D01*
X31855006Y-25489718D01*
X31834206Y-25480534D01*
X31819999Y-25466327D01*
X31798223Y-25451777D01*
X31783672Y-25430000D01*
X31769465Y-25415793D01*
X31760280Y-25394991D01*
X31744030Y-25370671D01*
X31739511Y-25347954D01*
X31731764Y-25330408D01*
X31725805Y-25279049D01*
X31725000Y-25275000D01*
X31725000Y-24725000D01*
X31725804Y-24720953D01*
X31731764Y-24669591D01*
X31739511Y-24652043D01*
X31744030Y-24629329D01*
X31760278Y-24605010D01*
X31769465Y-24584206D01*
X31783674Y-24569996D01*
X31798223Y-24548223D01*
X31819996Y-24533674D01*
X31834206Y-24519465D01*
X31855010Y-24510278D01*
X31879329Y-24494030D01*
X31902043Y-24489511D01*
X31919591Y-24481764D01*
X31970952Y-24475805D01*
X31975000Y-24475000D01*
X32375000Y-24475000D01*
X32379047Y-24475805D01*
G37*
G36*
X34029047Y-24475805D02*
G01*
X34080408Y-24481764D01*
X34097954Y-24489511D01*
X34120671Y-24494030D01*
X34144991Y-24510280D01*
X34165793Y-24519465D01*
X34180000Y-24533672D01*
X34201777Y-24548223D01*
X34216327Y-24569999D01*
X34230534Y-24584206D01*
X34239718Y-24605006D01*
X34255970Y-24629329D01*
X34260489Y-24652048D01*
X34268235Y-24669591D01*
X34274192Y-24720940D01*
X34275000Y-24725000D01*
X34275000Y-25275000D01*
X34274192Y-25279059D01*
X34268235Y-25330408D01*
X34260489Y-25347950D01*
X34255970Y-25370671D01*
X34239716Y-25394995D01*
X34230534Y-25415793D01*
X34216329Y-25429997D01*
X34201777Y-25451777D01*
X34179997Y-25466329D01*
X34165793Y-25480534D01*
X34144995Y-25489716D01*
X34120671Y-25505970D01*
X34097950Y-25510489D01*
X34080408Y-25518235D01*
X34029061Y-25524192D01*
X34025000Y-25525000D01*
X33625000Y-25525000D01*
X33620941Y-25524192D01*
X33569591Y-25518235D01*
X33552048Y-25510489D01*
X33529329Y-25505970D01*
X33505006Y-25489718D01*
X33484206Y-25480534D01*
X33469999Y-25466327D01*
X33448223Y-25451777D01*
X33433672Y-25430000D01*
X33419465Y-25415793D01*
X33410280Y-25394991D01*
X33394030Y-25370671D01*
X33389511Y-25347954D01*
X33381764Y-25330408D01*
X33375805Y-25279049D01*
X33375000Y-25275000D01*
X33375000Y-24725000D01*
X33375804Y-24720953D01*
X33381764Y-24669591D01*
X33389511Y-24652043D01*
X33394030Y-24629329D01*
X33410278Y-24605010D01*
X33419465Y-24584206D01*
X33433674Y-24569996D01*
X33448223Y-24548223D01*
X33469996Y-24533674D01*
X33484206Y-24519465D01*
X33505010Y-24510278D01*
X33529329Y-24494030D01*
X33552043Y-24489511D01*
X33569591Y-24481764D01*
X33620952Y-24475805D01*
X33625000Y-24475000D01*
X34025000Y-24475000D01*
X34029047Y-24475805D01*
G37*
G36*
X5114805Y-24472836D02*
G01*
X5182628Y-24511994D01*
X5238006Y-24567372D01*
X5277164Y-24635195D01*
X5297433Y-24710842D01*
X5297433Y-24789158D01*
X5277164Y-24864805D01*
X5238006Y-24932628D01*
X5182628Y-24988006D01*
X5114805Y-25027164D01*
X5039158Y-25047433D01*
X4960842Y-25047433D01*
X4885195Y-25027164D01*
X4817372Y-24988006D01*
X4761994Y-24932628D01*
X4722836Y-24864805D01*
X4702567Y-24789158D01*
X4702567Y-24710842D01*
X4722836Y-24635195D01*
X4761994Y-24567372D01*
X4817372Y-24511994D01*
X4885195Y-24472836D01*
X4960842Y-24452567D01*
X5039158Y-24452567D01*
X5114805Y-24472836D01*
G37*
G36*
X7114805Y-24472836D02*
G01*
X7182628Y-24511994D01*
X7238006Y-24567372D01*
X7277164Y-24635195D01*
X7297433Y-24710842D01*
X7297433Y-24789158D01*
X7277164Y-24864805D01*
X7238006Y-24932628D01*
X7182628Y-24988006D01*
X7114805Y-25027164D01*
X7039158Y-25047433D01*
X6960842Y-25047433D01*
X6885195Y-25027164D01*
X6817372Y-24988006D01*
X6761994Y-24932628D01*
X6722836Y-24864805D01*
X6702567Y-24789158D01*
X6702567Y-24710842D01*
X6722836Y-24635195D01*
X6761994Y-24567372D01*
X6817372Y-24511994D01*
X6885195Y-24472836D01*
X6960842Y-24452567D01*
X7039158Y-24452567D01*
X7114805Y-24472836D01*
G37*
G36*
X57114805Y-24472836D02*
G01*
X57182628Y-24511994D01*
X57238006Y-24567372D01*
X57277164Y-24635195D01*
X57297433Y-24710842D01*
X57297433Y-24789158D01*
X57277164Y-24864805D01*
X57238006Y-24932628D01*
X57182628Y-24988006D01*
X57114805Y-25027164D01*
X57039158Y-25047433D01*
X56960842Y-25047433D01*
X56885195Y-25027164D01*
X56817372Y-24988006D01*
X56761994Y-24932628D01*
X56722836Y-24864805D01*
X56702567Y-24789158D01*
X56702567Y-24710842D01*
X56722836Y-24635195D01*
X56761994Y-24567372D01*
X56817372Y-24511994D01*
X56885195Y-24472836D01*
X56960842Y-24452567D01*
X57039158Y-24452567D01*
X57114805Y-24472836D01*
G37*
G36*
X59114805Y-24472836D02*
G01*
X59182628Y-24511994D01*
X59238006Y-24567372D01*
X59277164Y-24635195D01*
X59297433Y-24710842D01*
X59297433Y-24789158D01*
X59277164Y-24864805D01*
X59238006Y-24932628D01*
X59182628Y-24988006D01*
X59114805Y-25027164D01*
X59039158Y-25047433D01*
X58960842Y-25047433D01*
X58885195Y-25027164D01*
X58817372Y-24988006D01*
X58761994Y-24932628D01*
X58722836Y-24864805D01*
X58702567Y-24789158D01*
X58702567Y-24710842D01*
X58722836Y-24635195D01*
X58761994Y-24567372D01*
X58817372Y-24511994D01*
X58885195Y-24472836D01*
X58960842Y-24452567D01*
X59039158Y-24452567D01*
X59114805Y-24472836D01*
G37*
G36*
X5114805Y-23722836D02*
G01*
X5182628Y-23761994D01*
X5238006Y-23817372D01*
X5277164Y-23885195D01*
X5297433Y-23960842D01*
X5297433Y-24039158D01*
X5277164Y-24114805D01*
X5238006Y-24182628D01*
X5182628Y-24238006D01*
X5114805Y-24277164D01*
X5039158Y-24297433D01*
X4960842Y-24297433D01*
X4885195Y-24277164D01*
X4817372Y-24238006D01*
X4761994Y-24182628D01*
X4722836Y-24114805D01*
X4702567Y-24039158D01*
X4702567Y-23960842D01*
X4722836Y-23885195D01*
X4761994Y-23817372D01*
X4817372Y-23761994D01*
X4885195Y-23722836D01*
X4960842Y-23702567D01*
X5039158Y-23702567D01*
X5114805Y-23722836D01*
G37*
G36*
X7114805Y-23722836D02*
G01*
X7182628Y-23761994D01*
X7238006Y-23817372D01*
X7277164Y-23885195D01*
X7297433Y-23960842D01*
X7297433Y-24039158D01*
X7277164Y-24114805D01*
X7238006Y-24182628D01*
X7182628Y-24238006D01*
X7114805Y-24277164D01*
X7039158Y-24297433D01*
X6960842Y-24297433D01*
X6885195Y-24277164D01*
X6817372Y-24238006D01*
X6761994Y-24182628D01*
X6722836Y-24114805D01*
X6702567Y-24039158D01*
X6702567Y-23960842D01*
X6722836Y-23885195D01*
X6761994Y-23817372D01*
X6817372Y-23761994D01*
X6885195Y-23722836D01*
X6960842Y-23702567D01*
X7039158Y-23702567D01*
X7114805Y-23722836D01*
G37*
G36*
X57114805Y-23722836D02*
G01*
X57182628Y-23761994D01*
X57238006Y-23817372D01*
X57277164Y-23885195D01*
X57297433Y-23960842D01*
X57297433Y-24039158D01*
X57277164Y-24114805D01*
X57238006Y-24182628D01*
X57182628Y-24238006D01*
X57114805Y-24277164D01*
X57039158Y-24297433D01*
X56960842Y-24297433D01*
X56885195Y-24277164D01*
X56817372Y-24238006D01*
X56761994Y-24182628D01*
X56722836Y-24114805D01*
X56702567Y-24039158D01*
X56702567Y-23960842D01*
X56722836Y-23885195D01*
X56761994Y-23817372D01*
X56817372Y-23761994D01*
X56885195Y-23722836D01*
X56960842Y-23702567D01*
X57039158Y-23702567D01*
X57114805Y-23722836D01*
G37*
G36*
X59114805Y-23722836D02*
G01*
X59182628Y-23761994D01*
X59238006Y-23817372D01*
X59277164Y-23885195D01*
X59297433Y-23960842D01*
X59297433Y-24039158D01*
X59277164Y-24114805D01*
X59238006Y-24182628D01*
X59182628Y-24238006D01*
X59114805Y-24277164D01*
X59039158Y-24297433D01*
X58960842Y-24297433D01*
X58885195Y-24277164D01*
X58817372Y-24238006D01*
X58761994Y-24182628D01*
X58722836Y-24114805D01*
X58702567Y-24039158D01*
X58702567Y-23960842D01*
X58722836Y-23885195D01*
X58761994Y-23817372D01*
X58817372Y-23761994D01*
X58885195Y-23722836D01*
X58960842Y-23702567D01*
X59039158Y-23702567D01*
X59114805Y-23722836D01*
G37*
G36*
X28379047Y-22975805D02*
G01*
X28430408Y-22981764D01*
X28447954Y-22989511D01*
X28470671Y-22994030D01*
X28494991Y-23010280D01*
X28515793Y-23019465D01*
X28530000Y-23033672D01*
X28551777Y-23048223D01*
X28566327Y-23069999D01*
X28580534Y-23084206D01*
X28589718Y-23105006D01*
X28605970Y-23129329D01*
X28610489Y-23152048D01*
X28618235Y-23169591D01*
X28624192Y-23220940D01*
X28625000Y-23225000D01*
X28625000Y-23775000D01*
X28624192Y-23779059D01*
X28618235Y-23830408D01*
X28610489Y-23847950D01*
X28605970Y-23870671D01*
X28589716Y-23894995D01*
X28580534Y-23915793D01*
X28566329Y-23929997D01*
X28551777Y-23951777D01*
X28529997Y-23966329D01*
X28515793Y-23980534D01*
X28494995Y-23989716D01*
X28470671Y-24005970D01*
X28447950Y-24010489D01*
X28430408Y-24018235D01*
X28379061Y-24024192D01*
X28375000Y-24025000D01*
X27975000Y-24025000D01*
X27970941Y-24024192D01*
X27919591Y-24018235D01*
X27902048Y-24010489D01*
X27879329Y-24005970D01*
X27855006Y-23989718D01*
X27834206Y-23980534D01*
X27819999Y-23966327D01*
X27798223Y-23951777D01*
X27783672Y-23930000D01*
X27769465Y-23915793D01*
X27760280Y-23894991D01*
X27744030Y-23870671D01*
X27739511Y-23847954D01*
X27731764Y-23830408D01*
X27725805Y-23779049D01*
X27725000Y-23775000D01*
X27725000Y-23225000D01*
X27725804Y-23220953D01*
X27731764Y-23169591D01*
X27739511Y-23152043D01*
X27744030Y-23129329D01*
X27760278Y-23105010D01*
X27769465Y-23084206D01*
X27783674Y-23069996D01*
X27798223Y-23048223D01*
X27819996Y-23033674D01*
X27834206Y-23019465D01*
X27855010Y-23010278D01*
X27879329Y-22994030D01*
X27902043Y-22989511D01*
X27919591Y-22981764D01*
X27970952Y-22975805D01*
X27975000Y-22975000D01*
X28375000Y-22975000D01*
X28379047Y-22975805D01*
G37*
G36*
X30029047Y-22975805D02*
G01*
X30080408Y-22981764D01*
X30097954Y-22989511D01*
X30120671Y-22994030D01*
X30144991Y-23010280D01*
X30165793Y-23019465D01*
X30180000Y-23033672D01*
X30201777Y-23048223D01*
X30216327Y-23069999D01*
X30230534Y-23084206D01*
X30239718Y-23105006D01*
X30255970Y-23129329D01*
X30260489Y-23152048D01*
X30268235Y-23169591D01*
X30274192Y-23220940D01*
X30275000Y-23225000D01*
X30275000Y-23775000D01*
X30274192Y-23779059D01*
X30268235Y-23830408D01*
X30260489Y-23847950D01*
X30255970Y-23870671D01*
X30239716Y-23894995D01*
X30230534Y-23915793D01*
X30216329Y-23929997D01*
X30201777Y-23951777D01*
X30179997Y-23966329D01*
X30165793Y-23980534D01*
X30144995Y-23989716D01*
X30120671Y-24005970D01*
X30097950Y-24010489D01*
X30080408Y-24018235D01*
X30029061Y-24024192D01*
X30025000Y-24025000D01*
X29625000Y-24025000D01*
X29620941Y-24024192D01*
X29569591Y-24018235D01*
X29552048Y-24010489D01*
X29529329Y-24005970D01*
X29505006Y-23989718D01*
X29484206Y-23980534D01*
X29469999Y-23966327D01*
X29448223Y-23951777D01*
X29433672Y-23930000D01*
X29419465Y-23915793D01*
X29410280Y-23894991D01*
X29394030Y-23870671D01*
X29389511Y-23847954D01*
X29381764Y-23830408D01*
X29375805Y-23779049D01*
X29375000Y-23775000D01*
X29375000Y-23225000D01*
X29375804Y-23220953D01*
X29381764Y-23169591D01*
X29389511Y-23152043D01*
X29394030Y-23129329D01*
X29410278Y-23105010D01*
X29419465Y-23084206D01*
X29433674Y-23069996D01*
X29448223Y-23048223D01*
X29469996Y-23033674D01*
X29484206Y-23019465D01*
X29505010Y-23010278D01*
X29529329Y-22994030D01*
X29552043Y-22989511D01*
X29569591Y-22981764D01*
X29620952Y-22975805D01*
X29625000Y-22975000D01*
X30025000Y-22975000D01*
X30029047Y-22975805D01*
G37*
G36*
X32379047Y-22975805D02*
G01*
X32430408Y-22981764D01*
X32447954Y-22989511D01*
X32470671Y-22994030D01*
X32494991Y-23010280D01*
X32515793Y-23019465D01*
X32530000Y-23033672D01*
X32551777Y-23048223D01*
X32566327Y-23069999D01*
X32580534Y-23084206D01*
X32589718Y-23105006D01*
X32605970Y-23129329D01*
X32610489Y-23152048D01*
X32618235Y-23169591D01*
X32624192Y-23220940D01*
X32625000Y-23225000D01*
X32625000Y-23775000D01*
X32624192Y-23779059D01*
X32618235Y-23830408D01*
X32610489Y-23847950D01*
X32605970Y-23870671D01*
X32589716Y-23894995D01*
X32580534Y-23915793D01*
X32566329Y-23929997D01*
X32551777Y-23951777D01*
X32529997Y-23966329D01*
X32515793Y-23980534D01*
X32494995Y-23989716D01*
X32470671Y-24005970D01*
X32447950Y-24010489D01*
X32430408Y-24018235D01*
X32379061Y-24024192D01*
X32375000Y-24025000D01*
X31975000Y-24025000D01*
X31970941Y-24024192D01*
X31919591Y-24018235D01*
X31902048Y-24010489D01*
X31879329Y-24005970D01*
X31855006Y-23989718D01*
X31834206Y-23980534D01*
X31819999Y-23966327D01*
X31798223Y-23951777D01*
X31783672Y-23930000D01*
X31769465Y-23915793D01*
X31760280Y-23894991D01*
X31744030Y-23870671D01*
X31739511Y-23847954D01*
X31731764Y-23830408D01*
X31725805Y-23779049D01*
X31725000Y-23775000D01*
X31725000Y-23225000D01*
X31725804Y-23220953D01*
X31731764Y-23169591D01*
X31739511Y-23152043D01*
X31744030Y-23129329D01*
X31760278Y-23105010D01*
X31769465Y-23084206D01*
X31783674Y-23069996D01*
X31798223Y-23048223D01*
X31819996Y-23033674D01*
X31834206Y-23019465D01*
X31855010Y-23010278D01*
X31879329Y-22994030D01*
X31902043Y-22989511D01*
X31919591Y-22981764D01*
X31970952Y-22975805D01*
X31975000Y-22975000D01*
X32375000Y-22975000D01*
X32379047Y-22975805D01*
G37*
G36*
X34029047Y-22975805D02*
G01*
X34080408Y-22981764D01*
X34097954Y-22989511D01*
X34120671Y-22994030D01*
X34144991Y-23010280D01*
X34165793Y-23019465D01*
X34180000Y-23033672D01*
X34201777Y-23048223D01*
X34216327Y-23069999D01*
X34230534Y-23084206D01*
X34239718Y-23105006D01*
X34255970Y-23129329D01*
X34260489Y-23152048D01*
X34268235Y-23169591D01*
X34274192Y-23220940D01*
X34275000Y-23225000D01*
X34275000Y-23775000D01*
X34274192Y-23779059D01*
X34268235Y-23830408D01*
X34260489Y-23847950D01*
X34255970Y-23870671D01*
X34239716Y-23894995D01*
X34230534Y-23915793D01*
X34216329Y-23929997D01*
X34201777Y-23951777D01*
X34179997Y-23966329D01*
X34165793Y-23980534D01*
X34144995Y-23989716D01*
X34120671Y-24005970D01*
X34097950Y-24010489D01*
X34080408Y-24018235D01*
X34029061Y-24024192D01*
X34025000Y-24025000D01*
X33625000Y-24025000D01*
X33620941Y-24024192D01*
X33569591Y-24018235D01*
X33552048Y-24010489D01*
X33529329Y-24005970D01*
X33505006Y-23989718D01*
X33484206Y-23980534D01*
X33469999Y-23966327D01*
X33448223Y-23951777D01*
X33433672Y-23930000D01*
X33419465Y-23915793D01*
X33410280Y-23894991D01*
X33394030Y-23870671D01*
X33389511Y-23847954D01*
X33381764Y-23830408D01*
X33375805Y-23779049D01*
X33375000Y-23775000D01*
X33375000Y-23225000D01*
X33375804Y-23220953D01*
X33381764Y-23169591D01*
X33389511Y-23152043D01*
X33394030Y-23129329D01*
X33410278Y-23105010D01*
X33419465Y-23084206D01*
X33433674Y-23069996D01*
X33448223Y-23048223D01*
X33469996Y-23033674D01*
X33484206Y-23019465D01*
X33505010Y-23010278D01*
X33529329Y-22994030D01*
X33552043Y-22989511D01*
X33569591Y-22981764D01*
X33620952Y-22975805D01*
X33625000Y-22975000D01*
X34025000Y-22975000D01*
X34029047Y-22975805D01*
G37*
G36*
X28379047Y-21475805D02*
G01*
X28430408Y-21481764D01*
X28447954Y-21489511D01*
X28470671Y-21494030D01*
X28494991Y-21510280D01*
X28515793Y-21519465D01*
X28530000Y-21533672D01*
X28551777Y-21548223D01*
X28566327Y-21569999D01*
X28580534Y-21584206D01*
X28589718Y-21605006D01*
X28605970Y-21629329D01*
X28610489Y-21652048D01*
X28618235Y-21669591D01*
X28624192Y-21720940D01*
X28625000Y-21725000D01*
X28625000Y-22275000D01*
X28624192Y-22279059D01*
X28618235Y-22330408D01*
X28610489Y-22347950D01*
X28605970Y-22370671D01*
X28589716Y-22394995D01*
X28580534Y-22415793D01*
X28566329Y-22429997D01*
X28551777Y-22451777D01*
X28529997Y-22466329D01*
X28515793Y-22480534D01*
X28494995Y-22489716D01*
X28470671Y-22505970D01*
X28447950Y-22510489D01*
X28430408Y-22518235D01*
X28379061Y-22524192D01*
X28375000Y-22525000D01*
X27975000Y-22525000D01*
X27970941Y-22524192D01*
X27919591Y-22518235D01*
X27902048Y-22510489D01*
X27879329Y-22505970D01*
X27855006Y-22489718D01*
X27834206Y-22480534D01*
X27819999Y-22466327D01*
X27798223Y-22451777D01*
X27783672Y-22430000D01*
X27769465Y-22415793D01*
X27760280Y-22394991D01*
X27744030Y-22370671D01*
X27739511Y-22347954D01*
X27731764Y-22330408D01*
X27725805Y-22279049D01*
X27725000Y-22275000D01*
X27725000Y-21725000D01*
X27725804Y-21720953D01*
X27731764Y-21669591D01*
X27739511Y-21652043D01*
X27744030Y-21629329D01*
X27760278Y-21605010D01*
X27769465Y-21584206D01*
X27783674Y-21569996D01*
X27798223Y-21548223D01*
X27819996Y-21533674D01*
X27834206Y-21519465D01*
X27855010Y-21510278D01*
X27879329Y-21494030D01*
X27902043Y-21489511D01*
X27919591Y-21481764D01*
X27970952Y-21475805D01*
X27975000Y-21475000D01*
X28375000Y-21475000D01*
X28379047Y-21475805D01*
G37*
G36*
X30029047Y-21475805D02*
G01*
X30080408Y-21481764D01*
X30097954Y-21489511D01*
X30120671Y-21494030D01*
X30144991Y-21510280D01*
X30165793Y-21519465D01*
X30180000Y-21533672D01*
X30201777Y-21548223D01*
X30216327Y-21569999D01*
X30230534Y-21584206D01*
X30239718Y-21605006D01*
X30255970Y-21629329D01*
X30260489Y-21652048D01*
X30268235Y-21669591D01*
X30274192Y-21720940D01*
X30275000Y-21725000D01*
X30275000Y-22275000D01*
X30274192Y-22279059D01*
X30268235Y-22330408D01*
X30260489Y-22347950D01*
X30255970Y-22370671D01*
X30239716Y-22394995D01*
X30230534Y-22415793D01*
X30216329Y-22429997D01*
X30201777Y-22451777D01*
X30179997Y-22466329D01*
X30165793Y-22480534D01*
X30144995Y-22489716D01*
X30120671Y-22505970D01*
X30097950Y-22510489D01*
X30080408Y-22518235D01*
X30029061Y-22524192D01*
X30025000Y-22525000D01*
X29625000Y-22525000D01*
X29620941Y-22524192D01*
X29569591Y-22518235D01*
X29552048Y-22510489D01*
X29529329Y-22505970D01*
X29505006Y-22489718D01*
X29484206Y-22480534D01*
X29469999Y-22466327D01*
X29448223Y-22451777D01*
X29433672Y-22430000D01*
X29419465Y-22415793D01*
X29410280Y-22394991D01*
X29394030Y-22370671D01*
X29389511Y-22347954D01*
X29381764Y-22330408D01*
X29375805Y-22279049D01*
X29375000Y-22275000D01*
X29375000Y-21725000D01*
X29375804Y-21720953D01*
X29381764Y-21669591D01*
X29389511Y-21652043D01*
X29394030Y-21629329D01*
X29410278Y-21605010D01*
X29419465Y-21584206D01*
X29433674Y-21569996D01*
X29448223Y-21548223D01*
X29469996Y-21533674D01*
X29484206Y-21519465D01*
X29505010Y-21510278D01*
X29529329Y-21494030D01*
X29552043Y-21489511D01*
X29569591Y-21481764D01*
X29620952Y-21475805D01*
X29625000Y-21475000D01*
X30025000Y-21475000D01*
X30029047Y-21475805D01*
G37*
G36*
X32379047Y-21475805D02*
G01*
X32430408Y-21481764D01*
X32447954Y-21489511D01*
X32470671Y-21494030D01*
X32494991Y-21510280D01*
X32515793Y-21519465D01*
X32530000Y-21533672D01*
X32551777Y-21548223D01*
X32566327Y-21569999D01*
X32580534Y-21584206D01*
X32589718Y-21605006D01*
X32605970Y-21629329D01*
X32610489Y-21652048D01*
X32618235Y-21669591D01*
X32624192Y-21720940D01*
X32625000Y-21725000D01*
X32625000Y-22275000D01*
X32624192Y-22279059D01*
X32618235Y-22330408D01*
X32610489Y-22347950D01*
X32605970Y-22370671D01*
X32589716Y-22394995D01*
X32580534Y-22415793D01*
X32566329Y-22429997D01*
X32551777Y-22451777D01*
X32529997Y-22466329D01*
X32515793Y-22480534D01*
X32494995Y-22489716D01*
X32470671Y-22505970D01*
X32447950Y-22510489D01*
X32430408Y-22518235D01*
X32379061Y-22524192D01*
X32375000Y-22525000D01*
X31975000Y-22525000D01*
X31970941Y-22524192D01*
X31919591Y-22518235D01*
X31902048Y-22510489D01*
X31879329Y-22505970D01*
X31855006Y-22489718D01*
X31834206Y-22480534D01*
X31819999Y-22466327D01*
X31798223Y-22451777D01*
X31783672Y-22430000D01*
X31769465Y-22415793D01*
X31760280Y-22394991D01*
X31744030Y-22370671D01*
X31739511Y-22347954D01*
X31731764Y-22330408D01*
X31725805Y-22279049D01*
X31725000Y-22275000D01*
X31725000Y-21725000D01*
X31725804Y-21720953D01*
X31731764Y-21669591D01*
X31739511Y-21652043D01*
X31744030Y-21629329D01*
X31760278Y-21605010D01*
X31769465Y-21584206D01*
X31783674Y-21569996D01*
X31798223Y-21548223D01*
X31819996Y-21533674D01*
X31834206Y-21519465D01*
X31855010Y-21510278D01*
X31879329Y-21494030D01*
X31902043Y-21489511D01*
X31919591Y-21481764D01*
X31970952Y-21475805D01*
X31975000Y-21475000D01*
X32375000Y-21475000D01*
X32379047Y-21475805D01*
G37*
G36*
X34029047Y-21475805D02*
G01*
X34080408Y-21481764D01*
X34097954Y-21489511D01*
X34120671Y-21494030D01*
X34144991Y-21510280D01*
X34165793Y-21519465D01*
X34180000Y-21533672D01*
X34201777Y-21548223D01*
X34216327Y-21569999D01*
X34230534Y-21584206D01*
X34239718Y-21605006D01*
X34255970Y-21629329D01*
X34260489Y-21652048D01*
X34268235Y-21669591D01*
X34274192Y-21720940D01*
X34275000Y-21725000D01*
X34275000Y-22275000D01*
X34274192Y-22279059D01*
X34268235Y-22330408D01*
X34260489Y-22347950D01*
X34255970Y-22370671D01*
X34239716Y-22394995D01*
X34230534Y-22415793D01*
X34216329Y-22429997D01*
X34201777Y-22451777D01*
X34179997Y-22466329D01*
X34165793Y-22480534D01*
X34144995Y-22489716D01*
X34120671Y-22505970D01*
X34097950Y-22510489D01*
X34080408Y-22518235D01*
X34029061Y-22524192D01*
X34025000Y-22525000D01*
X33625000Y-22525000D01*
X33620941Y-22524192D01*
X33569591Y-22518235D01*
X33552048Y-22510489D01*
X33529329Y-22505970D01*
X33505006Y-22489718D01*
X33484206Y-22480534D01*
X33469999Y-22466327D01*
X33448223Y-22451777D01*
X33433672Y-22430000D01*
X33419465Y-22415793D01*
X33410280Y-22394991D01*
X33394030Y-22370671D01*
X33389511Y-22347954D01*
X33381764Y-22330408D01*
X33375805Y-22279049D01*
X33375000Y-22275000D01*
X33375000Y-21725000D01*
X33375804Y-21720953D01*
X33381764Y-21669591D01*
X33389511Y-21652043D01*
X33394030Y-21629329D01*
X33410278Y-21605010D01*
X33419465Y-21584206D01*
X33433674Y-21569996D01*
X33448223Y-21548223D01*
X33469996Y-21533674D01*
X33484206Y-21519465D01*
X33505010Y-21510278D01*
X33529329Y-21494030D01*
X33552043Y-21489511D01*
X33569591Y-21481764D01*
X33620952Y-21475805D01*
X33625000Y-21475000D01*
X34025000Y-21475000D01*
X34029047Y-21475805D01*
G37*
G36*
X12567789Y-7687215D02*
G01*
X12941512Y-7753112D01*
X13308070Y-7851331D01*
X13664673Y-7981124D01*
X14008606Y-8141503D01*
X14337253Y-8331247D01*
X14648112Y-8548913D01*
X14938817Y-8792844D01*
X15207156Y-9061183D01*
X15451087Y-9351888D01*
X15668753Y-9662747D01*
X15858497Y-9991394D01*
X16018876Y-10335327D01*
X16148669Y-10691930D01*
X16246888Y-11058488D01*
X16312785Y-11432211D01*
X16345860Y-11810256D01*
X16345860Y-12189744D01*
X16312785Y-12567789D01*
X16246888Y-12941512D01*
X16148669Y-13308070D01*
X16018876Y-13664673D01*
X15858497Y-14008606D01*
X15668753Y-14337253D01*
X15451087Y-14648112D01*
X15207156Y-14938817D01*
X14938817Y-15207156D01*
X14648112Y-15451087D01*
X14337253Y-15668753D01*
X14008606Y-15858497D01*
X13664673Y-16018876D01*
X13308070Y-16148669D01*
X12941512Y-16246888D01*
X12567789Y-16312785D01*
X12189744Y-16345860D01*
X11810256Y-16345860D01*
X11432211Y-16312785D01*
X11058488Y-16246888D01*
X10691930Y-16148669D01*
X10335327Y-16018876D01*
X9991394Y-15858497D01*
X9662747Y-15668753D01*
X9351888Y-15451087D01*
X9061183Y-15207156D01*
X8792844Y-14938817D01*
X8548913Y-14648112D01*
X8331247Y-14337253D01*
X8141503Y-14008606D01*
X7981124Y-13664673D01*
X7851331Y-13308070D01*
X7753112Y-12941512D01*
X7687215Y-12567789D01*
X7654140Y-12189744D01*
X7654140Y-11810256D01*
X7687215Y-11432211D01*
X7753112Y-11058488D01*
X7851331Y-10691930D01*
X7981124Y-10335327D01*
X8141503Y-9991394D01*
X8331247Y-9662747D01*
X8548913Y-9351888D01*
X8792844Y-9061183D01*
X9061183Y-8792844D01*
X9351888Y-8548913D01*
X9662747Y-8331247D01*
X9991394Y-8141503D01*
X10335327Y-7981124D01*
X10691930Y-7851331D01*
X11058488Y-7753112D01*
X11432211Y-7687215D01*
X11810256Y-7654140D01*
X12189744Y-7654140D01*
X12567789Y-7687215D01*
G37*
G36*
X52567789Y-7687215D02*
G01*
X52941512Y-7753112D01*
X53308070Y-7851331D01*
X53664673Y-7981124D01*
X54008606Y-8141503D01*
X54337253Y-8331247D01*
X54648112Y-8548913D01*
X54938817Y-8792844D01*
X55207156Y-9061183D01*
X55451087Y-9351888D01*
X55668753Y-9662747D01*
X55858497Y-9991394D01*
X56018876Y-10335327D01*
X56148669Y-10691930D01*
X56246888Y-11058488D01*
X56312785Y-11432211D01*
X56345860Y-11810256D01*
X56345860Y-12189744D01*
X56312785Y-12567789D01*
X56246888Y-12941512D01*
X56148669Y-13308070D01*
X56018876Y-13664673D01*
X55858497Y-14008606D01*
X55668753Y-14337253D01*
X55451087Y-14648112D01*
X55207156Y-14938817D01*
X54938817Y-15207156D01*
X54648112Y-15451087D01*
X54337253Y-15668753D01*
X54008606Y-15858497D01*
X53664673Y-16018876D01*
X53308070Y-16148669D01*
X52941512Y-16246888D01*
X52567789Y-16312785D01*
X52189744Y-16345860D01*
X51810256Y-16345860D01*
X51432211Y-16312785D01*
X51058488Y-16246888D01*
X50691930Y-16148669D01*
X50335327Y-16018876D01*
X49991394Y-15858497D01*
X49662747Y-15668753D01*
X49351888Y-15451087D01*
X49061183Y-15207156D01*
X48792844Y-14938817D01*
X48548913Y-14648112D01*
X48331247Y-14337253D01*
X48141503Y-14008606D01*
X47981124Y-13664673D01*
X47851331Y-13308070D01*
X47753112Y-12941512D01*
X47687215Y-12567789D01*
X47654140Y-12189744D01*
X47654140Y-11810256D01*
X47687215Y-11432211D01*
X47753112Y-11058488D01*
X47851331Y-10691930D01*
X47981124Y-10335327D01*
X48141503Y-9991394D01*
X48331247Y-9662747D01*
X48548913Y-9351888D01*
X48792844Y-9061183D01*
X49061183Y-8792844D01*
X49351888Y-8548913D01*
X49662747Y-8331247D01*
X49991394Y-8141503D01*
X50335327Y-7981124D01*
X50691930Y-7851331D01*
X51058488Y-7753112D01*
X51432211Y-7687215D01*
X51810256Y-7654140D01*
X52189744Y-7654140D01*
X52567789Y-7687215D01*
G37*
G36*
X42225768Y-12170112D02*
G01*
X42258211Y-12191789D01*
X42279888Y-12224232D01*
X42287500Y-12262500D01*
X42287500Y-14637500D01*
X42279888Y-14675768D01*
X42258211Y-14708211D01*
X42225768Y-14729888D01*
X42187500Y-14737500D01*
X39812500Y-14737500D01*
X39774232Y-14729888D01*
X39741789Y-14708211D01*
X39720112Y-14675768D01*
X39712500Y-14637500D01*
X39712500Y-12262500D01*
X39720112Y-12224232D01*
X39741789Y-12191789D01*
X39774232Y-12170112D01*
X39812500Y-12162500D01*
X42187500Y-12162500D01*
X42225768Y-12170112D01*
G37*
G36*
X45260561Y-12198074D02*
G01*
X45452705Y-12260505D01*
X45632717Y-12352226D01*
X45796164Y-12470977D01*
X45939023Y-12613836D01*
X46057774Y-12777283D01*
X46149495Y-12957295D01*
X46211926Y-13149439D01*
X46243531Y-13348984D01*
X46243531Y-13551016D01*
X46211926Y-13750561D01*
X46149495Y-13942705D01*
X46057774Y-14122717D01*
X45939023Y-14286164D01*
X45796164Y-14429023D01*
X45632717Y-14547774D01*
X45452705Y-14639495D01*
X45260561Y-14701926D01*
X45061016Y-14733531D01*
X44858984Y-14733531D01*
X44659439Y-14701926D01*
X44467295Y-14639495D01*
X44287283Y-14547774D01*
X44123836Y-14429023D01*
X43980977Y-14286164D01*
X43862226Y-14122717D01*
X43770505Y-13942705D01*
X43708074Y-13750561D01*
X43676469Y-13551016D01*
X43676469Y-13348984D01*
X43708074Y-13149439D01*
X43770505Y-12957295D01*
X43862226Y-12777283D01*
X43980977Y-12613836D01*
X44123836Y-12470977D01*
X44287283Y-12352226D01*
X44467295Y-12260505D01*
X44659439Y-12198074D01*
X44858984Y-12166469D01*
X45061016Y-12166469D01*
X45260561Y-12198074D01*
G37*
G36*
X29114805Y-6722836D02*
G01*
X29182628Y-6761994D01*
X29238006Y-6817372D01*
X29277164Y-6885195D01*
X29297433Y-6960842D01*
X29297433Y-7039158D01*
X29277164Y-7114805D01*
X29238006Y-7182628D01*
X29182628Y-7238006D01*
X29114805Y-7277164D01*
X29039158Y-7297433D01*
X28960842Y-7297433D01*
X28885195Y-7277164D01*
X28817372Y-7238006D01*
X28761994Y-7182628D01*
X28722836Y-7114805D01*
X28702567Y-7039158D01*
X28702567Y-6960842D01*
X28722836Y-6885195D01*
X28761994Y-6817372D01*
X28817372Y-6761994D01*
X28885195Y-6722836D01*
X28960842Y-6702567D01*
X29039158Y-6702567D01*
X29114805Y-6722836D01*
G37*
G36*
X29864805Y-6722836D02*
G01*
X29932628Y-6761994D01*
X29988006Y-6817372D01*
X30027164Y-6885195D01*
X30047433Y-6960842D01*
X30047433Y-7039158D01*
X30027164Y-7114805D01*
X29988006Y-7182628D01*
X29932628Y-7238006D01*
X29864805Y-7277164D01*
X29789158Y-7297433D01*
X29710842Y-7297433D01*
X29635195Y-7277164D01*
X29567372Y-7238006D01*
X29511994Y-7182628D01*
X29472836Y-7114805D01*
X29452567Y-7039158D01*
X29452567Y-6960842D01*
X29472836Y-6885195D01*
X29511994Y-6817372D01*
X29567372Y-6761994D01*
X29635195Y-6722836D01*
X29710842Y-6702567D01*
X29789158Y-6702567D01*
X29864805Y-6722836D01*
G37*
G36*
X30614805Y-6722836D02*
G01*
X30682628Y-6761994D01*
X30738006Y-6817372D01*
X30777164Y-6885195D01*
X30797433Y-6960842D01*
X30797433Y-7039158D01*
X30777164Y-7114805D01*
X30738006Y-7182628D01*
X30682628Y-7238006D01*
X30614805Y-7277164D01*
X30539158Y-7297433D01*
X30460842Y-7297433D01*
X30385195Y-7277164D01*
X30317372Y-7238006D01*
X30261994Y-7182628D01*
X30222836Y-7114805D01*
X30202567Y-7039158D01*
X30202567Y-6960842D01*
X30222836Y-6885195D01*
X30261994Y-6817372D01*
X30317372Y-6761994D01*
X30385195Y-6722836D01*
X30460842Y-6702567D01*
X30539158Y-6702567D01*
X30614805Y-6722836D01*
G37*
G36*
X31364805Y-6722836D02*
G01*
X31432628Y-6761994D01*
X31488006Y-6817372D01*
X31527164Y-6885195D01*
X31547433Y-6960842D01*
X31547433Y-7039158D01*
X31527164Y-7114805D01*
X31488006Y-7182628D01*
X31432628Y-7238006D01*
X31364805Y-7277164D01*
X31289158Y-7297433D01*
X31210842Y-7297433D01*
X31135195Y-7277164D01*
X31067372Y-7238006D01*
X31011994Y-7182628D01*
X30972836Y-7114805D01*
X30952567Y-7039158D01*
X30952567Y-6960842D01*
X30972836Y-6885195D01*
X31011994Y-6817372D01*
X31067372Y-6761994D01*
X31135195Y-6722836D01*
X31210842Y-6702567D01*
X31289158Y-6702567D01*
X31364805Y-6722836D01*
G37*
G36*
X32114805Y-6722836D02*
G01*
X32182628Y-6761994D01*
X32238006Y-6817372D01*
X32277164Y-6885195D01*
X32297433Y-6960842D01*
X32297433Y-7039158D01*
X32277164Y-7114805D01*
X32238006Y-7182628D01*
X32182628Y-7238006D01*
X32114805Y-7277164D01*
X32039158Y-7297433D01*
X31960842Y-7297433D01*
X31885195Y-7277164D01*
X31817372Y-7238006D01*
X31761994Y-7182628D01*
X31722836Y-7114805D01*
X31702567Y-7039158D01*
X31702567Y-6960842D01*
X31722836Y-6885195D01*
X31761994Y-6817372D01*
X31817372Y-6761994D01*
X31885195Y-6722836D01*
X31960842Y-6702567D01*
X32039158Y-6702567D01*
X32114805Y-6722836D01*
G37*
G36*
X32864805Y-6722836D02*
G01*
X32932628Y-6761994D01*
X32988006Y-6817372D01*
X33027164Y-6885195D01*
X33047433Y-6960842D01*
X33047433Y-7039158D01*
X33027164Y-7114805D01*
X32988006Y-7182628D01*
X32932628Y-7238006D01*
X32864805Y-7277164D01*
X32789158Y-7297433D01*
X32710842Y-7297433D01*
X32635195Y-7277164D01*
X32567372Y-7238006D01*
X32511994Y-7182628D01*
X32472836Y-7114805D01*
X32452567Y-7039158D01*
X32452567Y-6960842D01*
X32472836Y-6885195D01*
X32511994Y-6817372D01*
X32567372Y-6761994D01*
X32635195Y-6722836D01*
X32710842Y-6702567D01*
X32789158Y-6702567D01*
X32864805Y-6722836D01*
G37*
G36*
X33614805Y-6722836D02*
G01*
X33682628Y-6761994D01*
X33738006Y-6817372D01*
X33777164Y-6885195D01*
X33797433Y-6960842D01*
X33797433Y-7039158D01*
X33777164Y-7114805D01*
X33738006Y-7182628D01*
X33682628Y-7238006D01*
X33614805Y-7277164D01*
X33539158Y-7297433D01*
X33460842Y-7297433D01*
X33385195Y-7277164D01*
X33317372Y-7238006D01*
X33261994Y-7182628D01*
X33222836Y-7114805D01*
X33202567Y-7039158D01*
X33202567Y-6960842D01*
X33222836Y-6885195D01*
X33261994Y-6817372D01*
X33317372Y-6761994D01*
X33385195Y-6722836D01*
X33460842Y-6702567D01*
X33539158Y-6702567D01*
X33614805Y-6722836D01*
G37*
G36*
X34364805Y-6722836D02*
G01*
X34432628Y-6761994D01*
X34488006Y-6817372D01*
X34527164Y-6885195D01*
X34547433Y-6960842D01*
X34547433Y-7039158D01*
X34527164Y-7114805D01*
X34488006Y-7182628D01*
X34432628Y-7238006D01*
X34364805Y-7277164D01*
X34289158Y-7297433D01*
X34210842Y-7297433D01*
X34135195Y-7277164D01*
X34067372Y-7238006D01*
X34011994Y-7182628D01*
X33972836Y-7114805D01*
X33952567Y-7039158D01*
X33952567Y-6960842D01*
X33972836Y-6885195D01*
X34011994Y-6817372D01*
X34067372Y-6761994D01*
X34135195Y-6722836D01*
X34210842Y-6702567D01*
X34289158Y-6702567D01*
X34364805Y-6722836D01*
G37*
G36*
X35114805Y-6722836D02*
G01*
X35182628Y-6761994D01*
X35238006Y-6817372D01*
X35277164Y-6885195D01*
X35297433Y-6960842D01*
X35297433Y-7039158D01*
X35277164Y-7114805D01*
X35238006Y-7182628D01*
X35182628Y-7238006D01*
X35114805Y-7277164D01*
X35039158Y-7297433D01*
X34960842Y-7297433D01*
X34885195Y-7277164D01*
X34817372Y-7238006D01*
X34761994Y-7182628D01*
X34722836Y-7114805D01*
X34702567Y-7039158D01*
X34702567Y-6960842D01*
X34722836Y-6885195D01*
X34761994Y-6817372D01*
X34817372Y-6761994D01*
X34885195Y-6722836D01*
X34960842Y-6702567D01*
X35039158Y-6702567D01*
X35114805Y-6722836D01*
G37*
G36*
X29114805Y-4722836D02*
G01*
X29182628Y-4761994D01*
X29238006Y-4817372D01*
X29277164Y-4885195D01*
X29297433Y-4960842D01*
X29297433Y-5039158D01*
X29277164Y-5114805D01*
X29238006Y-5182628D01*
X29182628Y-5238006D01*
X29114805Y-5277164D01*
X29039158Y-5297433D01*
X28960842Y-5297433D01*
X28885195Y-5277164D01*
X28817372Y-5238006D01*
X28761994Y-5182628D01*
X28722836Y-5114805D01*
X28702567Y-5039158D01*
X28702567Y-4960842D01*
X28722836Y-4885195D01*
X28761994Y-4817372D01*
X28817372Y-4761994D01*
X28885195Y-4722836D01*
X28960842Y-4702567D01*
X29039158Y-4702567D01*
X29114805Y-4722836D01*
G37*
G36*
X29864805Y-4722836D02*
G01*
X29932628Y-4761994D01*
X29988006Y-4817372D01*
X30027164Y-4885195D01*
X30047433Y-4960842D01*
X30047433Y-5039158D01*
X30027164Y-5114805D01*
X29988006Y-5182628D01*
X29932628Y-5238006D01*
X29864805Y-5277164D01*
X29789158Y-5297433D01*
X29710842Y-5297433D01*
X29635195Y-5277164D01*
X29567372Y-5238006D01*
X29511994Y-5182628D01*
X29472836Y-5114805D01*
X29452567Y-5039158D01*
X29452567Y-4960842D01*
X29472836Y-4885195D01*
X29511994Y-4817372D01*
X29567372Y-4761994D01*
X29635195Y-4722836D01*
X29710842Y-4702567D01*
X29789158Y-4702567D01*
X29864805Y-4722836D01*
G37*
G36*
X30614805Y-4722836D02*
G01*
X30682628Y-4761994D01*
X30738006Y-4817372D01*
X30777164Y-4885195D01*
X30797433Y-4960842D01*
X30797433Y-5039158D01*
X30777164Y-5114805D01*
X30738006Y-5182628D01*
X30682628Y-5238006D01*
X30614805Y-5277164D01*
X30539158Y-5297433D01*
X30460842Y-5297433D01*
X30385195Y-5277164D01*
X30317372Y-5238006D01*
X30261994Y-5182628D01*
X30222836Y-5114805D01*
X30202567Y-5039158D01*
X30202567Y-4960842D01*
X30222836Y-4885195D01*
X30261994Y-4817372D01*
X30317372Y-4761994D01*
X30385195Y-4722836D01*
X30460842Y-4702567D01*
X30539158Y-4702567D01*
X30614805Y-4722836D01*
G37*
G36*
X31364805Y-4722836D02*
G01*
X31432628Y-4761994D01*
X31488006Y-4817372D01*
X31527164Y-4885195D01*
X31547433Y-4960842D01*
X31547433Y-5039158D01*
X31527164Y-5114805D01*
X31488006Y-5182628D01*
X31432628Y-5238006D01*
X31364805Y-5277164D01*
X31289158Y-5297433D01*
X31210842Y-5297433D01*
X31135195Y-5277164D01*
X31067372Y-5238006D01*
X31011994Y-5182628D01*
X30972836Y-5114805D01*
X30952567Y-5039158D01*
X30952567Y-4960842D01*
X30972836Y-4885195D01*
X31011994Y-4817372D01*
X31067372Y-4761994D01*
X31135195Y-4722836D01*
X31210842Y-4702567D01*
X31289158Y-4702567D01*
X31364805Y-4722836D01*
G37*
G36*
X32114805Y-4722836D02*
G01*
X32182628Y-4761994D01*
X32238006Y-4817372D01*
X32277164Y-4885195D01*
X32297433Y-4960842D01*
X32297433Y-5039158D01*
X32277164Y-5114805D01*
X32238006Y-5182628D01*
X32182628Y-5238006D01*
X32114805Y-5277164D01*
X32039158Y-5297433D01*
X31960842Y-5297433D01*
X31885195Y-5277164D01*
X31817372Y-5238006D01*
X31761994Y-5182628D01*
X31722836Y-5114805D01*
X31702567Y-5039158D01*
X31702567Y-4960842D01*
X31722836Y-4885195D01*
X31761994Y-4817372D01*
X31817372Y-4761994D01*
X31885195Y-4722836D01*
X31960842Y-4702567D01*
X32039158Y-4702567D01*
X32114805Y-4722836D01*
G37*
G36*
X32864805Y-4722836D02*
G01*
X32932628Y-4761994D01*
X32988006Y-4817372D01*
X33027164Y-4885195D01*
X33047433Y-4960842D01*
X33047433Y-5039158D01*
X33027164Y-5114805D01*
X32988006Y-5182628D01*
X32932628Y-5238006D01*
X32864805Y-5277164D01*
X32789158Y-5297433D01*
X32710842Y-5297433D01*
X32635195Y-5277164D01*
X32567372Y-5238006D01*
X32511994Y-5182628D01*
X32472836Y-5114805D01*
X32452567Y-5039158D01*
X32452567Y-4960842D01*
X32472836Y-4885195D01*
X32511994Y-4817372D01*
X32567372Y-4761994D01*
X32635195Y-4722836D01*
X32710842Y-4702567D01*
X32789158Y-4702567D01*
X32864805Y-4722836D01*
G37*
G36*
X33614805Y-4722836D02*
G01*
X33682628Y-4761994D01*
X33738006Y-4817372D01*
X33777164Y-4885195D01*
X33797433Y-4960842D01*
X33797433Y-5039158D01*
X33777164Y-5114805D01*
X33738006Y-5182628D01*
X33682628Y-5238006D01*
X33614805Y-5277164D01*
X33539158Y-5297433D01*
X33460842Y-5297433D01*
X33385195Y-5277164D01*
X33317372Y-5238006D01*
X33261994Y-5182628D01*
X33222836Y-5114805D01*
X33202567Y-5039158D01*
X33202567Y-4960842D01*
X33222836Y-4885195D01*
X33261994Y-4817372D01*
X33317372Y-4761994D01*
X33385195Y-4722836D01*
X33460842Y-4702567D01*
X33539158Y-4702567D01*
X33614805Y-4722836D01*
G37*
G36*
X34364805Y-4722836D02*
G01*
X34432628Y-4761994D01*
X34488006Y-4817372D01*
X34527164Y-4885195D01*
X34547433Y-4960842D01*
X34547433Y-5039158D01*
X34527164Y-5114805D01*
X34488006Y-5182628D01*
X34432628Y-5238006D01*
X34364805Y-5277164D01*
X34289158Y-5297433D01*
X34210842Y-5297433D01*
X34135195Y-5277164D01*
X34067372Y-5238006D01*
X34011994Y-5182628D01*
X33972836Y-5114805D01*
X33952567Y-5039158D01*
X33952567Y-4960842D01*
X33972836Y-4885195D01*
X34011994Y-4817372D01*
X34067372Y-4761994D01*
X34135195Y-4722836D01*
X34210842Y-4702567D01*
X34289158Y-4702567D01*
X34364805Y-4722836D01*
G37*
G36*
X35114805Y-4722836D02*
G01*
X35182628Y-4761994D01*
X35238006Y-4817372D01*
X35277164Y-4885195D01*
X35297433Y-4960842D01*
X35297433Y-5039158D01*
X35277164Y-5114805D01*
X35238006Y-5182628D01*
X35182628Y-5238006D01*
X35114805Y-5277164D01*
X35039158Y-5297433D01*
X34960842Y-5297433D01*
X34885195Y-5277164D01*
X34817372Y-5238006D01*
X34761994Y-5182628D01*
X34722836Y-5114805D01*
X34702567Y-5039158D01*
X34702567Y-4960842D01*
X34722836Y-4885195D01*
X34761994Y-4817372D01*
X34817372Y-4761994D01*
X34885195Y-4722836D01*
X34960842Y-4702567D01*
X35039158Y-4702567D01*
X35114805Y-4722836D01*
G37*
M02*
