M48
; DRILL file {KiCad 9.0.6} date 2026-03-30T20:54:45+0900
; FORMAT={-:-/ absolute / inch / decimal}
; #@! TF.CreationDate,2026-03-30T20:54:45+09:00
; #@! TF.GenerationSoftware,Kicad,Pcbnew,9.0.6
; #@! TF.FileFunction,NonPlated,1,4,NPTH
FMAT,2
INCH
; #@! TA.AperFunction,NonPlated,NPTH,ComponentDrill
T1C0.0197
%
G90
G05
T1
X0.1969Y-0.9449
X0.1969Y-0.9744
X0.1969Y-1.0039
X0.1969Y-1.0335
X0.1969Y-1.063
X0.1969Y-1.0925
X0.1969Y-1.122
X0.1969Y-1.1516
X0.1969Y-1.1811
X0.2756Y-0.9449
X0.2756Y-0.9744
X0.2756Y-1.0039
X0.2756Y-1.0335
X0.2756Y-1.063
X0.2756Y-1.0925
X0.2756Y-1.122
X0.2756Y-1.1516
X0.2756Y-1.1811
X1.1417Y-0.1969
X1.1417Y-0.2756
X1.1417Y-1.8504
X1.1417Y-1.9291
X1.1713Y-0.1969
X1.1713Y-0.2756
X1.1713Y-1.8504
X1.1713Y-1.9291
X1.2008Y-0.1969
X1.2008Y-0.2756
X1.2008Y-1.8504
X1.2008Y-1.9291
X1.2303Y-0.1969
X1.2303Y-0.2756
X1.2303Y-1.8504
X1.2303Y-1.9291
X1.2598Y-0.1969
X1.2598Y-0.2756
X1.2598Y-1.8504
X1.2598Y-1.9291
X1.2894Y-0.1969
X1.2894Y-0.2756
X1.2894Y-1.8504
X1.2894Y-1.9291
X1.3189Y-0.1969
X1.3189Y-0.2756
X1.3189Y-1.8504
X1.3189Y-1.9291
X1.3484Y-0.1969
X1.3484Y-0.2756
X1.3484Y-1.8504
X1.3484Y-1.9291
X1.378Y-0.1969
X1.378Y-0.2756
X1.378Y-1.8504
X1.378Y-1.9291
X2.2441Y-0.9449
X2.2441Y-0.9744
X2.2441Y-1.0039
X2.2441Y-1.0335
X2.2441Y-1.063
X2.2441Y-1.0925
X2.2441Y-1.122
X2.2441Y-1.1516
X2.2441Y-1.1811
X2.3228Y-0.9449
X2.3228Y-0.9744
X2.3228Y-1.0039
X2.3228Y-1.0335
X2.3228Y-1.063
X2.3228Y-1.0925
X2.3228Y-1.122
X2.3228Y-1.1516
X2.3228Y-1.1811
M30
