%TF.GenerationSoftware,KiCad,Pcbnew,9.0.6*%
%TF.CreationDate,2026-03-30T21:11:11+09:00*%
%TF.ProjectId,Latch-Circuit,4c617463-682d-4436-9972-637569742e6b,rev?*%
%TF.SameCoordinates,Original*%
%TF.FileFunction,Copper,L3,Inr*%
%TF.FilePolarity,Positive*%
%FSLAX46Y46*%
G04 Gerber Fmt 4.6, Leading zero omitted, Abs format (unit mm)*
G04 Created by KiCad (PCBNEW 9.0.6) date 2026-03-30 21:11:11*
%MOMM*%
%LPD*%
G01*
G04 APERTURE LIST*
G04 Aperture macros list*
%AMRoundRect*
0 Rectangle with rounded corners*
0 $1 Rounding radius*
0 $2 $3 $4 $5 $6 $7 $8 $9 X,Y pos of 4 corners*
0 Add a 4 corners polygon primitive as box body*
4,1,4,$2,$3,$4,$5,$6,$7,$8,$9,$2,$3,0*
0 Add four circle primitives for the rounded corners*
1,1,$1+$1,$2,$3*
1,1,$1+$1,$4,$5*
1,1,$1+$1,$6,$7*
1,1,$1+$1,$8,$9*
0 Add four rect primitives between the rounded corners*
20,1,$1+$1,$2,$3,$4,$5,0*
20,1,$1+$1,$4,$5,$6,$7,0*
20,1,$1+$1,$6,$7,$8,$9,0*
20,1,$1+$1,$8,$9,$2,$3,0*%
G04 Aperture macros list end*
%TA.AperFunction,ComponentPad*%
%ADD10C,0.900000*%
%TD*%
%TA.AperFunction,ComponentPad*%
%ADD11C,8.600000*%
%TD*%
%TA.AperFunction,ComponentPad*%
%ADD12RoundRect,0.050000X-1.187500X-1.187500X1.187500X-1.187500X1.187500X1.187500X-1.187500X1.187500X0*%
%TD*%
%TA.AperFunction,ComponentPad*%
%ADD13C,2.475000*%
%TD*%
%TA.AperFunction,ComponentPad*%
%ADD14C,3.615000*%
%TD*%
%TA.AperFunction,ViaPad*%
%ADD15C,0.450000*%
%TD*%
%TA.AperFunction,Conductor*%
%ADD16C,0.150000*%
%TD*%
G04 APERTURE END LIST*
D10*
%TO.N,Chassis*%
%TO.C,H1*%
X8775000Y-12000000D03*
X9719581Y-9719581D03*
X9719581Y-14280419D03*
X12000000Y-8775000D03*
D11*
X12000000Y-12000000D03*
D10*
X12000000Y-15225000D03*
X14280419Y-9719581D03*
X14280419Y-14280419D03*
X15225000Y-12000000D03*
%TD*%
%TO.N,unconnected-(H2-PadMP)_2*%
%TO.C,H2*%
X8775000Y-42000000D03*
%TO.N,unconnected-(H2-PadMP)_4*%
X9719581Y-39719581D03*
%TO.N,unconnected-(H2-PadMP)_8*%
X9719581Y-44280419D03*
%TO.N,unconnected-(H2-PadMP)_7*%
X12000000Y-38775000D03*
D11*
%TO.N,unconnected-(H2-PadMP)*%
X12000000Y-42000000D03*
D10*
%TO.N,unconnected-(H2-PadMP)_5*%
X12000000Y-45225000D03*
%TO.N,unconnected-(H2-PadMP)_3*%
X14280419Y-39719581D03*
%TO.N,unconnected-(H2-PadMP)_6*%
X14280419Y-44280419D03*
%TO.N,unconnected-(H2-PadMP)_1*%
X15225000Y-42000000D03*
%TD*%
D12*
%TO.N,/SHDN_IN*%
%TO.C,J3*%
X41000000Y-13450000D03*
D13*
%TO.N,/SHDN_OUT*%
X44960000Y-13450000D03*
%TD*%
D14*
%TO.N,GND*%
%TO.C,J2*%
X44650000Y-38500000D03*
X31350000Y-38500000D03*
%TD*%
D10*
%TO.N,unconnected-(H3-PadMP)_3*%
%TO.C,H3*%
X48775000Y-42000000D03*
%TO.N,unconnected-(H3-PadMP)_2*%
X49719581Y-39719581D03*
%TO.N,unconnected-(H3-PadMP)_8*%
X49719581Y-44280419D03*
%TO.N,unconnected-(H3-PadMP)_5*%
X52000000Y-38775000D03*
D11*
%TO.N,unconnected-(H3-PadMP)*%
X52000000Y-42000000D03*
D10*
%TO.N,unconnected-(H3-PadMP)_1*%
X52000000Y-45225000D03*
%TO.N,unconnected-(H3-PadMP)_4*%
X54280419Y-39719581D03*
%TO.N,unconnected-(H3-PadMP)_7*%
X54280419Y-44280419D03*
%TO.N,unconnected-(H3-PadMP)_6*%
X55225000Y-42000000D03*
%TD*%
D14*
%TO.N,GND*%
%TO.C,J1*%
X26715000Y-42500000D03*
X19285000Y-42500000D03*
%TD*%
%TO.N,GND*%
%TO.C,J4*%
X53150000Y-26000000D03*
X42850000Y-26000000D03*
%TD*%
D10*
%TO.N,unconnected-(H4-PadMP)_2*%
%TO.C,H4*%
X48775000Y-12000000D03*
%TO.N,unconnected-(H4-PadMP)_7*%
X49719581Y-9719581D03*
%TO.N,unconnected-(H4-PadMP)_4*%
X49719581Y-14280419D03*
%TO.N,unconnected-(H4-PadMP)_8*%
X52000000Y-8775000D03*
D11*
%TO.N,unconnected-(H4-PadMP)_3*%
X52000000Y-12000000D03*
D10*
%TO.N,unconnected-(H4-PadMP)_6*%
X52000000Y-15225000D03*
%TO.N,unconnected-(H4-PadMP)_5*%
X54280419Y-9719581D03*
%TO.N,unconnected-(H4-PadMP)_1*%
X54280419Y-14280419D03*
%TO.N,unconnected-(H4-PadMP)*%
X55225000Y-12000000D03*
%TD*%
D15*
%TO.N,+12V*%
X21250000Y-28750000D03*
X20500000Y-28000000D03*
X24000000Y-21000000D03*
X22000000Y-28750000D03*
X32750000Y-31000000D03*
X46500000Y-24250000D03*
X35000000Y-20250000D03*
X21000000Y-30250000D03*
X35750000Y-21250000D03*
X27250000Y-20250000D03*
X20500000Y-29500000D03*
X22000000Y-20250000D03*
X21250000Y-28000000D03*
X35750000Y-39750000D03*
X48000000Y-24250000D03*
X22000000Y-28000000D03*
X28000000Y-28750000D03*
X20500000Y-28750000D03*
X20500000Y-26000000D03*
X49500000Y-24250000D03*
%TO.N,GND*%
X7750000Y-22000000D03*
X29750000Y-11000000D03*
X38000000Y-43250000D03*
X36250000Y-15500000D03*
X46750000Y-17250000D03*
X26750000Y-37000000D03*
X17500000Y-16250000D03*
X56250000Y-37000000D03*
X45000000Y-18750000D03*
X32000000Y-35750000D03*
X27000000Y-15500000D03*
X36250000Y-26500000D03*
X49500000Y-30750000D03*
X38500000Y-15500000D03*
X30250000Y-31000000D03*
X27000000Y-7750000D03*
X32000000Y-32750000D03*
X48750000Y-27750000D03*
X17750000Y-38000000D03*
X36250000Y-16500000D03*
X56250000Y-32000000D03*
X17500000Y-14000000D03*
X44250000Y-28500000D03*
X22000000Y-7750000D03*
X51000000Y-32500000D03*
X7750000Y-39500000D03*
X17000000Y-46250000D03*
X32000000Y-46250000D03*
X31500000Y-15500000D03*
X56250000Y-14500000D03*
X49500000Y-46250000D03*
X40000000Y-27750000D03*
X10000000Y-19500000D03*
X11750000Y-25500000D03*
X49500000Y-7750000D03*
X34750000Y-25000000D03*
X17000000Y-42000000D03*
X43750000Y-30750000D03*
X7750000Y-24500000D03*
X17500000Y-34000000D03*
X19500000Y-7750000D03*
X36750000Y-38500000D03*
X25500000Y-23000000D03*
X47000000Y-7750000D03*
X46250000Y-20000000D03*
X23000000Y-22250000D03*
X42000000Y-46250000D03*
X23000000Y-40250000D03*
X24500000Y-7750000D03*
X43000000Y-14250000D03*
X19750000Y-34000000D03*
X16250000Y-44500000D03*
X7750000Y-29500000D03*
X19750000Y-17750000D03*
X28500000Y-32750000D03*
X28500000Y-35750000D03*
X56250000Y-17000000D03*
X39750000Y-36250000D03*
X25000000Y-25000000D03*
X56250000Y-24500000D03*
X29250000Y-17250000D03*
X44500000Y-46250000D03*
X14000000Y-24750000D03*
X47250000Y-27750000D03*
X36750000Y-40250000D03*
X17500000Y-19500000D03*
X33750000Y-17250000D03*
X42500000Y-17750000D03*
X27000000Y-46250000D03*
X56250000Y-22000000D03*
X32000000Y-7750000D03*
X22750000Y-11000000D03*
X47000000Y-13500000D03*
X32250000Y-43250000D03*
X24000000Y-31000000D03*
X19750000Y-21750000D03*
X44750000Y-17250000D03*
X14000000Y-32250000D03*
X25000000Y-33750000D03*
X35000000Y-40250000D03*
X14250000Y-19500000D03*
X20250000Y-40250000D03*
X20000000Y-10000000D03*
X42000000Y-7750000D03*
X24500000Y-46250000D03*
X50250000Y-26000000D03*
X39500000Y-46250000D03*
X14000000Y-30750000D03*
X11750000Y-34500000D03*
X41000000Y-35250000D03*
X45000000Y-32500000D03*
X32750000Y-41250000D03*
X19750000Y-23750000D03*
X20750000Y-20250000D03*
X27250000Y-31000000D03*
X40250000Y-19000000D03*
X17750000Y-40250000D03*
X28000000Y-11000000D03*
X39000000Y-30750000D03*
X56250000Y-29500000D03*
X24500000Y-15500000D03*
X17750000Y-23750000D03*
X10500000Y-22250000D03*
X34500000Y-46250000D03*
X50250000Y-19500000D03*
X26250000Y-11000000D03*
X17500000Y-7750000D03*
X26500000Y-17250000D03*
X34750000Y-36750000D03*
X43750000Y-34750000D03*
X41250000Y-15500000D03*
X48750000Y-17250000D03*
X21000000Y-11000000D03*
X38500000Y-17250000D03*
X35000000Y-41750000D03*
X50250000Y-28500000D03*
X12000000Y-19500000D03*
X13500000Y-22250000D03*
X56250000Y-39500000D03*
X31500000Y-17250000D03*
X41000000Y-43250000D03*
X29250000Y-15500000D03*
X47000000Y-11000000D03*
X35000000Y-11000000D03*
X56250000Y-34500000D03*
X23000000Y-37750000D03*
X38250000Y-26500000D03*
X23750000Y-35250000D03*
X16000000Y-23750000D03*
X24000000Y-24000000D03*
X24250000Y-18000000D03*
X49250000Y-21250000D03*
X37250000Y-30750000D03*
X50750000Y-18000000D03*
X25750000Y-31500000D03*
X19750000Y-19250000D03*
X35500000Y-30750000D03*
X34750000Y-38500000D03*
X47500000Y-18750000D03*
X22000000Y-35250000D03*
X45750000Y-28500000D03*
X41250000Y-36750000D03*
X51750000Y-28500000D03*
X42500000Y-32000000D03*
X11750000Y-31500000D03*
X19500000Y-46250000D03*
X52250000Y-21750000D03*
X15500000Y-38500000D03*
X29000000Y-24250000D03*
X45750000Y-26000000D03*
X40750000Y-30000000D03*
X22750000Y-18000000D03*
X22750000Y-25000000D03*
X56250000Y-27000000D03*
X29500000Y-46250000D03*
X7750000Y-27000000D03*
X41500000Y-24000000D03*
X19750000Y-15500000D03*
X14500000Y-46250000D03*
X56250000Y-19500000D03*
X22250000Y-15500000D03*
X50000000Y-23250000D03*
X44500000Y-7750000D03*
X14000000Y-26250000D03*
X15500000Y-33250000D03*
X30250000Y-33750000D03*
X36750000Y-11000000D03*
X37000000Y-7750000D03*
X7750000Y-34500000D03*
X44000000Y-43250000D03*
X34750000Y-22000000D03*
X33750000Y-15500000D03*
X33250000Y-11000000D03*
X20000000Y-35250000D03*
X40750000Y-33500000D03*
X46750000Y-21750000D03*
X45750000Y-9250000D03*
X9500000Y-37750000D03*
X14000000Y-29250000D03*
X12000000Y-37000000D03*
X48500000Y-15500000D03*
X26000000Y-35250000D03*
X26750000Y-39000000D03*
X39750000Y-25250000D03*
X47000000Y-46250000D03*
X51750000Y-19500000D03*
X37000000Y-46250000D03*
X39500000Y-7750000D03*
X36750000Y-36750000D03*
X16000000Y-17750000D03*
X14000000Y-27750000D03*
X34500000Y-7750000D03*
X46500000Y-30750000D03*
X52250000Y-30750000D03*
X48000000Y-32500000D03*
X45750000Y-15500000D03*
X14000000Y-33750000D03*
X18000000Y-36000000D03*
X11750000Y-28500000D03*
X53250000Y-16750000D03*
X7750000Y-19500000D03*
X7750000Y-32000000D03*
X14000000Y-35250000D03*
X44750000Y-24000000D03*
X7750000Y-37000000D03*
X29500000Y-7750000D03*
X22000000Y-46250000D03*
X20250000Y-38500000D03*
%TO.N,RST*%
X27000000Y-32000000D03*
%TO.N,Net-(Q2-G)*%
X38250000Y-31000000D03*
%TO.N,Net-(Q3-G)*%
X34750000Y-31000000D03*
%TO.N,Net-(Q4-G)*%
X31250000Y-31000000D03*
%TO.N,Chassis*%
X16750000Y-10250000D03*
X14750000Y-17750000D03*
X16750000Y-12750000D03*
X16750000Y-7750000D03*
X7750000Y-18750000D03*
X9500000Y-18750000D03*
X16750000Y-15750000D03*
X12000000Y-18750000D03*
%TO.N,Net-(D1-A)*%
X25250000Y-32500000D03*
%TO.N,Net-(D2-A)*%
X12500000Y-34500000D03*
%TO.N,BSPD_STATUS*%
X33750000Y-36000000D03*
%TO.N,IMD_STATUS*%
X37250000Y-36000000D03*
%TO.N,BMS_STATUS*%
X40750000Y-36000000D03*
%TO.N,/RST_SW2*%
X30000000Y-35000000D03*
%TO.N,/RST_SW1*%
X33500000Y-41000000D03*
%TO.N,Net-(D4-A)*%
X12500000Y-25500000D03*
%TO.N,Net-(D5-A)*%
X12500000Y-28500000D03*
%TO.N,Net-(D6-A)*%
X12500000Y-31500000D03*
%TO.N,/BSPD_LED_A*%
X48000000Y-29000000D03*
%TO.N,/IMD_LED_A*%
X45000000Y-29000000D03*
%TO.N,/BMS_LED_A*%
X51000000Y-29000000D03*
%TO.N,~{BMS_STATUS}*%
X38250000Y-28250000D03*
X16000000Y-26750000D03*
%TO.N,~{IMD_STATUS}*%
X15500000Y-29250000D03*
X34750000Y-28250000D03*
%TO.N,~{BSPD_STATUS}*%
X16500000Y-33250000D03*
X31250000Y-28250000D03*
%TO.N,BMS_LED_K*%
X37000000Y-22250000D03*
X19750000Y-24500000D03*
%TO.N,BMS_RLY_OFF*%
X37250000Y-18750000D03*
X20000000Y-18500000D03*
%TO.N,Net-(D7-A)*%
X16500000Y-25500000D03*
%TO.N,IMD_RLY_OFF*%
X39750000Y-22250000D03*
X27000000Y-18000000D03*
%TO.N,BSPD_RLY_OFF*%
X34750000Y-17250000D03*
X40500000Y-23000000D03*
%TO.N,Net-(D8-A)*%
X16500000Y-28500000D03*
%TO.N,BMS_FAULT*%
X25750000Y-23750000D03*
%TO.N,IMD_FAULT*%
X27250000Y-23750000D03*
%TO.N,BSPD_FAULT*%
X27250000Y-25000000D03*
%TO.N,IMD_LED_K*%
X37000000Y-23500000D03*
X19750000Y-27000000D03*
%TO.N,Net-(D9-A)*%
X16500000Y-31500000D03*
%TO.N,BSPD_LED_K*%
X37000000Y-24750000D03*
X19750000Y-30000000D03*
%TO.N,Net-(U5-I1)*%
X31000000Y-22000000D03*
%TO.N,Net-(U5-I3)*%
X31000000Y-23500000D03*
%TO.N,Net-(U5-I5)*%
X31000000Y-25000000D03*
%TD*%
D16*
%TO.N,+12V*%
X28000000Y-28750000D02*
X28000000Y-29750000D01*
%TD*%
%TA.AperFunction,Conductor*%
%TO.N,GND*%
G36*
X34687001Y-7397217D02*
G01*
X34692684Y-7400498D01*
X34692686Y-7400500D01*
X34786444Y-7454631D01*
X34804889Y-7465281D01*
X34806814Y-7466392D01*
X34934108Y-7500500D01*
X34934110Y-7500500D01*
X35065889Y-7500500D01*
X35065892Y-7500500D01*
X35157837Y-7475862D01*
X35209324Y-7473165D01*
X35381908Y-7500500D01*
X35434108Y-7500500D01*
X50354264Y-7500500D01*
X50421303Y-7520185D01*
X50467058Y-7572989D01*
X50477002Y-7642147D01*
X50447977Y-7705703D01*
X50396674Y-7741022D01*
X50256944Y-7791878D01*
X49896819Y-7959807D01*
X49896804Y-7959815D01*
X49552697Y-8158486D01*
X49552671Y-8158502D01*
X49227190Y-8386406D01*
X48922795Y-8641825D01*
X48641825Y-8922795D01*
X48386406Y-9227190D01*
X48158502Y-9552671D01*
X48158486Y-9552697D01*
X47959815Y-9896804D01*
X47959807Y-9896819D01*
X47791878Y-10256944D01*
X47655974Y-10630341D01*
X47553135Y-11014145D01*
X47553132Y-11014158D01*
X47484132Y-11405472D01*
X47449500Y-11801317D01*
X47449500Y-12198682D01*
X47484132Y-12594527D01*
X47553132Y-12985841D01*
X47553135Y-12985854D01*
X47655974Y-13369658D01*
X47791878Y-13743055D01*
X47959807Y-14103180D01*
X47959812Y-14103189D01*
X48158491Y-14447311D01*
X48158495Y-14447317D01*
X48158502Y-14447328D01*
X48386406Y-14772809D01*
X48571023Y-14992826D01*
X48641823Y-15077202D01*
X48922798Y-15358177D01*
X49049361Y-15464376D01*
X49227190Y-15613593D01*
X49552671Y-15841497D01*
X49552678Y-15841501D01*
X49552689Y-15841509D01*
X49738242Y-15948638D01*
X49896804Y-16040184D01*
X49896819Y-16040192D01*
X50256944Y-16208121D01*
X50536054Y-16309708D01*
X50630335Y-16344023D01*
X50630336Y-16344023D01*
X50630341Y-16344025D01*
X50750919Y-16376333D01*
X51014153Y-16446867D01*
X51405475Y-16515868D01*
X51801319Y-16550499D01*
X51801320Y-16550500D01*
X51801321Y-16550500D01*
X52198680Y-16550500D01*
X52198680Y-16550499D01*
X52594525Y-16515868D01*
X52985847Y-16446867D01*
X53369665Y-16344023D01*
X53718701Y-16216985D01*
X53743055Y-16208121D01*
X53743056Y-16208120D01*
X53743060Y-16208119D01*
X54103189Y-16040188D01*
X54447311Y-15841509D01*
X54772808Y-15613594D01*
X55077202Y-15358177D01*
X55358177Y-15077202D01*
X55613594Y-14772808D01*
X55841509Y-14447311D01*
X56040188Y-14103189D01*
X56208119Y-13743060D01*
X56258978Y-13603326D01*
X56300404Y-13547062D01*
X56365673Y-13522126D01*
X56434061Y-13536436D01*
X56483857Y-13585447D01*
X56499500Y-13645736D01*
X56499500Y-23618097D01*
X56526833Y-23790673D01*
X56524135Y-23842163D01*
X56499500Y-23934106D01*
X56499500Y-23934108D01*
X56499500Y-24065892D01*
X56533583Y-24193094D01*
X56533609Y-24193188D01*
X56533609Y-24193189D01*
X56602782Y-24313000D01*
X56619255Y-24380900D01*
X56602782Y-24437000D01*
X56533609Y-24556810D01*
X56533609Y-24556811D01*
X56533608Y-24556813D01*
X56533608Y-24556814D01*
X56499500Y-24684108D01*
X56499500Y-24815892D01*
X56533583Y-24943094D01*
X56533609Y-24943188D01*
X56533609Y-24943189D01*
X56602782Y-25063000D01*
X56619255Y-25130900D01*
X56602782Y-25187000D01*
X56533609Y-25306810D01*
X56533609Y-25306811D01*
X56533609Y-25306812D01*
X56533608Y-25306814D01*
X56499500Y-25434108D01*
X56499500Y-25565892D01*
X56531022Y-25683536D01*
X56533609Y-25693188D01*
X56533609Y-25693189D01*
X56602782Y-25813000D01*
X56619255Y-25880900D01*
X56602782Y-25937000D01*
X56533609Y-26056810D01*
X56533609Y-26056811D01*
X56533609Y-26056812D01*
X56533608Y-26056814D01*
X56499500Y-26184108D01*
X56499500Y-26315892D01*
X56525155Y-26411640D01*
X56533609Y-26443188D01*
X56533609Y-26443189D01*
X56602782Y-26563000D01*
X56619255Y-26630900D01*
X56602782Y-26687000D01*
X56533609Y-26806810D01*
X56533609Y-26806811D01*
X56533608Y-26806813D01*
X56533608Y-26806814D01*
X56499500Y-26934108D01*
X56499500Y-27065892D01*
X56533583Y-27193094D01*
X56533609Y-27193188D01*
X56533609Y-27193189D01*
X56602782Y-27313000D01*
X56619255Y-27380900D01*
X56602782Y-27437000D01*
X56533609Y-27556810D01*
X56533609Y-27556811D01*
X56533609Y-27556812D01*
X56533608Y-27556814D01*
X56499500Y-27684108D01*
X56499500Y-27815892D01*
X56513865Y-27869505D01*
X56533609Y-27943188D01*
X56533609Y-27943189D01*
X56602782Y-28063000D01*
X56619255Y-28130900D01*
X56602782Y-28187000D01*
X56533609Y-28306810D01*
X56533609Y-28306811D01*
X56533609Y-28306812D01*
X56533608Y-28306814D01*
X56499500Y-28434108D01*
X56499500Y-28565892D01*
X56533583Y-28693094D01*
X56533609Y-28693188D01*
X56533609Y-28693189D01*
X56602782Y-28813000D01*
X56619255Y-28880900D01*
X56602782Y-28937000D01*
X56533609Y-29056810D01*
X56533609Y-29056811D01*
X56533609Y-29056812D01*
X56533608Y-29056814D01*
X56499500Y-29184108D01*
X56499500Y-29315892D01*
X56533583Y-29443094D01*
X56533609Y-29443188D01*
X56533609Y-29443189D01*
X56602782Y-29563000D01*
X56619255Y-29630900D01*
X56602782Y-29687000D01*
X56533609Y-29806810D01*
X56533609Y-29806811D01*
X56499500Y-29934108D01*
X56499500Y-30065893D01*
X56524135Y-30157836D01*
X56526833Y-30209326D01*
X56499500Y-30381902D01*
X56499500Y-40354263D01*
X56479815Y-40421302D01*
X56427011Y-40467057D01*
X56357853Y-40477001D01*
X56294297Y-40447976D01*
X56258978Y-40396673D01*
X56208121Y-40256944D01*
X56040192Y-39896819D01*
X56040184Y-39896804D01*
X56006038Y-39837662D01*
X55841509Y-39552689D01*
X55841501Y-39552678D01*
X55841497Y-39552671D01*
X55613593Y-39227190D01*
X55358174Y-38922795D01*
X55077204Y-38641825D01*
X54772809Y-38386406D01*
X54447328Y-38158502D01*
X54447317Y-38158495D01*
X54447311Y-38158491D01*
X54342092Y-38097743D01*
X54103195Y-37959815D01*
X54103180Y-37959807D01*
X53743055Y-37791878D01*
X53369658Y-37655974D01*
X52985854Y-37553135D01*
X52985857Y-37553135D01*
X52985847Y-37553133D01*
X52930599Y-37543391D01*
X52594527Y-37484132D01*
X52198682Y-37449500D01*
X52198679Y-37449500D01*
X51801321Y-37449500D01*
X51801317Y-37449500D01*
X51405472Y-37484132D01*
X51014158Y-37553132D01*
X51014155Y-37553132D01*
X51014153Y-37553133D01*
X51014148Y-37553134D01*
X51014145Y-37553135D01*
X50630341Y-37655974D01*
X50256944Y-37791878D01*
X49896819Y-37959807D01*
X49896804Y-37959815D01*
X49552697Y-38158486D01*
X49552671Y-38158502D01*
X49227190Y-38386406D01*
X48922795Y-38641825D01*
X48641825Y-38922795D01*
X48386406Y-39227190D01*
X48158502Y-39552671D01*
X48158486Y-39552697D01*
X47959815Y-39896804D01*
X47959807Y-39896819D01*
X47791878Y-40256944D01*
X47655974Y-40630341D01*
X47553135Y-41014145D01*
X47553132Y-41014158D01*
X47484132Y-41405472D01*
X47449500Y-41801317D01*
X47449500Y-42198682D01*
X47484132Y-42594527D01*
X47553132Y-42985841D01*
X47553135Y-42985854D01*
X47655974Y-43369658D01*
X47791878Y-43743055D01*
X47959807Y-44103180D01*
X47959812Y-44103189D01*
X48158491Y-44447311D01*
X48158495Y-44447317D01*
X48158502Y-44447328D01*
X48386406Y-44772809D01*
X48426027Y-44820027D01*
X48641823Y-45077202D01*
X48922798Y-45358177D01*
X49049361Y-45464376D01*
X49227190Y-45613593D01*
X49552671Y-45841497D01*
X49552678Y-45841501D01*
X49552689Y-45841509D01*
X49641469Y-45892766D01*
X49896804Y-46040184D01*
X49896819Y-46040192D01*
X50256944Y-46208121D01*
X50396674Y-46258978D01*
X50452938Y-46300404D01*
X50477874Y-46365673D01*
X50463564Y-46434061D01*
X50414553Y-46483857D01*
X50354264Y-46499500D01*
X35381903Y-46499500D01*
X35209326Y-46526833D01*
X35157836Y-46524135D01*
X35065893Y-46499500D01*
X35065892Y-46499500D01*
X34934108Y-46499500D01*
X34806814Y-46533608D01*
X34806813Y-46533608D01*
X34806811Y-46533609D01*
X34806810Y-46533609D01*
X34687000Y-46602782D01*
X34619100Y-46619255D01*
X34563000Y-46602782D01*
X34443189Y-46533609D01*
X34443186Y-46533608D01*
X34315892Y-46499500D01*
X34184108Y-46499500D01*
X34056814Y-46533608D01*
X34056813Y-46533608D01*
X34056811Y-46533609D01*
X34056810Y-46533609D01*
X33937000Y-46602782D01*
X33869100Y-46619255D01*
X33813000Y-46602782D01*
X33693189Y-46533609D01*
X33693186Y-46533608D01*
X33565892Y-46499500D01*
X33434108Y-46499500D01*
X33306814Y-46533608D01*
X33306813Y-46533608D01*
X33306811Y-46533609D01*
X33306810Y-46533609D01*
X33187000Y-46602782D01*
X33119100Y-46619255D01*
X33063000Y-46602782D01*
X32943189Y-46533609D01*
X32943186Y-46533608D01*
X32815892Y-46499500D01*
X32684108Y-46499500D01*
X32556814Y-46533608D01*
X32556813Y-46533608D01*
X32556811Y-46533609D01*
X32556810Y-46533609D01*
X32437000Y-46602782D01*
X32369100Y-46619255D01*
X32313000Y-46602782D01*
X32193189Y-46533609D01*
X32193186Y-46533608D01*
X32065892Y-46499500D01*
X31934108Y-46499500D01*
X31806814Y-46533608D01*
X31806813Y-46533608D01*
X31806811Y-46533609D01*
X31806810Y-46533609D01*
X31687000Y-46602782D01*
X31619100Y-46619255D01*
X31563000Y-46602782D01*
X31443189Y-46533609D01*
X31443186Y-46533608D01*
X31315892Y-46499500D01*
X31184108Y-46499500D01*
X31056814Y-46533608D01*
X31056813Y-46533608D01*
X31056811Y-46533609D01*
X31056810Y-46533609D01*
X30937000Y-46602782D01*
X30869100Y-46619255D01*
X30813000Y-46602782D01*
X30693189Y-46533609D01*
X30693186Y-46533608D01*
X30565892Y-46499500D01*
X30434108Y-46499500D01*
X30306814Y-46533608D01*
X30306813Y-46533608D01*
X30306811Y-46533609D01*
X30306810Y-46533609D01*
X30187000Y-46602782D01*
X30119100Y-46619255D01*
X30063000Y-46602782D01*
X29943189Y-46533609D01*
X29943186Y-46533608D01*
X29815892Y-46499500D01*
X29684108Y-46499500D01*
X29556814Y-46533608D01*
X29556813Y-46533608D01*
X29556811Y-46533609D01*
X29556810Y-46533609D01*
X29437000Y-46602782D01*
X29369100Y-46619255D01*
X29313000Y-46602782D01*
X29193189Y-46533609D01*
X29193186Y-46533608D01*
X29065892Y-46499500D01*
X28934108Y-46499500D01*
X28934106Y-46499500D01*
X28842163Y-46524135D01*
X28790673Y-46526833D01*
X28618097Y-46499500D01*
X28618092Y-46499500D01*
X28565892Y-46499500D01*
X13645736Y-46499500D01*
X13578697Y-46479815D01*
X13532942Y-46427011D01*
X13522998Y-46357853D01*
X13552023Y-46294297D01*
X13603326Y-46258978D01*
X13743055Y-46208121D01*
X13743056Y-46208120D01*
X13743060Y-46208119D01*
X14103189Y-46040188D01*
X14447311Y-45841509D01*
X14772808Y-45613594D01*
X15077202Y-45358177D01*
X15358177Y-45077202D01*
X15613594Y-44772808D01*
X15841509Y-44447311D01*
X16040188Y-44103189D01*
X16208119Y-43743060D01*
X16344023Y-43369665D01*
X16446867Y-42985847D01*
X16515868Y-42594525D01*
X16546010Y-42250000D01*
X17242659Y-42250000D01*
X18104576Y-42250000D01*
X18080000Y-42405164D01*
X18080000Y-42594836D01*
X18104576Y-42750000D01*
X17242659Y-42750000D01*
X17262703Y-42902256D01*
X17332511Y-43162781D01*
X17435719Y-43411950D01*
X17435726Y-43411965D01*
X17570579Y-43645538D01*
X17734768Y-43859513D01*
X17734774Y-43859520D01*
X17925479Y-44050225D01*
X17925486Y-44050231D01*
X18139461Y-44214420D01*
X18373034Y-44349273D01*
X18373049Y-44349280D01*
X18622218Y-44452488D01*
X18882743Y-44522296D01*
X19035000Y-44542340D01*
X19035000Y-43680424D01*
X19190164Y-43705000D01*
X19379836Y-43705000D01*
X19535000Y-43680424D01*
X19535000Y-44542339D01*
X19687256Y-44522296D01*
X19947781Y-44452488D01*
X20196950Y-44349280D01*
X20196965Y-44349273D01*
X20430538Y-44214420D01*
X20644513Y-44050231D01*
X20644520Y-44050225D01*
X20835225Y-43859520D01*
X20835231Y-43859513D01*
X20999420Y-43645538D01*
X21134273Y-43411965D01*
X21134280Y-43411950D01*
X21237488Y-43162781D01*
X21307296Y-42902256D01*
X21327341Y-42750000D01*
X20465424Y-42750000D01*
X20490000Y-42594836D01*
X20490000Y-42405164D01*
X20465424Y-42250000D01*
X21327340Y-42250000D01*
X24672659Y-42250000D01*
X25534576Y-42250000D01*
X25510000Y-42405164D01*
X25510000Y-42594836D01*
X25534576Y-42750000D01*
X24672659Y-42750000D01*
X24692703Y-42902256D01*
X24762511Y-43162781D01*
X24865719Y-43411950D01*
X24865726Y-43411965D01*
X25000579Y-43645538D01*
X25164768Y-43859513D01*
X25164774Y-43859520D01*
X25355479Y-44050225D01*
X25355486Y-44050231D01*
X25569461Y-44214420D01*
X25803034Y-44349273D01*
X25803049Y-44349280D01*
X26052218Y-44452488D01*
X26312743Y-44522296D01*
X26465000Y-44542340D01*
X26465000Y-43680424D01*
X26620164Y-43705000D01*
X26809836Y-43705000D01*
X26965000Y-43680424D01*
X26965000Y-44542339D01*
X27117256Y-44522296D01*
X27377781Y-44452488D01*
X27626950Y-44349280D01*
X27626965Y-44349273D01*
X27860538Y-44214420D01*
X28074513Y-44050231D01*
X28074520Y-44050225D01*
X28265225Y-43859520D01*
X28265231Y-43859513D01*
X28429420Y-43645538D01*
X28564273Y-43411965D01*
X28564280Y-43411950D01*
X28667488Y-43162781D01*
X28737296Y-42902256D01*
X28757341Y-42750000D01*
X27895424Y-42750000D01*
X27920000Y-42594836D01*
X27920000Y-42405164D01*
X27895424Y-42250000D01*
X28757340Y-42250000D01*
X28737296Y-42097743D01*
X28667488Y-41837218D01*
X28564280Y-41588049D01*
X28564273Y-41588034D01*
X28429420Y-41354461D01*
X28265231Y-41140486D01*
X28265225Y-41140479D01*
X28074520Y-40949774D01*
X28074513Y-40949768D01*
X28058393Y-40937399D01*
X33024500Y-40937399D01*
X33024500Y-41062601D01*
X33056905Y-41183536D01*
X33119505Y-41291964D01*
X33208036Y-41380495D01*
X33316464Y-41443095D01*
X33437399Y-41475500D01*
X33437401Y-41475500D01*
X33562599Y-41475500D01*
X33562601Y-41475500D01*
X33683536Y-41443095D01*
X33791964Y-41380495D01*
X33880495Y-41291964D01*
X33943095Y-41183536D01*
X33975500Y-41062601D01*
X33975500Y-40937399D01*
X33943095Y-40816464D01*
X33880495Y-40708036D01*
X33791964Y-40619505D01*
X33683536Y-40556905D01*
X33683537Y-40556905D01*
X33643224Y-40546103D01*
X33562601Y-40524500D01*
X33437399Y-40524500D01*
X33356775Y-40546103D01*
X33316463Y-40556905D01*
X33208037Y-40619504D01*
X33208034Y-40619506D01*
X33119506Y-40708034D01*
X33119504Y-40708037D01*
X33056905Y-40816463D01*
X33056905Y-40816464D01*
X33024500Y-40937399D01*
X28058393Y-40937399D01*
X27860538Y-40785579D01*
X27626965Y-40650726D01*
X27626950Y-40650719D01*
X27377781Y-40547511D01*
X27117256Y-40477703D01*
X26965000Y-40457657D01*
X26965000Y-41319575D01*
X26809836Y-41295000D01*
X26620164Y-41295000D01*
X26465000Y-41319575D01*
X26465000Y-40457657D01*
X26464999Y-40457657D01*
X26312743Y-40477703D01*
X26052218Y-40547511D01*
X25803049Y-40650719D01*
X25803034Y-40650726D01*
X25569461Y-40785579D01*
X25355486Y-40949768D01*
X25355479Y-40949774D01*
X25164774Y-41140479D01*
X25164768Y-41140486D01*
X25000579Y-41354461D01*
X24865726Y-41588034D01*
X24865719Y-41588049D01*
X24762511Y-41837218D01*
X24692703Y-42097743D01*
X24672659Y-42250000D01*
X21327340Y-42250000D01*
X21307296Y-42097743D01*
X21237488Y-41837218D01*
X21134280Y-41588049D01*
X21134273Y-41588034D01*
X20999420Y-41354461D01*
X20835231Y-41140486D01*
X20835225Y-41140479D01*
X20644520Y-40949774D01*
X20644513Y-40949768D01*
X20430538Y-40785579D01*
X20196965Y-40650726D01*
X20196950Y-40650719D01*
X19947781Y-40547511D01*
X19687256Y-40477703D01*
X19535000Y-40457657D01*
X19535000Y-41319575D01*
X19379836Y-41295000D01*
X19190164Y-41295000D01*
X19035000Y-41319575D01*
X19035000Y-40457657D01*
X19034999Y-40457657D01*
X18882743Y-40477703D01*
X18622218Y-40547511D01*
X18373049Y-40650719D01*
X18373034Y-40650726D01*
X18139461Y-40785579D01*
X17925486Y-40949768D01*
X17925479Y-40949774D01*
X17734774Y-41140479D01*
X17734768Y-41140486D01*
X17570579Y-41354461D01*
X17435726Y-41588034D01*
X17435719Y-41588049D01*
X17332511Y-41837218D01*
X17262703Y-42097743D01*
X17242659Y-42250000D01*
X16546010Y-42250000D01*
X16550500Y-42198679D01*
X16550500Y-41801321D01*
X16515868Y-41405475D01*
X16446867Y-41014153D01*
X16364843Y-40708036D01*
X16344025Y-40630341D01*
X16340081Y-40619506D01*
X16265485Y-40414552D01*
X16208121Y-40256944D01*
X16040192Y-39896819D01*
X16040184Y-39896804D01*
X16006038Y-39837662D01*
X15841509Y-39552689D01*
X15841501Y-39552678D01*
X15841497Y-39552671D01*
X15613593Y-39227190D01*
X15358174Y-38922795D01*
X15077204Y-38641825D01*
X14772809Y-38386406D01*
X14578001Y-38250000D01*
X29307659Y-38250000D01*
X30169576Y-38250000D01*
X30145000Y-38405164D01*
X30145000Y-38594836D01*
X30169576Y-38750000D01*
X29307659Y-38750000D01*
X29327703Y-38902256D01*
X29397511Y-39162781D01*
X29500719Y-39411950D01*
X29500726Y-39411965D01*
X29635579Y-39645538D01*
X29799768Y-39859513D01*
X29799774Y-39859520D01*
X29990479Y-40050225D01*
X29990486Y-40050231D01*
X30204461Y-40214420D01*
X30438034Y-40349273D01*
X30438049Y-40349280D01*
X30687218Y-40452488D01*
X30947743Y-40522296D01*
X31100000Y-40542340D01*
X31100000Y-39680424D01*
X31255164Y-39705000D01*
X31444836Y-39705000D01*
X31600000Y-39680424D01*
X31600000Y-40542339D01*
X31752256Y-40522296D01*
X32012781Y-40452488D01*
X32261950Y-40349280D01*
X32261965Y-40349273D01*
X32495538Y-40214420D01*
X32709513Y-40050231D01*
X32709520Y-40050225D01*
X32900225Y-39859520D01*
X32900231Y-39859513D01*
X33064420Y-39645538D01*
X33199273Y-39411965D01*
X33199280Y-39411950D01*
X33302488Y-39162781D01*
X33372296Y-38902256D01*
X33392341Y-38750000D01*
X32530424Y-38750000D01*
X32555000Y-38594836D01*
X32555000Y-38405164D01*
X32530424Y-38250000D01*
X33392340Y-38250000D01*
X33372296Y-38097743D01*
X33302488Y-37837218D01*
X33199280Y-37588049D01*
X33199273Y-37588034D01*
X33064420Y-37354461D01*
X32900231Y-37140486D01*
X32900225Y-37140479D01*
X32709520Y-36949774D01*
X32709513Y-36949768D01*
X32495538Y-36785579D01*
X32261965Y-36650726D01*
X32261950Y-36650719D01*
X32012781Y-36547511D01*
X31752256Y-36477703D01*
X31600000Y-36457657D01*
X31600000Y-37319575D01*
X31444836Y-37295000D01*
X31255164Y-37295000D01*
X31100000Y-37319575D01*
X31100000Y-36457657D01*
X31099999Y-36457657D01*
X30947743Y-36477703D01*
X30687218Y-36547511D01*
X30438049Y-36650719D01*
X30438034Y-36650726D01*
X30204461Y-36785579D01*
X29990486Y-36949768D01*
X29990479Y-36949774D01*
X29799774Y-37140479D01*
X29799768Y-37140486D01*
X29635579Y-37354461D01*
X29500726Y-37588034D01*
X29500719Y-37588049D01*
X29397511Y-37837218D01*
X29327703Y-38097743D01*
X29307659Y-38250000D01*
X14578001Y-38250000D01*
X14447328Y-38158502D01*
X14447317Y-38158495D01*
X14447311Y-38158491D01*
X14342092Y-38097743D01*
X14103195Y-37959815D01*
X14103180Y-37959807D01*
X13743055Y-37791878D01*
X13369658Y-37655974D01*
X12985854Y-37553135D01*
X12985857Y-37553135D01*
X12985847Y-37553133D01*
X12930599Y-37543391D01*
X12594527Y-37484132D01*
X12198682Y-37449500D01*
X12198679Y-37449500D01*
X11801321Y-37449500D01*
X11801317Y-37449500D01*
X11405472Y-37484132D01*
X11014158Y-37553132D01*
X11014155Y-37553132D01*
X11014153Y-37553133D01*
X11014148Y-37553134D01*
X11014145Y-37553135D01*
X10630341Y-37655974D01*
X10256944Y-37791878D01*
X9896819Y-37959807D01*
X9896804Y-37959815D01*
X9552697Y-38158486D01*
X9552671Y-38158502D01*
X9227190Y-38386406D01*
X8922795Y-38641825D01*
X8641825Y-38922795D01*
X8386406Y-39227190D01*
X8158502Y-39552671D01*
X8158486Y-39552697D01*
X7959815Y-39896804D01*
X7959807Y-39896819D01*
X7791878Y-40256944D01*
X7741022Y-40396673D01*
X7699596Y-40452937D01*
X7634327Y-40477873D01*
X7565939Y-40463563D01*
X7516143Y-40414552D01*
X7500500Y-40354263D01*
X7500500Y-35937399D01*
X33274500Y-35937399D01*
X33274500Y-36062601D01*
X33306905Y-36183536D01*
X33369505Y-36291964D01*
X33458036Y-36380495D01*
X33566464Y-36443095D01*
X33687399Y-36475500D01*
X33687401Y-36475500D01*
X33812599Y-36475500D01*
X33812601Y-36475500D01*
X33933536Y-36443095D01*
X34041964Y-36380495D01*
X34130495Y-36291964D01*
X34193095Y-36183536D01*
X34225500Y-36062601D01*
X34225500Y-35937399D01*
X34193095Y-35816464D01*
X34130495Y-35708036D01*
X34041964Y-35619505D01*
X33933536Y-35556905D01*
X33933537Y-35556905D01*
X33893224Y-35546103D01*
X33812601Y-35524500D01*
X33687399Y-35524500D01*
X33606775Y-35546103D01*
X33566463Y-35556905D01*
X33458037Y-35619504D01*
X33458034Y-35619506D01*
X33369506Y-35708034D01*
X33369504Y-35708037D01*
X33306905Y-35816463D01*
X33306905Y-35816464D01*
X33274500Y-35937399D01*
X7500500Y-35937399D01*
X7500500Y-34437399D01*
X12024500Y-34437399D01*
X12024500Y-34562601D01*
X12056905Y-34683536D01*
X12119505Y-34791964D01*
X12208036Y-34880495D01*
X12316464Y-34943095D01*
X12437399Y-34975500D01*
X12437401Y-34975500D01*
X12562599Y-34975500D01*
X12562601Y-34975500D01*
X12683536Y-34943095D01*
X12693402Y-34937399D01*
X29524500Y-34937399D01*
X29524500Y-35062601D01*
X29556905Y-35183536D01*
X29619505Y-35291964D01*
X29708036Y-35380495D01*
X29816464Y-35443095D01*
X29937399Y-35475500D01*
X29937401Y-35475500D01*
X30062599Y-35475500D01*
X30062601Y-35475500D01*
X30183536Y-35443095D01*
X30291964Y-35380495D01*
X30380495Y-35291964D01*
X30443095Y-35183536D01*
X30475500Y-35062601D01*
X30475500Y-34937399D01*
X30443095Y-34816464D01*
X30380495Y-34708036D01*
X30291964Y-34619505D01*
X30183536Y-34556905D01*
X30183537Y-34556905D01*
X30143224Y-34546103D01*
X30062601Y-34524500D01*
X29937399Y-34524500D01*
X29856775Y-34546103D01*
X29816463Y-34556905D01*
X29708037Y-34619504D01*
X29708034Y-34619506D01*
X29619506Y-34708034D01*
X29619504Y-34708037D01*
X29556905Y-34816463D01*
X29556905Y-34816464D01*
X29524500Y-34937399D01*
X12693402Y-34937399D01*
X12791964Y-34880495D01*
X12880495Y-34791964D01*
X12943095Y-34683536D01*
X12975500Y-34562601D01*
X12975500Y-34437399D01*
X12943095Y-34316464D01*
X12880495Y-34208036D01*
X12791964Y-34119505D01*
X12683536Y-34056905D01*
X12683537Y-34056905D01*
X12643224Y-34046103D01*
X12562601Y-34024500D01*
X12437399Y-34024500D01*
X12356775Y-34046103D01*
X12316463Y-34056905D01*
X12208037Y-34119504D01*
X12208034Y-34119506D01*
X12119506Y-34208034D01*
X12119504Y-34208037D01*
X12056905Y-34316463D01*
X12056905Y-34316464D01*
X12024500Y-34437399D01*
X7500500Y-34437399D01*
X7500500Y-33187399D01*
X16024500Y-33187399D01*
X16024500Y-33312601D01*
X16056905Y-33433536D01*
X16119505Y-33541964D01*
X16208036Y-33630495D01*
X16316464Y-33693095D01*
X16437399Y-33725500D01*
X16437401Y-33725500D01*
X16562599Y-33725500D01*
X16562601Y-33725500D01*
X16683536Y-33693095D01*
X16791964Y-33630495D01*
X16880495Y-33541964D01*
X16943095Y-33433536D01*
X16975500Y-33312601D01*
X16975500Y-33187399D01*
X16943095Y-33066464D01*
X16880495Y-32958036D01*
X16791964Y-32869505D01*
X16683536Y-32806905D01*
X16683537Y-32806905D01*
X16627769Y-32791962D01*
X16562601Y-32774500D01*
X16437399Y-32774500D01*
X16372231Y-32791962D01*
X16316463Y-32806905D01*
X16208037Y-32869504D01*
X16208034Y-32869506D01*
X16119506Y-32958034D01*
X16119504Y-32958037D01*
X16056905Y-33066463D01*
X16056905Y-33066464D01*
X16024500Y-33187399D01*
X7500500Y-33187399D01*
X7500500Y-32437399D01*
X24774500Y-32437399D01*
X24774500Y-32562601D01*
X24806905Y-32683536D01*
X24869505Y-32791964D01*
X24958036Y-32880495D01*
X25066464Y-32943095D01*
X25187399Y-32975500D01*
X25187401Y-32975500D01*
X25312599Y-32975500D01*
X25312601Y-32975500D01*
X25433536Y-32943095D01*
X25541964Y-32880495D01*
X25630495Y-32791964D01*
X25693095Y-32683536D01*
X25725500Y-32562601D01*
X25725500Y-32437399D01*
X25693095Y-32316464D01*
X25630495Y-32208036D01*
X25541964Y-32119505D01*
X25433536Y-32056905D01*
X25433537Y-32056905D01*
X25424711Y-32054540D01*
X25312601Y-32024500D01*
X25187399Y-32024500D01*
X25106775Y-32046103D01*
X25066463Y-32056905D01*
X24958037Y-32119504D01*
X24958034Y-32119506D01*
X24869506Y-32208034D01*
X24869504Y-32208037D01*
X24806905Y-32316463D01*
X24806905Y-32316464D01*
X24774500Y-32437399D01*
X7500500Y-32437399D01*
X7500500Y-31437399D01*
X12024500Y-31437399D01*
X12024500Y-31562601D01*
X12056905Y-31683536D01*
X12119505Y-31791964D01*
X12208036Y-31880495D01*
X12316464Y-31943095D01*
X12437399Y-31975500D01*
X12437401Y-31975500D01*
X12562599Y-31975500D01*
X12562601Y-31975500D01*
X12683536Y-31943095D01*
X12791964Y-31880495D01*
X12880495Y-31791964D01*
X12943095Y-31683536D01*
X12975500Y-31562601D01*
X12975500Y-31437399D01*
X16024500Y-31437399D01*
X16024500Y-31562601D01*
X16056905Y-31683536D01*
X16119505Y-31791964D01*
X16208036Y-31880495D01*
X16316464Y-31943095D01*
X16437399Y-31975500D01*
X16437401Y-31975500D01*
X16562599Y-31975500D01*
X16562601Y-31975500D01*
X16683536Y-31943095D01*
X16693402Y-31937399D01*
X26524500Y-31937399D01*
X26524500Y-32062601D01*
X26556905Y-32183536D01*
X26619505Y-32291964D01*
X26708036Y-32380495D01*
X26816464Y-32443095D01*
X26937399Y-32475500D01*
X26937401Y-32475500D01*
X27062599Y-32475500D01*
X27062601Y-32475500D01*
X27183536Y-32443095D01*
X27291964Y-32380495D01*
X27380495Y-32291964D01*
X27443095Y-32183536D01*
X27475500Y-32062601D01*
X27475500Y-31937399D01*
X27443095Y-31816464D01*
X27380495Y-31708036D01*
X27291964Y-31619505D01*
X27183536Y-31556905D01*
X27183537Y-31556905D01*
X27133128Y-31543398D01*
X27062601Y-31524500D01*
X26937399Y-31524500D01*
X26866872Y-31543398D01*
X26816463Y-31556905D01*
X26708037Y-31619504D01*
X26708034Y-31619506D01*
X26619506Y-31708034D01*
X26619504Y-31708037D01*
X26556905Y-31816463D01*
X26556905Y-31816464D01*
X26524500Y-31937399D01*
X16693402Y-31937399D01*
X16791964Y-31880495D01*
X16880495Y-31791964D01*
X16943095Y-31683536D01*
X16975500Y-31562601D01*
X16975500Y-31437399D01*
X16943095Y-31316464D01*
X16880495Y-31208036D01*
X16791964Y-31119505D01*
X16683536Y-31056905D01*
X16683537Y-31056905D01*
X16643224Y-31046103D01*
X16562601Y-31024500D01*
X16437399Y-31024500D01*
X16356775Y-31046103D01*
X16316463Y-31056905D01*
X16208037Y-31119504D01*
X16208034Y-31119506D01*
X16119506Y-31208034D01*
X16119504Y-31208037D01*
X16056905Y-31316463D01*
X16056905Y-31316464D01*
X16024500Y-31437399D01*
X12975500Y-31437399D01*
X12943095Y-31316464D01*
X12880495Y-31208036D01*
X12791964Y-31119505D01*
X12683536Y-31056905D01*
X12683537Y-31056905D01*
X12643224Y-31046103D01*
X12562601Y-31024500D01*
X12437399Y-31024500D01*
X12356775Y-31046103D01*
X12316463Y-31056905D01*
X12208037Y-31119504D01*
X12208034Y-31119506D01*
X12119506Y-31208034D01*
X12119504Y-31208037D01*
X12056905Y-31316463D01*
X12056905Y-31316464D01*
X12024500Y-31437399D01*
X7500500Y-31437399D01*
X7500500Y-30381909D01*
X7486254Y-30291962D01*
X7473165Y-30209324D01*
X7475863Y-30157836D01*
X7500500Y-30065892D01*
X7500500Y-29934108D01*
X7466392Y-29806814D01*
X7400500Y-29692686D01*
X7400498Y-29692684D01*
X7397217Y-29687001D01*
X7380744Y-29619101D01*
X7397217Y-29562999D01*
X7400498Y-29557315D01*
X7400500Y-29557314D01*
X7466392Y-29443186D01*
X7500500Y-29315892D01*
X7500500Y-29187399D01*
X15024500Y-29187399D01*
X15024500Y-29312601D01*
X15056905Y-29433536D01*
X15119505Y-29541964D01*
X15208036Y-29630495D01*
X15316464Y-29693095D01*
X15437399Y-29725500D01*
X15437401Y-29725500D01*
X15562599Y-29725500D01*
X15562601Y-29725500D01*
X15683536Y-29693095D01*
X15791964Y-29630495D01*
X15880495Y-29541964D01*
X15943095Y-29433536D01*
X15975500Y-29312601D01*
X15975500Y-29187399D01*
X15943095Y-29066464D01*
X15880495Y-28958036D01*
X15791964Y-28869505D01*
X15683536Y-28806905D01*
X15683537Y-28806905D01*
X15627769Y-28791962D01*
X15562601Y-28774500D01*
X15437399Y-28774500D01*
X15372231Y-28791962D01*
X15316463Y-28806905D01*
X15208037Y-28869504D01*
X15208034Y-28869506D01*
X15119506Y-28958034D01*
X15119504Y-28958037D01*
X15056905Y-29066463D01*
X15045190Y-29110183D01*
X15024500Y-29187399D01*
X7500500Y-29187399D01*
X7500500Y-29184108D01*
X7466392Y-29056814D01*
X7457819Y-29041966D01*
X7454631Y-29036444D01*
X7400500Y-28942686D01*
X7400498Y-28942684D01*
X7397217Y-28937001D01*
X7380744Y-28869101D01*
X7397217Y-28812999D01*
X7400498Y-28807315D01*
X7400500Y-28807314D01*
X7466392Y-28693186D01*
X7500500Y-28565892D01*
X7500500Y-28437399D01*
X12024500Y-28437399D01*
X12024500Y-28562601D01*
X12056905Y-28683536D01*
X12119505Y-28791964D01*
X12208036Y-28880495D01*
X12316464Y-28943095D01*
X12437399Y-28975500D01*
X12437401Y-28975500D01*
X12562599Y-28975500D01*
X12562601Y-28975500D01*
X12683536Y-28943095D01*
X12791964Y-28880495D01*
X12880495Y-28791964D01*
X12943095Y-28683536D01*
X12975500Y-28562601D01*
X12975500Y-28437399D01*
X16024500Y-28437399D01*
X16024500Y-28562601D01*
X16056905Y-28683536D01*
X16119505Y-28791964D01*
X16208036Y-28880495D01*
X16316464Y-28943095D01*
X16437399Y-28975500D01*
X16437401Y-28975500D01*
X16562599Y-28975500D01*
X16562601Y-28975500D01*
X16683536Y-28943095D01*
X16791964Y-28880495D01*
X16880495Y-28791964D01*
X16943095Y-28683536D01*
X16975500Y-28562601D01*
X16975500Y-28437399D01*
X16943095Y-28316464D01*
X16880495Y-28208036D01*
X16791964Y-28119505D01*
X16683536Y-28056905D01*
X16683537Y-28056905D01*
X16643224Y-28046103D01*
X16562601Y-28024500D01*
X16437399Y-28024500D01*
X16356775Y-28046103D01*
X16316463Y-28056905D01*
X16208037Y-28119504D01*
X16208034Y-28119506D01*
X16119506Y-28208034D01*
X16119504Y-28208037D01*
X16056905Y-28316463D01*
X16056905Y-28316464D01*
X16024500Y-28437399D01*
X12975500Y-28437399D01*
X12943095Y-28316464D01*
X12880495Y-28208036D01*
X12791964Y-28119505D01*
X12683536Y-28056905D01*
X12683537Y-28056905D01*
X12643224Y-28046103D01*
X12562601Y-28024500D01*
X12437399Y-28024500D01*
X12356775Y-28046103D01*
X12316463Y-28056905D01*
X12208037Y-28119504D01*
X12208034Y-28119506D01*
X12119506Y-28208034D01*
X12119504Y-28208037D01*
X12056905Y-28316463D01*
X12056905Y-28316464D01*
X12024500Y-28437399D01*
X7500500Y-28437399D01*
X7500500Y-28434108D01*
X7466392Y-28306814D01*
X7400500Y-28192686D01*
X7400498Y-28192684D01*
X7397217Y-28187001D01*
X7380744Y-28119101D01*
X7397217Y-28062999D01*
X7400498Y-28057315D01*
X7400500Y-28057314D01*
X7466392Y-27943186D01*
X7500500Y-27815892D01*
X7500500Y-27684108D01*
X7466392Y-27556814D01*
X7400500Y-27442686D01*
X7400498Y-27442684D01*
X7397217Y-27437001D01*
X7380744Y-27369101D01*
X7397217Y-27312999D01*
X7400498Y-27307315D01*
X7400500Y-27307314D01*
X7466392Y-27193186D01*
X7500500Y-27065892D01*
X7500500Y-26934108D01*
X7466392Y-26806814D01*
X7400500Y-26692686D01*
X7400498Y-26692684D01*
X7397447Y-26687399D01*
X15524500Y-26687399D01*
X15524500Y-26812601D01*
X15556905Y-26933536D01*
X15619505Y-27041964D01*
X15708036Y-27130495D01*
X15816464Y-27193095D01*
X15937399Y-27225500D01*
X15937401Y-27225500D01*
X16062599Y-27225500D01*
X16062601Y-27225500D01*
X16183536Y-27193095D01*
X16291964Y-27130495D01*
X16380495Y-27041964D01*
X16443095Y-26933536D01*
X16475500Y-26812601D01*
X16475500Y-26687399D01*
X16443095Y-26566464D01*
X16380495Y-26458036D01*
X16291964Y-26369505D01*
X16183536Y-26306905D01*
X16183537Y-26306905D01*
X16143224Y-26296103D01*
X16062601Y-26274500D01*
X15937399Y-26274500D01*
X15856775Y-26296103D01*
X15816463Y-26306905D01*
X15708037Y-26369504D01*
X15708034Y-26369506D01*
X15619506Y-26458034D01*
X15619504Y-26458037D01*
X15556905Y-26566463D01*
X15556905Y-26566464D01*
X15524500Y-26687399D01*
X7397447Y-26687399D01*
X7397217Y-26687001D01*
X7380744Y-26619101D01*
X7397217Y-26562999D01*
X7400498Y-26557315D01*
X7400500Y-26557314D01*
X7466392Y-26443186D01*
X7500500Y-26315892D01*
X7500500Y-26184108D01*
X7466392Y-26056814D01*
X7400500Y-25942686D01*
X7400498Y-25942684D01*
X7397217Y-25937001D01*
X7380744Y-25869101D01*
X7397217Y-25812999D01*
X7400498Y-25807315D01*
X7400500Y-25807314D01*
X7466392Y-25693186D01*
X7500500Y-25565892D01*
X7500500Y-25437399D01*
X12024500Y-25437399D01*
X12024500Y-25562601D01*
X12056905Y-25683536D01*
X12119505Y-25791964D01*
X12208036Y-25880495D01*
X12316464Y-25943095D01*
X12437399Y-25975500D01*
X12437401Y-25975500D01*
X12562599Y-25975500D01*
X12562601Y-25975500D01*
X12683536Y-25943095D01*
X12791964Y-25880495D01*
X12880495Y-25791964D01*
X12943095Y-25683536D01*
X12975500Y-25562601D01*
X12975500Y-25437399D01*
X16024500Y-25437399D01*
X16024500Y-25562601D01*
X16056905Y-25683536D01*
X16119505Y-25791964D01*
X16208036Y-25880495D01*
X16316464Y-25943095D01*
X16437399Y-25975500D01*
X16437401Y-25975500D01*
X16562599Y-25975500D01*
X16562601Y-25975500D01*
X16683536Y-25943095D01*
X16791964Y-25880495D01*
X16880495Y-25791964D01*
X16943095Y-25683536D01*
X16975500Y-25562601D01*
X16975500Y-25437399D01*
X16943095Y-25316464D01*
X16880495Y-25208036D01*
X16791964Y-25119505D01*
X16683536Y-25056905D01*
X16683537Y-25056905D01*
X16627769Y-25041962D01*
X16562601Y-25024500D01*
X16437399Y-25024500D01*
X16372231Y-25041962D01*
X16316463Y-25056905D01*
X16208037Y-25119504D01*
X16208034Y-25119506D01*
X16119506Y-25208034D01*
X16119504Y-25208037D01*
X16056905Y-25316463D01*
X16056905Y-25316464D01*
X16024500Y-25437399D01*
X12975500Y-25437399D01*
X12943095Y-25316464D01*
X12880495Y-25208036D01*
X12791964Y-25119505D01*
X12683536Y-25056905D01*
X12683537Y-25056905D01*
X12627769Y-25041962D01*
X12562601Y-25024500D01*
X12437399Y-25024500D01*
X12372231Y-25041962D01*
X12316463Y-25056905D01*
X12208037Y-25119504D01*
X12208034Y-25119506D01*
X12119506Y-25208034D01*
X12119504Y-25208037D01*
X12056905Y-25316463D01*
X12056905Y-25316464D01*
X12024500Y-25437399D01*
X7500500Y-25437399D01*
X7500500Y-25434108D01*
X7466392Y-25306814D01*
X7400500Y-25192686D01*
X7400498Y-25192684D01*
X7397217Y-25187001D01*
X7380744Y-25119101D01*
X7397217Y-25062999D01*
X7400498Y-25057315D01*
X7400500Y-25057314D01*
X7466392Y-24943186D01*
X7500500Y-24815892D01*
X7500500Y-24684108D01*
X7466392Y-24556814D01*
X7447735Y-24524500D01*
X7428552Y-24491273D01*
X7428551Y-24491272D01*
X7400500Y-24442686D01*
X7400498Y-24442684D01*
X7397447Y-24437399D01*
X19274500Y-24437399D01*
X19274500Y-24562601D01*
X19306905Y-24683536D01*
X19369505Y-24791964D01*
X19458036Y-24880495D01*
X19566464Y-24943095D01*
X19687399Y-24975500D01*
X19687401Y-24975500D01*
X19812599Y-24975500D01*
X19812601Y-24975500D01*
X19838407Y-24968585D01*
X19908256Y-24970248D01*
X19966118Y-25009410D01*
X19993623Y-25073638D01*
X19994500Y-25088360D01*
X19994500Y-26411640D01*
X19974815Y-26478679D01*
X19922011Y-26524434D01*
X19852853Y-26534378D01*
X19838413Y-26531416D01*
X19812601Y-26524500D01*
X19687399Y-26524500D01*
X19606775Y-26546103D01*
X19566463Y-26556905D01*
X19458037Y-26619504D01*
X19458034Y-26619506D01*
X19369506Y-26708034D01*
X19369504Y-26708037D01*
X19306905Y-26816463D01*
X19306905Y-26816464D01*
X19274500Y-26937399D01*
X19274500Y-27062601D01*
X19306905Y-27183536D01*
X19369505Y-27291964D01*
X19458036Y-27380495D01*
X19566464Y-27443095D01*
X19687399Y-27475500D01*
X19687401Y-27475500D01*
X19812599Y-27475500D01*
X19812601Y-27475500D01*
X19838407Y-27468585D01*
X19908256Y-27470248D01*
X19966118Y-27509410D01*
X19993623Y-27573638D01*
X19994500Y-27588360D01*
X19994500Y-29411640D01*
X19974815Y-29478679D01*
X19922011Y-29524434D01*
X19852853Y-29534378D01*
X19838413Y-29531416D01*
X19812601Y-29524500D01*
X19687399Y-29524500D01*
X19622231Y-29541962D01*
X19566463Y-29556905D01*
X19458037Y-29619504D01*
X19458034Y-29619506D01*
X19369506Y-29708034D01*
X19369504Y-29708037D01*
X19306905Y-29816463D01*
X19306905Y-29816464D01*
X19274500Y-29937399D01*
X19274500Y-30062601D01*
X19306905Y-30183536D01*
X19369505Y-30291964D01*
X19458036Y-30380495D01*
X19566464Y-30443095D01*
X19687399Y-30475500D01*
X19687401Y-30475500D01*
X19812599Y-30475500D01*
X19812601Y-30475500D01*
X19933536Y-30443095D01*
X20041964Y-30380495D01*
X20067884Y-30354574D01*
X20129203Y-30321091D01*
X20198895Y-30326075D01*
X20243244Y-30354576D01*
X20533015Y-30644347D01*
X20553365Y-30662626D01*
X20553371Y-30662631D01*
X20553379Y-30662638D01*
X20574000Y-30679255D01*
X20574002Y-30679256D01*
X20574007Y-30679260D01*
X20662338Y-30725465D01*
X20729377Y-30745150D01*
X20729381Y-30745150D01*
X20729383Y-30745151D01*
X20741014Y-30746823D01*
X20801362Y-30755500D01*
X21750000Y-30755500D01*
X30661640Y-30755500D01*
X30728679Y-30775185D01*
X30774434Y-30827989D01*
X30784378Y-30897147D01*
X30781416Y-30911586D01*
X30774500Y-30937399D01*
X30774500Y-31062601D01*
X30806905Y-31183536D01*
X30869505Y-31291964D01*
X30958036Y-31380495D01*
X31066464Y-31443095D01*
X31187399Y-31475500D01*
X31187401Y-31475500D01*
X31312599Y-31475500D01*
X31312601Y-31475500D01*
X31433536Y-31443095D01*
X31541964Y-31380495D01*
X31630495Y-31291964D01*
X31659553Y-31241632D01*
X31710116Y-31193419D01*
X31778723Y-31180194D01*
X31843588Y-31206160D01*
X31854620Y-31215952D01*
X34958181Y-34319513D01*
X34991666Y-34380836D01*
X34994500Y-34407194D01*
X34994500Y-39698639D01*
X34995963Y-39725934D01*
X34995967Y-39725988D01*
X34998797Y-39752310D01*
X34998798Y-39752312D01*
X35028586Y-39847441D01*
X35028590Y-39847451D01*
X35062068Y-39908761D01*
X35062073Y-39908769D01*
X35105649Y-39966980D01*
X35105665Y-39966998D01*
X35283000Y-40144332D01*
X35283015Y-40144347D01*
X35303365Y-40162626D01*
X35303371Y-40162631D01*
X35303379Y-40162638D01*
X35324000Y-40179255D01*
X35324002Y-40179256D01*
X35324007Y-40179260D01*
X35412338Y-40225465D01*
X35479377Y-40245150D01*
X35479381Y-40245150D01*
X35479383Y-40245151D01*
X35491014Y-40246823D01*
X35551362Y-40255500D01*
X35551363Y-40255500D01*
X35948639Y-40255500D01*
X35950075Y-40255422D01*
X35975952Y-40254036D01*
X36002310Y-40251202D01*
X36097444Y-40221413D01*
X36158767Y-40187928D01*
X36216985Y-40144347D01*
X36394347Y-39966985D01*
X36412626Y-39946635D01*
X36429260Y-39925993D01*
X36475465Y-39837662D01*
X36495150Y-39770623D01*
X36505500Y-39698638D01*
X36505500Y-38250000D01*
X42607659Y-38250000D01*
X43469576Y-38250000D01*
X43445000Y-38405164D01*
X43445000Y-38594836D01*
X43469576Y-38750000D01*
X42607659Y-38750000D01*
X42627703Y-38902256D01*
X42697511Y-39162781D01*
X42800719Y-39411950D01*
X42800726Y-39411965D01*
X42935579Y-39645538D01*
X43099768Y-39859513D01*
X43099774Y-39859520D01*
X43290479Y-40050225D01*
X43290486Y-40050231D01*
X43504461Y-40214420D01*
X43738034Y-40349273D01*
X43738049Y-40349280D01*
X43987218Y-40452488D01*
X44247743Y-40522296D01*
X44400000Y-40542340D01*
X44400000Y-39680424D01*
X44555164Y-39705000D01*
X44744836Y-39705000D01*
X44900000Y-39680424D01*
X44900000Y-40542339D01*
X45052256Y-40522296D01*
X45312781Y-40452488D01*
X45561950Y-40349280D01*
X45561965Y-40349273D01*
X45795538Y-40214420D01*
X46009513Y-40050231D01*
X46009520Y-40050225D01*
X46200225Y-39859520D01*
X46200231Y-39859513D01*
X46364420Y-39645538D01*
X46499273Y-39411965D01*
X46499280Y-39411950D01*
X46602488Y-39162781D01*
X46672296Y-38902256D01*
X46692341Y-38750000D01*
X45830424Y-38750000D01*
X45855000Y-38594836D01*
X45855000Y-38405164D01*
X45830424Y-38250000D01*
X46692340Y-38250000D01*
X46672296Y-38097743D01*
X46602488Y-37837218D01*
X46499280Y-37588049D01*
X46499273Y-37588034D01*
X46364420Y-37354461D01*
X46200231Y-37140486D01*
X46200225Y-37140479D01*
X46009520Y-36949774D01*
X46009513Y-36949768D01*
X45795538Y-36785579D01*
X45561965Y-36650726D01*
X45561950Y-36650719D01*
X45312781Y-36547511D01*
X45052256Y-36477703D01*
X44900000Y-36457657D01*
X44900000Y-37319575D01*
X44744836Y-37295000D01*
X44555164Y-37295000D01*
X44400000Y-37319575D01*
X44400000Y-36457657D01*
X44399999Y-36457657D01*
X44247743Y-36477703D01*
X43987218Y-36547511D01*
X43738049Y-36650719D01*
X43738034Y-36650726D01*
X43504461Y-36785579D01*
X43290486Y-36949768D01*
X43290479Y-36949774D01*
X43099774Y-37140479D01*
X43099768Y-37140486D01*
X42935579Y-37354461D01*
X42800726Y-37588034D01*
X42800719Y-37588049D01*
X42697511Y-37837218D01*
X42627703Y-38097743D01*
X42607659Y-38250000D01*
X36505500Y-38250000D01*
X36505500Y-35937399D01*
X36774500Y-35937399D01*
X36774500Y-36062601D01*
X36806905Y-36183536D01*
X36869505Y-36291964D01*
X36958036Y-36380495D01*
X37066464Y-36443095D01*
X37187399Y-36475500D01*
X37187401Y-36475500D01*
X37312599Y-36475500D01*
X37312601Y-36475500D01*
X37433536Y-36443095D01*
X37541964Y-36380495D01*
X37630495Y-36291964D01*
X37693095Y-36183536D01*
X37725500Y-36062601D01*
X37725500Y-35937399D01*
X40274500Y-35937399D01*
X40274500Y-36062601D01*
X40306905Y-36183536D01*
X40369505Y-36291964D01*
X40458036Y-36380495D01*
X40566464Y-36443095D01*
X40687399Y-36475500D01*
X40687401Y-36475500D01*
X40812599Y-36475500D01*
X40812601Y-36475500D01*
X40933536Y-36443095D01*
X41041964Y-36380495D01*
X41130495Y-36291964D01*
X41193095Y-36183536D01*
X41225500Y-36062601D01*
X41225500Y-35937399D01*
X41193095Y-35816464D01*
X41130495Y-35708036D01*
X41041964Y-35619505D01*
X40933536Y-35556905D01*
X40933537Y-35556905D01*
X40893224Y-35546103D01*
X40812601Y-35524500D01*
X40687399Y-35524500D01*
X40606775Y-35546103D01*
X40566463Y-35556905D01*
X40458037Y-35619504D01*
X40458034Y-35619506D01*
X40369506Y-35708034D01*
X40369504Y-35708037D01*
X40306905Y-35816463D01*
X40306905Y-35816464D01*
X40274500Y-35937399D01*
X37725500Y-35937399D01*
X37693095Y-35816464D01*
X37630495Y-35708036D01*
X37541964Y-35619505D01*
X37433536Y-35556905D01*
X37433537Y-35556905D01*
X37393224Y-35546103D01*
X37312601Y-35524500D01*
X37187399Y-35524500D01*
X37106775Y-35546103D01*
X37066463Y-35556905D01*
X36958037Y-35619504D01*
X36958034Y-35619506D01*
X36869506Y-35708034D01*
X36869504Y-35708037D01*
X36806905Y-35816463D01*
X36806905Y-35816464D01*
X36774500Y-35937399D01*
X36505500Y-35937399D01*
X36505500Y-33801362D01*
X36504036Y-33774048D01*
X36501202Y-33747690D01*
X36471413Y-33652556D01*
X36437928Y-33591233D01*
X36394347Y-33533015D01*
X36394342Y-33533010D01*
X36394334Y-33533001D01*
X34535746Y-31674413D01*
X34502261Y-31613090D01*
X34507245Y-31543398D01*
X34549117Y-31487465D01*
X34614581Y-31463048D01*
X34655518Y-31466957D01*
X34687399Y-31475500D01*
X34687400Y-31475500D01*
X34812599Y-31475500D01*
X34812601Y-31475500D01*
X34933536Y-31443095D01*
X35041964Y-31380495D01*
X35130495Y-31291964D01*
X35193095Y-31183536D01*
X35225500Y-31062601D01*
X35225500Y-30937399D01*
X37774500Y-30937399D01*
X37774500Y-31062601D01*
X37806905Y-31183536D01*
X37869505Y-31291964D01*
X37958036Y-31380495D01*
X38066464Y-31443095D01*
X38187399Y-31475500D01*
X38187401Y-31475500D01*
X38312599Y-31475500D01*
X38312601Y-31475500D01*
X38433536Y-31443095D01*
X38541964Y-31380495D01*
X38630495Y-31291964D01*
X38693095Y-31183536D01*
X38725500Y-31062601D01*
X38725500Y-30937399D01*
X38693095Y-30816464D01*
X38630495Y-30708036D01*
X38541964Y-30619505D01*
X38433536Y-30556905D01*
X38433537Y-30556905D01*
X38393224Y-30546103D01*
X38312601Y-30524500D01*
X38187399Y-30524500D01*
X38106775Y-30546103D01*
X38066463Y-30556905D01*
X37958037Y-30619504D01*
X37958034Y-30619506D01*
X37869506Y-30708034D01*
X37869504Y-30708037D01*
X37806905Y-30816463D01*
X37806905Y-30816464D01*
X37774500Y-30937399D01*
X35225500Y-30937399D01*
X35193095Y-30816464D01*
X35130495Y-30708036D01*
X35041964Y-30619505D01*
X34933536Y-30556905D01*
X34933537Y-30556905D01*
X34893224Y-30546103D01*
X34812601Y-30524500D01*
X34687399Y-30524500D01*
X34606775Y-30546103D01*
X34566463Y-30556905D01*
X34458037Y-30619504D01*
X34458034Y-30619506D01*
X34369506Y-30708034D01*
X34369504Y-30708037D01*
X34306905Y-30816463D01*
X34306905Y-30816464D01*
X34274500Y-30937399D01*
X34274500Y-31062601D01*
X34279621Y-31081711D01*
X34283042Y-31094478D01*
X34281379Y-31164328D01*
X34242217Y-31222191D01*
X34177989Y-31249695D01*
X34109086Y-31238109D01*
X34075586Y-31214253D01*
X32216998Y-29355666D01*
X32216985Y-29355653D01*
X32196635Y-29337374D01*
X32196629Y-29337369D01*
X32196620Y-29337361D01*
X32175999Y-29320744D01*
X32175996Y-29320742D01*
X32175993Y-29320740D01*
X32087662Y-29274535D01*
X32087659Y-29274534D01*
X32020624Y-29254850D01*
X32020616Y-29254848D01*
X31948639Y-29244500D01*
X31948638Y-29244500D01*
X28476531Y-29244500D01*
X28409492Y-29224815D01*
X28363737Y-29172011D01*
X28353793Y-29102853D01*
X28365730Y-29064829D01*
X28373909Y-29048549D01*
X28380495Y-29041964D01*
X28440865Y-28937399D01*
X44524500Y-28937399D01*
X44524500Y-29062601D01*
X44556905Y-29183536D01*
X44619505Y-29291964D01*
X44708036Y-29380495D01*
X44816464Y-29443095D01*
X44937399Y-29475500D01*
X44937401Y-29475500D01*
X45062599Y-29475500D01*
X45062601Y-29475500D01*
X45183536Y-29443095D01*
X45291964Y-29380495D01*
X45380495Y-29291964D01*
X45443095Y-29183536D01*
X45475500Y-29062601D01*
X45475500Y-28937399D01*
X47524500Y-28937399D01*
X47524500Y-29062601D01*
X47556905Y-29183536D01*
X47619505Y-29291964D01*
X47708036Y-29380495D01*
X47816464Y-29443095D01*
X47937399Y-29475500D01*
X47937401Y-29475500D01*
X48062599Y-29475500D01*
X48062601Y-29475500D01*
X48183536Y-29443095D01*
X48291964Y-29380495D01*
X48380495Y-29291964D01*
X48443095Y-29183536D01*
X48475500Y-29062601D01*
X48475500Y-28937399D01*
X50524500Y-28937399D01*
X50524500Y-29062601D01*
X50556905Y-29183536D01*
X50619505Y-29291964D01*
X50708036Y-29380495D01*
X50816464Y-29443095D01*
X50937399Y-29475500D01*
X50937401Y-29475500D01*
X51062599Y-29475500D01*
X51062601Y-29475500D01*
X51183536Y-29443095D01*
X51291964Y-29380495D01*
X51380495Y-29291964D01*
X51443095Y-29183536D01*
X51475500Y-29062601D01*
X51475500Y-28937399D01*
X51443095Y-28816464D01*
X51380495Y-28708036D01*
X51291964Y-28619505D01*
X51183536Y-28556905D01*
X51183537Y-28556905D01*
X51127769Y-28541962D01*
X51062601Y-28524500D01*
X50937399Y-28524500D01*
X50872231Y-28541962D01*
X50816463Y-28556905D01*
X50708037Y-28619504D01*
X50708034Y-28619506D01*
X50619506Y-28708034D01*
X50619504Y-28708037D01*
X50556905Y-28816463D01*
X50556905Y-28816464D01*
X50524500Y-28937399D01*
X48475500Y-28937399D01*
X48443095Y-28816464D01*
X48380495Y-28708036D01*
X48291964Y-28619505D01*
X48183536Y-28556905D01*
X48183537Y-28556905D01*
X48127769Y-28541962D01*
X48062601Y-28524500D01*
X47937399Y-28524500D01*
X47872231Y-28541962D01*
X47816463Y-28556905D01*
X47708037Y-28619504D01*
X47708034Y-28619506D01*
X47619506Y-28708034D01*
X47619504Y-28708037D01*
X47556905Y-28816463D01*
X47556905Y-28816464D01*
X47524500Y-28937399D01*
X45475500Y-28937399D01*
X45443095Y-28816464D01*
X45380495Y-28708036D01*
X45291964Y-28619505D01*
X45183536Y-28556905D01*
X45183537Y-28556905D01*
X45127769Y-28541962D01*
X45062601Y-28524500D01*
X44937399Y-28524500D01*
X44872231Y-28541962D01*
X44816463Y-28556905D01*
X44708037Y-28619504D01*
X44708034Y-28619506D01*
X44619506Y-28708034D01*
X44619504Y-28708037D01*
X44556905Y-28816463D01*
X44556905Y-28816464D01*
X44524500Y-28937399D01*
X28440865Y-28937399D01*
X28443095Y-28933536D01*
X28475500Y-28812601D01*
X28475500Y-28687399D01*
X28443095Y-28566464D01*
X28380495Y-28458036D01*
X28291964Y-28369505D01*
X28183536Y-28306905D01*
X28183537Y-28306905D01*
X28174711Y-28304540D01*
X28062601Y-28274500D01*
X27937399Y-28274500D01*
X27856775Y-28296103D01*
X27816463Y-28306905D01*
X27708037Y-28369504D01*
X27708034Y-28369506D01*
X27619506Y-28458034D01*
X27619504Y-28458037D01*
X27556905Y-28566463D01*
X27556905Y-28566464D01*
X27524500Y-28687399D01*
X27524500Y-28812601D01*
X27556905Y-28933536D01*
X27619506Y-29041966D01*
X27621845Y-29045014D01*
X27623018Y-29048049D01*
X27623569Y-29049003D01*
X27623420Y-29049088D01*
X27647039Y-29110183D01*
X27633000Y-29178628D01*
X27584186Y-29228618D01*
X27523469Y-29244500D01*
X22657194Y-29244500D01*
X22627753Y-29235855D01*
X22597767Y-29229332D01*
X22592751Y-29225577D01*
X22590155Y-29224815D01*
X22569513Y-29208181D01*
X22541819Y-29180487D01*
X22508334Y-29119164D01*
X22505500Y-29092806D01*
X22505500Y-28187399D01*
X30774500Y-28187399D01*
X30774500Y-28312601D01*
X30806905Y-28433536D01*
X30869505Y-28541964D01*
X30958036Y-28630495D01*
X31066464Y-28693095D01*
X31187399Y-28725500D01*
X31187401Y-28725500D01*
X31312599Y-28725500D01*
X31312601Y-28725500D01*
X31433536Y-28693095D01*
X31541964Y-28630495D01*
X31630495Y-28541964D01*
X31693095Y-28433536D01*
X31725500Y-28312601D01*
X31725500Y-28187399D01*
X34274500Y-28187399D01*
X34274500Y-28312601D01*
X34306905Y-28433536D01*
X34369505Y-28541964D01*
X34458036Y-28630495D01*
X34566464Y-28693095D01*
X34687399Y-28725500D01*
X34687401Y-28725500D01*
X34812599Y-28725500D01*
X34812601Y-28725500D01*
X34933536Y-28693095D01*
X35041964Y-28630495D01*
X35130495Y-28541964D01*
X35193095Y-28433536D01*
X35225500Y-28312601D01*
X35225500Y-28187399D01*
X37774500Y-28187399D01*
X37774500Y-28312601D01*
X37806905Y-28433536D01*
X37869505Y-28541964D01*
X37958036Y-28630495D01*
X38066464Y-28693095D01*
X38187399Y-28725500D01*
X38187401Y-28725500D01*
X38312599Y-28725500D01*
X38312601Y-28725500D01*
X38433536Y-28693095D01*
X38541964Y-28630495D01*
X38630495Y-28541964D01*
X38693095Y-28433536D01*
X38725500Y-28312601D01*
X38725500Y-28187399D01*
X38693095Y-28066464D01*
X38630495Y-27958036D01*
X38541964Y-27869505D01*
X38433536Y-27806905D01*
X38433537Y-27806905D01*
X38393224Y-27796103D01*
X38312601Y-27774500D01*
X38187399Y-27774500D01*
X38106775Y-27796103D01*
X38066463Y-27806905D01*
X37958037Y-27869504D01*
X37958034Y-27869506D01*
X37869506Y-27958034D01*
X37869504Y-27958037D01*
X37806905Y-28066463D01*
X37806905Y-28066464D01*
X37774500Y-28187399D01*
X35225500Y-28187399D01*
X35193095Y-28066464D01*
X35130495Y-27958036D01*
X35041964Y-27869505D01*
X34933536Y-27806905D01*
X34933537Y-27806905D01*
X34893224Y-27796103D01*
X34812601Y-27774500D01*
X34687399Y-27774500D01*
X34606775Y-27796103D01*
X34566463Y-27806905D01*
X34458037Y-27869504D01*
X34458034Y-27869506D01*
X34369506Y-27958034D01*
X34369504Y-27958037D01*
X34306905Y-28066463D01*
X34306905Y-28066464D01*
X34274500Y-28187399D01*
X31725500Y-28187399D01*
X31693095Y-28066464D01*
X31630495Y-27958036D01*
X31541964Y-27869505D01*
X31433536Y-27806905D01*
X31433537Y-27806905D01*
X31393224Y-27796103D01*
X31312601Y-27774500D01*
X31187399Y-27774500D01*
X31106775Y-27796103D01*
X31066463Y-27806905D01*
X30958037Y-27869504D01*
X30958034Y-27869506D01*
X30869506Y-27958034D01*
X30869504Y-27958037D01*
X30806905Y-28066463D01*
X30806905Y-28066464D01*
X30774500Y-28187399D01*
X22505500Y-28187399D01*
X22505500Y-25750000D01*
X40807659Y-25750000D01*
X41669576Y-25750000D01*
X41645000Y-25905164D01*
X41645000Y-26094836D01*
X41669576Y-26250000D01*
X40807659Y-26250000D01*
X40827703Y-26402256D01*
X40897511Y-26662781D01*
X41000719Y-26911950D01*
X41000726Y-26911965D01*
X41135579Y-27145538D01*
X41299768Y-27359513D01*
X41299774Y-27359520D01*
X41490479Y-27550225D01*
X41490486Y-27550231D01*
X41704461Y-27714420D01*
X41938034Y-27849273D01*
X41938049Y-27849280D01*
X42187218Y-27952488D01*
X42447743Y-28022296D01*
X42600000Y-28042340D01*
X42600000Y-27180424D01*
X42755164Y-27205000D01*
X42944836Y-27205000D01*
X43100000Y-27180424D01*
X43100000Y-28042339D01*
X43252256Y-28022296D01*
X43512781Y-27952488D01*
X43761950Y-27849280D01*
X43761965Y-27849273D01*
X43995538Y-27714420D01*
X44209513Y-27550231D01*
X44209520Y-27550225D01*
X44400225Y-27359520D01*
X44400231Y-27359513D01*
X44564420Y-27145538D01*
X44699273Y-26911965D01*
X44699280Y-26911950D01*
X44802488Y-26662781D01*
X44872296Y-26402256D01*
X44892341Y-26250000D01*
X44030424Y-26250000D01*
X44055000Y-26094836D01*
X44055000Y-25905164D01*
X44030424Y-25750000D01*
X44892340Y-25750000D01*
X51107659Y-25750000D01*
X51969576Y-25750000D01*
X51945000Y-25905164D01*
X51945000Y-26094836D01*
X51969576Y-26250000D01*
X51107659Y-26250000D01*
X51127703Y-26402256D01*
X51197511Y-26662781D01*
X51300719Y-26911950D01*
X51300726Y-26911965D01*
X51435579Y-27145538D01*
X51599768Y-27359513D01*
X51599774Y-27359520D01*
X51790479Y-27550225D01*
X51790486Y-27550231D01*
X52004461Y-27714420D01*
X52238034Y-27849273D01*
X52238049Y-27849280D01*
X52487218Y-27952488D01*
X52747743Y-28022296D01*
X52900000Y-28042340D01*
X52900000Y-27180424D01*
X53055164Y-27205000D01*
X53244836Y-27205000D01*
X53400000Y-27180424D01*
X53400000Y-28042339D01*
X53552256Y-28022296D01*
X53812781Y-27952488D01*
X54061950Y-27849280D01*
X54061965Y-27849273D01*
X54295538Y-27714420D01*
X54509513Y-27550231D01*
X54509520Y-27550225D01*
X54700225Y-27359520D01*
X54700231Y-27359513D01*
X54864420Y-27145538D01*
X54999273Y-26911965D01*
X54999280Y-26911950D01*
X55102488Y-26662781D01*
X55172296Y-26402256D01*
X55192341Y-26250000D01*
X54330424Y-26250000D01*
X54355000Y-26094836D01*
X54355000Y-25905164D01*
X54330424Y-25750000D01*
X55192340Y-25750000D01*
X55172296Y-25597743D01*
X55102488Y-25337218D01*
X54999280Y-25088049D01*
X54999273Y-25088034D01*
X54864420Y-24854461D01*
X54700231Y-24640486D01*
X54700225Y-24640479D01*
X54509520Y-24449774D01*
X54509513Y-24449768D01*
X54295538Y-24285579D01*
X54061965Y-24150726D01*
X54061950Y-24150719D01*
X53812781Y-24047511D01*
X53552256Y-23977703D01*
X53400000Y-23957657D01*
X53400000Y-24819575D01*
X53244836Y-24795000D01*
X53055164Y-24795000D01*
X52900000Y-24819575D01*
X52900000Y-23957657D01*
X52899999Y-23957657D01*
X52747743Y-23977703D01*
X52487218Y-24047511D01*
X52238049Y-24150719D01*
X52238034Y-24150726D01*
X52004461Y-24285579D01*
X51790486Y-24449768D01*
X51790479Y-24449774D01*
X51599774Y-24640479D01*
X51599768Y-24640486D01*
X51435579Y-24854461D01*
X51300726Y-25088034D01*
X51300719Y-25088049D01*
X51197511Y-25337218D01*
X51127703Y-25597743D01*
X51107659Y-25750000D01*
X44892340Y-25750000D01*
X44872296Y-25597743D01*
X44802488Y-25337218D01*
X44699280Y-25088049D01*
X44699273Y-25088034D01*
X44564420Y-24854461D01*
X44400231Y-24640486D01*
X44400225Y-24640479D01*
X44209520Y-24449774D01*
X44209513Y-24449768D01*
X43995538Y-24285579D01*
X43761965Y-24150726D01*
X43761950Y-24150719D01*
X43512781Y-24047511D01*
X43252256Y-23977703D01*
X43100000Y-23957657D01*
X43100000Y-24819575D01*
X42944836Y-24795000D01*
X42755164Y-24795000D01*
X42600000Y-24819575D01*
X42600000Y-23957657D01*
X42599999Y-23957657D01*
X42447743Y-23977703D01*
X42187218Y-24047511D01*
X41938049Y-24150719D01*
X41938034Y-24150726D01*
X41704461Y-24285579D01*
X41490486Y-24449768D01*
X41490479Y-24449774D01*
X41299774Y-24640479D01*
X41299768Y-24640486D01*
X41135579Y-24854461D01*
X41000726Y-25088034D01*
X41000719Y-25088049D01*
X40897511Y-25337218D01*
X40827703Y-25597743D01*
X40807659Y-25750000D01*
X22505500Y-25750000D01*
X22505500Y-24937399D01*
X26774500Y-24937399D01*
X26774500Y-25062601D01*
X26806905Y-25183536D01*
X26869505Y-25291964D01*
X26958036Y-25380495D01*
X27066464Y-25443095D01*
X27187399Y-25475500D01*
X27187401Y-25475500D01*
X27312599Y-25475500D01*
X27312601Y-25475500D01*
X27433536Y-25443095D01*
X27541964Y-25380495D01*
X27630495Y-25291964D01*
X27693095Y-25183536D01*
X27725500Y-25062601D01*
X27725500Y-24937399D01*
X30524500Y-24937399D01*
X30524500Y-25062601D01*
X30556905Y-25183536D01*
X30619505Y-25291964D01*
X30708036Y-25380495D01*
X30816464Y-25443095D01*
X30937399Y-25475500D01*
X30937401Y-25475500D01*
X31062599Y-25475500D01*
X31062601Y-25475500D01*
X31183536Y-25443095D01*
X31291964Y-25380495D01*
X31380495Y-25291964D01*
X31443095Y-25183536D01*
X31475500Y-25062601D01*
X31475500Y-24937399D01*
X31443095Y-24816464D01*
X31380495Y-24708036D01*
X31359858Y-24687399D01*
X36524500Y-24687399D01*
X36524500Y-24812601D01*
X36556905Y-24933536D01*
X36619505Y-25041964D01*
X36708036Y-25130495D01*
X36816464Y-25193095D01*
X36937399Y-25225500D01*
X36937401Y-25225500D01*
X37062599Y-25225500D01*
X37062601Y-25225500D01*
X37183536Y-25193095D01*
X37291964Y-25130495D01*
X37380495Y-25041964D01*
X37443095Y-24933536D01*
X37475500Y-24812601D01*
X37475500Y-24687399D01*
X37443095Y-24566464D01*
X37380495Y-24458036D01*
X37291964Y-24369505D01*
X37183536Y-24306905D01*
X37183537Y-24306905D01*
X37143224Y-24296103D01*
X37062601Y-24274500D01*
X36937399Y-24274500D01*
X36856775Y-24296103D01*
X36816463Y-24306905D01*
X36708037Y-24369504D01*
X36708034Y-24369506D01*
X36619506Y-24458034D01*
X36619504Y-24458037D01*
X36556905Y-24566463D01*
X36556905Y-24566464D01*
X36524500Y-24687399D01*
X31359858Y-24687399D01*
X31291964Y-24619505D01*
X31183536Y-24556905D01*
X31183537Y-24556905D01*
X31143224Y-24546103D01*
X31062601Y-24524500D01*
X30937399Y-24524500D01*
X30856775Y-24546103D01*
X30816463Y-24556905D01*
X30708037Y-24619504D01*
X30708034Y-24619506D01*
X30619506Y-24708034D01*
X30619504Y-24708037D01*
X30556905Y-24816463D01*
X30540702Y-24876931D01*
X30524500Y-24937399D01*
X27725500Y-24937399D01*
X27693095Y-24816464D01*
X27630495Y-24708036D01*
X27541964Y-24619505D01*
X27433536Y-24556905D01*
X27433537Y-24556905D01*
X27393224Y-24546103D01*
X27312601Y-24524500D01*
X27187399Y-24524500D01*
X27106775Y-24546103D01*
X27066463Y-24556905D01*
X26958037Y-24619504D01*
X26958034Y-24619506D01*
X26869506Y-24708034D01*
X26869504Y-24708037D01*
X26806905Y-24816463D01*
X26790702Y-24876931D01*
X26774500Y-24937399D01*
X22505500Y-24937399D01*
X22505500Y-23687399D01*
X25274500Y-23687399D01*
X25274500Y-23812601D01*
X25306905Y-23933536D01*
X25369505Y-24041964D01*
X25458036Y-24130495D01*
X25566464Y-24193095D01*
X25687399Y-24225500D01*
X25687401Y-24225500D01*
X25812599Y-24225500D01*
X25812601Y-24225500D01*
X25933536Y-24193095D01*
X26041964Y-24130495D01*
X26130495Y-24041964D01*
X26193095Y-23933536D01*
X26225500Y-23812601D01*
X26225500Y-23687399D01*
X26774500Y-23687399D01*
X26774500Y-23812601D01*
X26806905Y-23933536D01*
X26869505Y-24041964D01*
X26958036Y-24130495D01*
X27066464Y-24193095D01*
X27187399Y-24225500D01*
X27187401Y-24225500D01*
X27312599Y-24225500D01*
X27312601Y-24225500D01*
X27433536Y-24193095D01*
X27541964Y-24130495D01*
X27630495Y-24041964D01*
X27693095Y-23933536D01*
X27725500Y-23812601D01*
X27725500Y-23687399D01*
X27693095Y-23566464D01*
X27630495Y-23458036D01*
X27609858Y-23437399D01*
X30524500Y-23437399D01*
X30524500Y-23562601D01*
X30556905Y-23683536D01*
X30619505Y-23791964D01*
X30708036Y-23880495D01*
X30816464Y-23943095D01*
X30937399Y-23975500D01*
X30937401Y-23975500D01*
X31062599Y-23975500D01*
X31062601Y-23975500D01*
X31183536Y-23943095D01*
X31291964Y-23880495D01*
X31380495Y-23791964D01*
X31443095Y-23683536D01*
X31475500Y-23562601D01*
X31475500Y-23437399D01*
X36524500Y-23437399D01*
X36524500Y-23562601D01*
X36556905Y-23683536D01*
X36619505Y-23791964D01*
X36708036Y-23880495D01*
X36816464Y-23943095D01*
X36937399Y-23975500D01*
X36937401Y-23975500D01*
X37062599Y-23975500D01*
X37062601Y-23975500D01*
X37183536Y-23943095D01*
X37291964Y-23880495D01*
X37380495Y-23791964D01*
X37443095Y-23683536D01*
X37475500Y-23562601D01*
X37475500Y-23437399D01*
X37443095Y-23316464D01*
X37380495Y-23208036D01*
X37291964Y-23119505D01*
X37183536Y-23056905D01*
X37183537Y-23056905D01*
X37143224Y-23046103D01*
X37062601Y-23024500D01*
X36937399Y-23024500D01*
X36856775Y-23046103D01*
X36816463Y-23056905D01*
X36708037Y-23119504D01*
X36708034Y-23119506D01*
X36619506Y-23208034D01*
X36619504Y-23208037D01*
X36556905Y-23316463D01*
X36556905Y-23316464D01*
X36524500Y-23437399D01*
X31475500Y-23437399D01*
X31443095Y-23316464D01*
X31380495Y-23208036D01*
X31291964Y-23119505D01*
X31183536Y-23056905D01*
X31183537Y-23056905D01*
X31143224Y-23046103D01*
X31062601Y-23024500D01*
X30937399Y-23024500D01*
X30856775Y-23046103D01*
X30816463Y-23056905D01*
X30708037Y-23119504D01*
X30708034Y-23119506D01*
X30619506Y-23208034D01*
X30619504Y-23208037D01*
X30556905Y-23316463D01*
X30556905Y-23316464D01*
X30524500Y-23437399D01*
X27609858Y-23437399D01*
X27541964Y-23369505D01*
X27433536Y-23306905D01*
X27433537Y-23306905D01*
X27377769Y-23291962D01*
X27312601Y-23274500D01*
X27187399Y-23274500D01*
X27122231Y-23291962D01*
X27066463Y-23306905D01*
X26958037Y-23369504D01*
X26958034Y-23369506D01*
X26869506Y-23458034D01*
X26869504Y-23458037D01*
X26806905Y-23566463D01*
X26806905Y-23566464D01*
X26774500Y-23687399D01*
X26225500Y-23687399D01*
X26193095Y-23566464D01*
X26130495Y-23458036D01*
X26041964Y-23369505D01*
X25933536Y-23306905D01*
X25933537Y-23306905D01*
X25877769Y-23291962D01*
X25812601Y-23274500D01*
X25687399Y-23274500D01*
X25622231Y-23291962D01*
X25566463Y-23306905D01*
X25458037Y-23369504D01*
X25458034Y-23369506D01*
X25369506Y-23458034D01*
X25369504Y-23458037D01*
X25306905Y-23566463D01*
X25306905Y-23566464D01*
X25274500Y-23687399D01*
X22505500Y-23687399D01*
X22505500Y-22407193D01*
X22525185Y-22340154D01*
X22541819Y-22319512D01*
X23069512Y-21791819D01*
X23130835Y-21758334D01*
X23157193Y-21755500D01*
X30411640Y-21755500D01*
X30478679Y-21775185D01*
X30524434Y-21827989D01*
X30534378Y-21897147D01*
X30531416Y-21911586D01*
X30524500Y-21937399D01*
X30524500Y-22062601D01*
X30556905Y-22183536D01*
X30619505Y-22291964D01*
X30708036Y-22380495D01*
X30816464Y-22443095D01*
X30937399Y-22475500D01*
X30937401Y-22475500D01*
X31062599Y-22475500D01*
X31062601Y-22475500D01*
X31183536Y-22443095D01*
X31291964Y-22380495D01*
X31380495Y-22291964D01*
X31443095Y-22183536D01*
X31475500Y-22062601D01*
X31475500Y-21937399D01*
X31468585Y-21911592D01*
X31470248Y-21841744D01*
X31509410Y-21783882D01*
X31573638Y-21756377D01*
X31588360Y-21755500D01*
X36523469Y-21755500D01*
X36590508Y-21775185D01*
X36636263Y-21827989D01*
X36646207Y-21897147D01*
X36623533Y-21950976D01*
X36623569Y-21950997D01*
X36623406Y-21951277D01*
X36621845Y-21954986D01*
X36619506Y-21958033D01*
X36556905Y-22066463D01*
X36556905Y-22066464D01*
X36524500Y-22187399D01*
X36524500Y-22312601D01*
X36556905Y-22433536D01*
X36619505Y-22541964D01*
X36708036Y-22630495D01*
X36816464Y-22693095D01*
X36937399Y-22725500D01*
X36937401Y-22725500D01*
X37062599Y-22725500D01*
X37062601Y-22725500D01*
X37183536Y-22693095D01*
X37291964Y-22630495D01*
X37380495Y-22541964D01*
X37443095Y-22433536D01*
X37475500Y-22312601D01*
X37475500Y-22187399D01*
X37443095Y-22066464D01*
X37380495Y-21958036D01*
X37380494Y-21958035D01*
X37380493Y-21958033D01*
X37378155Y-21954986D01*
X37376981Y-21951950D01*
X37376431Y-21950997D01*
X37376579Y-21950911D01*
X37352961Y-21889817D01*
X37367000Y-21821372D01*
X37415814Y-21771382D01*
X37476531Y-21755500D01*
X39273469Y-21755500D01*
X39340508Y-21775185D01*
X39386263Y-21827989D01*
X39396207Y-21897147D01*
X39373533Y-21950976D01*
X39373569Y-21950997D01*
X39373406Y-21951277D01*
X39371845Y-21954986D01*
X39369506Y-21958033D01*
X39306905Y-22066463D01*
X39306905Y-22066464D01*
X39274500Y-22187399D01*
X39274500Y-22312601D01*
X39306905Y-22433536D01*
X39369505Y-22541964D01*
X39458036Y-22630495D01*
X39566464Y-22693095D01*
X39687399Y-22725500D01*
X39687401Y-22725500D01*
X39812600Y-22725500D01*
X39812601Y-22725500D01*
X39894603Y-22703527D01*
X39964453Y-22705189D01*
X40022316Y-22744350D01*
X40049821Y-22808579D01*
X40046473Y-22855394D01*
X40024500Y-22937398D01*
X40024500Y-22937399D01*
X40024500Y-23062601D01*
X40056905Y-23183536D01*
X40119505Y-23291964D01*
X40208036Y-23380495D01*
X40316464Y-23443095D01*
X40437399Y-23475500D01*
X40437401Y-23475500D01*
X40562599Y-23475500D01*
X40562601Y-23475500D01*
X40683536Y-23443095D01*
X40791964Y-23380495D01*
X40880495Y-23291964D01*
X40943095Y-23183536D01*
X40975500Y-23062601D01*
X40975500Y-22937399D01*
X40943095Y-22816464D01*
X40880495Y-22708036D01*
X40791964Y-22619505D01*
X40683536Y-22556905D01*
X40683537Y-22556905D01*
X40627769Y-22541962D01*
X40562601Y-22524500D01*
X40437399Y-22524500D01*
X40437398Y-22524500D01*
X40355394Y-22546473D01*
X40285544Y-22544810D01*
X40227682Y-22505647D01*
X40200178Y-22441419D01*
X40203527Y-22394603D01*
X40225500Y-22312601D01*
X40225500Y-22187399D01*
X40193095Y-22066464D01*
X40130495Y-21958036D01*
X40130494Y-21958035D01*
X40130493Y-21958033D01*
X40128155Y-21954986D01*
X40126981Y-21951950D01*
X40126431Y-21950997D01*
X40126579Y-21950911D01*
X40102961Y-21889817D01*
X40117000Y-21821372D01*
X40165814Y-21771382D01*
X40226531Y-21755500D01*
X42842806Y-21755500D01*
X42909845Y-21775185D01*
X42930487Y-21791819D01*
X45783015Y-24644347D01*
X45803365Y-24662626D01*
X45803371Y-24662631D01*
X45803379Y-24662638D01*
X45824000Y-24679255D01*
X45824002Y-24679256D01*
X45824007Y-24679260D01*
X45912338Y-24725465D01*
X45979377Y-24745150D01*
X45979381Y-24745150D01*
X45979383Y-24745151D01*
X45991014Y-24746823D01*
X46051362Y-24755500D01*
X46051363Y-24755500D01*
X49698639Y-24755500D01*
X49700075Y-24755422D01*
X49725952Y-24754036D01*
X49752310Y-24751202D01*
X49847444Y-24721413D01*
X49908767Y-24687928D01*
X49966985Y-24644347D01*
X50144347Y-24466985D01*
X50162626Y-24446635D01*
X50179260Y-24425993D01*
X50225465Y-24337662D01*
X50245150Y-24270623D01*
X50255500Y-24198638D01*
X50255500Y-24051362D01*
X50254036Y-24024048D01*
X50251911Y-24004292D01*
X50251749Y-24001268D01*
X50250334Y-23992012D01*
X50248313Y-23983104D01*
X50247880Y-23980092D01*
X50247136Y-23975500D01*
X50246417Y-23971061D01*
X50231877Y-23934106D01*
X50230628Y-23930932D01*
X50230627Y-23930931D01*
X50229010Y-23926820D01*
X50221411Y-23902552D01*
X50220113Y-23900175D01*
X50218807Y-23900887D01*
X50211596Y-23882561D01*
X50211596Y-23882558D01*
X50209920Y-23878297D01*
X50209918Y-23878293D01*
X50200648Y-23863869D01*
X50196160Y-23856309D01*
X50187929Y-23841235D01*
X50187928Y-23841233D01*
X50187926Y-23841230D01*
X50144354Y-23783024D01*
X50144352Y-23783021D01*
X50144347Y-23783015D01*
X49216985Y-22855653D01*
X49196635Y-22837374D01*
X49196629Y-22837369D01*
X49196620Y-22837361D01*
X49175999Y-22820744D01*
X49175996Y-22820742D01*
X49175993Y-22820740D01*
X49087662Y-22774535D01*
X49087659Y-22774534D01*
X49020624Y-22754850D01*
X49020616Y-22754848D01*
X48948639Y-22744500D01*
X48948638Y-22744500D01*
X47407194Y-22744500D01*
X47340155Y-22724815D01*
X47319513Y-22708181D01*
X43966998Y-19355666D01*
X43966997Y-19355665D01*
X43966985Y-19355653D01*
X43946635Y-19337374D01*
X43946629Y-19337369D01*
X43946620Y-19337361D01*
X43925999Y-19320744D01*
X43925996Y-19320742D01*
X43925993Y-19320740D01*
X43837662Y-19274535D01*
X43811000Y-19266706D01*
X43770624Y-19254850D01*
X43770616Y-19254848D01*
X43698639Y-19244500D01*
X43698638Y-19244500D01*
X37726531Y-19244500D01*
X37659492Y-19224815D01*
X37613737Y-19172011D01*
X37603793Y-19102853D01*
X37626466Y-19049023D01*
X37626431Y-19049003D01*
X37626593Y-19048722D01*
X37628155Y-19045014D01*
X37630493Y-19041966D01*
X37630495Y-19041964D01*
X37693095Y-18933536D01*
X37725500Y-18812601D01*
X37725500Y-18687399D01*
X37693095Y-18566464D01*
X37630495Y-18458036D01*
X37541964Y-18369505D01*
X37433536Y-18306905D01*
X37433537Y-18306905D01*
X37377769Y-18291962D01*
X37312601Y-18274500D01*
X37187399Y-18274500D01*
X37122231Y-18291962D01*
X37066463Y-18306905D01*
X36958037Y-18369504D01*
X36958034Y-18369506D01*
X36869506Y-18458034D01*
X36869504Y-18458037D01*
X36806905Y-18566463D01*
X36806905Y-18566464D01*
X36774500Y-18687399D01*
X36774500Y-18812601D01*
X36806905Y-18933536D01*
X36869506Y-19041966D01*
X36871845Y-19045014D01*
X36873018Y-19048049D01*
X36873569Y-19049003D01*
X36873420Y-19049088D01*
X36897039Y-19110183D01*
X36883000Y-19178628D01*
X36834186Y-19228618D01*
X36773469Y-19244500D01*
X22301361Y-19244500D01*
X22274065Y-19245963D01*
X22274060Y-19245963D01*
X22274048Y-19245964D01*
X22274040Y-19245964D01*
X22274011Y-19245967D01*
X22247689Y-19248797D01*
X22247687Y-19248798D01*
X22152558Y-19278586D01*
X22152548Y-19278590D01*
X22091238Y-19312068D01*
X22091230Y-19312073D01*
X22033019Y-19355649D01*
X22033001Y-19355665D01*
X20105666Y-21283001D01*
X20105638Y-21283031D01*
X20087361Y-21303379D01*
X20070744Y-21324000D01*
X20024534Y-21412340D01*
X20004850Y-21479375D01*
X20004848Y-21479383D01*
X19994500Y-21551360D01*
X19994500Y-23911640D01*
X19974815Y-23978679D01*
X19922011Y-24024434D01*
X19852853Y-24034378D01*
X19838413Y-24031416D01*
X19812601Y-24024500D01*
X19687399Y-24024500D01*
X19622231Y-24041962D01*
X19566463Y-24056905D01*
X19458037Y-24119504D01*
X19458034Y-24119506D01*
X19369506Y-24208034D01*
X19369504Y-24208037D01*
X19306905Y-24316463D01*
X19306905Y-24316464D01*
X19274500Y-24437399D01*
X7397447Y-24437399D01*
X7397217Y-24437001D01*
X7380744Y-24369101D01*
X7397217Y-24312999D01*
X7400498Y-24307315D01*
X7400500Y-24307314D01*
X7466392Y-24193186D01*
X7500500Y-24065892D01*
X7500500Y-23934108D01*
X7475862Y-23842161D01*
X7473165Y-23790672D01*
X7474377Y-23783024D01*
X7500500Y-23618092D01*
X7500500Y-23500000D01*
X7500500Y-23434108D01*
X7500500Y-19379500D01*
X7520185Y-19312461D01*
X7572989Y-19266706D01*
X7624500Y-19255500D01*
X13948639Y-19255500D01*
X13950075Y-19255422D01*
X13975952Y-19254036D01*
X14002310Y-19251202D01*
X14097444Y-19221413D01*
X14158767Y-19187928D01*
X14216985Y-19144347D01*
X14569370Y-18791962D01*
X14923934Y-18437399D01*
X19524500Y-18437399D01*
X19524500Y-18562601D01*
X19556905Y-18683536D01*
X19619505Y-18791964D01*
X19708036Y-18880495D01*
X19816464Y-18943095D01*
X19937399Y-18975500D01*
X19937401Y-18975500D01*
X20062599Y-18975500D01*
X20062601Y-18975500D01*
X20183536Y-18943095D01*
X20291964Y-18880495D01*
X20380495Y-18791964D01*
X20443095Y-18683536D01*
X20475500Y-18562601D01*
X20475500Y-18437399D01*
X20443095Y-18316464D01*
X20380495Y-18208036D01*
X20291964Y-18119505D01*
X20183536Y-18056905D01*
X20183537Y-18056905D01*
X20174711Y-18054540D01*
X20062601Y-18024500D01*
X19937399Y-18024500D01*
X19856775Y-18046103D01*
X19816463Y-18056905D01*
X19708037Y-18119504D01*
X19708034Y-18119506D01*
X19619506Y-18208034D01*
X19619504Y-18208037D01*
X19556905Y-18316463D01*
X19556905Y-18316464D01*
X19524500Y-18437399D01*
X14923934Y-18437399D01*
X15019743Y-18341590D01*
X15423934Y-17937399D01*
X26524500Y-17937399D01*
X26524500Y-18062601D01*
X26556905Y-18183536D01*
X26619505Y-18291964D01*
X26708036Y-18380495D01*
X26816464Y-18443095D01*
X26937399Y-18475500D01*
X26937401Y-18475500D01*
X27062599Y-18475500D01*
X27062601Y-18475500D01*
X27183536Y-18443095D01*
X27291964Y-18380495D01*
X27380495Y-18291964D01*
X27443095Y-18183536D01*
X27475500Y-18062601D01*
X27475500Y-17937399D01*
X27443095Y-17816464D01*
X27380495Y-17708036D01*
X27291964Y-17619505D01*
X27183536Y-17556905D01*
X27183537Y-17556905D01*
X27127769Y-17541962D01*
X27062601Y-17524500D01*
X26937399Y-17524500D01*
X26872231Y-17541962D01*
X26816463Y-17556905D01*
X26708037Y-17619504D01*
X26708034Y-17619506D01*
X26619506Y-17708034D01*
X26619504Y-17708037D01*
X26556905Y-17816463D01*
X26556905Y-17816464D01*
X26524500Y-17937399D01*
X15423934Y-17937399D01*
X16173933Y-17187399D01*
X34274500Y-17187399D01*
X34274500Y-17312601D01*
X34306905Y-17433536D01*
X34369505Y-17541964D01*
X34458036Y-17630495D01*
X34566464Y-17693095D01*
X34687399Y-17725500D01*
X34687401Y-17725500D01*
X34812599Y-17725500D01*
X34812601Y-17725500D01*
X34933536Y-17693095D01*
X35041964Y-17630495D01*
X35130495Y-17541964D01*
X35193095Y-17433536D01*
X35225500Y-17312601D01*
X35225500Y-17187399D01*
X35193095Y-17066464D01*
X35130495Y-16958036D01*
X35041964Y-16869505D01*
X34933536Y-16806905D01*
X34933537Y-16806905D01*
X34893224Y-16796103D01*
X34812601Y-16774500D01*
X34687399Y-16774500D01*
X34606775Y-16796103D01*
X34566463Y-16806905D01*
X34458037Y-16869504D01*
X34458034Y-16869506D01*
X34369506Y-16958034D01*
X34369504Y-16958037D01*
X34306905Y-17066463D01*
X34306905Y-17066464D01*
X34274500Y-17187399D01*
X16173933Y-17187399D01*
X16269742Y-17091590D01*
X16586832Y-16774500D01*
X17144347Y-16216985D01*
X17162626Y-16196635D01*
X17179260Y-16175993D01*
X17225465Y-16087662D01*
X17245150Y-16020623D01*
X17255500Y-15948638D01*
X17255500Y-12217631D01*
X39512000Y-12217631D01*
X39512000Y-14682356D01*
X39512002Y-14682382D01*
X39514913Y-14707487D01*
X39514915Y-14707491D01*
X39560293Y-14810264D01*
X39560294Y-14810265D01*
X39639735Y-14889706D01*
X39742509Y-14935085D01*
X39767635Y-14938000D01*
X42232364Y-14937999D01*
X42232379Y-14937997D01*
X42232382Y-14937997D01*
X42257487Y-14935086D01*
X42257488Y-14935085D01*
X42257491Y-14935085D01*
X42360265Y-14889706D01*
X42439706Y-14810265D01*
X42485085Y-14707491D01*
X42488000Y-14682365D01*
X42487999Y-13332892D01*
X43472000Y-13332892D01*
X43472000Y-13567108D01*
X43484454Y-13645736D01*
X43508640Y-13798442D01*
X43581014Y-14021191D01*
X43581015Y-14021194D01*
X43687348Y-14229882D01*
X43825017Y-14419367D01*
X43990633Y-14584983D01*
X44180118Y-14722652D01*
X44278555Y-14772808D01*
X44388805Y-14828984D01*
X44388808Y-14828985D01*
X44500182Y-14865172D01*
X44611559Y-14901360D01*
X44842892Y-14938000D01*
X44842893Y-14938000D01*
X45077107Y-14938000D01*
X45077108Y-14938000D01*
X45308441Y-14901360D01*
X45531194Y-14828984D01*
X45739882Y-14722652D01*
X45929367Y-14584983D01*
X46094983Y-14419367D01*
X46232652Y-14229882D01*
X46338984Y-14021194D01*
X46411360Y-13798441D01*
X46448000Y-13567108D01*
X46448000Y-13332892D01*
X46411360Y-13101559D01*
X46338984Y-12878806D01*
X46338984Y-12878805D01*
X46232651Y-12670117D01*
X46094983Y-12480633D01*
X45929367Y-12315017D01*
X45739882Y-12177348D01*
X45531194Y-12071015D01*
X45531191Y-12071014D01*
X45308442Y-11998640D01*
X45095512Y-11964915D01*
X45077108Y-11962000D01*
X44842892Y-11962000D01*
X44824488Y-11964915D01*
X44611557Y-11998640D01*
X44388808Y-12071014D01*
X44388805Y-12071015D01*
X44180117Y-12177348D01*
X44072009Y-12255893D01*
X43990633Y-12315017D01*
X43990631Y-12315019D01*
X43990630Y-12315019D01*
X43825019Y-12480630D01*
X43825019Y-12480631D01*
X43825017Y-12480633D01*
X43810583Y-12500500D01*
X43687348Y-12670117D01*
X43581015Y-12878805D01*
X43581014Y-12878808D01*
X43508640Y-13101557D01*
X43508640Y-13101559D01*
X43472000Y-13332892D01*
X42487999Y-13332892D01*
X42487999Y-12217636D01*
X42485164Y-12193186D01*
X42485086Y-12192512D01*
X42485085Y-12192510D01*
X42485085Y-12192509D01*
X42439706Y-12089735D01*
X42360265Y-12010294D01*
X42333871Y-11998640D01*
X42257492Y-11964915D01*
X42232365Y-11962000D01*
X39767643Y-11962000D01*
X39767617Y-11962002D01*
X39742512Y-11964913D01*
X39742508Y-11964915D01*
X39639735Y-12010293D01*
X39560294Y-12089734D01*
X39514915Y-12192506D01*
X39514915Y-12192508D01*
X39512000Y-12217631D01*
X17255500Y-12217631D01*
X17255500Y-7624500D01*
X17275185Y-7557461D01*
X17327989Y-7511706D01*
X17379500Y-7500500D01*
X28618091Y-7500500D01*
X28618092Y-7500500D01*
X28790674Y-7473165D01*
X28842161Y-7475862D01*
X28934108Y-7500500D01*
X28934111Y-7500500D01*
X29065890Y-7500500D01*
X29065892Y-7500500D01*
X29193186Y-7466392D01*
X29307314Y-7400500D01*
X29307315Y-7400498D01*
X29312999Y-7397217D01*
X29380899Y-7380744D01*
X29437001Y-7397217D01*
X29442684Y-7400498D01*
X29442686Y-7400500D01*
X29536444Y-7454631D01*
X29554889Y-7465281D01*
X29556814Y-7466392D01*
X29684108Y-7500500D01*
X29684110Y-7500500D01*
X29815890Y-7500500D01*
X29815892Y-7500500D01*
X29943186Y-7466392D01*
X30057314Y-7400500D01*
X30057315Y-7400498D01*
X30062999Y-7397217D01*
X30130899Y-7380744D01*
X30187001Y-7397217D01*
X30192684Y-7400498D01*
X30192686Y-7400500D01*
X30286444Y-7454631D01*
X30304889Y-7465281D01*
X30306814Y-7466392D01*
X30434108Y-7500500D01*
X30434110Y-7500500D01*
X30565890Y-7500500D01*
X30565892Y-7500500D01*
X30693186Y-7466392D01*
X30807314Y-7400500D01*
X30807315Y-7400498D01*
X30812999Y-7397217D01*
X30880899Y-7380744D01*
X30937001Y-7397217D01*
X30942684Y-7400498D01*
X30942686Y-7400500D01*
X31036444Y-7454631D01*
X31054889Y-7465281D01*
X31056814Y-7466392D01*
X31184108Y-7500500D01*
X31184110Y-7500500D01*
X31315890Y-7500500D01*
X31315892Y-7500500D01*
X31443186Y-7466392D01*
X31557314Y-7400500D01*
X31557315Y-7400498D01*
X31562999Y-7397217D01*
X31630899Y-7380744D01*
X31687001Y-7397217D01*
X31692684Y-7400498D01*
X31692686Y-7400500D01*
X31786444Y-7454631D01*
X31804889Y-7465281D01*
X31806814Y-7466392D01*
X31934108Y-7500500D01*
X31934110Y-7500500D01*
X32065890Y-7500500D01*
X32065892Y-7500500D01*
X32193186Y-7466392D01*
X32307314Y-7400500D01*
X32307315Y-7400498D01*
X32312999Y-7397217D01*
X32380899Y-7380744D01*
X32437001Y-7397217D01*
X32442684Y-7400498D01*
X32442686Y-7400500D01*
X32536444Y-7454631D01*
X32554889Y-7465281D01*
X32556814Y-7466392D01*
X32684108Y-7500500D01*
X32684110Y-7500500D01*
X32815890Y-7500500D01*
X32815892Y-7500500D01*
X32943186Y-7466392D01*
X33057314Y-7400500D01*
X33057315Y-7400498D01*
X33062999Y-7397217D01*
X33130899Y-7380744D01*
X33187001Y-7397217D01*
X33192684Y-7400498D01*
X33192686Y-7400500D01*
X33286444Y-7454631D01*
X33304889Y-7465281D01*
X33306814Y-7466392D01*
X33434108Y-7500500D01*
X33434110Y-7500500D01*
X33565890Y-7500500D01*
X33565892Y-7500500D01*
X33693186Y-7466392D01*
X33807314Y-7400500D01*
X33807315Y-7400498D01*
X33812999Y-7397217D01*
X33880899Y-7380744D01*
X33937001Y-7397217D01*
X33942684Y-7400498D01*
X33942686Y-7400500D01*
X34036444Y-7454631D01*
X34054889Y-7465281D01*
X34056814Y-7466392D01*
X34184108Y-7500500D01*
X34184110Y-7500500D01*
X34315890Y-7500500D01*
X34315892Y-7500500D01*
X34443186Y-7466392D01*
X34557314Y-7400500D01*
X34557315Y-7400498D01*
X34562999Y-7397217D01*
X34630899Y-7380744D01*
X34687001Y-7397217D01*
G37*
%TD.AperFunction*%
%TD*%
%TA.AperFunction,Conductor*%
%TO.N,Chassis*%
G36*
X16943039Y-7520185D02*
G01*
X16988794Y-7572989D01*
X17000000Y-7624500D01*
X17000000Y-15948638D01*
X16980315Y-16015677D01*
X16963681Y-16036319D01*
X14036319Y-18963681D01*
X13974996Y-18997166D01*
X13948638Y-19000000D01*
X7624500Y-19000000D01*
X7557461Y-18980315D01*
X7511706Y-18927511D01*
X7500500Y-18876000D01*
X7500500Y-12002706D01*
X7500618Y-11997297D01*
X7503377Y-11934108D01*
X7517386Y-11613226D01*
X7518326Y-11602495D01*
X7568152Y-11224025D01*
X7570025Y-11213405D01*
X7652649Y-10840709D01*
X7655440Y-10830295D01*
X7770230Y-10466227D01*
X7773917Y-10456095D01*
X7920003Y-10103412D01*
X7924561Y-10093638D01*
X8100822Y-9755045D01*
X8106217Y-9745700D01*
X8311325Y-9423744D01*
X8317515Y-9414905D01*
X8549896Y-9112060D01*
X8556834Y-9103791D01*
X8814726Y-8822352D01*
X8822352Y-8814726D01*
X9103791Y-8556834D01*
X9112060Y-8549896D01*
X9414905Y-8317515D01*
X9423744Y-8311325D01*
X9745700Y-8106217D01*
X9755045Y-8100822D01*
X10093638Y-7924561D01*
X10103412Y-7920003D01*
X10456095Y-7773917D01*
X10466227Y-7770230D01*
X10830295Y-7655440D01*
X10840709Y-7652649D01*
X11213405Y-7570025D01*
X11224025Y-7568152D01*
X11602495Y-7518326D01*
X11613226Y-7517386D01*
X11997297Y-7500617D01*
X12002706Y-7500500D01*
X12065892Y-7500500D01*
X16876000Y-7500500D01*
X16943039Y-7520185D01*
G37*
%TD.AperFunction*%
%TD*%
%TA.AperFunction,Conductor*%
%TO.N,+12V*%
G36*
X43765677Y-19519685D02*
G01*
X43786319Y-19536319D01*
X47250000Y-23000000D01*
X48948638Y-23000000D01*
X49015677Y-23019685D01*
X49036319Y-23036319D01*
X49963681Y-23963681D01*
X49978384Y-23990608D01*
X49994977Y-24016427D01*
X49995868Y-24022627D01*
X49997166Y-24025004D01*
X50000000Y-24051362D01*
X50000000Y-24198638D01*
X49980315Y-24265677D01*
X49963681Y-24286319D01*
X49786319Y-24463681D01*
X49724996Y-24497166D01*
X49698638Y-24500000D01*
X46051362Y-24500000D01*
X45984323Y-24480315D01*
X45963681Y-24463681D01*
X43000000Y-21500000D01*
X23000000Y-21500000D01*
X22999999Y-21500000D01*
X22250000Y-22249999D01*
X22250000Y-22250000D01*
X22250000Y-29250000D01*
X21750000Y-29250000D01*
X21500000Y-29500000D01*
X21500000Y-30250000D01*
X21750000Y-30500000D01*
X20801362Y-30500000D01*
X20734323Y-30480315D01*
X20713681Y-30463681D01*
X20286319Y-30036319D01*
X20252834Y-29974996D01*
X20250000Y-29948638D01*
X20250000Y-21551362D01*
X20269685Y-21484323D01*
X20286319Y-21463681D01*
X22213681Y-19536319D01*
X22275004Y-19502834D01*
X22301362Y-19500000D01*
X43698638Y-19500000D01*
X43765677Y-19519685D01*
G37*
%TD.AperFunction*%
%TD*%
%TA.AperFunction,Conductor*%
%TO.N,+12V*%
G36*
X22500000Y-29500000D02*
G01*
X31948638Y-29500000D01*
X32015677Y-29519685D01*
X32036319Y-29536319D01*
X36213681Y-33713681D01*
X36247166Y-33775004D01*
X36250000Y-33801362D01*
X36250000Y-39698638D01*
X36230315Y-39765677D01*
X36213681Y-39786319D01*
X36036319Y-39963681D01*
X35974996Y-39997166D01*
X35948638Y-40000000D01*
X35551362Y-40000000D01*
X35484323Y-39980315D01*
X35463681Y-39963681D01*
X35286319Y-39786319D01*
X35252834Y-39724996D01*
X35250000Y-39698638D01*
X35250000Y-34250000D01*
X31500000Y-30500000D01*
X21750000Y-30500000D01*
X21500000Y-30250000D01*
X21500000Y-29500000D01*
X21750000Y-29250000D01*
X22250000Y-29250000D01*
X22500000Y-29500000D01*
G37*
%TD.AperFunction*%
%TD*%
M02*
